<svg width="354" height="44" viewBox="0 0 354 44" fill="none" xmlns="http://www.w3.org/2000/svg">
<mask id="path-1-outside-1_517:1016" maskUnits="userSpaceOnUse" x="0.591797" y="0.624023" width="354" height="43" fill="black">
<rect fill="white" x="0.591797" y="0.624023" width="354" height="43"/>
<path d="M17.6558 3.62402C8.9198 3.62402 3.5918 10.392 3.5918 21.576C3.5918 33.24 8.7758 40.152 17.6558 40.152C26.5358 40.152 31.7678 33.24 31.7678 21.576C31.7678 10.392 26.4398 3.62402 17.6558 3.62402ZM17.6558 36.12C11.6558 36.12 7.9598 30.6 7.9598 21.672C7.9598 13.128 11.7518 7.70403 17.6558 7.70403C23.5598 7.70403 27.3998 13.128 27.3998 21.672C27.3998 30.552 23.6558 36.12 17.6558 36.12Z"/>
<path d="M53.3348 35.832C51.9908 35.976 50.5508 36.072 49.0628 36.12V6.16803C49.0628 4.58403 47.4308 3.62402 46.0388 4.29602L38.9828 7.70403C37.9268 8.18402 37.4468 9.48003 37.9748 10.584C38.5028 11.64 39.7988 12.072 40.9028 11.544L44.7428 9.72003V36.12C43.2548 36.072 41.7668 35.976 40.2788 35.832C38.9828 35.736 37.9268 36.696 37.9268 37.992C37.9268 39.288 38.9828 40.248 40.2788 40.152C44.0228 39.72 49.0628 39.72 53.3348 40.152C54.6308 40.248 55.6388 39.288 55.6388 37.992C55.6388 36.696 54.6308 35.736 53.3348 35.832Z"/>
<path d="M84.5895 30.168C83.2455 30.168 82.2375 31.224 82.3335 32.52C82.3815 33.48 82.4775 34.44 82.5255 35.544H64.7175C66.8775 24.12 87.7575 26.472 85.6936 12.696C83.4855 1.80003 67.5015 0.888025 62.6055 10.056C60.5895 14.04 61.6935 17.976 64.9575 17.976C68.4615 17.976 69.4215 13.32 66.4455 11.88C67.5495 9.19203 70.1895 7.75203 74.0295 7.75203C78.3975 7.75203 80.9895 9.72003 81.5655 13.416C81.9975 18.168 79.4055 19.464 73.5495 22.104C66.1095 25.416 61.0695 29.256 60.2535 36.504C60.1095 38.232 61.5015 39.72 63.3255 39.72H83.2935C85.0215 39.72 86.4615 38.328 86.5575 36.552L86.8455 32.52C86.9415 31.224 85.9335 30.168 84.5895 30.168Z"/>
<path d="M106.39 3.62402C97.6542 3.62402 92.3262 10.392 92.3262 21.576C92.3262 33.24 97.5102 40.152 106.39 40.152C115.27 40.152 120.502 33.24 120.502 21.576C120.502 10.392 115.174 3.62402 106.39 3.62402ZM106.39 36.12C100.39 36.12 96.6942 30.6 96.6942 21.672C96.6942 13.128 100.486 7.70403 106.39 7.70403C112.294 7.70403 116.134 13.128 116.134 21.672C116.134 30.552 112.39 36.12 106.39 36.12Z"/>
<path d="M137.893 23.976C140.677 23.976 140.677 19.752 137.893 19.752H129.109C126.325 19.752 126.325 23.976 129.109 23.976H137.893Z"/>
<path d="M159.483 17.64C156.843 17.736 152.955 19.128 150.363 22.584C150.123 12.6 155.019 7.75203 160.395 7.75203C162.459 7.75203 163.803 8.18403 164.619 9.04803C163.227 10.824 164.331 13.56 166.635 13.8C168.219 13.944 169.611 12.84 169.947 11.16C170.619 7.89603 166.827 3.33603 159.531 3.67202C151.131 4.05602 146.331 11.4 146.331 23.736C146.331 34.296 151.035 40.104 159.627 40.104C166.347 40.104 171.723 35.208 171.723 29.112C171.723 22.056 166.683 17.304 159.483 17.64ZM159.627 36.072C155.067 36.072 152.475 34.248 151.227 30.264C151.035 25.8 154.779 21.72 159.339 21.432C162.747 21.24 167.547 22.488 167.547 29.112C167.547 32.472 164.811 36.072 159.627 36.072Z"/>
<path d="M190.671 3.62402C181.935 3.62402 176.607 10.392 176.607 21.576C176.607 33.24 181.791 40.152 190.671 40.152C199.551 40.152 204.783 33.24 204.783 21.576C204.783 10.392 199.455 3.62402 190.671 3.62402ZM190.671 36.12C184.671 36.12 180.975 30.6 180.975 21.672C180.975 13.128 184.767 7.70403 190.671 7.70403C196.575 7.70403 200.415 13.128 200.415 21.672C200.415 30.552 196.671 36.12 190.671 36.12Z"/>
<path d="M222.174 23.976C224.958 23.976 224.958 19.752 222.174 19.752H213.39C210.606 19.752 210.606 23.976 213.39 23.976H222.174Z"/>
<path d="M254.276 5.83202C253.796 4.82403 252.788 4.20003 251.636 4.20003H232.58C230.9 4.20003 229.46 5.59202 229.364 7.36802C229.316 9.33603 229.124 11.4 229.028 13.08C228.932 14.328 229.94 15.432 231.284 15.432C232.58 15.432 233.636 14.328 233.54 13.08C233.444 11.688 233.252 10.056 233.204 8.47202H249.716L235.172 36.984C234.644 38.088 235.076 39.336 236.084 39.864C237.188 40.44 238.484 40.008 239.012 38.952L254.228 9.09603C254.756 8.08802 254.756 6.88802 254.276 5.83202Z"/>
<path d="M270.684 26.136C273.276 25.992 277.644 24.504 279.996 20.616C280.14 29.64 275.868 36.12 269.772 36.12C267.516 36.12 266.22 35.688 265.548 34.728C266.988 32.952 265.836 30.168 263.484 29.976C261.948 29.832 260.556 30.936 260.22 32.616C259.548 35.832 263.34 40.392 270.636 40.056C278.94 39.72 283.836 32.232 283.836 20.04C283.836 7.46403 276.972 3.67202 270.54 3.67202C263.388 3.67202 258.444 8.37603 258.444 15.192C258.444 21.816 263.532 26.424 270.684 26.136ZM270.204 7.60802C274.716 7.41602 277.5 9.28803 278.94 13.512C279.132 17.88 275.1 22.008 270.492 22.248C267.036 22.488 262.476 21.48 262.476 14.856C262.476 10.68 265.548 7.75203 270.204 7.60802Z"/>
<path d="M303.265 3.62402C294.529 3.62402 289.201 10.392 289.201 21.576C289.201 33.24 294.385 40.152 303.265 40.152C312.145 40.152 317.377 33.24 317.377 21.576C317.377 10.392 312.049 3.62402 303.265 3.62402ZM303.265 36.12C297.265 36.12 293.569 30.6 293.569 21.672C293.569 13.128 297.361 7.70403 303.265 7.70403C309.169 7.70403 313.009 13.128 313.009 21.672C313.009 30.552 309.265 36.12 303.265 36.12Z"/>
<path d="M336.64 3.62402C327.904 3.62402 322.576 10.392 322.576 21.576C322.576 33.24 327.76 40.152 336.64 40.152C345.52 40.152 350.752 33.24 350.752 21.576C350.752 10.392 345.424 3.62402 336.64 3.62402ZM336.64 36.12C330.64 36.12 326.944 30.6 326.944 21.672C326.944 13.128 330.736 7.70403 336.64 7.70403C342.544 7.70403 346.384 13.128 346.384 21.672C346.384 30.552 342.64 36.12 336.64 36.12Z"/>
</mask>
<path d="M17.6558 3.62402C8.9198 3.62402 3.5918 10.392 3.5918 21.576C3.5918 33.24 8.7758 40.152 17.6558 40.152C26.5358 40.152 31.7678 33.24 31.7678 21.576C31.7678 10.392 26.4398 3.62402 17.6558 3.62402ZM17.6558 36.12C11.6558 36.12 7.9598 30.6 7.9598 21.672C7.9598 13.128 11.7518 7.70403 17.6558 7.70403C23.5598 7.70403 27.3998 13.128 27.3998 21.672C27.3998 30.552 23.6558 36.12 17.6558 36.12Z" fill="#42210C"/>
<path d="M53.3348 35.832C51.9908 35.976 50.5508 36.072 49.0628 36.12V6.16803C49.0628 4.58403 47.4308 3.62402 46.0388 4.29602L38.9828 7.70403C37.9268 8.18402 37.4468 9.48003 37.9748 10.584C38.5028 11.64 39.7988 12.072 40.9028 11.544L44.7428 9.72003V36.12C43.2548 36.072 41.7668 35.976 40.2788 35.832C38.9828 35.736 37.9268 36.696 37.9268 37.992C37.9268 39.288 38.9828 40.248 40.2788 40.152C44.0228 39.72 49.0628 39.72 53.3348 40.152C54.6308 40.248 55.6388 39.288 55.6388 37.992C55.6388 36.696 54.6308 35.736 53.3348 35.832Z" fill="#42210C"/>
<path d="M84.5895 30.168C83.2455 30.168 82.2375 31.224 82.3335 32.52C82.3815 33.48 82.4775 34.44 82.5255 35.544H64.7175C66.8775 24.12 87.7575 26.472 85.6936 12.696C83.4855 1.80003 67.5015 0.888025 62.6055 10.056C60.5895 14.04 61.6935 17.976 64.9575 17.976C68.4615 17.976 69.4215 13.32 66.4455 11.88C67.5495 9.19203 70.1895 7.75203 74.0295 7.75203C78.3975 7.75203 80.9895 9.72003 81.5655 13.416C81.9975 18.168 79.4055 19.464 73.5495 22.104C66.1095 25.416 61.0695 29.256 60.2535 36.504C60.1095 38.232 61.5015 39.72 63.3255 39.72H83.2935C85.0215 39.72 86.4615 38.328 86.5575 36.552L86.8455 32.52C86.9415 31.224 85.9335 30.168 84.5895 30.168Z" fill="#42210C"/>
<path d="M106.39 3.62402C97.6542 3.62402 92.3262 10.392 92.3262 21.576C92.3262 33.24 97.5102 40.152 106.39 40.152C115.27 40.152 120.502 33.24 120.502 21.576C120.502 10.392 115.174 3.62402 106.39 3.62402ZM106.39 36.12C100.39 36.12 96.6942 30.6 96.6942 21.672C96.6942 13.128 100.486 7.70403 106.39 7.70403C112.294 7.70403 116.134 13.128 116.134 21.672C116.134 30.552 112.39 36.12 106.39 36.12Z" fill="#42210C"/>
<path d="M137.893 23.976C140.677 23.976 140.677 19.752 137.893 19.752H129.109C126.325 19.752 126.325 23.976 129.109 23.976H137.893Z" fill="#42210C"/>
<path d="M159.483 17.64C156.843 17.736 152.955 19.128 150.363 22.584C150.123 12.6 155.019 7.75203 160.395 7.75203C162.459 7.75203 163.803 8.18403 164.619 9.04803C163.227 10.824 164.331 13.56 166.635 13.8C168.219 13.944 169.611 12.84 169.947 11.16C170.619 7.89603 166.827 3.33603 159.531 3.67202C151.131 4.05602 146.331 11.4 146.331 23.736C146.331 34.296 151.035 40.104 159.627 40.104C166.347 40.104 171.723 35.208 171.723 29.112C171.723 22.056 166.683 17.304 159.483 17.64ZM159.627 36.072C155.067 36.072 152.475 34.248 151.227 30.264C151.035 25.8 154.779 21.72 159.339 21.432C162.747 21.24 167.547 22.488 167.547 29.112C167.547 32.472 164.811 36.072 159.627 36.072Z" fill="#42210C"/>
<path d="M190.671 3.62402C181.935 3.62402 176.607 10.392 176.607 21.576C176.607 33.24 181.791 40.152 190.671 40.152C199.551 40.152 204.783 33.24 204.783 21.576C204.783 10.392 199.455 3.62402 190.671 3.62402ZM190.671 36.12C184.671 36.12 180.975 30.6 180.975 21.672C180.975 13.128 184.767 7.70403 190.671 7.70403C196.575 7.70403 200.415 13.128 200.415 21.672C200.415 30.552 196.671 36.12 190.671 36.12Z" fill="#42210C"/>
<path d="M222.174 23.976C224.958 23.976 224.958 19.752 222.174 19.752H213.39C210.606 19.752 210.606 23.976 213.39 23.976H222.174Z" fill="#42210C"/>
<path d="M254.276 5.83202C253.796 4.82403 252.788 4.20003 251.636 4.20003H232.58C230.9 4.20003 229.46 5.59202 229.364 7.36802C229.316 9.33603 229.124 11.4 229.028 13.08C228.932 14.328 229.94 15.432 231.284 15.432C232.58 15.432 233.636 14.328 233.54 13.08C233.444 11.688 233.252 10.056 233.204 8.47202H249.716L235.172 36.984C234.644 38.088 235.076 39.336 236.084 39.864C237.188 40.44 238.484 40.008 239.012 38.952L254.228 9.09603C254.756 8.08802 254.756 6.88802 254.276 5.83202Z" fill="#42210C"/>
<path d="M270.684 26.136C273.276 25.992 277.644 24.504 279.996 20.616C280.14 29.64 275.868 36.12 269.772 36.12C267.516 36.12 266.22 35.688 265.548 34.728C266.988 32.952 265.836 30.168 263.484 29.976C261.948 29.832 260.556 30.936 260.22 32.616C259.548 35.832 263.34 40.392 270.636 40.056C278.94 39.72 283.836 32.232 283.836 20.04C283.836 7.46403 276.972 3.67202 270.54 3.67202C263.388 3.67202 258.444 8.37603 258.444 15.192C258.444 21.816 263.532 26.424 270.684 26.136ZM270.204 7.60802C274.716 7.41602 277.5 9.28803 278.94 13.512C279.132 17.88 275.1 22.008 270.492 22.248C267.036 22.488 262.476 21.48 262.476 14.856C262.476 10.68 265.548 7.75203 270.204 7.60802Z" fill="#42210C"/>
<path d="M303.265 3.62402C294.529 3.62402 289.201 10.392 289.201 21.576C289.201 33.24 294.385 40.152 303.265 40.152C312.145 40.152 317.377 33.24 317.377 21.576C317.377 10.392 312.049 3.62402 303.265 3.62402ZM303.265 36.12C297.265 36.12 293.569 30.6 293.569 21.672C293.569 13.128 297.361 7.70403 303.265 7.70403C309.169 7.70403 313.009 13.128 313.009 21.672C313.009 30.552 309.265 36.12 303.265 36.12Z" fill="#42210C"/>
<path d="M336.64 3.62402C327.904 3.62402 322.576 10.392 322.576 21.576C322.576 33.24 327.76 40.152 336.64 40.152C345.52 40.152 350.752 33.24 350.752 21.576C350.752 10.392 345.424 3.62402 336.64 3.62402ZM336.64 36.12C330.64 36.12 326.944 30.6 326.944 21.672C326.944 13.128 330.736 7.70403 336.64 7.70403C342.544 7.70403 346.384 13.128 346.384 21.672C346.384 30.552 342.64 36.12 336.64 36.12Z" fill="#42210C"/>
<path d="M17.6558 3.62402C8.9198 3.62402 3.5918 10.392 3.5918 21.576C3.5918 33.24 8.7758 40.152 17.6558 40.152C26.5358 40.152 31.7678 33.24 31.7678 21.576C31.7678 10.392 26.4398 3.62402 17.6558 3.62402ZM17.6558 36.12C11.6558 36.12 7.9598 30.6 7.9598 21.672C7.9598 13.128 11.7518 7.70403 17.6558 7.70403C23.5598 7.70403 27.3998 13.128 27.3998 21.672C27.3998 30.552 23.6558 36.12 17.6558 36.12Z" stroke="white" stroke-width="6" mask="url(#path-1-outside-1_517:1016)"/>
<path d="M53.3348 35.832C51.9908 35.976 50.5508 36.072 49.0628 36.12V6.16803C49.0628 4.58403 47.4308 3.62402 46.0388 4.29602L38.9828 7.70403C37.9268 8.18402 37.4468 9.48003 37.9748 10.584C38.5028 11.64 39.7988 12.072 40.9028 11.544L44.7428 9.72003V36.12C43.2548 36.072 41.7668 35.976 40.2788 35.832C38.9828 35.736 37.9268 36.696 37.9268 37.992C37.9268 39.288 38.9828 40.248 40.2788 40.152C44.0228 39.72 49.0628 39.72 53.3348 40.152C54.6308 40.248 55.6388 39.288 55.6388 37.992C55.6388 36.696 54.6308 35.736 53.3348 35.832Z" stroke="white" stroke-width="6" mask="url(#path-1-outside-1_517:1016)"/>
<path d="M84.5895 30.168C83.2455 30.168 82.2375 31.224 82.3335 32.52C82.3815 33.48 82.4775 34.44 82.5255 35.544H64.7175C66.8775 24.12 87.7575 26.472 85.6936 12.696C83.4855 1.80003 67.5015 0.888025 62.6055 10.056C60.5895 14.04 61.6935 17.976 64.9575 17.976C68.4615 17.976 69.4215 13.32 66.4455 11.88C67.5495 9.19203 70.1895 7.75203 74.0295 7.75203C78.3975 7.75203 80.9895 9.72003 81.5655 13.416C81.9975 18.168 79.4055 19.464 73.5495 22.104C66.1095 25.416 61.0695 29.256 60.2535 36.504C60.1095 38.232 61.5015 39.72 63.3255 39.72H83.2935C85.0215 39.72 86.4615 38.328 86.5575 36.552L86.8455 32.52C86.9415 31.224 85.9335 30.168 84.5895 30.168Z" stroke="white" stroke-width="6" mask="url(#path-1-outside-1_517:1016)"/>
<path d="M106.39 3.62402C97.6542 3.62402 92.3262 10.392 92.3262 21.576C92.3262 33.24 97.5102 40.152 106.39 40.152C115.27 40.152 120.502 33.24 120.502 21.576C120.502 10.392 115.174 3.62402 106.39 3.62402ZM106.39 36.12C100.39 36.12 96.6942 30.6 96.6942 21.672C96.6942 13.128 100.486 7.70403 106.39 7.70403C112.294 7.70403 116.134 13.128 116.134 21.672C116.134 30.552 112.39 36.12 106.39 36.12Z" stroke="white" stroke-width="6" mask="url(#path-1-outside-1_517:1016)"/>
<path d="M137.893 23.976C140.677 23.976 140.677 19.752 137.893 19.752H129.109C126.325 19.752 126.325 23.976 129.109 23.976H137.893Z" stroke="white" stroke-width="6" mask="url(#path-1-outside-1_517:1016)"/>
<path d="M159.483 17.64C156.843 17.736 152.955 19.128 150.363 22.584C150.123 12.6 155.019 7.75203 160.395 7.75203C162.459 7.75203 163.803 8.18403 164.619 9.04803C163.227 10.824 164.331 13.56 166.635 13.8C168.219 13.944 169.611 12.84 169.947 11.16C170.619 7.89603 166.827 3.33603 159.531 3.67202C151.131 4.05602 146.331 11.4 146.331 23.736C146.331 34.296 151.035 40.104 159.627 40.104C166.347 40.104 171.723 35.208 171.723 29.112C171.723 22.056 166.683 17.304 159.483 17.64ZM159.627 36.072C155.067 36.072 152.475 34.248 151.227 30.264C151.035 25.8 154.779 21.72 159.339 21.432C162.747 21.24 167.547 22.488 167.547 29.112C167.547 32.472 164.811 36.072 159.627 36.072Z" stroke="white" stroke-width="6" mask="url(#path-1-outside-1_517:1016)"/>
<path d="M190.671 3.62402C181.935 3.62402 176.607 10.392 176.607 21.576C176.607 33.24 181.791 40.152 190.671 40.152C199.551 40.152 204.783 33.24 204.783 21.576C204.783 10.392 199.455 3.62402 190.671 3.62402ZM190.671 36.12C184.671 36.12 180.975 30.6 180.975 21.672C180.975 13.128 184.767 7.70403 190.671 7.70403C196.575 7.70403 200.415 13.128 200.415 21.672C200.415 30.552 196.671 36.12 190.671 36.12Z" stroke="white" stroke-width="6" mask="url(#path-1-outside-1_517:1016)"/>
<path d="M222.174 23.976C224.958 23.976 224.958 19.752 222.174 19.752H213.39C210.606 19.752 210.606 23.976 213.39 23.976H222.174Z" stroke="white" stroke-width="6" mask="url(#path-1-outside-1_517:1016)"/>
<path d="M254.276 5.83202C253.796 4.82403 252.788 4.20003 251.636 4.20003H232.58C230.9 4.20003 229.46 5.59202 229.364 7.36802C229.316 9.33603 229.124 11.4 229.028 13.08C228.932 14.328 229.94 15.432 231.284 15.432C232.58 15.432 233.636 14.328 233.54 13.08C233.444 11.688 233.252 10.056 233.204 8.47202H249.716L235.172 36.984C234.644 38.088 235.076 39.336 236.084 39.864C237.188 40.44 238.484 40.008 239.012 38.952L254.228 9.09603C254.756 8.08802 254.756 6.88802 254.276 5.83202Z" stroke="white" stroke-width="6" mask="url(#path-1-outside-1_517:1016)"/>
<path d="M270.684 26.136C273.276 25.992 277.644 24.504 279.996 20.616C280.14 29.64 275.868 36.12 269.772 36.12C267.516 36.12 266.22 35.688 265.548 34.728C266.988 32.952 265.836 30.168 263.484 29.976C261.948 29.832 260.556 30.936 260.22 32.616C259.548 35.832 263.34 40.392 270.636 40.056C278.94 39.72 283.836 32.232 283.836 20.04C283.836 7.46403 276.972 3.67202 270.54 3.67202C263.388 3.67202 258.444 8.37603 258.444 15.192C258.444 21.816 263.532 26.424 270.684 26.136ZM270.204 7.60802C274.716 7.41602 277.5 9.28803 278.94 13.512C279.132 17.88 275.1 22.008 270.492 22.248C267.036 22.488 262.476 21.48 262.476 14.856C262.476 10.68 265.548 7.75203 270.204 7.60802Z" stroke="white" stroke-width="6" mask="url(#path-1-outside-1_517:1016)"/>
<path d="M303.265 3.62402C294.529 3.62402 289.201 10.392 289.201 21.576C289.201 33.24 294.385 40.152 303.265 40.152C312.145 40.152 317.377 33.24 317.377 21.576C317.377 10.392 312.049 3.62402 303.265 3.62402ZM303.265 36.12C297.265 36.12 293.569 30.6 293.569 21.672C293.569 13.128 297.361 7.70403 303.265 7.70403C309.169 7.70403 313.009 13.128 313.009 21.672C313.009 30.552 309.265 36.12 303.265 36.12Z" stroke="white" stroke-width="6" mask="url(#path-1-outside-1_517:1016)"/>
<path d="M336.64 3.62402C327.904 3.62402 322.576 10.392 322.576 21.576C322.576 33.24 327.76 40.152 336.64 40.152C345.52 40.152 350.752 33.24 350.752 21.576C350.752 10.392 345.424 3.62402 336.64 3.62402ZM336.64 36.12C330.64 36.12 326.944 30.6 326.944 21.672C326.944 13.128 330.736 7.70403 336.64 7.70403C342.544 7.70403 346.384 13.128 346.384 21.672C346.384 30.552 342.64 36.12 336.64 36.12Z" stroke="white" stroke-width="6" mask="url(#path-1-outside-1_517:1016)"/>
</svg>
