<svg width="898" height="203" viewBox="0 0 898 203" fill="none" xmlns="http://www.w3.org/2000/svg">
<mask id="path-1-outside-1_495:883" maskUnits="userSpaceOnUse" x="0.336426" y="0.750732" width="898" height="202" fill="black">
<rect fill="white" x="0.336426" y="0.750732" width="898" height="202"/>
<path d="M63.4201 26.6507C43.9801 26.6507 27.6901 30.0707 11.8501 28.7207C9.69008 28.5407 7.62008 30.0707 7.35008 32.3207C7.17008 34.5707 8.79008 36.7307 11.0401 36.9107C26.5201 38.5307 41.1001 34.3007 62.5201 34.3007C70.0801 34.3007 70.1701 36.5507 62.6101 43.7507C55.0501 50.8607 48.5701 54.8207 43.4401 57.5207C40.1101 54.2807 36.6001 51.5807 33.0001 49.6007C31.0201 48.6107 28.4101 49.3307 27.1501 51.4007C26.0701 53.3807 26.7901 55.8107 28.7701 56.8007C38.0401 61.6607 42.0901 66.9707 50.5501 80.0207C51.8101 81.9107 54.3301 82.4507 56.1301 81.1907C58.0201 79.8407 58.5601 77.2307 57.3901 75.3407C55.0501 71.4707 52.1701 67.3307 48.8401 63.3707C53.4301 60.6707 60.5401 56.0807 68.0101 49.6907C79.2601 40.0607 81.9601 26.6507 63.4201 26.6507Z"/>
<path d="M126.24 42.4007C127.95 40.5107 127.86 37.6307 126.06 36.1007C121.56 32.2307 113.82 28.0007 105.9 26.9207C103.56 26.6507 101.49 28.3607 101.22 30.7907C100.95 33.0407 102.57 35.0207 104.82 35.3807C110.94 36.3707 116.34 38.8007 120.3 42.4007C122.01 44.0207 124.71 44.0207 126.24 42.4007ZM105.99 80.1107C128.76 75.2507 152.07 59.1407 165.3 41.5907C166.74 39.7007 166.29 37.0007 164.49 35.4707C162.6 34.0307 159.99 34.3907 158.55 36.2807C143.25 56.8007 120.84 67.9607 104.91 71.7407C102.57 72.2807 101.04 74.4407 101.31 76.6907C101.58 78.9407 103.74 80.5607 105.99 80.1107Z"/>
<path d="M212.64 34.3907C214.44 35.4707 216.78 34.9307 217.68 33.0407C218.76 31.0607 218.13 28.5407 216.33 27.3707C211.38 24.2207 205.17 22.0607 199.32 21.4307C197.16 21.1607 195.27 22.7807 194.91 25.0307C194.64 27.0107 196.17 28.9007 198.24 29.2607C203.46 29.9807 208.5 31.6907 212.64 34.3907ZM200.67 82.9007C221.37 77.5907 243.06 60.5807 252.69 45.4607C253.95 43.4807 253.5 40.8707 251.52 39.3407C249.72 37.9907 247.2 38.4407 245.94 40.4207C234.33 58.3307 213.45 70.5707 198.33 74.7107C196.08 75.3407 194.82 77.5907 195.45 79.7507C196.08 82.0007 198.42 83.4407 200.67 82.9007ZM207.42 53.9207C209.4 54.7307 211.74 53.9207 212.55 52.0307C213.45 49.8707 212.64 47.4407 210.57 46.5407C205.89 44.4707 199.41 43.0307 193.92 42.7607C191.67 42.6707 189.87 44.5607 189.78 46.8107C189.69 48.8807 191.4 50.6807 193.56 50.7707C197.88 51.0407 203.37 52.2107 207.42 53.9207Z"/>
<path d="M319.47 35.8307C312.45 36.1007 303.09 36.2807 293.91 35.8307C291.84 35.7407 290.04 37.3607 289.86 39.4307C289.77 41.5907 291.39 43.3007 293.55 43.3907C301.83 43.7507 312.72 43.7507 319.83 43.3907C324.87 43.0307 325.23 43.3907 325.23 48.9707V54.2807C323.07 53.6507 320.73 53.6507 318.39 53.5607H295.62C293.64 53.5607 292.02 55.2707 292.02 57.2507C292.02 59.3207 293.73 60.9407 295.71 60.9407C301.74 60.8507 314.79 60.8507 318.3 60.9407C321.27 60.9407 323.34 61.1207 325.23 62.0207V70.7507H293.73C291.66 70.7507 289.86 72.4607 289.86 74.5307C289.86 76.6907 291.66 78.4007 293.73 78.4007H325.32C325.59 80.2907 327.21 81.6407 329.1 81.6407C331.17 81.6407 332.88 79.9307 332.88 77.7707V48.9707C332.88 38.6207 329.37 35.1107 319.47 35.8307Z"/>
<path d="M396.24 42.4007C397.95 40.5107 397.86 37.6307 396.06 36.1007C391.56 32.2307 383.82 28.0007 375.9 26.9207C373.56 26.6507 371.49 28.3607 371.22 30.7907C370.95 33.0407 372.57 35.0207 374.82 35.3807C380.94 36.3707 386.34 38.8007 390.3 42.4007C392.01 44.0207 394.71 44.0207 396.24 42.4007ZM375.99 80.1107C398.76 75.2507 422.07 59.1407 435.3 41.5907C436.74 39.7007 436.29 37.0007 434.49 35.4707C432.6 34.0307 429.99 34.3907 428.55 36.2807C413.25 56.8007 390.84 67.9607 374.91 71.7407C372.57 72.2807 371.04 74.4407 371.31 76.6907C371.58 78.9407 373.74 80.5607 375.99 80.1107Z"/>
<path d="M478.59 52.0307L479.13 54.1907C479.58 56.1707 481.56 57.5207 483.54 57.0707C485.61 56.5307 486.96 54.5507 486.51 52.4807C485.43 47.8007 483.81 43.1207 482.37 39.6107C481.47 37.5407 479.04 36.6407 477.06 37.4507C475.08 38.2607 474.18 40.6007 475.08 42.5807C475.44 43.3007 475.8 44.2007 476.16 45.0107C473.91 45.7307 471.12 46.2707 467.7 46.8107L467.52 46.6307C473.91 39.2507 478.68 29.7107 481.47 18.4607C481.92 16.3907 480.75 14.4107 478.59 13.9607C476.61 13.5107 474.63 14.7707 474.18 16.7507C472.65 22.9607 470.31 28.9007 467.34 34.0307C465.99 32.1407 464.64 30.3407 463.11 28.5407C466.08 24.5807 468.51 19.4507 470.22 12.9707C470.76 10.9907 469.59 9.01073 467.52 8.56073C465.63 8.02073 463.56 9.28073 463.02 11.2607C461.58 16.3907 459.42 20.9807 456.81 24.4007C454.92 26.9207 454.92 30.4307 456.9 32.7707C459.15 35.2907 461.22 38.1707 462.75 40.8707C460.41 43.7507 457.98 46.1807 455.37 47.8907C451.95 50.4107 453.48 55.9907 457.44 55.5407C460.05 55.3607 463.2 55.0907 466.44 54.6407V83.8907C466.44 85.9607 468.15 87.7607 470.31 87.7607C472.47 87.7607 474.18 85.9607 474.18 83.8907V53.2007C475.71 52.8407 477.15 52.4807 478.59 52.0307ZM528.9 44.2007C523.23 42.3107 518.01 39.7007 513.33 36.4607C518.91 31.5107 523.95 25.6607 527.28 19.1807C528.54 16.7507 526.65 13.8707 523.86 13.8707H490.74C488.67 13.8707 486.87 15.5807 486.87 17.7407C486.87 19.8107 488.67 21.5207 490.74 21.5207H516.66C514.95 23.8607 511.71 27.6407 507.3 31.6007C504.78 29.3507 502.44 26.9207 500.37 24.2207C499.11 22.5107 496.77 21.8807 494.79 22.7807C492.9 23.6807 492.27 26.1107 493.44 27.7307C495.51 30.7007 498.21 33.7607 501.27 36.5507C497.49 39.2507 493.35 41.8607 488.76 43.7507C486.69 44.5607 485.52 46.8107 486.15 48.9707C486.69 51.1307 489.03 52.3007 491.01 51.4007C495.24 49.5107 501.18 46.0907 507.3 41.5007C513.33 46.0007 520.26 49.6907 526.65 51.6707C528.63 52.3007 530.79 51.1307 531.42 48.9707C531.96 46.9907 530.79 44.9207 528.9 44.2007ZM511.17 78.9407V65.5307H523.59C525.75 65.5307 527.46 63.7307 527.46 61.6607C527.46 59.5907 525.75 57.7907 523.59 57.7907H511.17V48.5207C511.17 46.3607 509.46 44.5607 507.21 44.5607C505.05 44.5607 503.34 46.3607 503.34 48.5207V57.7907H491.64C489.57 57.7907 487.77 59.5007 487.77 61.6607C487.77 63.7307 489.48 65.5307 491.64 65.5307H503.34V78.9407H488.22C486.15 78.9407 484.44 80.6507 484.44 82.8107C484.44 84.9707 486.15 86.6807 488.22 86.6807H526.65C528.72 86.6807 530.52 84.9707 530.52 82.8107C530.52 80.6507 528.72 78.9407 526.65 78.9407H511.17ZM462.39 56.8007C460.32 56.5307 458.52 57.9707 458.25 60.0407C457.44 67.7807 456 74.0807 453.84 79.9307C453.03 82.0007 454.11 84.1607 456.18 84.7007C458.34 85.2407 460.59 84.0707 461.31 82.0007C463.47 75.7007 465.09 67.2407 465.81 61.0307C465.99 58.9607 464.46 57.0707 462.39 56.8007ZM486.15 72.1007C485.16 67.9607 483.72 64.0007 482.28 60.7607C481.29 58.7807 478.95 57.8807 476.79 58.6007C474.9 59.3207 474.18 61.5707 475.17 63.3707C476.88 66.3407 478.23 69.8507 479.04 73.5407C479.49 75.5207 481.38 76.7807 483.27 76.3307C485.34 75.9707 486.6 73.9907 486.15 72.1007Z"/>
<path d="M601.17 20.0807C602.88 17.9207 604.41 15.5807 605.67 13.5107C606.75 11.6207 605.94 9.28073 603.87 8.38073C601.89 7.57073 599.55 8.47073 598.47 10.3607C596.22 14.1407 593.61 17.5607 590.82 20.0807H585.24C585.15 19.9007 585.15 19.7207 585.06 19.5407C583.89 16.6607 582.27 13.5107 580.65 10.7207C579.39 8.74074 576.69 8.02073 574.44 9.10073C572.46 10.0907 572.01 12.6107 573.45 14.3207C574.98 16.2107 576.15 18.0107 577.14 20.0807H569.94C568.32 16.7507 566.16 13.2407 564.18 10.5407C562.74 8.56073 559.95 8.20073 558.06 9.73073C556.26 11.0807 556.17 13.7807 557.79 15.4007C559.41 16.8407 560.49 18.2807 561.48 20.0807H552.3C549.06 20.0807 546.36 22.7807 546.36 26.0207V36.8207C546.36 38.9807 548.16 40.6907 550.23 40.6907C552.39 40.6907 554.1 38.8907 554.1 36.8207V27.4607H609.9V36.8207C609.9 38.9807 611.7 40.6907 613.77 40.6907C615.93 40.6907 617.64 38.8907 617.64 36.8207V26.0207C617.64 22.6907 614.94 20.0807 611.7 20.0807H601.17ZM581.37 60.4907C582.63 58.6007 583.62 56.5307 584.34 54.5507H597.66C600.99 54.5507 603.6 51.8507 603.6 48.6107V38.9807C603.6 35.7407 600.9 33.0407 597.66 33.0407H566.34C563.01 33.0407 560.4 35.7407 560.4 38.9807V48.6107C560.4 51.9407 563.1 54.5507 566.34 54.5507H575.97C574.8 56.8007 573.18 58.8707 571.38 60.4907H558.78C555.54 60.4907 552.84 63.1907 552.84 66.4307V81.1907C552.84 84.5207 555.54 87.1307 558.78 87.1307H605.22C608.46 87.1307 611.16 84.5207 611.16 81.1907V66.4307C611.16 63.1907 608.46 60.4907 605.22 60.4907H581.37ZM595.95 40.5107V47.0807H568.05V40.5107H595.95ZM560.58 79.4807V68.2307H603.42V79.4807H560.58Z"/>
<path d="M675.6 80.2907C700.44 76.9607 708.36 57.4307 704.22 42.8507C697.47 19.2707 662.73 15.7607 646.89 37.1807C636.36 51.5807 637.17 71.9207 648.6 74.6207C660.75 77.5007 672.09 55.4507 677.31 30.8807C688.11 31.0607 696.75 38.9807 697.2 49.1507C697.74 61.5707 689.55 69.8507 674.43 72.1907C672.27 72.5507 670.74 74.5307 671.1 76.6907C671.37 78.9407 673.44 80.5607 675.6 80.2907ZM648.15 65.0807C644.1 58.3307 649.23 35.2907 668.94 31.4207C665.16 49.6907 653.37 73.9007 648.15 65.0807Z"/>
<path d="M763.26 18.1007C768.84 19.3607 773.97 21.5207 778.29 24.4007C780.09 25.5707 782.43 24.9407 783.24 23.0507C784.14 20.8907 783.42 18.4607 781.53 17.2907C776.58 14.3207 770.73 11.9807 764.88 10.5407C762.81 10.0907 760.74 11.4407 760.29 13.5107C759.84 15.5807 761.19 17.5607 763.26 18.1007ZM749.13 60.5807C751.02 59.5007 752.01 57.3407 751.38 55.3607C749.94 50.6807 746.97 45.3707 743.91 42.0407V41.2307H749.94C752.01 41.2307 753.72 39.5207 753.72 37.4507C753.72 35.3807 752.01 33.7607 749.94 33.7607H743.91V21.2507C746.52 20.6207 749.04 19.9907 751.11 19.3607C753.27 18.6407 754.53 16.3007 753.9 14.1407C753.36 12.0707 751.11 10.9907 749.04 11.8007C742.29 14.4107 734.1 15.7607 728.7 16.2107C726.63 16.3907 725.01 18.1907 725.19 20.2607C725.37 22.4207 727.17 24.0407 729.33 23.8607C731.49 23.6807 733.92 23.3207 736.35 22.8707V33.7607H726.99C725.01 33.7607 723.3 35.3807 723.3 37.4507C723.3 39.5207 725.01 41.2307 726.99 41.2307H735.45C733.56 48.9707 729.42 57.7007 723.03 64.7207C721.5 66.3407 721.5 68.8607 723.03 70.4807C724.56 72.1007 727.17 72.1007 728.61 70.4807C731.58 67.1507 734.19 63.1007 736.35 58.9607V83.8907C736.35 86.0507 738.15 87.6707 740.13 87.6707C742.29 87.6707 743.91 85.9607 743.91 83.8907V55.9907C744.27 56.8907 744.54 57.7907 744.81 58.6907C745.35 60.5807 747.42 61.4807 749.13 60.5807ZM791.34 72.1907C789.72 71.0207 787.38 71.6507 786.3 73.4507C783.96 77.5007 780.99 79.3007 776.94 79.3007C771 79.3007 769.92 78.4007 769.83 72.4607C783.06 58.8707 792.24 40.0607 796.2 20.8007C796.65 18.6407 795.3 16.6607 793.23 16.2107C791.25 15.7607 789.18 17.0207 788.73 19.0907C785.94 32.5007 779.64 47.8907 769.83 60.5807V31.9607C769.83 29.8007 768.03 28.1807 766.05 28.1807C763.98 28.1807 762.27 29.8007 762.27 31.9607V68.9507C758.22 72.8207 753.63 76.2407 748.68 78.9407C746.79 80.0207 745.89 82.2707 746.7 84.2507C747.6 86.3207 749.85 87.1307 751.74 86.1407C755.7 84.0707 759.39 81.6407 762.9 78.7607C764.97 86.0507 771.63 86.7707 777.3 86.7707C783.87 86.7707 788.55 83.9807 792.6 77.6807C793.77 75.8807 793.14 73.4507 791.34 72.1907ZM747.42 73.9907C749.13 75.3407 751.56 74.9807 752.73 73.2707C756.96 66.7907 760.02 57.4307 761.19 50.4107C761.55 48.3407 760.11 46.3607 757.95 45.9107C755.97 45.5507 754.08 46.9907 753.72 49.0607C752.91 54.9107 750.75 62.6507 746.7 68.5007C745.53 70.3007 745.8 72.7307 747.42 73.9907ZM801.6 70.1207C799.8 65.5307 796.56 58.2407 794.13 53.6507C793.14 51.7607 790.71 50.9507 788.73 51.9407C786.84 52.7507 786.12 55.0007 787.2 56.8907C789.72 61.3907 792.96 68.9507 794.85 73.3607C795.57 75.3407 797.82 76.1507 799.62 75.2507C801.51 74.2607 802.41 72.0107 801.6 70.1207Z"/>
<path d="M820.14 31.1507C822.21 31.1507 824.01 29.4407 824.01 27.2807V21.6107H879.99V27.2807C879.99 29.4407 881.79 31.1507 883.86 31.1507C886.02 31.1507 887.82 29.4407 887.82 27.2807V20.1707C887.82 16.9307 885.12 14.2307 881.88 14.2307H855.96V11.7107C855.96 9.46073 854.16 7.75073 852 7.75073C849.84 7.75073 848.04 9.55073 848.04 11.7107V14.2307H822.21C818.97 14.2307 816.27 16.9307 816.27 20.1707V27.2807C816.27 29.4407 818.07 31.1507 820.14 31.1507ZM842.37 21.7907C840.3 21.5207 838.32 23.0507 838.05 25.2107C837.69 27.1907 839.13 29.0807 841.2 29.2607C847.14 29.8907 852.72 31.2407 857.31 33.1307C859.29 33.8507 861.54 32.8607 862.17 30.8807C862.8 28.8107 861.72 26.5607 859.65 25.8407C854.34 23.9507 847.41 22.4207 842.37 21.7907ZM824.1 58.0607C828.42 57.2507 832.56 56.1707 836.52 54.9107C838.95 56.7107 842.28 57.6107 846.51 57.6107H858.03C865.68 57.6107 869.91 55.9007 874.59 50.6807C876.03 49.1507 875.76 46.7207 874.14 45.3707C872.52 44.1107 870.18 44.2907 868.74 45.9107C865.59 49.2407 863.52 50.0507 858.03 50.0507H849.48C862.35 44.2907 872.16 36.9107 877.74 30.3407C879.18 28.6307 878.73 26.1107 876.93 24.7607C875.13 23.5907 872.7 23.9507 871.26 25.6607C864.33 34.1207 852.09 41.0507 839.31 45.7307C839.22 44.9207 839.13 44.1107 839.13 43.0307V32.2307C839.13 30.1607 837.42 28.4507 835.35 28.4507C833.28 28.4507 831.57 30.1607 831.57 32.2307V43.0307C831.57 44.9207 831.75 46.5407 832.11 48.0707C828.96 49.0607 825.81 49.7807 822.75 50.4107C820.68 50.7707 819.24 52.7507 819.6 54.9107C819.96 57.0707 821.94 58.4207 824.1 58.0607ZM830.04 40.2407C831.3 38.5307 830.58 36.1007 828.69 35.0207C826.89 34.0307 824.64 34.5707 823.38 36.2807C821.13 39.4307 817.53 43.0307 814.02 45.4607C812.31 46.7207 811.59 48.8807 812.4 50.7707C813.3 52.6607 815.64 53.3807 817.26 52.3007C822.3 49.0607 827.34 44.2007 830.04 40.2407ZM888.72 45.3707C885.21 42.5807 881.34 40.1507 876.48 37.8107C874.59 36.9107 872.43 37.7207 871.53 39.6107C870.72 41.5007 871.53 43.6607 873.33 44.5607C878.1 46.9007 882.15 49.5107 885.12 52.0307C886.65 53.3807 888.99 53.0207 889.89 51.2207C890.97 49.2407 890.43 46.7207 888.72 45.3707ZM878.91 62.9207C876.75 62.9207 874.86 64.7207 874.86 66.8807V79.4807H855.96V61.7507C855.96 59.5907 854.25 57.7907 852 57.7907C849.84 57.7907 848.04 59.5907 848.04 61.7507V79.4807H829.14V66.8807C829.14 64.7207 827.34 62.9207 825.18 62.9207C823.02 62.9207 821.13 64.7207 821.13 66.8807V81.1907C821.13 84.5207 823.83 87.1307 827.07 87.1307H876.93C880.17 87.1307 882.87 84.4307 882.87 81.1907V66.8807C882.87 64.7207 881.07 62.9207 878.91 62.9207Z"/>
<path d="M162.78 154.651V139.171H171.87C173.94 139.171 175.65 137.551 175.65 135.391C175.65 133.231 173.94 131.521 171.87 131.521H152.88C154.05 128.461 154.86 125.581 155.4 123.151C155.85 121.081 154.41 119.011 152.34 118.561C150.27 118.111 148.29 119.461 147.84 121.531C146.31 128.731 143.16 135.481 138.48 141.241C137.22 142.861 137.22 145.111 138.57 146.641C140.01 148.171 142.35 148.261 143.7 146.731C145.86 144.301 147.66 141.691 149.19 139.171H154.95V154.651H142.26C140.1 154.651 138.48 156.451 138.48 158.521C138.48 160.591 140.1 162.391 142.26 162.391H154.23C152.25 170.581 146.85 179.581 139.56 186.151C137.94 187.591 137.58 190.111 138.84 191.911C140.19 193.711 142.71 194.071 144.33 192.541C149.37 188.041 154.86 181.291 158.55 173.461C161.79 176.611 165.75 181.201 168.81 186.151C169.98 188.041 172.32 188.491 174.12 187.321C176.01 185.971 176.64 183.451 175.47 181.651C172.23 176.341 166.11 169.501 161.52 165.451C161.79 164.461 162.06 163.381 162.24 162.391H175.02C177.09 162.391 178.8 160.591 178.8 158.521C178.8 156.361 177.09 154.651 175.02 154.651H162.78ZM185.1 126.391C181.86 126.391 179.16 129.091 179.16 132.331V186.511C179.16 189.841 181.86 192.451 185.1 192.451H206.61C209.94 192.451 212.55 189.751 212.55 186.511V132.331C212.55 129.001 209.85 126.391 206.61 126.391H185.1ZM186.99 184.711V134.131H204.72V184.711H186.99Z"/>
<path d="M264.48 189.121C302.28 187.141 302.91 148.621 280.41 146.461C266.91 145.201 253.95 156.271 242.52 154.651C240.54 154.291 238.65 155.551 238.29 157.441C237.84 159.601 239.1 161.671 241.17 161.941C256.65 164.281 272.76 149.431 283.47 155.011C294 160.591 287.52 181.201 264.03 181.831C261.96 181.831 260.43 183.541 260.52 185.521C260.61 187.681 262.41 189.211 264.48 189.121Z"/>
<path d="M373.65 138.631C377.52 137.731 381.12 136.651 384.54 135.391C386.61 134.581 387.6 132.241 386.79 130.171C385.89 128.191 383.64 127.201 381.57 127.921C366.72 133.321 349.26 135.211 329.73 133.681C327.57 133.501 325.59 135.121 325.32 137.281C325.14 139.531 326.76 141.511 328.92 141.601C339.54 142.501 349.98 142.321 359.7 141.151C343.77 155.551 344.4 172.741 350.61 181.651C357.18 191.191 369.87 195.511 382.29 192.361C384.54 191.821 385.89 189.481 385.44 187.141C384.99 184.981 382.83 183.721 380.67 184.351C373.47 186.331 363.84 185.881 357.63 177.781C348.99 166.531 356.19 149.611 373.65 138.631Z"/>
<path d="M474.18 140.611C476.25 140.521 477.96 138.811 477.87 136.651C477.87 134.491 476.07 132.781 473.91 132.871C468.33 133.051 460.77 133.501 452.94 134.041C452.85 130.711 452.67 127.831 452.58 125.581C452.49 123.421 450.6 121.801 448.44 121.981C446.28 122.161 444.75 123.961 444.84 126.121C444.93 128.371 445.11 131.251 445.2 134.581C435.03 135.301 425.22 136.111 419.55 136.381C417.48 136.471 415.77 138.271 415.95 140.431C416.04 142.591 417.84 144.211 419.91 144.121C425.58 143.851 435.39 143.131 445.56 142.411C445.65 145.831 445.74 149.341 445.92 152.851C440.16 153.031 434.4 152.941 428.55 152.491C426.48 152.401 424.59 153.931 424.32 156.091C424.14 158.251 425.76 160.141 427.92 160.231C432.78 160.681 439.26 160.771 446.1 160.591C446.28 165.001 446.37 169.051 446.46 172.381C429.54 170.041 420.63 176.521 422.61 184.261C424.14 189.841 430.44 193.981 437.46 193.981C446.64 193.981 452.04 189.751 453.66 181.381C459.15 183.091 464.19 185.701 468.78 188.311C470.76 189.391 473.28 188.581 474.18 186.511C475.08 184.441 474.18 181.921 472.11 180.841C465.54 177.691 459.6 175.441 454.2 174.001C454.11 170.311 454.02 165.451 453.84 160.141C459.51 159.781 465.18 159.151 470.31 158.161C472.38 157.801 473.73 155.731 473.28 153.661C472.83 151.591 470.76 150.241 468.69 150.601C463.92 151.501 458.88 152.131 453.57 152.491C453.48 148.891 453.39 145.291 453.21 141.871C461.31 141.331 468.96 140.881 474.18 140.611ZM438.18 186.241C428.82 186.241 425.67 179.401 437.91 179.041C440.79 178.861 443.58 179.041 446.28 179.491C445.74 183.091 444.03 186.241 438.18 186.241Z"/>
<path d="M567.51 133.681C560.85 132.601 553.47 132.781 545.91 133.321V125.581C545.91 123.511 544.2 121.711 542.04 121.711C539.88 121.711 538.17 123.421 538.26 125.581V133.951C527.55 134.851 516.84 135.841 507.39 134.491C505.32 134.131 503.43 135.571 503.16 137.641C502.98 139.891 504.42 141.871 506.58 142.231C515.31 143.671 526.83 142.681 538.35 141.781V150.151C528.99 144.931 518.82 152.221 520.08 163.561C521.25 173.191 534.03 178.321 540.78 169.771C540.33 179.131 532.5 185.971 521.7 186.151C519.45 186.241 517.56 187.951 517.56 190.111C517.47 192.451 519.36 194.251 521.61 194.161C545.28 193.171 552.75 171.391 545.91 156.091V141.241C553.29 140.701 560.4 140.611 566.61 141.421C568.68 141.781 570.66 140.341 570.84 138.271C571.11 136.111 569.67 134.041 567.51 133.681ZM527.91 163.561C525.39 156.181 533.85 151.861 538.08 158.071C538.08 169.411 529.26 167.791 527.91 163.561Z"/>
<path d="M618.27 138.991C619.26 134.221 620.07 129.631 620.52 125.221C620.7 123.061 619.08 121.171 617.01 120.991C614.94 120.901 613.05 122.431 612.87 124.501C612.33 129.631 611.52 135.031 610.44 140.431C605.67 141.331 602.25 141.511 597.57 141.061C595.41 140.971 593.52 142.411 593.25 144.481C593.07 146.731 594.6 148.621 596.67 148.711C601.17 149.071 604.77 148.891 608.55 148.351C604.86 162.301 599.19 176.251 591.54 187.861C590.37 189.571 590.82 192.001 592.44 193.261C594.24 194.521 596.67 194.071 597.84 192.271C605.85 180.031 612.42 163.111 616.56 146.731C630.24 143.941 630.24 149.881 629.88 153.211C626.73 182.821 624.12 186.781 612.78 180.751C610.8 179.671 608.46 180.391 607.47 182.281C606.39 184.261 607.11 186.691 609 187.681C621.42 193.981 629.79 190.741 633.39 178.231C634.65 173.821 636.81 163.381 637.53 153.931C638.07 148.171 636.99 136.561 618.27 138.991ZM665.25 171.751C662.01 161.671 653.73 147.001 647.25 139.261C645.63 137.371 642.84 137.191 640.86 138.811C639.15 140.251 638.97 142.861 640.59 144.661C647.07 151.591 653.91 162.661 657.15 174.451C657.78 176.701 660.12 178.051 662.37 177.331C664.71 176.431 666.06 173.911 665.25 171.751Z"/>
<path d="M715.65 178.591C717.81 178.591 719.43 176.881 719.34 174.811C719.16 156.091 730.95 162.391 736.8 147.991C740.94 137.461 734.55 121.801 716.73 121.801C697.02 121.801 689.46 148.981 702.33 148.981C705.48 148.981 708.09 146.281 708.09 143.221C708.09 141.151 707.01 139.261 705.21 138.181C706.2 133.231 710.97 129.721 717 129.721C727.53 129.721 730.59 137.101 729.96 141.871C728.43 154.831 711.96 151.501 711.78 174.811C711.78 176.881 713.58 178.591 715.65 178.591ZM715.65 195.061C719.07 195.061 721.86 192.271 721.86 188.941C721.86 185.521 719.07 182.731 715.65 182.731C712.32 182.731 709.44 185.521 709.44 188.941C709.44 192.271 712.23 195.061 715.65 195.061Z"/>
</mask>
<path d="M63.4201 26.6507C43.9801 26.6507 27.6901 30.0707 11.8501 28.7207C9.69008 28.5407 7.62008 30.0707 7.35008 32.3207C7.17008 34.5707 8.79008 36.7307 11.0401 36.9107C26.5201 38.5307 41.1001 34.3007 62.5201 34.3007C70.0801 34.3007 70.1701 36.5507 62.6101 43.7507C55.0501 50.8607 48.5701 54.8207 43.4401 57.5207C40.1101 54.2807 36.6001 51.5807 33.0001 49.6007C31.0201 48.6107 28.4101 49.3307 27.1501 51.4007C26.0701 53.3807 26.7901 55.8107 28.7701 56.8007C38.0401 61.6607 42.0901 66.9707 50.5501 80.0207C51.8101 81.9107 54.3301 82.4507 56.1301 81.1907C58.0201 79.8407 58.5601 77.2307 57.3901 75.3407C55.0501 71.4707 52.1701 67.3307 48.8401 63.3707C53.4301 60.6707 60.5401 56.0807 68.0101 49.6907C79.2601 40.0607 81.9601 26.6507 63.4201 26.6507Z" fill="#42210C"/>
<path d="M126.24 42.4007C127.95 40.5107 127.86 37.6307 126.06 36.1007C121.56 32.2307 113.82 28.0007 105.9 26.9207C103.56 26.6507 101.49 28.3607 101.22 30.7907C100.95 33.0407 102.57 35.0207 104.82 35.3807C110.94 36.3707 116.34 38.8007 120.3 42.4007C122.01 44.0207 124.71 44.0207 126.24 42.4007ZM105.99 80.1107C128.76 75.2507 152.07 59.1407 165.3 41.5907C166.74 39.7007 166.29 37.0007 164.49 35.4707C162.6 34.0307 159.99 34.3907 158.55 36.2807C143.25 56.8007 120.84 67.9607 104.91 71.7407C102.57 72.2807 101.04 74.4407 101.31 76.6907C101.58 78.9407 103.74 80.5607 105.99 80.1107Z" fill="#42210C"/>
<path d="M212.64 34.3907C214.44 35.4707 216.78 34.9307 217.68 33.0407C218.76 31.0607 218.13 28.5407 216.33 27.3707C211.38 24.2207 205.17 22.0607 199.32 21.4307C197.16 21.1607 195.27 22.7807 194.91 25.0307C194.64 27.0107 196.17 28.9007 198.24 29.2607C203.46 29.9807 208.5 31.6907 212.64 34.3907ZM200.67 82.9007C221.37 77.5907 243.06 60.5807 252.69 45.4607C253.95 43.4807 253.5 40.8707 251.52 39.3407C249.72 37.9907 247.2 38.4407 245.94 40.4207C234.33 58.3307 213.45 70.5707 198.33 74.7107C196.08 75.3407 194.82 77.5907 195.45 79.7507C196.08 82.0007 198.42 83.4407 200.67 82.9007ZM207.42 53.9207C209.4 54.7307 211.74 53.9207 212.55 52.0307C213.45 49.8707 212.64 47.4407 210.57 46.5407C205.89 44.4707 199.41 43.0307 193.92 42.7607C191.67 42.6707 189.87 44.5607 189.78 46.8107C189.69 48.8807 191.4 50.6807 193.56 50.7707C197.88 51.0407 203.37 52.2107 207.42 53.9207Z" fill="#42210C"/>
<path d="M319.47 35.8307C312.45 36.1007 303.09 36.2807 293.91 35.8307C291.84 35.7407 290.04 37.3607 289.86 39.4307C289.77 41.5907 291.39 43.3007 293.55 43.3907C301.83 43.7507 312.72 43.7507 319.83 43.3907C324.87 43.0307 325.23 43.3907 325.23 48.9707V54.2807C323.07 53.6507 320.73 53.6507 318.39 53.5607H295.62C293.64 53.5607 292.02 55.2707 292.02 57.2507C292.02 59.3207 293.73 60.9407 295.71 60.9407C301.74 60.8507 314.79 60.8507 318.3 60.9407C321.27 60.9407 323.34 61.1207 325.23 62.0207V70.7507H293.73C291.66 70.7507 289.86 72.4607 289.86 74.5307C289.86 76.6907 291.66 78.4007 293.73 78.4007H325.32C325.59 80.2907 327.21 81.6407 329.1 81.6407C331.17 81.6407 332.88 79.9307 332.88 77.7707V48.9707C332.88 38.6207 329.37 35.1107 319.47 35.8307Z" fill="#42210C"/>
<path d="M396.24 42.4007C397.95 40.5107 397.86 37.6307 396.06 36.1007C391.56 32.2307 383.82 28.0007 375.9 26.9207C373.56 26.6507 371.49 28.3607 371.22 30.7907C370.95 33.0407 372.57 35.0207 374.82 35.3807C380.94 36.3707 386.34 38.8007 390.3 42.4007C392.01 44.0207 394.71 44.0207 396.24 42.4007ZM375.99 80.1107C398.76 75.2507 422.07 59.1407 435.3 41.5907C436.74 39.7007 436.29 37.0007 434.49 35.4707C432.6 34.0307 429.99 34.3907 428.55 36.2807C413.25 56.8007 390.84 67.9607 374.91 71.7407C372.57 72.2807 371.04 74.4407 371.31 76.6907C371.58 78.9407 373.74 80.5607 375.99 80.1107Z" fill="#42210C"/>
<path d="M478.59 52.0307L479.13 54.1907C479.58 56.1707 481.56 57.5207 483.54 57.0707C485.61 56.5307 486.96 54.5507 486.51 52.4807C485.43 47.8007 483.81 43.1207 482.37 39.6107C481.47 37.5407 479.04 36.6407 477.06 37.4507C475.08 38.2607 474.18 40.6007 475.08 42.5807C475.44 43.3007 475.8 44.2007 476.16 45.0107C473.91 45.7307 471.12 46.2707 467.7 46.8107L467.52 46.6307C473.91 39.2507 478.68 29.7107 481.47 18.4607C481.92 16.3907 480.75 14.4107 478.59 13.9607C476.61 13.5107 474.63 14.7707 474.18 16.7507C472.65 22.9607 470.31 28.9007 467.34 34.0307C465.99 32.1407 464.64 30.3407 463.11 28.5407C466.08 24.5807 468.51 19.4507 470.22 12.9707C470.76 10.9907 469.59 9.01073 467.52 8.56073C465.63 8.02073 463.56 9.28073 463.02 11.2607C461.58 16.3907 459.42 20.9807 456.81 24.4007C454.92 26.9207 454.92 30.4307 456.9 32.7707C459.15 35.2907 461.22 38.1707 462.75 40.8707C460.41 43.7507 457.98 46.1807 455.37 47.8907C451.95 50.4107 453.48 55.9907 457.44 55.5407C460.05 55.3607 463.2 55.0907 466.44 54.6407V83.8907C466.44 85.9607 468.15 87.7607 470.31 87.7607C472.47 87.7607 474.18 85.9607 474.18 83.8907V53.2007C475.71 52.8407 477.15 52.4807 478.59 52.0307ZM528.9 44.2007C523.23 42.3107 518.01 39.7007 513.33 36.4607C518.91 31.5107 523.95 25.6607 527.28 19.1807C528.54 16.7507 526.65 13.8707 523.86 13.8707H490.74C488.67 13.8707 486.87 15.5807 486.87 17.7407C486.87 19.8107 488.67 21.5207 490.74 21.5207H516.66C514.95 23.8607 511.71 27.6407 507.3 31.6007C504.78 29.3507 502.44 26.9207 500.37 24.2207C499.11 22.5107 496.77 21.8807 494.79 22.7807C492.9 23.6807 492.27 26.1107 493.44 27.7307C495.51 30.7007 498.21 33.7607 501.27 36.5507C497.49 39.2507 493.35 41.8607 488.76 43.7507C486.69 44.5607 485.52 46.8107 486.15 48.9707C486.69 51.1307 489.03 52.3007 491.01 51.4007C495.24 49.5107 501.18 46.0907 507.3 41.5007C513.33 46.0007 520.26 49.6907 526.65 51.6707C528.63 52.3007 530.79 51.1307 531.42 48.9707C531.96 46.9907 530.79 44.9207 528.9 44.2007ZM511.17 78.9407V65.5307H523.59C525.75 65.5307 527.46 63.7307 527.46 61.6607C527.46 59.5907 525.75 57.7907 523.59 57.7907H511.17V48.5207C511.17 46.3607 509.46 44.5607 507.21 44.5607C505.05 44.5607 503.34 46.3607 503.34 48.5207V57.7907H491.64C489.57 57.7907 487.77 59.5007 487.77 61.6607C487.77 63.7307 489.48 65.5307 491.64 65.5307H503.34V78.9407H488.22C486.15 78.9407 484.44 80.6507 484.44 82.8107C484.44 84.9707 486.15 86.6807 488.22 86.6807H526.65C528.72 86.6807 530.52 84.9707 530.52 82.8107C530.52 80.6507 528.72 78.9407 526.65 78.9407H511.17ZM462.39 56.8007C460.32 56.5307 458.52 57.9707 458.25 60.0407C457.44 67.7807 456 74.0807 453.84 79.9307C453.03 82.0007 454.11 84.1607 456.18 84.7007C458.34 85.2407 460.59 84.0707 461.31 82.0007C463.47 75.7007 465.09 67.2407 465.81 61.0307C465.99 58.9607 464.46 57.0707 462.39 56.8007ZM486.15 72.1007C485.16 67.9607 483.72 64.0007 482.28 60.7607C481.29 58.7807 478.95 57.8807 476.79 58.6007C474.9 59.3207 474.18 61.5707 475.17 63.3707C476.88 66.3407 478.23 69.8507 479.04 73.5407C479.49 75.5207 481.38 76.7807 483.27 76.3307C485.34 75.9707 486.6 73.9907 486.15 72.1007Z" fill="#42210C"/>
<path d="M601.17 20.0807C602.88 17.9207 604.41 15.5807 605.67 13.5107C606.75 11.6207 605.94 9.28073 603.87 8.38073C601.89 7.57073 599.55 8.47073 598.47 10.3607C596.22 14.1407 593.61 17.5607 590.82 20.0807H585.24C585.15 19.9007 585.15 19.7207 585.06 19.5407C583.89 16.6607 582.27 13.5107 580.65 10.7207C579.39 8.74074 576.69 8.02073 574.44 9.10073C572.46 10.0907 572.01 12.6107 573.45 14.3207C574.98 16.2107 576.15 18.0107 577.14 20.0807H569.94C568.32 16.7507 566.16 13.2407 564.18 10.5407C562.74 8.56073 559.95 8.20073 558.06 9.73073C556.26 11.0807 556.17 13.7807 557.79 15.4007C559.41 16.8407 560.49 18.2807 561.48 20.0807H552.3C549.06 20.0807 546.36 22.7807 546.36 26.0207V36.8207C546.36 38.9807 548.16 40.6907 550.23 40.6907C552.39 40.6907 554.1 38.8907 554.1 36.8207V27.4607H609.9V36.8207C609.9 38.9807 611.7 40.6907 613.77 40.6907C615.93 40.6907 617.64 38.8907 617.64 36.8207V26.0207C617.64 22.6907 614.94 20.0807 611.7 20.0807H601.17ZM581.37 60.4907C582.63 58.6007 583.62 56.5307 584.34 54.5507H597.66C600.99 54.5507 603.6 51.8507 603.6 48.6107V38.9807C603.6 35.7407 600.9 33.0407 597.66 33.0407H566.34C563.01 33.0407 560.4 35.7407 560.4 38.9807V48.6107C560.4 51.9407 563.1 54.5507 566.34 54.5507H575.97C574.8 56.8007 573.18 58.8707 571.38 60.4907H558.78C555.54 60.4907 552.84 63.1907 552.84 66.4307V81.1907C552.84 84.5207 555.54 87.1307 558.78 87.1307H605.22C608.46 87.1307 611.16 84.5207 611.16 81.1907V66.4307C611.16 63.1907 608.46 60.4907 605.22 60.4907H581.37ZM595.95 40.5107V47.0807H568.05V40.5107H595.95ZM560.58 79.4807V68.2307H603.42V79.4807H560.58Z" fill="#42210C"/>
<path d="M675.6 80.2907C700.44 76.9607 708.36 57.4307 704.22 42.8507C697.47 19.2707 662.73 15.7607 646.89 37.1807C636.36 51.5807 637.17 71.9207 648.6 74.6207C660.75 77.5007 672.09 55.4507 677.31 30.8807C688.11 31.0607 696.75 38.9807 697.2 49.1507C697.74 61.5707 689.55 69.8507 674.43 72.1907C672.27 72.5507 670.74 74.5307 671.1 76.6907C671.37 78.9407 673.44 80.5607 675.6 80.2907ZM648.15 65.0807C644.1 58.3307 649.23 35.2907 668.94 31.4207C665.16 49.6907 653.37 73.9007 648.15 65.0807Z" fill="#42210C"/>
<path d="M763.26 18.1007C768.84 19.3607 773.97 21.5207 778.29 24.4007C780.09 25.5707 782.43 24.9407 783.24 23.0507C784.14 20.8907 783.42 18.4607 781.53 17.2907C776.58 14.3207 770.73 11.9807 764.88 10.5407C762.81 10.0907 760.74 11.4407 760.29 13.5107C759.84 15.5807 761.19 17.5607 763.26 18.1007ZM749.13 60.5807C751.02 59.5007 752.01 57.3407 751.38 55.3607C749.94 50.6807 746.97 45.3707 743.91 42.0407V41.2307H749.94C752.01 41.2307 753.72 39.5207 753.72 37.4507C753.72 35.3807 752.01 33.7607 749.94 33.7607H743.91V21.2507C746.52 20.6207 749.04 19.9907 751.11 19.3607C753.27 18.6407 754.53 16.3007 753.9 14.1407C753.36 12.0707 751.11 10.9907 749.04 11.8007C742.29 14.4107 734.1 15.7607 728.7 16.2107C726.63 16.3907 725.01 18.1907 725.19 20.2607C725.37 22.4207 727.17 24.0407 729.33 23.8607C731.49 23.6807 733.92 23.3207 736.35 22.8707V33.7607H726.99C725.01 33.7607 723.3 35.3807 723.3 37.4507C723.3 39.5207 725.01 41.2307 726.99 41.2307H735.45C733.56 48.9707 729.42 57.7007 723.03 64.7207C721.5 66.3407 721.5 68.8607 723.03 70.4807C724.56 72.1007 727.17 72.1007 728.61 70.4807C731.58 67.1507 734.19 63.1007 736.35 58.9607V83.8907C736.35 86.0507 738.15 87.6707 740.13 87.6707C742.29 87.6707 743.91 85.9607 743.91 83.8907V55.9907C744.27 56.8907 744.54 57.7907 744.81 58.6907C745.35 60.5807 747.42 61.4807 749.13 60.5807ZM791.34 72.1907C789.72 71.0207 787.38 71.6507 786.3 73.4507C783.96 77.5007 780.99 79.3007 776.94 79.3007C771 79.3007 769.92 78.4007 769.83 72.4607C783.06 58.8707 792.24 40.0607 796.2 20.8007C796.65 18.6407 795.3 16.6607 793.23 16.2107C791.25 15.7607 789.18 17.0207 788.73 19.0907C785.94 32.5007 779.64 47.8907 769.83 60.5807V31.9607C769.83 29.8007 768.03 28.1807 766.05 28.1807C763.98 28.1807 762.27 29.8007 762.27 31.9607V68.9507C758.22 72.8207 753.63 76.2407 748.68 78.9407C746.79 80.0207 745.89 82.2707 746.7 84.2507C747.6 86.3207 749.85 87.1307 751.74 86.1407C755.7 84.0707 759.39 81.6407 762.9 78.7607C764.97 86.0507 771.63 86.7707 777.3 86.7707C783.87 86.7707 788.55 83.9807 792.6 77.6807C793.77 75.8807 793.14 73.4507 791.34 72.1907ZM747.42 73.9907C749.13 75.3407 751.56 74.9807 752.73 73.2707C756.96 66.7907 760.02 57.4307 761.19 50.4107C761.55 48.3407 760.11 46.3607 757.95 45.9107C755.97 45.5507 754.08 46.9907 753.72 49.0607C752.91 54.9107 750.75 62.6507 746.7 68.5007C745.53 70.3007 745.8 72.7307 747.42 73.9907ZM801.6 70.1207C799.8 65.5307 796.56 58.2407 794.13 53.6507C793.14 51.7607 790.71 50.9507 788.73 51.9407C786.84 52.7507 786.12 55.0007 787.2 56.8907C789.72 61.3907 792.96 68.9507 794.85 73.3607C795.57 75.3407 797.82 76.1507 799.62 75.2507C801.51 74.2607 802.41 72.0107 801.6 70.1207Z" fill="#42210C"/>
<path d="M820.14 31.1507C822.21 31.1507 824.01 29.4407 824.01 27.2807V21.6107H879.99V27.2807C879.99 29.4407 881.79 31.1507 883.86 31.1507C886.02 31.1507 887.82 29.4407 887.82 27.2807V20.1707C887.82 16.9307 885.12 14.2307 881.88 14.2307H855.96V11.7107C855.96 9.46073 854.16 7.75073 852 7.75073C849.84 7.75073 848.04 9.55073 848.04 11.7107V14.2307H822.21C818.97 14.2307 816.27 16.9307 816.27 20.1707V27.2807C816.27 29.4407 818.07 31.1507 820.14 31.1507ZM842.37 21.7907C840.3 21.5207 838.32 23.0507 838.05 25.2107C837.69 27.1907 839.13 29.0807 841.2 29.2607C847.14 29.8907 852.72 31.2407 857.31 33.1307C859.29 33.8507 861.54 32.8607 862.17 30.8807C862.8 28.8107 861.72 26.5607 859.65 25.8407C854.34 23.9507 847.41 22.4207 842.37 21.7907ZM824.1 58.0607C828.42 57.2507 832.56 56.1707 836.52 54.9107C838.95 56.7107 842.28 57.6107 846.51 57.6107H858.03C865.68 57.6107 869.91 55.9007 874.59 50.6807C876.03 49.1507 875.76 46.7207 874.14 45.3707C872.52 44.1107 870.18 44.2907 868.74 45.9107C865.59 49.2407 863.52 50.0507 858.03 50.0507H849.48C862.35 44.2907 872.16 36.9107 877.74 30.3407C879.18 28.6307 878.73 26.1107 876.93 24.7607C875.13 23.5907 872.7 23.9507 871.26 25.6607C864.33 34.1207 852.09 41.0507 839.31 45.7307C839.22 44.9207 839.13 44.1107 839.13 43.0307V32.2307C839.13 30.1607 837.42 28.4507 835.35 28.4507C833.28 28.4507 831.57 30.1607 831.57 32.2307V43.0307C831.57 44.9207 831.75 46.5407 832.11 48.0707C828.96 49.0607 825.81 49.7807 822.75 50.4107C820.68 50.7707 819.24 52.7507 819.6 54.9107C819.96 57.0707 821.94 58.4207 824.1 58.0607ZM830.04 40.2407C831.3 38.5307 830.58 36.1007 828.69 35.0207C826.89 34.0307 824.64 34.5707 823.38 36.2807C821.13 39.4307 817.53 43.0307 814.02 45.4607C812.31 46.7207 811.59 48.8807 812.4 50.7707C813.3 52.6607 815.64 53.3807 817.26 52.3007C822.3 49.0607 827.34 44.2007 830.04 40.2407ZM888.72 45.3707C885.21 42.5807 881.34 40.1507 876.48 37.8107C874.59 36.9107 872.43 37.7207 871.53 39.6107C870.72 41.5007 871.53 43.6607 873.33 44.5607C878.1 46.9007 882.15 49.5107 885.12 52.0307C886.65 53.3807 888.99 53.0207 889.89 51.2207C890.97 49.2407 890.43 46.7207 888.72 45.3707ZM878.91 62.9207C876.75 62.9207 874.86 64.7207 874.86 66.8807V79.4807H855.96V61.7507C855.96 59.5907 854.25 57.7907 852 57.7907C849.84 57.7907 848.04 59.5907 848.04 61.7507V79.4807H829.14V66.8807C829.14 64.7207 827.34 62.9207 825.18 62.9207C823.02 62.9207 821.13 64.7207 821.13 66.8807V81.1907C821.13 84.5207 823.83 87.1307 827.07 87.1307H876.93C880.17 87.1307 882.87 84.4307 882.87 81.1907V66.8807C882.87 64.7207 881.07 62.9207 878.91 62.9207Z" fill="#42210C"/>
<path d="M162.78 154.651V139.171H171.87C173.94 139.171 175.65 137.551 175.65 135.391C175.65 133.231 173.94 131.521 171.87 131.521H152.88C154.05 128.461 154.86 125.581 155.4 123.151C155.85 121.081 154.41 119.011 152.34 118.561C150.27 118.111 148.29 119.461 147.84 121.531C146.31 128.731 143.16 135.481 138.48 141.241C137.22 142.861 137.22 145.111 138.57 146.641C140.01 148.171 142.35 148.261 143.7 146.731C145.86 144.301 147.66 141.691 149.19 139.171H154.95V154.651H142.26C140.1 154.651 138.48 156.451 138.48 158.521C138.48 160.591 140.1 162.391 142.26 162.391H154.23C152.25 170.581 146.85 179.581 139.56 186.151C137.94 187.591 137.58 190.111 138.84 191.911C140.19 193.711 142.71 194.071 144.33 192.541C149.37 188.041 154.86 181.291 158.55 173.461C161.79 176.611 165.75 181.201 168.81 186.151C169.98 188.041 172.32 188.491 174.12 187.321C176.01 185.971 176.64 183.451 175.47 181.651C172.23 176.341 166.11 169.501 161.52 165.451C161.79 164.461 162.06 163.381 162.24 162.391H175.02C177.09 162.391 178.8 160.591 178.8 158.521C178.8 156.361 177.09 154.651 175.02 154.651H162.78ZM185.1 126.391C181.86 126.391 179.16 129.091 179.16 132.331V186.511C179.16 189.841 181.86 192.451 185.1 192.451H206.61C209.94 192.451 212.55 189.751 212.55 186.511V132.331C212.55 129.001 209.85 126.391 206.61 126.391H185.1ZM186.99 184.711V134.131H204.72V184.711H186.99Z" fill="#42210C"/>
<path d="M264.48 189.121C302.28 187.141 302.91 148.621 280.41 146.461C266.91 145.201 253.95 156.271 242.52 154.651C240.54 154.291 238.65 155.551 238.29 157.441C237.84 159.601 239.1 161.671 241.17 161.941C256.65 164.281 272.76 149.431 283.47 155.011C294 160.591 287.52 181.201 264.03 181.831C261.96 181.831 260.43 183.541 260.52 185.521C260.61 187.681 262.41 189.211 264.48 189.121Z" fill="#42210C"/>
<path d="M373.65 138.631C377.52 137.731 381.12 136.651 384.54 135.391C386.61 134.581 387.6 132.241 386.79 130.171C385.89 128.191 383.64 127.201 381.57 127.921C366.72 133.321 349.26 135.211 329.73 133.681C327.57 133.501 325.59 135.121 325.32 137.281C325.14 139.531 326.76 141.511 328.92 141.601C339.54 142.501 349.98 142.321 359.7 141.151C343.77 155.551 344.4 172.741 350.61 181.651C357.18 191.191 369.87 195.511 382.29 192.361C384.54 191.821 385.89 189.481 385.44 187.141C384.99 184.981 382.83 183.721 380.67 184.351C373.47 186.331 363.84 185.881 357.63 177.781C348.99 166.531 356.19 149.611 373.65 138.631Z" fill="#42210C"/>
<path d="M474.18 140.611C476.25 140.521 477.96 138.811 477.87 136.651C477.87 134.491 476.07 132.781 473.91 132.871C468.33 133.051 460.77 133.501 452.94 134.041C452.85 130.711 452.67 127.831 452.58 125.581C452.49 123.421 450.6 121.801 448.44 121.981C446.28 122.161 444.75 123.961 444.84 126.121C444.93 128.371 445.11 131.251 445.2 134.581C435.03 135.301 425.22 136.111 419.55 136.381C417.48 136.471 415.77 138.271 415.95 140.431C416.04 142.591 417.84 144.211 419.91 144.121C425.58 143.851 435.39 143.131 445.56 142.411C445.65 145.831 445.74 149.341 445.92 152.851C440.16 153.031 434.4 152.941 428.55 152.491C426.48 152.401 424.59 153.931 424.32 156.091C424.14 158.251 425.76 160.141 427.92 160.231C432.78 160.681 439.26 160.771 446.1 160.591C446.28 165.001 446.37 169.051 446.46 172.381C429.54 170.041 420.63 176.521 422.61 184.261C424.14 189.841 430.44 193.981 437.46 193.981C446.64 193.981 452.04 189.751 453.66 181.381C459.15 183.091 464.19 185.701 468.78 188.311C470.76 189.391 473.28 188.581 474.18 186.511C475.08 184.441 474.18 181.921 472.11 180.841C465.54 177.691 459.6 175.441 454.2 174.001C454.11 170.311 454.02 165.451 453.84 160.141C459.51 159.781 465.18 159.151 470.31 158.161C472.38 157.801 473.73 155.731 473.28 153.661C472.83 151.591 470.76 150.241 468.69 150.601C463.92 151.501 458.88 152.131 453.57 152.491C453.48 148.891 453.39 145.291 453.21 141.871C461.31 141.331 468.96 140.881 474.18 140.611ZM438.18 186.241C428.82 186.241 425.67 179.401 437.91 179.041C440.79 178.861 443.58 179.041 446.28 179.491C445.74 183.091 444.03 186.241 438.18 186.241Z" fill="#42210C"/>
<path d="M567.51 133.681C560.85 132.601 553.47 132.781 545.91 133.321V125.581C545.91 123.511 544.2 121.711 542.04 121.711C539.88 121.711 538.17 123.421 538.26 125.581V133.951C527.55 134.851 516.84 135.841 507.39 134.491C505.32 134.131 503.43 135.571 503.16 137.641C502.98 139.891 504.42 141.871 506.58 142.231C515.31 143.671 526.83 142.681 538.35 141.781V150.151C528.99 144.931 518.82 152.221 520.08 163.561C521.25 173.191 534.03 178.321 540.78 169.771C540.33 179.131 532.5 185.971 521.7 186.151C519.45 186.241 517.56 187.951 517.56 190.111C517.47 192.451 519.36 194.251 521.61 194.161C545.28 193.171 552.75 171.391 545.91 156.091V141.241C553.29 140.701 560.4 140.611 566.61 141.421C568.68 141.781 570.66 140.341 570.84 138.271C571.11 136.111 569.67 134.041 567.51 133.681ZM527.91 163.561C525.39 156.181 533.85 151.861 538.08 158.071C538.08 169.411 529.26 167.791 527.91 163.561Z" fill="#42210C"/>
<path d="M618.27 138.991C619.26 134.221 620.07 129.631 620.52 125.221C620.7 123.061 619.08 121.171 617.01 120.991C614.94 120.901 613.05 122.431 612.87 124.501C612.33 129.631 611.52 135.031 610.44 140.431C605.67 141.331 602.25 141.511 597.57 141.061C595.41 140.971 593.52 142.411 593.25 144.481C593.07 146.731 594.6 148.621 596.67 148.711C601.17 149.071 604.77 148.891 608.55 148.351C604.86 162.301 599.19 176.251 591.54 187.861C590.37 189.571 590.82 192.001 592.44 193.261C594.24 194.521 596.67 194.071 597.84 192.271C605.85 180.031 612.42 163.111 616.56 146.731C630.24 143.941 630.24 149.881 629.88 153.211C626.73 182.821 624.12 186.781 612.78 180.751C610.8 179.671 608.46 180.391 607.47 182.281C606.39 184.261 607.11 186.691 609 187.681C621.42 193.981 629.79 190.741 633.39 178.231C634.65 173.821 636.81 163.381 637.53 153.931C638.07 148.171 636.99 136.561 618.27 138.991ZM665.25 171.751C662.01 161.671 653.73 147.001 647.25 139.261C645.63 137.371 642.84 137.191 640.86 138.811C639.15 140.251 638.97 142.861 640.59 144.661C647.07 151.591 653.91 162.661 657.15 174.451C657.78 176.701 660.12 178.051 662.37 177.331C664.71 176.431 666.06 173.911 665.25 171.751Z" fill="#42210C"/>
<path d="M715.65 178.591C717.81 178.591 719.43 176.881 719.34 174.811C719.16 156.091 730.95 162.391 736.8 147.991C740.94 137.461 734.55 121.801 716.73 121.801C697.02 121.801 689.46 148.981 702.33 148.981C705.48 148.981 708.09 146.281 708.09 143.221C708.09 141.151 707.01 139.261 705.21 138.181C706.2 133.231 710.97 129.721 717 129.721C727.53 129.721 730.59 137.101 729.96 141.871C728.43 154.831 711.96 151.501 711.78 174.811C711.78 176.881 713.58 178.591 715.65 178.591ZM715.65 195.061C719.07 195.061 721.86 192.271 721.86 188.941C721.86 185.521 719.07 182.731 715.65 182.731C712.32 182.731 709.44 185.521 709.44 188.941C709.44 192.271 712.23 195.061 715.65 195.061Z" fill="#42210C"/>
<path d="M63.4201 26.6507C43.9801 26.6507 27.6901 30.0707 11.8501 28.7207C9.69008 28.5407 7.62008 30.0707 7.35008 32.3207C7.17008 34.5707 8.79008 36.7307 11.0401 36.9107C26.5201 38.5307 41.1001 34.3007 62.5201 34.3007C70.0801 34.3007 70.1701 36.5507 62.6101 43.7507C55.0501 50.8607 48.5701 54.8207 43.4401 57.5207C40.1101 54.2807 36.6001 51.5807 33.0001 49.6007C31.0201 48.6107 28.4101 49.3307 27.1501 51.4007C26.0701 53.3807 26.7901 55.8107 28.7701 56.8007C38.0401 61.6607 42.0901 66.9707 50.5501 80.0207C51.8101 81.9107 54.3301 82.4507 56.1301 81.1907C58.0201 79.8407 58.5601 77.2307 57.3901 75.3407C55.0501 71.4707 52.1701 67.3307 48.8401 63.3707C53.4301 60.6707 60.5401 56.0807 68.0101 49.6907C79.2601 40.0607 81.9601 26.6507 63.4201 26.6507Z" stroke="white" stroke-width="14" mask="url(#path-1-outside-1_495:883)"/>
<path d="M126.24 42.4007C127.95 40.5107 127.86 37.6307 126.06 36.1007C121.56 32.2307 113.82 28.0007 105.9 26.9207C103.56 26.6507 101.49 28.3607 101.22 30.7907C100.95 33.0407 102.57 35.0207 104.82 35.3807C110.94 36.3707 116.34 38.8007 120.3 42.4007C122.01 44.0207 124.71 44.0207 126.24 42.4007ZM105.99 80.1107C128.76 75.2507 152.07 59.1407 165.3 41.5907C166.74 39.7007 166.29 37.0007 164.49 35.4707C162.6 34.0307 159.99 34.3907 158.55 36.2807C143.25 56.8007 120.84 67.9607 104.91 71.7407C102.57 72.2807 101.04 74.4407 101.31 76.6907C101.58 78.9407 103.74 80.5607 105.99 80.1107Z" stroke="white" stroke-width="14" mask="url(#path-1-outside-1_495:883)"/>
<path d="M212.64 34.3907C214.44 35.4707 216.78 34.9307 217.68 33.0407C218.76 31.0607 218.13 28.5407 216.33 27.3707C211.38 24.2207 205.17 22.0607 199.32 21.4307C197.16 21.1607 195.27 22.7807 194.91 25.0307C194.64 27.0107 196.17 28.9007 198.24 29.2607C203.46 29.9807 208.5 31.6907 212.64 34.3907ZM200.67 82.9007C221.37 77.5907 243.06 60.5807 252.69 45.4607C253.95 43.4807 253.5 40.8707 251.52 39.3407C249.72 37.9907 247.2 38.4407 245.94 40.4207C234.33 58.3307 213.45 70.5707 198.33 74.7107C196.08 75.3407 194.82 77.5907 195.45 79.7507C196.08 82.0007 198.42 83.4407 200.67 82.9007ZM207.42 53.9207C209.4 54.7307 211.74 53.9207 212.55 52.0307C213.45 49.8707 212.64 47.4407 210.57 46.5407C205.89 44.4707 199.41 43.0307 193.92 42.7607C191.67 42.6707 189.87 44.5607 189.78 46.8107C189.69 48.8807 191.4 50.6807 193.56 50.7707C197.88 51.0407 203.37 52.2107 207.42 53.9207Z" stroke="white" stroke-width="14" mask="url(#path-1-outside-1_495:883)"/>
<path d="M319.47 35.8307C312.45 36.1007 303.09 36.2807 293.91 35.8307C291.84 35.7407 290.04 37.3607 289.86 39.4307C289.77 41.5907 291.39 43.3007 293.55 43.3907C301.83 43.7507 312.72 43.7507 319.83 43.3907C324.87 43.0307 325.23 43.3907 325.23 48.9707V54.2807C323.07 53.6507 320.73 53.6507 318.39 53.5607H295.62C293.64 53.5607 292.02 55.2707 292.02 57.2507C292.02 59.3207 293.73 60.9407 295.71 60.9407C301.74 60.8507 314.79 60.8507 318.3 60.9407C321.27 60.9407 323.34 61.1207 325.23 62.0207V70.7507H293.73C291.66 70.7507 289.86 72.4607 289.86 74.5307C289.86 76.6907 291.66 78.4007 293.73 78.4007H325.32C325.59 80.2907 327.21 81.6407 329.1 81.6407C331.17 81.6407 332.88 79.9307 332.88 77.7707V48.9707C332.88 38.6207 329.37 35.1107 319.47 35.8307Z" stroke="white" stroke-width="14" mask="url(#path-1-outside-1_495:883)"/>
<path d="M396.24 42.4007C397.95 40.5107 397.86 37.6307 396.06 36.1007C391.56 32.2307 383.82 28.0007 375.9 26.9207C373.56 26.6507 371.49 28.3607 371.22 30.7907C370.95 33.0407 372.57 35.0207 374.82 35.3807C380.94 36.3707 386.34 38.8007 390.3 42.4007C392.01 44.0207 394.71 44.0207 396.24 42.4007ZM375.99 80.1107C398.76 75.2507 422.07 59.1407 435.3 41.5907C436.74 39.7007 436.29 37.0007 434.49 35.4707C432.6 34.0307 429.99 34.3907 428.55 36.2807C413.25 56.8007 390.84 67.9607 374.91 71.7407C372.57 72.2807 371.04 74.4407 371.31 76.6907C371.58 78.9407 373.74 80.5607 375.99 80.1107Z" stroke="white" stroke-width="14" mask="url(#path-1-outside-1_495:883)"/>
<path d="M478.59 52.0307L479.13 54.1907C479.58 56.1707 481.56 57.5207 483.54 57.0707C485.61 56.5307 486.96 54.5507 486.51 52.4807C485.43 47.8007 483.81 43.1207 482.37 39.6107C481.47 37.5407 479.04 36.6407 477.06 37.4507C475.08 38.2607 474.18 40.6007 475.08 42.5807C475.44 43.3007 475.8 44.2007 476.16 45.0107C473.91 45.7307 471.12 46.2707 467.7 46.8107L467.52 46.6307C473.91 39.2507 478.68 29.7107 481.47 18.4607C481.92 16.3907 480.75 14.4107 478.59 13.9607C476.61 13.5107 474.63 14.7707 474.18 16.7507C472.65 22.9607 470.31 28.9007 467.34 34.0307C465.99 32.1407 464.64 30.3407 463.11 28.5407C466.08 24.5807 468.51 19.4507 470.22 12.9707C470.76 10.9907 469.59 9.01073 467.52 8.56073C465.63 8.02073 463.56 9.28073 463.02 11.2607C461.58 16.3907 459.42 20.9807 456.81 24.4007C454.92 26.9207 454.92 30.4307 456.9 32.7707C459.15 35.2907 461.22 38.1707 462.75 40.8707C460.41 43.7507 457.98 46.1807 455.37 47.8907C451.95 50.4107 453.48 55.9907 457.44 55.5407C460.05 55.3607 463.2 55.0907 466.44 54.6407V83.8907C466.44 85.9607 468.15 87.7607 470.31 87.7607C472.47 87.7607 474.18 85.9607 474.18 83.8907V53.2007C475.71 52.8407 477.15 52.4807 478.59 52.0307ZM528.9 44.2007C523.23 42.3107 518.01 39.7007 513.33 36.4607C518.91 31.5107 523.95 25.6607 527.28 19.1807C528.54 16.7507 526.65 13.8707 523.86 13.8707H490.74C488.67 13.8707 486.87 15.5807 486.87 17.7407C486.87 19.8107 488.67 21.5207 490.74 21.5207H516.66C514.95 23.8607 511.71 27.6407 507.3 31.6007C504.78 29.3507 502.44 26.9207 500.37 24.2207C499.11 22.5107 496.77 21.8807 494.79 22.7807C492.9 23.6807 492.27 26.1107 493.44 27.7307C495.51 30.7007 498.21 33.7607 501.27 36.5507C497.49 39.2507 493.35 41.8607 488.76 43.7507C486.69 44.5607 485.52 46.8107 486.15 48.9707C486.69 51.1307 489.03 52.3007 491.01 51.4007C495.24 49.5107 501.18 46.0907 507.3 41.5007C513.33 46.0007 520.26 49.6907 526.65 51.6707C528.63 52.3007 530.79 51.1307 531.42 48.9707C531.96 46.9907 530.79 44.9207 528.9 44.2007ZM511.17 78.9407V65.5307H523.59C525.75 65.5307 527.46 63.7307 527.46 61.6607C527.46 59.5907 525.75 57.7907 523.59 57.7907H511.17V48.5207C511.17 46.3607 509.46 44.5607 507.21 44.5607C505.05 44.5607 503.34 46.3607 503.34 48.5207V57.7907H491.64C489.57 57.7907 487.77 59.5007 487.77 61.6607C487.77 63.7307 489.48 65.5307 491.64 65.5307H503.34V78.9407H488.22C486.15 78.9407 484.44 80.6507 484.44 82.8107C484.44 84.9707 486.15 86.6807 488.22 86.6807H526.65C528.72 86.6807 530.52 84.9707 530.52 82.8107C530.52 80.6507 528.72 78.9407 526.65 78.9407H511.17ZM462.39 56.8007C460.32 56.5307 458.52 57.9707 458.25 60.0407C457.44 67.7807 456 74.0807 453.84 79.9307C453.03 82.0007 454.11 84.1607 456.18 84.7007C458.34 85.2407 460.59 84.0707 461.31 82.0007C463.47 75.7007 465.09 67.2407 465.81 61.0307C465.99 58.9607 464.46 57.0707 462.39 56.8007ZM486.15 72.1007C485.16 67.9607 483.72 64.0007 482.28 60.7607C481.29 58.7807 478.95 57.8807 476.79 58.6007C474.9 59.3207 474.18 61.5707 475.17 63.3707C476.88 66.3407 478.23 69.8507 479.04 73.5407C479.49 75.5207 481.38 76.7807 483.27 76.3307C485.34 75.9707 486.6 73.9907 486.15 72.1007Z" stroke="white" stroke-width="14" mask="url(#path-1-outside-1_495:883)"/>
<path d="M601.17 20.0807C602.88 17.9207 604.41 15.5807 605.67 13.5107C606.75 11.6207 605.94 9.28073 603.87 8.38073C601.89 7.57073 599.55 8.47073 598.47 10.3607C596.22 14.1407 593.61 17.5607 590.82 20.0807H585.24C585.15 19.9007 585.15 19.7207 585.06 19.5407C583.89 16.6607 582.27 13.5107 580.65 10.7207C579.39 8.74074 576.69 8.02073 574.44 9.10073C572.46 10.0907 572.01 12.6107 573.45 14.3207C574.98 16.2107 576.15 18.0107 577.14 20.0807H569.94C568.32 16.7507 566.16 13.2407 564.18 10.5407C562.74 8.56073 559.95 8.20073 558.06 9.73073C556.26 11.0807 556.17 13.7807 557.79 15.4007C559.41 16.8407 560.49 18.2807 561.48 20.0807H552.3C549.06 20.0807 546.36 22.7807 546.36 26.0207V36.8207C546.36 38.9807 548.16 40.6907 550.23 40.6907C552.39 40.6907 554.1 38.8907 554.1 36.8207V27.4607H609.9V36.8207C609.9 38.9807 611.7 40.6907 613.77 40.6907C615.93 40.6907 617.64 38.8907 617.64 36.8207V26.0207C617.64 22.6907 614.94 20.0807 611.7 20.0807H601.17ZM581.37 60.4907C582.63 58.6007 583.62 56.5307 584.34 54.5507H597.66C600.99 54.5507 603.6 51.8507 603.6 48.6107V38.9807C603.6 35.7407 600.9 33.0407 597.66 33.0407H566.34C563.01 33.0407 560.4 35.7407 560.4 38.9807V48.6107C560.4 51.9407 563.1 54.5507 566.34 54.5507H575.97C574.8 56.8007 573.18 58.8707 571.38 60.4907H558.78C555.54 60.4907 552.84 63.1907 552.84 66.4307V81.1907C552.84 84.5207 555.54 87.1307 558.78 87.1307H605.22C608.46 87.1307 611.16 84.5207 611.16 81.1907V66.4307C611.16 63.1907 608.46 60.4907 605.22 60.4907H581.37ZM595.95 40.5107V47.0807H568.05V40.5107H595.95ZM560.58 79.4807V68.2307H603.42V79.4807H560.58Z" stroke="white" stroke-width="14" mask="url(#path-1-outside-1_495:883)"/>
<path d="M675.6 80.2907C700.44 76.9607 708.36 57.4307 704.22 42.8507C697.47 19.2707 662.73 15.7607 646.89 37.1807C636.36 51.5807 637.17 71.9207 648.6 74.6207C660.75 77.5007 672.09 55.4507 677.31 30.8807C688.11 31.0607 696.75 38.9807 697.2 49.1507C697.74 61.5707 689.55 69.8507 674.43 72.1907C672.27 72.5507 670.74 74.5307 671.1 76.6907C671.37 78.9407 673.44 80.5607 675.6 80.2907ZM648.15 65.0807C644.1 58.3307 649.23 35.2907 668.94 31.4207C665.16 49.6907 653.37 73.9007 648.15 65.0807Z" stroke="white" stroke-width="14" mask="url(#path-1-outside-1_495:883)"/>
<path d="M763.26 18.1007C768.84 19.3607 773.97 21.5207 778.29 24.4007C780.09 25.5707 782.43 24.9407 783.24 23.0507C784.14 20.8907 783.42 18.4607 781.53 17.2907C776.58 14.3207 770.73 11.9807 764.88 10.5407C762.81 10.0907 760.74 11.4407 760.29 13.5107C759.84 15.5807 761.19 17.5607 763.26 18.1007ZM749.13 60.5807C751.02 59.5007 752.01 57.3407 751.38 55.3607C749.94 50.6807 746.97 45.3707 743.91 42.0407V41.2307H749.94C752.01 41.2307 753.72 39.5207 753.72 37.4507C753.72 35.3807 752.01 33.7607 749.94 33.7607H743.91V21.2507C746.52 20.6207 749.04 19.9907 751.11 19.3607C753.27 18.6407 754.53 16.3007 753.9 14.1407C753.36 12.0707 751.11 10.9907 749.04 11.8007C742.29 14.4107 734.1 15.7607 728.7 16.2107C726.63 16.3907 725.01 18.1907 725.19 20.2607C725.37 22.4207 727.17 24.0407 729.33 23.8607C731.49 23.6807 733.92 23.3207 736.35 22.8707V33.7607H726.99C725.01 33.7607 723.3 35.3807 723.3 37.4507C723.3 39.5207 725.01 41.2307 726.99 41.2307H735.45C733.56 48.9707 729.42 57.7007 723.03 64.7207C721.5 66.3407 721.5 68.8607 723.03 70.4807C724.56 72.1007 727.17 72.1007 728.61 70.4807C731.58 67.1507 734.19 63.1007 736.35 58.9607V83.8907C736.35 86.0507 738.15 87.6707 740.13 87.6707C742.29 87.6707 743.91 85.9607 743.91 83.8907V55.9907C744.27 56.8907 744.54 57.7907 744.81 58.6907C745.35 60.5807 747.42 61.4807 749.13 60.5807ZM791.34 72.1907C789.72 71.0207 787.38 71.6507 786.3 73.4507C783.96 77.5007 780.99 79.3007 776.94 79.3007C771 79.3007 769.92 78.4007 769.83 72.4607C783.06 58.8707 792.24 40.0607 796.2 20.8007C796.65 18.6407 795.3 16.6607 793.23 16.2107C791.25 15.7607 789.18 17.0207 788.73 19.0907C785.94 32.5007 779.64 47.8907 769.83 60.5807V31.9607C769.83 29.8007 768.03 28.1807 766.05 28.1807C763.98 28.1807 762.27 29.8007 762.27 31.9607V68.9507C758.22 72.8207 753.63 76.2407 748.68 78.9407C746.79 80.0207 745.89 82.2707 746.7 84.2507C747.6 86.3207 749.85 87.1307 751.74 86.1407C755.7 84.0707 759.39 81.6407 762.9 78.7607C764.97 86.0507 771.63 86.7707 777.3 86.7707C783.87 86.7707 788.55 83.9807 792.6 77.6807C793.77 75.8807 793.14 73.4507 791.34 72.1907ZM747.42 73.9907C749.13 75.3407 751.56 74.9807 752.73 73.2707C756.96 66.7907 760.02 57.4307 761.19 50.4107C761.55 48.3407 760.11 46.3607 757.95 45.9107C755.97 45.5507 754.08 46.9907 753.72 49.0607C752.91 54.9107 750.75 62.6507 746.7 68.5007C745.53 70.3007 745.8 72.7307 747.42 73.9907ZM801.6 70.1207C799.8 65.5307 796.56 58.2407 794.13 53.6507C793.14 51.7607 790.71 50.9507 788.73 51.9407C786.84 52.7507 786.12 55.0007 787.2 56.8907C789.72 61.3907 792.96 68.9507 794.85 73.3607C795.57 75.3407 797.82 76.1507 799.62 75.2507C801.51 74.2607 802.41 72.0107 801.6 70.1207Z" stroke="white" stroke-width="14" mask="url(#path-1-outside-1_495:883)"/>
<path d="M820.14 31.1507C822.21 31.1507 824.01 29.4407 824.01 27.2807V21.6107H879.99V27.2807C879.99 29.4407 881.79 31.1507 883.86 31.1507C886.02 31.1507 887.82 29.4407 887.82 27.2807V20.1707C887.82 16.9307 885.12 14.2307 881.88 14.2307H855.96V11.7107C855.96 9.46073 854.16 7.75073 852 7.75073C849.84 7.75073 848.04 9.55073 848.04 11.7107V14.2307H822.21C818.97 14.2307 816.27 16.9307 816.27 20.1707V27.2807C816.27 29.4407 818.07 31.1507 820.14 31.1507ZM842.37 21.7907C840.3 21.5207 838.32 23.0507 838.05 25.2107C837.69 27.1907 839.13 29.0807 841.2 29.2607C847.14 29.8907 852.72 31.2407 857.31 33.1307C859.29 33.8507 861.54 32.8607 862.17 30.8807C862.8 28.8107 861.72 26.5607 859.65 25.8407C854.34 23.9507 847.41 22.4207 842.37 21.7907ZM824.1 58.0607C828.42 57.2507 832.56 56.1707 836.52 54.9107C838.95 56.7107 842.28 57.6107 846.51 57.6107H858.03C865.68 57.6107 869.91 55.9007 874.59 50.6807C876.03 49.1507 875.76 46.7207 874.14 45.3707C872.52 44.1107 870.18 44.2907 868.74 45.9107C865.59 49.2407 863.52 50.0507 858.03 50.0507H849.48C862.35 44.2907 872.16 36.9107 877.74 30.3407C879.18 28.6307 878.73 26.1107 876.93 24.7607C875.13 23.5907 872.7 23.9507 871.26 25.6607C864.33 34.1207 852.09 41.0507 839.31 45.7307C839.22 44.9207 839.13 44.1107 839.13 43.0307V32.2307C839.13 30.1607 837.42 28.4507 835.35 28.4507C833.28 28.4507 831.57 30.1607 831.57 32.2307V43.0307C831.57 44.9207 831.75 46.5407 832.11 48.0707C828.96 49.0607 825.81 49.7807 822.75 50.4107C820.68 50.7707 819.24 52.7507 819.6 54.9107C819.96 57.0707 821.94 58.4207 824.1 58.0607ZM830.04 40.2407C831.3 38.5307 830.58 36.1007 828.69 35.0207C826.89 34.0307 824.64 34.5707 823.38 36.2807C821.13 39.4307 817.53 43.0307 814.02 45.4607C812.31 46.7207 811.59 48.8807 812.4 50.7707C813.3 52.6607 815.64 53.3807 817.26 52.3007C822.3 49.0607 827.34 44.2007 830.04 40.2407ZM888.72 45.3707C885.21 42.5807 881.34 40.1507 876.48 37.8107C874.59 36.9107 872.43 37.7207 871.53 39.6107C870.72 41.5007 871.53 43.6607 873.33 44.5607C878.1 46.9007 882.15 49.5107 885.12 52.0307C886.65 53.3807 888.99 53.0207 889.89 51.2207C890.97 49.2407 890.43 46.7207 888.72 45.3707ZM878.91 62.9207C876.75 62.9207 874.86 64.7207 874.86 66.8807V79.4807H855.96V61.7507C855.96 59.5907 854.25 57.7907 852 57.7907C849.84 57.7907 848.04 59.5907 848.04 61.7507V79.4807H829.14V66.8807C829.14 64.7207 827.34 62.9207 825.18 62.9207C823.02 62.9207 821.13 64.7207 821.13 66.8807V81.1907C821.13 84.5207 823.83 87.1307 827.07 87.1307H876.93C880.17 87.1307 882.87 84.4307 882.87 81.1907V66.8807C882.87 64.7207 881.07 62.9207 878.91 62.9207Z" stroke="white" stroke-width="14" mask="url(#path-1-outside-1_495:883)"/>
<path d="M162.78 154.651V139.171H171.87C173.94 139.171 175.65 137.551 175.65 135.391C175.65 133.231 173.94 131.521 171.87 131.521H152.88C154.05 128.461 154.86 125.581 155.4 123.151C155.85 121.081 154.41 119.011 152.34 118.561C150.27 118.111 148.29 119.461 147.84 121.531C146.31 128.731 143.16 135.481 138.48 141.241C137.22 142.861 137.22 145.111 138.57 146.641C140.01 148.171 142.35 148.261 143.7 146.731C145.86 144.301 147.66 141.691 149.19 139.171H154.95V154.651H142.26C140.1 154.651 138.48 156.451 138.48 158.521C138.48 160.591 140.1 162.391 142.26 162.391H154.23C152.25 170.581 146.85 179.581 139.56 186.151C137.94 187.591 137.58 190.111 138.84 191.911C140.19 193.711 142.71 194.071 144.33 192.541C149.37 188.041 154.86 181.291 158.55 173.461C161.79 176.611 165.75 181.201 168.81 186.151C169.98 188.041 172.32 188.491 174.12 187.321C176.01 185.971 176.64 183.451 175.47 181.651C172.23 176.341 166.11 169.501 161.52 165.451C161.79 164.461 162.06 163.381 162.24 162.391H175.02C177.09 162.391 178.8 160.591 178.8 158.521C178.8 156.361 177.09 154.651 175.02 154.651H162.78ZM185.1 126.391C181.86 126.391 179.16 129.091 179.16 132.331V186.511C179.16 189.841 181.86 192.451 185.1 192.451H206.61C209.94 192.451 212.55 189.751 212.55 186.511V132.331C212.55 129.001 209.85 126.391 206.61 126.391H185.1ZM186.99 184.711V134.131H204.72V184.711H186.99Z" stroke="white" stroke-width="14" mask="url(#path-1-outside-1_495:883)"/>
<path d="M264.48 189.121C302.28 187.141 302.91 148.621 280.41 146.461C266.91 145.201 253.95 156.271 242.52 154.651C240.54 154.291 238.65 155.551 238.29 157.441C237.84 159.601 239.1 161.671 241.17 161.941C256.65 164.281 272.76 149.431 283.47 155.011C294 160.591 287.52 181.201 264.03 181.831C261.96 181.831 260.43 183.541 260.52 185.521C260.61 187.681 262.41 189.211 264.48 189.121Z" stroke="white" stroke-width="14" mask="url(#path-1-outside-1_495:883)"/>
<path d="M373.65 138.631C377.52 137.731 381.12 136.651 384.54 135.391C386.61 134.581 387.6 132.241 386.79 130.171C385.89 128.191 383.64 127.201 381.57 127.921C366.72 133.321 349.26 135.211 329.73 133.681C327.57 133.501 325.59 135.121 325.32 137.281C325.14 139.531 326.76 141.511 328.92 141.601C339.54 142.501 349.98 142.321 359.7 141.151C343.77 155.551 344.4 172.741 350.61 181.651C357.18 191.191 369.87 195.511 382.29 192.361C384.54 191.821 385.89 189.481 385.44 187.141C384.99 184.981 382.83 183.721 380.67 184.351C373.47 186.331 363.84 185.881 357.63 177.781C348.99 166.531 356.19 149.611 373.65 138.631Z" stroke="white" stroke-width="14" mask="url(#path-1-outside-1_495:883)"/>
<path d="M474.18 140.611C476.25 140.521 477.96 138.811 477.87 136.651C477.87 134.491 476.07 132.781 473.91 132.871C468.33 133.051 460.77 133.501 452.94 134.041C452.85 130.711 452.67 127.831 452.58 125.581C452.49 123.421 450.6 121.801 448.44 121.981C446.28 122.161 444.75 123.961 444.84 126.121C444.93 128.371 445.11 131.251 445.2 134.581C435.03 135.301 425.22 136.111 419.55 136.381C417.48 136.471 415.77 138.271 415.95 140.431C416.04 142.591 417.84 144.211 419.91 144.121C425.58 143.851 435.39 143.131 445.56 142.411C445.65 145.831 445.74 149.341 445.92 152.851C440.16 153.031 434.4 152.941 428.55 152.491C426.48 152.401 424.59 153.931 424.32 156.091C424.14 158.251 425.76 160.141 427.92 160.231C432.78 160.681 439.26 160.771 446.1 160.591C446.28 165.001 446.37 169.051 446.46 172.381C429.54 170.041 420.63 176.521 422.61 184.261C424.14 189.841 430.44 193.981 437.46 193.981C446.64 193.981 452.04 189.751 453.66 181.381C459.15 183.091 464.19 185.701 468.78 188.311C470.76 189.391 473.28 188.581 474.18 186.511C475.08 184.441 474.18 181.921 472.11 180.841C465.54 177.691 459.6 175.441 454.2 174.001C454.11 170.311 454.02 165.451 453.84 160.141C459.51 159.781 465.18 159.151 470.31 158.161C472.38 157.801 473.73 155.731 473.28 153.661C472.83 151.591 470.76 150.241 468.69 150.601C463.92 151.501 458.88 152.131 453.57 152.491C453.48 148.891 453.39 145.291 453.21 141.871C461.31 141.331 468.96 140.881 474.18 140.611ZM438.18 186.241C428.82 186.241 425.67 179.401 437.91 179.041C440.79 178.861 443.58 179.041 446.28 179.491C445.74 183.091 444.03 186.241 438.18 186.241Z" stroke="white" stroke-width="14" mask="url(#path-1-outside-1_495:883)"/>
<path d="M567.51 133.681C560.85 132.601 553.47 132.781 545.91 133.321V125.581C545.91 123.511 544.2 121.711 542.04 121.711C539.88 121.711 538.17 123.421 538.26 125.581V133.951C527.55 134.851 516.84 135.841 507.39 134.491C505.32 134.131 503.43 135.571 503.16 137.641C502.98 139.891 504.42 141.871 506.58 142.231C515.31 143.671 526.83 142.681 538.35 141.781V150.151C528.99 144.931 518.82 152.221 520.08 163.561C521.25 173.191 534.03 178.321 540.78 169.771C540.33 179.131 532.5 185.971 521.7 186.151C519.45 186.241 517.56 187.951 517.56 190.111C517.47 192.451 519.36 194.251 521.61 194.161C545.28 193.171 552.75 171.391 545.91 156.091V141.241C553.29 140.701 560.4 140.611 566.61 141.421C568.68 141.781 570.66 140.341 570.84 138.271C571.11 136.111 569.67 134.041 567.51 133.681ZM527.91 163.561C525.39 156.181 533.85 151.861 538.08 158.071C538.08 169.411 529.26 167.791 527.91 163.561Z" stroke="white" stroke-width="14" mask="url(#path-1-outside-1_495:883)"/>
<path d="M618.27 138.991C619.26 134.221 620.07 129.631 620.52 125.221C620.7 123.061 619.08 121.171 617.01 120.991C614.94 120.901 613.05 122.431 612.87 124.501C612.33 129.631 611.52 135.031 610.44 140.431C605.67 141.331 602.25 141.511 597.57 141.061C595.41 140.971 593.52 142.411 593.25 144.481C593.07 146.731 594.6 148.621 596.67 148.711C601.17 149.071 604.77 148.891 608.55 148.351C604.86 162.301 599.19 176.251 591.54 187.861C590.37 189.571 590.82 192.001 592.44 193.261C594.24 194.521 596.67 194.071 597.84 192.271C605.85 180.031 612.42 163.111 616.56 146.731C630.24 143.941 630.24 149.881 629.88 153.211C626.73 182.821 624.12 186.781 612.78 180.751C610.8 179.671 608.46 180.391 607.47 182.281C606.39 184.261 607.11 186.691 609 187.681C621.42 193.981 629.79 190.741 633.39 178.231C634.65 173.821 636.81 163.381 637.53 153.931C638.07 148.171 636.99 136.561 618.27 138.991ZM665.25 171.751C662.01 161.671 653.73 147.001 647.25 139.261C645.63 137.371 642.84 137.191 640.86 138.811C639.15 140.251 638.97 142.861 640.59 144.661C647.07 151.591 653.91 162.661 657.15 174.451C657.78 176.701 660.12 178.051 662.37 177.331C664.71 176.431 666.06 173.911 665.25 171.751Z" stroke="white" stroke-width="14" mask="url(#path-1-outside-1_495:883)"/>
<path d="M715.65 178.591C717.81 178.591 719.43 176.881 719.34 174.811C719.16 156.091 730.95 162.391 736.8 147.991C740.94 137.461 734.55 121.801 716.73 121.801C697.02 121.801 689.46 148.981 702.33 148.981C705.48 148.981 708.09 146.281 708.09 143.221C708.09 141.151 707.01 139.261 705.21 138.181C706.2 133.231 710.97 129.721 717 129.721C727.53 129.721 730.59 137.101 729.96 141.871C728.43 154.831 711.96 151.501 711.78 174.811C711.78 176.881 713.58 178.591 715.65 178.591ZM715.65 195.061C719.07 195.061 721.86 192.271 721.86 188.941C721.86 185.521 719.07 182.731 715.65 182.731C712.32 182.731 709.44 185.521 709.44 188.941C709.44 192.271 712.23 195.061 715.65 195.061Z" stroke="white" stroke-width="14" mask="url(#path-1-outside-1_495:883)"/>
</svg>
