<svg width="790" height="63" viewBox="0 0 790 63" fill="none" xmlns="http://www.w3.org/2000/svg">
<path d="M0 37C0 34.2386 2.23858 32 5 32H785C787.761 32 790 34.2386 790 37V53C790 55.7614 787.761 58 785 58H5C2.23858 58 0 55.7614 0 53V37Z" fill="#F0FFC6"/>
<path d="M43.084 45.32C48.376 45.32 53.752 44.858 55.432 38.978C56.146 36.626 56.692 33.098 56.818 31.544C57.49 24.278 54.424 20.54 47.788 20.54H38.002C33.508 20.54 28.888 23.27 29.098 28.646C29.14 32.342 29.644 36.584 30.442 39.062C31.702 43.598 35.314 45.362 43.084 45.32ZM43.084 41.624C35.44 41.54 34.726 40.364 33.928 37.928C33.592 36.794 32.92 33.518 32.794 28.604C32.794 25.79 34.642 24.278 38.086 24.278L47.83 24.236C52.828 24.236 54.004 26.798 52.576 34.694C51.568 40.49 51.148 41.708 43.084 41.624ZM98.104 33.308C99.112 33.308 99.952 32.51 99.952 31.46C99.952 30.452 99.112 29.612 98.104 29.612H71.896C70.888 29.612 70.048 30.41 70.048 31.46C70.048 32.468 70.888 33.308 71.896 33.308H98.104ZM124.312 28.52C125.11 27.638 125.068 26.294 124.228 25.58C122.128 23.774 118.516 21.8 114.82 21.296C113.728 21.17 112.762 21.968 112.636 23.102C112.51 24.152 113.266 25.076 114.316 25.244C117.172 25.706 119.692 26.84 121.54 28.52C122.338 29.276 123.598 29.276 124.312 28.52ZM114.862 46.118C125.488 43.85 136.366 36.332 142.54 28.142C143.212 27.26 143.002 26 142.162 25.286C141.28 24.614 140.062 24.782 139.39 25.664C132.25 35.24 121.792 40.448 114.358 42.212C113.266 42.464 112.552 43.472 112.678 44.522C112.804 45.572 113.812 46.328 114.862 46.118ZM183.742 42.254C181.894 40.952 179.542 39.818 177.022 38.978C177.022 35.618 176.812 31.334 176.518 27.302C178.576 27.176 180.424 27.008 181.936 26.882C182.902 26.756 183.658 25.874 183.616 24.908C183.532 23.9 182.692 23.186 181.684 23.27C180.088 23.438 178.24 23.564 176.224 23.69C175.972 20.834 175.678 18.272 175.384 16.508C175.216 15.5 174.25 14.828 173.284 14.996C172.318 15.122 171.646 16.046 171.814 17.012C172.108 18.734 172.36 21.17 172.612 23.858C169.126 24.026 165.514 24.11 162.28 24.068C161.272 24.068 160.432 24.866 160.432 25.874C160.432 26.882 161.23 27.722 162.238 27.722C165.766 27.722 169.462 27.638 172.906 27.47C173.158 31.124 173.368 34.904 173.368 38.012C167.53 36.878 161.986 37.718 161.65 42.296C161.398 45.53 164.716 48.008 169.252 48.008C173.452 48.008 176.098 46.076 176.77 42.59C178.45 43.262 180.046 44.144 181.558 45.236C182.398 45.782 183.532 45.656 184.12 44.858C184.708 43.976 184.582 42.842 183.742 42.254ZM158.29 15.5C157.324 15.206 156.274 15.71 155.98 16.676C153.418 25.37 153.25 37.088 155.644 46.454C155.896 47.462 156.862 48.008 157.87 47.714C158.794 47.42 159.34 46.412 159.088 45.446C156.442 35.198 157.702 24.026 159.466 17.81C159.718 16.844 159.214 15.836 158.29 15.5ZM169.252 44.354C164.758 44.354 163.414 40.952 169 41.12C170.47 41.162 171.856 41.288 173.242 41.582C172.99 43.598 171.898 44.354 169.252 44.354ZM228.304 45.95C221.374 41.96 213.814 30.242 213.352 19.238V17.054C213.352 15.542 212.092 14.282 210.58 14.282H202.642C201.634 14.282 200.836 15.122 200.836 16.13C200.836 17.138 201.676 17.936 202.642 17.936H209.656V18.104C209.32 31.838 201.592 41.372 193.57 45.782C192.688 46.286 192.268 47.294 192.52 48.26C192.814 49.226 193.864 49.73 194.746 49.352C201.676 46.286 208.48 38.264 211.504 28.856C214.528 37.886 220.744 46.454 227.212 49.478C228.094 49.898 229.144 49.352 229.396 48.386C229.648 47.462 229.186 46.454 228.304 45.95ZM257.872 29.78V27.008C257.872 26 257.074 25.202 256.066 25.202C255.1 25.202 254.302 26.042 254.302 27.008V29.78H243.256C243.004 29.78 242.752 29.864 242.5 29.948C242.626 28.226 242.668 26.504 242.668 24.824H265.978C267.49 24.824 268.75 23.564 268.75 22.052V16.508C268.75 14.954 267.49 13.736 265.978 13.736H241.786C240.274 13.736 239.014 14.996 239.014 16.508V23.522C239.014 33.35 237.838 42.002 235.78 47.042C235.36 48.05 235.864 49.1 236.83 49.436C237.88 49.73 239.014 49.226 239.35 48.176C240.904 43.64 241.828 38.306 242.332 32.846C242.584 33.014 242.92 33.14 243.256 33.14H254.302V37.004H248.338C246.784 37.004 245.566 38.264 245.566 39.776V46.58C245.566 48.134 246.826 49.352 248.338 49.352H264.214C265.768 49.352 266.986 48.092 266.986 46.58V39.776C266.986 38.222 265.726 37.004 264.214 37.004H257.872V33.14H269.128C270.052 33.14 270.808 32.426 270.808 31.46C270.808 30.578 270.094 29.78 269.128 29.78H257.872ZM265.054 17.306V21.254H242.71V17.306H265.054ZM249.136 45.866V40.49H263.374V45.866H249.136ZM302.35 25.034C305.248 22.472 307.726 19.7 309.574 16.886C310.12 16.004 309.784 14.87 308.818 14.45C307.894 13.988 306.802 14.324 306.214 15.206C303.988 18.524 300.712 21.926 296.68 25.034H294.538V21.17H300.04C301.048 21.17 301.846 20.33 301.846 19.364C301.846 18.356 301.006 17.558 300.04 17.558H294.538V14.744C294.538 13.736 293.74 12.896 292.732 12.896C291.724 12.896 290.884 13.736 290.884 14.744V17.558H283.828C282.82 17.558 282.022 18.398 282.022 19.364C282.022 20.372 282.862 21.17 283.828 21.17H290.884V25.034H279.124C278.116 25.034 277.318 25.874 277.318 26.84C277.318 27.848 278.158 28.646 279.124 28.646H291.346C287.356 31.082 282.862 33.182 277.99 34.778C276.982 35.072 276.436 36.08 276.646 37.088C276.856 38.096 277.864 38.642 278.83 38.348C281.308 37.55 283.87 36.584 286.348 35.408V46.58C286.348 48.134 287.608 49.352 289.12 49.352H304.744C306.298 49.352 307.516 48.092 307.516 46.58V34.316C307.516 32.804 306.298 31.544 304.744 31.544H293.53C295 30.62 296.47 29.654 297.856 28.646H310.876C311.842 28.646 312.682 27.848 312.682 26.84C312.682 25.832 311.842 25.034 310.876 25.034H302.35ZM289.96 38.6V35.156H303.904V38.6H289.96ZM289.96 42.128H303.904V45.782H289.96V42.128ZM338.68 46.202C350.272 44.648 353.968 35.534 352.036 28.73C348.886 17.726 332.674 16.088 325.282 26.084C320.368 32.804 320.746 42.296 326.08 43.556C331.75 44.9 337.042 34.61 339.478 23.144C344.518 23.228 348.55 26.924 348.76 31.67C349.012 37.466 345.19 41.33 338.134 42.422C337.126 42.59 336.412 43.514 336.58 44.522C336.706 45.572 337.672 46.328 338.68 46.202ZM325.87 39.104C323.98 35.954 326.374 25.202 335.572 23.396C333.808 31.922 328.306 43.22 325.87 39.104ZM363.712 24.236C364.72 24.236 365.518 23.396 365.518 22.388V19.322H392.062V22.388C392.062 23.396 392.86 24.236 393.868 24.236C394.876 24.236 395.716 23.438 395.716 22.388V18.65C395.716 17.096 394.456 15.878 392.944 15.878H380.806V14.324C380.806 13.316 379.966 12.518 379 12.518C377.992 12.518 377.194 13.358 377.194 14.324V15.878H364.636C363.124 15.878 361.864 17.138 361.864 18.65V22.388C361.864 23.396 362.704 24.236 363.712 24.236ZM396.43 43.64C393.616 41.54 391.348 39.062 389.584 36.332C391.684 35.198 393.868 33.476 395.632 31.502C396.304 30.746 396.262 29.528 395.506 28.73C394.834 28.016 393.7 28.1 393.028 28.856C391.39 30.83 389.374 32.342 387.736 33.266C386.476 30.788 385.51 28.226 384.838 25.748H389.668C390.634 25.748 391.432 24.95 391.432 23.984C391.432 23.018 390.634 22.22 389.668 22.22H368.332C367.366 22.22 366.568 23.018 366.568 23.984C366.568 24.95 367.366 25.748 368.332 25.748H374.296C371.734 27.47 367.954 29.066 364.048 30.032C363.04 30.284 362.368 31.25 362.578 32.258C362.746 33.308 363.754 33.938 364.72 33.686C367.618 32.93 371.524 31.544 374.884 29.612C375.346 30.284 375.766 31.082 376.186 31.838C373.162 34.022 368.038 36.248 363.208 37.382C362.242 37.592 361.612 38.558 361.78 39.524C361.99 40.532 362.956 41.162 363.922 40.952C368.71 39.902 374.212 37.466 377.782 35.114C378.118 35.87 378.412 36.584 378.706 37.298C374.758 40.322 368.71 42.8 362.746 43.892C361.78 44.102 361.108 44.984 361.234 45.992C361.402 46.958 362.326 47.63 363.292 47.462C369.97 46.286 376.018 43.556 379.966 40.784C380.344 41.96 380.596 42.884 380.68 43.472C380.974 45.53 379.714 46.202 375.598 46.16C374.59 46.118 373.75 46.916 373.75 47.882C373.708 48.89 374.506 49.73 375.514 49.772C381.982 49.94 384.88 47.672 384.208 43.01C383.788 39.902 380.89 32.468 377.866 27.596C378.58 27.008 379.21 26.378 379.756 25.748H381.016C383.284 34.19 387.862 41.54 394.162 46.664C395.002 47.336 396.22 47.21 396.85 46.328C397.48 45.488 397.27 44.27 396.43 43.64ZM408.358 25.874C408.358 26.882 409.156 27.638 410.122 27.638C411.088 27.638 411.886 26.882 411.886 25.874V18.146C412.768 17.264 413.608 16.382 414.28 15.542C414.91 14.786 414.7 13.652 413.818 13.148C413.02 12.602 411.886 12.854 411.298 13.652C409.408 16.088 406.384 18.65 403.738 20.162C402.898 20.624 402.52 21.632 402.856 22.514C403.234 23.396 404.284 23.816 405.082 23.354C406.132 22.808 407.266 22.052 408.358 21.212V25.874ZM418.438 18.02L423.268 17.684V19.112H414.028C413.146 19.112 412.39 19.826 412.39 20.708C412.39 21.632 413.146 22.346 414.028 22.346H423.268V23.942H416.506C415.624 23.942 414.868 24.656 414.868 25.58C414.868 26.42 415.624 27.176 416.506 27.176H434.314C435.196 27.176 435.91 26.462 435.91 25.58C435.91 24.656 435.196 23.942 434.314 23.942H426.88V22.346H436.372C437.254 22.346 438.01 21.632 438.01 20.708C438.01 19.826 437.254 19.112 436.372 19.112H426.88V17.348C429.022 17.138 431.038 16.928 432.466 16.718C433.39 16.592 434.02 15.752 433.894 14.828C433.768 13.904 432.886 13.316 432.004 13.442C428.392 13.946 421.546 14.492 418.228 14.702C417.304 14.744 416.59 15.542 416.674 16.466C416.716 17.348 417.514 18.062 418.438 18.02ZM436.246 45.992C434.188 45.656 432.382 45.236 430.744 44.69C432.13 44.522 433.222 43.304 433.222 41.918V30.998C433.222 29.444 431.962 28.226 430.45 28.226H411.592C410.038 28.226 408.82 29.486 408.82 30.998V41.918C408.82 43.388 409.954 44.564 411.382 44.69C409.744 45.236 407.938 45.656 405.922 45.95C404.956 46.118 404.284 47 404.452 47.966C404.62 48.974 405.502 49.688 406.51 49.562C409.492 49.142 412.768 48.134 414.952 47.21C415.96 46.832 416.464 45.74 416.128 44.69H425.872C425.536 45.656 425.956 46.706 426.88 47.084C429.4 48.302 432.844 49.184 435.532 49.604C436.54 49.73 437.506 49.058 437.716 48.05C437.926 47.084 437.254 46.16 436.246 45.992ZM429.61 32.636H412.348V31.46H429.61V32.636ZM412.348 35.87H429.61V37.046H412.348V35.87ZM412.348 40.28H429.61V41.456H412.348V40.28ZM474.046 43.43C470.686 44.354 466.192 44.144 463.294 40.364C459.262 35.114 462.622 27.218 470.77 22.094C472.576 21.674 474.256 21.17 475.852 20.582C476.818 20.204 477.28 19.112 476.902 18.146C476.482 17.222 475.432 16.76 474.466 17.096C467.536 19.616 459.388 20.498 450.274 19.784C449.266 19.7 448.342 20.456 448.216 21.464C448.132 22.514 448.888 23.438 449.896 23.48C454.852 23.9 459.724 23.816 464.26 23.27C456.826 29.99 457.12 38.012 460.018 42.17C463.084 46.622 469.006 48.638 474.802 47.168C475.852 46.916 476.482 45.824 476.272 44.732C476.062 43.724 475.054 43.136 474.046 43.43ZM481.27 28.226C480.304 25.916 479.338 24.488 477.7 23.018C477.196 22.556 476.398 22.598 475.894 23.06C475.432 23.564 475.432 24.32 475.936 24.824C477.28 26.084 478.246 27.512 478.918 29.276C479.17 29.948 479.926 30.284 480.598 29.99C481.228 29.696 481.564 28.94 481.27 28.226ZM474.34 24.656C473.794 24.152 472.912 24.236 472.45 24.782C471.946 25.286 472.03 26.126 472.576 26.588C473.92 27.806 474.76 29.066 475.432 30.83C475.684 31.544 476.44 31.88 477.112 31.586C477.784 31.292 478.162 30.494 477.868 29.78C476.944 27.638 475.852 26.042 474.34 24.656ZM497.986 41.372C498.952 41.834 500.128 41.456 500.548 40.49C502.312 36.626 503.026 31.964 503.32 26.798H506.89C506.848 26.798 506.806 26.84 506.764 26.84C505.798 27.218 505.378 28.31 505.798 29.192C506.89 31.544 508.276 33.686 509.83 35.618C507.562 37.466 504.832 38.978 501.556 40.07C500.59 40.406 500.086 41.456 500.464 42.38C500.8 43.346 501.892 43.85 502.858 43.514C506.512 42.254 509.662 40.49 512.266 38.222C514.954 40.868 517.936 42.758 520.708 43.682C521.632 44.018 522.64 43.472 522.934 42.464C523.228 41.582 522.682 40.574 521.758 40.238C519.154 39.23 516.802 37.634 514.828 35.702C517.18 33.014 518.944 29.78 520.078 26.042C520.498 24.698 519.448 23.312 517.978 23.312H503.446C503.488 21.59 503.488 19.868 503.488 18.062L520.624 18.02C521.59 18.02 522.388 17.222 522.388 16.214C522.388 15.248 521.59 14.45 520.624 14.45H502.606C501.052 14.45 499.834 15.71 499.834 17.222C499.834 29.612 499.204 34.778 497.188 38.936C496.726 39.86 497.104 40.952 497.986 41.372ZM488.494 18.398C490.594 18.86 492.946 19.658 494.752 20.414C495.676 20.792 496.684 20.288 496.936 19.364C497.146 18.314 496.642 17.264 495.676 16.844C493.534 16.004 491.14 15.29 489.25 14.87C488.242 14.66 487.318 15.29 487.108 16.256C486.94 17.222 487.57 18.188 488.494 18.398ZM512.434 33.056C511.132 31.418 510.04 29.612 509.2 27.848C508.948 27.302 508.486 26.966 507.94 26.798H516.088C515.164 29.15 513.946 31.25 512.434 33.056ZM505.84 45.572C500.8 45.572 497.776 44.144 495.676 40.784V30.704C495.676 29.192 494.416 27.932 492.904 27.932H488.83C487.822 27.932 487.024 28.73 487.024 29.738C487.024 30.704 487.822 31.544 488.83 31.544H491.98V40.952C490.846 42.884 488.998 44.774 487.528 46.034C486.73 46.664 486.478 47.714 486.898 48.554C487.36 49.478 488.452 49.772 489.25 49.226C490.762 48.134 492.652 46.328 493.954 44.606C496.6 47.672 500.632 49.268 505.84 49.268H521.17C522.178 49.268 522.976 48.428 522.976 47.42C522.976 46.412 522.178 45.572 521.17 45.572H505.84ZM564.01 28.478C560.524 27.596 557.29 26.672 554.392 25.202C556.324 23.648 557.962 21.926 559.222 20.078H562.876C563.842 20.078 564.64 19.28 564.64 18.314C564.64 17.348 563.842 16.55 562.876 16.55H553.132V14.366C553.132 13.4 552.334 12.56 551.368 12.56C550.36 12.56 549.562 13.358 549.562 14.366V16.55H539.818C538.852 16.55 538.054 17.348 538.054 18.314C538.054 19.28 538.852 20.078 539.818 20.078H543.43C543.43 20.12 543.472 20.12 543.472 20.162C544.858 22.178 546.412 23.858 548.05 25.202C545.53 26.504 542.632 27.554 539.482 28.268C538.516 28.478 537.886 29.444 538.096 30.368C538.306 31.376 539.272 31.964 540.196 31.754C541.162 31.544 542.128 31.25 543.052 30.998C542.8 38.6 541.414 43.136 538.18 46.748C537.55 47.42 537.55 48.512 538.18 49.184C538.852 49.898 539.944 49.982 540.616 49.31C542.506 47.546 543.892 45.236 544.858 42.296H556.114V47.84C556.114 48.848 556.954 49.646 557.92 49.646C558.928 49.646 559.726 48.806 559.726 47.84V31.04C560.818 31.376 561.952 31.712 563.128 32.006C564.094 32.258 565.102 31.67 565.312 30.704C565.564 29.696 564.934 28.73 564.01 28.478ZM530.746 17.726C532.216 18.188 533.644 18.734 534.82 19.322C535.786 19.742 536.836 19.28 537.13 18.314C537.424 17.264 536.92 16.172 535.954 15.752C534.61 15.206 533.056 14.66 531.67 14.24C530.746 13.946 529.738 14.534 529.486 15.542C529.234 16.466 529.822 17.432 530.746 17.726ZM554.77 20.078C553.762 21.212 552.586 22.304 551.242 23.27C549.982 22.346 548.848 21.338 547.798 20.078H554.77ZM534.442 29.276C535.324 29.78 536.458 29.36 536.794 28.394C537.13 27.344 536.668 26.21 535.702 25.79C534.19 25.118 532.468 24.446 531.04 24.026C530.074 23.732 529.066 24.362 528.772 25.328C528.52 26.252 529.066 27.218 530.032 27.512C531.586 27.974 533.14 28.646 534.442 29.276ZM556.114 31.964H546.58C546.58 31.334 546.622 30.704 546.622 30.032V29.696C548.218 29.024 549.73 28.268 551.158 27.428C552.754 28.394 554.476 29.192 556.24 29.864C556.156 30.074 556.114 30.284 556.114 30.494V31.964ZM535.996 32.468C535.072 32.216 534.106 32.846 533.98 33.812C533.14 38.894 531.208 43.724 529.486 47.336C529.024 48.176 529.444 49.226 530.368 49.562C531.292 49.898 532.384 49.478 532.804 48.596C534.61 44.858 536.5 39.86 537.424 34.736C537.634 33.728 537.004 32.762 535.996 32.468ZM545.782 38.768C545.992 37.718 546.16 36.626 546.286 35.492H556.114V38.768H545.782ZM582.448 45.32C588.16 50.318 596.812 47.882 602.398 39.902C603.028 39.02 602.86 37.76 602.02 37.004C601.264 36.332 600.088 36.458 599.458 37.298C594.25 44.438 588.034 46.286 584.212 41.918C581.692 39.104 581.398 33.518 583.078 23.984C583.792 19.994 583.582 17.852 582.196 15.584C581.692 14.702 580.516 14.45 579.592 14.954C578.752 15.416 578.542 16.508 579.088 17.348C580.012 18.818 580.138 20.12 579.55 23.312C577.45 34.82 578.332 41.75 582.448 45.32ZM638.77 22.094C640.576 21.674 642.256 21.17 643.852 20.582C644.818 20.204 645.28 19.112 644.902 18.146C644.482 17.222 643.432 16.76 642.466 17.096C635.536 19.616 627.388 20.498 618.274 19.784C617.266 19.7 616.342 20.456 616.216 21.464C616.132 22.514 616.888 23.438 617.896 23.48C622.852 23.9 627.724 23.816 632.26 23.27C624.826 29.99 625.12 38.012 628.018 42.17C631.084 46.622 637.006 48.638 642.802 47.168C643.852 46.916 644.482 45.824 644.272 44.732C644.062 43.724 643.054 43.136 642.046 43.43C638.686 44.354 634.192 44.144 631.294 40.364C627.262 35.114 630.622 27.218 638.77 22.094ZM666.994 44.858C670.06 44.858 672.076 42.926 672.958 39.062C673.21 38.096 672.454 37.088 671.404 36.92C670.354 36.836 669.43 37.55 669.22 38.6C667.498 46.37 656.956 35.072 662.71 22.094C663.088 21.17 662.668 20.12 661.744 19.7C660.82 19.28 659.728 19.7 659.308 20.624C654.142 32.678 660.694 44.858 666.994 44.858ZM686.65 36.92C687.784 37.088 688.792 36.29 688.834 35.24C689.296 28.856 684.634 23.942 679.678 22.598C678.628 22.304 677.536 23.018 677.242 24.152C677.032 25.118 677.704 26.168 678.712 26.462C682.66 27.512 684.928 30.578 684.886 34.778C684.886 35.87 685.642 36.794 686.65 36.92ZM720.124 48.26C721.09 47.84 721.594 46.706 721.216 45.698C718.822 39.566 716.05 35.912 712.816 32.426C710.674 30.074 710.632 30.116 712.69 27.806C715.504 24.74 717.898 21.968 720.334 16.466C720.754 15.5 720.292 14.324 719.326 13.904C718.36 13.442 717.226 13.904 716.806 14.87C712.564 24.446 707.398 26.378 707.398 29.78C707.398 34.148 712.102 34.232 717.604 47.21C717.982 48.176 719.116 48.68 720.124 48.26ZM757 40.616C757.924 40.616 758.638 39.86 758.638 38.978L759.184 16.55C759.226 15.332 758.218 14.324 757 14.324C755.782 14.324 754.774 15.332 754.816 16.55L755.362 38.978C755.362 39.86 756.076 40.616 757 40.616ZM757 48.428C758.596 48.428 759.898 47.126 759.898 45.572C759.898 43.976 758.596 42.674 757 42.674C755.446 42.674 754.102 43.976 754.102 45.572C754.102 47.168 755.446 48.428 757 48.428Z" fill="#E26956"/>
</svg>
