<svg width="707" height="126" viewBox="0 0 707 126" fill="none" xmlns="http://www.w3.org/2000/svg">
<path d="M0 37C0 34.2386 2.23858 32 5 32H702C704.761 32 707 34.2386 707 37V53C707 55.7614 704.761 58 702 58H5.00001C2.23859 58 0 55.7614 0 53V37Z" fill="#F0FFC6"/>
<path d="M0 102C0 99.2386 2.23858 97 5 97H534C536.761 97 539 99.2386 539 102V118C539 120.761 536.761 123 534 123H5.00001C2.23858 123 0 120.761 0 118V102Z" fill="#F0FFC6"/>
<path d="M43.294 18.566C43.966 17.348 44.47 16.004 44.848 14.492C45.1 13.484 44.47 12.476 43.42 12.266C42.454 12.014 41.488 12.686 41.236 13.652C40.816 15.374 39.976 17.138 38.926 18.566H33.088C31.576 18.566 30.316 19.826 30.316 21.338V46.37C30.316 47.882 31.576 49.142 33.088 49.142H53.164C54.718 49.142 55.936 47.882 55.936 46.37V21.338C55.936 19.826 54.676 18.566 53.164 18.566H43.294ZM52.282 27.512H33.97V22.178H52.282V27.512ZM52.282 31.082V36.416H33.97V31.082H52.282ZM33.97 39.986H52.282V45.53H33.97V39.986ZM102.472 26.084C97.264 21.968 94.366 17.684 92.14 14.03C91.594 13.106 90.46 12.644 89.41 12.98C88.444 13.316 87.982 14.45 88.486 15.332C91.3 20.204 96.088 26.252 100.33 29.444C101.212 30.074 102.43 29.822 103.018 28.898C103.564 27.974 103.354 26.756 102.472 26.084ZM69.376 29.36C73.87 26.042 78.406 20.792 81.178 15.668C81.682 14.786 81.262 13.694 80.296 13.316C79.372 12.938 78.28 13.316 77.776 14.198C75.382 18.356 71.686 22.808 67.654 25.874C66.772 26.546 66.478 27.722 66.898 28.688C67.36 29.654 68.536 29.948 69.376 29.36ZM74.458 27.932C73.45 27.932 72.652 28.772 72.652 29.78C72.652 30.746 73.45 31.586 74.458 31.586H81.472C80.044 38.222 75.676 43.136 69.082 45.53C68.032 45.908 67.444 46.958 67.696 48.008C67.948 49.1 69.04 49.73 70.048 49.394C77.818 46.874 83.95 39.692 85.294 31.586H93.4C93.232 36.962 92.728 41.414 92.35 43.346C91.846 45.908 90.04 45.95 87.268 45.53C86.218 45.362 85.252 46.076 85.126 47.084C84.958 48.134 85.672 49.1 86.722 49.268C92.056 49.94 95.122 48.26 95.962 44.144C96.508 41.54 96.97 36.248 97.096 30.746C97.138 29.192 95.92 27.932 94.366 27.932H74.458ZM128.68 46.202C140.272 44.648 143.968 35.534 142.036 28.73C138.886 17.726 122.674 16.088 115.282 26.084C110.368 32.804 110.746 42.296 116.08 43.556C121.75 44.9 127.042 34.61 129.478 23.144C134.518 23.228 138.55 26.924 138.76 31.67C139.012 37.466 135.19 41.33 128.134 42.422C127.126 42.59 126.412 43.514 126.58 44.522C126.706 45.572 127.672 46.328 128.68 46.202ZM115.87 39.104C113.98 35.954 116.374 25.202 125.572 23.396C123.808 31.922 118.306 43.22 115.87 39.104ZM170.932 29.318V28.142C174.838 26 179.038 21.758 181.432 17.39C182.062 16.172 181.138 14.744 179.752 14.744H157.996C156.946 14.744 156.148 15.584 156.148 16.55C156.148 17.6 156.988 18.398 157.996 18.398H176.392C174.838 20.624 172.78 22.598 170.26 24.278C169.924 24.026 169.504 23.858 169.084 23.858C168.076 23.858 167.236 24.698 167.236 25.706V29.318H152.83C151.822 29.318 151.024 30.158 151.024 31.166C151.024 32.174 151.822 32.972 152.83 32.972H167.236V44.144C167.236 45.614 166.48 45.908 161.566 45.698C160.558 45.656 159.676 46.454 159.634 47.462C159.634 48.47 160.39 49.352 161.44 49.436C168.286 49.772 170.932 48.344 170.932 44.144V32.972H185.17C186.178 32.972 186.976 32.132 186.976 31.166C186.976 30.116 186.178 29.318 185.17 29.318H170.932ZM204.28 14.912C204.49 13.904 203.818 12.98 202.81 12.812C201.802 12.644 200.836 13.316 200.584 14.282C199.156 20.498 196.678 25.538 193.318 29.108C192.562 29.906 192.478 31.04 193.066 31.88C193.654 32.72 194.872 32.846 195.544 32.132C196.048 31.628 196.552 31.082 197.014 30.494V47.84C197.014 48.806 197.812 49.646 198.82 49.646C199.828 49.646 200.668 48.806 200.668 47.84V24.824C202.432 21.422 203.65 17.852 204.28 14.912ZM203.188 23.06C203.188 24.026 204.028 24.866 205.036 24.866H208.648V34.736H203.398C202.39 34.736 201.592 35.576 201.592 36.542C201.592 37.508 202.39 38.348 203.398 38.348H227.17C228.136 38.348 228.976 37.55 228.976 36.542C228.976 35.576 228.178 34.736 227.17 34.736H221.92V24.866H225.7C226.708 24.866 227.506 24.026 227.506 23.06C227.506 22.094 226.708 21.254 225.7 21.254H221.92V14.702C221.92 13.694 221.122 12.854 220.114 12.854C219.106 12.854 218.266 13.652 218.266 14.702V21.254H212.302V14.702C212.302 13.694 211.462 12.854 210.454 12.854C209.446 12.854 208.648 13.694 208.648 14.702V21.254H205.036C204.028 21.254 203.188 22.052 203.188 23.06ZM218.266 34.736H212.302V24.866H218.266V34.736ZM227.968 45.824C225.7 44.69 223.39 42.632 221.752 40.238C221.164 39.398 220.03 39.146 219.19 39.692C218.308 40.322 218.056 41.498 218.644 42.38C220.786 45.488 223.978 48.176 226.876 49.352C227.8 49.688 228.808 49.142 229.102 48.134C229.354 47.252 228.892 46.244 227.968 45.824ZM211.294 39.986C210.496 39.44 209.404 39.65 208.816 40.448C207.01 42.842 204.91 44.69 202.474 45.824C201.55 46.244 201.088 47.252 201.382 48.134C201.718 49.142 202.726 49.646 203.608 49.268C206.632 48.092 209.698 45.572 211.798 42.506C212.386 41.666 212.134 40.532 211.294 39.986ZM248.926 22.262C249.388 20.036 249.766 17.894 249.976 15.836C250.06 14.828 249.304 13.946 248.338 13.862C247.372 13.82 246.49 14.534 246.406 15.5C246.154 17.894 245.776 20.414 245.272 22.934C243.046 23.354 241.45 23.438 239.266 23.228C238.258 23.186 237.376 23.858 237.25 24.824C237.166 25.874 237.88 26.756 238.846 26.798C240.946 26.966 242.626 26.882 244.39 26.63C242.668 33.14 240.022 39.65 236.452 45.068C235.906 45.866 236.116 47 236.872 47.588C237.712 48.176 238.846 47.966 239.392 47.126C243.13 41.414 246.196 33.518 248.128 25.874C254.512 24.572 254.512 27.344 254.344 28.898C252.874 42.716 251.656 44.564 246.364 41.75C245.44 41.246 244.348 41.582 243.886 42.464C243.382 43.388 243.718 44.522 244.6 44.984C250.396 47.924 254.302 46.412 255.982 40.574C256.57 38.516 257.578 33.644 257.914 29.234C258.166 26.546 257.662 21.128 248.926 22.262ZM271.48 19.616C270.472 17.264 269.506 15.836 267.91 14.366C267.364 13.904 266.566 13.946 266.104 14.45C265.6 14.912 265.642 15.71 266.146 16.172C267.49 17.474 268.414 18.902 269.086 20.624C269.38 21.338 270.136 21.632 270.766 21.338C271.438 21.086 271.774 20.288 271.48 19.616ZM265.6 22.22C265.852 22.892 266.65 23.228 267.322 22.934C267.994 22.64 268.33 21.842 268.036 21.128C267.154 19.028 266.02 17.39 264.508 16.004C263.962 15.5 263.122 15.584 262.618 16.13C262.156 16.676 262.24 17.474 262.744 17.978C264.088 19.154 264.928 20.414 265.6 22.22ZM262.45 22.388C261.694 21.506 260.392 21.422 259.468 22.178C258.67 22.85 258.586 24.068 259.342 24.908C262.366 28.142 265.558 33.308 267.07 38.81C267.364 39.86 268.456 40.49 269.506 40.154C270.598 39.734 271.228 38.558 270.85 37.55C269.338 32.846 265.474 26 262.45 22.388ZM310.036 27.68C309.994 26.672 309.196 25.874 308.188 25.874C300.418 25.79 295.336 28.1 288.742 30.578C292.858 27.008 296.092 23.312 298.99 20.162C300.208 18.818 300.376 16.97 299.452 15.752C299.074 15.332 297.562 13.82 294.916 15.542C292.732 16.97 289.33 17.39 285.802 17.684C284.836 17.726 284.08 18.608 284.122 19.574C284.206 20.582 285.088 21.338 286.054 21.254C289.792 20.876 292.732 20.204 294.832 19.322C291.556 23.522 287.44 28.142 281.014 32.594C280.3 33.14 279.922 34.022 280.132 34.862C280.3 35.702 281.14 36.29 281.98 36.08C284.836 35.45 287.692 34.4 290.674 33.266C288.868 35.66 287.818 38.6 288.574 41.792C289.708 46.58 295.588 48.932 304.282 48.134C305.29 48.008 306.088 47.126 306.088 46.076C306.088 45.11 305.206 44.396 304.24 44.522C297.772 45.488 292.9 44.018 292.06 40.868C291.724 39.566 291.346 34.694 297.982 30.788C301.174 29.906 304.576 29.318 308.314 29.402C309.322 29.444 310.078 28.646 310.036 27.68ZM338.68 46.202C350.272 44.648 353.968 35.534 352.036 28.73C348.886 17.726 332.674 16.088 325.282 26.084C320.368 32.804 320.746 42.296 326.08 43.556C331.75 44.9 337.042 34.61 339.478 23.144C344.518 23.228 348.55 26.924 348.76 31.67C349.012 37.466 345.19 41.33 338.134 42.422C337.126 42.59 336.412 43.514 336.58 44.522C336.706 45.572 337.672 46.328 338.68 46.202ZM325.87 39.104C323.98 35.954 326.374 25.202 335.572 23.396C333.808 31.922 328.306 43.22 325.87 39.104ZM378.58 20.162C379.546 20.162 380.302 19.364 380.302 18.44C380.302 17.474 379.504 16.718 378.58 16.718H373.204V14.45C373.204 13.442 372.364 12.644 371.398 12.644C370.432 12.644 369.592 13.442 369.592 14.45V16.718H364.216C363.25 16.718 362.494 17.516 362.494 18.44C362.494 19.406 363.292 20.162 364.216 20.162H378.58ZM391.81 26.588C393.616 24.194 395.338 20.456 396.262 17.054C396.64 15.668 395.548 14.282 394.036 14.282H384.922C383.41 14.282 382.15 15.542 382.15 17.054V47.798C382.15 48.806 382.99 49.646 383.998 49.646C385.006 49.646 385.804 48.806 385.804 47.798V17.81H392.314C391.432 20.498 390.256 22.766 388.618 24.908C387.694 26.126 387.862 27.89 388.996 28.856C391.768 31.25 393.952 33.392 393.952 36.794C393.952 39.734 392.356 41.036 388.618 40.994C387.652 40.994 386.854 41.75 386.896 42.716C386.938 43.724 387.736 44.564 388.702 44.606C394.162 44.69 397.48 41.75 397.48 36.794C397.48 32.552 394.75 28.898 391.81 26.588ZM375.43 28.52C376.438 26.756 377.362 24.782 378.034 22.808C378.37 21.884 377.824 20.876 376.9 20.54C376.018 20.162 375.052 20.666 374.716 21.59C373.792 24.11 372.448 26.756 371.272 28.52H369.634C370.474 28.142 370.852 27.134 370.516 26.294C369.844 24.572 368.962 22.724 368.122 21.212C367.576 20.288 366.4 19.994 365.476 20.498C364.594 20.96 364.384 22.052 364.972 22.892C365.854 24.11 366.736 25.748 367.492 27.638C367.66 28.058 367.954 28.352 368.29 28.52H362.746C361.78 28.52 361.024 29.318 361.024 30.242C361.024 31.166 361.78 31.964 362.746 31.964H380.05C381.016 31.964 381.772 31.166 381.772 30.242C381.772 29.276 380.974 28.52 380.05 28.52H375.43ZM366.526 33.938C364.972 33.938 363.754 35.198 363.754 36.71V46.412C363.754 47.924 364.972 49.184 366.526 49.184H376.312C377.824 49.184 379.084 47.924 379.084 46.412V36.71C379.084 35.198 377.824 33.938 376.312 33.938H366.526ZM367.408 45.572V37.55H375.388V45.572H367.408ZM418.228 29.192C416.716 30.452 414.826 31.628 412.81 32.594C410.71 33.602 411.13 36.71 413.314 36.668C419.362 36.542 426.628 36.038 431.71 35.24C432.004 35.744 432.298 36.29 432.55 36.794C432.97 37.634 433.978 38.012 434.818 37.592C435.658 37.172 436.078 36.122 435.616 35.24C434.734 33.476 433.348 31.376 432.298 30.032C431.668 29.192 430.492 29.024 429.568 29.612C428.77 30.158 428.644 31.292 429.316 32.006C429.358 32.048 429.358 32.09 429.4 32.09C426.25 32.594 422.302 32.972 418.564 33.182C419.782 32.384 421.672 30.914 423.142 29.192H436.204C437.17 29.192 437.968 28.394 437.968 27.47C437.968 26.504 437.17 25.748 436.204 25.748H409.87V23.774H433.474C435.028 23.774 436.246 22.514 436.246 21.002V16.634C436.246 15.08 434.986 13.862 433.474 13.862H409.072C407.518 13.862 406.3 15.122 406.3 16.634V27.05C406.3 31.418 406.132 39.314 403.948 47.168C403.654 48.134 404.284 49.142 405.25 49.352C406.3 49.52 407.308 48.89 407.602 47.882C409.324 41.078 409.744 33.938 409.87 29.192H418.228ZM432.676 17.348V20.288H409.87V17.348H432.676ZM424.654 45.53V42.842H433.558C434.566 42.842 435.364 42.002 435.364 41.036C435.364 40.028 434.524 39.23 433.558 39.23H424.654V38.306C424.654 37.256 423.814 36.458 422.806 36.458C421.798 36.458 420.958 37.298 420.958 38.306V39.23H412.852C411.886 39.23 411.046 40.028 411.046 41.036C411.046 42.002 411.844 42.842 412.852 42.842H420.958V45.53H409.702C408.694 45.53 407.896 46.37 407.896 47.336C407.896 48.302 408.694 49.142 409.702 49.142H436.918C437.884 49.142 438.682 48.302 438.682 47.336C438.682 46.328 437.884 45.53 436.918 45.53H424.654ZM473.29 43.22C460.984 44.648 457.876 44.48 457.078 42.464C456.448 40.574 458.506 38.39 463.504 35.744C463.63 36.878 463.672 38.096 463.714 39.482C463.756 40.49 464.596 41.33 465.604 41.33C466.654 41.33 467.452 40.49 467.452 39.482C467.368 37.046 467.242 35.324 467.032 33.938C470.182 32.384 472.03 31.376 474.928 29.486C475.81 28.898 476.02 27.722 475.432 26.882C474.886 26 473.71 25.79 472.87 26.378C470.308 28.184 468.082 29.486 466.024 30.536C464.806 28.394 462.496 26.966 458.8 27.596C459.472 26.504 460.102 25.328 460.648 24.026C463.294 23.48 465.94 22.766 468.166 21.842C469.09 21.464 469.51 20.372 469.132 19.406C468.754 18.482 467.746 18.062 466.822 18.482C465.352 19.07 463.798 19.616 462.202 20.036C462.538 19.028 462.874 18.02 463.168 16.928C463.42 15.92 462.832 14.912 461.782 14.66C460.774 14.408 459.766 15.038 459.514 16.046C459.052 17.81 458.59 19.448 458.044 20.918C455.776 21.254 453.508 21.464 451.45 21.548C450.442 21.59 449.602 22.388 449.602 23.438C449.602 24.488 450.442 25.286 451.492 25.244C452.836 25.16 454.474 25.034 456.28 24.782C454.978 27.092 453.508 28.898 451.744 30.242C450.904 30.872 450.694 32.006 451.24 32.804C451.786 33.728 452.962 33.98 453.802 33.35C454.096 33.14 454.348 32.93 454.642 32.678C458.632 30.452 461.488 30.326 462.706 32.258C454.852 36.416 452.164 39.734 453.466 43.724C454.348 46.412 457.078 47.714 461.698 47.714C466.99 47.714 471.358 47.378 473.668 47.168C474.76 47.084 475.6 46.076 475.474 44.984C475.39 43.892 474.382 43.094 473.29 43.22ZM497.734 14.912C497.986 13.946 497.314 12.98 496.306 12.812C495.34 12.644 494.374 13.274 494.122 14.24C492.82 19.322 490.468 24.572 487.192 28.394C486.52 29.234 486.478 30.452 487.15 31.25C487.822 32.048 489.082 32.048 489.712 31.25C490.132 30.746 490.51 30.242 490.888 29.738V47.84C490.888 48.806 491.686 49.646 492.694 49.646C493.66 49.646 494.5 48.848 494.5 47.84V23.69C495.97 20.708 497.104 17.6 497.734 14.912ZM521.8 45.866C516.886 45.446 512.686 44.228 509.158 42.212C510.418 40.28 511.216 38.054 511.468 35.492H518.272C519.826 35.492 521.044 34.232 521.044 32.72V25.874C521.044 24.32 519.784 23.102 518.272 23.102H511.594V20.288H521.212C522.178 20.288 522.976 19.532 522.976 18.524C522.976 17.558 522.178 16.76 521.212 16.76H511.594V14.492C511.594 13.526 510.754 12.728 509.788 12.728C508.78 12.728 507.982 13.526 507.982 14.492V16.76H498.826C497.86 16.76 497.062 17.558 497.062 18.524C497.062 19.532 497.86 20.288 498.826 20.288H507.982V23.102H501.346C499.792 23.102 498.574 24.362 498.574 25.874V32.72C498.574 34.232 499.792 35.492 501.346 35.492H507.856C507.604 37.256 507.058 38.81 506.218 40.154C504.874 39.02 503.656 37.802 502.606 36.374C501.976 35.576 500.8 35.366 500.002 35.954C499.12 36.542 498.91 37.718 499.54 38.558C500.716 40.112 502.06 41.54 503.614 42.8C501.85 44.102 499.456 45.026 496.516 45.614C495.55 45.782 494.878 46.706 495.004 47.714C495.172 48.722 496.096 49.394 497.062 49.184C501.094 48.47 504.328 47.042 506.722 44.984C510.964 47.588 516.13 49.226 521.506 49.562C522.514 49.604 523.396 48.806 523.48 47.798C523.564 46.832 522.808 45.95 521.8 45.866ZM507.982 26.63V31.964H502.186V26.63H507.982ZM517.432 31.964H511.594V26.63H517.432V31.964ZM545.824 45.656C563.464 44.732 563.758 26.756 553.258 25.748C546.958 25.16 540.91 30.326 535.576 29.57C534.652 29.402 533.77 29.99 533.602 30.872C533.392 31.88 533.98 32.846 534.946 32.972C542.17 34.064 549.688 27.134 554.686 29.738C559.6 32.342 556.576 41.96 545.614 42.254C544.648 42.254 543.934 43.052 543.976 43.976C544.018 44.984 544.858 45.698 545.824 45.656ZM590.89 23.606C591.772 23.102 592.024 21.926 591.436 21.086C590.848 20.288 589.756 20.036 588.874 20.54C587.992 21.044 587.11 21.422 586.144 21.758C586.396 19.952 586.564 18.188 586.648 16.382C586.69 15.332 585.892 14.492 584.842 14.45C583.834 14.408 582.952 15.248 582.91 16.256C582.784 18.44 582.574 20.582 582.238 22.682C579.928 23.018 577.492 23.06 574.888 22.976C573.88 22.934 573.04 23.732 572.998 24.74C572.956 25.748 573.754 26.588 574.762 26.63C577.072 26.672 579.34 26.588 581.566 26.336C580.18 32.552 577.828 38.474 574.426 44.186C573.922 45.068 574.174 46.202 575.056 46.748C575.938 47.294 577.072 47.042 577.618 46.16C580.936 40.616 583.918 33.35 585.472 25.664C587.446 25.202 589.294 24.53 590.89 23.606ZM589.42 26.924C589.504 27.848 590.386 28.52 591.352 28.394C595.258 27.932 599.08 28.436 602.104 29.78C603.028 30.2 604.12 29.822 604.498 28.94C604.918 27.974 604.498 26.84 603.574 26.42C600.214 24.992 595.426 24.404 591.016 24.908C590.05 25.034 589.336 25.916 589.42 26.924ZM605.632 43.64C605.422 42.674 604.414 42.086 603.448 42.338C598.072 43.808 593.032 43.094 588.748 40.28C587.908 39.734 586.774 39.902 586.228 40.7C585.598 41.54 585.808 42.716 586.648 43.262C591.898 46.79 598.03 47.756 604.246 45.992C605.254 45.698 605.842 44.648 605.632 43.64ZM626.464 48.176C642.046 44.102 643.642 27.89 638.56 15.374C638.182 14.408 637.09 13.946 636.124 14.24C635.158 14.576 634.696 15.626 635.032 16.55C640.366 30.41 636.628 41.624 625.834 44.438C624.784 44.69 624.112 45.698 624.28 46.706C624.448 47.756 625.456 48.428 626.464 48.176ZM626.38 36.458C627.22 35.954 627.514 34.862 627.094 33.938C624.196 27.764 625.834 21.926 626.044 18.23C626.128 17.222 625.288 16.424 624.196 16.424C623.272 16.424 622.474 17.18 622.39 18.23C622.138 21.716 620.752 29.024 623.944 35.786C624.364 36.668 625.456 37.004 626.38 36.458ZM678.838 28.646C677.956 28.1 676.864 28.394 676.318 29.318C675.856 30.158 676.15 31.25 676.99 31.796C680.854 34.19 682.324 36.836 681.82 40.364C681.064 45.194 673.336 46.328 672.496 40.574C672.412 39.986 672.37 39.44 672.328 38.852C673.42 38.894 674.554 38.936 675.814 38.936C676.822 38.936 677.662 38.096 677.704 37.088C677.746 36.08 676.906 35.282 675.898 35.324C674.68 35.366 673.504 35.408 672.37 35.366C672.748 29.528 674.428 23.06 672.286 15.962C671.992 14.954 670.9 14.408 669.892 14.702C668.926 14.996 668.422 16.046 668.674 17.012C670.396 22.976 669.094 29.444 668.632 35.072C665.818 34.652 664.264 33.854 665.482 32.804C666.196 32.174 666.406 31.25 665.944 30.578C665.44 29.738 664.432 29.444 663.634 29.864C660.232 31.712 660.358 35.45 663.844 37.256C664.894 37.802 666.448 38.18 668.506 38.474C668.506 41.078 668.926 43.388 670.228 45.236C673.546 49.898 684.718 49.436 685.6 39.944C686.062 34.652 681.988 30.662 678.838 28.646ZM666.616 27.008C667.54 27.386 668.59 26.882 668.926 25.958C669.22 25.034 668.758 23.984 667.834 23.606C666.406 22.976 664.642 22.094 663.34 21.338C662.416 20.834 661.282 21.128 660.778 22.01C660.274 22.976 660.568 24.152 661.492 24.656C663.046 25.496 665.188 26.42 666.616 27.008ZM54.046 106.43C50.686 107.354 46.192 107.144 43.294 103.364C39.262 98.114 42.622 90.218 50.77 85.094C52.576 84.674 54.256 84.17 55.852 83.582C56.818 83.204 57.28 82.112 56.902 81.146C56.482 80.222 55.432 79.76 54.466 80.096C47.536 82.616 39.388 83.498 30.274 82.784C29.266 82.7 28.342 83.456 28.216 84.464C28.132 85.514 28.888 86.438 29.896 86.48C34.852 86.9 39.724 86.816 44.26 86.27C36.826 92.99 37.12 101.012 40.018 105.17C43.084 109.622 49.006 111.638 54.802 110.168C55.852 109.916 56.482 108.824 56.272 107.732C56.062 106.724 55.054 106.136 54.046 106.43ZM61.27 91.226C60.304 88.916 59.338 87.488 57.7 86.018C57.196 85.556 56.398 85.598 55.894 86.06C55.432 86.564 55.432 87.32 55.936 87.824C57.28 89.084 58.246 90.512 58.918 92.276C59.17 92.948 59.926 93.284 60.598 92.99C61.228 92.696 61.564 91.94 61.27 91.226ZM54.34 87.656C53.794 87.152 52.912 87.236 52.45 87.782C51.946 88.286 52.03 89.126 52.576 89.588C53.92 90.806 54.76 92.066 55.432 93.83C55.684 94.544 56.44 94.88 57.112 94.586C57.784 94.292 58.162 93.494 57.868 92.78C56.944 90.638 55.852 89.042 54.34 87.656ZM97.642 88.034C97.18 87.194 96.088 86.9 95.206 87.404C93.568 88.37 91.72 89.168 89.704 89.798C89.158 88.538 88.528 87.32 87.898 86.102C89.452 85.64 90.838 85.094 92.056 84.422C92.938 83.918 93.316 82.784 92.854 81.86C92.434 80.978 91.342 80.642 90.46 81.104C89.074 81.818 87.646 82.406 86.092 82.868C85.168 81.272 84.16 79.844 83.236 78.668C82.606 77.87 81.43 77.828 80.716 78.542C80.002 79.172 79.96 80.306 80.548 81.104C81.178 81.86 81.766 82.742 82.396 83.708C80.044 84.086 77.398 84.212 74.416 84.128C73.408 84.128 72.568 84.884 72.526 85.892C72.484 86.9 73.282 87.74 74.248 87.74C77.608 87.824 81.094 87.572 84.286 86.984C84.958 88.202 85.588 89.462 86.176 90.722C82.522 91.52 78.322 91.856 73.576 91.73C72.61 91.73 71.77 92.486 71.728 93.494C71.686 94.502 72.442 95.342 73.45 95.384C77.986 95.51 83.026 95.132 87.688 94.082C88.528 96.14 89.284 98.156 89.914 99.962C78.28 95.636 70.762 101.18 71.77 105.842C72.61 109.496 78.658 112.604 91.678 110.126C92.644 109.958 93.232 108.992 93.022 108.026C92.812 107.06 91.804 106.43 90.88 106.64C87.73 107.312 85.714 107.438 83.572 107.438C73.03 107.396 73.744 103.448 78.952 102.062C81.934 101.222 86.344 101.39 90.964 103.7C91.72 104.078 92.56 104.078 93.274 103.7C93.988 103.364 94.366 102.524 94.156 101.768C93.526 99.29 92.476 96.266 91.174 93.158C93.316 92.444 95.332 91.604 97.012 90.596C97.894 90.092 98.146 88.916 97.642 88.034ZM126.412 111.092C136.114 111.092 142.708 104.498 140.398 97.148C138.676 91.562 131.158 89 121.792 93.83C124.648 89.798 127.462 86.522 131.284 83.12C132.082 82.406 132.334 81.272 131.914 80.306C131.494 79.382 130.402 78.92 129.436 79.256C126.034 80.39 122.506 80.516 118.264 80.264C117.256 80.222 116.374 80.978 116.29 81.986C116.248 83.036 117.004 83.918 118.012 83.96C120.742 84.086 123.934 83.96 126.034 83.582C121.918 87.824 117.886 93.242 114.19 98.786C113.728 99.5 113.938 100.466 114.652 100.928C115.366 101.39 116.332 101.306 117.004 100.76C122.296 96.014 126.832 94.124 131.662 94.67C136.954 95.3 138.382 100.046 136.156 103.28C135.022 104.876 133.216 106.178 130.99 106.934C125.74 100.592 121.876 99.29 119.608 103.322C118.138 105.884 118.852 111.092 126.412 111.092ZM127.504 107.648C124.9 107.774 122.884 107.102 122.38 105.884C121.96 104.582 123.304 102.692 127.504 107.648ZM170.68 109.202C182.272 107.648 185.968 98.534 184.036 91.73C180.886 80.726 164.674 79.088 157.282 89.084C152.368 95.804 152.746 105.296 158.08 106.556C163.75 107.9 169.042 97.61 171.478 86.144C176.518 86.228 180.55 89.924 180.76 94.67C181.012 100.466 177.19 104.33 170.134 105.422C169.126 105.59 168.412 106.514 168.58 107.522C168.706 108.572 169.672 109.328 170.68 109.202ZM157.87 102.104C155.98 98.954 158.374 88.202 167.572 86.396C165.808 94.922 160.306 106.22 157.87 102.104ZM222.046 106.43C218.686 107.354 214.192 107.144 211.294 103.364C207.262 98.114 210.622 90.218 218.77 85.094C220.576 84.674 222.256 84.17 223.852 83.582C224.818 83.204 225.28 82.112 224.902 81.146C224.482 80.222 223.432 79.76 222.466 80.096C215.536 82.616 207.388 83.498 198.274 82.784C197.266 82.7 196.342 83.456 196.216 84.464C196.132 85.514 196.888 86.438 197.896 86.48C202.852 86.9 207.724 86.816 212.26 86.27C204.826 92.99 205.12 101.012 208.018 105.17C211.084 109.622 217.006 111.638 222.802 110.168C223.852 109.916 224.482 108.824 224.272 107.732C224.062 106.724 223.054 106.136 222.046 106.43ZM229.27 91.226C228.304 88.916 227.338 87.488 225.7 86.018C225.196 85.556 224.398 85.598 223.894 86.06C223.432 86.564 223.432 87.32 223.936 87.824C225.28 89.084 226.246 90.512 226.918 92.276C227.17 92.948 227.926 93.284 228.598 92.99C229.228 92.696 229.564 91.94 229.27 91.226ZM222.34 87.656C221.794 87.152 220.912 87.236 220.45 87.782C219.946 88.286 220.03 89.126 220.576 89.588C221.92 90.806 222.76 92.066 223.432 93.83C223.684 94.544 224.44 94.88 225.112 94.586C225.784 94.292 226.162 93.494 225.868 92.78C224.944 90.638 223.852 89.042 222.34 87.656ZM269.716 88.202C265.894 87.614 260.56 85.976 258.88 83.078C258.922 82.7 258.922 82.28 258.922 81.692H265.348C265.138 82.154 264.886 82.574 264.592 82.952C264.046 83.75 264.298 84.8 265.138 85.22C266.104 85.682 267.238 85.388 267.784 84.548C268.456 83.456 269.002 82.238 269.38 81.146C269.884 79.802 268.792 78.374 267.28 78.374H254.512C255.016 77.534 254.68 76.484 253.798 75.98C253.042 75.518 252.034 75.854 251.488 76.652C250.564 78.122 248.926 79.592 246.7 81.02C245.902 81.524 245.566 82.49 245.902 83.372C246.28 84.254 247.288 84.632 248.086 84.212C249.346 83.582 250.606 82.7 251.698 81.692H255.394V82.574C255.394 84.926 252.244 86.69 246.448 87.698C245.482 87.824 244.81 88.748 244.936 89.714C245.104 90.722 245.986 91.394 246.952 91.226C252.034 90.386 255.52 88.874 257.368 86.732C259.846 89.042 264.214 90.932 269.212 91.688C270.178 91.814 271.06 91.142 271.228 90.176C271.354 89.21 270.682 88.328 269.716 88.202ZM236.788 80.558C238.762 80.81 241.24 81.272 243.13 81.776C244.054 82.028 245.062 81.482 245.272 80.558C245.524 79.55 244.978 78.584 244.012 78.374C241.954 77.87 239.392 77.366 237.46 77.114C236.494 76.946 235.57 77.618 235.402 78.584C235.192 79.508 235.864 80.39 236.788 80.558ZM236.788 90.806C239.266 90.302 242.626 89.294 244.81 88.286C245.608 87.908 246.028 86.942 245.776 86.018C245.482 85.178 244.558 84.716 243.718 85.052C241.786 85.808 238.804 86.774 236.158 87.404C235.234 87.614 234.604 88.496 234.772 89.42C234.94 90.386 235.864 91.016 236.788 90.806ZM269.506 109.076C267.196 108.908 264.634 108.404 262.702 107.774H262.786C264.298 107.774 265.558 106.514 265.558 105.002V94.04C265.558 92.486 264.298 91.268 262.786 91.268H243.256C241.744 91.268 240.484 92.528 240.484 94.04V105.002C240.484 106.556 241.744 107.774 243.256 107.774H243.298C241.282 108.404 238.804 108.908 236.662 109.076C235.696 109.16 234.982 110 235.066 110.966C235.15 111.932 236.032 112.688 236.998 112.604C239.602 112.436 242.752 111.764 245.062 110.882C245.986 110.546 246.49 109.538 246.28 108.53C246.196 108.236 246.028 107.984 245.818 107.774H260.056C259.846 107.942 259.678 108.194 259.552 108.488C259.216 109.454 259.678 110.504 260.602 110.84C263.206 111.764 266.734 112.394 269.044 112.604C270.01 112.73 270.892 111.974 271.06 110.966C271.186 110.042 270.472 109.202 269.506 109.076ZM261.904 95.594H244.096V94.502H261.904V95.594ZM244.096 98.828H261.904V99.92H244.096V98.828ZM261.904 103.196V104.54H244.096V103.196H261.904ZM310.792 90.218C311.758 90.218 312.556 89.42 312.556 88.496C312.556 87.53 311.758 86.732 310.792 86.732H302.602C302.98 86.144 303.316 85.514 303.61 84.884C303.988 84.002 303.61 83.036 302.77 82.616H309.07C310.036 82.616 310.792 81.818 310.792 80.894C310.792 79.928 309.994 79.172 309.07 79.172H297.058V77.534C297.058 76.526 296.218 75.728 295.252 75.728C294.244 75.728 293.446 76.568 293.446 77.534V79.172H280.93C279.964 79.172 279.208 79.97 279.208 80.894C279.208 81.86 280.006 82.616 280.93 82.616H287.86C287.692 82.7 287.482 82.826 287.314 82.994C286.6 83.624 286.6 84.758 287.314 85.472C287.734 85.892 288.07 86.312 288.406 86.732H282.442C280.888 86.732 279.67 87.992 279.67 89.504V91.478C279.67 99.29 278.872 105.842 277.444 110.168C277.15 111.134 277.696 112.184 278.662 112.394C279.712 112.646 280.804 112.016 281.098 111.008C282.862 104.834 283.24 96.266 283.24 91.478V90.218H310.792ZM289.96 82.994C289.792 82.826 289.624 82.7 289.456 82.616H301.174C300.796 82.826 300.46 83.12 300.25 83.54C299.746 84.716 299.032 85.808 298.276 86.732H292.648C291.892 85.304 291.052 84.086 289.96 82.994ZM299.704 108.572V104.582H305.416C306.382 104.582 307.18 103.826 307.18 102.86C307.18 101.894 306.382 101.096 305.416 101.096H299.704V97.988H307.348C308.314 97.988 309.07 97.19 309.07 96.266C309.07 95.3 308.272 94.544 307.348 94.544H299.704V92.276C299.704 91.268 298.906 90.47 297.94 90.47C296.974 90.47 296.134 91.268 296.134 92.276V94.544H291.178C291.388 94.082 291.556 93.578 291.682 93.116C291.934 92.192 291.346 91.226 290.38 90.932C289.498 90.68 288.574 91.226 288.28 92.108C287.44 94.754 285.844 97.316 283.87 99.08C283.114 99.752 282.946 100.844 283.45 101.642C283.996 102.482 285.13 102.692 285.886 102.062C287.188 100.928 288.406 99.5 289.414 97.988H296.134V101.096H290.548C289.54 101.096 288.784 101.894 288.784 102.86C288.784 103.826 289.582 104.582 290.548 104.582H296.134V108.572H285.634C284.668 108.572 283.912 109.37 283.912 110.294C283.912 111.26 284.71 112.058 285.634 112.058H310.33C311.296 112.058 312.052 111.26 312.052 110.294C312.052 109.328 311.254 108.572 310.33 108.572H299.704ZM326.668 109.58C327.592 109.286 328.096 108.236 327.844 107.27C325.744 100.256 325.828 89.336 328.012 82.448C328.306 81.482 327.802 80.474 326.836 80.18C325.786 79.928 324.736 80.474 324.4 81.482C322.048 88.79 321.838 100.802 324.274 108.404C324.61 109.37 325.66 109.874 326.668 109.58ZM333.388 88.118C338.512 89 344.728 88.79 349.054 87.95C350.02 87.782 350.734 86.774 350.566 85.766C350.398 84.8 349.474 84.128 348.466 84.338C344.476 85.178 338.638 85.22 333.892 84.506C332.884 84.38 332.002 85.052 331.876 86.018C331.75 87.026 332.422 87.95 333.388 88.118ZM351.364 106.43C352.33 106.094 352.876 105.044 352.582 103.994C352.33 103.07 351.28 102.524 350.314 102.86C343.972 105.086 337.21 104.246 333.304 100.802C332.548 100.172 331.414 100.172 330.826 100.886C330.07 101.642 330.07 102.86 330.826 103.49C336.328 108.782 345.526 108.404 351.364 106.43ZM381.562 85.22C382.444 84.758 382.822 83.624 382.402 82.658C381.982 81.776 380.932 81.44 380.008 81.902C378.832 82.49 377.572 82.994 376.228 83.414C376.648 81.986 377.068 80.6 377.404 79.34C377.656 78.374 377.068 77.366 376.102 77.114C375.094 76.82 374.128 77.408 373.876 78.416C373.372 80.306 372.826 82.28 372.196 84.296C370.096 84.632 367.996 84.758 366.106 84.716C365.098 84.674 364.258 85.43 364.132 86.396C364.048 87.404 364.762 88.286 365.77 88.37C367.45 88.454 369.172 88.37 370.936 88.202C369.172 93.2 366.82 98.492 363.376 103.826C362.83 104.666 363.04 105.842 363.88 106.43C364.762 106.976 365.938 106.766 366.484 105.884C370.306 100.004 372.994 93.41 374.926 87.53C377.362 86.984 379.63 86.186 381.562 85.22ZM393.868 105.17C392.146 103.868 389.458 102.02 386.266 100.928C385.09 93.788 385.804 92.192 390.088 91.772C394.456 91.352 393.616 85.346 383.872 85.766C382.822 85.808 382.066 86.69 382.15 87.74C382.192 88.706 383.074 89.378 384.082 89.294C384.964 89.252 385.888 89.294 386.77 89.42C384.124 90.386 381.604 92.738 382.486 100.34C369.76 99.08 371.776 110.966 380.722 110.966C385.804 110.966 386.812 107.102 386.728 105.002C388.744 105.926 390.466 107.144 391.684 108.068C392.482 108.656 393.616 108.488 394.204 107.69C394.792 106.934 394.666 105.758 393.868 105.17ZM377.74 106.472C375.682 104.33 379.336 102.524 383.074 103.784C383.872 108.824 379.252 108.068 377.74 106.472ZM420.412 111.092C430.114 111.092 436.708 104.498 434.398 97.148C432.676 91.562 425.158 89 415.792 93.83C418.648 89.798 421.462 86.522 425.284 83.12C426.082 82.406 426.334 81.272 425.914 80.306C425.494 79.382 424.402 78.92 423.436 79.256C420.034 80.39 416.506 80.516 412.264 80.264C411.256 80.222 410.374 80.978 410.29 81.986C410.248 83.036 411.004 83.918 412.012 83.96C414.742 84.086 417.934 83.96 420.034 83.582C415.918 87.824 411.886 93.242 408.19 98.786C407.728 99.5 407.938 100.466 408.652 100.928C409.366 101.39 410.332 101.306 411.004 100.76C416.296 96.014 420.832 94.124 425.662 94.67C430.954 95.3 432.382 100.046 430.156 103.28C429.022 104.876 427.216 106.178 424.99 106.934C419.74 100.592 415.876 99.29 413.608 103.322C412.138 105.884 412.852 111.092 420.412 111.092ZM421.504 107.648C418.9 107.774 416.884 107.102 416.38 105.884C415.96 104.582 417.304 102.692 421.504 107.648ZM463 103.616C463.924 103.616 464.638 102.86 464.638 101.978L465.184 79.55C465.226 78.332 464.218 77.324 463 77.324C461.782 77.324 460.774 78.332 460.816 79.55L461.362 101.978C461.362 102.86 462.076 103.616 463 103.616ZM463 111.428C464.596 111.428 465.898 110.126 465.898 108.572C465.898 106.976 464.596 105.674 463 105.674C461.446 105.674 460.102 106.976 460.102 108.572C460.102 110.168 461.446 111.428 463 111.428ZM505 103.616C505.924 103.616 506.638 102.86 506.638 101.978L507.184 79.55C507.226 78.332 506.218 77.324 505 77.324C503.782 77.324 502.774 78.332 502.816 79.55L503.362 101.978C503.362 102.86 504.076 103.616 505 103.616ZM505 111.428C506.596 111.428 507.898 110.126 507.898 108.572C507.898 106.976 506.596 105.674 505 105.674C503.446 105.674 502.102 106.976 502.102 108.572C502.102 110.168 503.446 111.428 505 111.428Z" fill="#E26956"/>
</svg>
