<svg width="287" height="60" viewBox="0 0 287 60" fill="none" xmlns="http://www.w3.org/2000/svg">
<path d="M0 19C0 16.2386 2.23858 14 5 14H272C274.761 14 277 16.2386 277 19V25C277 27.7614 274.761 30 272 30H5C2.23858 30 0 27.7614 0 25V19Z" fill="#F0FFC6"/>
<path d="M0 49C0 46.2386 2.23858 44 5 44H108C110.761 44 113 46.2386 113 49V55C113 57.7614 110.761 60 108 60H5C2.23858 60 0 57.7614 0 55V49Z" fill="#F0FFC6"/>
<path d="M18.144 22.2C20.664 22.2 23.224 21.98 24.024 19.18C24.364 18.06 24.624 16.38 24.684 15.64C25.004 12.18 23.544 10.4 20.384 10.4H15.724C13.584 10.4 11.384 11.7 11.484 14.26C11.504 16.02 11.744 18.04 12.124 19.22C12.724 21.38 14.444 22.22 18.144 22.2ZM18.144 20.44C14.504 20.4 14.164 19.84 13.784 18.68C13.624 18.14 13.304 16.58 13.244 14.24C13.244 12.9 14.124 12.18 15.764 12.18L20.404 12.16C22.784 12.16 23.344 13.38 22.664 17.14C22.184 19.9 21.984 20.48 18.144 20.44ZM44.344 16.48C44.824 16.48 45.224 16.1 45.224 15.6C45.224 15.12 44.824 14.72 44.344 14.72H31.864C31.384 14.72 30.984 15.1 30.984 15.6C30.984 16.08 31.384 16.48 31.864 16.48H44.344ZM56.824 14.2C57.204 13.78 57.184 13.14 56.784 12.8C55.784 11.94 54.064 11 52.304 10.76C51.784 10.7 51.324 11.08 51.264 11.62C51.204 12.12 51.564 12.56 52.064 12.64C53.424 12.86 54.624 13.4 55.504 14.2C55.884 14.56 56.484 14.56 56.824 14.2ZM52.324 22.58C57.384 21.5 62.564 17.92 65.504 14.02C65.824 13.6 65.724 13 65.324 12.66C64.904 12.34 64.324 12.42 64.004 12.84C60.604 17.4 55.624 19.88 52.084 20.72C51.564 20.84 51.224 21.32 51.284 21.82C51.344 22.32 51.824 22.68 52.324 22.58ZM85.124 20.74C84.244 20.12 83.124 19.58 81.924 19.18C81.924 17.58 81.824 15.54 81.684 13.62C82.664 13.56 83.544 13.48 84.264 13.42C84.724 13.36 85.084 12.94 85.064 12.48C85.024 12 84.624 11.66 84.144 11.7C83.384 11.78 82.504 11.84 81.544 11.9C81.424 10.54 81.284 9.32 81.144 8.48C81.064 8 80.604 7.68 80.144 7.76C79.684 7.82 79.364 8.26 79.444 8.72C79.584 9.54 79.704 10.7 79.824 11.98C78.164 12.06 76.444 12.1 74.904 12.08C74.424 12.08 74.024 12.46 74.024 12.94C74.024 13.42 74.404 13.82 74.884 13.82C76.564 13.82 78.324 13.78 79.964 13.7C80.084 15.44 80.184 17.24 80.184 18.72C77.404 18.18 74.764 18.58 74.604 20.76C74.484 22.3 76.064 23.48 78.224 23.48C80.224 23.48 81.484 22.56 81.804 20.9C82.604 21.22 83.364 21.64 84.084 22.16C84.484 22.42 85.024 22.36 85.304 21.98C85.584 21.56 85.524 21.02 85.124 20.74ZM73.004 8C72.544 7.86 72.044 8.1 71.904 8.56C70.684 12.7 70.604 18.28 71.744 22.74C71.864 23.22 72.324 23.48 72.804 23.34C73.244 23.2 73.504 22.72 73.384 22.26C72.124 17.38 72.724 12.06 73.564 9.1C73.684 8.64 73.444 8.16 73.004 8ZM78.224 21.74C76.084 21.74 75.444 20.12 78.104 20.2C78.804 20.22 79.464 20.28 80.124 20.42C80.004 21.38 79.484 21.74 78.224 21.74ZM106.344 22.5C103.044 20.6 99.444 15.02 99.224 9.78V8.74C99.224 8.02 98.624 7.42 97.904 7.42H94.124C93.644 7.42 93.264 7.82 93.264 8.3C93.264 8.78 93.664 9.16 94.124 9.16H97.464V9.24C97.304 15.78 93.624 20.32 89.804 22.42C89.384 22.66 89.184 23.14 89.304 23.6C89.444 24.06 89.944 24.3 90.364 24.12C93.664 22.66 96.904 18.84 98.344 14.36C99.784 18.66 102.744 22.74 105.824 24.18C106.244 24.38 106.744 24.12 106.864 23.66C106.984 23.22 106.764 22.74 106.344 22.5ZM120.424 14.8V13.48C120.424 13 120.044 12.62 119.564 12.62C119.104 12.62 118.724 13.02 118.724 13.48V14.8H113.464C113.344 14.8 113.224 14.84 113.104 14.88C113.164 14.06 113.184 13.24 113.184 12.44H124.284C125.004 12.44 125.604 11.84 125.604 11.12V8.48C125.604 7.74 125.004 7.16 124.284 7.16H112.764C112.044 7.16 111.444 7.76 111.444 8.48V11.82C111.444 16.5 110.884 20.62 109.904 23.02C109.704 23.5 109.944 24 110.404 24.16C110.904 24.3 111.444 24.06 111.604 23.56C112.344 21.4 112.784 18.86 113.024 16.26C113.144 16.34 113.304 16.4 113.464 16.4H118.724V18.24H115.884C115.144 18.24 114.564 18.84 114.564 19.56V22.8C114.564 23.54 115.164 24.12 115.884 24.12H123.444C124.184 24.12 124.764 23.52 124.764 22.8V19.56C124.764 18.82 124.164 18.24 123.444 18.24H120.424V16.4H125.784C126.224 16.4 126.584 16.06 126.584 15.6C126.584 15.18 126.244 14.8 125.784 14.8H120.424ZM123.844 8.86V10.74H113.204V8.86H123.844ZM116.264 22.46V19.9H123.044V22.46H116.264ZM141.604 12.54C142.984 11.32 144.164 10 145.044 8.66C145.304 8.24 145.144 7.7 144.684 7.5C144.244 7.28 143.724 7.44 143.444 7.86C142.384 9.44 140.824 11.06 138.904 12.54H137.884V10.7H140.504C140.984 10.7 141.364 10.3 141.364 9.84C141.364 9.36 140.964 8.98 140.504 8.98H137.884V7.64C137.884 7.16 137.504 6.76 137.024 6.76C136.544 6.76 136.144 7.16 136.144 7.64V8.98H132.784C132.304 8.98 131.924 9.38 131.924 9.84C131.924 10.32 132.324 10.7 132.784 10.7H136.144V12.54H130.544C130.064 12.54 129.684 12.94 129.684 13.4C129.684 13.88 130.084 14.26 130.544 14.26H136.364C134.464 15.42 132.324 16.42 130.004 17.18C129.524 17.32 129.264 17.8 129.364 18.28C129.464 18.76 129.944 19.02 130.404 18.88C131.584 18.5 132.804 18.04 133.984 17.48V22.8C133.984 23.54 134.584 24.12 135.304 24.12H142.744C143.484 24.12 144.064 23.52 144.064 22.8V16.96C144.064 16.24 143.484 15.64 142.744 15.64H137.404C138.104 15.2 138.804 14.74 139.464 14.26H145.664C146.124 14.26 146.524 13.88 146.524 13.4C146.524 12.92 146.124 12.54 145.664 12.54H141.604ZM135.704 19V17.36H142.344V19H135.704ZM135.704 20.68H142.344V22.42H135.704V20.68ZM158.904 22.62C164.424 21.88 166.184 17.54 165.264 14.3C163.764 9.06 156.044 8.28 152.524 13.04C150.184 16.24 150.364 20.76 152.904 21.36C155.604 22 158.124 17.1 159.284 11.64C161.684 11.68 163.604 13.44 163.704 15.7C163.824 18.46 162.004 20.3 158.644 20.82C158.164 20.9 157.824 21.34 157.904 21.82C157.964 22.32 158.424 22.68 158.904 22.62ZM152.804 19.24C151.904 17.74 153.044 12.62 157.424 11.76C156.584 15.82 153.964 21.2 152.804 19.24ZM170.824 12.16C171.304 12.16 171.684 11.76 171.684 11.28V9.82H184.324V11.28C184.324 11.76 184.704 12.16 185.184 12.16C185.664 12.16 186.064 11.78 186.064 11.28V9.5C186.064 8.76 185.464 8.18 184.744 8.18H178.964V7.44C178.964 6.96 178.564 6.58 178.104 6.58C177.624 6.58 177.244 6.98 177.244 7.44V8.18H171.264C170.544 8.18 169.944 8.78 169.944 9.5V11.28C169.944 11.76 170.344 12.16 170.824 12.16ZM186.404 21.4C185.064 20.4 183.984 19.22 183.144 17.92C184.144 17.38 185.184 16.56 186.024 15.62C186.344 15.26 186.324 14.68 185.964 14.3C185.644 13.96 185.104 14 184.784 14.36C184.004 15.3 183.044 16.02 182.264 16.46C181.664 15.28 181.204 14.06 180.884 12.88H183.184C183.644 12.88 184.024 12.5 184.024 12.04C184.024 11.58 183.644 11.2 183.184 11.2H173.024C172.564 11.2 172.184 11.58 172.184 12.04C172.184 12.5 172.564 12.88 173.024 12.88H175.864C174.644 13.7 172.844 14.46 170.984 14.92C170.504 15.04 170.184 15.5 170.284 15.98C170.364 16.48 170.844 16.78 171.304 16.66C172.684 16.3 174.544 15.64 176.144 14.72C176.364 15.04 176.564 15.42 176.764 15.78C175.324 16.82 172.884 17.88 170.584 18.42C170.124 18.52 169.824 18.98 169.904 19.44C170.004 19.92 170.464 20.22 170.924 20.12C173.204 19.62 175.824 18.46 177.524 17.34C177.684 17.7 177.824 18.04 177.964 18.38C176.084 19.82 173.204 21 170.364 21.52C169.904 21.62 169.584 22.04 169.644 22.52C169.724 22.98 170.164 23.3 170.624 23.22C173.804 22.66 176.684 21.36 178.564 20.04C178.744 20.6 178.864 21.04 178.904 21.32C179.044 22.3 178.444 22.62 176.484 22.6C176.004 22.58 175.604 22.96 175.604 23.42C175.584 23.9 175.964 24.3 176.444 24.32C179.524 24.4 180.904 23.32 180.584 21.1C180.384 19.62 179.004 16.08 177.564 13.76C177.904 13.48 178.204 13.18 178.464 12.88H179.064C180.144 16.9 182.324 20.4 185.324 22.84C185.724 23.16 186.304 23.1 186.604 22.68C186.904 22.28 186.804 21.7 186.404 21.4ZM192.084 12.94C192.084 13.42 192.464 13.78 192.924 13.78C193.384 13.78 193.764 13.42 193.764 12.94V9.26C194.184 8.84 194.584 8.42 194.904 8.02C195.204 7.66 195.104 7.12 194.684 6.88C194.304 6.62 193.764 6.74 193.484 7.12C192.584 8.28 191.144 9.5 189.884 10.22C189.484 10.44 189.304 10.92 189.464 11.34C189.644 11.76 190.144 11.96 190.524 11.74C191.024 11.48 191.564 11.12 192.084 10.72V12.94ZM196.884 9.2L199.184 9.04V9.72H194.784C194.364 9.72 194.004 10.06 194.004 10.48C194.004 10.92 194.364 11.26 194.784 11.26H199.184V12.02H195.964C195.544 12.02 195.184 12.36 195.184 12.8C195.184 13.2 195.544 13.56 195.964 13.56H204.444C204.864 13.56 205.204 13.22 205.204 12.8C205.204 12.36 204.864 12.02 204.444 12.02H200.904V11.26H205.424C205.844 11.26 206.204 10.92 206.204 10.48C206.204 10.06 205.844 9.72 205.424 9.72H200.904V8.88C201.924 8.78 202.884 8.68 203.564 8.58C204.004 8.52 204.304 8.12 204.244 7.68C204.184 7.24 203.764 6.96 203.344 7.02C201.624 7.26 198.364 7.52 196.784 7.62C196.344 7.64 196.004 8.02 196.044 8.46C196.064 8.88 196.444 9.22 196.884 9.2ZM205.364 22.52C204.384 22.36 203.524 22.16 202.744 21.9C203.404 21.82 203.924 21.24 203.924 20.58V15.38C203.924 14.64 203.324 14.06 202.604 14.06H193.624C192.884 14.06 192.304 14.66 192.304 15.38V20.58C192.304 21.28 192.844 21.84 193.524 21.9C192.744 22.16 191.884 22.36 190.924 22.5C190.464 22.58 190.144 23 190.224 23.46C190.304 23.94 190.724 24.28 191.204 24.22C192.624 24.02 194.184 23.54 195.224 23.1C195.704 22.92 195.944 22.4 195.784 21.9H200.424C200.264 22.36 200.464 22.86 200.904 23.04C202.104 23.62 203.744 24.04 205.024 24.24C205.504 24.3 205.964 23.98 206.064 23.5C206.164 23.04 205.844 22.6 205.364 22.52ZM202.204 16.16H193.984V15.6H202.204V16.16ZM193.984 17.7H202.204V18.26H193.984V17.7ZM193.984 19.8H202.204V20.36H193.984V19.8ZM223.364 21.3C221.764 21.74 219.624 21.64 218.244 19.84C216.324 17.34 217.924 13.58 221.804 11.14C222.664 10.94 223.464 10.7 224.224 10.42C224.684 10.24 224.904 9.72 224.724 9.26C224.524 8.82 224.024 8.6 223.564 8.76C220.264 9.96 216.384 10.38 212.044 10.04C211.564 10 211.124 10.36 211.064 10.84C211.024 11.34 211.384 11.78 211.864 11.8C214.224 12 216.544 11.96 218.704 11.7C215.164 14.9 215.304 18.72 216.684 20.7C218.144 22.82 220.964 23.78 223.724 23.08C224.224 22.96 224.524 22.44 224.424 21.92C224.324 21.44 223.844 21.16 223.364 21.3ZM226.804 14.06C226.344 12.96 225.884 12.28 225.104 11.58C224.864 11.36 224.484 11.38 224.244 11.6C224.024 11.84 224.024 12.2 224.264 12.44C224.904 13.04 225.364 13.72 225.684 14.56C225.804 14.88 226.164 15.04 226.484 14.9C226.784 14.76 226.944 14.4 226.804 14.06ZM223.504 12.36C223.244 12.12 222.824 12.16 222.604 12.42C222.364 12.66 222.404 13.06 222.664 13.28C223.304 13.86 223.704 14.46 224.024 15.3C224.144 15.64 224.504 15.8 224.824 15.66C225.144 15.52 225.324 15.14 225.184 14.8C224.744 13.78 224.224 13.02 223.504 12.36ZM234.764 20.32C235.224 20.54 235.784 20.36 235.984 19.9C236.824 18.06 237.164 15.84 237.304 13.38H239.004C238.984 13.38 238.964 13.4 238.944 13.4C238.484 13.58 238.284 14.1 238.484 14.52C239.004 15.64 239.664 16.66 240.404 17.58C239.324 18.46 238.024 19.18 236.464 19.7C236.004 19.86 235.764 20.36 235.944 20.8C236.104 21.26 236.624 21.5 237.084 21.34C238.824 20.74 240.324 19.9 241.564 18.82C242.844 20.08 244.264 20.98 245.584 21.42C246.024 21.58 246.504 21.32 246.644 20.84C246.784 20.42 246.524 19.94 246.084 19.78C244.844 19.3 243.724 18.54 242.784 17.62C243.904 16.34 244.744 14.8 245.284 13.02C245.484 12.38 244.984 11.72 244.284 11.72H237.364C237.384 10.9 237.384 10.08 237.384 9.22L245.544 9.2C246.004 9.2 246.384 8.82 246.384 8.34C246.384 7.88 246.004 7.5 245.544 7.5H236.964C236.224 7.5 235.644 8.1 235.644 8.82C235.644 14.72 235.344 17.18 234.384 19.16C234.164 19.6 234.344 20.12 234.764 20.32ZM230.244 9.38C231.244 9.6 232.364 9.98 233.224 10.34C233.664 10.52 234.144 10.28 234.264 9.84C234.364 9.34 234.124 8.84 233.664 8.64C232.644 8.24 231.504 7.9 230.604 7.7C230.124 7.6 229.684 7.9 229.584 8.36C229.504 8.82 229.804 9.28 230.244 9.38ZM241.644 16.36C241.024 15.58 240.504 14.72 240.104 13.88C239.984 13.62 239.764 13.46 239.504 13.38H243.384C242.944 14.5 242.364 15.5 241.644 16.36ZM238.504 22.32C236.104 22.32 234.664 21.64 233.664 20.04V15.24C233.664 14.52 233.064 13.92 232.344 13.92H230.404C229.924 13.92 229.544 14.3 229.544 14.78C229.544 15.24 229.924 15.64 230.404 15.64H231.904V20.12C231.364 21.04 230.484 21.94 229.784 22.54C229.404 22.84 229.284 23.34 229.484 23.74C229.704 24.18 230.224 24.32 230.604 24.06C231.324 23.54 232.224 22.68 232.844 21.86C234.104 23.32 236.024 24.08 238.504 24.08H245.804C246.284 24.08 246.664 23.68 246.664 23.2C246.664 22.72 246.284 22.32 245.804 22.32H238.504ZM266.204 14.18C264.544 13.76 263.004 13.32 261.624 12.62C262.544 11.88 263.324 11.06 263.924 10.18H265.664C266.124 10.18 266.504 9.8 266.504 9.34C266.504 8.88 266.124 8.5 265.664 8.5H261.024V7.46C261.024 7 260.644 6.6 260.184 6.6C259.704 6.6 259.324 6.98 259.324 7.46V8.5H254.684C254.224 8.5 253.844 8.88 253.844 9.34C253.844 9.8 254.224 10.18 254.684 10.18H256.404C256.404 10.2 256.424 10.2 256.424 10.22C257.084 11.18 257.824 11.98 258.604 12.62C257.404 13.24 256.024 13.74 254.524 14.08C254.064 14.18 253.764 14.64 253.864 15.08C253.964 15.56 254.424 15.84 254.864 15.74C255.324 15.64 255.784 15.5 256.224 15.38C256.104 19 255.444 21.16 253.904 22.88C253.604 23.2 253.604 23.72 253.904 24.04C254.224 24.38 254.744 24.42 255.064 24.1C255.964 23.26 256.624 22.16 257.084 20.76H262.444V23.4C262.444 23.88 262.844 24.26 263.304 24.26C263.784 24.26 264.164 23.86 264.164 23.4V15.4C264.684 15.56 265.224 15.72 265.784 15.86C266.244 15.98 266.724 15.7 266.824 15.24C266.944 14.76 266.644 14.3 266.204 14.18ZM250.364 9.06C251.064 9.28 251.744 9.54 252.304 9.82C252.764 10.02 253.264 9.8 253.404 9.34C253.544 8.84 253.304 8.32 252.844 8.12C252.204 7.86 251.464 7.6 250.804 7.4C250.364 7.26 249.884 7.54 249.764 8.02C249.644 8.46 249.924 8.92 250.364 9.06ZM261.804 10.18C261.324 10.72 260.764 11.24 260.124 11.7C259.524 11.26 258.984 10.78 258.484 10.18H261.804ZM252.124 14.56C252.544 14.8 253.084 14.6 253.244 14.14C253.404 13.64 253.184 13.1 252.724 12.9C252.004 12.58 251.184 12.26 250.504 12.06C250.044 11.92 249.564 12.22 249.424 12.68C249.304 13.12 249.564 13.58 250.024 13.72C250.764 13.94 251.504 14.26 252.124 14.56ZM262.444 15.84H257.904C257.904 15.54 257.924 15.24 257.924 14.92V14.76C258.684 14.44 259.404 14.08 260.084 13.68C260.844 14.14 261.664 14.52 262.504 14.84C262.464 14.94 262.444 15.04 262.444 15.14V15.84ZM252.864 16.08C252.424 15.96 251.964 16.26 251.904 16.72C251.504 19.14 250.584 21.44 249.764 23.16C249.544 23.56 249.744 24.06 250.184 24.22C250.624 24.38 251.144 24.18 251.344 23.76C252.204 21.98 253.104 19.6 253.544 17.16C253.644 16.68 253.344 16.22 252.864 16.08ZM257.524 19.08C257.624 18.58 257.704 18.06 257.764 17.52H262.444V19.08H257.524ZM14.984 52.2C17.704 54.58 21.824 53.42 24.484 49.62C24.784 49.2 24.704 48.6 24.304 48.24C23.944 47.92 23.384 47.98 23.084 48.38C20.604 51.78 17.644 52.66 15.824 50.58C14.624 49.24 14.484 46.58 15.284 42.04C15.624 40.14 15.524 39.12 14.864 38.04C14.624 37.62 14.064 37.5 13.624 37.74C13.224 37.96 13.124 38.48 13.384 38.88C13.824 39.58 13.884 40.2 13.604 41.72C12.604 47.2 13.024 50.5 14.984 52.2ZM41.804 41.14C42.664 40.94 43.464 40.7 44.224 40.42C44.684 40.24 44.904 39.72 44.724 39.26C44.524 38.82 44.024 38.6 43.564 38.76C40.264 39.96 36.384 40.38 32.044 40.04C31.564 40 31.124 40.36 31.064 40.84C31.024 41.34 31.384 41.78 31.864 41.8C34.224 42 36.544 41.96 38.704 41.7C35.164 44.9 35.304 48.72 36.684 50.7C38.144 52.82 40.964 53.78 43.724 53.08C44.224 52.96 44.524 52.44 44.424 51.92C44.324 51.44 43.844 51.16 43.364 51.3C41.764 51.74 39.624 51.64 38.244 49.84C36.324 47.34 37.924 43.58 41.804 41.14ZM55.244 51.98C56.704 51.98 57.664 51.06 58.084 49.22C58.204 48.76 57.844 48.28 57.344 48.2C56.844 48.16 56.404 48.5 56.304 49C55.484 52.7 50.464 47.32 53.204 41.14C53.384 40.7 53.184 40.2 52.744 40C52.304 39.8 51.784 40 51.584 40.44C49.124 46.18 52.244 51.98 55.244 51.98ZM64.604 48.2C65.144 48.28 65.624 47.9 65.644 47.4C65.864 44.36 63.644 42.02 61.284 41.38C60.784 41.24 60.264 41.58 60.124 42.12C60.024 42.58 60.344 43.08 60.824 43.22C62.704 43.72 63.784 45.18 63.764 47.18C63.764 47.7 64.124 48.14 64.604 48.2ZM80.544 53.6C81.004 53.4 81.244 52.86 81.064 52.38C79.924 49.46 78.604 47.72 77.064 46.06C76.044 44.94 76.024 44.96 77.004 43.86C78.344 42.4 79.484 41.08 80.644 38.46C80.844 38 80.624 37.44 80.164 37.24C79.704 37.02 79.164 37.24 78.964 37.7C76.944 42.26 74.484 43.18 74.484 44.8C74.484 46.88 76.724 46.92 79.344 53.1C79.524 53.56 80.064 53.8 80.544 53.6ZM98.104 49.96C98.544 49.96 98.884 49.6 98.884 49.18L99.144 38.5C99.164 37.92 98.684 37.44 98.104 37.44C97.524 37.44 97.044 37.92 97.064 38.5L97.324 49.18C97.324 49.6 97.664 49.96 98.104 49.96ZM98.104 53.68C98.864 53.68 99.484 53.06 99.484 52.32C99.484 51.56 98.864 50.94 98.104 50.94C97.364 50.94 96.724 51.56 96.724 52.32C96.724 53.08 97.364 53.68 98.104 53.68Z" fill="#E26956"/>
</svg>
