<svg width="747" height="126" viewBox="0 0 747 126" fill="none" xmlns="http://www.w3.org/2000/svg">
<path d="M0 37C0 34.2386 2.23858 32 5 32H726C728.761 32 731 34.2386 731 37V53C731 55.7614 728.761 58 726 58H4.99999C2.23857 58 0 55.7614 0 53V37Z" fill="#F0FFC6"/>
<path d="M0 102C0 99.2386 2.23858 97 5 97H742C744.761 97 747 99.2386 747 102V118C747 120.761 744.761 123 742 123H4.99999C2.23856 123 0 120.761 0 118V102Z" fill="#F0FFC6"/>
<path d="M39.976 25.664C42.202 22.64 43.924 19.532 44.89 16.718C45.226 15.794 44.68 14.702 43.714 14.408C42.79 14.072 41.74 14.618 41.404 15.542C40.942 16.844 40.354 18.146 39.682 19.448C39.556 18.566 38.8 17.936 37.918 17.936H35.23V14.702C35.23 13.694 34.39 12.896 33.382 12.896C32.416 12.896 31.576 13.694 31.576 14.702V17.936H28.72C27.754 17.936 26.956 18.692 26.956 19.7C26.956 20.666 27.754 21.464 28.72 21.464H31.576V25.664H26.788C25.78 25.664 24.982 26.504 24.982 27.428C24.982 28.394 25.78 29.192 26.788 29.192H32.374C30.316 31.208 28.006 32.972 25.486 34.4C24.604 34.904 24.184 35.996 24.52 36.962C24.856 37.886 25.948 38.306 26.83 37.844C27.502 37.466 28.216 37.046 28.888 36.584V46.58C28.888 48.134 30.148 49.352 31.66 49.352H40.522C42.076 49.352 43.294 48.092 43.294 46.58V34.652C43.294 33.14 42.034 31.88 40.522 31.88H34.6C35.482 30.998 36.322 30.116 37.162 29.192H43.252C44.218 29.192 45.016 28.436 45.016 27.428C45.016 26.462 44.218 25.664 43.252 25.664H39.976ZM55.81 26.588C57.532 24.32 59.338 20.498 60.262 17.054C60.64 15.668 59.548 14.282 58.036 14.282H48.712C47.158 14.282 45.94 15.542 45.94 17.054V47.84C45.94 48.806 46.738 49.646 47.704 49.646C48.712 49.646 49.51 48.848 49.51 47.84V17.81H56.314C55.432 20.498 54.256 22.766 52.618 24.908C51.694 26.126 51.862 27.89 52.996 28.856C55.768 31.25 57.952 33.392 57.952 36.794C57.952 39.776 56.44 41.036 52.744 40.994C51.778 40.952 50.938 41.708 50.938 42.674C50.938 43.682 51.736 44.564 52.744 44.564C58.204 44.606 61.522 41.708 61.522 36.752C61.522 32.342 58.666 28.94 55.81 26.588ZM37.918 21.464C38.17 21.464 38.38 21.422 38.59 21.296C37.708 22.808 36.7 24.236 35.566 25.664H35.23V21.464H37.918ZM32.416 38.432V35.366H39.724V38.432H32.416ZM32.416 41.918H39.724V45.866H32.416V41.918ZM89.284 21.38C90.25 21.758 91.3 21.254 91.552 20.288C91.804 19.238 91.258 18.188 90.292 17.81C87.184 16.634 82.018 15.29 77.902 14.87C76.894 14.744 75.97 15.5 75.844 16.55C75.676 17.516 76.39 18.44 77.398 18.524C81.724 18.986 85.672 19.952 89.284 21.38ZM87.31 48.806C92.308 48.806 94.24 46.328 96.004 43.388C96.55 42.506 96.298 41.372 95.458 40.826C94.618 40.28 93.526 40.532 92.98 41.414C90.88 44.69 90.544 45.278 85.672 45.278C80.59 45.278 79.96 44.942 79.96 42.338V25.79C79.96 24.782 79.162 23.942 78.112 23.942C77.104 23.942 76.264 24.782 76.264 25.79V42.338C76.264 46.454 78.826 48.806 83.194 48.806H87.31ZM101.296 43.472C102.304 43.22 102.976 42.254 102.766 41.246C101.968 37.55 100.036 32.048 98.23 28.898C97.684 27.974 96.466 27.638 95.5 28.184C94.618 28.646 94.324 29.78 94.87 30.662C96.592 33.518 98.23 38.39 99.112 42.044C99.322 43.01 100.288 43.682 101.296 43.472ZM68.284 46.538C69.334 46.874 70.468 46.37 70.888 45.362C72.442 41.498 73.828 36.332 74.458 32.468C74.626 31.46 73.954 30.494 72.904 30.284C71.938 30.074 70.972 30.704 70.804 31.754C70.09 36.122 68.788 40.742 67.234 44.186C66.814 45.152 67.318 46.244 68.284 46.538ZM126.58 20.162C127.546 20.162 128.302 19.364 128.302 18.44C128.302 17.474 127.504 16.718 126.58 16.718H121.204V14.45C121.204 13.442 120.364 12.644 119.398 12.644C118.432 12.644 117.592 13.442 117.592 14.45V16.718H112.216C111.25 16.718 110.494 17.516 110.494 18.44C110.494 19.406 111.292 20.162 112.216 20.162H126.58ZM139.81 26.588C141.616 24.194 143.338 20.456 144.262 17.054C144.64 15.668 143.548 14.282 142.036 14.282H132.922C131.41 14.282 130.15 15.542 130.15 17.054V47.798C130.15 48.806 130.99 49.646 131.998 49.646C133.006 49.646 133.804 48.806 133.804 47.798V17.81H140.314C139.432 20.498 138.256 22.766 136.618 24.908C135.694 26.126 135.862 27.89 136.996 28.856C139.768 31.25 141.952 33.392 141.952 36.794C141.952 39.734 140.356 41.036 136.618 40.994C135.652 40.994 134.854 41.75 134.896 42.716C134.938 43.724 135.736 44.564 136.702 44.606C142.162 44.69 145.48 41.75 145.48 36.794C145.48 32.552 142.75 28.898 139.81 26.588ZM123.43 28.52C124.438 26.756 125.362 24.782 126.034 22.808C126.37 21.884 125.824 20.876 124.9 20.54C124.018 20.162 123.052 20.666 122.716 21.59C121.792 24.11 120.448 26.756 119.272 28.52H117.634C118.474 28.142 118.852 27.134 118.516 26.294C117.844 24.572 116.962 22.724 116.122 21.212C115.576 20.288 114.4 19.994 113.476 20.498C112.594 20.96 112.384 22.052 112.972 22.892C113.854 24.11 114.736 25.748 115.492 27.638C115.66 28.058 115.954 28.352 116.29 28.52H110.746C109.78 28.52 109.024 29.318 109.024 30.242C109.024 31.166 109.78 31.964 110.746 31.964H128.05C129.016 31.964 129.772 31.166 129.772 30.242C129.772 29.276 128.974 28.52 128.05 28.52H123.43ZM114.526 33.938C112.972 33.938 111.754 35.198 111.754 36.71V46.412C111.754 47.924 112.972 49.184 114.526 49.184H124.312C125.824 49.184 127.084 47.924 127.084 46.412V36.71C127.084 35.198 125.824 33.938 124.312 33.938H114.526ZM115.408 45.572V37.55H123.388V45.572H115.408ZM180.046 43.43C176.686 44.354 172.192 44.144 169.294 40.364C165.262 35.114 168.622 27.218 176.77 22.094C178.576 21.674 180.256 21.17 181.852 20.582C182.818 20.204 183.28 19.112 182.902 18.146C182.482 17.222 181.432 16.76 180.466 17.096C173.536 19.616 165.388 20.498 156.274 19.784C155.266 19.7 154.342 20.456 154.216 21.464C154.132 22.514 154.888 23.438 155.896 23.48C160.852 23.9 165.724 23.816 170.26 23.27C162.826 29.99 163.12 38.012 166.018 42.17C169.084 46.622 175.006 48.638 180.802 47.168C181.852 46.916 182.482 45.824 182.272 44.732C182.062 43.724 181.054 43.136 180.046 43.43ZM187.27 28.226C186.304 25.916 185.338 24.488 183.7 23.018C183.196 22.556 182.398 22.598 181.894 23.06C181.432 23.564 181.432 24.32 181.936 24.824C183.28 26.084 184.246 27.512 184.918 29.276C185.17 29.948 185.926 30.284 186.598 29.99C187.228 29.696 187.564 28.94 187.27 28.226ZM180.34 24.656C179.794 24.152 178.912 24.236 178.45 24.782C177.946 25.286 178.03 26.126 178.576 26.588C179.92 27.806 180.76 29.066 181.432 30.83C181.684 31.544 182.44 31.88 183.112 31.586C183.784 31.292 184.162 30.494 183.868 29.78C182.944 27.638 181.852 26.042 180.34 24.656ZM229.102 30.242C228.388 27.47 226.834 23.186 225.658 20.54C225.238 19.574 224.062 19.07 223.012 19.448C222.088 19.742 221.626 20.876 222.13 21.8C222.718 22.934 223.306 24.236 223.768 25.538C220.828 26.42 216.544 27.092 212.638 27.428C214.78 25.286 217.552 21.128 218.602 14.912C218.812 13.904 218.098 12.98 217.048 12.812C216.082 12.644 215.158 13.358 214.99 14.324C214.318 17.978 212.596 22.808 208.564 26.504C206.632 28.268 207.388 31.334 209.74 31.208C215.284 30.872 220.954 30.074 224.86 28.856C225.112 29.654 225.322 30.41 225.49 31.124C225.742 32.09 226.708 32.72 227.674 32.468C228.724 32.216 229.354 31.25 229.102 30.242ZM207.472 40.364C206.674 39.734 205.708 39.062 204.616 38.39C206.38 34.442 207.388 29.612 207.682 23.9C207.766 22.388 206.506 21.128 204.994 21.128H200.92C201.13 18.86 201.172 16.718 201.214 14.828C201.256 13.82 200.458 13.022 199.492 13.022C198.484 13.064 197.686 13.862 197.686 14.828C197.644 17.012 197.56 19.112 197.392 21.128H194.746C193.822 21.128 193.024 21.884 193.024 22.85C193.024 23.816 193.822 24.614 194.746 24.614H197.014C196.51 28.352 195.67 31.838 194.2 34.946C193.612 36.248 194.284 37.718 195.628 38.138C197.014 38.558 198.442 39.104 199.786 39.776C198.316 41.96 196.384 43.934 193.822 45.572C192.982 46.16 192.646 47.21 193.108 48.092C193.528 49.016 194.662 49.352 195.502 48.848C198.568 47 201.046 44.564 202.936 41.54C203.986 42.212 204.952 42.926 205.75 43.64C206.506 44.27 207.64 44.06 208.06 43.22C208.522 42.212 208.312 40.994 207.472 40.364ZM197.98 35.198C199.324 32.09 200.122 28.31 200.584 24.614H204.07C203.818 28.772 203.188 32.93 201.508 36.668C200.248 36.038 198.988 35.534 197.98 35.198ZM212.344 32.636C210.832 32.636 209.572 33.896 209.572 35.408V46.538C209.572 48.092 210.832 49.31 212.344 49.31H224.23C225.784 49.31 227.002 48.05 227.002 46.538V35.408C227.002 33.854 225.742 32.636 224.23 32.636H212.344ZM213.184 45.782V36.164H223.39V45.782H213.184ZM258.25 22.472C258.838 20.708 259.3 19.112 259.636 17.852C259.888 16.844 259.3 15.878 258.334 15.626C257.326 15.374 256.36 16.004 256.108 16.97C255.604 18.776 255.016 20.666 254.386 22.43C251.32 22.85 248.632 23.816 246.406 25.16C246.07 23.186 245.944 21.338 245.902 19.784C245.902 18.818 245.062 17.978 244.096 17.978C243.046 17.978 242.248 18.776 242.248 19.826C242.332 22.514 242.626 25.118 243.13 27.554C236.158 33.98 235.78 43.976 241.996 45.11C247.708 46.16 255.058 31.46 256.99 26C267.742 26.21 268.456 41.498 255.142 42.506C254.092 42.59 253.294 43.472 253.378 44.522C253.462 45.572 254.386 46.37 255.436 46.244C273.958 44.06 271.312 23.522 258.25 22.472ZM249.178 33.98C248.296 32.3 247.666 30.536 247.204 28.772C248.884 27.638 250.816 26.798 252.874 26.378C251.572 29.444 250.312 31.964 249.178 33.98ZM241.492 35.702C241.954 34.274 242.878 32.762 244.138 31.376C244.852 33.686 245.818 35.786 246.91 37.592C242.248 44.186 239.812 41.708 241.492 35.702ZM312.934 39.482C312.22 38.768 311.086 38.81 310.414 39.524C305.038 44.942 302.98 40.574 305.5 28.94C306.592 23.816 304.45 21.758 299.41 22.976C296.848 23.606 293.572 25.202 290.296 27.554V27.512C290.842 26.84 291.43 26.126 292.018 25.454C292.69 24.698 292.606 23.564 291.808 22.934C291.43 22.64 291.01 22.514 290.548 22.556C290.758 20.288 290.968 18.272 291.262 16.55C291.43 15.542 290.8 14.576 289.834 14.366C288.826 14.156 287.86 14.786 287.692 15.752C287.356 17.936 287.104 20.456 286.894 23.144C284.458 23.69 281.728 23.9 279.628 23.984C278.662 23.984 277.822 24.782 277.822 25.79C277.822 26.798 278.662 27.596 279.67 27.554C281.686 27.428 284.332 27.092 286.726 26.63V26.756C283.114 31.922 279.922 37.76 278.074 42.548C277.738 43.514 278.2 44.522 279.166 44.858C280.132 45.152 281.098 44.648 281.434 43.724C281.77 42.716 282.148 41.708 282.526 40.7C283.828 38.516 285.214 36.626 286.642 35.03C286.684 39.65 286.978 43.934 287.44 47.084C287.608 48.092 288.532 48.764 289.582 48.596C290.548 48.428 291.22 47.462 291.094 46.496C290.506 41.876 290.212 36.626 290.212 31.628C292.816 29.57 295.504 28.1 298.36 26.798C302.644 24.908 302.14 26.714 301.93 27.596C297.94 46.118 305.878 46.37 308.902 44.816C310.204 44.144 311.548 43.22 312.892 42.044C313.648 41.372 313.648 40.196 312.934 39.482ZM354.556 17.726C353.548 15.374 352.582 13.946 350.986 12.476C350.44 12.014 349.642 12.056 349.18 12.56C348.676 13.022 348.718 13.82 349.222 14.282C350.566 15.584 351.49 17.012 352.204 18.734C352.456 19.448 353.212 19.742 353.842 19.49C354.514 19.196 354.85 18.398 354.556 17.726ZM345.82 16.088C347.164 17.264 348.004 18.524 348.676 20.33C348.97 21.002 349.726 21.338 350.398 21.044C351.07 20.75 351.406 19.952 351.112 19.238C350.23 17.138 349.138 15.5 347.584 14.114C347.038 13.61 346.198 13.694 345.694 14.24C345.232 14.786 345.316 15.626 345.82 16.088ZM351.742 42.254C349.894 40.952 347.542 39.818 345.022 38.978C345.022 35.618 344.812 31.334 344.518 27.302C346.576 27.176 348.424 27.008 349.936 26.882C350.902 26.756 351.658 25.874 351.616 24.908C351.532 23.9 350.692 23.186 349.684 23.27C348.088 23.438 346.24 23.564 344.224 23.69C343.972 20.834 343.678 18.272 343.384 16.508C343.216 15.5 342.25 14.828 341.284 14.996C340.318 15.122 339.646 16.046 339.814 17.012C340.108 18.734 340.36 21.17 340.612 23.858C337.126 24.026 333.514 24.11 330.28 24.068C329.272 24.068 328.432 24.866 328.432 25.874C328.432 26.882 329.23 27.722 330.238 27.722C333.766 27.722 337.462 27.638 340.906 27.47C341.158 31.124 341.368 34.904 341.368 38.012C335.53 36.878 329.986 37.718 329.65 42.296C329.398 45.53 332.716 48.008 337.252 48.008C341.452 48.008 344.098 46.076 344.77 42.59C346.45 43.262 348.046 44.144 349.558 45.236C350.398 45.782 351.532 45.656 352.12 44.858C352.708 43.976 352.582 42.842 351.742 42.254ZM326.29 15.5C325.324 15.206 324.274 15.71 323.98 16.676C321.418 25.37 321.25 37.088 323.644 46.454C323.896 47.462 324.862 48.008 325.87 47.714C326.794 47.42 327.34 46.412 327.088 45.446C324.442 35.198 325.702 24.026 327.466 17.81C327.718 16.844 327.214 15.836 326.29 15.5ZM337.252 44.354C332.758 44.354 331.414 40.952 337 41.12C338.47 41.162 339.856 41.288 341.242 41.582C340.99 43.598 339.898 44.354 337.252 44.354ZM365.266 49.394C366.82 51.956 370.558 49.394 368.878 47.042C367.114 44.396 365.182 42.506 363.208 40.952C361.108 39.314 358.378 42.422 360.604 44.186C362.326 45.53 363.922 47.294 365.266 49.394ZM408.358 25.874C408.358 26.882 409.156 27.638 410.122 27.638C411.088 27.638 411.886 26.882 411.886 25.874V18.146C412.768 17.264 413.608 16.382 414.28 15.542C414.91 14.786 414.7 13.652 413.818 13.148C413.02 12.602 411.886 12.854 411.298 13.652C409.408 16.088 406.384 18.65 403.738 20.162C402.898 20.624 402.52 21.632 402.856 22.514C403.234 23.396 404.284 23.816 405.082 23.354C406.132 22.808 407.266 22.052 408.358 21.212V25.874ZM418.438 18.02L423.268 17.684V19.112H414.028C413.146 19.112 412.39 19.826 412.39 20.708C412.39 21.632 413.146 22.346 414.028 22.346H423.268V23.942H416.506C415.624 23.942 414.868 24.656 414.868 25.58C414.868 26.42 415.624 27.176 416.506 27.176H434.314C435.196 27.176 435.91 26.462 435.91 25.58C435.91 24.656 435.196 23.942 434.314 23.942H426.88V22.346H436.372C437.254 22.346 438.01 21.632 438.01 20.708C438.01 19.826 437.254 19.112 436.372 19.112H426.88V17.348C429.022 17.138 431.038 16.928 432.466 16.718C433.39 16.592 434.02 15.752 433.894 14.828C433.768 13.904 432.886 13.316 432.004 13.442C428.392 13.946 421.546 14.492 418.228 14.702C417.304 14.744 416.59 15.542 416.674 16.466C416.716 17.348 417.514 18.062 418.438 18.02ZM436.246 45.992C434.188 45.656 432.382 45.236 430.744 44.69C432.13 44.522 433.222 43.304 433.222 41.918V30.998C433.222 29.444 431.962 28.226 430.45 28.226H411.592C410.038 28.226 408.82 29.486 408.82 30.998V41.918C408.82 43.388 409.954 44.564 411.382 44.69C409.744 45.236 407.938 45.656 405.922 45.95C404.956 46.118 404.284 47 404.452 47.966C404.62 48.974 405.502 49.688 406.51 49.562C409.492 49.142 412.768 48.134 414.952 47.21C415.96 46.832 416.464 45.74 416.128 44.69H425.872C425.536 45.656 425.956 46.706 426.88 47.084C429.4 48.302 432.844 49.184 435.532 49.604C436.54 49.73 437.506 49.058 437.716 48.05C437.926 47.084 437.254 46.16 436.246 45.992ZM429.61 32.636H412.348V31.46H429.61V32.636ZM412.348 35.87H429.61V37.046H412.348V35.87ZM412.348 40.28H429.61V41.456H412.348V40.28ZM480.766 24.026C480.388 23.144 479.338 22.682 478.456 23.06C475.768 24.068 473.878 24.446 471.106 22.262C470.602 21.884 470.098 21.422 469.594 20.876C472.87 20.372 476.062 19.826 478.456 19.364C479.422 19.196 480.052 18.23 479.884 17.306C479.674 16.34 478.75 15.752 477.826 15.92C476.776 16.13 475.558 16.34 474.256 16.55C474.55 16.382 474.76 16.088 474.886 15.752C475.096 14.912 474.634 14.114 473.836 13.904C472.198 13.568 469.804 13.19 467.704 13.064C466.906 13.022 466.192 13.694 466.192 14.534C466.192 15.332 466.864 16.046 467.704 16.088C469.426 16.214 471.526 16.508 472.912 16.802C471.064 17.096 469.048 17.39 467.032 17.684C466.234 16.55 465.394 15.248 464.554 13.778C464.05 12.938 463 12.602 462.118 13.064C461.278 13.568 460.942 14.618 461.446 15.458C461.992 16.466 462.58 17.348 463.126 18.23C461.026 18.482 458.968 18.734 457.204 18.902C456.28 19.028 455.566 19.868 455.692 20.834C455.818 21.758 456.658 22.472 457.624 22.388C459.892 22.178 462.622 21.842 465.436 21.464C466.612 22.934 467.788 24.11 468.922 25.034C470.098 25.958 471.316 26.63 472.534 27.008H453.34C451.828 27.008 450.568 28.268 450.568 29.78V41.414C450.568 42.968 451.828 44.186 453.34 44.186H454.138C452.29 44.942 450.19 45.488 447.838 45.866C446.83 46.034 446.116 46.958 446.2 47.924C446.326 48.974 447.25 49.73 448.258 49.562C451.24 49.142 454.642 48.092 456.952 46.916C457.876 46.454 458.296 45.362 457.918 44.354C457.918 44.312 457.876 44.228 457.834 44.186H467.998C467.998 44.228 467.956 44.27 467.956 44.312C467.578 45.32 468.04 46.454 468.964 46.916C471.526 48.176 474.802 49.1 477.532 49.52C478.54 49.688 479.464 48.974 479.632 47.966C479.758 46.958 479.044 46.034 478.036 45.866C475.684 45.488 473.626 44.9 471.82 44.186H472.702C474.214 44.186 475.474 42.968 475.474 41.414V29.78C475.474 28.73 474.886 27.806 474.004 27.302C474.466 27.386 474.928 27.386 475.39 27.386C476.944 27.302 478.372 26.84 479.758 26.336C480.682 26 481.102 24.95 480.766 24.026ZM447.376 22.472C448.384 22.094 449.434 21.59 450.4 21.044V25.118C450.4 26.126 451.24 26.924 452.206 26.924C453.214 26.924 454.012 26.084 454.012 25.118V18.566C454.978 17.768 455.86 16.886 456.616 15.962C457.204 15.206 457.078 14.072 456.28 13.442C455.524 12.854 454.432 13.022 453.844 13.736C451.996 15.92 449.35 17.852 446.41 19.028C445.486 19.406 444.982 20.414 445.192 21.338C445.444 22.304 446.452 22.85 447.376 22.472ZM471.862 31.67H454.138V30.326H471.862V31.67ZM471.862 36.29H454.138V34.904H471.862V36.29ZM454.138 39.524H471.862V40.91H454.138V39.524ZM490.132 28.478C491.098 28.478 491.896 27.638 491.896 26.672V21.884H503.236V28.94C503.236 29.906 504.034 30.704 505 30.704C505.966 30.704 506.764 29.906 506.764 28.94V21.884H518.104V26.672C518.104 27.68 518.902 28.478 519.91 28.478C520.876 28.478 521.674 27.638 521.674 26.672V21.17C521.674 19.616 520.414 18.398 518.902 18.398H506.764V16.55H518.608C519.574 16.55 520.33 15.752 520.33 14.828C520.33 13.862 519.532 13.106 518.608 13.106H491.392C490.426 13.106 489.67 13.904 489.67 14.828C489.67 15.794 490.468 16.55 491.392 16.55H503.236V18.398H491.098C489.544 18.398 488.326 19.658 488.326 21.17V26.672C488.326 27.68 489.124 28.478 490.132 28.478ZM494.206 22.808C493.408 22.808 492.694 23.522 492.694 24.362C492.694 25.202 493.366 25.916 494.206 25.916H500.884C501.724 25.916 502.438 25.202 502.438 24.362C502.438 23.522 501.766 22.808 500.884 22.808H494.206ZM509.116 22.808C508.276 22.808 507.562 23.522 507.562 24.362C507.562 25.202 508.234 25.916 509.116 25.916H515.794C516.592 25.916 517.306 25.202 517.306 24.362C517.306 23.522 516.634 22.808 515.794 22.808H509.116ZM494.206 26.924C493.408 26.924 492.694 27.596 492.694 28.436C492.694 29.276 493.366 29.99 494.206 29.99H500.884C501.724 29.99 502.438 29.318 502.438 28.436C502.438 27.638 501.724 26.924 500.884 26.924H494.206ZM509.116 26.924C508.276 26.924 507.562 27.596 507.562 28.436C507.562 29.276 508.234 29.99 509.116 29.99H515.794C516.592 29.99 517.306 29.276 517.306 28.436C517.306 27.638 516.634 26.924 515.794 26.924H509.116ZM488.704 31.418C487.78 31.418 487.024 32.174 487.024 33.098C487.024 34.022 487.78 34.778 488.704 34.778H501.976C501.472 35.66 500.842 36.416 500.002 37.088H492.862C491.35 37.088 490.09 38.348 490.09 39.86V47.882C490.09 48.848 490.93 49.688 491.896 49.688C492.904 49.688 493.702 48.848 493.702 47.882V40.574H499.372V47.672C499.372 48.638 500.17 49.394 501.094 49.394C502.06 49.394 502.816 48.596 502.816 47.672V40.574H507.184V47.672C507.184 48.638 507.982 49.394 508.906 49.394C509.83 49.394 510.628 48.638 510.628 47.672V40.574H516.298V45.656C516.298 46.16 516.298 46.202 515.29 46.16C514.282 46.16 513.442 46.874 513.358 47.882C513.316 48.932 514.114 49.772 515.122 49.814C518.482 49.814 519.91 48.596 519.91 45.656V39.86C519.91 38.348 518.65 37.088 517.138 37.088H504.706C505.168 36.374 505.588 35.618 505.924 34.778H521.296C522.22 34.778 522.976 34.022 522.976 33.098C522.976 32.174 522.22 31.418 521.296 31.418H488.704ZM563.632 45.698C560.566 44.648 556.156 43.304 552.67 42.422C554.266 40.994 555.694 39.356 557.122 37.382H563.212C564.178 37.382 564.976 36.584 564.976 35.576C564.976 34.568 564.178 33.77 563.212 33.77H544.858L545.362 32.426C545.53 31.796 545.362 31.124 544.942 30.704H558.844C560.398 30.704 561.616 29.444 561.616 27.932V22.724C561.616 21.17 560.356 19.952 558.844 19.952H552.796V17.264H563.128C564.094 17.264 564.934 16.466 564.934 15.458C564.934 14.45 564.094 13.652 563.128 13.652H530.872C529.864 13.652 529.066 14.492 529.066 15.458C529.066 16.424 529.864 17.264 530.872 17.264H541.204V19.952H535.156C533.602 19.952 532.384 21.212 532.384 22.724V27.932C532.384 29.444 533.644 30.704 535.156 30.704H542.296C542.086 30.956 541.876 31.25 541.792 31.586C541.54 32.3 541.246 33.056 540.868 33.77H530.788C529.822 33.77 529.024 34.61 529.024 35.576C529.024 36.584 529.822 37.382 530.788 37.382H538.432C537.676 38.306 536.794 39.146 535.828 39.986C534.526 41.12 535.198 43.262 536.962 43.388C538.684 43.514 540.532 43.682 542.296 43.934C539.23 44.9 535.408 45.572 530.536 45.95C529.528 46.034 528.73 46.916 528.856 47.966C528.94 48.974 529.864 49.772 530.914 49.688C538.81 48.974 544.312 47.714 548.638 45.278C553.048 46.286 558.886 48.05 562.498 49.268C563.464 49.604 564.514 49.1 564.85 48.092C565.144 47.126 564.598 46.034 563.632 45.698ZM549.226 17.264V19.952H544.774V17.264H549.226ZM541.204 23.522V27.092H536.08V23.522H541.204ZM544.774 23.522H549.226V27.092H544.774V23.522ZM557.878 27.092H552.796V23.522H557.878V27.092ZM540.742 40.322C541.288 39.734 542.128 38.684 542.926 37.382H552.334C551.074 38.936 549.646 40.28 547.882 41.414C545.362 40.91 542.968 40.532 540.742 40.322ZM594.838 28.646C593.956 28.1 592.864 28.394 592.318 29.318C591.856 30.158 592.15 31.25 592.99 31.796C596.854 34.19 598.324 36.836 597.82 40.364C597.064 45.194 589.336 46.328 588.496 40.574C588.412 39.986 588.37 39.44 588.328 38.852C589.42 38.894 590.554 38.936 591.814 38.936C592.822 38.936 593.662 38.096 593.704 37.088C593.746 36.08 592.906 35.282 591.898 35.324C590.68 35.366 589.504 35.408 588.37 35.366C588.748 29.528 590.428 23.06 588.286 15.962C587.992 14.954 586.9 14.408 585.892 14.702C584.926 14.996 584.422 16.046 584.674 17.012C586.396 22.976 585.094 29.444 584.632 35.072C581.818 34.652 580.264 33.854 581.482 32.804C582.196 32.174 582.406 31.25 581.944 30.578C581.44 29.738 580.432 29.444 579.634 29.864C576.232 31.712 576.358 35.45 579.844 37.256C580.894 37.802 582.448 38.18 584.506 38.474C584.506 41.078 584.926 43.388 586.228 45.236C589.546 49.898 600.718 49.436 601.6 39.944C602.062 34.652 597.988 30.662 594.838 28.646ZM582.616 27.008C583.54 27.386 584.59 26.882 584.926 25.958C585.22 25.034 584.758 23.984 583.834 23.606C582.406 22.976 580.642 22.094 579.34 21.338C578.416 20.834 577.282 21.128 576.778 22.01C576.274 22.976 576.568 24.152 577.492 24.656C579.046 25.496 581.188 26.42 582.616 27.008ZM632.848 16.004V14.618C632.848 13.568 632.008 12.77 631 12.77C629.992 12.77 629.152 13.61 629.152 14.618V16.004H615.376C614.368 16.004 613.57 16.844 613.57 17.81C613.57 18.776 614.368 19.616 615.376 19.616H646.624C647.59 19.616 648.43 18.818 648.43 17.81C648.43 16.802 647.59 16.004 646.624 16.004H632.848ZM637.93 30.41C639.484 30.41 640.702 29.15 640.702 27.638V23.984C640.702 22.472 639.442 21.212 637.93 21.212H624.07C622.516 21.212 621.298 22.514 621.298 23.984V27.638C621.298 29.192 622.558 30.41 624.07 30.41H637.93ZM637.132 24.572V27.05H624.868V24.572H637.132ZM617.56 32.048C616.048 32.048 614.788 33.308 614.788 34.82V47.84C614.788 48.848 615.628 49.688 616.678 49.688C617.686 49.688 618.526 48.848 618.526 47.84V35.576H643.516V45.278C643.516 45.824 642.97 45.992 640.912 45.908C639.862 45.866 638.98 46.664 638.98 47.672C638.938 48.764 639.778 49.646 640.828 49.688C645.028 49.688 647.17 48.26 647.17 45.278V34.82C647.17 33.266 645.91 32.048 644.398 32.048H617.56ZM626.086 37.172C624.574 37.172 623.314 38.432 623.314 39.944V43.472C623.314 45.026 624.574 46.244 626.086 46.244H635.914C637.426 46.244 638.686 44.984 638.686 43.472V39.944C638.686 38.39 637.426 37.172 635.914 37.172H626.086ZM626.884 42.842V40.574H635.116V42.842H626.884ZM678.124 48.26C679.09 47.84 679.594 46.706 679.216 45.698C676.822 39.566 674.05 35.912 670.816 32.426C668.674 30.074 668.632 30.116 670.69 27.806C673.504 24.74 675.898 21.968 678.334 16.466C678.754 15.5 678.292 14.324 677.326 13.904C676.36 13.442 675.226 13.904 674.806 14.87C670.564 24.446 665.398 26.378 665.398 29.78C665.398 34.148 670.102 34.232 675.604 47.21C675.982 48.176 677.116 48.68 678.124 48.26ZM701.266 49.394C702.82 51.956 706.558 49.394 704.878 47.042C703.114 44.396 701.182 42.506 699.208 40.952C697.108 39.314 694.378 42.422 696.604 44.186C698.326 45.53 699.922 47.294 701.266 49.394ZM26.872 89.168C29.392 87.656 31.576 85.556 33.256 83.288H57.994C58.96 83.288 59.758 82.49 59.758 81.482C59.758 80.516 58.96 79.676 57.994 79.676H35.524C35.818 79.088 36.07 78.5 36.322 77.912C36.742 76.946 36.196 75.896 35.188 75.602C34.222 75.308 33.172 75.854 32.752 76.82C31.282 80.432 28.762 83.498 25.402 85.556C24.478 86.144 24.058 87.278 24.436 88.244C24.814 89.252 25.948 89.672 26.872 89.168ZM59.17 98.24C60.178 98.24 61.018 97.4 61.018 96.434C61.018 95.468 60.178 94.628 59.17 94.628H55.768L56.23 88.58C56.314 87.068 55.138 85.766 53.626 85.766H34.642C33.13 85.766 31.87 86.984 31.702 88.538C31.534 90.428 31.282 92.486 30.862 94.628H26.83C25.822 94.628 24.982 95.468 24.982 96.434C24.982 97.4 25.822 98.24 26.83 98.24H30.148C29.644 100.466 29.056 102.692 28.384 104.75C27.922 106.052 28.93 107.438 30.274 107.438H50.812C50.224 109.454 47.788 109.286 45.226 108.908C44.218 108.74 43.252 109.454 43.168 110.504C43.042 111.554 43.756 112.52 44.806 112.646C50.854 113.318 53.794 111.764 54.592 107.438H57.574C58.498 107.438 59.296 106.682 59.296 105.716C59.296 104.75 58.498 103.952 57.574 103.952H55.012C55.18 102.314 55.348 100.298 55.516 98.24H59.17ZM41.572 89.252C41.488 90.764 41.278 92.654 41.026 94.628H34.6C34.936 92.78 35.188 90.974 35.314 89.252H41.572ZM44.68 94.628C44.932 92.696 45.1 90.848 45.184 89.252H52.492C52.366 90.848 52.24 92.696 52.114 94.628H44.68ZM40.522 98.24C40.144 100.256 39.766 102.272 39.262 103.952H32.458C33.004 102.104 33.466 100.172 33.886 98.24H40.522ZM43.042 103.952C43.462 102.272 43.84 100.34 44.176 98.24H51.82C51.652 100.34 51.484 102.356 51.316 103.952H43.042ZM77.02 77.03C75.466 77.03 74.248 78.29 74.248 79.802V88.958C74.248 95.258 73.702 103.07 70.048 110.294C69.586 111.218 70.006 112.268 70.972 112.604C71.98 112.94 73.072 112.478 73.534 111.554C75.256 108.068 76.39 104.204 77.062 100.214H92.896V107.858C92.896 108.824 92.854 108.95 89.62 108.782C88.612 108.74 87.772 109.496 87.73 110.504C87.688 111.512 88.444 112.436 89.452 112.478C94.45 112.772 96.55 111.428 96.55 107.858V79.802C96.55 78.29 95.29 77.03 93.778 77.03H77.02ZM92.896 86.816H77.902V80.642H92.896V86.816ZM77.524 96.602C77.734 94.544 77.86 92.486 77.902 90.428H92.896V96.602H77.524ZM112.048 88.118C113.056 88.118 113.854 87.278 113.854 86.27V83.54H140.104V86.27C140.104 87.278 140.944 88.118 141.994 88.118C142.96 88.118 143.842 87.278 143.842 86.27V82.7C143.842 81.146 142.582 79.928 141.07 79.928H128.848V77.282C128.848 76.232 128.008 75.434 127 75.434C125.992 75.434 125.152 76.274 125.152 77.282V79.928H112.972C111.418 79.928 110.2 81.188 110.2 82.7V86.27C110.2 87.278 111.04 88.118 112.048 88.118ZM144.136 109.328C139.81 106.598 136.24 104.498 131.998 102.86C134.476 100.256 136.03 97.274 137.164 94.292H143.002C144.01 94.292 144.808 93.494 144.808 92.486C144.85 91.52 144.01 90.68 143.002 90.68H123.724C124.06 89.378 124.354 87.95 124.564 86.438C124.732 85.388 123.976 84.422 122.968 84.296C121.96 84.128 121.036 84.884 120.868 85.892C120.658 87.614 120.322 89.168 119.902 90.68H110.998C109.99 90.68 109.192 91.52 109.192 92.486C109.192 93.452 109.99 94.292 110.998 94.292H118.6C117.844 96.014 116.92 97.568 115.828 99.08C114.778 100.55 115.66 102.65 117.508 102.818C119.734 103.028 122.128 103.448 124.648 104.12C120.994 106.262 116.374 107.606 110.494 108.362C109.444 108.53 108.73 109.454 108.856 110.504C109.024 111.512 109.99 112.268 111.04 112.142C119.398 110.924 125.11 108.572 129.1 105.506C133.174 107.018 137.584 109.244 142.372 112.478C143.212 113.066 144.346 112.772 144.808 111.89C145.27 111.008 144.976 109.874 144.136 109.328ZM119.86 99.71C120.7 98.45 121.708 96.602 122.59 94.292H133.132C131.872 97.19 130.234 99.584 128.092 101.558C125.698 100.844 123.01 100.214 119.86 99.71ZM154.3 88.454C155.266 88.454 156.106 87.656 156.106 86.606V83.12H181.894V86.606C181.894 87.656 182.734 88.454 183.742 88.454C184.75 88.454 185.548 87.614 185.548 86.606V82.322C185.548 80.768 184.288 79.55 182.776 79.55H170.89V77.492C170.89 76.484 170.05 75.686 169.042 75.686C168.034 75.686 167.194 76.484 167.194 77.492V79.55H155.224C153.712 79.55 152.452 80.81 152.452 82.322V86.606C152.452 87.614 153.292 88.454 154.3 88.454ZM175.048 108.74C173.536 108.74 172.192 108.614 170.974 108.32V99.92H180.34C181.348 99.92 182.146 99.122 182.146 98.156C182.146 97.148 181.306 96.35 180.34 96.35H170.974V91.016H179.794C180.76 91.016 181.6 90.218 181.6 89.21C181.6 88.202 180.76 87.404 179.794 87.404H158.248C157.282 87.404 156.442 88.202 156.442 89.21C156.442 90.176 157.24 91.016 158.248 91.016H167.32V106.85C164.842 105.296 163.036 102.86 161.104 99.542C161.482 98.366 161.776 97.19 161.986 96.014C162.154 95.006 161.44 94.04 160.432 93.83C159.424 93.662 158.5 94.376 158.29 95.342C157.408 100.13 154.93 105.59 151.36 109.202C150.646 109.958 150.562 111.092 151.192 111.848C151.864 112.688 153.082 112.772 153.796 112.016C155.98 109.832 157.954 106.892 159.466 103.7C163.498 109.832 168.076 112.31 175.048 112.31H185.212C186.178 112.31 186.976 111.512 186.976 110.504C186.976 109.538 186.178 108.74 185.212 108.74H175.048ZM204.448 108.32C210.16 113.318 218.812 110.882 224.398 102.902C225.028 102.02 224.86 100.76 224.02 100.004C223.264 99.332 222.088 99.458 221.458 100.298C216.25 107.438 210.034 109.286 206.212 104.918C203.692 102.104 203.398 96.518 205.078 86.984C205.792 82.994 205.582 80.852 204.196 78.584C203.692 77.702 202.516 77.45 201.592 77.954C200.752 78.416 200.542 79.508 201.088 80.348C202.012 81.818 202.138 83.12 201.55 86.312C199.45 97.82 200.332 104.75 204.448 108.32ZM254.89 86.606C255.772 86.102 256.024 84.926 255.436 84.086C254.848 83.288 253.756 83.036 252.874 83.54C251.992 84.044 251.11 84.422 250.144 84.758C250.396 82.952 250.564 81.188 250.648 79.382C250.69 78.332 249.892 77.492 248.842 77.45C247.834 77.408 246.952 78.248 246.91 79.256C246.784 81.44 246.574 83.582 246.238 85.682C243.928 86.018 241.492 86.06 238.888 85.976C237.88 85.934 237.04 86.732 236.998 87.74C236.956 88.748 237.754 89.588 238.762 89.63C241.072 89.672 243.34 89.588 245.566 89.336C244.18 95.552 241.828 101.474 238.426 107.186C237.922 108.068 238.174 109.202 239.056 109.748C239.938 110.294 241.072 110.042 241.618 109.16C244.936 103.616 247.918 96.35 249.472 88.664C251.446 88.202 253.294 87.53 254.89 86.606ZM253.42 89.924C253.504 90.848 254.386 91.52 255.352 91.394C259.258 90.932 263.08 91.436 266.104 92.78C267.028 93.2 268.12 92.822 268.498 91.94C268.918 90.974 268.498 89.84 267.574 89.42C264.214 87.992 259.426 87.404 255.016 87.908C254.05 88.034 253.336 88.916 253.42 89.924ZM269.632 106.64C269.422 105.674 268.414 105.086 267.448 105.338C262.072 106.808 257.032 106.094 252.748 103.28C251.908 102.734 250.774 102.902 250.228 103.7C249.598 104.54 249.808 105.716 250.648 106.262C255.898 109.79 262.03 110.756 268.246 108.992C269.254 108.698 269.842 107.648 269.632 106.64ZM279.712 87.236C280.72 87.236 281.518 86.396 281.518 85.388V82.322H308.062V85.388C308.062 86.396 308.86 87.236 309.868 87.236C310.876 87.236 311.716 86.438 311.716 85.388V81.65C311.716 80.096 310.456 78.878 308.944 78.878H296.806V77.324C296.806 76.316 295.966 75.518 295 75.518C293.992 75.518 293.194 76.358 293.194 77.324V78.878H280.636C279.124 78.878 277.864 80.138 277.864 81.65V85.388C277.864 86.396 278.704 87.236 279.712 87.236ZM312.43 106.64C309.616 104.54 307.348 102.062 305.584 99.332C307.684 98.198 309.868 96.476 311.632 94.502C312.304 93.746 312.262 92.528 311.506 91.73C310.834 91.016 309.7 91.1 309.028 91.856C307.39 93.83 305.374 95.342 303.736 96.266C302.476 93.788 301.51 91.226 300.838 88.748H305.668C306.634 88.748 307.432 87.95 307.432 86.984C307.432 86.018 306.634 85.22 305.668 85.22H284.332C283.366 85.22 282.568 86.018 282.568 86.984C282.568 87.95 283.366 88.748 284.332 88.748H290.296C287.734 90.47 283.954 92.066 280.048 93.032C279.04 93.284 278.368 94.25 278.578 95.258C278.746 96.308 279.754 96.938 280.72 96.686C283.618 95.93 287.524 94.544 290.884 92.612C291.346 93.284 291.766 94.082 292.186 94.838C289.162 97.022 284.038 99.248 279.208 100.382C278.242 100.592 277.612 101.558 277.78 102.524C277.99 103.532 278.956 104.162 279.922 103.952C284.71 102.902 290.212 100.466 293.782 98.114C294.118 98.87 294.412 99.584 294.706 100.298C290.758 103.322 284.71 105.8 278.746 106.892C277.78 107.102 277.108 107.984 277.234 108.992C277.402 109.958 278.326 110.63 279.292 110.462C285.97 109.286 292.018 106.556 295.966 103.784C296.344 104.96 296.596 105.884 296.68 106.472C296.974 108.53 295.714 109.202 291.598 109.16C290.59 109.118 289.75 109.916 289.75 110.882C289.708 111.89 290.506 112.73 291.514 112.772C297.982 112.94 300.88 110.672 300.208 106.01C299.788 102.902 296.89 95.468 293.866 90.596C294.58 90.008 295.21 89.378 295.756 88.748H297.016C299.284 97.19 303.862 104.54 310.162 109.664C311.002 110.336 312.22 110.21 312.85 109.328C313.48 108.488 313.27 107.27 312.43 106.64ZM324.358 88.874C324.358 89.882 325.156 90.638 326.122 90.638C327.088 90.638 327.886 89.882 327.886 88.874V81.146C328.768 80.264 329.608 79.382 330.28 78.542C330.91 77.786 330.7 76.652 329.818 76.148C329.02 75.602 327.886 75.854 327.298 76.652C325.408 79.088 322.384 81.65 319.738 83.162C318.898 83.624 318.52 84.632 318.856 85.514C319.234 86.396 320.284 86.816 321.082 86.354C322.132 85.808 323.266 85.052 324.358 84.212V88.874ZM334.438 81.02L339.268 80.684V82.112H330.028C329.146 82.112 328.39 82.826 328.39 83.708C328.39 84.632 329.146 85.346 330.028 85.346H339.268V86.942H332.506C331.624 86.942 330.868 87.656 330.868 88.58C330.868 89.42 331.624 90.176 332.506 90.176H350.314C351.196 90.176 351.91 89.462 351.91 88.58C351.91 87.656 351.196 86.942 350.314 86.942H342.88V85.346H352.372C353.254 85.346 354.01 84.632 354.01 83.708C354.01 82.826 353.254 82.112 352.372 82.112H342.88V80.348C345.022 80.138 347.038 79.928 348.466 79.718C349.39 79.592 350.02 78.752 349.894 77.828C349.768 76.904 348.886 76.316 348.004 76.442C344.392 76.946 337.546 77.492 334.228 77.702C333.304 77.744 332.59 78.542 332.674 79.466C332.716 80.348 333.514 81.062 334.438 81.02ZM352.246 108.992C350.188 108.656 348.382 108.236 346.744 107.69C348.13 107.522 349.222 106.304 349.222 104.918V93.998C349.222 92.444 347.962 91.226 346.45 91.226H327.592C326.038 91.226 324.82 92.486 324.82 93.998V104.918C324.82 106.388 325.954 107.564 327.382 107.69C325.744 108.236 323.938 108.656 321.922 108.95C320.956 109.118 320.284 110 320.452 110.966C320.62 111.974 321.502 112.688 322.51 112.562C325.492 112.142 328.768 111.134 330.952 110.21C331.96 109.832 332.464 108.74 332.128 107.69H341.872C341.536 108.656 341.956 109.706 342.88 110.084C345.4 111.302 348.844 112.184 351.532 112.604C352.54 112.73 353.506 112.058 353.716 111.05C353.926 110.084 353.254 109.16 352.246 108.992ZM345.61 95.636H328.348V94.46H345.61V95.636ZM328.348 98.87H345.61V100.046H328.348V98.87ZM328.348 103.28H345.61V104.456H328.348V103.28ZM372.196 76.064C371.188 76.064 370.39 76.862 370.39 77.87V98.66C369.34 99.374 368.206 100.046 367.03 100.592V82.28C367.03 81.272 366.19 80.432 365.182 80.432C364.174 80.432 363.334 81.272 363.334 82.28V102.02C362.956 102.146 362.536 102.272 362.158 102.356C361.192 102.608 360.52 103.574 360.73 104.54C360.898 105.59 361.906 106.22 362.872 105.968C365.35 105.296 368.122 104.162 370.39 102.944V110.882C370.39 111.89 371.23 112.688 372.196 112.688C373.204 112.688 374.044 111.848 374.044 110.882V77.87C374.044 76.862 373.204 76.064 372.196 76.064ZM396.556 109.034C393.07 107.354 390.382 104.96 388.366 102.188C392.02 96.896 394.33 90.176 395.212 82.196C395.38 80.726 394.204 79.424 392.65 79.424H376.648C375.64 79.424 374.842 80.264 374.842 81.23C374.842 82.196 375.64 83.036 376.648 83.036H391.39C390.55 89.252 388.828 94.46 386.182 98.744C383.872 94.46 382.696 89.798 382.024 85.766C381.856 84.758 380.848 84.086 379.882 84.338C378.832 84.59 378.16 85.598 378.328 86.606C379.252 92.108 381.1 97.4 383.914 101.936C381.562 104.75 378.706 107.06 375.346 108.908C374.422 109.412 374.002 110.462 374.338 111.428C374.674 112.352 375.766 112.814 376.648 112.352C380.344 110.462 383.494 108.026 386.098 105.086C388.576 108.194 391.558 110.714 395.128 112.436C396.052 112.856 397.144 112.436 397.522 111.47C397.9 110.546 397.48 109.454 396.556 109.034ZM438.304 108.95C431.374 104.96 423.814 93.242 423.352 82.238V80.054C423.352 78.542 422.092 77.282 420.58 77.282H412.642C411.634 77.282 410.836 78.122 410.836 79.13C410.836 80.138 411.676 80.936 412.642 80.936H419.656V81.104C419.32 94.838 411.592 104.372 403.57 108.782C402.688 109.286 402.268 110.294 402.52 111.26C402.814 112.226 403.864 112.73 404.746 112.352C411.676 109.286 418.48 101.264 421.504 91.856C424.528 100.886 430.744 109.454 437.212 112.478C438.094 112.898 439.144 112.352 439.396 111.386C439.648 110.462 439.186 109.454 438.304 108.95ZM458.926 85.262C459.388 83.036 459.766 80.894 459.976 78.836C460.06 77.828 459.304 76.946 458.338 76.862C457.372 76.82 456.49 77.534 456.406 78.5C456.154 80.894 455.776 83.414 455.272 85.934C453.046 86.354 451.45 86.438 449.266 86.228C448.258 86.186 447.376 86.858 447.25 87.824C447.166 88.874 447.88 89.756 448.846 89.798C450.946 89.966 452.626 89.882 454.39 89.63C452.668 96.14 450.022 102.65 446.452 108.068C445.906 108.866 446.116 110 446.872 110.588C447.712 111.176 448.846 110.966 449.392 110.126C453.13 104.414 456.196 96.518 458.128 88.874C464.512 87.572 464.512 90.344 464.344 91.898C462.874 105.716 461.656 107.564 456.364 104.75C455.44 104.246 454.348 104.582 453.886 105.464C453.382 106.388 453.718 107.522 454.6 107.984C460.396 110.924 464.302 109.412 465.982 103.574C466.57 101.516 467.578 96.644 467.914 92.234C468.166 89.546 467.662 84.128 458.926 85.262ZM481.48 82.616C480.472 80.264 479.506 78.836 477.91 77.366C477.364 76.904 476.566 76.946 476.104 77.45C475.6 77.912 475.642 78.71 476.146 79.172C477.49 80.474 478.414 81.902 479.086 83.624C479.38 84.338 480.136 84.632 480.766 84.338C481.438 84.086 481.774 83.288 481.48 82.616ZM475.6 85.22C475.852 85.892 476.65 86.228 477.322 85.934C477.994 85.64 478.33 84.842 478.036 84.128C477.154 82.028 476.02 80.39 474.508 79.004C473.962 78.5 473.122 78.584 472.618 79.13C472.156 79.676 472.24 80.474 472.744 80.978C474.088 82.154 474.928 83.414 475.6 85.22ZM472.45 85.388C471.694 84.506 470.392 84.422 469.468 85.178C468.67 85.85 468.586 87.068 469.342 87.908C472.366 91.142 475.558 96.308 477.07 101.81C477.364 102.86 478.456 103.49 479.506 103.154C480.598 102.734 481.228 101.558 480.85 100.55C479.338 95.846 475.474 89 472.45 85.388ZM522.304 108.95C515.374 104.96 507.814 93.242 507.352 82.238V80.054C507.352 78.542 506.092 77.282 504.58 77.282H496.642C495.634 77.282 494.836 78.122 494.836 79.13C494.836 80.138 495.676 80.936 496.642 80.936H503.656V81.104C503.32 94.838 495.592 104.372 487.57 108.782C486.688 109.286 486.268 110.294 486.52 111.26C486.814 112.226 487.864 112.73 488.746 112.352C495.676 109.286 502.48 101.264 505.504 91.856C508.528 100.886 514.744 109.454 521.212 112.478C522.094 112.898 523.144 112.352 523.396 111.386C523.648 110.462 523.186 109.454 522.304 108.95ZM545.824 108.656C563.464 107.732 563.758 89.756 553.258 88.748C546.958 88.16 540.91 93.326 535.576 92.57C534.652 92.402 533.77 92.99 533.602 93.872C533.392 94.88 533.98 95.846 534.946 95.972C542.17 97.064 549.688 90.134 554.686 92.738C559.6 95.342 556.576 104.96 545.614 105.254C544.648 105.254 543.934 106.052 543.976 106.976C544.018 107.984 544.858 108.698 545.824 108.656ZM596.77 85.094C598.576 84.674 600.256 84.17 601.852 83.582C602.818 83.204 603.28 82.112 602.902 81.146C602.482 80.222 601.432 79.76 600.466 80.096C593.536 82.616 585.388 83.498 576.274 82.784C575.266 82.7 574.342 83.456 574.216 84.464C574.132 85.514 574.888 86.438 575.896 86.48C580.852 86.9 585.724 86.816 590.26 86.27C582.826 92.99 583.12 101.012 586.018 105.17C589.084 109.622 595.006 111.638 600.802 110.168C601.852 109.916 602.482 108.824 602.272 107.732C602.062 106.724 601.054 106.136 600.046 106.43C596.686 107.354 592.192 107.144 589.294 103.364C585.262 98.114 588.622 90.218 596.77 85.094ZM636.124 111.26C637.09 110.84 637.594 109.706 637.216 108.698C634.822 102.566 632.05 98.912 628.816 95.426C626.674 93.074 626.632 93.116 628.69 90.806C631.504 87.74 633.898 84.968 636.334 79.466C636.754 78.5 636.292 77.324 635.326 76.904C634.36 76.442 633.226 76.904 632.806 77.87C628.564 87.446 623.398 89.378 623.398 92.78C623.398 97.148 628.102 97.232 633.604 110.21C633.982 111.176 635.116 111.68 636.124 111.26ZM672.412 111.092C682.114 111.092 688.708 104.498 686.398 97.148C684.676 91.562 677.158 89 667.792 93.83C670.648 89.798 673.462 86.522 677.284 83.12C678.082 82.406 678.334 81.272 677.914 80.306C677.494 79.382 676.402 78.92 675.436 79.256C672.034 80.39 668.506 80.516 664.264 80.264C663.256 80.222 662.374 80.978 662.29 81.986C662.248 83.036 663.004 83.918 664.012 83.96C666.742 84.086 669.934 83.96 672.034 83.582C667.918 87.824 663.886 93.242 660.19 98.786C659.728 99.5 659.938 100.466 660.652 100.928C661.366 101.39 662.332 101.306 663.004 100.76C668.296 96.014 672.832 94.124 677.662 94.67C682.954 95.3 684.382 100.046 682.156 103.28C681.022 104.876 679.216 106.178 676.99 106.934C671.74 100.592 667.876 99.29 665.608 103.322C664.138 105.884 664.852 111.092 672.412 111.092ZM673.504 107.648C670.9 107.774 668.884 107.102 668.38 105.884C667.96 104.582 669.304 102.692 673.504 107.648ZM715 103.616C715.924 103.616 716.638 102.86 716.638 101.978L717.184 79.55C717.226 78.332 716.218 77.324 715 77.324C713.782 77.324 712.774 78.332 712.816 79.55L713.362 101.978C713.362 102.86 714.076 103.616 715 103.616ZM715 111.428C716.596 111.428 717.898 110.126 717.898 108.572C717.898 106.976 716.596 105.674 715 105.674C713.446 105.674 712.102 106.976 712.102 108.572C712.102 110.168 713.446 111.428 715 111.428Z" fill="#E26956"/>
</svg>
