<svg width="849" height="56" viewBox="0 0 849 56" fill="none" xmlns="http://www.w3.org/2000/svg">
<mask id="path-1-outside-1_536:1139" maskUnits="userSpaceOnUse" x="0.25" y="0.799805" width="848" height="55" fill="black">
<rect fill="white" x="0.25" y="0.799805" width="848" height="55"/>
<path d="M8.45 21.7998C9.6 21.7998 10.6 20.7998 10.6 19.5998V15.1998H41.4V19.5998C41.4 20.7998 42.35 21.7998 43.6 21.7998C44.8 21.7998 45.75 20.7998 45.75 19.5998V14.1998C45.75 12.3998 44.25 10.9498 42.45 10.9498H28.2V8.14981C28.2 6.9498 27.2 5.94981 26 5.94981C24.8 5.94981 23.8 6.9498 23.8 8.14981V10.8998H9.55C7.75 10.9498 6.25 12.4498 6.25 14.1998V19.5998C6.25 20.7998 7.2 21.7998 8.45 21.7998ZM19.5 17.7998C17.85 22.6498 14.65 25.7998 9.45 27.6998C8.35 28.0998 7.75 29.2998 8.05 30.3998C8.4 31.5498 9.6 32.1998 10.7 31.8498C17 29.7498 21.55 25.3498 23.6 19.2498C24 18.0998 23.35 16.8498 22.2 16.4498C21.05 16.0498 19.85 16.6498 19.5 17.7998ZM28.95 16.4498C27.8 16.4498 26.8 17.4498 26.8 18.6498V22.7998C26.8 27.5498 29.65 29.7498 35.7 29.7498C39.05 29.7498 42 29.2998 44.95 27.3998C46 26.6998 46.25 25.2998 45.5 24.1998C44.85 23.2498 43.5 23.0998 42.5 23.7498C40.7 24.9498 38.8 25.4498 35.7 25.4498C31.35 25.4498 31.1 24.5998 31.1 22.7998V18.6498C31.1 17.4498 30.15 16.4498 28.95 16.4498ZM28.15 44.8498V36.6998H39.55C40.7 36.6998 41.65 35.7498 41.65 34.5498C41.7 33.3998 40.7 32.4498 39.55 32.4498H12.45C11.3 32.4498 10.3 33.3998 10.35 34.5498C10.35 35.7498 11.3 36.6998 12.45 36.6998H23.8V44.8498H7.4C6.25 44.8498 5.25 45.7998 5.25 46.9998C5.25 48.1998 6.25 49.1498 7.4 49.1498H44.6C45.8 49.1498 46.75 48.1498 46.75 46.9998C46.75 45.7998 45.75 44.8498 44.6 44.8498H28.15Z"/>
<path d="M58.3 19.5998C59.5 19.5998 60.5 18.5998 60.5 17.3998V13.8498H91.55V17.3998C91.55 18.5998 92.55 19.5998 93.7 19.5998C94.9 19.5998 95.9 18.5998 95.9 17.3998V12.9498C95.9 11.0998 94.4 9.64981 92.6 9.64981H78.2V8.0498C78.2 6.79981 77.2 5.7998 76 5.7998C74.8 5.7998 73.8 6.79981 73.8 8.0498V9.64981H59.45C57.6 9.64981 56.15 11.1498 56.15 12.9498V17.3998C56.15 18.5998 57.15 19.5998 58.3 19.5998ZM63.3 26.9498C60.7 28.1498 61.25 31.8498 63.95 31.7998C71.05 31.6998 80.2 31.3998 86.5 30.4498C87.1 31.4498 87.65 32.4498 88.1 33.2998C88.6 34.3998 89.9 34.8998 91 34.3998C92.15 33.8498 92.6 32.4998 92.05 31.4498C90.7 28.7498 88.5 25.1498 86.95 22.8498C86.2 21.7498 84.7 21.3998 83.5 22.0998C82.45 22.6998 82.2 24.0998 82.95 25.1498C83.25 25.5498 83.6 25.9998 83.95 26.4998C80.35 26.8998 75.7 27.1998 70.65 27.3498C71.9 26.3998 74.3 24.2998 75.85 21.3998H88.45C89.6 21.3998 90.6 20.4498 90.6 19.2498C90.6 18.0498 89.6 17.0998 88.45 17.0998H63.55C62.35 17.0998 61.4 18.0998 61.4 19.2498C61.4 20.3998 62.35 21.3998 63.55 21.3998H70.55C68.55 23.7998 65.7 25.8498 63.3 26.9498ZM78.2 45.1998V40.2998H90.2C91.4 40.2998 92.35 39.2998 92.35 38.1498C92.35 36.9498 91.35 35.9998 90.2 35.9998H78.2V33.6498C78.2 32.3998 77.2 31.4498 76 31.4498C74.8 31.4498 73.8 32.4498 73.8 33.6498V35.9998H61.8C60.6 35.9998 59.65 36.9998 59.65 38.1498C59.65 39.3498 60.65 40.2998 61.8 40.2998H73.8V45.1998H57.75C56.6 45.1998 55.6 46.1498 55.6 47.3498C55.6 48.5498 56.6 49.4998 57.75 49.4998H94.25C95.4 49.4998 96.4 48.5498 96.4 47.3498C96.4 46.1498 95.4 45.1998 94.25 45.1998H78.2Z"/>
<path d="M113.7 46.4998C114.8 46.1498 115.4 44.8998 115.1 43.7498C112.6 35.3998 112.7 22.3998 115.3 14.1998C115.65 13.0498 115.05 11.8498 113.9 11.4998C112.65 11.1998 111.4 11.8498 111 13.0498C108.2 21.7498 107.95 36.0498 110.85 45.0998C111.25 46.2498 112.5 46.8498 113.7 46.4998ZM121.7 20.9498C127.8 21.9998 135.2 21.7498 140.35 20.7498C141.5 20.5498 142.35 19.3498 142.15 18.1498C141.95 16.9998 140.85 16.1998 139.65 16.4498C134.9 17.4498 127.95 17.4998 122.3 16.6498C121.1 16.4998 120.05 17.2998 119.9 18.4498C119.75 19.6498 120.55 20.7498 121.7 20.9498ZM143.1 42.7498C144.25 42.3498 144.9 41.0998 144.55 39.8498C144.25 38.7498 143 38.0998 141.85 38.4998C134.3 41.1498 126.25 40.1498 121.6 36.0498C120.7 35.2998 119.35 35.2998 118.65 36.1498C117.75 37.0498 117.75 38.4998 118.65 39.2498C125.2 45.5498 136.15 45.0998 143.1 42.7498Z"/>
<path d="M179.05 17.4998C180.1 16.9498 180.55 15.5998 180.05 14.4498C179.55 13.3998 178.3 12.9998 177.2 13.5498C175.8 14.2498 174.3 14.8498 172.7 15.3498C173.2 13.6498 173.7 11.9998 174.1 10.4998C174.4 9.34981 173.7 8.14981 172.55 7.8498C171.35 7.49981 170.2 8.19981 169.9 9.39981C169.3 11.6498 168.65 13.9998 167.9 16.3998C165.4 16.7998 162.9 16.9498 160.65 16.8998C159.45 16.8498 158.45 17.7498 158.3 18.8998C158.2 20.0998 159.05 21.1498 160.25 21.2498C162.25 21.3498 164.3 21.2498 166.4 21.0498C164.3 26.9998 161.5 33.2998 157.4 39.6498C156.75 40.6498 157 42.0498 158 42.7498C159.05 43.3998 160.45 43.1498 161.1 42.0998C165.65 35.0998 168.85 27.2498 171.15 20.2498C174.05 19.5998 176.75 18.6498 179.05 17.4998ZM193.7 41.2498C191.65 39.6998 188.45 37.4998 184.65 36.1998C183.25 27.6998 184.1 25.7998 189.2 25.2998C194.4 24.7998 193.4 17.6498 181.8 18.1498C180.55 18.1998 179.65 19.2498 179.75 20.4998C179.8 21.6498 180.85 22.4498 182.05 22.3498C183.1 22.2998 184.2 22.3498 185.25 22.4998C182.1 23.6498 179.1 26.4498 180.15 35.4998C165 33.9998 167.4 48.1498 178.05 48.1498C184.1 48.1498 185.3 43.5498 185.2 41.0498C187.6 42.1498 189.65 43.5998 191.1 44.6998C192.05 45.3998 193.4 45.1998 194.1 44.2498C194.8 43.3498 194.65 41.9498 193.7 41.2498ZM174.5 42.7998C172.05 40.2498 176.4 38.0998 180.85 39.5998C181.8 45.5998 176.3 44.6998 174.5 42.7998Z"/>
<path d="M224.6 45.3998C245.6 44.2998 245.95 22.8998 233.45 21.6998C225.95 20.9998 218.75 27.1498 212.4 26.2498C211.3 26.0498 210.25 26.7498 210.05 27.7998C209.8 28.9998 210.5 30.1498 211.65 30.2998C220.25 31.5998 229.2 23.3498 235.15 26.4498C241 29.5498 237.4 40.9998 224.35 41.3498C223.2 41.3498 222.35 42.2998 222.4 43.3998C222.45 44.5998 223.45 45.4498 224.6 45.3998Z"/>
<path d="M285.25 17.3498C287.4 16.8498 289.4 16.2498 291.3 15.5498C292.45 15.0998 293 13.7998 292.55 12.6498C292.05 11.5498 290.8 10.9998 289.65 11.3998C281.4 14.3998 271.7 15.4498 260.85 14.5998C259.65 14.4998 258.55 15.3998 258.4 16.5998C258.3 17.8498 259.2 18.9498 260.4 18.9998C266.3 19.4998 272.1 19.3998 277.5 18.7498C268.65 26.7498 269 36.2998 272.45 41.2498C276.1 46.5498 283.15 48.9498 290.05 47.1998C291.3 46.8998 292.05 45.5998 291.8 44.2998C291.55 43.0998 290.35 42.3998 289.15 42.7498C285.15 43.8498 279.8 43.5998 276.35 39.0998C271.55 32.8498 275.55 23.4498 285.25 17.3498Z"/>
<path d="M332.95 25.1498C331.9 24.4998 330.6 24.8498 329.95 25.9498C329.4 26.9498 329.75 28.2498 330.75 28.8998C335.35 31.7498 337.1 34.8998 336.5 39.0998C335.6 44.8498 326.4 46.1998 325.4 39.3498C325.3 38.6498 325.25 37.9998 325.2 37.2998C326.5 37.3498 327.85 37.3998 329.35 37.3998C330.55 37.3998 331.55 36.3998 331.6 35.1998C331.65 33.9998 330.65 33.0498 329.45 33.0998C328 33.1498 326.6 33.1998 325.25 33.1498C325.7 26.1998 327.7 18.4998 325.15 10.0498C324.8 8.84981 323.5 8.19981 322.3 8.5498C321.15 8.89981 320.55 10.1498 320.85 11.2998C322.9 18.3998 321.35 26.0998 320.8 32.7998C317.45 32.2998 315.6 31.3498 317.05 30.0998C317.9 29.3498 318.15 28.2498 317.6 27.4498C317 26.4498 315.8 26.0998 314.85 26.5998C310.8 28.7998 310.95 33.2498 315.1 35.3998C316.35 36.0498 318.2 36.4998 320.65 36.8498C320.65 39.9498 321.15 42.6998 322.7 44.8998C326.65 50.4498 339.95 49.8998 341 38.5998C341.55 32.2998 336.7 27.5498 332.95 25.1498ZM318.4 23.1998C319.5 23.6498 320.75 23.0498 321.15 21.9498C321.5 20.8498 320.95 19.5998 319.85 19.1498C318.15 18.3998 316.05 17.3498 314.5 16.4498C313.4 15.8498 312.05 16.1998 311.45 17.2498C310.85 18.3998 311.2 19.7998 312.3 20.3998C314.15 21.3998 316.7 22.4998 318.4 23.1998Z"/>
<path d="M357.8 19.8998C359 19.8998 359.95 18.8998 359.95 17.6998V14.0498H391.55V17.6998C391.55 18.8998 392.5 19.8998 393.7 19.8998C394.9 19.8998 395.9 18.9498 395.9 17.6998V13.2498C395.9 11.3998 394.4 9.9498 392.6 9.9498H378.15V8.0998C378.15 6.8998 377.15 5.94981 376 5.94981C374.8 5.94981 373.85 6.9498 373.85 8.0998V9.9498H358.9C357.1 9.9498 355.6 11.4498 355.6 13.2498V17.6998C355.6 18.8998 356.6 19.8998 357.8 19.8998ZM396.75 42.9998C393.4 40.4998 390.7 37.5498 388.6 34.2998C391.1 32.9498 393.7 30.8998 395.8 28.5498C396.6 27.6498 396.55 26.1998 395.65 25.2498C394.85 24.3998 393.5 24.4998 392.7 25.3998C390.75 27.7498 388.35 29.5498 386.4 30.6498C384.9 27.6998 383.75 24.6498 382.95 21.6998H388.7C389.85 21.6998 390.8 20.7498 390.8 19.5998C390.8 18.4498 389.85 17.4998 388.7 17.4998H363.3C362.15 17.4998 361.2 18.4498 361.2 19.5998C361.2 20.7498 362.15 21.6998 363.3 21.6998H370.4C367.35 23.7498 362.85 25.6498 358.2 26.7998C357 27.0998 356.2 28.2498 356.45 29.4498C356.65 30.6998 357.85 31.4498 359 31.1498C362.45 30.2498 367.1 28.5998 371.1 26.2998C371.65 27.0998 372.15 28.0498 372.65 28.9498C369.05 31.5498 362.95 34.1998 357.2 35.5498C356.05 35.7998 355.3 36.9498 355.5 38.0998C355.75 39.2998 356.9 40.0498 358.05 39.7998C363.75 38.5498 370.3 35.6498 374.55 32.8498C374.95 33.7498 375.3 34.5998 375.65 35.4498C370.95 39.0498 363.75 41.9998 356.65 43.2998C355.5 43.5498 354.7 44.5998 354.85 45.7998C355.05 46.9498 356.15 47.7498 357.3 47.5498C365.25 46.1498 372.45 42.8998 377.15 39.5998C377.6 40.9998 377.9 42.0998 378 42.7998C378.35 45.2498 376.85 46.0498 371.95 45.9998C370.75 45.9498 369.75 46.8998 369.75 48.0498C369.7 49.2498 370.65 50.2498 371.85 50.2998C379.55 50.4998 383 47.7998 382.2 42.2498C381.7 38.5498 378.25 29.6998 374.65 23.8998C375.5 23.1998 376.25 22.4498 376.9 21.6998H378.4C381.1 31.7498 386.55 40.4998 394.05 46.5998C395.05 47.3998 396.5 47.2498 397.25 46.1998C398 45.1998 397.75 43.7498 396.75 42.9998Z"/>
<path d="M410.95 21.8498C410.95 23.0498 411.9 23.9498 413.05 23.9498C414.2 23.9498 415.15 23.0498 415.15 21.8498V12.6498C416.2 11.5998 417.2 10.5498 418 9.54981C418.75 8.64981 418.5 7.29981 417.45 6.6998C416.5 6.0498 415.15 6.34981 414.45 7.29981C412.2 10.1998 408.6 13.2498 405.45 15.0498C404.45 15.5998 404 16.7998 404.4 17.8498C404.85 18.8998 406.1 19.3998 407.05 18.8498C408.3 18.1998 409.65 17.2998 410.95 16.2998V21.8498ZM422.95 12.4998L428.7 12.0998V13.7998H417.7C416.65 13.7998 415.75 14.6498 415.75 15.6998C415.75 16.7998 416.65 17.6498 417.7 17.6498H428.7V19.5498H420.65C419.6 19.5498 418.7 20.3998 418.7 21.4998C418.7 22.4998 419.6 23.3998 420.65 23.3998H441.85C442.9 23.3998 443.75 22.5498 443.75 21.4998C443.75 20.3998 442.9 19.5498 441.85 19.5498H433V17.6498H444.3C445.35 17.6498 446.25 16.7998 446.25 15.6998C446.25 14.6498 445.35 13.7998 444.3 13.7998H433V11.6998C435.55 11.4498 437.95 11.1998 439.65 10.9498C440.75 10.7998 441.5 9.79981 441.35 8.69981C441.2 7.59981 440.15 6.89981 439.1 7.04981C434.8 7.6498 426.65 8.2998 422.7 8.5498C421.6 8.59981 420.75 9.54981 420.85 10.6498C420.9 11.6998 421.85 12.5498 422.95 12.4998ZM444.15 45.7998C441.7 45.3998 439.55 44.8998 437.6 44.2498C439.25 44.0498 440.55 42.5998 440.55 40.9498V27.9498C440.55 26.0998 439.05 24.6498 437.25 24.6498H414.8C412.95 24.6498 411.5 26.1498 411.5 27.9498V40.9498C411.5 42.6998 412.85 44.0998 414.55 44.2498C412.6 44.8998 410.45 45.3998 408.05 45.7498C406.9 45.9498 406.1 46.9998 406.3 48.1498C406.5 49.3498 407.55 50.1998 408.75 50.0498C412.3 49.5498 416.2 48.3498 418.8 47.2498C420 46.7998 420.6 45.4998 420.2 44.2498H431.8C431.4 45.3998 431.9 46.6498 433 47.0998C436 48.5498 440.1 49.5998 443.3 50.0998C444.5 50.2498 445.65 49.4498 445.9 48.2498C446.15 47.0998 445.35 45.9998 444.15 45.7998ZM436.25 29.8998H415.7V28.4998H436.25V29.8998ZM415.7 33.7498H436.25V35.1498H415.7V33.7498ZM415.7 38.9998H436.25V40.3998H415.7V38.9998Z"/>
<path d="M471.15 17.5498C471.7 14.8998 472.15 12.3498 472.4 9.89981C472.5 8.69981 471.6 7.64981 470.45 7.54981C469.3 7.49981 468.25 8.3498 468.15 9.4998C467.85 12.3498 467.4 15.3498 466.8 18.3498C464.15 18.8498 462.25 18.9498 459.65 18.6998C458.45 18.6498 457.4 19.4498 457.25 20.5998C457.15 21.8498 458 22.8998 459.15 22.9498C461.65 23.1498 463.65 23.0498 465.75 22.7498C463.7 30.4998 460.55 38.2498 456.3 44.6998C455.65 45.6498 455.9 46.9998 456.8 47.6998C457.8 48.3998 459.15 48.1498 459.8 47.1498C464.25 40.3498 467.9 30.9498 470.2 21.8498C477.8 20.2998 477.8 23.5998 477.6 25.4498C475.85 41.8998 474.4 44.0998 468.1 40.7498C467 40.1498 465.7 40.5498 465.15 41.5998C464.55 42.6998 464.95 44.0498 466 44.5998C472.9 48.0998 477.55 46.2998 479.55 39.3498C480.25 36.8998 481.45 31.0998 481.85 25.8498C482.15 22.6498 481.55 16.1998 471.15 17.5498ZM498 14.3998C496.8 11.5998 495.65 9.89981 493.75 8.14981C493.1 7.59981 492.15 7.6498 491.6 8.24981C491 8.7998 491.05 9.7498 491.65 10.2998C493.25 11.8498 494.35 13.5498 495.15 15.5998C495.5 16.4498 496.4 16.7998 497.15 16.4498C497.95 16.1498 498.35 15.1998 498 14.3998ZM491 17.4998C491.3 18.2998 492.25 18.6998 493.05 18.3498C493.85 17.9998 494.25 17.0498 493.9 16.1998C492.85 13.6998 491.5 11.7498 489.7 10.0998C489.05 9.4998 488.05 9.59981 487.45 10.2498C486.9 10.8998 487 11.8498 487.6 12.4498C489.2 13.8498 490.2 15.3498 491 17.4998ZM487.25 17.6998C486.35 16.6498 484.8 16.5498 483.7 17.4498C482.75 18.2498 482.65 19.6998 483.55 20.6998C487.15 24.5498 490.95 30.6998 492.75 37.2498C493.1 38.4998 494.4 39.2498 495.65 38.8498C496.95 38.3498 497.7 36.9498 497.25 35.7498C495.45 30.1498 490.85 21.9998 487.25 17.6998Z"/>
<path d="M517.9 9.0498C518.15 7.8998 517.35 6.79981 516.2 6.54981C515.05 6.29981 513.95 7.04981 513.7 8.19981C512.2 15.4498 509.25 21.1998 504.9 25.6998C504 26.5998 503.95 28.0498 504.75 28.9498C505.6 29.8998 507 29.9498 507.9 29.0498C508.3 28.6498 508.7 28.1998 509.05 27.7498V47.9998C509.05 49.1998 510.05 50.1498 511.2 50.1498C512.4 50.1498 513.4 49.1498 513.4 47.9998V21.5498C515.5 17.7498 517 13.5998 517.9 9.0498ZM546.55 43.6998C542.45 41.3498 538 37.1998 535.45 33.4498H545.25C546.4 33.4498 547.35 32.4998 547.35 31.2998C547.35 30.0998 546.4 29.1498 545.25 29.1498H533.25V25.5998H539.9C541.75 25.5998 543.2 24.0998 543.2 22.2998V11.4998C543.2 9.6998 541.7 8.19981 539.9 8.19981H522.55C520.75 8.19981 519.25 9.6998 519.25 11.4998V22.2998C519.25 24.0998 520.75 25.5998 522.55 25.5998H528.9V29.1498H517.25C516.1 29.1498 515.1 30.0998 515.1 31.2998C515.1 32.4998 516.1 33.4498 517.25 33.4498H527.35C524.4 37.4498 519.6 41.0998 515.1 43.8498C514.1 44.4498 513.75 45.7498 514.25 46.7998C514.8 47.8498 516.1 48.2498 517.15 47.6498C521.45 45.1498 525.8 41.4998 528.9 37.9498V47.9998C528.9 49.1498 529.85 50.1498 531.05 50.1498C532.25 50.1498 533.25 49.1498 533.25 47.9998V37.4998C536.4 41.4998 540.9 45.3498 544.75 47.6998C545.8 48.3498 547.15 47.8998 547.65 46.7498C548.1 45.6498 547.65 44.2998 546.55 43.6998ZM538.85 12.5498V21.2998H523.6V12.5498H538.85Z"/>
<path d="M568.3 11.7998C569.5 11.7998 570.45 10.7998 570.45 9.64981C570.45 8.4998 569.5 7.49981 568.3 7.49981H558.05C556.85 7.49981 555.9 8.4998 555.9 9.64981C555.9 10.8498 556.9 11.7998 558.05 11.7998H568.3ZM586.9 45.4498V28.7498H593.75C594.95 28.7498 595.9 27.7498 595.9 26.5998C595.9 25.4498 594.95 24.4498 593.75 24.4498H586.9V12.4498H594.5C595.7 12.4498 596.65 11.4998 596.65 10.3498C596.65 9.14981 595.7 8.19981 594.5 8.19981H573.65C572.5 8.19981 571.5 9.14981 571.5 10.3498C571.5 11.4998 572.45 12.4498 573.65 12.4498H582.55V45.4498H578.8V25.7498C578.8 24.5998 577.85 23.5998 576.65 23.5998C575.5 23.5998 574.55 24.5998 574.55 25.7498V45.4498H572.9C571.75 45.4498 570.75 46.3998 570.75 47.5998C570.75 48.7998 571.75 49.7498 572.9 49.7498H595.3C596.45 49.7498 597.4 48.7498 597.4 47.5998C597.4 46.3998 596.45 45.4498 595.3 45.4498H586.9ZM569.65 18.4998C570.8 18.4998 571.8 17.5498 571.8 16.3498C571.8 15.1998 570.8 14.2498 569.65 14.2498H556.7C555.5 14.2498 554.55 15.1998 554.55 16.3498C554.55 17.5498 555.55 18.4998 556.7 18.4998H569.65ZM558.25 20.9498C557.1 20.9498 556.1 21.8998 556.1 23.0998C556.1 24.2998 557.1 25.2498 558.25 25.2498H568.1C569.3 25.2498 570.25 24.2498 570.25 23.0998C570.25 21.9498 569.3 20.9498 568.1 20.9498H558.25ZM568.1 31.9498C569.25 31.9498 570.25 30.9998 570.25 29.7998C570.25 28.6498 569.3 27.6998 568.1 27.6998H558.25C557.05 27.6998 556.1 28.6498 556.1 29.7998C556.1 30.9998 557.1 31.9498 558.25 31.9498H568.1ZM559.45 34.3998C557.6 34.3998 556.15 35.8998 556.15 37.6998V46.5498C556.15 48.3498 557.65 49.8498 559.45 49.8498H567.4C569.25 49.8498 570.7 48.2998 570.7 46.5498V37.6998C570.7 35.8498 569.2 34.3998 567.4 34.3998H559.45ZM560.45 45.7998V38.3998H566.45V45.7998H560.45Z"/>
<path d="M640.35 14.6498C639.8 13.6498 638.5 13.2998 637.5 13.8998C635.75 14.8998 633.8 15.6998 631.6 16.3998C629.8 13.2498 628 10.4998 626.3 8.49981C625.55 7.59981 624.15 7.3998 623.1 8.0998C622.15 8.69981 622 10.0498 622.7 10.9498C624.15 12.7498 625.7 14.9998 627.2 17.4998C623.1 18.2998 618.35 18.6498 613.1 18.5498C612 18.4998 611.05 19.3498 611 20.4998C610.95 21.5998 611.8 22.5998 612.95 22.6498C618.2 22.8998 624.1 22.3998 629.35 21.1998C631.3 24.7998 633.1 28.5498 634.3 31.7498C619.3 26.2998 610.9 34.5498 612.8 41.1998C614.25 46.2498 621.75 50.3498 636.5 46.7498C637.65 46.4498 638.3 45.2998 637.95 44.1498C637.65 42.9998 636.45 42.3498 635.3 42.6998C632.15 43.5498 629.85 43.8498 626.3 43.8998C609.4 44.0498 617 27.7998 635.4 36.5498C636.3 36.9998 637.4 36.9998 638.25 36.5498C639.2 36.0998 639.65 35.0498 639.4 34.0998C638.35 30.3998 636.35 25.5498 633.9 20.6498L633.6 20.0498C635.85 19.3498 637.9 18.4998 639.6 17.5498C640.6 16.9998 640.95 15.6498 640.35 14.6498Z"/>
<path d="M697.35 38.0498C696.5 37.1998 695.15 37.2498 694.35 38.0998C687.95 44.5498 685.5 39.3498 688.5 25.4998C689.8 19.3998 687.25 16.9498 681.25 18.3998C678.2 19.1498 674.3 21.0498 670.4 23.8498V23.7998C671.05 22.9998 671.75 22.1498 672.45 21.3498C673.25 20.4498 673.15 19.0998 672.2 18.3498C671.75 17.9998 671.25 17.8498 670.7 17.8998C670.95 15.1998 671.2 12.7998 671.55 10.7498C671.75 9.54981 671 8.39981 669.85 8.14981C668.65 7.8998 667.5 8.64981 667.3 9.79981C666.9 12.3998 666.6 15.3998 666.35 18.5998C663.45 19.2498 660.2 19.4998 657.7 19.5998C656.55 19.5998 655.55 20.5498 655.55 21.7498C655.55 22.9498 656.55 23.8998 657.75 23.8498C660.15 23.6998 663.3 23.2998 666.15 22.7498V22.8998C661.85 29.0498 658.05 35.9998 655.85 41.6998C655.45 42.8498 656 44.0498 657.15 44.4498C658.3 44.7998 659.45 44.1998 659.85 43.0998C660.25 41.8998 660.7 40.6998 661.15 39.4998C662.7 36.8998 664.35 34.6498 666.05 32.7498C666.1 38.2498 666.45 43.3498 667 47.0998C667.2 48.2998 668.3 49.0998 669.55 48.8998C670.7 48.6998 671.5 47.5498 671.35 46.3998C670.65 40.8998 670.3 34.6498 670.3 28.6998C673.4 26.2498 676.6 24.4998 680 22.9498C685.1 20.6998 684.5 22.8498 684.25 23.8998C679.5 45.9498 688.95 46.2498 692.55 44.3998C694.1 43.5998 695.7 42.4998 697.3 41.0998C698.2 40.2998 698.2 38.8998 697.35 38.0498Z"/>
<path d="M725.3 48.2998C736.85 48.2998 744.7 40.4498 741.95 31.6998C739.9 25.0498 730.95 21.9998 719.8 27.7498C723.2 22.9498 726.55 19.0498 731.1 14.9998C732.05 14.1498 732.35 12.7998 731.85 11.6498C731.35 10.5498 730.05 9.99981 728.9 10.3998C724.85 11.7498 720.65 11.8998 715.6 11.5998C714.4 11.5498 713.35 12.4498 713.25 13.6498C713.2 14.8998 714.1 15.9498 715.3 15.9998C718.55 16.1498 722.35 15.9998 724.85 15.5498C719.95 20.5998 715.15 27.0498 710.75 33.6498C710.2 34.4998 710.45 35.6498 711.3 36.1998C712.15 36.7498 713.3 36.6498 714.1 35.9998C720.4 30.3498 725.8 28.0998 731.55 28.7498C737.85 29.4998 739.55 35.1498 736.9 38.9998C735.55 40.8998 733.4 42.4498 730.75 43.3498C724.5 35.7998 719.9 34.2498 717.2 39.0498C715.45 42.0998 716.3 48.2998 725.3 48.2998ZM726.6 44.1998C723.5 44.3498 721.1 43.5498 720.5 42.0998C720 40.5498 721.6 38.2998 726.6 44.1998Z"/>
<path d="M776 39.3998C777.1 39.3998 777.95 38.4998 777.95 37.4498L778.6 10.7498C778.65 9.29981 777.45 8.0998 776 8.0998C774.55 8.0998 773.35 9.29981 773.4 10.7498L774.05 37.4498C774.05 38.4998 774.9 39.3998 776 39.3998ZM776 48.6998C777.9 48.6998 779.45 47.1498 779.45 45.2998C779.45 43.3998 777.9 41.8498 776 41.8498C774.15 41.8498 772.55 43.3998 772.55 45.2998C772.55 47.1998 774.15 48.6998 776 48.6998Z"/>
<path d="M826 17.4998C827.8 17.4998 829.25 15.9998 829.25 14.2498C829.25 12.4498 827.8 10.9498 826 10.9498C824.2 10.9498 822.75 12.4498 822.75 14.2498C822.75 15.9998 824.2 17.4998 826 17.4998ZM841.7 13.3998C842.4 12.6998 841.35 11.5998 840.55 12.2998L826 26.8498L811.4 12.2998C810.7 11.5998 809.6 12.6498 810.3 13.4498L824.85 27.9998L810.3 42.5998C809.6 43.2998 810.65 44.3998 811.45 43.6998L826 29.1498L840.6 43.6998C841.3 44.3998 842.4 43.3498 841.7 42.5498L827.15 27.9998L841.7 13.3998ZM815.5 27.9998C815.5 26.1998 814 24.7498 812.25 24.7498C810.4 24.7498 808.95 26.1998 808.95 27.9998C808.95 29.7998 810.45 31.2498 812.25 31.2498C814 31.2498 815.5 29.7998 815.5 27.9998ZM839.75 24.7498C837.95 24.7498 836.5 26.1998 836.5 27.9998C836.5 29.7998 838 31.2498 839.75 31.2498C841.6 31.2498 843.05 29.7998 843.05 27.9998C843.05 26.1998 841.6 24.7498 839.75 24.7498ZM826 38.4998C824.2 38.4998 822.75 39.9998 822.75 41.7498C822.75 43.5498 824.2 45.0498 826 45.0498C827.8 45.0498 829.25 43.5498 829.25 41.7498C829.25 39.9498 827.8 38.4998 826 38.4998Z"/>
</mask>
<path d="M8.45 21.7998C9.6 21.7998 10.6 20.7998 10.6 19.5998V15.1998H41.4V19.5998C41.4 20.7998 42.35 21.7998 43.6 21.7998C44.8 21.7998 45.75 20.7998 45.75 19.5998V14.1998C45.75 12.3998 44.25 10.9498 42.45 10.9498H28.2V8.14981C28.2 6.9498 27.2 5.94981 26 5.94981C24.8 5.94981 23.8 6.9498 23.8 8.14981V10.8998H9.55C7.75 10.9498 6.25 12.4498 6.25 14.1998V19.5998C6.25 20.7998 7.2 21.7998 8.45 21.7998ZM19.5 17.7998C17.85 22.6498 14.65 25.7998 9.45 27.6998C8.35 28.0998 7.75 29.2998 8.05 30.3998C8.4 31.5498 9.6 32.1998 10.7 31.8498C17 29.7498 21.55 25.3498 23.6 19.2498C24 18.0998 23.35 16.8498 22.2 16.4498C21.05 16.0498 19.85 16.6498 19.5 17.7998ZM28.95 16.4498C27.8 16.4498 26.8 17.4498 26.8 18.6498V22.7998C26.8 27.5498 29.65 29.7498 35.7 29.7498C39.05 29.7498 42 29.2998 44.95 27.3998C46 26.6998 46.25 25.2998 45.5 24.1998C44.85 23.2498 43.5 23.0998 42.5 23.7498C40.7 24.9498 38.8 25.4498 35.7 25.4498C31.35 25.4498 31.1 24.5998 31.1 22.7998V18.6498C31.1 17.4498 30.15 16.4498 28.95 16.4498ZM28.15 44.8498V36.6998H39.55C40.7 36.6998 41.65 35.7498 41.65 34.5498C41.7 33.3998 40.7 32.4498 39.55 32.4498H12.45C11.3 32.4498 10.3 33.3998 10.35 34.5498C10.35 35.7498 11.3 36.6998 12.45 36.6998H23.8V44.8498H7.4C6.25 44.8498 5.25 45.7998 5.25 46.9998C5.25 48.1998 6.25 49.1498 7.4 49.1498H44.6C45.8 49.1498 46.75 48.1498 46.75 46.9998C46.75 45.7998 45.75 44.8498 44.6 44.8498H28.15Z" fill="#42210C"/>
<path d="M58.3 19.5998C59.5 19.5998 60.5 18.5998 60.5 17.3998V13.8498H91.55V17.3998C91.55 18.5998 92.55 19.5998 93.7 19.5998C94.9 19.5998 95.9 18.5998 95.9 17.3998V12.9498C95.9 11.0998 94.4 9.64981 92.6 9.64981H78.2V8.0498C78.2 6.79981 77.2 5.7998 76 5.7998C74.8 5.7998 73.8 6.79981 73.8 8.0498V9.64981H59.45C57.6 9.64981 56.15 11.1498 56.15 12.9498V17.3998C56.15 18.5998 57.15 19.5998 58.3 19.5998ZM63.3 26.9498C60.7 28.1498 61.25 31.8498 63.95 31.7998C71.05 31.6998 80.2 31.3998 86.5 30.4498C87.1 31.4498 87.65 32.4498 88.1 33.2998C88.6 34.3998 89.9 34.8998 91 34.3998C92.15 33.8498 92.6 32.4998 92.05 31.4498C90.7 28.7498 88.5 25.1498 86.95 22.8498C86.2 21.7498 84.7 21.3998 83.5 22.0998C82.45 22.6998 82.2 24.0998 82.95 25.1498C83.25 25.5498 83.6 25.9998 83.95 26.4998C80.35 26.8998 75.7 27.1998 70.65 27.3498C71.9 26.3998 74.3 24.2998 75.85 21.3998H88.45C89.6 21.3998 90.6 20.4498 90.6 19.2498C90.6 18.0498 89.6 17.0998 88.45 17.0998H63.55C62.35 17.0998 61.4 18.0998 61.4 19.2498C61.4 20.3998 62.35 21.3998 63.55 21.3998H70.55C68.55 23.7998 65.7 25.8498 63.3 26.9498ZM78.2 45.1998V40.2998H90.2C91.4 40.2998 92.35 39.2998 92.35 38.1498C92.35 36.9498 91.35 35.9998 90.2 35.9998H78.2V33.6498C78.2 32.3998 77.2 31.4498 76 31.4498C74.8 31.4498 73.8 32.4498 73.8 33.6498V35.9998H61.8C60.6 35.9998 59.65 36.9998 59.65 38.1498C59.65 39.3498 60.65 40.2998 61.8 40.2998H73.8V45.1998H57.75C56.6 45.1998 55.6 46.1498 55.6 47.3498C55.6 48.5498 56.6 49.4998 57.75 49.4998H94.25C95.4 49.4998 96.4 48.5498 96.4 47.3498C96.4 46.1498 95.4 45.1998 94.25 45.1998H78.2Z" fill="#42210C"/>
<path d="M113.7 46.4998C114.8 46.1498 115.4 44.8998 115.1 43.7498C112.6 35.3998 112.7 22.3998 115.3 14.1998C115.65 13.0498 115.05 11.8498 113.9 11.4998C112.65 11.1998 111.4 11.8498 111 13.0498C108.2 21.7498 107.95 36.0498 110.85 45.0998C111.25 46.2498 112.5 46.8498 113.7 46.4998ZM121.7 20.9498C127.8 21.9998 135.2 21.7498 140.35 20.7498C141.5 20.5498 142.35 19.3498 142.15 18.1498C141.95 16.9998 140.85 16.1998 139.65 16.4498C134.9 17.4498 127.95 17.4998 122.3 16.6498C121.1 16.4998 120.05 17.2998 119.9 18.4498C119.75 19.6498 120.55 20.7498 121.7 20.9498ZM143.1 42.7498C144.25 42.3498 144.9 41.0998 144.55 39.8498C144.25 38.7498 143 38.0998 141.85 38.4998C134.3 41.1498 126.25 40.1498 121.6 36.0498C120.7 35.2998 119.35 35.2998 118.65 36.1498C117.75 37.0498 117.75 38.4998 118.65 39.2498C125.2 45.5498 136.15 45.0998 143.1 42.7498Z" fill="#42210C"/>
<path d="M179.05 17.4998C180.1 16.9498 180.55 15.5998 180.05 14.4498C179.55 13.3998 178.3 12.9998 177.2 13.5498C175.8 14.2498 174.3 14.8498 172.7 15.3498C173.2 13.6498 173.7 11.9998 174.1 10.4998C174.4 9.34981 173.7 8.14981 172.55 7.8498C171.35 7.49981 170.2 8.19981 169.9 9.39981C169.3 11.6498 168.65 13.9998 167.9 16.3998C165.4 16.7998 162.9 16.9498 160.65 16.8998C159.45 16.8498 158.45 17.7498 158.3 18.8998C158.2 20.0998 159.05 21.1498 160.25 21.2498C162.25 21.3498 164.3 21.2498 166.4 21.0498C164.3 26.9998 161.5 33.2998 157.4 39.6498C156.75 40.6498 157 42.0498 158 42.7498C159.05 43.3998 160.45 43.1498 161.1 42.0998C165.65 35.0998 168.85 27.2498 171.15 20.2498C174.05 19.5998 176.75 18.6498 179.05 17.4998ZM193.7 41.2498C191.65 39.6998 188.45 37.4998 184.65 36.1998C183.25 27.6998 184.1 25.7998 189.2 25.2998C194.4 24.7998 193.4 17.6498 181.8 18.1498C180.55 18.1998 179.65 19.2498 179.75 20.4998C179.8 21.6498 180.85 22.4498 182.05 22.3498C183.1 22.2998 184.2 22.3498 185.25 22.4998C182.1 23.6498 179.1 26.4498 180.15 35.4998C165 33.9998 167.4 48.1498 178.05 48.1498C184.1 48.1498 185.3 43.5498 185.2 41.0498C187.6 42.1498 189.65 43.5998 191.1 44.6998C192.05 45.3998 193.4 45.1998 194.1 44.2498C194.8 43.3498 194.65 41.9498 193.7 41.2498ZM174.5 42.7998C172.05 40.2498 176.4 38.0998 180.85 39.5998C181.8 45.5998 176.3 44.6998 174.5 42.7998Z" fill="#42210C"/>
<path d="M224.6 45.3998C245.6 44.2998 245.95 22.8998 233.45 21.6998C225.95 20.9998 218.75 27.1498 212.4 26.2498C211.3 26.0498 210.25 26.7498 210.05 27.7998C209.8 28.9998 210.5 30.1498 211.65 30.2998C220.25 31.5998 229.2 23.3498 235.15 26.4498C241 29.5498 237.4 40.9998 224.35 41.3498C223.2 41.3498 222.35 42.2998 222.4 43.3998C222.45 44.5998 223.45 45.4498 224.6 45.3998Z" fill="#42210C"/>
<path d="M285.25 17.3498C287.4 16.8498 289.4 16.2498 291.3 15.5498C292.45 15.0998 293 13.7998 292.55 12.6498C292.05 11.5498 290.8 10.9998 289.65 11.3998C281.4 14.3998 271.7 15.4498 260.85 14.5998C259.65 14.4998 258.55 15.3998 258.4 16.5998C258.3 17.8498 259.2 18.9498 260.4 18.9998C266.3 19.4998 272.1 19.3998 277.5 18.7498C268.65 26.7498 269 36.2998 272.45 41.2498C276.1 46.5498 283.15 48.9498 290.05 47.1998C291.3 46.8998 292.05 45.5998 291.8 44.2998C291.55 43.0998 290.35 42.3998 289.15 42.7498C285.15 43.8498 279.8 43.5998 276.35 39.0998C271.55 32.8498 275.55 23.4498 285.25 17.3498Z" fill="#42210C"/>
<path d="M332.95 25.1498C331.9 24.4998 330.6 24.8498 329.95 25.9498C329.4 26.9498 329.75 28.2498 330.75 28.8998C335.35 31.7498 337.1 34.8998 336.5 39.0998C335.6 44.8498 326.4 46.1998 325.4 39.3498C325.3 38.6498 325.25 37.9998 325.2 37.2998C326.5 37.3498 327.85 37.3998 329.35 37.3998C330.55 37.3998 331.55 36.3998 331.6 35.1998C331.65 33.9998 330.65 33.0498 329.45 33.0998C328 33.1498 326.6 33.1998 325.25 33.1498C325.7 26.1998 327.7 18.4998 325.15 10.0498C324.8 8.84981 323.5 8.19981 322.3 8.5498C321.15 8.89981 320.55 10.1498 320.85 11.2998C322.9 18.3998 321.35 26.0998 320.8 32.7998C317.45 32.2998 315.6 31.3498 317.05 30.0998C317.9 29.3498 318.15 28.2498 317.6 27.4498C317 26.4498 315.8 26.0998 314.85 26.5998C310.8 28.7998 310.95 33.2498 315.1 35.3998C316.35 36.0498 318.2 36.4998 320.65 36.8498C320.65 39.9498 321.15 42.6998 322.7 44.8998C326.65 50.4498 339.95 49.8998 341 38.5998C341.55 32.2998 336.7 27.5498 332.95 25.1498ZM318.4 23.1998C319.5 23.6498 320.75 23.0498 321.15 21.9498C321.5 20.8498 320.95 19.5998 319.85 19.1498C318.15 18.3998 316.05 17.3498 314.5 16.4498C313.4 15.8498 312.05 16.1998 311.45 17.2498C310.85 18.3998 311.2 19.7998 312.3 20.3998C314.15 21.3998 316.7 22.4998 318.4 23.1998Z" fill="#42210C"/>
<path d="M357.8 19.8998C359 19.8998 359.95 18.8998 359.95 17.6998V14.0498H391.55V17.6998C391.55 18.8998 392.5 19.8998 393.7 19.8998C394.9 19.8998 395.9 18.9498 395.9 17.6998V13.2498C395.9 11.3998 394.4 9.9498 392.6 9.9498H378.15V8.0998C378.15 6.8998 377.15 5.94981 376 5.94981C374.8 5.94981 373.85 6.9498 373.85 8.0998V9.9498H358.9C357.1 9.9498 355.6 11.4498 355.6 13.2498V17.6998C355.6 18.8998 356.6 19.8998 357.8 19.8998ZM396.75 42.9998C393.4 40.4998 390.7 37.5498 388.6 34.2998C391.1 32.9498 393.7 30.8998 395.8 28.5498C396.6 27.6498 396.55 26.1998 395.65 25.2498C394.85 24.3998 393.5 24.4998 392.7 25.3998C390.75 27.7498 388.35 29.5498 386.4 30.6498C384.9 27.6998 383.75 24.6498 382.95 21.6998H388.7C389.85 21.6998 390.8 20.7498 390.8 19.5998C390.8 18.4498 389.85 17.4998 388.7 17.4998H363.3C362.15 17.4998 361.2 18.4498 361.2 19.5998C361.2 20.7498 362.15 21.6998 363.3 21.6998H370.4C367.35 23.7498 362.85 25.6498 358.2 26.7998C357 27.0998 356.2 28.2498 356.45 29.4498C356.65 30.6998 357.85 31.4498 359 31.1498C362.45 30.2498 367.1 28.5998 371.1 26.2998C371.65 27.0998 372.15 28.0498 372.65 28.9498C369.05 31.5498 362.95 34.1998 357.2 35.5498C356.05 35.7998 355.3 36.9498 355.5 38.0998C355.75 39.2998 356.9 40.0498 358.05 39.7998C363.75 38.5498 370.3 35.6498 374.55 32.8498C374.95 33.7498 375.3 34.5998 375.65 35.4498C370.95 39.0498 363.75 41.9998 356.65 43.2998C355.5 43.5498 354.7 44.5998 354.85 45.7998C355.05 46.9498 356.15 47.7498 357.3 47.5498C365.25 46.1498 372.45 42.8998 377.15 39.5998C377.6 40.9998 377.9 42.0998 378 42.7998C378.35 45.2498 376.85 46.0498 371.95 45.9998C370.75 45.9498 369.75 46.8998 369.75 48.0498C369.7 49.2498 370.65 50.2498 371.85 50.2998C379.55 50.4998 383 47.7998 382.2 42.2498C381.7 38.5498 378.25 29.6998 374.65 23.8998C375.5 23.1998 376.25 22.4498 376.9 21.6998H378.4C381.1 31.7498 386.55 40.4998 394.05 46.5998C395.05 47.3998 396.5 47.2498 397.25 46.1998C398 45.1998 397.75 43.7498 396.75 42.9998Z" fill="#42210C"/>
<path d="M410.95 21.8498C410.95 23.0498 411.9 23.9498 413.05 23.9498C414.2 23.9498 415.15 23.0498 415.15 21.8498V12.6498C416.2 11.5998 417.2 10.5498 418 9.54981C418.75 8.64981 418.5 7.29981 417.45 6.6998C416.5 6.0498 415.15 6.34981 414.45 7.29981C412.2 10.1998 408.6 13.2498 405.45 15.0498C404.45 15.5998 404 16.7998 404.4 17.8498C404.85 18.8998 406.1 19.3998 407.05 18.8498C408.3 18.1998 409.65 17.2998 410.95 16.2998V21.8498ZM422.95 12.4998L428.7 12.0998V13.7998H417.7C416.65 13.7998 415.75 14.6498 415.75 15.6998C415.75 16.7998 416.65 17.6498 417.7 17.6498H428.7V19.5498H420.65C419.6 19.5498 418.7 20.3998 418.7 21.4998C418.7 22.4998 419.6 23.3998 420.65 23.3998H441.85C442.9 23.3998 443.75 22.5498 443.75 21.4998C443.75 20.3998 442.9 19.5498 441.85 19.5498H433V17.6498H444.3C445.35 17.6498 446.25 16.7998 446.25 15.6998C446.25 14.6498 445.35 13.7998 444.3 13.7998H433V11.6998C435.55 11.4498 437.95 11.1998 439.65 10.9498C440.75 10.7998 441.5 9.79981 441.35 8.69981C441.2 7.59981 440.15 6.89981 439.1 7.04981C434.8 7.6498 426.65 8.2998 422.7 8.5498C421.6 8.59981 420.75 9.54981 420.85 10.6498C420.9 11.6998 421.85 12.5498 422.95 12.4998ZM444.15 45.7998C441.7 45.3998 439.55 44.8998 437.6 44.2498C439.25 44.0498 440.55 42.5998 440.55 40.9498V27.9498C440.55 26.0998 439.05 24.6498 437.25 24.6498H414.8C412.95 24.6498 411.5 26.1498 411.5 27.9498V40.9498C411.5 42.6998 412.85 44.0998 414.55 44.2498C412.6 44.8998 410.45 45.3998 408.05 45.7498C406.9 45.9498 406.1 46.9998 406.3 48.1498C406.5 49.3498 407.55 50.1998 408.75 50.0498C412.3 49.5498 416.2 48.3498 418.8 47.2498C420 46.7998 420.6 45.4998 420.2 44.2498H431.8C431.4 45.3998 431.9 46.6498 433 47.0998C436 48.5498 440.1 49.5998 443.3 50.0998C444.5 50.2498 445.65 49.4498 445.9 48.2498C446.15 47.0998 445.35 45.9998 444.15 45.7998ZM436.25 29.8998H415.7V28.4998H436.25V29.8998ZM415.7 33.7498H436.25V35.1498H415.7V33.7498ZM415.7 38.9998H436.25V40.3998H415.7V38.9998Z" fill="#42210C"/>
<path d="M471.15 17.5498C471.7 14.8998 472.15 12.3498 472.4 9.89981C472.5 8.69981 471.6 7.64981 470.45 7.54981C469.3 7.49981 468.25 8.3498 468.15 9.4998C467.85 12.3498 467.4 15.3498 466.8 18.3498C464.15 18.8498 462.25 18.9498 459.65 18.6998C458.45 18.6498 457.4 19.4498 457.25 20.5998C457.15 21.8498 458 22.8998 459.15 22.9498C461.65 23.1498 463.65 23.0498 465.75 22.7498C463.7 30.4998 460.55 38.2498 456.3 44.6998C455.65 45.6498 455.9 46.9998 456.8 47.6998C457.8 48.3998 459.15 48.1498 459.8 47.1498C464.25 40.3498 467.9 30.9498 470.2 21.8498C477.8 20.2998 477.8 23.5998 477.6 25.4498C475.85 41.8998 474.4 44.0998 468.1 40.7498C467 40.1498 465.7 40.5498 465.15 41.5998C464.55 42.6998 464.95 44.0498 466 44.5998C472.9 48.0998 477.55 46.2998 479.55 39.3498C480.25 36.8998 481.45 31.0998 481.85 25.8498C482.15 22.6498 481.55 16.1998 471.15 17.5498ZM498 14.3998C496.8 11.5998 495.65 9.89981 493.75 8.14981C493.1 7.59981 492.15 7.6498 491.6 8.24981C491 8.7998 491.05 9.7498 491.65 10.2998C493.25 11.8498 494.35 13.5498 495.15 15.5998C495.5 16.4498 496.4 16.7998 497.15 16.4498C497.95 16.1498 498.35 15.1998 498 14.3998ZM491 17.4998C491.3 18.2998 492.25 18.6998 493.05 18.3498C493.85 17.9998 494.25 17.0498 493.9 16.1998C492.85 13.6998 491.5 11.7498 489.7 10.0998C489.05 9.4998 488.05 9.59981 487.45 10.2498C486.9 10.8998 487 11.8498 487.6 12.4498C489.2 13.8498 490.2 15.3498 491 17.4998ZM487.25 17.6998C486.35 16.6498 484.8 16.5498 483.7 17.4498C482.75 18.2498 482.65 19.6998 483.55 20.6998C487.15 24.5498 490.95 30.6998 492.75 37.2498C493.1 38.4998 494.4 39.2498 495.65 38.8498C496.95 38.3498 497.7 36.9498 497.25 35.7498C495.45 30.1498 490.85 21.9998 487.25 17.6998Z" fill="#42210C"/>
<path d="M517.9 9.0498C518.15 7.8998 517.35 6.79981 516.2 6.54981C515.05 6.29981 513.95 7.04981 513.7 8.19981C512.2 15.4498 509.25 21.1998 504.9 25.6998C504 26.5998 503.95 28.0498 504.75 28.9498C505.6 29.8998 507 29.9498 507.9 29.0498C508.3 28.6498 508.7 28.1998 509.05 27.7498V47.9998C509.05 49.1998 510.05 50.1498 511.2 50.1498C512.4 50.1498 513.4 49.1498 513.4 47.9998V21.5498C515.5 17.7498 517 13.5998 517.9 9.0498ZM546.55 43.6998C542.45 41.3498 538 37.1998 535.45 33.4498H545.25C546.4 33.4498 547.35 32.4998 547.35 31.2998C547.35 30.0998 546.4 29.1498 545.25 29.1498H533.25V25.5998H539.9C541.75 25.5998 543.2 24.0998 543.2 22.2998V11.4998C543.2 9.6998 541.7 8.19981 539.9 8.19981H522.55C520.75 8.19981 519.25 9.6998 519.25 11.4998V22.2998C519.25 24.0998 520.75 25.5998 522.55 25.5998H528.9V29.1498H517.25C516.1 29.1498 515.1 30.0998 515.1 31.2998C515.1 32.4998 516.1 33.4498 517.25 33.4498H527.35C524.4 37.4498 519.6 41.0998 515.1 43.8498C514.1 44.4498 513.75 45.7498 514.25 46.7998C514.8 47.8498 516.1 48.2498 517.15 47.6498C521.45 45.1498 525.8 41.4998 528.9 37.9498V47.9998C528.9 49.1498 529.85 50.1498 531.05 50.1498C532.25 50.1498 533.25 49.1498 533.25 47.9998V37.4998C536.4 41.4998 540.9 45.3498 544.75 47.6998C545.8 48.3498 547.15 47.8998 547.65 46.7498C548.1 45.6498 547.65 44.2998 546.55 43.6998ZM538.85 12.5498V21.2998H523.6V12.5498H538.85Z" fill="#42210C"/>
<path d="M568.3 11.7998C569.5 11.7998 570.45 10.7998 570.45 9.64981C570.45 8.4998 569.5 7.49981 568.3 7.49981H558.05C556.85 7.49981 555.9 8.4998 555.9 9.64981C555.9 10.8498 556.9 11.7998 558.05 11.7998H568.3ZM586.9 45.4498V28.7498H593.75C594.95 28.7498 595.9 27.7498 595.9 26.5998C595.9 25.4498 594.95 24.4498 593.75 24.4498H586.9V12.4498H594.5C595.7 12.4498 596.65 11.4998 596.65 10.3498C596.65 9.14981 595.7 8.19981 594.5 8.19981H573.65C572.5 8.19981 571.5 9.14981 571.5 10.3498C571.5 11.4998 572.45 12.4498 573.65 12.4498H582.55V45.4498H578.8V25.7498C578.8 24.5998 577.85 23.5998 576.65 23.5998C575.5 23.5998 574.55 24.5998 574.55 25.7498V45.4498H572.9C571.75 45.4498 570.75 46.3998 570.75 47.5998C570.75 48.7998 571.75 49.7498 572.9 49.7498H595.3C596.45 49.7498 597.4 48.7498 597.4 47.5998C597.4 46.3998 596.45 45.4498 595.3 45.4498H586.9ZM569.65 18.4998C570.8 18.4998 571.8 17.5498 571.8 16.3498C571.8 15.1998 570.8 14.2498 569.65 14.2498H556.7C555.5 14.2498 554.55 15.1998 554.55 16.3498C554.55 17.5498 555.55 18.4998 556.7 18.4998H569.65ZM558.25 20.9498C557.1 20.9498 556.1 21.8998 556.1 23.0998C556.1 24.2998 557.1 25.2498 558.25 25.2498H568.1C569.3 25.2498 570.25 24.2498 570.25 23.0998C570.25 21.9498 569.3 20.9498 568.1 20.9498H558.25ZM568.1 31.9498C569.25 31.9498 570.25 30.9998 570.25 29.7998C570.25 28.6498 569.3 27.6998 568.1 27.6998H558.25C557.05 27.6998 556.1 28.6498 556.1 29.7998C556.1 30.9998 557.1 31.9498 558.25 31.9498H568.1ZM559.45 34.3998C557.6 34.3998 556.15 35.8998 556.15 37.6998V46.5498C556.15 48.3498 557.65 49.8498 559.45 49.8498H567.4C569.25 49.8498 570.7 48.2998 570.7 46.5498V37.6998C570.7 35.8498 569.2 34.3998 567.4 34.3998H559.45ZM560.45 45.7998V38.3998H566.45V45.7998H560.45Z" fill="#42210C"/>
<path d="M640.35 14.6498C639.8 13.6498 638.5 13.2998 637.5 13.8998C635.75 14.8998 633.8 15.6998 631.6 16.3998C629.8 13.2498 628 10.4998 626.3 8.49981C625.55 7.59981 624.15 7.3998 623.1 8.0998C622.15 8.69981 622 10.0498 622.7 10.9498C624.15 12.7498 625.7 14.9998 627.2 17.4998C623.1 18.2998 618.35 18.6498 613.1 18.5498C612 18.4998 611.05 19.3498 611 20.4998C610.95 21.5998 611.8 22.5998 612.95 22.6498C618.2 22.8998 624.1 22.3998 629.35 21.1998C631.3 24.7998 633.1 28.5498 634.3 31.7498C619.3 26.2998 610.9 34.5498 612.8 41.1998C614.25 46.2498 621.75 50.3498 636.5 46.7498C637.65 46.4498 638.3 45.2998 637.95 44.1498C637.65 42.9998 636.45 42.3498 635.3 42.6998C632.15 43.5498 629.85 43.8498 626.3 43.8998C609.4 44.0498 617 27.7998 635.4 36.5498C636.3 36.9998 637.4 36.9998 638.25 36.5498C639.2 36.0998 639.65 35.0498 639.4 34.0998C638.35 30.3998 636.35 25.5498 633.9 20.6498L633.6 20.0498C635.85 19.3498 637.9 18.4998 639.6 17.5498C640.6 16.9998 640.95 15.6498 640.35 14.6498Z" fill="#42210C"/>
<path d="M697.35 38.0498C696.5 37.1998 695.15 37.2498 694.35 38.0998C687.95 44.5498 685.5 39.3498 688.5 25.4998C689.8 19.3998 687.25 16.9498 681.25 18.3998C678.2 19.1498 674.3 21.0498 670.4 23.8498V23.7998C671.05 22.9998 671.75 22.1498 672.45 21.3498C673.25 20.4498 673.15 19.0998 672.2 18.3498C671.75 17.9998 671.25 17.8498 670.7 17.8998C670.95 15.1998 671.2 12.7998 671.55 10.7498C671.75 9.54981 671 8.39981 669.85 8.14981C668.65 7.8998 667.5 8.64981 667.3 9.79981C666.9 12.3998 666.6 15.3998 666.35 18.5998C663.45 19.2498 660.2 19.4998 657.7 19.5998C656.55 19.5998 655.55 20.5498 655.55 21.7498C655.55 22.9498 656.55 23.8998 657.75 23.8498C660.15 23.6998 663.3 23.2998 666.15 22.7498V22.8998C661.85 29.0498 658.05 35.9998 655.85 41.6998C655.45 42.8498 656 44.0498 657.15 44.4498C658.3 44.7998 659.45 44.1998 659.85 43.0998C660.25 41.8998 660.7 40.6998 661.15 39.4998C662.7 36.8998 664.35 34.6498 666.05 32.7498C666.1 38.2498 666.45 43.3498 667 47.0998C667.2 48.2998 668.3 49.0998 669.55 48.8998C670.7 48.6998 671.5 47.5498 671.35 46.3998C670.65 40.8998 670.3 34.6498 670.3 28.6998C673.4 26.2498 676.6 24.4998 680 22.9498C685.1 20.6998 684.5 22.8498 684.25 23.8998C679.5 45.9498 688.95 46.2498 692.55 44.3998C694.1 43.5998 695.7 42.4998 697.3 41.0998C698.2 40.2998 698.2 38.8998 697.35 38.0498Z" fill="#42210C"/>
<path d="M725.3 48.2998C736.85 48.2998 744.7 40.4498 741.95 31.6998C739.9 25.0498 730.95 21.9998 719.8 27.7498C723.2 22.9498 726.55 19.0498 731.1 14.9998C732.05 14.1498 732.35 12.7998 731.85 11.6498C731.35 10.5498 730.05 9.99981 728.9 10.3998C724.85 11.7498 720.65 11.8998 715.6 11.5998C714.4 11.5498 713.35 12.4498 713.25 13.6498C713.2 14.8998 714.1 15.9498 715.3 15.9998C718.55 16.1498 722.35 15.9998 724.85 15.5498C719.95 20.5998 715.15 27.0498 710.75 33.6498C710.2 34.4998 710.45 35.6498 711.3 36.1998C712.15 36.7498 713.3 36.6498 714.1 35.9998C720.4 30.3498 725.8 28.0998 731.55 28.7498C737.85 29.4998 739.55 35.1498 736.9 38.9998C735.55 40.8998 733.4 42.4498 730.75 43.3498C724.5 35.7998 719.9 34.2498 717.2 39.0498C715.45 42.0998 716.3 48.2998 725.3 48.2998ZM726.6 44.1998C723.5 44.3498 721.1 43.5498 720.5 42.0998C720 40.5498 721.6 38.2998 726.6 44.1998Z" fill="#42210C"/>
<path d="M776 39.3998C777.1 39.3998 777.95 38.4998 777.95 37.4498L778.6 10.7498C778.65 9.29981 777.45 8.0998 776 8.0998C774.55 8.0998 773.35 9.29981 773.4 10.7498L774.05 37.4498C774.05 38.4998 774.9 39.3998 776 39.3998ZM776 48.6998C777.9 48.6998 779.45 47.1498 779.45 45.2998C779.45 43.3998 777.9 41.8498 776 41.8498C774.15 41.8498 772.55 43.3998 772.55 45.2998C772.55 47.1998 774.15 48.6998 776 48.6998Z" fill="#42210C"/>
<path d="M826 17.4998C827.8 17.4998 829.25 15.9998 829.25 14.2498C829.25 12.4498 827.8 10.9498 826 10.9498C824.2 10.9498 822.75 12.4498 822.75 14.2498C822.75 15.9998 824.2 17.4998 826 17.4998ZM841.7 13.3998C842.4 12.6998 841.35 11.5998 840.55 12.2998L826 26.8498L811.4 12.2998C810.7 11.5998 809.6 12.6498 810.3 13.4498L824.85 27.9998L810.3 42.5998C809.6 43.2998 810.65 44.3998 811.45 43.6998L826 29.1498L840.6 43.6998C841.3 44.3998 842.4 43.3498 841.7 42.5498L827.15 27.9998L841.7 13.3998ZM815.5 27.9998C815.5 26.1998 814 24.7498 812.25 24.7498C810.4 24.7498 808.95 26.1998 808.95 27.9998C808.95 29.7998 810.45 31.2498 812.25 31.2498C814 31.2498 815.5 29.7998 815.5 27.9998ZM839.75 24.7498C837.95 24.7498 836.5 26.1998 836.5 27.9998C836.5 29.7998 838 31.2498 839.75 31.2498C841.6 31.2498 843.05 29.7998 843.05 27.9998C843.05 26.1998 841.6 24.7498 839.75 24.7498ZM826 38.4998C824.2 38.4998 822.75 39.9998 822.75 41.7498C822.75 43.5498 824.2 45.0498 826 45.0498C827.8 45.0498 829.25 43.5498 829.25 41.7498C829.25 39.9498 827.8 38.4998 826 38.4998Z" fill="#42210C"/>
<path d="M8.45 21.7998C9.6 21.7998 10.6 20.7998 10.6 19.5998V15.1998H41.4V19.5998C41.4 20.7998 42.35 21.7998 43.6 21.7998C44.8 21.7998 45.75 20.7998 45.75 19.5998V14.1998C45.75 12.3998 44.25 10.9498 42.45 10.9498H28.2V8.14981C28.2 6.9498 27.2 5.94981 26 5.94981C24.8 5.94981 23.8 6.9498 23.8 8.14981V10.8998H9.55C7.75 10.9498 6.25 12.4498 6.25 14.1998V19.5998C6.25 20.7998 7.2 21.7998 8.45 21.7998ZM19.5 17.7998C17.85 22.6498 14.65 25.7998 9.45 27.6998C8.35 28.0998 7.75 29.2998 8.05 30.3998C8.4 31.5498 9.6 32.1998 10.7 31.8498C17 29.7498 21.55 25.3498 23.6 19.2498C24 18.0998 23.35 16.8498 22.2 16.4498C21.05 16.0498 19.85 16.6498 19.5 17.7998ZM28.95 16.4498C27.8 16.4498 26.8 17.4498 26.8 18.6498V22.7998C26.8 27.5498 29.65 29.7498 35.7 29.7498C39.05 29.7498 42 29.2998 44.95 27.3998C46 26.6998 46.25 25.2998 45.5 24.1998C44.85 23.2498 43.5 23.0998 42.5 23.7498C40.7 24.9498 38.8 25.4498 35.7 25.4498C31.35 25.4498 31.1 24.5998 31.1 22.7998V18.6498C31.1 17.4498 30.15 16.4498 28.95 16.4498ZM28.15 44.8498V36.6998H39.55C40.7 36.6998 41.65 35.7498 41.65 34.5498C41.7 33.3998 40.7 32.4498 39.55 32.4498H12.45C11.3 32.4498 10.3 33.3998 10.35 34.5498C10.35 35.7498 11.3 36.6998 12.45 36.6998H23.8V44.8498H7.4C6.25 44.8498 5.25 45.7998 5.25 46.9998C5.25 48.1998 6.25 49.1498 7.4 49.1498H44.6C45.8 49.1498 46.75 48.1498 46.75 46.9998C46.75 45.7998 45.75 44.8498 44.6 44.8498H28.15Z" stroke="white" stroke-width="10" mask="url(#path-1-outside-1_536:1139)"/>
<path d="M58.3 19.5998C59.5 19.5998 60.5 18.5998 60.5 17.3998V13.8498H91.55V17.3998C91.55 18.5998 92.55 19.5998 93.7 19.5998C94.9 19.5998 95.9 18.5998 95.9 17.3998V12.9498C95.9 11.0998 94.4 9.64981 92.6 9.64981H78.2V8.0498C78.2 6.79981 77.2 5.7998 76 5.7998C74.8 5.7998 73.8 6.79981 73.8 8.0498V9.64981H59.45C57.6 9.64981 56.15 11.1498 56.15 12.9498V17.3998C56.15 18.5998 57.15 19.5998 58.3 19.5998ZM63.3 26.9498C60.7 28.1498 61.25 31.8498 63.95 31.7998C71.05 31.6998 80.2 31.3998 86.5 30.4498C87.1 31.4498 87.65 32.4498 88.1 33.2998C88.6 34.3998 89.9 34.8998 91 34.3998C92.15 33.8498 92.6 32.4998 92.05 31.4498C90.7 28.7498 88.5 25.1498 86.95 22.8498C86.2 21.7498 84.7 21.3998 83.5 22.0998C82.45 22.6998 82.2 24.0998 82.95 25.1498C83.25 25.5498 83.6 25.9998 83.95 26.4998C80.35 26.8998 75.7 27.1998 70.65 27.3498C71.9 26.3998 74.3 24.2998 75.85 21.3998H88.45C89.6 21.3998 90.6 20.4498 90.6 19.2498C90.6 18.0498 89.6 17.0998 88.45 17.0998H63.55C62.35 17.0998 61.4 18.0998 61.4 19.2498C61.4 20.3998 62.35 21.3998 63.55 21.3998H70.55C68.55 23.7998 65.7 25.8498 63.3 26.9498ZM78.2 45.1998V40.2998H90.2C91.4 40.2998 92.35 39.2998 92.35 38.1498C92.35 36.9498 91.35 35.9998 90.2 35.9998H78.2V33.6498C78.2 32.3998 77.2 31.4498 76 31.4498C74.8 31.4498 73.8 32.4498 73.8 33.6498V35.9998H61.8C60.6 35.9998 59.65 36.9998 59.65 38.1498C59.65 39.3498 60.65 40.2998 61.8 40.2998H73.8V45.1998H57.75C56.6 45.1998 55.6 46.1498 55.6 47.3498C55.6 48.5498 56.6 49.4998 57.75 49.4998H94.25C95.4 49.4998 96.4 48.5498 96.4 47.3498C96.4 46.1498 95.4 45.1998 94.25 45.1998H78.2Z" stroke="white" stroke-width="10" mask="url(#path-1-outside-1_536:1139)"/>
<path d="M113.7 46.4998C114.8 46.1498 115.4 44.8998 115.1 43.7498C112.6 35.3998 112.7 22.3998 115.3 14.1998C115.65 13.0498 115.05 11.8498 113.9 11.4998C112.65 11.1998 111.4 11.8498 111 13.0498C108.2 21.7498 107.95 36.0498 110.85 45.0998C111.25 46.2498 112.5 46.8498 113.7 46.4998ZM121.7 20.9498C127.8 21.9998 135.2 21.7498 140.35 20.7498C141.5 20.5498 142.35 19.3498 142.15 18.1498C141.95 16.9998 140.85 16.1998 139.65 16.4498C134.9 17.4498 127.95 17.4998 122.3 16.6498C121.1 16.4998 120.05 17.2998 119.9 18.4498C119.75 19.6498 120.55 20.7498 121.7 20.9498ZM143.1 42.7498C144.25 42.3498 144.9 41.0998 144.55 39.8498C144.25 38.7498 143 38.0998 141.85 38.4998C134.3 41.1498 126.25 40.1498 121.6 36.0498C120.7 35.2998 119.35 35.2998 118.65 36.1498C117.75 37.0498 117.75 38.4998 118.65 39.2498C125.2 45.5498 136.15 45.0998 143.1 42.7498Z" stroke="white" stroke-width="10" mask="url(#path-1-outside-1_536:1139)"/>
<path d="M179.05 17.4998C180.1 16.9498 180.55 15.5998 180.05 14.4498C179.55 13.3998 178.3 12.9998 177.2 13.5498C175.8 14.2498 174.3 14.8498 172.7 15.3498C173.2 13.6498 173.7 11.9998 174.1 10.4998C174.4 9.34981 173.7 8.14981 172.55 7.8498C171.35 7.49981 170.2 8.19981 169.9 9.39981C169.3 11.6498 168.65 13.9998 167.9 16.3998C165.4 16.7998 162.9 16.9498 160.65 16.8998C159.45 16.8498 158.45 17.7498 158.3 18.8998C158.2 20.0998 159.05 21.1498 160.25 21.2498C162.25 21.3498 164.3 21.2498 166.4 21.0498C164.3 26.9998 161.5 33.2998 157.4 39.6498C156.75 40.6498 157 42.0498 158 42.7498C159.05 43.3998 160.45 43.1498 161.1 42.0998C165.65 35.0998 168.85 27.2498 171.15 20.2498C174.05 19.5998 176.75 18.6498 179.05 17.4998ZM193.7 41.2498C191.65 39.6998 188.45 37.4998 184.65 36.1998C183.25 27.6998 184.1 25.7998 189.2 25.2998C194.4 24.7998 193.4 17.6498 181.8 18.1498C180.55 18.1998 179.65 19.2498 179.75 20.4998C179.8 21.6498 180.85 22.4498 182.05 22.3498C183.1 22.2998 184.2 22.3498 185.25 22.4998C182.1 23.6498 179.1 26.4498 180.15 35.4998C165 33.9998 167.4 48.1498 178.05 48.1498C184.1 48.1498 185.3 43.5498 185.2 41.0498C187.6 42.1498 189.65 43.5998 191.1 44.6998C192.05 45.3998 193.4 45.1998 194.1 44.2498C194.8 43.3498 194.65 41.9498 193.7 41.2498ZM174.5 42.7998C172.05 40.2498 176.4 38.0998 180.85 39.5998C181.8 45.5998 176.3 44.6998 174.5 42.7998Z" stroke="white" stroke-width="10" mask="url(#path-1-outside-1_536:1139)"/>
<path d="M224.6 45.3998C245.6 44.2998 245.95 22.8998 233.45 21.6998C225.95 20.9998 218.75 27.1498 212.4 26.2498C211.3 26.0498 210.25 26.7498 210.05 27.7998C209.8 28.9998 210.5 30.1498 211.65 30.2998C220.25 31.5998 229.2 23.3498 235.15 26.4498C241 29.5498 237.4 40.9998 224.35 41.3498C223.2 41.3498 222.35 42.2998 222.4 43.3998C222.45 44.5998 223.45 45.4498 224.6 45.3998Z" stroke="white" stroke-width="10" mask="url(#path-1-outside-1_536:1139)"/>
<path d="M285.25 17.3498C287.4 16.8498 289.4 16.2498 291.3 15.5498C292.45 15.0998 293 13.7998 292.55 12.6498C292.05 11.5498 290.8 10.9998 289.65 11.3998C281.4 14.3998 271.7 15.4498 260.85 14.5998C259.65 14.4998 258.55 15.3998 258.4 16.5998C258.3 17.8498 259.2 18.9498 260.4 18.9998C266.3 19.4998 272.1 19.3998 277.5 18.7498C268.65 26.7498 269 36.2998 272.45 41.2498C276.1 46.5498 283.15 48.9498 290.05 47.1998C291.3 46.8998 292.05 45.5998 291.8 44.2998C291.55 43.0998 290.35 42.3998 289.15 42.7498C285.15 43.8498 279.8 43.5998 276.35 39.0998C271.55 32.8498 275.55 23.4498 285.25 17.3498Z" stroke="white" stroke-width="10" mask="url(#path-1-outside-1_536:1139)"/>
<path d="M332.95 25.1498C331.9 24.4998 330.6 24.8498 329.95 25.9498C329.4 26.9498 329.75 28.2498 330.75 28.8998C335.35 31.7498 337.1 34.8998 336.5 39.0998C335.6 44.8498 326.4 46.1998 325.4 39.3498C325.3 38.6498 325.25 37.9998 325.2 37.2998C326.5 37.3498 327.85 37.3998 329.35 37.3998C330.55 37.3998 331.55 36.3998 331.6 35.1998C331.65 33.9998 330.65 33.0498 329.45 33.0998C328 33.1498 326.6 33.1998 325.25 33.1498C325.7 26.1998 327.7 18.4998 325.15 10.0498C324.8 8.84981 323.5 8.19981 322.3 8.5498C321.15 8.89981 320.55 10.1498 320.85 11.2998C322.9 18.3998 321.35 26.0998 320.8 32.7998C317.45 32.2998 315.6 31.3498 317.05 30.0998C317.9 29.3498 318.15 28.2498 317.6 27.4498C317 26.4498 315.8 26.0998 314.85 26.5998C310.8 28.7998 310.95 33.2498 315.1 35.3998C316.35 36.0498 318.2 36.4998 320.65 36.8498C320.65 39.9498 321.15 42.6998 322.7 44.8998C326.65 50.4498 339.95 49.8998 341 38.5998C341.55 32.2998 336.7 27.5498 332.95 25.1498ZM318.4 23.1998C319.5 23.6498 320.75 23.0498 321.15 21.9498C321.5 20.8498 320.95 19.5998 319.85 19.1498C318.15 18.3998 316.05 17.3498 314.5 16.4498C313.4 15.8498 312.05 16.1998 311.45 17.2498C310.85 18.3998 311.2 19.7998 312.3 20.3998C314.15 21.3998 316.7 22.4998 318.4 23.1998Z" stroke="white" stroke-width="10" mask="url(#path-1-outside-1_536:1139)"/>
<path d="M357.8 19.8998C359 19.8998 359.95 18.8998 359.95 17.6998V14.0498H391.55V17.6998C391.55 18.8998 392.5 19.8998 393.7 19.8998C394.9 19.8998 395.9 18.9498 395.9 17.6998V13.2498C395.9 11.3998 394.4 9.9498 392.6 9.9498H378.15V8.0998C378.15 6.8998 377.15 5.94981 376 5.94981C374.8 5.94981 373.85 6.9498 373.85 8.0998V9.9498H358.9C357.1 9.9498 355.6 11.4498 355.6 13.2498V17.6998C355.6 18.8998 356.6 19.8998 357.8 19.8998ZM396.75 42.9998C393.4 40.4998 390.7 37.5498 388.6 34.2998C391.1 32.9498 393.7 30.8998 395.8 28.5498C396.6 27.6498 396.55 26.1998 395.65 25.2498C394.85 24.3998 393.5 24.4998 392.7 25.3998C390.75 27.7498 388.35 29.5498 386.4 30.6498C384.9 27.6998 383.75 24.6498 382.95 21.6998H388.7C389.85 21.6998 390.8 20.7498 390.8 19.5998C390.8 18.4498 389.85 17.4998 388.7 17.4998H363.3C362.15 17.4998 361.2 18.4498 361.2 19.5998C361.2 20.7498 362.15 21.6998 363.3 21.6998H370.4C367.35 23.7498 362.85 25.6498 358.2 26.7998C357 27.0998 356.2 28.2498 356.45 29.4498C356.65 30.6998 357.85 31.4498 359 31.1498C362.45 30.2498 367.1 28.5998 371.1 26.2998C371.65 27.0998 372.15 28.0498 372.65 28.9498C369.05 31.5498 362.95 34.1998 357.2 35.5498C356.05 35.7998 355.3 36.9498 355.5 38.0998C355.75 39.2998 356.9 40.0498 358.05 39.7998C363.75 38.5498 370.3 35.6498 374.55 32.8498C374.95 33.7498 375.3 34.5998 375.65 35.4498C370.95 39.0498 363.75 41.9998 356.65 43.2998C355.5 43.5498 354.7 44.5998 354.85 45.7998C355.05 46.9498 356.15 47.7498 357.3 47.5498C365.25 46.1498 372.45 42.8998 377.15 39.5998C377.6 40.9998 377.9 42.0998 378 42.7998C378.35 45.2498 376.85 46.0498 371.95 45.9998C370.75 45.9498 369.75 46.8998 369.75 48.0498C369.7 49.2498 370.65 50.2498 371.85 50.2998C379.55 50.4998 383 47.7998 382.2 42.2498C381.7 38.5498 378.25 29.6998 374.65 23.8998C375.5 23.1998 376.25 22.4498 376.9 21.6998H378.4C381.1 31.7498 386.55 40.4998 394.05 46.5998C395.05 47.3998 396.5 47.2498 397.25 46.1998C398 45.1998 397.75 43.7498 396.75 42.9998Z" stroke="white" stroke-width="10" mask="url(#path-1-outside-1_536:1139)"/>
<path d="M410.95 21.8498C410.95 23.0498 411.9 23.9498 413.05 23.9498C414.2 23.9498 415.15 23.0498 415.15 21.8498V12.6498C416.2 11.5998 417.2 10.5498 418 9.54981C418.75 8.64981 418.5 7.29981 417.45 6.6998C416.5 6.0498 415.15 6.34981 414.45 7.29981C412.2 10.1998 408.6 13.2498 405.45 15.0498C404.45 15.5998 404 16.7998 404.4 17.8498C404.85 18.8998 406.1 19.3998 407.05 18.8498C408.3 18.1998 409.65 17.2998 410.95 16.2998V21.8498ZM422.95 12.4998L428.7 12.0998V13.7998H417.7C416.65 13.7998 415.75 14.6498 415.75 15.6998C415.75 16.7998 416.65 17.6498 417.7 17.6498H428.7V19.5498H420.65C419.6 19.5498 418.7 20.3998 418.7 21.4998C418.7 22.4998 419.6 23.3998 420.65 23.3998H441.85C442.9 23.3998 443.75 22.5498 443.75 21.4998C443.75 20.3998 442.9 19.5498 441.85 19.5498H433V17.6498H444.3C445.35 17.6498 446.25 16.7998 446.25 15.6998C446.25 14.6498 445.35 13.7998 444.3 13.7998H433V11.6998C435.55 11.4498 437.95 11.1998 439.65 10.9498C440.75 10.7998 441.5 9.79981 441.35 8.69981C441.2 7.59981 440.15 6.89981 439.1 7.04981C434.8 7.6498 426.65 8.2998 422.7 8.5498C421.6 8.59981 420.75 9.54981 420.85 10.6498C420.9 11.6998 421.85 12.5498 422.95 12.4998ZM444.15 45.7998C441.7 45.3998 439.55 44.8998 437.6 44.2498C439.25 44.0498 440.55 42.5998 440.55 40.9498V27.9498C440.55 26.0998 439.05 24.6498 437.25 24.6498H414.8C412.95 24.6498 411.5 26.1498 411.5 27.9498V40.9498C411.5 42.6998 412.85 44.0998 414.55 44.2498C412.6 44.8998 410.45 45.3998 408.05 45.7498C406.9 45.9498 406.1 46.9998 406.3 48.1498C406.5 49.3498 407.55 50.1998 408.75 50.0498C412.3 49.5498 416.2 48.3498 418.8 47.2498C420 46.7998 420.6 45.4998 420.2 44.2498H431.8C431.4 45.3998 431.9 46.6498 433 47.0998C436 48.5498 440.1 49.5998 443.3 50.0998C444.5 50.2498 445.65 49.4498 445.9 48.2498C446.15 47.0998 445.35 45.9998 444.15 45.7998ZM436.25 29.8998H415.7V28.4998H436.25V29.8998ZM415.7 33.7498H436.25V35.1498H415.7V33.7498ZM415.7 38.9998H436.25V40.3998H415.7V38.9998Z" stroke="white" stroke-width="10" mask="url(#path-1-outside-1_536:1139)"/>
<path d="M471.15 17.5498C471.7 14.8998 472.15 12.3498 472.4 9.89981C472.5 8.69981 471.6 7.64981 470.45 7.54981C469.3 7.49981 468.25 8.3498 468.15 9.4998C467.85 12.3498 467.4 15.3498 466.8 18.3498C464.15 18.8498 462.25 18.9498 459.65 18.6998C458.45 18.6498 457.4 19.4498 457.25 20.5998C457.15 21.8498 458 22.8998 459.15 22.9498C461.65 23.1498 463.65 23.0498 465.75 22.7498C463.7 30.4998 460.55 38.2498 456.3 44.6998C455.65 45.6498 455.9 46.9998 456.8 47.6998C457.8 48.3998 459.15 48.1498 459.8 47.1498C464.25 40.3498 467.9 30.9498 470.2 21.8498C477.8 20.2998 477.8 23.5998 477.6 25.4498C475.85 41.8998 474.4 44.0998 468.1 40.7498C467 40.1498 465.7 40.5498 465.15 41.5998C464.55 42.6998 464.95 44.0498 466 44.5998C472.9 48.0998 477.55 46.2998 479.55 39.3498C480.25 36.8998 481.45 31.0998 481.85 25.8498C482.15 22.6498 481.55 16.1998 471.15 17.5498ZM498 14.3998C496.8 11.5998 495.65 9.89981 493.75 8.14981C493.1 7.59981 492.15 7.6498 491.6 8.24981C491 8.7998 491.05 9.7498 491.65 10.2998C493.25 11.8498 494.35 13.5498 495.15 15.5998C495.5 16.4498 496.4 16.7998 497.15 16.4498C497.95 16.1498 498.35 15.1998 498 14.3998ZM491 17.4998C491.3 18.2998 492.25 18.6998 493.05 18.3498C493.85 17.9998 494.25 17.0498 493.9 16.1998C492.85 13.6998 491.5 11.7498 489.7 10.0998C489.05 9.4998 488.05 9.59981 487.45 10.2498C486.9 10.8998 487 11.8498 487.6 12.4498C489.2 13.8498 490.2 15.3498 491 17.4998ZM487.25 17.6998C486.35 16.6498 484.8 16.5498 483.7 17.4498C482.75 18.2498 482.65 19.6998 483.55 20.6998C487.15 24.5498 490.95 30.6998 492.75 37.2498C493.1 38.4998 494.4 39.2498 495.65 38.8498C496.95 38.3498 497.7 36.9498 497.25 35.7498C495.45 30.1498 490.85 21.9998 487.25 17.6998Z" stroke="white" stroke-width="10" mask="url(#path-1-outside-1_536:1139)"/>
<path d="M517.9 9.0498C518.15 7.8998 517.35 6.79981 516.2 6.54981C515.05 6.29981 513.95 7.04981 513.7 8.19981C512.2 15.4498 509.25 21.1998 504.9 25.6998C504 26.5998 503.95 28.0498 504.75 28.9498C505.6 29.8998 507 29.9498 507.9 29.0498C508.3 28.6498 508.7 28.1998 509.05 27.7498V47.9998C509.05 49.1998 510.05 50.1498 511.2 50.1498C512.4 50.1498 513.4 49.1498 513.4 47.9998V21.5498C515.5 17.7498 517 13.5998 517.9 9.0498ZM546.55 43.6998C542.45 41.3498 538 37.1998 535.45 33.4498H545.25C546.4 33.4498 547.35 32.4998 547.35 31.2998C547.35 30.0998 546.4 29.1498 545.25 29.1498H533.25V25.5998H539.9C541.75 25.5998 543.2 24.0998 543.2 22.2998V11.4998C543.2 9.6998 541.7 8.19981 539.9 8.19981H522.55C520.75 8.19981 519.25 9.6998 519.25 11.4998V22.2998C519.25 24.0998 520.75 25.5998 522.55 25.5998H528.9V29.1498H517.25C516.1 29.1498 515.1 30.0998 515.1 31.2998C515.1 32.4998 516.1 33.4498 517.25 33.4498H527.35C524.4 37.4498 519.6 41.0998 515.1 43.8498C514.1 44.4498 513.75 45.7498 514.25 46.7998C514.8 47.8498 516.1 48.2498 517.15 47.6498C521.45 45.1498 525.8 41.4998 528.9 37.9498V47.9998C528.9 49.1498 529.85 50.1498 531.05 50.1498C532.25 50.1498 533.25 49.1498 533.25 47.9998V37.4998C536.4 41.4998 540.9 45.3498 544.75 47.6998C545.8 48.3498 547.15 47.8998 547.65 46.7498C548.1 45.6498 547.65 44.2998 546.55 43.6998ZM538.85 12.5498V21.2998H523.6V12.5498H538.85Z" stroke="white" stroke-width="10" mask="url(#path-1-outside-1_536:1139)"/>
<path d="M568.3 11.7998C569.5 11.7998 570.45 10.7998 570.45 9.64981C570.45 8.4998 569.5 7.49981 568.3 7.49981H558.05C556.85 7.49981 555.9 8.4998 555.9 9.64981C555.9 10.8498 556.9 11.7998 558.05 11.7998H568.3ZM586.9 45.4498V28.7498H593.75C594.95 28.7498 595.9 27.7498 595.9 26.5998C595.9 25.4498 594.95 24.4498 593.75 24.4498H586.9V12.4498H594.5C595.7 12.4498 596.65 11.4998 596.65 10.3498C596.65 9.14981 595.7 8.19981 594.5 8.19981H573.65C572.5 8.19981 571.5 9.14981 571.5 10.3498C571.5 11.4998 572.45 12.4498 573.65 12.4498H582.55V45.4498H578.8V25.7498C578.8 24.5998 577.85 23.5998 576.65 23.5998C575.5 23.5998 574.55 24.5998 574.55 25.7498V45.4498H572.9C571.75 45.4498 570.75 46.3998 570.75 47.5998C570.75 48.7998 571.75 49.7498 572.9 49.7498H595.3C596.45 49.7498 597.4 48.7498 597.4 47.5998C597.4 46.3998 596.45 45.4498 595.3 45.4498H586.9ZM569.65 18.4998C570.8 18.4998 571.8 17.5498 571.8 16.3498C571.8 15.1998 570.8 14.2498 569.65 14.2498H556.7C555.5 14.2498 554.55 15.1998 554.55 16.3498C554.55 17.5498 555.55 18.4998 556.7 18.4998H569.65ZM558.25 20.9498C557.1 20.9498 556.1 21.8998 556.1 23.0998C556.1 24.2998 557.1 25.2498 558.25 25.2498H568.1C569.3 25.2498 570.25 24.2498 570.25 23.0998C570.25 21.9498 569.3 20.9498 568.1 20.9498H558.25ZM568.1 31.9498C569.25 31.9498 570.25 30.9998 570.25 29.7998C570.25 28.6498 569.3 27.6998 568.1 27.6998H558.25C557.05 27.6998 556.1 28.6498 556.1 29.7998C556.1 30.9998 557.1 31.9498 558.25 31.9498H568.1ZM559.45 34.3998C557.6 34.3998 556.15 35.8998 556.15 37.6998V46.5498C556.15 48.3498 557.65 49.8498 559.45 49.8498H567.4C569.25 49.8498 570.7 48.2998 570.7 46.5498V37.6998C570.7 35.8498 569.2 34.3998 567.4 34.3998H559.45ZM560.45 45.7998V38.3998H566.45V45.7998H560.45Z" stroke="white" stroke-width="10" mask="url(#path-1-outside-1_536:1139)"/>
<path d="M640.35 14.6498C639.8 13.6498 638.5 13.2998 637.5 13.8998C635.75 14.8998 633.8 15.6998 631.6 16.3998C629.8 13.2498 628 10.4998 626.3 8.49981C625.55 7.59981 624.15 7.3998 623.1 8.0998C622.15 8.69981 622 10.0498 622.7 10.9498C624.15 12.7498 625.7 14.9998 627.2 17.4998C623.1 18.2998 618.35 18.6498 613.1 18.5498C612 18.4998 611.05 19.3498 611 20.4998C610.95 21.5998 611.8 22.5998 612.95 22.6498C618.2 22.8998 624.1 22.3998 629.35 21.1998C631.3 24.7998 633.1 28.5498 634.3 31.7498C619.3 26.2998 610.9 34.5498 612.8 41.1998C614.25 46.2498 621.75 50.3498 636.5 46.7498C637.65 46.4498 638.3 45.2998 637.95 44.1498C637.65 42.9998 636.45 42.3498 635.3 42.6998C632.15 43.5498 629.85 43.8498 626.3 43.8998C609.4 44.0498 617 27.7998 635.4 36.5498C636.3 36.9998 637.4 36.9998 638.25 36.5498C639.2 36.0998 639.65 35.0498 639.4 34.0998C638.35 30.3998 636.35 25.5498 633.9 20.6498L633.6 20.0498C635.85 19.3498 637.9 18.4998 639.6 17.5498C640.6 16.9998 640.95 15.6498 640.35 14.6498Z" stroke="white" stroke-width="10" mask="url(#path-1-outside-1_536:1139)"/>
<path d="M697.35 38.0498C696.5 37.1998 695.15 37.2498 694.35 38.0998C687.95 44.5498 685.5 39.3498 688.5 25.4998C689.8 19.3998 687.25 16.9498 681.25 18.3998C678.2 19.1498 674.3 21.0498 670.4 23.8498V23.7998C671.05 22.9998 671.75 22.1498 672.45 21.3498C673.25 20.4498 673.15 19.0998 672.2 18.3498C671.75 17.9998 671.25 17.8498 670.7 17.8998C670.95 15.1998 671.2 12.7998 671.55 10.7498C671.75 9.54981 671 8.39981 669.85 8.14981C668.65 7.8998 667.5 8.64981 667.3 9.79981C666.9 12.3998 666.6 15.3998 666.35 18.5998C663.45 19.2498 660.2 19.4998 657.7 19.5998C656.55 19.5998 655.55 20.5498 655.55 21.7498C655.55 22.9498 656.55 23.8998 657.75 23.8498C660.15 23.6998 663.3 23.2998 666.15 22.7498V22.8998C661.85 29.0498 658.05 35.9998 655.85 41.6998C655.45 42.8498 656 44.0498 657.15 44.4498C658.3 44.7998 659.45 44.1998 659.85 43.0998C660.25 41.8998 660.7 40.6998 661.15 39.4998C662.7 36.8998 664.35 34.6498 666.05 32.7498C666.1 38.2498 666.45 43.3498 667 47.0998C667.2 48.2998 668.3 49.0998 669.55 48.8998C670.7 48.6998 671.5 47.5498 671.35 46.3998C670.65 40.8998 670.3 34.6498 670.3 28.6998C673.4 26.2498 676.6 24.4998 680 22.9498C685.1 20.6998 684.5 22.8498 684.25 23.8998C679.5 45.9498 688.95 46.2498 692.55 44.3998C694.1 43.5998 695.7 42.4998 697.3 41.0998C698.2 40.2998 698.2 38.8998 697.35 38.0498Z" stroke="white" stroke-width="10" mask="url(#path-1-outside-1_536:1139)"/>
<path d="M725.3 48.2998C736.85 48.2998 744.7 40.4498 741.95 31.6998C739.9 25.0498 730.95 21.9998 719.8 27.7498C723.2 22.9498 726.55 19.0498 731.1 14.9998C732.05 14.1498 732.35 12.7998 731.85 11.6498C731.35 10.5498 730.05 9.99981 728.9 10.3998C724.85 11.7498 720.65 11.8998 715.6 11.5998C714.4 11.5498 713.35 12.4498 713.25 13.6498C713.2 14.8998 714.1 15.9498 715.3 15.9998C718.55 16.1498 722.35 15.9998 724.85 15.5498C719.95 20.5998 715.15 27.0498 710.75 33.6498C710.2 34.4998 710.45 35.6498 711.3 36.1998C712.15 36.7498 713.3 36.6498 714.1 35.9998C720.4 30.3498 725.8 28.0998 731.55 28.7498C737.85 29.4998 739.55 35.1498 736.9 38.9998C735.55 40.8998 733.4 42.4498 730.75 43.3498C724.5 35.7998 719.9 34.2498 717.2 39.0498C715.45 42.0998 716.3 48.2998 725.3 48.2998ZM726.6 44.1998C723.5 44.3498 721.1 43.5498 720.5 42.0998C720 40.5498 721.6 38.2998 726.6 44.1998Z" stroke="white" stroke-width="10" mask="url(#path-1-outside-1_536:1139)"/>
<path d="M776 39.3998C777.1 39.3998 777.95 38.4998 777.95 37.4498L778.6 10.7498C778.65 9.29981 777.45 8.0998 776 8.0998C774.55 8.0998 773.35 9.29981 773.4 10.7498L774.05 37.4498C774.05 38.4998 774.9 39.3998 776 39.3998ZM776 48.6998C777.9 48.6998 779.45 47.1498 779.45 45.2998C779.45 43.3998 777.9 41.8498 776 41.8498C774.15 41.8498 772.55 43.3998 772.55 45.2998C772.55 47.1998 774.15 48.6998 776 48.6998Z" stroke="white" stroke-width="10" mask="url(#path-1-outside-1_536:1139)"/>
<path d="M826 17.4998C827.8 17.4998 829.25 15.9998 829.25 14.2498C829.25 12.4498 827.8 10.9498 826 10.9498C824.2 10.9498 822.75 12.4498 822.75 14.2498C822.75 15.9998 824.2 17.4998 826 17.4998ZM841.7 13.3998C842.4 12.6998 841.35 11.5998 840.55 12.2998L826 26.8498L811.4 12.2998C810.7 11.5998 809.6 12.6498 810.3 13.4498L824.85 27.9998L810.3 42.5998C809.6 43.2998 810.65 44.3998 811.45 43.6998L826 29.1498L840.6 43.6998C841.3 44.3998 842.4 43.3498 841.7 42.5498L827.15 27.9998L841.7 13.3998ZM815.5 27.9998C815.5 26.1998 814 24.7498 812.25 24.7498C810.4 24.7498 808.95 26.1998 808.95 27.9998C808.95 29.7998 810.45 31.2498 812.25 31.2498C814 31.2498 815.5 29.7998 815.5 27.9998ZM839.75 24.7498C837.95 24.7498 836.5 26.1998 836.5 27.9998C836.5 29.7998 838 31.2498 839.75 31.2498C841.6 31.2498 843.05 29.7998 843.05 27.9998C843.05 26.1998 841.6 24.7498 839.75 24.7498ZM826 38.4998C824.2 38.4998 822.75 39.9998 822.75 41.7498C822.75 43.5498 824.2 45.0498 826 45.0498C827.8 45.0498 829.25 43.5498 829.25 41.7498C829.25 39.9498 827.8 38.4998 826 38.4998Z" stroke="white" stroke-width="10" mask="url(#path-1-outside-1_536:1139)"/>
</svg>
