<svg width="768" height="63" viewBox="0 0 768 63" fill="none" xmlns="http://www.w3.org/2000/svg">
<mask id="path-1-outside-1_536:1130" maskUnits="userSpaceOnUse" x="0.248535" y="-0.359863" width="767" height="63" fill="black">
<rect fill="white" x="0.248535" y="-0.359863" width="767" height="63"/>
<path d="M31.6599 19.5998C32.9199 18.9398 33.4599 17.3198 32.8599 15.9398C32.2599 14.6798 30.7599 14.1998 29.4399 14.8598C27.7599 15.6998 25.9599 16.4198 24.0399 17.0198C24.6399 14.9798 25.2399 12.9998 25.7199 11.1998C26.0799 9.81984 25.2399 8.37984 23.8599 8.01983C22.4199 7.59984 21.0399 8.43984 20.6799 9.87984C19.9599 12.5798 19.1799 15.3998 18.2799 18.2798C15.2799 18.7598 12.2799 18.9398 9.57992 18.8798C8.13992 18.8198 6.93992 19.8998 6.75992 21.2798C6.63992 22.7198 7.65992 23.9798 9.09992 24.0998C11.4999 24.2198 13.9599 24.0998 16.4799 23.8598C13.9599 30.9998 10.5999 38.5598 5.67992 46.1798C4.89992 47.3798 5.19992 49.0598 6.39992 49.8998C7.65992 50.6798 9.33992 50.3798 10.1199 49.1198C15.5799 40.7198 19.4199 31.2998 22.1799 22.8998C25.6599 22.1198 28.8999 20.9798 31.6599 19.5998ZM49.2399 48.0998C46.7799 46.2398 42.9399 43.5998 38.3799 42.0398C36.6999 31.8398 37.7199 29.5598 43.8399 28.9598C50.0799 28.3598 48.8799 19.7798 34.9599 20.3798C33.4599 20.4398 32.3799 21.6998 32.4999 23.1998C32.5599 24.5798 33.8199 25.5398 35.2599 25.4198C36.5199 25.3598 37.8399 25.4198 39.0999 25.5998C35.3199 26.9798 31.7199 30.3398 32.9799 41.1998C14.7999 39.3998 17.6799 56.3798 30.4599 56.3798C37.7199 56.3798 39.1599 50.8598 39.0399 47.8598C41.9199 49.1798 44.3799 50.9198 46.1199 52.2398C47.2599 53.0798 48.8799 52.8398 49.7199 51.6998C50.5599 50.6198 50.3799 48.9398 49.2399 48.0998ZM26.1999 49.9598C23.2599 46.8998 28.4799 44.3198 33.8199 46.1198C34.9599 53.3198 28.3599 52.2398 26.1999 49.9598Z"/>
<path d="M115.18 13.5998C113.74 10.2398 112.36 8.19984 110.02 6.09983C109.3 5.43984 108.16 5.49984 107.44 6.21984C106.78 6.87984 106.84 8.01983 107.56 8.67984C109.48 10.5398 110.8 12.5798 111.76 15.0998C112.18 16.0598 113.26 16.4798 114.16 16.1198C115.12 15.6998 115.6 14.5598 115.18 13.5998ZM102.7 11.2598C104.62 12.9398 105.82 14.7398 106.78 17.3198C107.14 18.2798 108.28 18.7598 109.24 18.3398C110.2 17.9198 110.68 16.7798 110.26 15.7598C109 12.7598 107.38 10.4198 105.22 8.43984C104.44 7.71984 103.24 7.83984 102.52 8.61983C101.86 9.39984 101.98 10.5998 102.7 11.2598ZM109.36 21.2798C106.06 21.2198 102.82 21.3398 99.5799 21.5798L99.2799 11.0198C99.2799 9.57984 98.0199 8.43984 96.5799 8.49984C95.1399 8.55984 93.9999 9.75984 93.9999 11.2598L94.2999 22.1198C89.8599 22.6598 85.2999 23.2598 80.4999 23.7398V13.4198C80.4999 11.9198 79.2999 10.7798 77.8599 10.7798C76.4199 10.7798 75.2799 11.9798 75.2799 13.4198V24.1598C72.5199 24.2798 69.6999 24.3998 66.7599 24.3398C65.3799 24.3398 64.1199 25.4198 64.1199 26.8598C64.0599 28.2998 65.1999 29.4398 66.5799 29.4998C69.4599 29.5598 72.3399 29.4398 75.2799 29.1998V41.6798C75.2799 46.8398 75.6399 51.1598 78.9399 53.9798C82.5399 57.0398 89.0199 56.5598 103.3 55.1198C104.8 54.9398 105.88 53.6198 105.82 52.1798C105.7 50.6798 104.44 49.5998 102.94 49.7198C83.0799 51.8798 80.4999 52.2398 80.4999 43.4798V28.7798C85.2399 28.2998 89.9199 27.6998 94.4799 27.2198C94.5399 30.5198 94.5999 33.2198 94.5999 34.4198C94.5999 37.6598 94.1799 39.4598 88.9599 38.1398C87.5199 37.7798 86.0799 38.5598 85.5999 39.9398C85.1199 41.3198 85.8999 42.8198 87.3399 43.1798C95.4399 45.2798 99.8799 42.2198 99.8799 34.5398C99.8799 33.2798 99.8199 30.2798 99.6999 26.7398C102.94 26.4998 106.12 26.3798 109.06 26.4398C110.44 26.4398 111.7 25.3598 111.76 23.9798C111.88 22.5398 110.74 21.3398 109.36 21.2798Z"/>
<path d="M166.36 37.6598C161.44 32.4998 154.06 27.8798 146.26 26.9198V12.9998C146.26 11.4998 145 10.2398 143.5 10.2398C142.06 10.2398 140.8 11.4998 140.8 12.9998V53.6798C140.8 55.1798 142.06 56.3798 143.5 56.3798C145.06 56.3798 146.26 55.1198 146.26 53.6798V32.1998C152.62 33.2798 157.72 36.2198 162.76 41.6798C163.78 42.7598 165.46 42.7598 166.36 41.6798C167.38 40.4798 167.38 38.7398 166.36 37.6598Z"/>
<path d="M226.72 35.4398C228.16 35.4398 229.36 34.2998 229.36 32.7998C229.36 31.3598 228.16 30.1598 226.72 30.1598H189.28C187.84 30.1598 186.64 31.2998 186.64 32.7998C186.64 34.2398 187.84 35.4398 189.28 35.4398H226.72Z"/>
<path d="M261.76 23.2598C262.96 23.9798 264.52 23.6198 265.12 22.3598C265.84 21.0398 265.42 19.3598 264.22 18.5798C260.92 16.4798 256.78 15.0398 252.88 14.6198C251.44 14.4398 250.18 15.5198 249.94 17.0198C249.76 18.3398 250.78 19.5998 252.16 19.8398C255.64 20.3198 259 21.4598 261.76 23.2598ZM253.78 55.5998C267.58 52.0598 282.04 40.7198 288.46 30.6398C289.3 29.3198 289 27.5798 287.68 26.5598C286.48 25.6598 284.8 25.9598 283.96 27.2798C276.22 39.2198 262.3 47.3798 252.22 50.1398C250.72 50.5598 249.88 52.0598 250.3 53.4998C250.72 54.9998 252.28 55.9598 253.78 55.5998ZM258.28 36.2798C259.6 36.8198 261.16 36.2798 261.7 35.0198C262.3 33.5798 261.76 31.9598 260.38 31.3598C257.26 29.9798 252.94 29.0198 249.28 28.8398C247.78 28.7798 246.58 30.0398 246.52 31.5398C246.46 32.9198 247.6 34.1198 249.04 34.1798C251.92 34.3598 255.58 35.1398 258.28 36.2798Z"/>
<path d="M324.16 28.5998C325.3 27.3398 325.24 25.4198 324.04 24.3998C321.04 21.8198 315.88 18.9998 310.6 18.2798C309.04 18.0998 307.66 19.2398 307.48 20.8598C307.3 22.3598 308.38 23.6798 309.88 23.9198C313.96 24.5798 317.56 26.1998 320.2 28.5998C321.34 29.6798 323.14 29.6798 324.16 28.5998ZM310.66 53.7398C325.84 50.4998 341.38 39.7598 350.2 28.0598C351.16 26.7998 350.86 24.9998 349.66 23.9798C348.4 23.0198 346.66 23.2598 345.7 24.5198C335.5 38.1998 320.56 45.6398 309.94 48.1598C308.38 48.5198 307.36 49.9598 307.54 51.4598C307.72 52.9598 309.16 54.0398 310.66 53.7398Z"/>
<path d="M404.02 21.9998C407.74 21.9998 410.74 18.9398 410.74 15.2798C410.74 11.6198 407.74 8.55984 404.02 8.55984C400.36 8.55984 397.3 11.5598 397.3 15.2798C397.3 18.9398 400.3 21.9998 404.02 21.9998ZM404.02 18.8798C401.98 18.8798 400.42 17.2598 400.42 15.2798C400.42 13.2398 402.04 11.6798 404.02 11.6798C406.06 11.6798 407.62 13.2998 407.62 15.2798C407.62 17.2598 406.06 18.8798 404.02 18.8798ZM409.18 49.2398C410.68 48.9398 411.76 47.4998 411.52 45.9998C409.36 33.6398 400.3 26.7998 396.1 21.3398C395.14 20.1398 393.46 19.8398 392.26 20.6198C390.94 21.4598 390.64 23.1998 391.54 24.3398C395.98 30.0398 404.32 36.3398 406.12 46.9598C406.36 48.5198 407.74 49.4798 409.18 49.2398ZM367.9 48.3998C376.42 41.1398 380.14 33.8798 382.6 25.5998C383.02 24.0998 382.18 22.5998 380.74 22.1198C379.3 21.6998 377.74 22.5398 377.32 23.9798C375.46 30.0398 372.76 37.1198 364.54 44.0798C363.4 45.0398 363.16 46.7798 364.06 47.9798C365.02 49.1798 366.76 49.3598 367.9 48.3998Z"/>
<path d="M466.72 35.4398C468.16 35.4398 469.36 34.2998 469.36 32.7998C469.36 31.3598 468.16 30.1598 466.72 30.1598H429.28C427.84 30.1598 426.64 31.2998 426.64 32.7998C426.64 34.2398 427.84 35.4398 429.28 35.4398H466.72Z"/>
<path d="M526.36 37.6598C521.44 32.4998 514.06 27.8798 506.26 26.9198V12.9998C506.26 11.4998 505 10.2398 503.5 10.2398C502.06 10.2398 500.8 11.4998 500.8 12.9998V53.6798C500.8 55.1798 502.06 56.3798 503.5 56.3798C505.06 56.3798 506.26 55.1198 506.26 53.6798V32.1998C512.62 33.2798 517.72 36.2198 522.76 41.6798C523.78 42.7598 525.46 42.7598 526.36 41.6798C527.38 40.4798 527.38 38.7398 526.36 37.6598Z"/>
<path d="M587.02 22.5398C583.78 22.5398 579.28 22.6598 573.58 22.7798C573.58 19.0598 573.34 15.3398 573.1 11.6798C572.98 10.1798 571.66 9.03984 570.22 9.15983C568.72 9.33984 567.58 10.6598 567.7 12.0998C568 16.0598 568.18 19.6598 568.18 22.8998L548.92 23.4998C547.42 23.5598 546.28 24.8198 546.34 26.2598C546.34 27.7598 547.6 28.8998 549.1 28.8398C556.3 28.5998 562.6 28.4198 568.06 28.2998C567.28 41.6798 563.02 48.1598 553.96 51.0998C552.52 51.5198 551.68 53.0198 552.04 54.4598C552.46 55.8998 553.96 56.7398 555.4 56.3198C569.02 51.9998 572.86 40.7198 573.46 28.1198C579.22 27.9998 583.78 27.8798 587.02 27.8798C588.46 27.8798 589.66 26.6798 589.66 25.2398C589.72 23.7398 588.52 22.5398 587.02 22.5398Z"/>
<path d="M646.72 35.4398C648.16 35.4398 649.36 34.2998 649.36 32.7998C649.36 31.3598 648.16 30.1598 646.72 30.1598H609.28C607.84 30.1598 606.64 31.2998 606.64 32.7998C606.64 34.2398 607.84 35.4398 609.28 35.4398H646.72Z"/>
<path d="M711.94 13.6598C710.5 11.4998 708.7 9.09984 706.9 7.35984C706.18 6.57984 704.98 6.57984 704.14 7.35984C703.42 8.01984 703.48 9.21984 704.2 9.93983C705.64 11.4998 707.5 13.7798 708.76 15.6998C709.36 16.5998 710.5 16.8998 711.34 16.2998C712.24 15.6998 712.54 14.4998 711.94 13.6598ZM699.52 12.4598C701.02 14.0198 702.94 16.3598 704.2 18.3398C704.8 19.1798 706 19.4798 706.84 18.9398C707.74 18.3398 708.04 17.0798 707.44 16.2398C706 14.0798 704.08 11.4998 702.22 9.69983C701.44 8.97984 700.18 8.97984 699.46 9.75984C698.74 10.4798 698.74 11.7398 699.52 12.4598ZM693.52 37.7798C696.46 34.2998 698.56 31.0598 699.94 28.2998C704.14 19.7798 700.18 13.4798 691.54 14.9798C687.64 15.6998 679.6 16.3598 671.62 16.1798C670.18 16.1798 668.92 17.3198 668.92 18.7598C668.86 20.2598 670 21.4598 671.44 21.4598C679.24 21.5198 688.24 20.8598 692.32 20.1998C696.58 19.5398 697.36 21.1598 695.14 25.8998C692.2 31.8998 683.02 43.5998 667.48 50.4398C666.04 51.0398 665.32 52.5998 665.74 54.0998C666.22 55.5398 667.84 56.2598 669.22 55.5998C677.68 51.8198 684.4 46.9598 689.5 42.0398C695.32 44.3198 701.62 49.4798 705.52 55.1198C706.48 56.3198 708.1 56.5598 709.24 55.6598C710.44 54.6398 710.74 52.8998 709.84 51.6398C706.12 46.5398 699.7 40.7798 693.52 37.7798Z"/>
<path d="M747.1 46.0598C748.54 46.0598 749.62 44.9198 749.56 43.5398C749.44 31.0598 757.3 35.2598 761.2 25.6598C763.96 18.6398 759.7 8.19984 747.82 8.19984C734.68 8.19984 729.64 26.3198 738.22 26.3198C740.32 26.3198 742.06 24.5198 742.06 22.4798C742.06 21.0998 741.34 19.8398 740.14 19.1198C740.8 15.8198 743.98 13.4798 748 13.4798C755.02 13.4798 757.06 18.3998 756.64 21.5798C755.62 30.2198 744.64 27.9998 744.52 43.5398C744.52 44.9198 745.72 46.0598 747.1 46.0598ZM747.1 57.0398C749.38 57.0398 751.24 55.1798 751.24 52.9598C751.24 50.6798 749.38 48.8198 747.1 48.8198C744.88 48.8198 742.96 50.6798 742.96 52.9598C742.96 55.1798 744.82 57.0398 747.1 57.0398Z"/>
</mask>
<path d="M31.6599 19.5998C32.9199 18.9398 33.4599 17.3198 32.8599 15.9398C32.2599 14.6798 30.7599 14.1998 29.4399 14.8598C27.7599 15.6998 25.9599 16.4198 24.0399 17.0198C24.6399 14.9798 25.2399 12.9998 25.7199 11.1998C26.0799 9.81984 25.2399 8.37984 23.8599 8.01983C22.4199 7.59984 21.0399 8.43984 20.6799 9.87984C19.9599 12.5798 19.1799 15.3998 18.2799 18.2798C15.2799 18.7598 12.2799 18.9398 9.57992 18.8798C8.13992 18.8198 6.93992 19.8998 6.75992 21.2798C6.63992 22.7198 7.65992 23.9798 9.09992 24.0998C11.4999 24.2198 13.9599 24.0998 16.4799 23.8598C13.9599 30.9998 10.5999 38.5598 5.67992 46.1798C4.89992 47.3798 5.19992 49.0598 6.39992 49.8998C7.65992 50.6798 9.33992 50.3798 10.1199 49.1198C15.5799 40.7198 19.4199 31.2998 22.1799 22.8998C25.6599 22.1198 28.8999 20.9798 31.6599 19.5998ZM49.2399 48.0998C46.7799 46.2398 42.9399 43.5998 38.3799 42.0398C36.6999 31.8398 37.7199 29.5598 43.8399 28.9598C50.0799 28.3598 48.8799 19.7798 34.9599 20.3798C33.4599 20.4398 32.3799 21.6998 32.4999 23.1998C32.5599 24.5798 33.8199 25.5398 35.2599 25.4198C36.5199 25.3598 37.8399 25.4198 39.0999 25.5998C35.3199 26.9798 31.7199 30.3398 32.9799 41.1998C14.7999 39.3998 17.6799 56.3798 30.4599 56.3798C37.7199 56.3798 39.1599 50.8598 39.0399 47.8598C41.9199 49.1798 44.3799 50.9198 46.1199 52.2398C47.2599 53.0798 48.8799 52.8398 49.7199 51.6998C50.5599 50.6198 50.3799 48.9398 49.2399 48.0998ZM26.1999 49.9598C23.2599 46.8998 28.4799 44.3198 33.8199 46.1198C34.9599 53.3198 28.3599 52.2398 26.1999 49.9598Z" fill="#42210C"/>
<path d="M115.18 13.5998C113.74 10.2398 112.36 8.19984 110.02 6.09983C109.3 5.43984 108.16 5.49984 107.44 6.21984C106.78 6.87984 106.84 8.01983 107.56 8.67984C109.48 10.5398 110.8 12.5798 111.76 15.0998C112.18 16.0598 113.26 16.4798 114.16 16.1198C115.12 15.6998 115.6 14.5598 115.18 13.5998ZM102.7 11.2598C104.62 12.9398 105.82 14.7398 106.78 17.3198C107.14 18.2798 108.28 18.7598 109.24 18.3398C110.2 17.9198 110.68 16.7798 110.26 15.7598C109 12.7598 107.38 10.4198 105.22 8.43984C104.44 7.71984 103.24 7.83984 102.52 8.61983C101.86 9.39984 101.98 10.5998 102.7 11.2598ZM109.36 21.2798C106.06 21.2198 102.82 21.3398 99.5799 21.5798L99.2799 11.0198C99.2799 9.57984 98.0199 8.43984 96.5799 8.49984C95.1399 8.55984 93.9999 9.75984 93.9999 11.2598L94.2999 22.1198C89.8599 22.6598 85.2999 23.2598 80.4999 23.7398V13.4198C80.4999 11.9198 79.2999 10.7798 77.8599 10.7798C76.4199 10.7798 75.2799 11.9798 75.2799 13.4198V24.1598C72.5199 24.2798 69.6999 24.3998 66.7599 24.3398C65.3799 24.3398 64.1199 25.4198 64.1199 26.8598C64.0599 28.2998 65.1999 29.4398 66.5799 29.4998C69.4599 29.5598 72.3399 29.4398 75.2799 29.1998V41.6798C75.2799 46.8398 75.6399 51.1598 78.9399 53.9798C82.5399 57.0398 89.0199 56.5598 103.3 55.1198C104.8 54.9398 105.88 53.6198 105.82 52.1798C105.7 50.6798 104.44 49.5998 102.94 49.7198C83.0799 51.8798 80.4999 52.2398 80.4999 43.4798V28.7798C85.2399 28.2998 89.9199 27.6998 94.4799 27.2198C94.5399 30.5198 94.5999 33.2198 94.5999 34.4198C94.5999 37.6598 94.1799 39.4598 88.9599 38.1398C87.5199 37.7798 86.0799 38.5598 85.5999 39.9398C85.1199 41.3198 85.8999 42.8198 87.3399 43.1798C95.4399 45.2798 99.8799 42.2198 99.8799 34.5398C99.8799 33.2798 99.8199 30.2798 99.6999 26.7398C102.94 26.4998 106.12 26.3798 109.06 26.4398C110.44 26.4398 111.7 25.3598 111.76 23.9798C111.88 22.5398 110.74 21.3398 109.36 21.2798Z" fill="#42210C"/>
<path d="M166.36 37.6598C161.44 32.4998 154.06 27.8798 146.26 26.9198V12.9998C146.26 11.4998 145 10.2398 143.5 10.2398C142.06 10.2398 140.8 11.4998 140.8 12.9998V53.6798C140.8 55.1798 142.06 56.3798 143.5 56.3798C145.06 56.3798 146.26 55.1198 146.26 53.6798V32.1998C152.62 33.2798 157.72 36.2198 162.76 41.6798C163.78 42.7598 165.46 42.7598 166.36 41.6798C167.38 40.4798 167.38 38.7398 166.36 37.6598Z" fill="#42210C"/>
<path d="M226.72 35.4398C228.16 35.4398 229.36 34.2998 229.36 32.7998C229.36 31.3598 228.16 30.1598 226.72 30.1598H189.28C187.84 30.1598 186.64 31.2998 186.64 32.7998C186.64 34.2398 187.84 35.4398 189.28 35.4398H226.72Z" fill="#42210C"/>
<path d="M261.76 23.2598C262.96 23.9798 264.52 23.6198 265.12 22.3598C265.84 21.0398 265.42 19.3598 264.22 18.5798C260.92 16.4798 256.78 15.0398 252.88 14.6198C251.44 14.4398 250.18 15.5198 249.94 17.0198C249.76 18.3398 250.78 19.5998 252.16 19.8398C255.64 20.3198 259 21.4598 261.76 23.2598ZM253.78 55.5998C267.58 52.0598 282.04 40.7198 288.46 30.6398C289.3 29.3198 289 27.5798 287.68 26.5598C286.48 25.6598 284.8 25.9598 283.96 27.2798C276.22 39.2198 262.3 47.3798 252.22 50.1398C250.72 50.5598 249.88 52.0598 250.3 53.4998C250.72 54.9998 252.28 55.9598 253.78 55.5998ZM258.28 36.2798C259.6 36.8198 261.16 36.2798 261.7 35.0198C262.3 33.5798 261.76 31.9598 260.38 31.3598C257.26 29.9798 252.94 29.0198 249.28 28.8398C247.78 28.7798 246.58 30.0398 246.52 31.5398C246.46 32.9198 247.6 34.1198 249.04 34.1798C251.92 34.3598 255.58 35.1398 258.28 36.2798Z" fill="#42210C"/>
<path d="M324.16 28.5998C325.3 27.3398 325.24 25.4198 324.04 24.3998C321.04 21.8198 315.88 18.9998 310.6 18.2798C309.04 18.0998 307.66 19.2398 307.48 20.8598C307.3 22.3598 308.38 23.6798 309.88 23.9198C313.96 24.5798 317.56 26.1998 320.2 28.5998C321.34 29.6798 323.14 29.6798 324.16 28.5998ZM310.66 53.7398C325.84 50.4998 341.38 39.7598 350.2 28.0598C351.16 26.7998 350.86 24.9998 349.66 23.9798C348.4 23.0198 346.66 23.2598 345.7 24.5198C335.5 38.1998 320.56 45.6398 309.94 48.1598C308.38 48.5198 307.36 49.9598 307.54 51.4598C307.72 52.9598 309.16 54.0398 310.66 53.7398Z" fill="#42210C"/>
<path d="M404.02 21.9998C407.74 21.9998 410.74 18.9398 410.74 15.2798C410.74 11.6198 407.74 8.55984 404.02 8.55984C400.36 8.55984 397.3 11.5598 397.3 15.2798C397.3 18.9398 400.3 21.9998 404.02 21.9998ZM404.02 18.8798C401.98 18.8798 400.42 17.2598 400.42 15.2798C400.42 13.2398 402.04 11.6798 404.02 11.6798C406.06 11.6798 407.62 13.2998 407.62 15.2798C407.62 17.2598 406.06 18.8798 404.02 18.8798ZM409.18 49.2398C410.68 48.9398 411.76 47.4998 411.52 45.9998C409.36 33.6398 400.3 26.7998 396.1 21.3398C395.14 20.1398 393.46 19.8398 392.26 20.6198C390.94 21.4598 390.64 23.1998 391.54 24.3398C395.98 30.0398 404.32 36.3398 406.12 46.9598C406.36 48.5198 407.74 49.4798 409.18 49.2398ZM367.9 48.3998C376.42 41.1398 380.14 33.8798 382.6 25.5998C383.02 24.0998 382.18 22.5998 380.74 22.1198C379.3 21.6998 377.74 22.5398 377.32 23.9798C375.46 30.0398 372.76 37.1198 364.54 44.0798C363.4 45.0398 363.16 46.7798 364.06 47.9798C365.02 49.1798 366.76 49.3598 367.9 48.3998Z" fill="#42210C"/>
<path d="M466.72 35.4398C468.16 35.4398 469.36 34.2998 469.36 32.7998C469.36 31.3598 468.16 30.1598 466.72 30.1598H429.28C427.84 30.1598 426.64 31.2998 426.64 32.7998C426.64 34.2398 427.84 35.4398 429.28 35.4398H466.72Z" fill="#42210C"/>
<path d="M526.36 37.6598C521.44 32.4998 514.06 27.8798 506.26 26.9198V12.9998C506.26 11.4998 505 10.2398 503.5 10.2398C502.06 10.2398 500.8 11.4998 500.8 12.9998V53.6798C500.8 55.1798 502.06 56.3798 503.5 56.3798C505.06 56.3798 506.26 55.1198 506.26 53.6798V32.1998C512.62 33.2798 517.72 36.2198 522.76 41.6798C523.78 42.7598 525.46 42.7598 526.36 41.6798C527.38 40.4798 527.38 38.7398 526.36 37.6598Z" fill="#42210C"/>
<path d="M587.02 22.5398C583.78 22.5398 579.28 22.6598 573.58 22.7798C573.58 19.0598 573.34 15.3398 573.1 11.6798C572.98 10.1798 571.66 9.03984 570.22 9.15983C568.72 9.33984 567.58 10.6598 567.7 12.0998C568 16.0598 568.18 19.6598 568.18 22.8998L548.92 23.4998C547.42 23.5598 546.28 24.8198 546.34 26.2598C546.34 27.7598 547.6 28.8998 549.1 28.8398C556.3 28.5998 562.6 28.4198 568.06 28.2998C567.28 41.6798 563.02 48.1598 553.96 51.0998C552.52 51.5198 551.68 53.0198 552.04 54.4598C552.46 55.8998 553.96 56.7398 555.4 56.3198C569.02 51.9998 572.86 40.7198 573.46 28.1198C579.22 27.9998 583.78 27.8798 587.02 27.8798C588.46 27.8798 589.66 26.6798 589.66 25.2398C589.72 23.7398 588.52 22.5398 587.02 22.5398Z" fill="#42210C"/>
<path d="M646.72 35.4398C648.16 35.4398 649.36 34.2998 649.36 32.7998C649.36 31.3598 648.16 30.1598 646.72 30.1598H609.28C607.84 30.1598 606.64 31.2998 606.64 32.7998C606.64 34.2398 607.84 35.4398 609.28 35.4398H646.72Z" fill="#42210C"/>
<path d="M711.94 13.6598C710.5 11.4998 708.7 9.09984 706.9 7.35984C706.18 6.57984 704.98 6.57984 704.14 7.35984C703.42 8.01984 703.48 9.21984 704.2 9.93983C705.64 11.4998 707.5 13.7798 708.76 15.6998C709.36 16.5998 710.5 16.8998 711.34 16.2998C712.24 15.6998 712.54 14.4998 711.94 13.6598ZM699.52 12.4598C701.02 14.0198 702.94 16.3598 704.2 18.3398C704.8 19.1798 706 19.4798 706.84 18.9398C707.74 18.3398 708.04 17.0798 707.44 16.2398C706 14.0798 704.08 11.4998 702.22 9.69983C701.44 8.97984 700.18 8.97984 699.46 9.75984C698.74 10.4798 698.74 11.7398 699.52 12.4598ZM693.52 37.7798C696.46 34.2998 698.56 31.0598 699.94 28.2998C704.14 19.7798 700.18 13.4798 691.54 14.9798C687.64 15.6998 679.6 16.3598 671.62 16.1798C670.18 16.1798 668.92 17.3198 668.92 18.7598C668.86 20.2598 670 21.4598 671.44 21.4598C679.24 21.5198 688.24 20.8598 692.32 20.1998C696.58 19.5398 697.36 21.1598 695.14 25.8998C692.2 31.8998 683.02 43.5998 667.48 50.4398C666.04 51.0398 665.32 52.5998 665.74 54.0998C666.22 55.5398 667.84 56.2598 669.22 55.5998C677.68 51.8198 684.4 46.9598 689.5 42.0398C695.32 44.3198 701.62 49.4798 705.52 55.1198C706.48 56.3198 708.1 56.5598 709.24 55.6598C710.44 54.6398 710.74 52.8998 709.84 51.6398C706.12 46.5398 699.7 40.7798 693.52 37.7798Z" fill="#42210C"/>
<path d="M747.1 46.0598C748.54 46.0598 749.62 44.9198 749.56 43.5398C749.44 31.0598 757.3 35.2598 761.2 25.6598C763.96 18.6398 759.7 8.19984 747.82 8.19984C734.68 8.19984 729.64 26.3198 738.22 26.3198C740.32 26.3198 742.06 24.5198 742.06 22.4798C742.06 21.0998 741.34 19.8398 740.14 19.1198C740.8 15.8198 743.98 13.4798 748 13.4798C755.02 13.4798 757.06 18.3998 756.64 21.5798C755.62 30.2198 744.64 27.9998 744.52 43.5398C744.52 44.9198 745.72 46.0598 747.1 46.0598ZM747.1 57.0398C749.38 57.0398 751.24 55.1798 751.24 52.9598C751.24 50.6798 749.38 48.8198 747.1 48.8198C744.88 48.8198 742.96 50.6798 742.96 52.9598C742.96 55.1798 744.82 57.0398 747.1 57.0398Z" fill="#42210C"/>
<path d="M31.6599 19.5998C32.9199 18.9398 33.4599 17.3198 32.8599 15.9398C32.2599 14.6798 30.7599 14.1998 29.4399 14.8598C27.7599 15.6998 25.9599 16.4198 24.0399 17.0198C24.6399 14.9798 25.2399 12.9998 25.7199 11.1998C26.0799 9.81984 25.2399 8.37984 23.8599 8.01983C22.4199 7.59984 21.0399 8.43984 20.6799 9.87984C19.9599 12.5798 19.1799 15.3998 18.2799 18.2798C15.2799 18.7598 12.2799 18.9398 9.57992 18.8798C8.13992 18.8198 6.93992 19.8998 6.75992 21.2798C6.63992 22.7198 7.65992 23.9798 9.09992 24.0998C11.4999 24.2198 13.9599 24.0998 16.4799 23.8598C13.9599 30.9998 10.5999 38.5598 5.67992 46.1798C4.89992 47.3798 5.19992 49.0598 6.39992 49.8998C7.65992 50.6798 9.33992 50.3798 10.1199 49.1198C15.5799 40.7198 19.4199 31.2998 22.1799 22.8998C25.6599 22.1198 28.8999 20.9798 31.6599 19.5998ZM49.2399 48.0998C46.7799 46.2398 42.9399 43.5998 38.3799 42.0398C36.6999 31.8398 37.7199 29.5598 43.8399 28.9598C50.0799 28.3598 48.8799 19.7798 34.9599 20.3798C33.4599 20.4398 32.3799 21.6998 32.4999 23.1998C32.5599 24.5798 33.8199 25.5398 35.2599 25.4198C36.5199 25.3598 37.8399 25.4198 39.0999 25.5998C35.3199 26.9798 31.7199 30.3398 32.9799 41.1998C14.7999 39.3998 17.6799 56.3798 30.4599 56.3798C37.7199 56.3798 39.1599 50.8598 39.0399 47.8598C41.9199 49.1798 44.3799 50.9198 46.1199 52.2398C47.2599 53.0798 48.8799 52.8398 49.7199 51.6998C50.5599 50.6198 50.3799 48.9398 49.2399 48.0998ZM26.1999 49.9598C23.2599 46.8998 28.4799 44.3198 33.8199 46.1198C34.9599 53.3198 28.3599 52.2398 26.1999 49.9598Z" stroke="white" stroke-width="10" mask="url(#path-1-outside-1_536:1130)"/>
<path d="M115.18 13.5998C113.74 10.2398 112.36 8.19984 110.02 6.09983C109.3 5.43984 108.16 5.49984 107.44 6.21984C106.78 6.87984 106.84 8.01983 107.56 8.67984C109.48 10.5398 110.8 12.5798 111.76 15.0998C112.18 16.0598 113.26 16.4798 114.16 16.1198C115.12 15.6998 115.6 14.5598 115.18 13.5998ZM102.7 11.2598C104.62 12.9398 105.82 14.7398 106.78 17.3198C107.14 18.2798 108.28 18.7598 109.24 18.3398C110.2 17.9198 110.68 16.7798 110.26 15.7598C109 12.7598 107.38 10.4198 105.22 8.43984C104.44 7.71984 103.24 7.83984 102.52 8.61983C101.86 9.39984 101.98 10.5998 102.7 11.2598ZM109.36 21.2798C106.06 21.2198 102.82 21.3398 99.5799 21.5798L99.2799 11.0198C99.2799 9.57984 98.0199 8.43984 96.5799 8.49984C95.1399 8.55984 93.9999 9.75984 93.9999 11.2598L94.2999 22.1198C89.8599 22.6598 85.2999 23.2598 80.4999 23.7398V13.4198C80.4999 11.9198 79.2999 10.7798 77.8599 10.7798C76.4199 10.7798 75.2799 11.9798 75.2799 13.4198V24.1598C72.5199 24.2798 69.6999 24.3998 66.7599 24.3398C65.3799 24.3398 64.1199 25.4198 64.1199 26.8598C64.0599 28.2998 65.1999 29.4398 66.5799 29.4998C69.4599 29.5598 72.3399 29.4398 75.2799 29.1998V41.6798C75.2799 46.8398 75.6399 51.1598 78.9399 53.9798C82.5399 57.0398 89.0199 56.5598 103.3 55.1198C104.8 54.9398 105.88 53.6198 105.82 52.1798C105.7 50.6798 104.44 49.5998 102.94 49.7198C83.0799 51.8798 80.4999 52.2398 80.4999 43.4798V28.7798C85.2399 28.2998 89.9199 27.6998 94.4799 27.2198C94.5399 30.5198 94.5999 33.2198 94.5999 34.4198C94.5999 37.6598 94.1799 39.4598 88.9599 38.1398C87.5199 37.7798 86.0799 38.5598 85.5999 39.9398C85.1199 41.3198 85.8999 42.8198 87.3399 43.1798C95.4399 45.2798 99.8799 42.2198 99.8799 34.5398C99.8799 33.2798 99.8199 30.2798 99.6999 26.7398C102.94 26.4998 106.12 26.3798 109.06 26.4398C110.44 26.4398 111.7 25.3598 111.76 23.9798C111.88 22.5398 110.74 21.3398 109.36 21.2798Z" stroke="white" stroke-width="10" mask="url(#path-1-outside-1_536:1130)"/>
<path d="M166.36 37.6598C161.44 32.4998 154.06 27.8798 146.26 26.9198V12.9998C146.26 11.4998 145 10.2398 143.5 10.2398C142.06 10.2398 140.8 11.4998 140.8 12.9998V53.6798C140.8 55.1798 142.06 56.3798 143.5 56.3798C145.06 56.3798 146.26 55.1198 146.26 53.6798V32.1998C152.62 33.2798 157.72 36.2198 162.76 41.6798C163.78 42.7598 165.46 42.7598 166.36 41.6798C167.38 40.4798 167.38 38.7398 166.36 37.6598Z" stroke="white" stroke-width="10" mask="url(#path-1-outside-1_536:1130)"/>
<path d="M226.72 35.4398C228.16 35.4398 229.36 34.2998 229.36 32.7998C229.36 31.3598 228.16 30.1598 226.72 30.1598H189.28C187.84 30.1598 186.64 31.2998 186.64 32.7998C186.64 34.2398 187.84 35.4398 189.28 35.4398H226.72Z" stroke="white" stroke-width="10" mask="url(#path-1-outside-1_536:1130)"/>
<path d="M261.76 23.2598C262.96 23.9798 264.52 23.6198 265.12 22.3598C265.84 21.0398 265.42 19.3598 264.22 18.5798C260.92 16.4798 256.78 15.0398 252.88 14.6198C251.44 14.4398 250.18 15.5198 249.94 17.0198C249.76 18.3398 250.78 19.5998 252.16 19.8398C255.64 20.3198 259 21.4598 261.76 23.2598ZM253.78 55.5998C267.58 52.0598 282.04 40.7198 288.46 30.6398C289.3 29.3198 289 27.5798 287.68 26.5598C286.48 25.6598 284.8 25.9598 283.96 27.2798C276.22 39.2198 262.3 47.3798 252.22 50.1398C250.72 50.5598 249.88 52.0598 250.3 53.4998C250.72 54.9998 252.28 55.9598 253.78 55.5998ZM258.28 36.2798C259.6 36.8198 261.16 36.2798 261.7 35.0198C262.3 33.5798 261.76 31.9598 260.38 31.3598C257.26 29.9798 252.94 29.0198 249.28 28.8398C247.78 28.7798 246.58 30.0398 246.52 31.5398C246.46 32.9198 247.6 34.1198 249.04 34.1798C251.92 34.3598 255.58 35.1398 258.28 36.2798Z" stroke="white" stroke-width="10" mask="url(#path-1-outside-1_536:1130)"/>
<path d="M324.16 28.5998C325.3 27.3398 325.24 25.4198 324.04 24.3998C321.04 21.8198 315.88 18.9998 310.6 18.2798C309.04 18.0998 307.66 19.2398 307.48 20.8598C307.3 22.3598 308.38 23.6798 309.88 23.9198C313.96 24.5798 317.56 26.1998 320.2 28.5998C321.34 29.6798 323.14 29.6798 324.16 28.5998ZM310.66 53.7398C325.84 50.4998 341.38 39.7598 350.2 28.0598C351.16 26.7998 350.86 24.9998 349.66 23.9798C348.4 23.0198 346.66 23.2598 345.7 24.5198C335.5 38.1998 320.56 45.6398 309.94 48.1598C308.38 48.5198 307.36 49.9598 307.54 51.4598C307.72 52.9598 309.16 54.0398 310.66 53.7398Z" stroke="white" stroke-width="10" mask="url(#path-1-outside-1_536:1130)"/>
<path d="M404.02 21.9998C407.74 21.9998 410.74 18.9398 410.74 15.2798C410.74 11.6198 407.74 8.55984 404.02 8.55984C400.36 8.55984 397.3 11.5598 397.3 15.2798C397.3 18.9398 400.3 21.9998 404.02 21.9998ZM404.02 18.8798C401.98 18.8798 400.42 17.2598 400.42 15.2798C400.42 13.2398 402.04 11.6798 404.02 11.6798C406.06 11.6798 407.62 13.2998 407.62 15.2798C407.62 17.2598 406.06 18.8798 404.02 18.8798ZM409.18 49.2398C410.68 48.9398 411.76 47.4998 411.52 45.9998C409.36 33.6398 400.3 26.7998 396.1 21.3398C395.14 20.1398 393.46 19.8398 392.26 20.6198C390.94 21.4598 390.64 23.1998 391.54 24.3398C395.98 30.0398 404.32 36.3398 406.12 46.9598C406.36 48.5198 407.74 49.4798 409.18 49.2398ZM367.9 48.3998C376.42 41.1398 380.14 33.8798 382.6 25.5998C383.02 24.0998 382.18 22.5998 380.74 22.1198C379.3 21.6998 377.74 22.5398 377.32 23.9798C375.46 30.0398 372.76 37.1198 364.54 44.0798C363.4 45.0398 363.16 46.7798 364.06 47.9798C365.02 49.1798 366.76 49.3598 367.9 48.3998Z" stroke="white" stroke-width="10" mask="url(#path-1-outside-1_536:1130)"/>
<path d="M466.72 35.4398C468.16 35.4398 469.36 34.2998 469.36 32.7998C469.36 31.3598 468.16 30.1598 466.72 30.1598H429.28C427.84 30.1598 426.64 31.2998 426.64 32.7998C426.64 34.2398 427.84 35.4398 429.28 35.4398H466.72Z" stroke="white" stroke-width="10" mask="url(#path-1-outside-1_536:1130)"/>
<path d="M526.36 37.6598C521.44 32.4998 514.06 27.8798 506.26 26.9198V12.9998C506.26 11.4998 505 10.2398 503.5 10.2398C502.06 10.2398 500.8 11.4998 500.8 12.9998V53.6798C500.8 55.1798 502.06 56.3798 503.5 56.3798C505.06 56.3798 506.26 55.1198 506.26 53.6798V32.1998C512.62 33.2798 517.72 36.2198 522.76 41.6798C523.78 42.7598 525.46 42.7598 526.36 41.6798C527.38 40.4798 527.38 38.7398 526.36 37.6598Z" stroke="white" stroke-width="10" mask="url(#path-1-outside-1_536:1130)"/>
<path d="M587.02 22.5398C583.78 22.5398 579.28 22.6598 573.58 22.7798C573.58 19.0598 573.34 15.3398 573.1 11.6798C572.98 10.1798 571.66 9.03984 570.22 9.15983C568.72 9.33984 567.58 10.6598 567.7 12.0998C568 16.0598 568.18 19.6598 568.18 22.8998L548.92 23.4998C547.42 23.5598 546.28 24.8198 546.34 26.2598C546.34 27.7598 547.6 28.8998 549.1 28.8398C556.3 28.5998 562.6 28.4198 568.06 28.2998C567.28 41.6798 563.02 48.1598 553.96 51.0998C552.52 51.5198 551.68 53.0198 552.04 54.4598C552.46 55.8998 553.96 56.7398 555.4 56.3198C569.02 51.9998 572.86 40.7198 573.46 28.1198C579.22 27.9998 583.78 27.8798 587.02 27.8798C588.46 27.8798 589.66 26.6798 589.66 25.2398C589.72 23.7398 588.52 22.5398 587.02 22.5398Z" stroke="white" stroke-width="10" mask="url(#path-1-outside-1_536:1130)"/>
<path d="M646.72 35.4398C648.16 35.4398 649.36 34.2998 649.36 32.7998C649.36 31.3598 648.16 30.1598 646.72 30.1598H609.28C607.84 30.1598 606.64 31.2998 606.64 32.7998C606.64 34.2398 607.84 35.4398 609.28 35.4398H646.72Z" stroke="white" stroke-width="10" mask="url(#path-1-outside-1_536:1130)"/>
<path d="M711.94 13.6598C710.5 11.4998 708.7 9.09984 706.9 7.35984C706.18 6.57984 704.98 6.57984 704.14 7.35984C703.42 8.01984 703.48 9.21984 704.2 9.93983C705.64 11.4998 707.5 13.7798 708.76 15.6998C709.36 16.5998 710.5 16.8998 711.34 16.2998C712.24 15.6998 712.54 14.4998 711.94 13.6598ZM699.52 12.4598C701.02 14.0198 702.94 16.3598 704.2 18.3398C704.8 19.1798 706 19.4798 706.84 18.9398C707.74 18.3398 708.04 17.0798 707.44 16.2398C706 14.0798 704.08 11.4998 702.22 9.69983C701.44 8.97984 700.18 8.97984 699.46 9.75984C698.74 10.4798 698.74 11.7398 699.52 12.4598ZM693.52 37.7798C696.46 34.2998 698.56 31.0598 699.94 28.2998C704.14 19.7798 700.18 13.4798 691.54 14.9798C687.64 15.6998 679.6 16.3598 671.62 16.1798C670.18 16.1798 668.92 17.3198 668.92 18.7598C668.86 20.2598 670 21.4598 671.44 21.4598C679.24 21.5198 688.24 20.8598 692.32 20.1998C696.58 19.5398 697.36 21.1598 695.14 25.8998C692.2 31.8998 683.02 43.5998 667.48 50.4398C666.04 51.0398 665.32 52.5998 665.74 54.0998C666.22 55.5398 667.84 56.2598 669.22 55.5998C677.68 51.8198 684.4 46.9598 689.5 42.0398C695.32 44.3198 701.62 49.4798 705.52 55.1198C706.48 56.3198 708.1 56.5598 709.24 55.6598C710.44 54.6398 710.74 52.8998 709.84 51.6398C706.12 46.5398 699.7 40.7798 693.52 37.7798Z" stroke="white" stroke-width="10" mask="url(#path-1-outside-1_536:1130)"/>
<path d="M747.1 46.0598C748.54 46.0598 749.62 44.9198 749.56 43.5398C749.44 31.0598 757.3 35.2598 761.2 25.6598C763.96 18.6398 759.7 8.19984 747.82 8.19984C734.68 8.19984 729.64 26.3198 738.22 26.3198C740.32 26.3198 742.06 24.5198 742.06 22.4798C742.06 21.0998 741.34 19.8398 740.14 19.1198C740.8 15.8198 743.98 13.4798 748 13.4798C755.02 13.4798 757.06 18.3998 756.64 21.5798C755.62 30.2198 744.64 27.9998 744.52 43.5398C744.52 44.9198 745.72 46.0598 747.1 46.0598ZM747.1 57.0398C749.38 57.0398 751.24 55.1798 751.24 52.9598C751.24 50.6798 749.38 48.8198 747.1 48.8198C744.88 48.8198 742.96 50.6798 742.96 52.9598C742.96 55.1798 744.82 57.0398 747.1 57.0398Z" stroke="white" stroke-width="10" mask="url(#path-1-outside-1_536:1130)"/>
</svg>
