<svg width="714" height="56" viewBox="0 0 714 56" fill="none" xmlns="http://www.w3.org/2000/svg">
<mask id="path-1-outside-1_536:1137" maskUnits="userSpaceOnUse" x="-0.137695" y="-0.130371" width="715" height="56" fill="black">
<rect fill="white" x="-0.137695" y="-0.130371" width="715" height="56"/>
<path d="M24.3998 21.6C27.0498 17.9999 29.0998 14.3 30.2498 10.95C30.6498 9.84995 29.9998 8.54995 28.8498 8.19995C27.7498 7.79995 26.4998 8.44995 26.0998 9.54995C25.5498 11.0999 24.8498 12.65 24.0498 14.2C23.8998 13.1499 22.9998 12.4 21.9498 12.4H18.7498V8.54995C18.7498 7.34995 17.7498 6.39995 16.5498 6.39995C15.3998 6.39995 14.3998 7.34995 14.3998 8.54995V12.4H10.9998C9.84975 12.4 8.89975 13.3 8.89975 14.5C8.89975 15.65 9.84975 16.6 10.9998 16.6H14.3998V21.6H8.69975C7.49975 21.6 6.54975 22.6 6.54975 23.7C6.54975 24.85 7.49975 25.8 8.69975 25.8H15.3498C12.8998 28.2 10.1498 30.3 7.14975 32C6.09975 32.6 5.59975 33.9 5.99975 35.05C6.39975 36.15 7.69975 36.65 8.74975 36.1C9.54975 35.65 10.3998 35.15 11.1998 34.6V46.5C11.1998 48.35 12.6998 49.8 14.4998 49.8H25.0498C26.8998 49.8 28.3498 48.3 28.3498 46.5V32.3C28.3498 30.5 26.8498 29 25.0498 29H17.9998C19.0498 27.95 20.0498 26.9 21.0498 25.8H28.2998C29.4498 25.8 30.3998 24.9 30.3998 23.7C30.3998 22.55 29.4498 21.6 28.2998 21.6H24.3998ZM43.2498 22.6999C45.2998 19.9999 47.4498 15.45 48.5498 11.3499C48.9998 9.69995 47.6998 8.04995 45.8998 8.04995H34.7998C32.9498 8.04995 31.4998 9.54995 31.4998 11.3499V48C31.4998 49.15 32.4498 50.15 33.5998 50.15C34.7998 50.15 35.7498 49.2 35.7498 48V12.25H43.8498C42.7998 15.45 41.3998 18.15 39.4498 20.7C38.3498 22.15 38.5498 24.2499 39.8998 25.4C43.1998 28.2499 45.7998 30.8 45.7998 34.85C45.7998 38.4 43.9998 39.9 39.5998 39.85C38.4498 39.8 37.4498 40.7 37.4498 41.85C37.4498 43.05 38.3998 44.1 39.5998 44.1C46.0998 44.15 50.0498 40.7 50.0498 34.8C50.0498 29.55 46.6498 25.5 43.2498 22.6999ZM21.9498 16.6C22.2498 16.6 22.4998 16.55 22.7498 16.4C21.6998 18.2 20.4998 19.8999 19.1498 21.6H18.7498V16.6H21.9498ZM15.3998 36.8V33.15H24.0998V36.8H15.3998ZM15.3998 40.95H24.0998V45.65H15.3998V40.95Z"/>
<path d="M83.0998 16.5C84.2498 16.95 85.4998 16.35 85.7998 15.2C86.0998 13.95 85.4498 12.7 84.2998 12.25C80.5998 10.85 74.4498 9.24995 69.5498 8.74995C68.3498 8.59995 67.2498 9.49995 67.0998 10.75C66.8998 11.9 67.7497 13 68.9497 13.1C74.0997 13.65 78.7998 14.8 83.0998 16.5ZM80.7497 49.15C86.6997 49.15 88.9997 46.2 91.0997 42.7C91.7497 41.65 91.4497 40.3 90.4497 39.65C89.4497 39 88.1497 39.3 87.4997 40.35C84.9997 44.25 84.5998 44.95 78.7998 44.95C72.7498 44.95 71.9997 44.55 71.9997 41.45V21.75C71.9997 20.5499 71.0498 19.55 69.7998 19.55C68.5998 19.55 67.5998 20.5499 67.5998 21.75V41.45C67.5998 46.35 70.6497 49.15 75.8497 49.15H80.7497ZM97.3997 42.8C98.5997 42.5 99.3997 41.35 99.1497 40.15C98.1998 35.75 95.8997 29.2 93.7497 25.4499C93.0997 24.35 91.6497 23.95 90.4997 24.6C89.4497 25.15 89.0998 26.5 89.7497 27.55C91.7997 30.95 93.7498 36.75 94.7998 41.1C95.0498 42.25 96.1997 43.05 97.3997 42.8ZM58.0998 46.45C59.3498 46.85 60.6998 46.25 61.1998 45.05C63.0498 40.45 64.6998 34.3 65.4498 29.7C65.6498 28.5 64.8498 27.35 63.5998 27.1C62.4498 26.85 61.2998 27.6 61.0998 28.85C60.2498 34.05 58.6998 39.55 56.8498 43.65C56.3498 44.8 56.9498 46.1 58.0998 46.45Z"/>
<path d="M127.5 15.0499C128.65 15.0499 129.55 14.1 129.55 13C129.55 11.85 128.6 10.95 127.5 10.95H121.1V8.24995C121.1 7.04995 120.1 6.09995 118.95 6.09995C117.8 6.09995 116.8 7.04995 116.8 8.24995V10.95H110.4C109.25 10.95 108.35 11.9 108.35 13C108.35 14.15 109.3 15.0499 110.4 15.0499H127.5ZM143.25 22.6999C145.4 19.8499 147.45 15.4 148.55 11.3499C149 9.69995 147.7 8.04995 145.9 8.04995H135.05C133.25 8.04995 131.75 9.54995 131.75 11.3499V47.95C131.75 49.15 132.75 50.15 133.95 50.15C135.15 50.15 136.1 49.15 136.1 47.95V12.25H143.85C142.8 15.45 141.4 18.15 139.45 20.7C138.35 22.15 138.55 24.2499 139.9 25.4C143.2 28.2499 145.8 30.8 145.8 34.85C145.8 38.35 143.9 39.9 139.45 39.85C138.3 39.85 137.35 40.75 137.4 41.9C137.45 43.1 138.4 44.1 139.55 44.15C146.05 44.25 150 40.75 150 34.85C150 29.8 146.75 25.4499 143.25 22.6999ZM123.75 25C124.95 22.9 126.05 20.55 126.85 18.2C127.25 17.1 126.6 15.9 125.5 15.5C124.45 15.05 123.3 15.65 122.9 16.75C121.8 19.75 120.2 22.9 118.8 25H116.85C117.85 24.55 118.3 23.35 117.9 22.35C117.1 20.3 116.05 18.1 115.05 16.3C114.4 15.2 113 14.85 111.9 15.4499C110.85 16 110.6 17.2999 111.3 18.3C112.35 19.75 113.4 21.6999 114.3 23.9499C114.5 24.4499 114.85 24.8 115.25 25H108.65C107.5 25 106.6 25.95 106.6 27.05C106.6 28.15 107.5 29.1 108.65 29.1H129.25C130.4 29.1 131.3 28.15 131.3 27.05C131.3 25.9 130.35 25 129.25 25H123.75ZM113.15 31.45C111.3 31.45 109.85 32.95 109.85 34.75V46.3C109.85 48.1 111.3 49.6 113.15 49.6H124.8C126.6 49.6 128.1 48.1 128.1 46.3V34.75C128.1 32.95 126.6 31.45 124.8 31.45H113.15ZM114.2 45.3V35.75H123.7V45.3H114.2Z"/>
<path d="M180 46.05C193.8 44.2 198.2 33.35 195.9 25.25C192.15 12.15 172.85 10.1999 164.05 22.1C158.2 30.1 158.65 41.4 165 42.9C171.75 44.5 178.05 32.25 180.95 18.6C186.95 18.6999 191.75 23.1 192 28.75C192.3 35.65 187.75 40.25 179.35 41.55C178.15 41.75 177.3 42.85 177.5 44.05C177.65 45.3 178.8 46.2 180 46.05ZM164.75 37.6C162.5 33.85 165.35 21.0499 176.3 18.9C174.2 29.05 167.65 42.5 164.75 37.6Z"/>
<path d="M226.6 32.55C226.65 30.7 225.2 29.25 223.35 29.25H220.6V26H224.1C225.15 26 226.05 25.1 226.05 24C226.05 22.95 225.15 22.05 224.1 22.05H220.6V18.8H224.1C225.15 18.8 226.05 17.9 226.05 16.85C226.05 15.75 225.15 14.85 224.1 14.85H220.6V11.6H224.9C225.95 11.6 226.9 10.7 226.9 9.59995C226.9 8.49995 226 7.59995 224.9 7.59995H211.95C210.15 7.59995 208.65 9.04995 208.65 10.9V29.95C208.65 31.8 210.15 33.25 211.95 33.25H218.9C218.4 33.5 218.15 34.0999 218.3 34.65C218.85 36.6 219.2 38.6 219.3 40.8C219.35 41.45 220 42 220.65 41.85C221 41.75 221.35 41.55 221.55 41.25C221.5 41.6 221.45 41.9 221.35 42.25C220.7 45.3 219.85 46 217.1 45.85C215.9 45.8 214.9 46.7 214.9 47.85C214.85 49.05 215.8 50.1 217 50.1C221.85 50.2 224.3 48.2 225.5 43.1C226.15 39.5 226.45 35.8 226.6 32.55ZM249.2 45.85C243.65 41.85 239.45 33.65 238.45 27.05H244.1C245.9 27.05 247.4 25.55 247.4 23.75V11.25C247.4 9.44995 245.9 7.94995 244.1 7.94995H230.95C229.1 7.94995 227.65 9.49995 227.65 11.25V25.9C227.65 30.35 227.45 40.25 224.95 47.5C224.55 48.65 225.2 49.85 226.4 50.1C227.65 50.4 228.9 49.65 229.25 48.45C231.65 40.1 231.9 30.1 231.9 27.05H234.2C235.4 36.2 241.55 46.15 247.4 49.7C248.35 50.3 249.6 49.85 250.1 48.75C250.5 47.75 250.15 46.55 249.2 45.85ZM216.5 14.85H212.9V11.6H216.5V14.85ZM243.05 12.25V22.75H231.95V12.25H243.05ZM212.9 22.05V18.8H216.5V22.05H212.9ZM216.5 26V29.25H212.9V26H216.5ZM221.8 39.75C221.7 37.9 221.35 35.95 220.8 34.05C220.7 33.7 220.45 33.4 220.15 33.25H222.35C222.25 35.35 222.15 37.6 221.8 39.75ZM217.6 43.45C218.45 43.3 219.05 42.6 218.95 41.8C218.75 39.45 218.3 37 217.6 34.55C217.4 33.8 216.6 33.4 215.8 33.6C215.05 33.8 214.65 34.5999 214.9 35.4C215.6 37.7 216 39.85 216.15 42.25C216.2 43 216.9 43.6 217.6 43.45ZM215.75 42.9C215.6 40.3 215.2 37.7 214.45 35.1C214.25 34.3 213.35 33.8 212.55 34.05C211.75 34.2 211.3 35 211.55 35.85C211.55 35.9 211.55 35.95 211.6 35.95C211.3 35.55 210.85 35.3 210.3 35.2C209.25 35 208.3 35.7 208.2 36.75C207.9 39.15 207.35 42.25 206.65 44.75C206.4 45.75 207 46.8 208 47C209.1 47.2 210.2 46.55 210.5 45.5C211.25 42.8 211.75 39.8 212 37.5C212.45 39.45 212.7 41.35 212.8 43.5C212.85 44.3 213.55 44.9 214.35 44.75C215.2 44.55 215.85 43.75 215.75 42.9Z"/>
<path d="M258.85 20.9C262.65 18.2 266.75 13.1999 268.75 8.74995C269.25 7.64995 268.65 6.39995 267.45 5.99995C266.35 5.59995 265.1 6.14995 264.55 7.24995C262.85 10.85 259.95 14.4999 256.8 16.95C255.85 17.7 255.5 19 256.05 20.1C256.55 21.2 257.9 21.55 258.85 20.9ZM291.05 45.55C289.35 45.55 287.8 45.3 286.4 44.8V35.85H294.9C296.05 35.85 296.95 34.9 296.95 33.8C296.95 32.65 296 31.6999 294.9 31.6999H286.4V26H297.35C298.5 26 299.45 25 299.45 23.85C299.45 22.75 298.5 21.75 297.35 21.75H286.35V16.8H295.05C296.2 16.8 297.15 15.85 297.15 14.7C297.15 13.55 296.2 12.6 295.05 12.6H286.35V8.49995C286.35 7.29995 285.35 6.34995 284.2 6.34995C283.05 6.34995 282.05 7.29995 282.05 8.49995V12.6H273.75C272.6 12.6 271.6 13.55 271.6 14.7C271.6 15.85 272.55 16.8 273.75 16.8H282.05V21.75H271.45C270.25 21.75 269.35 22.75 269.35 23.85C269.35 25.05 270.3 26 271.45 26H282.05V42.2C279.85 40.25 277.95 37.5 275.95 34C276.15 32.9 276.35 31.85 276.5 30.8C276.7 29.6 275.9 28.5 274.7 28.25C273.6 28.05 272.5 28.8 272.3 29.95C271.5 35.7 269.5 42.7 266.95 47.25C266.35 48.3 266.85 49.65 267.95 50C269.2 50.35 270.55 49.8 271.1 48.65C272.45 45.95 273.6 42.85 274.55 39.75C279 46.55 284.35 49.75 291.05 49.75H297.2C298.4 49.75 299.3 48.8 299.3 47.65C299.3 46.45 298.35 45.55 297.2 45.55H291.05ZM269.3 20.45C269.8 19.35 269.35 18.1 268.25 17.5499C267.25 17 266 17.45 265.5 18.5C263.55 22.3 260.5 26.7 256.85 29.55C255.9 30.35 255.55 31.7 256.05 32.75C256.55 33.85 257.9 34.25 258.85 33.5C259.7 32.85 260.55 32.15 261.35 31.4V48.05C261.35 49.2 262.3 50.15 263.5 50.15C264.7 50.15 265.65 49.2 265.65 48.05V26.6C267.1 24.65 268.35 22.55 269.3 20.45Z"/>
<path d="M325.8 25.3V34.55C325.8 35.45 325.75 35.5 323.2 35.35C321.95 35.25 320.9 36.2 320.85 37.45C320.8 38.7 321.8 39.75 323 39.8C328.25 39.9 330.2 38.5 330.2 34.5V25.3H347.25C348.45 25.3 349.4 24.3 349.4 23.15C349.4 21.9499 348.4 21 347.25 21H330.25V16.7H341.9C343.1 16.7 344.05 15.6999 344.05 14.5499C344.05 13.35 343.1 12.4 341.9 12.4H330.25V8.54995C330.25 7.29995 329.2 6.29995 328 6.29995C326.8 6.29995 325.75 7.29995 325.75 8.54995V21H319.5V12.4C319.5 11.2 318.5 10.25 317.35 10.25C316.15 10.25 315.2 11.25 315.2 12.4V21H308.75C307.6 21 306.6 21.9499 306.6 23.15C306.6 24.35 307.6 25.3 308.75 25.3H325.8ZM321.05 28.9499C321.6 27.9999 321.25 26.7 320.25 26.05C319.35 25.5 318.15 25.75 317.5 26.6C314.85 30.25 310.75 33.45 307.65 34.95C306.55 35.5 306 36.75 306.4 37.85C306.85 39.05 308.2 39.65 309.3 39.1C313 37.3 318.6 33.05 321.05 28.9499ZM348.35 35.5C344.8 33.55 341.6 30.4999 339.35 26.9C338.7 25.8999 337.35 25.5 336.3 26.05C335.2 26.6 334.8 27.95 335.45 28.9499C336.35 30.4 337.45 31.85 338.7 33.1999C334.8 37.1499 326.5 43.45 310.4 45.65C309.2 45.8 308.35 46.9 308.45 48.1C308.55 49.3 309.65 50.2 310.85 50.05C324.35 48.35 335.75 42.6 341.85 36.25C343.5 37.7 345.25 38.95 347 39.85C348.05 40.45 349.4 39.8 349.75 38.6C350.05 37.45 349.5 36.15 348.35 35.5Z"/>
<path d="M372.75 43.7C371.35 43.85 369.85 43.95 368.3 44V12.8C368.3 11.15 366.6 10.15 365.15 10.85L357.8 14.4C356.7 14.9 356.2 16.25 356.75 17.4C357.3 18.4999 358.65 18.9499 359.8 18.4L363.8 16.5V44C362.25 43.95 360.7 43.85 359.15 43.7C357.8 43.6 356.7 44.6 356.7 45.95C356.7 47.3 357.8 48.3 359.15 48.2C363.05 47.75 368.3 47.75 372.75 48.2C374.1 48.3 375.15 47.3 375.15 45.95C375.15 44.6 374.1 43.6 372.75 43.7Z"/>
<path d="M395.057 10.15C385.957 10.15 380.407 17.2 380.407 28.85C380.407 41 385.807 48.2 395.057 48.2C404.307 48.2 409.757 41 409.757 28.85C409.757 17.2 404.207 10.15 395.057 10.15ZM395.057 44C388.807 44 384.957 38.25 384.957 28.9499C384.957 20.0499 388.907 14.4 395.057 14.4C401.207 14.4 405.207 20.0499 405.207 28.9499C405.207 38.2 401.307 44 395.057 44Z"/>
<path d="M458.272 22.1C452.072 17.2 448.622 12.1 445.972 7.74995C445.322 6.64995 443.972 6.09995 442.722 6.49995C441.572 6.89995 441.022 8.24995 441.622 9.29995C444.972 15.1 450.672 22.3 455.722 26.1C456.772 26.85 458.222 26.55 458.922 25.4499C459.572 24.35 459.322 22.9 458.272 22.1ZM418.872 26C424.222 22.05 429.622 15.8 432.922 9.69995C433.522 8.64995 433.022 7.34995 431.872 6.89995C430.772 6.44995 429.472 6.89995 428.872 7.94995C426.022 12.9 421.622 18.2 416.822 21.85C415.772 22.65 415.422 24.05 415.922 25.2C416.472 26.35 417.872 26.7 418.872 26ZM424.922 24.3C423.722 24.3 422.772 25.3 422.772 26.5C422.772 27.65 423.722 28.65 424.922 28.65H433.272C431.572 36.55 426.372 42.4 418.522 45.25C417.272 45.7 416.572 46.95 416.872 48.2C417.172 49.5 418.472 50.25 419.672 49.85C428.922 46.85 436.222 38.3 437.822 28.65H447.472C447.272 35.05 446.672 40.35 446.222 42.65C445.622 45.7 443.472 45.75 440.172 45.25C438.922 45.05 437.772 45.9 437.622 47.1C437.422 48.35 438.272 49.5 439.522 49.7C445.872 50.5 449.522 48.5 450.522 43.6C451.172 40.5 451.722 34.2 451.872 27.65C451.922 25.8 450.472 24.3 448.622 24.3H424.922Z"/>
<path d="M470.572 7.34995C468.722 7.34995 467.272 8.84995 467.272 10.65V45.75C467.272 47.6 468.772 49.05 470.572 49.05H504.372C506.222 49.05 507.672 47.55 507.672 45.75V10.65C507.672 8.84995 506.172 7.34995 504.372 7.34995H470.572ZM486.772 11.6C486.272 11.85 485.822 12.3 485.672 12.9C485.272 14.6 484.622 16.4 483.822 18.2H483.172C483.472 17.65 483.472 17 483.172 16.45C482.572 15.35 481.772 14.15 481.072 13.1999C480.372 12.2 478.922 12.0499 477.922 12.85C477.022 13.55 477.022 14.9 477.822 15.75C478.572 16.5 479.222 17.35 479.772 18.15C479.772 18.15 479.772 18.2 479.822 18.2H476.722C475.672 18.2 474.772 19.1 474.772 20.15C474.772 21.2 475.622 22.1 476.722 22.1H481.772C481.222 22.95 480.672 23.75 480.122 24.55H475.322C474.272 24.55 473.372 25.45 473.372 26.5C473.372 27.55 474.272 28.45 475.322 28.45H476.772C475.472 29.75 474.072 30.8999 472.572 31.9C472.022 32.2499 471.672 32.8 471.522 33.35V11.6H486.772ZM471.522 44.8V34.45L471.672 34.85C472.172 35.9 473.422 36.35 474.422 35.75C476.672 34.3 479.522 31.75 482.172 28.45H492.222C494.872 31.35 497.922 33.95 500.672 35.45C501.622 35.95 502.822 35.55 503.222 34.5C503.622 33.5 503.222 32.35 502.322 31.8C500.772 30.85 499.272 29.75 497.822 28.45H499.622C500.672 28.45 501.572 27.55 501.572 26.5C501.572 25.45 500.672 24.55 499.622 24.55H494.172C493.522 23.8 492.922 22.95 492.322 22.1H498.222C499.272 22.1 500.172 21.2 500.172 20.15C500.172 19.1 499.322 18.2 498.222 18.2H495.472C496.222 17.3 496.972 16.3499 497.622 15.3C498.172 14.4 497.872 13.1999 496.922 12.6999C495.972 12.2499 494.822 12.55 494.222 13.45C492.972 15.3 491.372 16.95 489.772 18.2H488.172C488.722 16.85 489.172 15.4499 489.522 14C489.772 13.05 489.222 12.05 488.272 11.6H503.422V44.8H471.522ZM487.472 22.1C487.972 22.9 488.472 23.75 489.072 24.55H484.922C485.422 23.75 485.922 22.95 486.372 22.1H487.472ZM497.822 37.7C496.972 37.1 495.722 37.25 494.972 38.1C493.922 39.3 493.072 39.65 490.822 39.65H484.522C482.422 39.65 482.372 39.6 482.372 38.5V37.75H491.172C492.872 37.75 494.222 36.35 494.222 34.7V32.4C494.222 30.7 492.822 29.35 491.172 29.35H482.372C481.322 29.35 480.522 30.2 480.522 31.2C480.522 32.25 481.372 33.05 482.372 33.05H490.122V34.05H481.322C479.672 34.05 478.272 35.45 478.272 37.1V38.5C478.272 42 480.222 43.65 484.322 43.65H490.822C494.272 43.65 496.272 42.8 498.172 40.5C498.922 39.65 498.722 38.4 497.822 37.7Z"/>
<path d="M539.672 14.2999V8.49995C539.672 7.29995 538.722 6.29995 537.472 6.29995C536.272 6.29995 535.272 7.29995 535.272 8.49995V14.2999H521.472C519.672 14.2999 518.172 15.8 518.172 17.6V48C518.172 49.2 519.172 50.2 520.372 50.2C521.572 50.2 522.572 49.2 522.572 48V18.65H535.122C534.072 25.2499 528.522 31.7 523.772 34.6C522.722 35.2 522.272 36.5 522.822 37.55C523.322 38.65 524.672 39.05 525.672 38.45C530.222 35.8 535.072 30.6 537.672 24.85C540.222 29.9 544.472 35.45 549.172 38.35C550.222 39 551.622 38.55 552.172 37.4C552.272 37.15 552.372 36.85 552.372 36.6V44.15C552.372 45.6 551.822 45.9 548.772 45.75C547.572 45.65 546.522 46.6 546.472 47.8C546.422 49.05 547.372 50.15 548.622 50.2C554.022 50.4 556.772 48.4 556.772 44.15V17.6C556.772 15.8 555.272 14.2999 553.472 14.2999H539.672ZM551.172 34.3C546.072 30.95 541.172 23.6 539.822 18.65H552.372V36.3C552.322 35.55 551.872 34.8 551.172 34.3Z"/>
<path d="M589.472 46.05C603.272 44.2 607.672 33.35 605.372 25.25C601.622 12.15 582.322 10.1999 573.522 22.1C567.672 30.1 568.122 41.4 574.472 42.9C581.222 44.5 587.522 32.25 590.422 18.6C596.422 18.6999 601.222 23.1 601.472 28.75C601.772 35.65 597.222 40.25 588.822 41.55C587.622 41.75 586.772 42.85 586.972 44.05C587.122 45.3 588.272 46.2 589.472 46.05ZM574.222 37.6C571.972 33.85 574.822 21.0499 585.772 18.9C583.672 29.05 577.122 42.5 574.222 37.6Z"/>
<path d="M640.972 14.4C641.722 12.6 642.322 10.7 642.722 8.74995C642.972 7.59995 642.172 6.49995 640.972 6.34995C639.772 6.14995 638.672 6.94995 638.372 8.09995C637.122 13.3999 634.672 18 631.422 21.4C630.572 22.25 630.472 23.6 631.222 24.55C631.972 25.5 633.372 25.65 634.222 24.8C635.822 23.2 637.472 21.1 638.922 18.6H641.972C640.272 24.15 636.872 29 632.422 32.45C631.422 33.2 631.072 34.55 631.622 35.65C632.172 36.8 633.572 37.15 634.522 36.4C638.072 33.6499 644.222 27.35 646.422 18.6H648.572C646.222 29.55 640.872 37.95 632.672 43.3C631.672 43.95 631.272 45.3 631.872 46.4C632.422 47.5 633.822 47.85 634.822 47.2C644.022 41.2 650.622 30.85 653.072 18.6H653.522C653.472 24.25 653.322 33.1 652.972 38.1C652.472 44.75 651.122 46.25 646.322 45.65C645.072 45.5 643.922 46.35 643.772 47.55C643.572 48.8 644.422 49.95 645.672 50.05C653.372 50.75 656.822 47.3 657.322 38.4C657.622 32.95 657.822 23.3 657.872 17.7C657.872 15.9 656.422 14.4 654.572 14.4H640.972ZM632.322 30.65C632.122 29.55 630.922 28.9 629.822 29.3C629.272 29.5 628.622 29.75 628.022 29.95V19.7H630.422C631.622 19.7 632.572 18.6999 632.572 17.5499C632.572 16.3999 631.622 15.4 630.422 15.4H628.022V8.69995C628.022 7.49995 627.072 6.59995 625.922 6.59995C624.772 6.59995 623.822 7.54995 623.822 8.69995V15.4H622.922C623.122 14.2499 623.322 13.05 623.372 11.85C623.472 10.65 622.522 9.69995 621.322 9.69995C620.172 9.69995 619.222 10.6 619.122 11.75C618.772 15.25 617.872 18.7 616.022 21.25C615.322 22.25 615.272 23.55 616.022 24.4C616.772 25.3499 618.172 25.4 618.872 24.5C619.972 23.1 620.872 21.5 621.622 19.7H623.822V31.2C621.772 31.7 619.722 32.2 617.972 32.5C616.772 32.75 615.922 33.8 615.922 35C615.922 36.15 616.972 37 618.072 36.8C619.772 36.5 621.772 36.1 623.822 35.55V48.05C623.822 49.25 624.772 50.15 625.922 50.15C627.072 50.15 628.022 49.25 628.022 48.05V34.4C628.972 34.15 629.922 33.8 630.822 33.5C631.922 33.05 632.572 31.85 632.322 30.65Z"/>
<path d="M679.472 8.79995C679.672 7.59995 678.872 6.44995 677.672 6.19995C676.472 5.94995 675.322 6.74995 675.072 7.89995C673.572 14.55 670.672 20.25 666.422 25.05C665.522 26 665.472 27.45 666.272 28.45C667.022 29.45 668.472 29.5 669.322 28.6C669.822 28 670.372 27.4 670.872 26.75V48C670.872 49.15 671.872 50.15 673.072 50.15C674.272 50.15 675.222 49.15 675.222 48V20.15C677.222 16.5 678.772 12.55 679.472 8.79995ZM695.572 30.65V20.2H704.072C705.272 20.2 706.272 19.1999 706.272 18C706.272 16.85 705.272 15.85 704.072 15.85H695.572V8.74995C695.572 7.54995 694.572 6.59995 693.422 6.59995C692.172 6.59995 691.222 7.54995 691.222 8.74995V15.85H685.772C686.522 13.95 687.122 12 687.522 10.25C687.822 8.99995 686.972 7.79995 685.772 7.44995C684.572 7.14995 683.422 7.89995 683.122 9.09995C681.972 14.5 679.422 19.6499 676.222 23.1C675.272 24.15 675.172 25.65 675.922 26.7C676.722 27.8 678.272 27.8999 679.122 26.9499C680.822 25.15 682.372 22.75 683.722 20.2H691.222V30.65H678.872C677.672 30.65 676.722 31.6 676.722 32.8C676.722 33.95 677.672 34.95 678.872 34.95H691.222V48C691.222 49.15 692.172 50.15 693.422 50.15C694.622 50.15 695.572 49.15 695.572 48V34.95H706.822C708.022 34.95 708.972 34 708.972 32.8C708.972 31.65 708.022 30.65 706.822 30.65H695.572Z"/>
</mask>
<path d="M24.3998 21.6C27.0498 17.9999 29.0998 14.3 30.2498 10.95C30.6498 9.84995 29.9998 8.54995 28.8498 8.19995C27.7498 7.79995 26.4998 8.44995 26.0998 9.54995C25.5498 11.0999 24.8498 12.65 24.0498 14.2C23.8998 13.1499 22.9998 12.4 21.9498 12.4H18.7498V8.54995C18.7498 7.34995 17.7498 6.39995 16.5498 6.39995C15.3998 6.39995 14.3998 7.34995 14.3998 8.54995V12.4H10.9998C9.84975 12.4 8.89975 13.3 8.89975 14.5C8.89975 15.65 9.84975 16.6 10.9998 16.6H14.3998V21.6H8.69975C7.49975 21.6 6.54975 22.6 6.54975 23.7C6.54975 24.85 7.49975 25.8 8.69975 25.8H15.3498C12.8998 28.2 10.1498 30.3 7.14975 32C6.09975 32.6 5.59975 33.9 5.99975 35.05C6.39975 36.15 7.69975 36.65 8.74975 36.1C9.54975 35.65 10.3998 35.15 11.1998 34.6V46.5C11.1998 48.35 12.6998 49.8 14.4998 49.8H25.0498C26.8998 49.8 28.3498 48.3 28.3498 46.5V32.3C28.3498 30.5 26.8498 29 25.0498 29H17.9998C19.0498 27.95 20.0498 26.9 21.0498 25.8H28.2998C29.4498 25.8 30.3998 24.9 30.3998 23.7C30.3998 22.55 29.4498 21.6 28.2998 21.6H24.3998ZM43.2498 22.6999C45.2998 19.9999 47.4498 15.45 48.5498 11.3499C48.9998 9.69995 47.6998 8.04995 45.8998 8.04995H34.7998C32.9498 8.04995 31.4998 9.54995 31.4998 11.3499V48C31.4998 49.15 32.4498 50.15 33.5998 50.15C34.7998 50.15 35.7498 49.2 35.7498 48V12.25H43.8498C42.7998 15.45 41.3998 18.15 39.4498 20.7C38.3498 22.15 38.5498 24.2499 39.8998 25.4C43.1998 28.2499 45.7998 30.8 45.7998 34.85C45.7998 38.4 43.9998 39.9 39.5998 39.85C38.4498 39.8 37.4498 40.7 37.4498 41.85C37.4498 43.05 38.3998 44.1 39.5998 44.1C46.0998 44.15 50.0498 40.7 50.0498 34.8C50.0498 29.55 46.6498 25.5 43.2498 22.6999ZM21.9498 16.6C22.2498 16.6 22.4998 16.55 22.7498 16.4C21.6998 18.2 20.4998 19.8999 19.1498 21.6H18.7498V16.6H21.9498ZM15.3998 36.8V33.15H24.0998V36.8H15.3998ZM15.3998 40.95H24.0998V45.65H15.3998V40.95Z" fill="#42210C"/>
<path d="M83.0998 16.5C84.2498 16.95 85.4998 16.35 85.7998 15.2C86.0998 13.95 85.4498 12.7 84.2998 12.25C80.5998 10.85 74.4498 9.24995 69.5498 8.74995C68.3498 8.59995 67.2498 9.49995 67.0998 10.75C66.8998 11.9 67.7497 13 68.9497 13.1C74.0997 13.65 78.7998 14.8 83.0998 16.5ZM80.7497 49.15C86.6997 49.15 88.9997 46.2 91.0997 42.7C91.7497 41.65 91.4497 40.3 90.4497 39.65C89.4497 39 88.1497 39.3 87.4997 40.35C84.9997 44.25 84.5998 44.95 78.7998 44.95C72.7498 44.95 71.9997 44.55 71.9997 41.45V21.75C71.9997 20.5499 71.0498 19.55 69.7998 19.55C68.5998 19.55 67.5998 20.5499 67.5998 21.75V41.45C67.5998 46.35 70.6497 49.15 75.8497 49.15H80.7497ZM97.3997 42.8C98.5997 42.5 99.3997 41.35 99.1497 40.15C98.1998 35.75 95.8997 29.2 93.7497 25.4499C93.0997 24.35 91.6497 23.95 90.4997 24.6C89.4497 25.15 89.0998 26.5 89.7497 27.55C91.7997 30.95 93.7498 36.75 94.7998 41.1C95.0498 42.25 96.1997 43.05 97.3997 42.8ZM58.0998 46.45C59.3498 46.85 60.6998 46.25 61.1998 45.05C63.0498 40.45 64.6998 34.3 65.4498 29.7C65.6498 28.5 64.8498 27.35 63.5998 27.1C62.4498 26.85 61.2998 27.6 61.0998 28.85C60.2498 34.05 58.6998 39.55 56.8498 43.65C56.3498 44.8 56.9498 46.1 58.0998 46.45Z" fill="#42210C"/>
<path d="M127.5 15.0499C128.65 15.0499 129.55 14.1 129.55 13C129.55 11.85 128.6 10.95 127.5 10.95H121.1V8.24995C121.1 7.04995 120.1 6.09995 118.95 6.09995C117.8 6.09995 116.8 7.04995 116.8 8.24995V10.95H110.4C109.25 10.95 108.35 11.9 108.35 13C108.35 14.15 109.3 15.0499 110.4 15.0499H127.5ZM143.25 22.6999C145.4 19.8499 147.45 15.4 148.55 11.3499C149 9.69995 147.7 8.04995 145.9 8.04995H135.05C133.25 8.04995 131.75 9.54995 131.75 11.3499V47.95C131.75 49.15 132.75 50.15 133.95 50.15C135.15 50.15 136.1 49.15 136.1 47.95V12.25H143.85C142.8 15.45 141.4 18.15 139.45 20.7C138.35 22.15 138.55 24.2499 139.9 25.4C143.2 28.2499 145.8 30.8 145.8 34.85C145.8 38.35 143.9 39.9 139.45 39.85C138.3 39.85 137.35 40.75 137.4 41.9C137.45 43.1 138.4 44.1 139.55 44.15C146.05 44.25 150 40.75 150 34.85C150 29.8 146.75 25.4499 143.25 22.6999ZM123.75 25C124.95 22.9 126.05 20.55 126.85 18.2C127.25 17.1 126.6 15.9 125.5 15.5C124.45 15.05 123.3 15.65 122.9 16.75C121.8 19.75 120.2 22.9 118.8 25H116.85C117.85 24.55 118.3 23.35 117.9 22.35C117.1 20.3 116.05 18.1 115.05 16.3C114.4 15.2 113 14.85 111.9 15.4499C110.85 16 110.6 17.2999 111.3 18.3C112.35 19.75 113.4 21.6999 114.3 23.9499C114.5 24.4499 114.85 24.8 115.25 25H108.65C107.5 25 106.6 25.95 106.6 27.05C106.6 28.15 107.5 29.1 108.65 29.1H129.25C130.4 29.1 131.3 28.15 131.3 27.05C131.3 25.9 130.35 25 129.25 25H123.75ZM113.15 31.45C111.3 31.45 109.85 32.95 109.85 34.75V46.3C109.85 48.1 111.3 49.6 113.15 49.6H124.8C126.6 49.6 128.1 48.1 128.1 46.3V34.75C128.1 32.95 126.6 31.45 124.8 31.45H113.15ZM114.2 45.3V35.75H123.7V45.3H114.2Z" fill="#42210C"/>
<path d="M180 46.05C193.8 44.2 198.2 33.35 195.9 25.25C192.15 12.15 172.85 10.1999 164.05 22.1C158.2 30.1 158.65 41.4 165 42.9C171.75 44.5 178.05 32.25 180.95 18.6C186.95 18.6999 191.75 23.1 192 28.75C192.3 35.65 187.75 40.25 179.35 41.55C178.15 41.75 177.3 42.85 177.5 44.05C177.65 45.3 178.8 46.2 180 46.05ZM164.75 37.6C162.5 33.85 165.35 21.0499 176.3 18.9C174.2 29.05 167.65 42.5 164.75 37.6Z" fill="#42210C"/>
<path d="M226.6 32.55C226.65 30.7 225.2 29.25 223.35 29.25H220.6V26H224.1C225.15 26 226.05 25.1 226.05 24C226.05 22.95 225.15 22.05 224.1 22.05H220.6V18.8H224.1C225.15 18.8 226.05 17.9 226.05 16.85C226.05 15.75 225.15 14.85 224.1 14.85H220.6V11.6H224.9C225.95 11.6 226.9 10.7 226.9 9.59995C226.9 8.49995 226 7.59995 224.9 7.59995H211.95C210.15 7.59995 208.65 9.04995 208.65 10.9V29.95C208.65 31.8 210.15 33.25 211.95 33.25H218.9C218.4 33.5 218.15 34.0999 218.3 34.65C218.85 36.6 219.2 38.6 219.3 40.8C219.35 41.45 220 42 220.65 41.85C221 41.75 221.35 41.55 221.55 41.25C221.5 41.6 221.45 41.9 221.35 42.25C220.7 45.3 219.85 46 217.1 45.85C215.9 45.8 214.9 46.7 214.9 47.85C214.85 49.05 215.8 50.1 217 50.1C221.85 50.2 224.3 48.2 225.5 43.1C226.15 39.5 226.45 35.8 226.6 32.55ZM249.2 45.85C243.65 41.85 239.45 33.65 238.45 27.05H244.1C245.9 27.05 247.4 25.55 247.4 23.75V11.25C247.4 9.44995 245.9 7.94995 244.1 7.94995H230.95C229.1 7.94995 227.65 9.49995 227.65 11.25V25.9C227.65 30.35 227.45 40.25 224.95 47.5C224.55 48.65 225.2 49.85 226.4 50.1C227.65 50.4 228.9 49.65 229.25 48.45C231.65 40.1 231.9 30.1 231.9 27.05H234.2C235.4 36.2 241.55 46.15 247.4 49.7C248.35 50.3 249.6 49.85 250.1 48.75C250.5 47.75 250.15 46.55 249.2 45.85ZM216.5 14.85H212.9V11.6H216.5V14.85ZM243.05 12.25V22.75H231.95V12.25H243.05ZM212.9 22.05V18.8H216.5V22.05H212.9ZM216.5 26V29.25H212.9V26H216.5ZM221.8 39.75C221.7 37.9 221.35 35.95 220.8 34.05C220.7 33.7 220.45 33.4 220.15 33.25H222.35C222.25 35.35 222.15 37.6 221.8 39.75ZM217.6 43.45C218.45 43.3 219.05 42.6 218.95 41.8C218.75 39.45 218.3 37 217.6 34.55C217.4 33.8 216.6 33.4 215.8 33.6C215.05 33.8 214.65 34.5999 214.9 35.4C215.6 37.7 216 39.85 216.15 42.25C216.2 43 216.9 43.6 217.6 43.45ZM215.75 42.9C215.6 40.3 215.2 37.7 214.45 35.1C214.25 34.3 213.35 33.8 212.55 34.05C211.75 34.2 211.3 35 211.55 35.85C211.55 35.9 211.55 35.95 211.6 35.95C211.3 35.55 210.85 35.3 210.3 35.2C209.25 35 208.3 35.7 208.2 36.75C207.9 39.15 207.35 42.25 206.65 44.75C206.4 45.75 207 46.8 208 47C209.1 47.2 210.2 46.55 210.5 45.5C211.25 42.8 211.75 39.8 212 37.5C212.45 39.45 212.7 41.35 212.8 43.5C212.85 44.3 213.55 44.9 214.35 44.75C215.2 44.55 215.85 43.75 215.75 42.9Z" fill="#42210C"/>
<path d="M258.85 20.9C262.65 18.2 266.75 13.1999 268.75 8.74995C269.25 7.64995 268.65 6.39995 267.45 5.99995C266.35 5.59995 265.1 6.14995 264.55 7.24995C262.85 10.85 259.95 14.4999 256.8 16.95C255.85 17.7 255.5 19 256.05 20.1C256.55 21.2 257.9 21.55 258.85 20.9ZM291.05 45.55C289.35 45.55 287.8 45.3 286.4 44.8V35.85H294.9C296.05 35.85 296.95 34.9 296.95 33.8C296.95 32.65 296 31.6999 294.9 31.6999H286.4V26H297.35C298.5 26 299.45 25 299.45 23.85C299.45 22.75 298.5 21.75 297.35 21.75H286.35V16.8H295.05C296.2 16.8 297.15 15.85 297.15 14.7C297.15 13.55 296.2 12.6 295.05 12.6H286.35V8.49995C286.35 7.29995 285.35 6.34995 284.2 6.34995C283.05 6.34995 282.05 7.29995 282.05 8.49995V12.6H273.75C272.6 12.6 271.6 13.55 271.6 14.7C271.6 15.85 272.55 16.8 273.75 16.8H282.05V21.75H271.45C270.25 21.75 269.35 22.75 269.35 23.85C269.35 25.05 270.3 26 271.45 26H282.05V42.2C279.85 40.25 277.95 37.5 275.95 34C276.15 32.9 276.35 31.85 276.5 30.8C276.7 29.6 275.9 28.5 274.7 28.25C273.6 28.05 272.5 28.8 272.3 29.95C271.5 35.7 269.5 42.7 266.95 47.25C266.35 48.3 266.85 49.65 267.95 50C269.2 50.35 270.55 49.8 271.1 48.65C272.45 45.95 273.6 42.85 274.55 39.75C279 46.55 284.35 49.75 291.05 49.75H297.2C298.4 49.75 299.3 48.8 299.3 47.65C299.3 46.45 298.35 45.55 297.2 45.55H291.05ZM269.3 20.45C269.8 19.35 269.35 18.1 268.25 17.5499C267.25 17 266 17.45 265.5 18.5C263.55 22.3 260.5 26.7 256.85 29.55C255.9 30.35 255.55 31.7 256.05 32.75C256.55 33.85 257.9 34.25 258.85 33.5C259.7 32.85 260.55 32.15 261.35 31.4V48.05C261.35 49.2 262.3 50.15 263.5 50.15C264.7 50.15 265.65 49.2 265.65 48.05V26.6C267.1 24.65 268.35 22.55 269.3 20.45Z" fill="#42210C"/>
<path d="M325.8 25.3V34.55C325.8 35.45 325.75 35.5 323.2 35.35C321.95 35.25 320.9 36.2 320.85 37.45C320.8 38.7 321.8 39.75 323 39.8C328.25 39.9 330.2 38.5 330.2 34.5V25.3H347.25C348.45 25.3 349.4 24.3 349.4 23.15C349.4 21.9499 348.4 21 347.25 21H330.25V16.7H341.9C343.1 16.7 344.05 15.6999 344.05 14.5499C344.05 13.35 343.1 12.4 341.9 12.4H330.25V8.54995C330.25 7.29995 329.2 6.29995 328 6.29995C326.8 6.29995 325.75 7.29995 325.75 8.54995V21H319.5V12.4C319.5 11.2 318.5 10.25 317.35 10.25C316.15 10.25 315.2 11.25 315.2 12.4V21H308.75C307.6 21 306.6 21.9499 306.6 23.15C306.6 24.35 307.6 25.3 308.75 25.3H325.8ZM321.05 28.9499C321.6 27.9999 321.25 26.7 320.25 26.05C319.35 25.5 318.15 25.75 317.5 26.6C314.85 30.25 310.75 33.45 307.65 34.95C306.55 35.5 306 36.75 306.4 37.85C306.85 39.05 308.2 39.65 309.3 39.1C313 37.3 318.6 33.05 321.05 28.9499ZM348.35 35.5C344.8 33.55 341.6 30.4999 339.35 26.9C338.7 25.8999 337.35 25.5 336.3 26.05C335.2 26.6 334.8 27.95 335.45 28.9499C336.35 30.4 337.45 31.85 338.7 33.1999C334.8 37.1499 326.5 43.45 310.4 45.65C309.2 45.8 308.35 46.9 308.45 48.1C308.55 49.3 309.65 50.2 310.85 50.05C324.35 48.35 335.75 42.6 341.85 36.25C343.5 37.7 345.25 38.95 347 39.85C348.05 40.45 349.4 39.8 349.75 38.6C350.05 37.45 349.5 36.15 348.35 35.5Z" fill="#42210C"/>
<path d="M372.75 43.7C371.35 43.85 369.85 43.95 368.3 44V12.8C368.3 11.15 366.6 10.15 365.15 10.85L357.8 14.4C356.7 14.9 356.2 16.25 356.75 17.4C357.3 18.4999 358.65 18.9499 359.8 18.4L363.8 16.5V44C362.25 43.95 360.7 43.85 359.15 43.7C357.8 43.6 356.7 44.6 356.7 45.95C356.7 47.3 357.8 48.3 359.15 48.2C363.05 47.75 368.3 47.75 372.75 48.2C374.1 48.3 375.15 47.3 375.15 45.95C375.15 44.6 374.1 43.6 372.75 43.7Z" fill="#42210C"/>
<path d="M395.057 10.15C385.957 10.15 380.407 17.2 380.407 28.85C380.407 41 385.807 48.2 395.057 48.2C404.307 48.2 409.757 41 409.757 28.85C409.757 17.2 404.207 10.15 395.057 10.15ZM395.057 44C388.807 44 384.957 38.25 384.957 28.9499C384.957 20.0499 388.907 14.4 395.057 14.4C401.207 14.4 405.207 20.0499 405.207 28.9499C405.207 38.2 401.307 44 395.057 44Z" fill="#42210C"/>
<path d="M458.272 22.1C452.072 17.2 448.622 12.1 445.972 7.74995C445.322 6.64995 443.972 6.09995 442.722 6.49995C441.572 6.89995 441.022 8.24995 441.622 9.29995C444.972 15.1 450.672 22.3 455.722 26.1C456.772 26.85 458.222 26.55 458.922 25.4499C459.572 24.35 459.322 22.9 458.272 22.1ZM418.872 26C424.222 22.05 429.622 15.8 432.922 9.69995C433.522 8.64995 433.022 7.34995 431.872 6.89995C430.772 6.44995 429.472 6.89995 428.872 7.94995C426.022 12.9 421.622 18.2 416.822 21.85C415.772 22.65 415.422 24.05 415.922 25.2C416.472 26.35 417.872 26.7 418.872 26ZM424.922 24.3C423.722 24.3 422.772 25.3 422.772 26.5C422.772 27.65 423.722 28.65 424.922 28.65H433.272C431.572 36.55 426.372 42.4 418.522 45.25C417.272 45.7 416.572 46.95 416.872 48.2C417.172 49.5 418.472 50.25 419.672 49.85C428.922 46.85 436.222 38.3 437.822 28.65H447.472C447.272 35.05 446.672 40.35 446.222 42.65C445.622 45.7 443.472 45.75 440.172 45.25C438.922 45.05 437.772 45.9 437.622 47.1C437.422 48.35 438.272 49.5 439.522 49.7C445.872 50.5 449.522 48.5 450.522 43.6C451.172 40.5 451.722 34.2 451.872 27.65C451.922 25.8 450.472 24.3 448.622 24.3H424.922Z" fill="#42210C"/>
<path d="M470.572 7.34995C468.722 7.34995 467.272 8.84995 467.272 10.65V45.75C467.272 47.6 468.772 49.05 470.572 49.05H504.372C506.222 49.05 507.672 47.55 507.672 45.75V10.65C507.672 8.84995 506.172 7.34995 504.372 7.34995H470.572ZM486.772 11.6C486.272 11.85 485.822 12.3 485.672 12.9C485.272 14.6 484.622 16.4 483.822 18.2H483.172C483.472 17.65 483.472 17 483.172 16.45C482.572 15.35 481.772 14.15 481.072 13.1999C480.372 12.2 478.922 12.0499 477.922 12.85C477.022 13.55 477.022 14.9 477.822 15.75C478.572 16.5 479.222 17.35 479.772 18.15C479.772 18.15 479.772 18.2 479.822 18.2H476.722C475.672 18.2 474.772 19.1 474.772 20.15C474.772 21.2 475.622 22.1 476.722 22.1H481.772C481.222 22.95 480.672 23.75 480.122 24.55H475.322C474.272 24.55 473.372 25.45 473.372 26.5C473.372 27.55 474.272 28.45 475.322 28.45H476.772C475.472 29.75 474.072 30.8999 472.572 31.9C472.022 32.2499 471.672 32.8 471.522 33.35V11.6H486.772ZM471.522 44.8V34.45L471.672 34.85C472.172 35.9 473.422 36.35 474.422 35.75C476.672 34.3 479.522 31.75 482.172 28.45H492.222C494.872 31.35 497.922 33.95 500.672 35.45C501.622 35.95 502.822 35.55 503.222 34.5C503.622 33.5 503.222 32.35 502.322 31.8C500.772 30.85 499.272 29.75 497.822 28.45H499.622C500.672 28.45 501.572 27.55 501.572 26.5C501.572 25.45 500.672 24.55 499.622 24.55H494.172C493.522 23.8 492.922 22.95 492.322 22.1H498.222C499.272 22.1 500.172 21.2 500.172 20.15C500.172 19.1 499.322 18.2 498.222 18.2H495.472C496.222 17.3 496.972 16.3499 497.622 15.3C498.172 14.4 497.872 13.1999 496.922 12.6999C495.972 12.2499 494.822 12.55 494.222 13.45C492.972 15.3 491.372 16.95 489.772 18.2H488.172C488.722 16.85 489.172 15.4499 489.522 14C489.772 13.05 489.222 12.05 488.272 11.6H503.422V44.8H471.522ZM487.472 22.1C487.972 22.9 488.472 23.75 489.072 24.55H484.922C485.422 23.75 485.922 22.95 486.372 22.1H487.472ZM497.822 37.7C496.972 37.1 495.722 37.25 494.972 38.1C493.922 39.3 493.072 39.65 490.822 39.65H484.522C482.422 39.65 482.372 39.6 482.372 38.5V37.75H491.172C492.872 37.75 494.222 36.35 494.222 34.7V32.4C494.222 30.7 492.822 29.35 491.172 29.35H482.372C481.322 29.35 480.522 30.2 480.522 31.2C480.522 32.25 481.372 33.05 482.372 33.05H490.122V34.05H481.322C479.672 34.05 478.272 35.45 478.272 37.1V38.5C478.272 42 480.222 43.65 484.322 43.65H490.822C494.272 43.65 496.272 42.8 498.172 40.5C498.922 39.65 498.722 38.4 497.822 37.7Z" fill="#42210C"/>
<path d="M539.672 14.2999V8.49995C539.672 7.29995 538.722 6.29995 537.472 6.29995C536.272 6.29995 535.272 7.29995 535.272 8.49995V14.2999H521.472C519.672 14.2999 518.172 15.8 518.172 17.6V48C518.172 49.2 519.172 50.2 520.372 50.2C521.572 50.2 522.572 49.2 522.572 48V18.65H535.122C534.072 25.2499 528.522 31.7 523.772 34.6C522.722 35.2 522.272 36.5 522.822 37.55C523.322 38.65 524.672 39.05 525.672 38.45C530.222 35.8 535.072 30.6 537.672 24.85C540.222 29.9 544.472 35.45 549.172 38.35C550.222 39 551.622 38.55 552.172 37.4C552.272 37.15 552.372 36.85 552.372 36.6V44.15C552.372 45.6 551.822 45.9 548.772 45.75C547.572 45.65 546.522 46.6 546.472 47.8C546.422 49.05 547.372 50.15 548.622 50.2C554.022 50.4 556.772 48.4 556.772 44.15V17.6C556.772 15.8 555.272 14.2999 553.472 14.2999H539.672ZM551.172 34.3C546.072 30.95 541.172 23.6 539.822 18.65H552.372V36.3C552.322 35.55 551.872 34.8 551.172 34.3Z" fill="#42210C"/>
<path d="M589.472 46.05C603.272 44.2 607.672 33.35 605.372 25.25C601.622 12.15 582.322 10.1999 573.522 22.1C567.672 30.1 568.122 41.4 574.472 42.9C581.222 44.5 587.522 32.25 590.422 18.6C596.422 18.6999 601.222 23.1 601.472 28.75C601.772 35.65 597.222 40.25 588.822 41.55C587.622 41.75 586.772 42.85 586.972 44.05C587.122 45.3 588.272 46.2 589.472 46.05ZM574.222 37.6C571.972 33.85 574.822 21.0499 585.772 18.9C583.672 29.05 577.122 42.5 574.222 37.6Z" fill="#42210C"/>
<path d="M640.972 14.4C641.722 12.6 642.322 10.7 642.722 8.74995C642.972 7.59995 642.172 6.49995 640.972 6.34995C639.772 6.14995 638.672 6.94995 638.372 8.09995C637.122 13.3999 634.672 18 631.422 21.4C630.572 22.25 630.472 23.6 631.222 24.55C631.972 25.5 633.372 25.65 634.222 24.8C635.822 23.2 637.472 21.1 638.922 18.6H641.972C640.272 24.15 636.872 29 632.422 32.45C631.422 33.2 631.072 34.55 631.622 35.65C632.172 36.8 633.572 37.15 634.522 36.4C638.072 33.6499 644.222 27.35 646.422 18.6H648.572C646.222 29.55 640.872 37.95 632.672 43.3C631.672 43.95 631.272 45.3 631.872 46.4C632.422 47.5 633.822 47.85 634.822 47.2C644.022 41.2 650.622 30.85 653.072 18.6H653.522C653.472 24.25 653.322 33.1 652.972 38.1C652.472 44.75 651.122 46.25 646.322 45.65C645.072 45.5 643.922 46.35 643.772 47.55C643.572 48.8 644.422 49.95 645.672 50.05C653.372 50.75 656.822 47.3 657.322 38.4C657.622 32.95 657.822 23.3 657.872 17.7C657.872 15.9 656.422 14.4 654.572 14.4H640.972ZM632.322 30.65C632.122 29.55 630.922 28.9 629.822 29.3C629.272 29.5 628.622 29.75 628.022 29.95V19.7H630.422C631.622 19.7 632.572 18.6999 632.572 17.5499C632.572 16.3999 631.622 15.4 630.422 15.4H628.022V8.69995C628.022 7.49995 627.072 6.59995 625.922 6.59995C624.772 6.59995 623.822 7.54995 623.822 8.69995V15.4H622.922C623.122 14.2499 623.322 13.05 623.372 11.85C623.472 10.65 622.522 9.69995 621.322 9.69995C620.172 9.69995 619.222 10.6 619.122 11.75C618.772 15.25 617.872 18.7 616.022 21.25C615.322 22.25 615.272 23.55 616.022 24.4C616.772 25.3499 618.172 25.4 618.872 24.5C619.972 23.1 620.872 21.5 621.622 19.7H623.822V31.2C621.772 31.7 619.722 32.2 617.972 32.5C616.772 32.75 615.922 33.8 615.922 35C615.922 36.15 616.972 37 618.072 36.8C619.772 36.5 621.772 36.1 623.822 35.55V48.05C623.822 49.25 624.772 50.15 625.922 50.15C627.072 50.15 628.022 49.25 628.022 48.05V34.4C628.972 34.15 629.922 33.8 630.822 33.5C631.922 33.05 632.572 31.85 632.322 30.65Z" fill="#42210C"/>
<path d="M679.472 8.79995C679.672 7.59995 678.872 6.44995 677.672 6.19995C676.472 5.94995 675.322 6.74995 675.072 7.89995C673.572 14.55 670.672 20.25 666.422 25.05C665.522 26 665.472 27.45 666.272 28.45C667.022 29.45 668.472 29.5 669.322 28.6C669.822 28 670.372 27.4 670.872 26.75V48C670.872 49.15 671.872 50.15 673.072 50.15C674.272 50.15 675.222 49.15 675.222 48V20.15C677.222 16.5 678.772 12.55 679.472 8.79995ZM695.572 30.65V20.2H704.072C705.272 20.2 706.272 19.1999 706.272 18C706.272 16.85 705.272 15.85 704.072 15.85H695.572V8.74995C695.572 7.54995 694.572 6.59995 693.422 6.59995C692.172 6.59995 691.222 7.54995 691.222 8.74995V15.85H685.772C686.522 13.95 687.122 12 687.522 10.25C687.822 8.99995 686.972 7.79995 685.772 7.44995C684.572 7.14995 683.422 7.89995 683.122 9.09995C681.972 14.5 679.422 19.6499 676.222 23.1C675.272 24.15 675.172 25.65 675.922 26.7C676.722 27.8 678.272 27.8999 679.122 26.9499C680.822 25.15 682.372 22.75 683.722 20.2H691.222V30.65H678.872C677.672 30.65 676.722 31.6 676.722 32.8C676.722 33.95 677.672 34.95 678.872 34.95H691.222V48C691.222 49.15 692.172 50.15 693.422 50.15C694.622 50.15 695.572 49.15 695.572 48V34.95H706.822C708.022 34.95 708.972 34 708.972 32.8C708.972 31.65 708.022 30.65 706.822 30.65H695.572Z" fill="#42210C"/>
<path d="M24.3998 21.6C27.0498 17.9999 29.0998 14.3 30.2498 10.95C30.6498 9.84995 29.9998 8.54995 28.8498 8.19995C27.7498 7.79995 26.4998 8.44995 26.0998 9.54995C25.5498 11.0999 24.8498 12.65 24.0498 14.2C23.8998 13.1499 22.9998 12.4 21.9498 12.4H18.7498V8.54995C18.7498 7.34995 17.7498 6.39995 16.5498 6.39995C15.3998 6.39995 14.3998 7.34995 14.3998 8.54995V12.4H10.9998C9.84975 12.4 8.89975 13.3 8.89975 14.5C8.89975 15.65 9.84975 16.6 10.9998 16.6H14.3998V21.6H8.69975C7.49975 21.6 6.54975 22.6 6.54975 23.7C6.54975 24.85 7.49975 25.8 8.69975 25.8H15.3498C12.8998 28.2 10.1498 30.3 7.14975 32C6.09975 32.6 5.59975 33.9 5.99975 35.05C6.39975 36.15 7.69975 36.65 8.74975 36.1C9.54975 35.65 10.3998 35.15 11.1998 34.6V46.5C11.1998 48.35 12.6998 49.8 14.4998 49.8H25.0498C26.8998 49.8 28.3498 48.3 28.3498 46.5V32.3C28.3498 30.5 26.8498 29 25.0498 29H17.9998C19.0498 27.95 20.0498 26.9 21.0498 25.8H28.2998C29.4498 25.8 30.3998 24.9 30.3998 23.7C30.3998 22.55 29.4498 21.6 28.2998 21.6H24.3998ZM43.2498 22.6999C45.2998 19.9999 47.4498 15.45 48.5498 11.3499C48.9998 9.69995 47.6998 8.04995 45.8998 8.04995H34.7998C32.9498 8.04995 31.4998 9.54995 31.4998 11.3499V48C31.4998 49.15 32.4498 50.15 33.5998 50.15C34.7998 50.15 35.7498 49.2 35.7498 48V12.25H43.8498C42.7998 15.45 41.3998 18.15 39.4498 20.7C38.3498 22.15 38.5498 24.2499 39.8998 25.4C43.1998 28.2499 45.7998 30.8 45.7998 34.85C45.7998 38.4 43.9998 39.9 39.5998 39.85C38.4498 39.8 37.4498 40.7 37.4498 41.85C37.4498 43.05 38.3998 44.1 39.5998 44.1C46.0998 44.15 50.0498 40.7 50.0498 34.8C50.0498 29.55 46.6498 25.5 43.2498 22.6999ZM21.9498 16.6C22.2498 16.6 22.4998 16.55 22.7498 16.4C21.6998 18.2 20.4998 19.8999 19.1498 21.6H18.7498V16.6H21.9498ZM15.3998 36.8V33.15H24.0998V36.8H15.3998ZM15.3998 40.95H24.0998V45.65H15.3998V40.95Z" stroke="white" stroke-width="10" mask="url(#path-1-outside-1_536:1137)"/>
<path d="M83.0998 16.5C84.2498 16.95 85.4998 16.35 85.7998 15.2C86.0998 13.95 85.4498 12.7 84.2998 12.25C80.5998 10.85 74.4498 9.24995 69.5498 8.74995C68.3498 8.59995 67.2498 9.49995 67.0998 10.75C66.8998 11.9 67.7497 13 68.9497 13.1C74.0997 13.65 78.7998 14.8 83.0998 16.5ZM80.7497 49.15C86.6997 49.15 88.9997 46.2 91.0997 42.7C91.7497 41.65 91.4497 40.3 90.4497 39.65C89.4497 39 88.1497 39.3 87.4997 40.35C84.9997 44.25 84.5998 44.95 78.7998 44.95C72.7498 44.95 71.9997 44.55 71.9997 41.45V21.75C71.9997 20.5499 71.0498 19.55 69.7998 19.55C68.5998 19.55 67.5998 20.5499 67.5998 21.75V41.45C67.5998 46.35 70.6497 49.15 75.8497 49.15H80.7497ZM97.3997 42.8C98.5997 42.5 99.3997 41.35 99.1497 40.15C98.1998 35.75 95.8997 29.2 93.7497 25.4499C93.0997 24.35 91.6497 23.95 90.4997 24.6C89.4497 25.15 89.0998 26.5 89.7497 27.55C91.7997 30.95 93.7498 36.75 94.7998 41.1C95.0498 42.25 96.1997 43.05 97.3997 42.8ZM58.0998 46.45C59.3498 46.85 60.6998 46.25 61.1998 45.05C63.0498 40.45 64.6998 34.3 65.4498 29.7C65.6498 28.5 64.8498 27.35 63.5998 27.1C62.4498 26.85 61.2998 27.6 61.0998 28.85C60.2498 34.05 58.6998 39.55 56.8498 43.65C56.3498 44.8 56.9498 46.1 58.0998 46.45Z" stroke="white" stroke-width="10" mask="url(#path-1-outside-1_536:1137)"/>
<path d="M127.5 15.0499C128.65 15.0499 129.55 14.1 129.55 13C129.55 11.85 128.6 10.95 127.5 10.95H121.1V8.24995C121.1 7.04995 120.1 6.09995 118.95 6.09995C117.8 6.09995 116.8 7.04995 116.8 8.24995V10.95H110.4C109.25 10.95 108.35 11.9 108.35 13C108.35 14.15 109.3 15.0499 110.4 15.0499H127.5ZM143.25 22.6999C145.4 19.8499 147.45 15.4 148.55 11.3499C149 9.69995 147.7 8.04995 145.9 8.04995H135.05C133.25 8.04995 131.75 9.54995 131.75 11.3499V47.95C131.75 49.15 132.75 50.15 133.95 50.15C135.15 50.15 136.1 49.15 136.1 47.95V12.25H143.85C142.8 15.45 141.4 18.15 139.45 20.7C138.35 22.15 138.55 24.2499 139.9 25.4C143.2 28.2499 145.8 30.8 145.8 34.85C145.8 38.35 143.9 39.9 139.45 39.85C138.3 39.85 137.35 40.75 137.4 41.9C137.45 43.1 138.4 44.1 139.55 44.15C146.05 44.25 150 40.75 150 34.85C150 29.8 146.75 25.4499 143.25 22.6999ZM123.75 25C124.95 22.9 126.05 20.55 126.85 18.2C127.25 17.1 126.6 15.9 125.5 15.5C124.45 15.05 123.3 15.65 122.9 16.75C121.8 19.75 120.2 22.9 118.8 25H116.85C117.85 24.55 118.3 23.35 117.9 22.35C117.1 20.3 116.05 18.1 115.05 16.3C114.4 15.2 113 14.85 111.9 15.4499C110.85 16 110.6 17.2999 111.3 18.3C112.35 19.75 113.4 21.6999 114.3 23.9499C114.5 24.4499 114.85 24.8 115.25 25H108.65C107.5 25 106.6 25.95 106.6 27.05C106.6 28.15 107.5 29.1 108.65 29.1H129.25C130.4 29.1 131.3 28.15 131.3 27.05C131.3 25.9 130.35 25 129.25 25H123.75ZM113.15 31.45C111.3 31.45 109.85 32.95 109.85 34.75V46.3C109.85 48.1 111.3 49.6 113.15 49.6H124.8C126.6 49.6 128.1 48.1 128.1 46.3V34.75C128.1 32.95 126.6 31.45 124.8 31.45H113.15ZM114.2 45.3V35.75H123.7V45.3H114.2Z" stroke="white" stroke-width="10" mask="url(#path-1-outside-1_536:1137)"/>
<path d="M180 46.05C193.8 44.2 198.2 33.35 195.9 25.25C192.15 12.15 172.85 10.1999 164.05 22.1C158.2 30.1 158.65 41.4 165 42.9C171.75 44.5 178.05 32.25 180.95 18.6C186.95 18.6999 191.75 23.1 192 28.75C192.3 35.65 187.75 40.25 179.35 41.55C178.15 41.75 177.3 42.85 177.5 44.05C177.65 45.3 178.8 46.2 180 46.05ZM164.75 37.6C162.5 33.85 165.35 21.0499 176.3 18.9C174.2 29.05 167.65 42.5 164.75 37.6Z" stroke="white" stroke-width="10" mask="url(#path-1-outside-1_536:1137)"/>
<path d="M226.6 32.55C226.65 30.7 225.2 29.25 223.35 29.25H220.6V26H224.1C225.15 26 226.05 25.1 226.05 24C226.05 22.95 225.15 22.05 224.1 22.05H220.6V18.8H224.1C225.15 18.8 226.05 17.9 226.05 16.85C226.05 15.75 225.15 14.85 224.1 14.85H220.6V11.6H224.9C225.95 11.6 226.9 10.7 226.9 9.59995C226.9 8.49995 226 7.59995 224.9 7.59995H211.95C210.15 7.59995 208.65 9.04995 208.65 10.9V29.95C208.65 31.8 210.15 33.25 211.95 33.25H218.9C218.4 33.5 218.15 34.0999 218.3 34.65C218.85 36.6 219.2 38.6 219.3 40.8C219.35 41.45 220 42 220.65 41.85C221 41.75 221.35 41.55 221.55 41.25C221.5 41.6 221.45 41.9 221.35 42.25C220.7 45.3 219.85 46 217.1 45.85C215.9 45.8 214.9 46.7 214.9 47.85C214.85 49.05 215.8 50.1 217 50.1C221.85 50.2 224.3 48.2 225.5 43.1C226.15 39.5 226.45 35.8 226.6 32.55ZM249.2 45.85C243.65 41.85 239.45 33.65 238.45 27.05H244.1C245.9 27.05 247.4 25.55 247.4 23.75V11.25C247.4 9.44995 245.9 7.94995 244.1 7.94995H230.95C229.1 7.94995 227.65 9.49995 227.65 11.25V25.9C227.65 30.35 227.45 40.25 224.95 47.5C224.55 48.65 225.2 49.85 226.4 50.1C227.65 50.4 228.9 49.65 229.25 48.45C231.65 40.1 231.9 30.1 231.9 27.05H234.2C235.4 36.2 241.55 46.15 247.4 49.7C248.35 50.3 249.6 49.85 250.1 48.75C250.5 47.75 250.15 46.55 249.2 45.85ZM216.5 14.85H212.9V11.6H216.5V14.85ZM243.05 12.25V22.75H231.95V12.25H243.05ZM212.9 22.05V18.8H216.5V22.05H212.9ZM216.5 26V29.25H212.9V26H216.5ZM221.8 39.75C221.7 37.9 221.35 35.95 220.8 34.05C220.7 33.7 220.45 33.4 220.15 33.25H222.35C222.25 35.35 222.15 37.6 221.8 39.75ZM217.6 43.45C218.45 43.3 219.05 42.6 218.95 41.8C218.75 39.45 218.3 37 217.6 34.55C217.4 33.8 216.6 33.4 215.8 33.6C215.05 33.8 214.65 34.5999 214.9 35.4C215.6 37.7 216 39.85 216.15 42.25C216.2 43 216.9 43.6 217.6 43.45ZM215.75 42.9C215.6 40.3 215.2 37.7 214.45 35.1C214.25 34.3 213.35 33.8 212.55 34.05C211.75 34.2 211.3 35 211.55 35.85C211.55 35.9 211.55 35.95 211.6 35.95C211.3 35.55 210.85 35.3 210.3 35.2C209.25 35 208.3 35.7 208.2 36.75C207.9 39.15 207.35 42.25 206.65 44.75C206.4 45.75 207 46.8 208 47C209.1 47.2 210.2 46.55 210.5 45.5C211.25 42.8 211.75 39.8 212 37.5C212.45 39.45 212.7 41.35 212.8 43.5C212.85 44.3 213.55 44.9 214.35 44.75C215.2 44.55 215.85 43.75 215.75 42.9Z" stroke="white" stroke-width="10" mask="url(#path-1-outside-1_536:1137)"/>
<path d="M258.85 20.9C262.65 18.2 266.75 13.1999 268.75 8.74995C269.25 7.64995 268.65 6.39995 267.45 5.99995C266.35 5.59995 265.1 6.14995 264.55 7.24995C262.85 10.85 259.95 14.4999 256.8 16.95C255.85 17.7 255.5 19 256.05 20.1C256.55 21.2 257.9 21.55 258.85 20.9ZM291.05 45.55C289.35 45.55 287.8 45.3 286.4 44.8V35.85H294.9C296.05 35.85 296.95 34.9 296.95 33.8C296.95 32.65 296 31.6999 294.9 31.6999H286.4V26H297.35C298.5 26 299.45 25 299.45 23.85C299.45 22.75 298.5 21.75 297.35 21.75H286.35V16.8H295.05C296.2 16.8 297.15 15.85 297.15 14.7C297.15 13.55 296.2 12.6 295.05 12.6H286.35V8.49995C286.35 7.29995 285.35 6.34995 284.2 6.34995C283.05 6.34995 282.05 7.29995 282.05 8.49995V12.6H273.75C272.6 12.6 271.6 13.55 271.6 14.7C271.6 15.85 272.55 16.8 273.75 16.8H282.05V21.75H271.45C270.25 21.75 269.35 22.75 269.35 23.85C269.35 25.05 270.3 26 271.45 26H282.05V42.2C279.85 40.25 277.95 37.5 275.95 34C276.15 32.9 276.35 31.85 276.5 30.8C276.7 29.6 275.9 28.5 274.7 28.25C273.6 28.05 272.5 28.8 272.3 29.95C271.5 35.7 269.5 42.7 266.95 47.25C266.35 48.3 266.85 49.65 267.95 50C269.2 50.35 270.55 49.8 271.1 48.65C272.45 45.95 273.6 42.85 274.55 39.75C279 46.55 284.35 49.75 291.05 49.75H297.2C298.4 49.75 299.3 48.8 299.3 47.65C299.3 46.45 298.35 45.55 297.2 45.55H291.05ZM269.3 20.45C269.8 19.35 269.35 18.1 268.25 17.5499C267.25 17 266 17.45 265.5 18.5C263.55 22.3 260.5 26.7 256.85 29.55C255.9 30.35 255.55 31.7 256.05 32.75C256.55 33.85 257.9 34.25 258.85 33.5C259.7 32.85 260.55 32.15 261.35 31.4V48.05C261.35 49.2 262.3 50.15 263.5 50.15C264.7 50.15 265.65 49.2 265.65 48.05V26.6C267.1 24.65 268.35 22.55 269.3 20.45Z" stroke="white" stroke-width="10" mask="url(#path-1-outside-1_536:1137)"/>
<path d="M325.8 25.3V34.55C325.8 35.45 325.75 35.5 323.2 35.35C321.95 35.25 320.9 36.2 320.85 37.45C320.8 38.7 321.8 39.75 323 39.8C328.25 39.9 330.2 38.5 330.2 34.5V25.3H347.25C348.45 25.3 349.4 24.3 349.4 23.15C349.4 21.9499 348.4 21 347.25 21H330.25V16.7H341.9C343.1 16.7 344.05 15.6999 344.05 14.5499C344.05 13.35 343.1 12.4 341.9 12.4H330.25V8.54995C330.25 7.29995 329.2 6.29995 328 6.29995C326.8 6.29995 325.75 7.29995 325.75 8.54995V21H319.5V12.4C319.5 11.2 318.5 10.25 317.35 10.25C316.15 10.25 315.2 11.25 315.2 12.4V21H308.75C307.6 21 306.6 21.9499 306.6 23.15C306.6 24.35 307.6 25.3 308.75 25.3H325.8ZM321.05 28.9499C321.6 27.9999 321.25 26.7 320.25 26.05C319.35 25.5 318.15 25.75 317.5 26.6C314.85 30.25 310.75 33.45 307.65 34.95C306.55 35.5 306 36.75 306.4 37.85C306.85 39.05 308.2 39.65 309.3 39.1C313 37.3 318.6 33.05 321.05 28.9499ZM348.35 35.5C344.8 33.55 341.6 30.4999 339.35 26.9C338.7 25.8999 337.35 25.5 336.3 26.05C335.2 26.6 334.8 27.95 335.45 28.9499C336.35 30.4 337.45 31.85 338.7 33.1999C334.8 37.1499 326.5 43.45 310.4 45.65C309.2 45.8 308.35 46.9 308.45 48.1C308.55 49.3 309.65 50.2 310.85 50.05C324.35 48.35 335.75 42.6 341.85 36.25C343.5 37.7 345.25 38.95 347 39.85C348.05 40.45 349.4 39.8 349.75 38.6C350.05 37.45 349.5 36.15 348.35 35.5Z" stroke="white" stroke-width="10" mask="url(#path-1-outside-1_536:1137)"/>
<path d="M372.75 43.7C371.35 43.85 369.85 43.95 368.3 44V12.8C368.3 11.15 366.6 10.15 365.15 10.85L357.8 14.4C356.7 14.9 356.2 16.25 356.75 17.4C357.3 18.4999 358.65 18.9499 359.8 18.4L363.8 16.5V44C362.25 43.95 360.7 43.85 359.15 43.7C357.8 43.6 356.7 44.6 356.7 45.95C356.7 47.3 357.8 48.3 359.15 48.2C363.05 47.75 368.3 47.75 372.75 48.2C374.1 48.3 375.15 47.3 375.15 45.95C375.15 44.6 374.1 43.6 372.75 43.7Z" stroke="white" stroke-width="10" mask="url(#path-1-outside-1_536:1137)"/>
<path d="M395.057 10.15C385.957 10.15 380.407 17.2 380.407 28.85C380.407 41 385.807 48.2 395.057 48.2C404.307 48.2 409.757 41 409.757 28.85C409.757 17.2 404.207 10.15 395.057 10.15ZM395.057 44C388.807 44 384.957 38.25 384.957 28.9499C384.957 20.0499 388.907 14.4 395.057 14.4C401.207 14.4 405.207 20.0499 405.207 28.9499C405.207 38.2 401.307 44 395.057 44Z" stroke="white" stroke-width="10" mask="url(#path-1-outside-1_536:1137)"/>
<path d="M458.272 22.1C452.072 17.2 448.622 12.1 445.972 7.74995C445.322 6.64995 443.972 6.09995 442.722 6.49995C441.572 6.89995 441.022 8.24995 441.622 9.29995C444.972 15.1 450.672 22.3 455.722 26.1C456.772 26.85 458.222 26.55 458.922 25.4499C459.572 24.35 459.322 22.9 458.272 22.1ZM418.872 26C424.222 22.05 429.622 15.8 432.922 9.69995C433.522 8.64995 433.022 7.34995 431.872 6.89995C430.772 6.44995 429.472 6.89995 428.872 7.94995C426.022 12.9 421.622 18.2 416.822 21.85C415.772 22.65 415.422 24.05 415.922 25.2C416.472 26.35 417.872 26.7 418.872 26ZM424.922 24.3C423.722 24.3 422.772 25.3 422.772 26.5C422.772 27.65 423.722 28.65 424.922 28.65H433.272C431.572 36.55 426.372 42.4 418.522 45.25C417.272 45.7 416.572 46.95 416.872 48.2C417.172 49.5 418.472 50.25 419.672 49.85C428.922 46.85 436.222 38.3 437.822 28.65H447.472C447.272 35.05 446.672 40.35 446.222 42.65C445.622 45.7 443.472 45.75 440.172 45.25C438.922 45.05 437.772 45.9 437.622 47.1C437.422 48.35 438.272 49.5 439.522 49.7C445.872 50.5 449.522 48.5 450.522 43.6C451.172 40.5 451.722 34.2 451.872 27.65C451.922 25.8 450.472 24.3 448.622 24.3H424.922Z" stroke="white" stroke-width="10" mask="url(#path-1-outside-1_536:1137)"/>
<path d="M470.572 7.34995C468.722 7.34995 467.272 8.84995 467.272 10.65V45.75C467.272 47.6 468.772 49.05 470.572 49.05H504.372C506.222 49.05 507.672 47.55 507.672 45.75V10.65C507.672 8.84995 506.172 7.34995 504.372 7.34995H470.572ZM486.772 11.6C486.272 11.85 485.822 12.3 485.672 12.9C485.272 14.6 484.622 16.4 483.822 18.2H483.172C483.472 17.65 483.472 17 483.172 16.45C482.572 15.35 481.772 14.15 481.072 13.1999C480.372 12.2 478.922 12.0499 477.922 12.85C477.022 13.55 477.022 14.9 477.822 15.75C478.572 16.5 479.222 17.35 479.772 18.15C479.772 18.15 479.772 18.2 479.822 18.2H476.722C475.672 18.2 474.772 19.1 474.772 20.15C474.772 21.2 475.622 22.1 476.722 22.1H481.772C481.222 22.95 480.672 23.75 480.122 24.55H475.322C474.272 24.55 473.372 25.45 473.372 26.5C473.372 27.55 474.272 28.45 475.322 28.45H476.772C475.472 29.75 474.072 30.8999 472.572 31.9C472.022 32.2499 471.672 32.8 471.522 33.35V11.6H486.772ZM471.522 44.8V34.45L471.672 34.85C472.172 35.9 473.422 36.35 474.422 35.75C476.672 34.3 479.522 31.75 482.172 28.45H492.222C494.872 31.35 497.922 33.95 500.672 35.45C501.622 35.95 502.822 35.55 503.222 34.5C503.622 33.5 503.222 32.35 502.322 31.8C500.772 30.85 499.272 29.75 497.822 28.45H499.622C500.672 28.45 501.572 27.55 501.572 26.5C501.572 25.45 500.672 24.55 499.622 24.55H494.172C493.522 23.8 492.922 22.95 492.322 22.1H498.222C499.272 22.1 500.172 21.2 500.172 20.15C500.172 19.1 499.322 18.2 498.222 18.2H495.472C496.222 17.3 496.972 16.3499 497.622 15.3C498.172 14.4 497.872 13.1999 496.922 12.6999C495.972 12.2499 494.822 12.55 494.222 13.45C492.972 15.3 491.372 16.95 489.772 18.2H488.172C488.722 16.85 489.172 15.4499 489.522 14C489.772 13.05 489.222 12.05 488.272 11.6H503.422V44.8H471.522ZM487.472 22.1C487.972 22.9 488.472 23.75 489.072 24.55H484.922C485.422 23.75 485.922 22.95 486.372 22.1H487.472ZM497.822 37.7C496.972 37.1 495.722 37.25 494.972 38.1C493.922 39.3 493.072 39.65 490.822 39.65H484.522C482.422 39.65 482.372 39.6 482.372 38.5V37.75H491.172C492.872 37.75 494.222 36.35 494.222 34.7V32.4C494.222 30.7 492.822 29.35 491.172 29.35H482.372C481.322 29.35 480.522 30.2 480.522 31.2C480.522 32.25 481.372 33.05 482.372 33.05H490.122V34.05H481.322C479.672 34.05 478.272 35.45 478.272 37.1V38.5C478.272 42 480.222 43.65 484.322 43.65H490.822C494.272 43.65 496.272 42.8 498.172 40.5C498.922 39.65 498.722 38.4 497.822 37.7Z" stroke="white" stroke-width="10" mask="url(#path-1-outside-1_536:1137)"/>
<path d="M539.672 14.2999V8.49995C539.672 7.29995 538.722 6.29995 537.472 6.29995C536.272 6.29995 535.272 7.29995 535.272 8.49995V14.2999H521.472C519.672 14.2999 518.172 15.8 518.172 17.6V48C518.172 49.2 519.172 50.2 520.372 50.2C521.572 50.2 522.572 49.2 522.572 48V18.65H535.122C534.072 25.2499 528.522 31.7 523.772 34.6C522.722 35.2 522.272 36.5 522.822 37.55C523.322 38.65 524.672 39.05 525.672 38.45C530.222 35.8 535.072 30.6 537.672 24.85C540.222 29.9 544.472 35.45 549.172 38.35C550.222 39 551.622 38.55 552.172 37.4C552.272 37.15 552.372 36.85 552.372 36.6V44.15C552.372 45.6 551.822 45.9 548.772 45.75C547.572 45.65 546.522 46.6 546.472 47.8C546.422 49.05 547.372 50.15 548.622 50.2C554.022 50.4 556.772 48.4 556.772 44.15V17.6C556.772 15.8 555.272 14.2999 553.472 14.2999H539.672ZM551.172 34.3C546.072 30.95 541.172 23.6 539.822 18.65H552.372V36.3C552.322 35.55 551.872 34.8 551.172 34.3Z" stroke="white" stroke-width="10" mask="url(#path-1-outside-1_536:1137)"/>
<path d="M589.472 46.05C603.272 44.2 607.672 33.35 605.372 25.25C601.622 12.15 582.322 10.1999 573.522 22.1C567.672 30.1 568.122 41.4 574.472 42.9C581.222 44.5 587.522 32.25 590.422 18.6C596.422 18.6999 601.222 23.1 601.472 28.75C601.772 35.65 597.222 40.25 588.822 41.55C587.622 41.75 586.772 42.85 586.972 44.05C587.122 45.3 588.272 46.2 589.472 46.05ZM574.222 37.6C571.972 33.85 574.822 21.0499 585.772 18.9C583.672 29.05 577.122 42.5 574.222 37.6Z" stroke="white" stroke-width="10" mask="url(#path-1-outside-1_536:1137)"/>
<path d="M640.972 14.4C641.722 12.6 642.322 10.7 642.722 8.74995C642.972 7.59995 642.172 6.49995 640.972 6.34995C639.772 6.14995 638.672 6.94995 638.372 8.09995C637.122 13.3999 634.672 18 631.422 21.4C630.572 22.25 630.472 23.6 631.222 24.55C631.972 25.5 633.372 25.65 634.222 24.8C635.822 23.2 637.472 21.1 638.922 18.6H641.972C640.272 24.15 636.872 29 632.422 32.45C631.422 33.2 631.072 34.55 631.622 35.65C632.172 36.8 633.572 37.15 634.522 36.4C638.072 33.6499 644.222 27.35 646.422 18.6H648.572C646.222 29.55 640.872 37.95 632.672 43.3C631.672 43.95 631.272 45.3 631.872 46.4C632.422 47.5 633.822 47.85 634.822 47.2C644.022 41.2 650.622 30.85 653.072 18.6H653.522C653.472 24.25 653.322 33.1 652.972 38.1C652.472 44.75 651.122 46.25 646.322 45.65C645.072 45.5 643.922 46.35 643.772 47.55C643.572 48.8 644.422 49.95 645.672 50.05C653.372 50.75 656.822 47.3 657.322 38.4C657.622 32.95 657.822 23.3 657.872 17.7C657.872 15.9 656.422 14.4 654.572 14.4H640.972ZM632.322 30.65C632.122 29.55 630.922 28.9 629.822 29.3C629.272 29.5 628.622 29.75 628.022 29.95V19.7H630.422C631.622 19.7 632.572 18.6999 632.572 17.5499C632.572 16.3999 631.622 15.4 630.422 15.4H628.022V8.69995C628.022 7.49995 627.072 6.59995 625.922 6.59995C624.772 6.59995 623.822 7.54995 623.822 8.69995V15.4H622.922C623.122 14.2499 623.322 13.05 623.372 11.85C623.472 10.65 622.522 9.69995 621.322 9.69995C620.172 9.69995 619.222 10.6 619.122 11.75C618.772 15.25 617.872 18.7 616.022 21.25C615.322 22.25 615.272 23.55 616.022 24.4C616.772 25.3499 618.172 25.4 618.872 24.5C619.972 23.1 620.872 21.5 621.622 19.7H623.822V31.2C621.772 31.7 619.722 32.2 617.972 32.5C616.772 32.75 615.922 33.8 615.922 35C615.922 36.15 616.972 37 618.072 36.8C619.772 36.5 621.772 36.1 623.822 35.55V48.05C623.822 49.25 624.772 50.15 625.922 50.15C627.072 50.15 628.022 49.25 628.022 48.05V34.4C628.972 34.15 629.922 33.8 630.822 33.5C631.922 33.05 632.572 31.85 632.322 30.65Z" stroke="white" stroke-width="10" mask="url(#path-1-outside-1_536:1137)"/>
<path d="M679.472 8.79995C679.672 7.59995 678.872 6.44995 677.672 6.19995C676.472 5.94995 675.322 6.74995 675.072 7.89995C673.572 14.55 670.672 20.25 666.422 25.05C665.522 26 665.472 27.45 666.272 28.45C667.022 29.45 668.472 29.5 669.322 28.6C669.822 28 670.372 27.4 670.872 26.75V48C670.872 49.15 671.872 50.15 673.072 50.15C674.272 50.15 675.222 49.15 675.222 48V20.15C677.222 16.5 678.772 12.55 679.472 8.79995ZM695.572 30.65V20.2H704.072C705.272 20.2 706.272 19.1999 706.272 18C706.272 16.85 705.272 15.85 704.072 15.85H695.572V8.74995C695.572 7.54995 694.572 6.59995 693.422 6.59995C692.172 6.59995 691.222 7.54995 691.222 8.74995V15.85H685.772C686.522 13.95 687.122 12 687.522 10.25C687.822 8.99995 686.972 7.79995 685.772 7.44995C684.572 7.14995 683.422 7.89995 683.122 9.09995C681.972 14.5 679.422 19.6499 676.222 23.1C675.272 24.15 675.172 25.65 675.922 26.7C676.722 27.8 678.272 27.8999 679.122 26.9499C680.822 25.15 682.372 22.75 683.722 20.2H691.222V30.65H678.872C677.672 30.65 676.722 31.6 676.722 32.8C676.722 33.95 677.672 34.95 678.872 34.95H691.222V48C691.222 49.15 692.172 50.15 693.422 50.15C694.622 50.15 695.572 49.15 695.572 48V34.95H706.822C708.022 34.95 708.972 34 708.972 32.8C708.972 31.65 708.022 30.65 706.822 30.65H695.572Z" stroke="white" stroke-width="10" mask="url(#path-1-outside-1_536:1137)"/>
</svg>
