<svg width="700" height="144" viewBox="0 0 700 144" fill="none" xmlns="http://www.w3.org/2000/svg">
<mask id="path-1-outside-1_491:876" maskUnits="userSpaceOnUse" x="-0.703613" y="0.619995" width="701" height="144" fill="black">
<rect fill="white" x="-0.703613" y="0.619995" width="701" height="144"/>
<path d="M120.52 29.24C123.74 29.24 126.4 26.44 126.4 23.22C126.4 19.86 123.74 17.2 120.52 17.2H17.4801C14.2601 17.2 11.4601 20 11.4601 23.22C11.4601 26.58 14.2601 29.24 17.4801 29.24H77.6801C64.6601 49.82 40.3001 73.34 13.8401 85.8C10.9001 87.2 9.50014 90.7 10.7601 93.64C11.8801 96.58 15.3801 97.98 18.3201 96.58C34.0001 89.16 48.7001 78.94 61.5801 67.04V127.38C61.5801 130.74 64.3801 133.4 67.7401 133.4C71.1001 133.4 73.9001 130.6 73.9001 127.38V59.62C73.9001 58.08 73.3401 56.82 72.5001 55.7C79.9201 47.44 86.3601 38.62 91.6801 29.24H120.52ZM123.18 86.78C112.12 82.86 100.08 75.58 89.1601 66.48C86.6401 64.24 82.7201 64.38 80.4801 66.9C78.1001 69.56 78.3801 73.48 81.0401 75.58C92.5201 84.82 108.62 94.48 119.96 98.82C123.04 100.08 126.68 98.12 127.52 94.62C128.5 91.4 126.54 87.9 123.18 86.78Z"/>
<path d="M244.28 40.58V16.64C244.28 13.42 241.62 10.62 238.26 10.62C234.9 10.62 232.24 13.42 232.24 16.64V40.58H220.76C217.54 40.58 214.74 43.24 214.74 46.6C214.74 49.82 217.4 52.62 220.76 52.62H232.1C231.12 76.84 225.52 105.82 208.02 121.92C205.5 124.3 204.94 128.08 206.76 130.74C208.72 133.68 212.64 134.38 215.16 132.14C228.18 120.94 242.46 94.76 244.14 52.62H254.5C254.36 76.7 253.8 99.52 253.24 105.82C252.12 118.42 251.7 120.8 241.34 120.8C237.98 120.8 235.32 123.6 235.32 126.82C235.46 130.32 238.26 133.12 241.62 133.12C258 132.84 264.02 126.12 265.42 106.8C265.98 99.24 266.68 73.9 266.82 49.82C266.82 44.64 262.76 40.58 257.58 40.58H244.28ZM211.8 113.8C210.96 110.86 207.88 109.04 204.8 110.02C200.04 111.42 194.58 112.82 188.7 113.94V107.08H205.78C208.72 107.08 211.24 104.7 211.24 101.62C211.24 98.68 208.86 96.16 205.78 96.16H188.7V91.4H203.4C208.44 91.4 212.64 87.2 212.64 82.16V58.36C212.64 53.18 208.44 49.12 203.4 49.12H188.7V45.34H210.82C213.76 45.34 216.42 42.96 216.42 39.74C216.42 36.8 213.9 34.14 210.82 34.14H188.7V28.96C194.3 27.98 200.04 26.72 205.64 25.18C208.72 24.34 210.54 21.12 209.84 18.04C209 14.96 205.92 13.14 202.84 13.98C188.42 17.62 174 20 160.28 20.98C157.06 21.26 154.68 23.92 155.1 27.14C155.38 30.36 158.18 32.74 161.4 32.46C166.58 32.04 172.04 31.48 177.5 30.78V34.14H154.54C151.46 34.14 148.94 36.8 148.94 39.74C148.94 42.82 151.46 45.34 154.54 45.34H177.5V49.12H163.78C158.74 49.12 154.54 53.32 154.54 58.36V82.16C154.54 87.2 158.74 91.4 163.78 91.4H177.5V96.16H159.58C156.5 96.16 153.98 98.54 153.98 101.62C153.98 104.56 156.5 107.08 159.58 107.08H177.5V115.9C168.96 117.3 160.56 118.28 154.12 118.7C151.04 118.84 148.66 121.5 148.8 124.58C148.94 127.66 151.6 130.04 154.68 129.76C172.32 128.22 193.18 125 207.6 121.08C210.68 120.24 212.5 116.88 211.8 113.8ZM177.5 64.66H166.02V60.04H177.5V64.66ZM201.02 64.66H188.7V60.04H201.02V64.66ZM166.02 75.72H177.5V80.34H166.02V75.72ZM188.7 75.72H201.02V80.34H188.7V75.72Z"/>
<path d="M401.64 59.06C404.86 59.06 407.52 56.4 407.52 53.32C407.52 50.1 404.86 47.44 401.64 47.44H374.34C375.6 45.48 376.72 43.38 377.7 41.28C378.96 38.34 377.7 35.12 374.9 33.72H395.9C399.12 33.72 401.64 31.06 401.64 27.98C401.64 24.76 398.98 22.24 395.9 22.24H355.86V16.78C355.86 13.42 353.06 10.76 349.84 10.76C346.48 10.76 343.82 13.56 343.82 16.78V22.24H302.1C298.88 22.24 296.36 24.9 296.36 27.98C296.36 31.2 299.02 33.72 302.1 33.72H325.2C324.64 34 323.94 34.42 323.38 34.98C321 37.08 321 40.86 323.38 43.24C324.78 44.64 325.9 46.04 327.02 47.44H307.14C301.96 47.44 297.9 51.64 297.9 56.68V63.26C297.9 89.3 295.24 111.14 290.48 125.56C289.5 128.78 291.32 132.28 294.54 132.98C298.04 133.82 301.68 131.72 302.66 128.36C308.54 107.78 309.8 79.22 309.8 63.26V59.06H401.64ZM332.2 34.98C331.64 34.42 331.08 34 330.52 33.72H369.58C368.32 34.42 367.2 35.4 366.5 36.8C364.82 40.72 362.44 44.36 359.92 47.44H341.16C338.64 42.68 335.84 38.62 332.2 34.98ZM364.68 120.24V106.94H383.72C386.94 106.94 389.6 104.42 389.6 101.2C389.6 97.98 386.94 95.32 383.72 95.32H364.68V84.96H390.16C393.38 84.96 395.9 82.3 395.9 79.22C395.9 76 393.24 73.48 390.16 73.48H364.68V65.92C364.68 62.56 362.02 59.9 358.8 59.9C355.58 59.9 352.78 62.56 352.78 65.92V73.48H336.26C336.96 71.94 337.52 70.26 337.94 68.72C338.78 65.64 336.82 62.42 333.6 61.44C330.66 60.6 327.58 62.42 326.6 65.36C323.8 74.18 318.48 82.72 311.9 88.6C309.38 90.84 308.82 94.48 310.5 97.14C312.32 99.94 316.1 100.64 318.62 98.54C322.96 94.76 327.02 90 330.38 84.96H352.78V95.32H334.16C330.8 95.32 328.28 97.98 328.28 101.2C328.28 104.42 330.94 106.94 334.16 106.94H352.78V120.24H317.78C314.56 120.24 312.04 122.9 312.04 125.98C312.04 129.2 314.7 131.86 317.78 131.86H400.1C403.32 131.86 405.84 129.2 405.84 125.98C405.84 122.76 403.18 120.24 400.1 120.24H364.68Z"/>
<path d="M467.02 83.84C469.82 82.02 471.08 78.38 469.68 75.02C468.42 72.08 464.78 70.96 461.98 72.64L457.64 75.3V49.12H465.76C469.12 49.12 471.78 46.32 471.78 43.1C471.78 39.74 468.98 37.08 465.76 37.08H457.64V17.9C457.64 14.54 454.84 11.88 451.48 11.88C448.12 11.88 445.32 14.54 445.32 17.9V37.08H434.96C431.74 37.08 429.08 39.74 429.08 43.1C429.08 46.46 431.74 49.12 434.96 49.12H445.32V81.04C441.54 82.58 437.48 83.84 432.86 84.96C429.5 85.8 427.4 89.02 428.1 92.24C428.66 95.6 431.88 97.7 435.24 96.86C438.74 96.02 442.1 95.04 445.32 93.92V127.8C445.32 131.16 448.12 133.96 451.48 133.96C454.84 133.96 457.64 131.16 457.64 127.8V88.88C460.86 87.34 464.08 85.66 467.02 83.84ZM464.92 62.42C465.9 65.92 469.68 67.6 472.9 66.06C488.16 58.5 496.28 45.48 498.38 24.76H514.48V46.32C514.48 55.56 520.5 60.32 532.26 60.32H540.38C543.74 60.32 546.26 57.52 546.26 54.44C546.26 51.22 543.74 48.56 540.38 48.56H533.1C526.94 48.56 526.52 48.28 526.52 46.32V22.52C526.52 17.34 522.32 13.28 517.28 13.28H496.28C491.24 13.28 487.04 17.2 486.48 22.38C484.66 38.2 479.34 47.58 468.7 53.46C465.48 55.28 463.8 59.06 464.92 62.42ZM544.16 120.66C533.66 117.86 523.86 113.24 515.46 107.22C524 99.1 531.28 89.3 535.76 77.26C537.44 72.78 533.94 68.16 529.04 68.16H476.12C472.9 68.16 470.38 70.82 470.38 73.9C470.38 77.12 473.04 79.78 476.12 79.78H483.68C481.3 81.32 480.32 84.54 481.72 87.06C485.22 93.36 490.12 100.22 496.56 106.66C487.18 113.1 476.26 118.28 464.78 121.36C461.56 122.34 459.46 125.56 460.16 128.78C460.86 132 464.08 134.1 467.3 133.12C479.06 129.9 493.2 124.16 505.8 115.06C515.46 122.76 527.36 129.2 541.08 132.84C544.44 133.82 547.94 131.72 548.78 128.22C549.62 124.86 547.52 121.5 544.16 120.66ZM492.92 82.16C492.36 81.18 491.52 80.34 490.68 79.78H521.48C517.84 86.78 512.52 93.36 505.94 99.24C500.76 94.2 496.42 88.46 492.92 82.16Z"/>
<path d="M684.72 52.34C671.98 50.38 654.2 44.92 648.6 35.26C648.74 34 648.74 32.6 648.74 30.64H670.16C669.46 32.18 668.62 33.58 667.64 34.84C665.82 37.5 666.66 41 669.46 42.4C672.68 43.94 676.46 42.96 678.28 40.16C680.52 36.52 682.34 32.46 683.6 28.82C685.28 24.34 681.64 19.58 676.6 19.58H634.04C635.72 16.78 634.6 13.28 631.66 11.6C629.14 10.06 625.78 11.18 623.96 13.84C620.88 18.74 615.42 23.64 608 28.4C605.34 30.08 604.22 33.3 605.34 36.24C606.6 39.18 609.96 40.44 612.62 39.04C616.82 36.94 621.02 34 624.66 30.64H636.98V33.58C636.98 41.42 626.48 47.3 607.16 50.66C603.94 51.08 601.7 54.16 602.12 57.38C602.68 60.74 605.62 62.98 608.84 62.42C625.78 59.62 637.4 54.58 643.56 47.44C651.82 55.14 666.38 61.44 683.04 63.96C686.26 64.38 689.2 62.14 689.76 58.92C690.18 55.7 687.94 52.76 684.72 52.34ZM574.96 26.86C581.54 27.7 589.8 29.24 596.1 30.92C599.18 31.76 602.54 29.94 603.24 26.86C604.08 23.5 602.26 20.28 599.04 19.58C592.18 17.9 583.64 16.22 577.2 15.38C573.98 14.82 570.9 17.06 570.34 20.28C569.64 23.36 571.88 26.3 574.96 26.86ZM574.96 61.02C583.22 59.34 594.42 55.98 601.7 52.62C604.36 51.36 605.76 48.14 604.92 45.06C603.94 42.26 600.86 40.72 598.06 41.84C591.62 44.36 581.68 47.58 572.86 49.68C569.78 50.38 567.68 53.32 568.24 56.4C568.8 59.62 571.88 61.72 574.96 61.02ZM684.02 121.92C676.32 121.36 667.78 119.68 661.34 117.58H661.62C666.66 117.58 670.86 113.38 670.86 108.34V71.8C670.86 66.62 666.66 62.56 661.62 62.56H596.52C591.48 62.56 587.28 66.76 587.28 71.8V108.34C587.28 113.52 591.48 117.58 596.52 117.58H596.66C589.94 119.68 581.68 121.36 574.54 121.92C571.32 122.2 568.94 125 569.22 128.22C569.5 131.44 572.44 133.96 575.66 133.68C584.34 133.12 594.84 130.88 602.54 127.94C605.62 126.82 607.3 123.46 606.6 120.1C606.32 119.12 605.76 118.28 605.06 117.58H652.52C651.82 118.14 651.26 118.98 650.84 119.96C649.72 123.18 651.26 126.68 654.34 127.8C663.02 130.88 674.78 132.98 682.48 133.68C685.7 134.1 688.64 131.58 689.2 128.22C689.62 125.14 687.24 122.34 684.02 121.92ZM658.68 76.98H599.32V73.34H658.68V76.98ZM599.32 87.76H658.68V91.4H599.32V87.76ZM658.68 102.32V106.8H599.32V102.32H658.68Z"/>
</mask>
<path d="M120.52 29.24C123.74 29.24 126.4 26.44 126.4 23.22C126.4 19.86 123.74 17.2 120.52 17.2H17.4801C14.2601 17.2 11.4601 20 11.4601 23.22C11.4601 26.58 14.2601 29.24 17.4801 29.24H77.6801C64.6601 49.82 40.3001 73.34 13.8401 85.8C10.9001 87.2 9.50014 90.7 10.7601 93.64C11.8801 96.58 15.3801 97.98 18.3201 96.58C34.0001 89.16 48.7001 78.94 61.5801 67.04V127.38C61.5801 130.74 64.3801 133.4 67.7401 133.4C71.1001 133.4 73.9001 130.6 73.9001 127.38V59.62C73.9001 58.08 73.3401 56.82 72.5001 55.7C79.9201 47.44 86.3601 38.62 91.6801 29.24H120.52ZM123.18 86.78C112.12 82.86 100.08 75.58 89.1601 66.48C86.6401 64.24 82.7201 64.38 80.4801 66.9C78.1001 69.56 78.3801 73.48 81.0401 75.58C92.5201 84.82 108.62 94.48 119.96 98.82C123.04 100.08 126.68 98.12 127.52 94.62C128.5 91.4 126.54 87.9 123.18 86.78Z" fill="#42210C"/>
<path d="M244.28 40.58V16.64C244.28 13.42 241.62 10.62 238.26 10.62C234.9 10.62 232.24 13.42 232.24 16.64V40.58H220.76C217.54 40.58 214.74 43.24 214.74 46.6C214.74 49.82 217.4 52.62 220.76 52.62H232.1C231.12 76.84 225.52 105.82 208.02 121.92C205.5 124.3 204.94 128.08 206.76 130.74C208.72 133.68 212.64 134.38 215.16 132.14C228.18 120.94 242.46 94.76 244.14 52.62H254.5C254.36 76.7 253.8 99.52 253.24 105.82C252.12 118.42 251.7 120.8 241.34 120.8C237.98 120.8 235.32 123.6 235.32 126.82C235.46 130.32 238.26 133.12 241.62 133.12C258 132.84 264.02 126.12 265.42 106.8C265.98 99.24 266.68 73.9 266.82 49.82C266.82 44.64 262.76 40.58 257.58 40.58H244.28ZM211.8 113.8C210.96 110.86 207.88 109.04 204.8 110.02C200.04 111.42 194.58 112.82 188.7 113.94V107.08H205.78C208.72 107.08 211.24 104.7 211.24 101.62C211.24 98.68 208.86 96.16 205.78 96.16H188.7V91.4H203.4C208.44 91.4 212.64 87.2 212.64 82.16V58.36C212.64 53.18 208.44 49.12 203.4 49.12H188.7V45.34H210.82C213.76 45.34 216.42 42.96 216.42 39.74C216.42 36.8 213.9 34.14 210.82 34.14H188.7V28.96C194.3 27.98 200.04 26.72 205.64 25.18C208.72 24.34 210.54 21.12 209.84 18.04C209 14.96 205.92 13.14 202.84 13.98C188.42 17.62 174 20 160.28 20.98C157.06 21.26 154.68 23.92 155.1 27.14C155.38 30.36 158.18 32.74 161.4 32.46C166.58 32.04 172.04 31.48 177.5 30.78V34.14H154.54C151.46 34.14 148.94 36.8 148.94 39.74C148.94 42.82 151.46 45.34 154.54 45.34H177.5V49.12H163.78C158.74 49.12 154.54 53.32 154.54 58.36V82.16C154.54 87.2 158.74 91.4 163.78 91.4H177.5V96.16H159.58C156.5 96.16 153.98 98.54 153.98 101.62C153.98 104.56 156.5 107.08 159.58 107.08H177.5V115.9C168.96 117.3 160.56 118.28 154.12 118.7C151.04 118.84 148.66 121.5 148.8 124.58C148.94 127.66 151.6 130.04 154.68 129.76C172.32 128.22 193.18 125 207.6 121.08C210.68 120.24 212.5 116.88 211.8 113.8ZM177.5 64.66H166.02V60.04H177.5V64.66ZM201.02 64.66H188.7V60.04H201.02V64.66ZM166.02 75.72H177.5V80.34H166.02V75.72ZM188.7 75.72H201.02V80.34H188.7V75.72Z" fill="#42210C"/>
<path d="M401.64 59.06C404.86 59.06 407.52 56.4 407.52 53.32C407.52 50.1 404.86 47.44 401.64 47.44H374.34C375.6 45.48 376.72 43.38 377.7 41.28C378.96 38.34 377.7 35.12 374.9 33.72H395.9C399.12 33.72 401.64 31.06 401.64 27.98C401.64 24.76 398.98 22.24 395.9 22.24H355.86V16.78C355.86 13.42 353.06 10.76 349.84 10.76C346.48 10.76 343.82 13.56 343.82 16.78V22.24H302.1C298.88 22.24 296.36 24.9 296.36 27.98C296.36 31.2 299.02 33.72 302.1 33.72H325.2C324.64 34 323.94 34.42 323.38 34.98C321 37.08 321 40.86 323.38 43.24C324.78 44.64 325.9 46.04 327.02 47.44H307.14C301.96 47.44 297.9 51.64 297.9 56.68V63.26C297.9 89.3 295.24 111.14 290.48 125.56C289.5 128.78 291.32 132.28 294.54 132.98C298.04 133.82 301.68 131.72 302.66 128.36C308.54 107.78 309.8 79.22 309.8 63.26V59.06H401.64ZM332.2 34.98C331.64 34.42 331.08 34 330.52 33.72H369.58C368.32 34.42 367.2 35.4 366.5 36.8C364.82 40.72 362.44 44.36 359.92 47.44H341.16C338.64 42.68 335.84 38.62 332.2 34.98ZM364.68 120.24V106.94H383.72C386.94 106.94 389.6 104.42 389.6 101.2C389.6 97.98 386.94 95.32 383.72 95.32H364.68V84.96H390.16C393.38 84.96 395.9 82.3 395.9 79.22C395.9 76 393.24 73.48 390.16 73.48H364.68V65.92C364.68 62.56 362.02 59.9 358.8 59.9C355.58 59.9 352.78 62.56 352.78 65.92V73.48H336.26C336.96 71.94 337.52 70.26 337.94 68.72C338.78 65.64 336.82 62.42 333.6 61.44C330.66 60.6 327.58 62.42 326.6 65.36C323.8 74.18 318.48 82.72 311.9 88.6C309.38 90.84 308.82 94.48 310.5 97.14C312.32 99.94 316.1 100.64 318.62 98.54C322.96 94.76 327.02 90 330.38 84.96H352.78V95.32H334.16C330.8 95.32 328.28 97.98 328.28 101.2C328.28 104.42 330.94 106.94 334.16 106.94H352.78V120.24H317.78C314.56 120.24 312.04 122.9 312.04 125.98C312.04 129.2 314.7 131.86 317.78 131.86H400.1C403.32 131.86 405.84 129.2 405.84 125.98C405.84 122.76 403.18 120.24 400.1 120.24H364.68Z" fill="#42210C"/>
<path d="M467.02 83.84C469.82 82.02 471.08 78.38 469.68 75.02C468.42 72.08 464.78 70.96 461.98 72.64L457.64 75.3V49.12H465.76C469.12 49.12 471.78 46.32 471.78 43.1C471.78 39.74 468.98 37.08 465.76 37.08H457.64V17.9C457.64 14.54 454.84 11.88 451.48 11.88C448.12 11.88 445.32 14.54 445.32 17.9V37.08H434.96C431.74 37.08 429.08 39.74 429.08 43.1C429.08 46.46 431.74 49.12 434.96 49.12H445.32V81.04C441.54 82.58 437.48 83.84 432.86 84.96C429.5 85.8 427.4 89.02 428.1 92.24C428.66 95.6 431.88 97.7 435.24 96.86C438.74 96.02 442.1 95.04 445.32 93.92V127.8C445.32 131.16 448.12 133.96 451.48 133.96C454.84 133.96 457.64 131.16 457.64 127.8V88.88C460.86 87.34 464.08 85.66 467.02 83.84ZM464.92 62.42C465.9 65.92 469.68 67.6 472.9 66.06C488.16 58.5 496.28 45.48 498.38 24.76H514.48V46.32C514.48 55.56 520.5 60.32 532.26 60.32H540.38C543.74 60.32 546.26 57.52 546.26 54.44C546.26 51.22 543.74 48.56 540.38 48.56H533.1C526.94 48.56 526.52 48.28 526.52 46.32V22.52C526.52 17.34 522.32 13.28 517.28 13.28H496.28C491.24 13.28 487.04 17.2 486.48 22.38C484.66 38.2 479.34 47.58 468.7 53.46C465.48 55.28 463.8 59.06 464.92 62.42ZM544.16 120.66C533.66 117.86 523.86 113.24 515.46 107.22C524 99.1 531.28 89.3 535.76 77.26C537.44 72.78 533.94 68.16 529.04 68.16H476.12C472.9 68.16 470.38 70.82 470.38 73.9C470.38 77.12 473.04 79.78 476.12 79.78H483.68C481.3 81.32 480.32 84.54 481.72 87.06C485.22 93.36 490.12 100.22 496.56 106.66C487.18 113.1 476.26 118.28 464.78 121.36C461.56 122.34 459.46 125.56 460.16 128.78C460.86 132 464.08 134.1 467.3 133.12C479.06 129.9 493.2 124.16 505.8 115.06C515.46 122.76 527.36 129.2 541.08 132.84C544.44 133.82 547.94 131.72 548.78 128.22C549.62 124.86 547.52 121.5 544.16 120.66ZM492.92 82.16C492.36 81.18 491.52 80.34 490.68 79.78H521.48C517.84 86.78 512.52 93.36 505.94 99.24C500.76 94.2 496.42 88.46 492.92 82.16Z" fill="#42210C"/>
<path d="M684.72 52.34C671.98 50.38 654.2 44.92 648.6 35.26C648.74 34 648.74 32.6 648.74 30.64H670.16C669.46 32.18 668.62 33.58 667.64 34.84C665.82 37.5 666.66 41 669.46 42.4C672.68 43.94 676.46 42.96 678.28 40.16C680.52 36.52 682.34 32.46 683.6 28.82C685.28 24.34 681.64 19.58 676.6 19.58H634.04C635.72 16.78 634.6 13.28 631.66 11.6C629.14 10.06 625.78 11.18 623.96 13.84C620.88 18.74 615.42 23.64 608 28.4C605.34 30.08 604.22 33.3 605.34 36.24C606.6 39.18 609.96 40.44 612.62 39.04C616.82 36.94 621.02 34 624.66 30.64H636.98V33.58C636.98 41.42 626.48 47.3 607.16 50.66C603.94 51.08 601.7 54.16 602.12 57.38C602.68 60.74 605.62 62.98 608.84 62.42C625.78 59.62 637.4 54.58 643.56 47.44C651.82 55.14 666.38 61.44 683.04 63.96C686.26 64.38 689.2 62.14 689.76 58.92C690.18 55.7 687.94 52.76 684.72 52.34ZM574.96 26.86C581.54 27.7 589.8 29.24 596.1 30.92C599.18 31.76 602.54 29.94 603.24 26.86C604.08 23.5 602.26 20.28 599.04 19.58C592.18 17.9 583.64 16.22 577.2 15.38C573.98 14.82 570.9 17.06 570.34 20.28C569.64 23.36 571.88 26.3 574.96 26.86ZM574.96 61.02C583.22 59.34 594.42 55.98 601.7 52.62C604.36 51.36 605.76 48.14 604.92 45.06C603.94 42.26 600.86 40.72 598.06 41.84C591.62 44.36 581.68 47.58 572.86 49.68C569.78 50.38 567.68 53.32 568.24 56.4C568.8 59.62 571.88 61.72 574.96 61.02ZM684.02 121.92C676.32 121.36 667.78 119.68 661.34 117.58H661.62C666.66 117.58 670.86 113.38 670.86 108.34V71.8C670.86 66.62 666.66 62.56 661.62 62.56H596.52C591.48 62.56 587.28 66.76 587.28 71.8V108.34C587.28 113.52 591.48 117.58 596.52 117.58H596.66C589.94 119.68 581.68 121.36 574.54 121.92C571.32 122.2 568.94 125 569.22 128.22C569.5 131.44 572.44 133.96 575.66 133.68C584.34 133.12 594.84 130.88 602.54 127.94C605.62 126.82 607.3 123.46 606.6 120.1C606.32 119.12 605.76 118.28 605.06 117.58H652.52C651.82 118.14 651.26 118.98 650.84 119.96C649.72 123.18 651.26 126.68 654.34 127.8C663.02 130.88 674.78 132.98 682.48 133.68C685.7 134.1 688.64 131.58 689.2 128.22C689.62 125.14 687.24 122.34 684.02 121.92ZM658.68 76.98H599.32V73.34H658.68V76.98ZM599.32 87.76H658.68V91.4H599.32V87.76ZM658.68 102.32V106.8H599.32V102.32H658.68Z" fill="#42210C"/>
<path d="M120.52 29.24C123.74 29.24 126.4 26.44 126.4 23.22C126.4 19.86 123.74 17.2 120.52 17.2H17.4801C14.2601 17.2 11.4601 20 11.4601 23.22C11.4601 26.58 14.2601 29.24 17.4801 29.24H77.6801C64.6601 49.82 40.3001 73.34 13.8401 85.8C10.9001 87.2 9.50014 90.7 10.7601 93.64C11.8801 96.58 15.3801 97.98 18.3201 96.58C34.0001 89.16 48.7001 78.94 61.5801 67.04V127.38C61.5801 130.74 64.3801 133.4 67.7401 133.4C71.1001 133.4 73.9001 130.6 73.9001 127.38V59.62C73.9001 58.08 73.3401 56.82 72.5001 55.7C79.9201 47.44 86.3601 38.62 91.6801 29.24H120.52ZM123.18 86.78C112.12 82.86 100.08 75.58 89.1601 66.48C86.6401 64.24 82.7201 64.38 80.4801 66.9C78.1001 69.56 78.3801 73.48 81.0401 75.58C92.5201 84.82 108.62 94.48 119.96 98.82C123.04 100.08 126.68 98.12 127.52 94.62C128.5 91.4 126.54 87.9 123.18 86.78Z" stroke="white" stroke-width="20" mask="url(#path-1-outside-1_491:876)"/>
<path d="M244.28 40.58V16.64C244.28 13.42 241.62 10.62 238.26 10.62C234.9 10.62 232.24 13.42 232.24 16.64V40.58H220.76C217.54 40.58 214.74 43.24 214.74 46.6C214.74 49.82 217.4 52.62 220.76 52.62H232.1C231.12 76.84 225.52 105.82 208.02 121.92C205.5 124.3 204.94 128.08 206.76 130.74C208.72 133.68 212.64 134.38 215.16 132.14C228.18 120.94 242.46 94.76 244.14 52.62H254.5C254.36 76.7 253.8 99.52 253.24 105.82C252.12 118.42 251.7 120.8 241.34 120.8C237.98 120.8 235.32 123.6 235.32 126.82C235.46 130.32 238.26 133.12 241.62 133.12C258 132.84 264.02 126.12 265.42 106.8C265.98 99.24 266.68 73.9 266.82 49.82C266.82 44.64 262.76 40.58 257.58 40.58H244.28ZM211.8 113.8C210.96 110.86 207.88 109.04 204.8 110.02C200.04 111.42 194.58 112.82 188.7 113.94V107.08H205.78C208.72 107.08 211.24 104.7 211.24 101.62C211.24 98.68 208.86 96.16 205.78 96.16H188.7V91.4H203.4C208.44 91.4 212.64 87.2 212.64 82.16V58.36C212.64 53.18 208.44 49.12 203.4 49.12H188.7V45.34H210.82C213.76 45.34 216.42 42.96 216.42 39.74C216.42 36.8 213.9 34.14 210.82 34.14H188.7V28.96C194.3 27.98 200.04 26.72 205.64 25.18C208.72 24.34 210.54 21.12 209.84 18.04C209 14.96 205.92 13.14 202.84 13.98C188.42 17.62 174 20 160.28 20.98C157.06 21.26 154.68 23.92 155.1 27.14C155.38 30.36 158.18 32.74 161.4 32.46C166.58 32.04 172.04 31.48 177.5 30.78V34.14H154.54C151.46 34.14 148.94 36.8 148.94 39.74C148.94 42.82 151.46 45.34 154.54 45.34H177.5V49.12H163.78C158.74 49.12 154.54 53.32 154.54 58.36V82.16C154.54 87.2 158.74 91.4 163.78 91.4H177.5V96.16H159.58C156.5 96.16 153.98 98.54 153.98 101.62C153.98 104.56 156.5 107.08 159.58 107.08H177.5V115.9C168.96 117.3 160.56 118.28 154.12 118.7C151.04 118.84 148.66 121.5 148.8 124.58C148.94 127.66 151.6 130.04 154.68 129.76C172.32 128.22 193.18 125 207.6 121.08C210.68 120.24 212.5 116.88 211.8 113.8ZM177.5 64.66H166.02V60.04H177.5V64.66ZM201.02 64.66H188.7V60.04H201.02V64.66ZM166.02 75.72H177.5V80.34H166.02V75.72ZM188.7 75.72H201.02V80.34H188.7V75.72Z" stroke="white" stroke-width="20" mask="url(#path-1-outside-1_491:876)"/>
<path d="M401.64 59.06C404.86 59.06 407.52 56.4 407.52 53.32C407.52 50.1 404.86 47.44 401.64 47.44H374.34C375.6 45.48 376.72 43.38 377.7 41.28C378.96 38.34 377.7 35.12 374.9 33.72H395.9C399.12 33.72 401.64 31.06 401.64 27.98C401.64 24.76 398.98 22.24 395.9 22.24H355.86V16.78C355.86 13.42 353.06 10.76 349.84 10.76C346.48 10.76 343.82 13.56 343.82 16.78V22.24H302.1C298.88 22.24 296.36 24.9 296.36 27.98C296.36 31.2 299.02 33.72 302.1 33.72H325.2C324.64 34 323.94 34.42 323.38 34.98C321 37.08 321 40.86 323.38 43.24C324.78 44.64 325.9 46.04 327.02 47.44H307.14C301.96 47.44 297.9 51.64 297.9 56.68V63.26C297.9 89.3 295.24 111.14 290.48 125.56C289.5 128.78 291.32 132.28 294.54 132.98C298.04 133.82 301.68 131.72 302.66 128.36C308.54 107.78 309.8 79.22 309.8 63.26V59.06H401.64ZM332.2 34.98C331.64 34.42 331.08 34 330.52 33.72H369.58C368.32 34.42 367.2 35.4 366.5 36.8C364.82 40.72 362.44 44.36 359.92 47.44H341.16C338.64 42.68 335.84 38.62 332.2 34.98ZM364.68 120.24V106.94H383.72C386.94 106.94 389.6 104.42 389.6 101.2C389.6 97.98 386.94 95.32 383.72 95.32H364.68V84.96H390.16C393.38 84.96 395.9 82.3 395.9 79.22C395.9 76 393.24 73.48 390.16 73.48H364.68V65.92C364.68 62.56 362.02 59.9 358.8 59.9C355.58 59.9 352.78 62.56 352.78 65.92V73.48H336.26C336.96 71.94 337.52 70.26 337.94 68.72C338.78 65.64 336.82 62.42 333.6 61.44C330.66 60.6 327.58 62.42 326.6 65.36C323.8 74.18 318.48 82.72 311.9 88.6C309.38 90.84 308.82 94.48 310.5 97.14C312.32 99.94 316.1 100.64 318.62 98.54C322.96 94.76 327.02 90 330.38 84.96H352.78V95.32H334.16C330.8 95.32 328.28 97.98 328.28 101.2C328.28 104.42 330.94 106.94 334.16 106.94H352.78V120.24H317.78C314.56 120.24 312.04 122.9 312.04 125.98C312.04 129.2 314.7 131.86 317.78 131.86H400.1C403.32 131.86 405.84 129.2 405.84 125.98C405.84 122.76 403.18 120.24 400.1 120.24H364.68Z" stroke="white" stroke-width="20" mask="url(#path-1-outside-1_491:876)"/>
<path d="M467.02 83.84C469.82 82.02 471.08 78.38 469.68 75.02C468.42 72.08 464.78 70.96 461.98 72.64L457.64 75.3V49.12H465.76C469.12 49.12 471.78 46.32 471.78 43.1C471.78 39.74 468.98 37.08 465.76 37.08H457.64V17.9C457.64 14.54 454.84 11.88 451.48 11.88C448.12 11.88 445.32 14.54 445.32 17.9V37.08H434.96C431.74 37.08 429.08 39.74 429.08 43.1C429.08 46.46 431.74 49.12 434.96 49.12H445.32V81.04C441.54 82.58 437.48 83.84 432.86 84.96C429.5 85.8 427.4 89.02 428.1 92.24C428.66 95.6 431.88 97.7 435.24 96.86C438.74 96.02 442.1 95.04 445.32 93.92V127.8C445.32 131.16 448.12 133.96 451.48 133.96C454.84 133.96 457.64 131.16 457.64 127.8V88.88C460.86 87.34 464.08 85.66 467.02 83.84ZM464.92 62.42C465.9 65.92 469.68 67.6 472.9 66.06C488.16 58.5 496.28 45.48 498.38 24.76H514.48V46.32C514.48 55.56 520.5 60.32 532.26 60.32H540.38C543.74 60.32 546.26 57.52 546.26 54.44C546.26 51.22 543.74 48.56 540.38 48.56H533.1C526.94 48.56 526.52 48.28 526.52 46.32V22.52C526.52 17.34 522.32 13.28 517.28 13.28H496.28C491.24 13.28 487.04 17.2 486.48 22.38C484.66 38.2 479.34 47.58 468.7 53.46C465.48 55.28 463.8 59.06 464.92 62.42ZM544.16 120.66C533.66 117.86 523.86 113.24 515.46 107.22C524 99.1 531.28 89.3 535.76 77.26C537.44 72.78 533.94 68.16 529.04 68.16H476.12C472.9 68.16 470.38 70.82 470.38 73.9C470.38 77.12 473.04 79.78 476.12 79.78H483.68C481.3 81.32 480.32 84.54 481.72 87.06C485.22 93.36 490.12 100.22 496.56 106.66C487.18 113.1 476.26 118.28 464.78 121.36C461.56 122.34 459.46 125.56 460.16 128.78C460.86 132 464.08 134.1 467.3 133.12C479.06 129.9 493.2 124.16 505.8 115.06C515.46 122.76 527.36 129.2 541.08 132.84C544.44 133.82 547.94 131.72 548.78 128.22C549.62 124.86 547.52 121.5 544.16 120.66ZM492.92 82.16C492.36 81.18 491.52 80.34 490.68 79.78H521.48C517.84 86.78 512.52 93.36 505.94 99.24C500.76 94.2 496.42 88.46 492.92 82.16Z" stroke="white" stroke-width="20" mask="url(#path-1-outside-1_491:876)"/>
<path d="M684.72 52.34C671.98 50.38 654.2 44.92 648.6 35.26C648.74 34 648.74 32.6 648.74 30.64H670.16C669.46 32.18 668.62 33.58 667.64 34.84C665.82 37.5 666.66 41 669.46 42.4C672.68 43.94 676.46 42.96 678.28 40.16C680.52 36.52 682.34 32.46 683.6 28.82C685.28 24.34 681.64 19.58 676.6 19.58H634.04C635.72 16.78 634.6 13.28 631.66 11.6C629.14 10.06 625.78 11.18 623.96 13.84C620.88 18.74 615.42 23.64 608 28.4C605.34 30.08 604.22 33.3 605.34 36.24C606.6 39.18 609.96 40.44 612.62 39.04C616.82 36.94 621.02 34 624.66 30.64H636.98V33.58C636.98 41.42 626.48 47.3 607.16 50.66C603.94 51.08 601.7 54.16 602.12 57.38C602.68 60.74 605.62 62.98 608.84 62.42C625.78 59.62 637.4 54.58 643.56 47.44C651.82 55.14 666.38 61.44 683.04 63.96C686.26 64.38 689.2 62.14 689.76 58.92C690.18 55.7 687.94 52.76 684.72 52.34ZM574.96 26.86C581.54 27.7 589.8 29.24 596.1 30.92C599.18 31.76 602.54 29.94 603.24 26.86C604.08 23.5 602.26 20.28 599.04 19.58C592.18 17.9 583.64 16.22 577.2 15.38C573.98 14.82 570.9 17.06 570.34 20.28C569.64 23.36 571.88 26.3 574.96 26.86ZM574.96 61.02C583.22 59.34 594.42 55.98 601.7 52.62C604.36 51.36 605.76 48.14 604.92 45.06C603.94 42.26 600.86 40.72 598.06 41.84C591.62 44.36 581.68 47.58 572.86 49.68C569.78 50.38 567.68 53.32 568.24 56.4C568.8 59.62 571.88 61.72 574.96 61.02ZM684.02 121.92C676.32 121.36 667.78 119.68 661.34 117.58H661.62C666.66 117.58 670.86 113.38 670.86 108.34V71.8C670.86 66.62 666.66 62.56 661.62 62.56H596.52C591.48 62.56 587.28 66.76 587.28 71.8V108.34C587.28 113.52 591.48 117.58 596.52 117.58H596.66C589.94 119.68 581.68 121.36 574.54 121.92C571.32 122.2 568.94 125 569.22 128.22C569.5 131.44 572.44 133.96 575.66 133.68C584.34 133.12 594.84 130.88 602.54 127.94C605.62 126.82 607.3 123.46 606.6 120.1C606.32 119.12 605.76 118.28 605.06 117.58H652.52C651.82 118.14 651.26 118.98 650.84 119.96C649.72 123.18 651.26 126.68 654.34 127.8C663.02 130.88 674.78 132.98 682.48 133.68C685.7 134.1 688.64 131.58 689.2 128.22C689.62 125.14 687.24 122.34 684.02 121.92ZM658.68 76.98H599.32V73.34H658.68V76.98ZM599.32 87.76H658.68V91.4H599.32V87.76ZM658.68 102.32V106.8H599.32V102.32H658.68Z" stroke="white" stroke-width="20" mask="url(#path-1-outside-1_491:876)"/>
</svg>
