<svg width="1043" height="99" viewBox="0 0 1043 99" fill="none" xmlns="http://www.w3.org/2000/svg">
<mask id="path-1-outside-1_492:879" maskUnits="userSpaceOnUse" x="-0.0629883" y="-0.0895386" width="1043" height="100" fill="black">
<rect fill="white" x="-0.0629883" y="-0.0895386" width="1043" height="100"/>
<path d="M66.18 34.61C68.25 34.52 69.96 32.81 69.87 30.65C69.87 28.49 68.07 26.78 65.91 26.87C60.33 27.05 52.77 27.5 44.94 28.04C44.85 24.71 44.67 21.83 44.58 19.58C44.49 17.42 42.6 15.8 40.44 15.98C38.28 16.16 36.75 17.96 36.84 20.12C36.93 22.37 37.11 25.25 37.2 28.58C27.03 29.3 17.22 30.11 11.55 30.38C9.48004 30.47 7.77004 32.27 7.95004 34.43C8.04004 36.59 9.84004 38.21 11.91 38.12C17.58 37.85 27.39 37.13 37.56 36.41C37.65 39.83 37.74 43.34 37.92 46.85C32.16 47.03 26.4 46.94 20.55 46.49C18.48 46.4 16.59 47.93 16.32 50.09C16.14 52.25 17.76 54.14 19.92 54.23C24.78 54.68 31.26 54.77 38.1 54.59C38.28 59 38.37 63.05 38.46 66.38C21.54 64.04 12.63 70.52 14.61 78.26C16.14 83.84 22.44 87.98 29.46 87.98C38.64 87.98 44.04 83.75 45.66 75.38C51.15 77.09 56.19 79.7 60.78 82.31C62.76 83.39 65.28 82.58 66.18 80.51C67.08 78.44 66.18 75.92 64.11 74.84C57.54 71.69 51.6 69.44 46.2 68C46.11 64.31 46.02 59.45 45.84 54.14C51.51 53.78 57.18 53.15 62.31 52.16C64.38 51.8 65.73 49.73 65.28 47.66C64.83 45.59 62.76 44.24 60.69 44.6C55.92 45.5 50.88 46.13 45.57 46.49C45.48 42.89 45.39 39.29 45.21 35.87C53.31 35.33 60.96 34.88 66.18 34.61ZM30.18 80.24C20.82 80.24 17.67 73.4 29.91 73.04C32.79 72.86 35.58 73.04 38.28 73.49C37.74 77.09 36.03 80.24 30.18 80.24Z"/>
<path d="M169.95 19.85C167.79 14.81 165.72 11.84 162.21 8.60001C161.13 7.61001 159.42 7.70001 158.34 8.78001C157.35 9.86001 157.35 11.48 158.43 12.47C161.31 15.26 163.38 18.32 164.82 22.1C165.36 23.54 166.98 24.26 168.42 23.63C169.77 23 170.49 21.29 169.95 19.85ZM155.01 12.2C153.84 11.12 151.95 11.21 150.96 12.38C149.88 13.55 150.06 15.35 151.23 16.34C154.11 18.95 155.91 21.56 157.35 25.43C157.89 26.96 159.51 27.68 160.95 26.96C162.39 26.33 163.2 24.62 162.57 23.18C160.59 18.59 158.25 15.17 155.01 12.2ZM159.42 27.68C152.76 26.6 145.38 26.78 137.82 27.32V19.58C137.82 17.51 136.11 15.71 133.95 15.71C131.79 15.71 130.08 17.42 130.08 19.58L130.17 27.95C119.46 28.85 108.66 29.84 99.3 28.49C97.14 28.13 95.25 29.57 95.07 31.64C94.89 33.89 96.33 35.87 98.49 36.23C107.22 37.67 118.74 36.68 130.17 35.78L130.26 44.15C120.9 38.93 110.73 46.22 111.99 57.56C113.07 67.19 125.94 72.32 132.69 63.77C132.24 73.13 124.32 79.97 113.52 80.15C111.27 80.24 109.47 81.95 109.38 84.11C109.38 86.45 111.18 88.25 113.43 88.16C137.1 87.17 144.66 65.39 137.82 50.09V35.24C145.2 34.7 152.31 34.61 158.43 35.42C160.59 35.78 162.48 34.34 162.75 32.27C163.02 30.11 161.49 28.04 159.42 27.68ZM119.73 57.56C117.3 50.18 125.76 45.86 129.99 52.07C129.9 63.41 121.17 61.79 119.73 57.56Z"/>
<path d="M250.59 75.83C246.63 73.04 241.59 70.61 236.19 68.81C236.19 61.61 235.74 52.43 235.11 43.79C239.52 43.52 243.48 43.16 246.72 42.89C248.79 42.62 250.41 40.73 250.32 38.66C250.14 36.5 248.34 34.97 246.18 35.15C242.76 35.51 238.8 35.78 234.48 36.05C233.94 29.93 233.31 24.44 232.68 20.66C232.32 18.5 230.25 17.06 228.18 17.42C226.11 17.69 224.67 19.67 225.03 21.74C225.66 25.43 226.2 30.65 226.74 36.41C219.27 36.77 211.53 36.95 204.6 36.86C202.44 36.86 200.64 38.57 200.64 40.73C200.64 42.89 202.35 44.69 204.51 44.69C212.07 44.69 219.99 44.51 227.37 44.15C227.91 51.98 228.36 60.08 228.36 66.74C215.85 64.31 203.97 66.11 203.25 75.92C202.71 82.85 209.82 88.16 219.54 88.16C228.54 88.16 234.21 84.02 235.65 76.55C239.25 77.99 242.67 79.88 245.91 82.22C247.71 83.39 250.14 83.12 251.4 81.41C252.66 79.52 252.39 77.09 250.59 75.83ZM196.05 18.5C193.98 17.87 191.73 18.95 191.1 21.02C185.61 39.65 185.25 64.76 190.38 84.83C190.92 86.99 192.99 88.16 195.15 87.53C197.13 86.9 198.3 84.74 197.76 82.67C192.09 60.71 194.79 36.77 198.57 23.45C199.11 21.38 198.03 19.22 196.05 18.5ZM219.54 80.33C209.91 80.33 207.03 73.04 219 73.4C222.15 73.49 225.12 73.76 228.09 74.39C227.55 78.71 225.21 80.33 219.54 80.33Z"/>
<path d="M332.58 39.92C335.55 39.92 338.07 37.49 338.07 34.43V18.68C338.07 15.62 335.55 13.19 332.58 13.19H303.51C300.45 13.19 298.02 15.62 298.02 18.68V34.43C298.02 37.4 300.45 39.92 303.51 39.92H332.58ZM273.81 23.45C277.59 24.53 281.55 26.15 284.7 27.77C286.59 28.76 289.02 27.86 289.65 25.79C290.37 23.54 289.29 21.02 287.22 20.12C283.71 18.59 279.39 16.97 275.34 15.8C273.27 15.17 271.2 16.52 270.75 18.68C270.3 20.75 271.65 22.91 273.81 23.45ZM330.42 23.27H305.67V19.94H330.42V23.27ZM305.67 29.93H330.42V33.26H305.67V29.93ZM272.73 44.06C276.24 45.14 279.57 46.67 282.27 48.11C284.25 49.28 286.68 48.38 287.4 46.31C288.12 43.97 287.13 41.45 284.97 40.46C281.64 38.84 277.59 37.22 274.17 36.23C272.01 35.6 269.85 36.95 269.49 39.2C269.13 41.36 270.57 43.43 272.73 44.06ZM340.05 60.17C343.02 60.17 345.54 57.74 345.54 54.68V47.66C345.54 44.69 343.11 42.17 340.05 42.17H296.76C293.7 42.17 291.27 44.6 291.27 47.66V54.68C291.27 57.65 293.7 60.17 296.76 60.17H340.05ZM306.93 48.65V53.69H298.74V48.65H306.93ZM314.4 48.65H321.69V53.69H314.4V48.65ZM329.16 53.69V48.65H337.98V53.69H329.16ZM285.96 55.22C283.8 54.68 281.73 56.03 281.19 58.1C278.76 68.27 274.8 78.71 270.39 86.99C269.4 88.88 270.39 91.22 272.46 91.76C274.8 92.39 277.14 91.31 278.22 89.24C282.63 80.33 286.95 67.91 288.93 60.08C289.47 57.92 288.12 55.76 285.96 55.22ZM345.18 83.75C338.88 83.03 332.76 81.59 327.09 79.43C331.59 76.37 335.28 72.68 338.07 68.63C339.69 66.29 337.8 63.05 334.92 63.05H295.23C293.07 63.05 291.45 64.85 291.45 66.83C291.45 68.9 293.07 70.61 295.23 70.61H308.19C307.38 70.79 306.57 71.15 305.94 71.69C304.41 73.04 304.5 75.56 306.12 76.82C307.47 77.81 308.82 78.8 310.26 79.7C304.05 81.95 296.94 83.39 289.11 83.93C287.04 84.11 285.51 85.91 285.69 87.98C285.87 90.14 287.67 91.76 289.83 91.67C300.36 91.04 310.35 88.43 318.81 84.38C327.18 88.25 336 90.5 343.83 91.4C345.99 91.67 347.97 90.14 348.42 87.98C348.78 86 347.34 84.02 345.18 83.75ZM311.79 71.42C311.16 70.97 310.53 70.7 309.81 70.61H326.01C323.85 72.5 321.51 74.21 318.81 75.74C316.38 74.48 314.04 73.04 311.79 71.42Z"/>
<path d="M365.52 15.8C363.45 15.8 361.74 17.51 361.74 19.58C361.74 21.65 363.45 23.36 365.52 23.36H395.22V32.81H384.15C380.82 32.81 378.21 35.51 378.21 38.75V69.44C378.21 72.68 380.91 75.38 384.15 75.38H413.85C417.18 75.38 419.79 72.68 419.79 69.44V38.75C419.79 35.42 417.09 32.81 413.85 32.81H402.78V23.36H432.48C434.55 23.36 436.26 21.65 436.26 19.58C436.26 17.51 434.55 15.8 432.48 15.8H365.52ZM430.86 31.55C428.79 31.55 426.99 33.26 426.99 35.42V83.57H371.01V35.42C371.01 33.26 369.21 31.55 367.14 31.55C365.07 31.55 363.27 33.26 363.27 35.42V85.1C363.27 88.34 365.97 91.04 369.21 91.04H428.79C432.03 91.04 434.73 88.34 434.73 85.1V35.42C434.73 33.26 432.93 31.55 430.86 31.55ZM395.22 49.82H385.68V40.01H395.22V49.82ZM412.32 49.82H402.78V40.01H412.32V49.82ZM395.22 57.02V68.18H385.68V57.02H395.22ZM402.78 57.02H412.32V68.18H402.78V57.02Z"/>
<path d="M511.68 31.73V16.34C511.68 14.27 509.97 12.47 507.81 12.47C505.65 12.47 503.94 14.27 503.94 16.34V31.73H496.56C494.49 31.73 492.69 33.44 492.69 35.6C492.69 37.67 494.4 39.47 496.56 39.47H503.85C503.22 55.04 499.62 73.67 488.37 84.02C486.75 85.55 486.39 87.98 487.56 89.69C488.82 91.58 491.34 92.03 492.96 90.59C501.33 83.39 510.51 66.56 511.59 39.47H518.25C518.16 54.95 517.8 69.62 517.44 73.67C516.72 81.77 516.45 83.3 509.79 83.3C507.63 83.3 505.92 85.1 505.92 87.17C506.01 89.42 507.81 91.22 509.97 91.22C520.5 91.04 524.37 86.72 525.27 74.3C525.63 69.44 526.08 53.15 526.17 37.67C526.17 34.34 523.56 31.73 520.23 31.73H511.68ZM490.8 78.8C490.26 76.91 488.28 75.74 486.3 76.37C483.24 77.27 479.73 78.17 475.95 78.89V74.48H486.93C488.82 74.48 490.44 72.95 490.44 70.97C490.44 69.08 488.91 67.46 486.93 67.46H475.95V64.4H485.4C488.64 64.4 491.34 61.7 491.34 58.46V43.16C491.34 39.83 488.64 37.22 485.4 37.22H475.95V34.79H490.17C492.06 34.79 493.77 33.26 493.77 31.19C493.77 29.3 492.15 27.59 490.17 27.59H475.95V24.26C479.55 23.63 483.24 22.82 486.84 21.83C488.82 21.29 489.99 19.22 489.54 17.24C489 15.26 487.02 14.09 485.04 14.63C475.77 16.97 466.5 18.5 457.68 19.13C455.61 19.31 454.08 21.02 454.35 23.09C454.53 25.16 456.33 26.69 458.4 26.51C461.73 26.24 465.24 25.88 468.75 25.43V27.59H453.99C452.01 27.59 450.39 29.3 450.39 31.19C450.39 33.17 452.01 34.79 453.99 34.79H468.75V37.22H459.93C456.69 37.22 453.99 39.92 453.99 43.16V58.46C453.99 61.7 456.69 64.4 459.93 64.4H468.75V67.46H457.23C455.25 67.46 453.63 68.99 453.63 70.97C453.63 72.86 455.25 74.48 457.23 74.48H468.75V80.15C463.26 81.05 457.86 81.68 453.72 81.95C451.74 82.04 450.21 83.75 450.3 85.73C450.39 87.71 452.1 89.24 454.08 89.06C465.42 88.07 478.83 86 488.1 83.48C490.08 82.94 491.25 80.78 490.8 78.8ZM468.75 47.21H461.37V44.24H468.75V47.21ZM483.87 47.21H475.95V44.24H483.87V47.21ZM461.37 54.32H468.75V57.29H461.37V54.32ZM475.95 54.32H483.87V57.29H475.95V54.32Z"/>
<path d="M545.52 15.8C543.45 15.8 541.74 17.51 541.74 19.58C541.74 21.65 543.45 23.36 545.52 23.36H575.22V32.81H564.15C560.82 32.81 558.21 35.51 558.21 38.75V69.44C558.21 72.68 560.91 75.38 564.15 75.38H593.85C597.18 75.38 599.79 72.68 599.79 69.44V38.75C599.79 35.42 597.09 32.81 593.85 32.81H582.78V23.36H612.48C614.55 23.36 616.26 21.65 616.26 19.58C616.26 17.51 614.55 15.8 612.48 15.8H545.52ZM610.86 31.55C608.79 31.55 606.99 33.26 606.99 35.42V83.57H551.01V35.42C551.01 33.26 549.21 31.55 547.14 31.55C545.07 31.55 543.27 33.26 543.27 35.42V85.1C543.27 88.34 545.97 91.04 549.21 91.04H608.79C612.03 91.04 614.73 88.34 614.73 85.1V35.42C614.73 33.26 612.93 31.55 610.86 31.55ZM575.22 49.82H565.68V40.01H575.22V49.82ZM592.32 49.82H582.78V40.01H592.32V49.82ZM575.22 57.02V68.18H565.68V57.02H575.22ZM582.78 57.02H592.32V68.18H582.78V57.02Z"/>
<path d="M691.05 77.9C664.68 80.96 658.02 80.6 656.31 76.28C654.96 72.23 659.37 67.55 670.08 61.88C670.35 64.31 670.44 66.92 670.53 69.89C670.62 72.05 672.42 73.85 674.58 73.85C676.83 73.85 678.54 72.05 678.54 69.89C678.36 64.67 678.09 60.98 677.64 58.01C684.39 54.68 688.35 52.52 694.56 48.47C696.45 47.21 696.9 44.69 695.64 42.89C694.47 41 691.95 40.55 690.15 41.81C684.66 45.68 679.89 48.47 675.48 50.72C672.87 46.13 667.92 43.07 660 44.42C661.44 42.08 662.79 39.56 663.96 36.77C669.63 35.6 675.3 34.07 680.07 32.09C682.05 31.28 682.95 28.94 682.14 26.87C681.33 24.89 679.17 23.99 677.19 24.89C674.04 26.15 670.71 27.32 667.29 28.22C668.01 26.06 668.73 23.9 669.36 21.56C669.9 19.4 668.64 17.24 666.39 16.7C664.23 16.16 662.07 17.51 661.53 19.67C660.54 23.45 659.55 26.96 658.38 30.11C653.52 30.83 648.66 31.28 644.25 31.46C642.09 31.55 640.29 33.26 640.29 35.51C640.29 37.76 642.09 39.47 644.34 39.38C647.22 39.2 650.73 38.93 654.6 38.39C651.81 43.34 648.66 47.21 644.88 50.09C643.08 51.44 642.63 53.87 643.8 55.58C644.97 57.56 647.49 58.1 649.29 56.75C649.92 56.3 650.46 55.85 651.09 55.31C659.64 50.54 665.76 50.27 668.37 54.41C651.54 63.32 645.78 70.43 648.57 78.98C650.46 84.74 656.31 87.53 666.21 87.53C677.55 87.53 686.91 86.81 691.86 86.36C694.2 86.18 696 84.02 695.73 81.68C695.55 79.34 693.39 77.63 691.05 77.9Z"/>
<path d="M796.53 79.43C794.82 78.17 792.48 78.44 790.95 80.06C787.44 83.84 785.46 83.57 779.16 83.57C770.88 83.57 769.98 83.12 769.98 79.07V67.73H778.53C781.77 67.73 784.47 65.12 784.47 61.79V20.75C784.47 17.51 781.77 14.81 778.53 14.81H739.47C736.23 14.81 733.53 17.51 733.53 20.75V61.79C733.53 65.12 736.23 67.73 739.47 67.73H747.66C744.78 76.19 736.59 81.59 723.54 83.48C721.38 83.84 719.85 85.73 720.03 87.89C720.3 90.14 722.28 91.67 724.44 91.4C742.17 88.7 752.61 80.87 755.76 67.73H762.15V80.06C762.15 89.42 768.36 91.04 779.16 91.04C788.7 91.04 792.66 89.69 797.07 84.83C798.51 83.21 798.24 80.78 796.53 79.43ZM776.55 29.93H741.45V22.55H776.55V29.93ZM741.45 45.05V37.58H776.55V45.05H741.45ZM776.55 52.7V60.08H741.45V52.7H776.55Z"/>
<path d="M875.19 75.38C869.43 72.05 859.71 67.37 853.68 66.11C853.5 60.62 853.05 52.7 852.51 44.69C859.35 43.97 866.82 42.53 871.68 41.18C873.84 40.55 875.19 38.3 874.74 36.05C874.29 33.98 872.13 32.72 869.97 33.26C865.56 34.52 858.36 35.96 851.88 36.77C851.34 30.11 850.8 23.9 850.17 19.76C849.9 17.6 847.83 16.07 845.67 16.43C843.51 16.7 842.07 18.68 842.34 20.84C843.96 33.8 845.4 58.19 845.67 64.22C821.55 60.17 817.32 74.84 822.81 81.41C833.61 94.19 853.86 89.33 853.86 74.48C861.06 76.82 867.9 80.42 872.04 82.76C873.84 83.84 876.27 83.12 877.08 81.14C877.98 78.98 877.17 76.55 875.19 75.38ZM830.64 77.63C824.7 72.95 834.6 69.44 845.94 72.41C846.48 82.67 836.4 82.22 830.64 77.63Z"/>
<path d="M950.79 26.69C952.59 27.95 955.02 27.41 956.19 25.52C957.36 23.45 956.73 20.75 954.75 19.58C948.27 15.71 938.37 12.92 929.1 13.55C926.85 13.64 925.05 15.71 925.05 18.05C925.05 20.21 926.85 21.83 929.1 21.74C937.47 21.02 944.22 22.55 950.79 26.69ZM930.63 90.14C937.11 88.25 942.78 85.64 947.37 82.31C964.29 70.34 966.09 51.8 960.24 41.99C952.59 29.39 930 31.1 917.76 45.14C916.23 47.03 916.59 49.82 918.39 51.26C920.01 52.79 922.53 52.61 924.06 50.9C934.32 39.2 951.51 38.03 954.12 48.47C956.91 58.91 952.41 75.11 928.56 82.13C926.4 82.76 925.14 85.01 925.59 87.17C926.22 89.42 928.47 90.77 930.63 90.14Z"/>
<path d="M1029 72.32C1030.98 72.32 1032.51 70.7 1032.51 68.81L1033.68 20.75C1033.77 18.14 1031.61 15.98 1029 15.98C1026.39 15.98 1024.23 18.14 1024.32 20.75L1025.49 68.81C1025.49 70.7 1027.02 72.32 1029 72.32ZM1029 89.06C1032.42 89.06 1035.21 86.27 1035.21 82.94C1035.21 79.52 1032.42 76.73 1029 76.73C1025.67 76.73 1022.79 79.52 1022.79 82.94C1022.79 86.36 1025.67 89.06 1029 89.06Z"/>
</mask>
<path d="M66.18 34.61C68.25 34.52 69.96 32.81 69.87 30.65C69.87 28.49 68.07 26.78 65.91 26.87C60.33 27.05 52.77 27.5 44.94 28.04C44.85 24.71 44.67 21.83 44.58 19.58C44.49 17.42 42.6 15.8 40.44 15.98C38.28 16.16 36.75 17.96 36.84 20.12C36.93 22.37 37.11 25.25 37.2 28.58C27.03 29.3 17.22 30.11 11.55 30.38C9.48004 30.47 7.77004 32.27 7.95004 34.43C8.04004 36.59 9.84004 38.21 11.91 38.12C17.58 37.85 27.39 37.13 37.56 36.41C37.65 39.83 37.74 43.34 37.92 46.85C32.16 47.03 26.4 46.94 20.55 46.49C18.48 46.4 16.59 47.93 16.32 50.09C16.14 52.25 17.76 54.14 19.92 54.23C24.78 54.68 31.26 54.77 38.1 54.59C38.28 59 38.37 63.05 38.46 66.38C21.54 64.04 12.63 70.52 14.61 78.26C16.14 83.84 22.44 87.98 29.46 87.98C38.64 87.98 44.04 83.75 45.66 75.38C51.15 77.09 56.19 79.7 60.78 82.31C62.76 83.39 65.28 82.58 66.18 80.51C67.08 78.44 66.18 75.92 64.11 74.84C57.54 71.69 51.6 69.44 46.2 68C46.11 64.31 46.02 59.45 45.84 54.14C51.51 53.78 57.18 53.15 62.31 52.16C64.38 51.8 65.73 49.73 65.28 47.66C64.83 45.59 62.76 44.24 60.69 44.6C55.92 45.5 50.88 46.13 45.57 46.49C45.48 42.89 45.39 39.29 45.21 35.87C53.31 35.33 60.96 34.88 66.18 34.61ZM30.18 80.24C20.82 80.24 17.67 73.4 29.91 73.04C32.79 72.86 35.58 73.04 38.28 73.49C37.74 77.09 36.03 80.24 30.18 80.24Z" fill="#42210C"/>
<path d="M169.95 19.85C167.79 14.81 165.72 11.84 162.21 8.60001C161.13 7.61001 159.42 7.70001 158.34 8.78001C157.35 9.86001 157.35 11.48 158.43 12.47C161.31 15.26 163.38 18.32 164.82 22.1C165.36 23.54 166.98 24.26 168.42 23.63C169.77 23 170.49 21.29 169.95 19.85ZM155.01 12.2C153.84 11.12 151.95 11.21 150.96 12.38C149.88 13.55 150.06 15.35 151.23 16.34C154.11 18.95 155.91 21.56 157.35 25.43C157.89 26.96 159.51 27.68 160.95 26.96C162.39 26.33 163.2 24.62 162.57 23.18C160.59 18.59 158.25 15.17 155.01 12.2ZM159.42 27.68C152.76 26.6 145.38 26.78 137.82 27.32V19.58C137.82 17.51 136.11 15.71 133.95 15.71C131.79 15.71 130.08 17.42 130.08 19.58L130.17 27.95C119.46 28.85 108.66 29.84 99.3 28.49C97.14 28.13 95.25 29.57 95.07 31.64C94.89 33.89 96.33 35.87 98.49 36.23C107.22 37.67 118.74 36.68 130.17 35.78L130.26 44.15C120.9 38.93 110.73 46.22 111.99 57.56C113.07 67.19 125.94 72.32 132.69 63.77C132.24 73.13 124.32 79.97 113.52 80.15C111.27 80.24 109.47 81.95 109.38 84.11C109.38 86.45 111.18 88.25 113.43 88.16C137.1 87.17 144.66 65.39 137.82 50.09V35.24C145.2 34.7 152.31 34.61 158.43 35.42C160.59 35.78 162.48 34.34 162.75 32.27C163.02 30.11 161.49 28.04 159.42 27.68ZM119.73 57.56C117.3 50.18 125.76 45.86 129.99 52.07C129.9 63.41 121.17 61.79 119.73 57.56Z" fill="#42210C"/>
<path d="M250.59 75.83C246.63 73.04 241.59 70.61 236.19 68.81C236.19 61.61 235.74 52.43 235.11 43.79C239.52 43.52 243.48 43.16 246.72 42.89C248.79 42.62 250.41 40.73 250.32 38.66C250.14 36.5 248.34 34.97 246.18 35.15C242.76 35.51 238.8 35.78 234.48 36.05C233.94 29.93 233.31 24.44 232.68 20.66C232.32 18.5 230.25 17.06 228.18 17.42C226.11 17.69 224.67 19.67 225.03 21.74C225.66 25.43 226.2 30.65 226.74 36.41C219.27 36.77 211.53 36.95 204.6 36.86C202.44 36.86 200.64 38.57 200.64 40.73C200.64 42.89 202.35 44.69 204.51 44.69C212.07 44.69 219.99 44.51 227.37 44.15C227.91 51.98 228.36 60.08 228.36 66.74C215.85 64.31 203.97 66.11 203.25 75.92C202.71 82.85 209.82 88.16 219.54 88.16C228.54 88.16 234.21 84.02 235.65 76.55C239.25 77.99 242.67 79.88 245.91 82.22C247.71 83.39 250.14 83.12 251.4 81.41C252.66 79.52 252.39 77.09 250.59 75.83ZM196.05 18.5C193.98 17.87 191.73 18.95 191.1 21.02C185.61 39.65 185.25 64.76 190.38 84.83C190.92 86.99 192.99 88.16 195.15 87.53C197.13 86.9 198.3 84.74 197.76 82.67C192.09 60.71 194.79 36.77 198.57 23.45C199.11 21.38 198.03 19.22 196.05 18.5ZM219.54 80.33C209.91 80.33 207.03 73.04 219 73.4C222.15 73.49 225.12 73.76 228.09 74.39C227.55 78.71 225.21 80.33 219.54 80.33Z" fill="#42210C"/>
<path d="M332.58 39.92C335.55 39.92 338.07 37.49 338.07 34.43V18.68C338.07 15.62 335.55 13.19 332.58 13.19H303.51C300.45 13.19 298.02 15.62 298.02 18.68V34.43C298.02 37.4 300.45 39.92 303.51 39.92H332.58ZM273.81 23.45C277.59 24.53 281.55 26.15 284.7 27.77C286.59 28.76 289.02 27.86 289.65 25.79C290.37 23.54 289.29 21.02 287.22 20.12C283.71 18.59 279.39 16.97 275.34 15.8C273.27 15.17 271.2 16.52 270.75 18.68C270.3 20.75 271.65 22.91 273.81 23.45ZM330.42 23.27H305.67V19.94H330.42V23.27ZM305.67 29.93H330.42V33.26H305.67V29.93ZM272.73 44.06C276.24 45.14 279.57 46.67 282.27 48.11C284.25 49.28 286.68 48.38 287.4 46.31C288.12 43.97 287.13 41.45 284.97 40.46C281.64 38.84 277.59 37.22 274.17 36.23C272.01 35.6 269.85 36.95 269.49 39.2C269.13 41.36 270.57 43.43 272.73 44.06ZM340.05 60.17C343.02 60.17 345.54 57.74 345.54 54.68V47.66C345.54 44.69 343.11 42.17 340.05 42.17H296.76C293.7 42.17 291.27 44.6 291.27 47.66V54.68C291.27 57.65 293.7 60.17 296.76 60.17H340.05ZM306.93 48.65V53.69H298.74V48.65H306.93ZM314.4 48.65H321.69V53.69H314.4V48.65ZM329.16 53.69V48.65H337.98V53.69H329.16ZM285.96 55.22C283.8 54.68 281.73 56.03 281.19 58.1C278.76 68.27 274.8 78.71 270.39 86.99C269.4 88.88 270.39 91.22 272.46 91.76C274.8 92.39 277.14 91.31 278.22 89.24C282.63 80.33 286.95 67.91 288.93 60.08C289.47 57.92 288.12 55.76 285.96 55.22ZM345.18 83.75C338.88 83.03 332.76 81.59 327.09 79.43C331.59 76.37 335.28 72.68 338.07 68.63C339.69 66.29 337.8 63.05 334.92 63.05H295.23C293.07 63.05 291.45 64.85 291.45 66.83C291.45 68.9 293.07 70.61 295.23 70.61H308.19C307.38 70.79 306.57 71.15 305.94 71.69C304.41 73.04 304.5 75.56 306.12 76.82C307.47 77.81 308.82 78.8 310.26 79.7C304.05 81.95 296.94 83.39 289.11 83.93C287.04 84.11 285.51 85.91 285.69 87.98C285.87 90.14 287.67 91.76 289.83 91.67C300.36 91.04 310.35 88.43 318.81 84.38C327.18 88.25 336 90.5 343.83 91.4C345.99 91.67 347.97 90.14 348.42 87.98C348.78 86 347.34 84.02 345.18 83.75ZM311.79 71.42C311.16 70.97 310.53 70.7 309.81 70.61H326.01C323.85 72.5 321.51 74.21 318.81 75.74C316.38 74.48 314.04 73.04 311.79 71.42Z" fill="#42210C"/>
<path d="M365.52 15.8C363.45 15.8 361.74 17.51 361.74 19.58C361.74 21.65 363.45 23.36 365.52 23.36H395.22V32.81H384.15C380.82 32.81 378.21 35.51 378.21 38.75V69.44C378.21 72.68 380.91 75.38 384.15 75.38H413.85C417.18 75.38 419.79 72.68 419.79 69.44V38.75C419.79 35.42 417.09 32.81 413.85 32.81H402.78V23.36H432.48C434.55 23.36 436.26 21.65 436.26 19.58C436.26 17.51 434.55 15.8 432.48 15.8H365.52ZM430.86 31.55C428.79 31.55 426.99 33.26 426.99 35.42V83.57H371.01V35.42C371.01 33.26 369.21 31.55 367.14 31.55C365.07 31.55 363.27 33.26 363.27 35.42V85.1C363.27 88.34 365.97 91.04 369.21 91.04H428.79C432.03 91.04 434.73 88.34 434.73 85.1V35.42C434.73 33.26 432.93 31.55 430.86 31.55ZM395.22 49.82H385.68V40.01H395.22V49.82ZM412.32 49.82H402.78V40.01H412.32V49.82ZM395.22 57.02V68.18H385.68V57.02H395.22ZM402.78 57.02H412.32V68.18H402.78V57.02Z" fill="#42210C"/>
<path d="M511.68 31.73V16.34C511.68 14.27 509.97 12.47 507.81 12.47C505.65 12.47 503.94 14.27 503.94 16.34V31.73H496.56C494.49 31.73 492.69 33.44 492.69 35.6C492.69 37.67 494.4 39.47 496.56 39.47H503.85C503.22 55.04 499.62 73.67 488.37 84.02C486.75 85.55 486.39 87.98 487.56 89.69C488.82 91.58 491.34 92.03 492.96 90.59C501.33 83.39 510.51 66.56 511.59 39.47H518.25C518.16 54.95 517.8 69.62 517.44 73.67C516.72 81.77 516.45 83.3 509.79 83.3C507.63 83.3 505.92 85.1 505.92 87.17C506.01 89.42 507.81 91.22 509.97 91.22C520.5 91.04 524.37 86.72 525.27 74.3C525.63 69.44 526.08 53.15 526.17 37.67C526.17 34.34 523.56 31.73 520.23 31.73H511.68ZM490.8 78.8C490.26 76.91 488.28 75.74 486.3 76.37C483.24 77.27 479.73 78.17 475.95 78.89V74.48H486.93C488.82 74.48 490.44 72.95 490.44 70.97C490.44 69.08 488.91 67.46 486.93 67.46H475.95V64.4H485.4C488.64 64.4 491.34 61.7 491.34 58.46V43.16C491.34 39.83 488.64 37.22 485.4 37.22H475.95V34.79H490.17C492.06 34.79 493.77 33.26 493.77 31.19C493.77 29.3 492.15 27.59 490.17 27.59H475.95V24.26C479.55 23.63 483.24 22.82 486.84 21.83C488.82 21.29 489.99 19.22 489.54 17.24C489 15.26 487.02 14.09 485.04 14.63C475.77 16.97 466.5 18.5 457.68 19.13C455.61 19.31 454.08 21.02 454.35 23.09C454.53 25.16 456.33 26.69 458.4 26.51C461.73 26.24 465.24 25.88 468.75 25.43V27.59H453.99C452.01 27.59 450.39 29.3 450.39 31.19C450.39 33.17 452.01 34.79 453.99 34.79H468.75V37.22H459.93C456.69 37.22 453.99 39.92 453.99 43.16V58.46C453.99 61.7 456.69 64.4 459.93 64.4H468.75V67.46H457.23C455.25 67.46 453.63 68.99 453.63 70.97C453.63 72.86 455.25 74.48 457.23 74.48H468.75V80.15C463.26 81.05 457.86 81.68 453.72 81.95C451.74 82.04 450.21 83.75 450.3 85.73C450.39 87.71 452.1 89.24 454.08 89.06C465.42 88.07 478.83 86 488.1 83.48C490.08 82.94 491.25 80.78 490.8 78.8ZM468.75 47.21H461.37V44.24H468.75V47.21ZM483.87 47.21H475.95V44.24H483.87V47.21ZM461.37 54.32H468.75V57.29H461.37V54.32ZM475.95 54.32H483.87V57.29H475.95V54.32Z" fill="#42210C"/>
<path d="M545.52 15.8C543.45 15.8 541.74 17.51 541.74 19.58C541.74 21.65 543.45 23.36 545.52 23.36H575.22V32.81H564.15C560.82 32.81 558.21 35.51 558.21 38.75V69.44C558.21 72.68 560.91 75.38 564.15 75.38H593.85C597.18 75.38 599.79 72.68 599.79 69.44V38.75C599.79 35.42 597.09 32.81 593.85 32.81H582.78V23.36H612.48C614.55 23.36 616.26 21.65 616.26 19.58C616.26 17.51 614.55 15.8 612.48 15.8H545.52ZM610.86 31.55C608.79 31.55 606.99 33.26 606.99 35.42V83.57H551.01V35.42C551.01 33.26 549.21 31.55 547.14 31.55C545.07 31.55 543.27 33.26 543.27 35.42V85.1C543.27 88.34 545.97 91.04 549.21 91.04H608.79C612.03 91.04 614.73 88.34 614.73 85.1V35.42C614.73 33.26 612.93 31.55 610.86 31.55ZM575.22 49.82H565.68V40.01H575.22V49.82ZM592.32 49.82H582.78V40.01H592.32V49.82ZM575.22 57.02V68.18H565.68V57.02H575.22ZM582.78 57.02H592.32V68.18H582.78V57.02Z" fill="#42210C"/>
<path d="M691.05 77.9C664.68 80.96 658.02 80.6 656.31 76.28C654.96 72.23 659.37 67.55 670.08 61.88C670.35 64.31 670.44 66.92 670.53 69.89C670.62 72.05 672.42 73.85 674.58 73.85C676.83 73.85 678.54 72.05 678.54 69.89C678.36 64.67 678.09 60.98 677.64 58.01C684.39 54.68 688.35 52.52 694.56 48.47C696.45 47.21 696.9 44.69 695.64 42.89C694.47 41 691.95 40.55 690.15 41.81C684.66 45.68 679.89 48.47 675.48 50.72C672.87 46.13 667.92 43.07 660 44.42C661.44 42.08 662.79 39.56 663.96 36.77C669.63 35.6 675.3 34.07 680.07 32.09C682.05 31.28 682.95 28.94 682.14 26.87C681.33 24.89 679.17 23.99 677.19 24.89C674.04 26.15 670.71 27.32 667.29 28.22C668.01 26.06 668.73 23.9 669.36 21.56C669.9 19.4 668.64 17.24 666.39 16.7C664.23 16.16 662.07 17.51 661.53 19.67C660.54 23.45 659.55 26.96 658.38 30.11C653.52 30.83 648.66 31.28 644.25 31.46C642.09 31.55 640.29 33.26 640.29 35.51C640.29 37.76 642.09 39.47 644.34 39.38C647.22 39.2 650.73 38.93 654.6 38.39C651.81 43.34 648.66 47.21 644.88 50.09C643.08 51.44 642.63 53.87 643.8 55.58C644.97 57.56 647.49 58.1 649.29 56.75C649.92 56.3 650.46 55.85 651.09 55.31C659.64 50.54 665.76 50.27 668.37 54.41C651.54 63.32 645.78 70.43 648.57 78.98C650.46 84.74 656.31 87.53 666.21 87.53C677.55 87.53 686.91 86.81 691.86 86.36C694.2 86.18 696 84.02 695.73 81.68C695.55 79.34 693.39 77.63 691.05 77.9Z" fill="#42210C"/>
<path d="M796.53 79.43C794.82 78.17 792.48 78.44 790.95 80.06C787.44 83.84 785.46 83.57 779.16 83.57C770.88 83.57 769.98 83.12 769.98 79.07V67.73H778.53C781.77 67.73 784.47 65.12 784.47 61.79V20.75C784.47 17.51 781.77 14.81 778.53 14.81H739.47C736.23 14.81 733.53 17.51 733.53 20.75V61.79C733.53 65.12 736.23 67.73 739.47 67.73H747.66C744.78 76.19 736.59 81.59 723.54 83.48C721.38 83.84 719.85 85.73 720.03 87.89C720.3 90.14 722.28 91.67 724.44 91.4C742.17 88.7 752.61 80.87 755.76 67.73H762.15V80.06C762.15 89.42 768.36 91.04 779.16 91.04C788.7 91.04 792.66 89.69 797.07 84.83C798.51 83.21 798.24 80.78 796.53 79.43ZM776.55 29.93H741.45V22.55H776.55V29.93ZM741.45 45.05V37.58H776.55V45.05H741.45ZM776.55 52.7V60.08H741.45V52.7H776.55Z" fill="#42210C"/>
<path d="M875.19 75.38C869.43 72.05 859.71 67.37 853.68 66.11C853.5 60.62 853.05 52.7 852.51 44.69C859.35 43.97 866.82 42.53 871.68 41.18C873.84 40.55 875.19 38.3 874.74 36.05C874.29 33.98 872.13 32.72 869.97 33.26C865.56 34.52 858.36 35.96 851.88 36.77C851.34 30.11 850.8 23.9 850.17 19.76C849.9 17.6 847.83 16.07 845.67 16.43C843.51 16.7 842.07 18.68 842.34 20.84C843.96 33.8 845.4 58.19 845.67 64.22C821.55 60.17 817.32 74.84 822.81 81.41C833.61 94.19 853.86 89.33 853.86 74.48C861.06 76.82 867.9 80.42 872.04 82.76C873.84 83.84 876.27 83.12 877.08 81.14C877.98 78.98 877.17 76.55 875.19 75.38ZM830.64 77.63C824.7 72.95 834.6 69.44 845.94 72.41C846.48 82.67 836.4 82.22 830.64 77.63Z" fill="#42210C"/>
<path d="M950.79 26.69C952.59 27.95 955.02 27.41 956.19 25.52C957.36 23.45 956.73 20.75 954.75 19.58C948.27 15.71 938.37 12.92 929.1 13.55C926.85 13.64 925.05 15.71 925.05 18.05C925.05 20.21 926.85 21.83 929.1 21.74C937.47 21.02 944.22 22.55 950.79 26.69ZM930.63 90.14C937.11 88.25 942.78 85.64 947.37 82.31C964.29 70.34 966.09 51.8 960.24 41.99C952.59 29.39 930 31.1 917.76 45.14C916.23 47.03 916.59 49.82 918.39 51.26C920.01 52.79 922.53 52.61 924.06 50.9C934.32 39.2 951.51 38.03 954.12 48.47C956.91 58.91 952.41 75.11 928.56 82.13C926.4 82.76 925.14 85.01 925.59 87.17C926.22 89.42 928.47 90.77 930.63 90.14Z" fill="#42210C"/>
<path d="M1029 72.32C1030.98 72.32 1032.51 70.7 1032.51 68.81L1033.68 20.75C1033.77 18.14 1031.61 15.98 1029 15.98C1026.39 15.98 1024.23 18.14 1024.32 20.75L1025.49 68.81C1025.49 70.7 1027.02 72.32 1029 72.32ZM1029 89.06C1032.42 89.06 1035.21 86.27 1035.21 82.94C1035.21 79.52 1032.42 76.73 1029 76.73C1025.67 76.73 1022.79 79.52 1022.79 82.94C1022.79 86.36 1025.67 89.06 1029 89.06Z" fill="#42210C"/>
<path d="M66.18 34.61C68.25 34.52 69.96 32.81 69.87 30.65C69.87 28.49 68.07 26.78 65.91 26.87C60.33 27.05 52.77 27.5 44.94 28.04C44.85 24.71 44.67 21.83 44.58 19.58C44.49 17.42 42.6 15.8 40.44 15.98C38.28 16.16 36.75 17.96 36.84 20.12C36.93 22.37 37.11 25.25 37.2 28.58C27.03 29.3 17.22 30.11 11.55 30.38C9.48004 30.47 7.77004 32.27 7.95004 34.43C8.04004 36.59 9.84004 38.21 11.91 38.12C17.58 37.85 27.39 37.13 37.56 36.41C37.65 39.83 37.74 43.34 37.92 46.85C32.16 47.03 26.4 46.94 20.55 46.49C18.48 46.4 16.59 47.93 16.32 50.09C16.14 52.25 17.76 54.14 19.92 54.23C24.78 54.68 31.26 54.77 38.1 54.59C38.28 59 38.37 63.05 38.46 66.38C21.54 64.04 12.63 70.52 14.61 78.26C16.14 83.84 22.44 87.98 29.46 87.98C38.64 87.98 44.04 83.75 45.66 75.38C51.15 77.09 56.19 79.7 60.78 82.31C62.76 83.39 65.28 82.58 66.18 80.51C67.08 78.44 66.18 75.92 64.11 74.84C57.54 71.69 51.6 69.44 46.2 68C46.11 64.31 46.02 59.45 45.84 54.14C51.51 53.78 57.18 53.15 62.31 52.16C64.38 51.8 65.73 49.73 65.28 47.66C64.83 45.59 62.76 44.24 60.69 44.6C55.92 45.5 50.88 46.13 45.57 46.49C45.48 42.89 45.39 39.29 45.21 35.87C53.31 35.33 60.96 34.88 66.18 34.61ZM30.18 80.24C20.82 80.24 17.67 73.4 29.91 73.04C32.79 72.86 35.58 73.04 38.28 73.49C37.74 77.09 36.03 80.24 30.18 80.24Z" stroke="white" stroke-width="14" mask="url(#path-1-outside-1_492:879)"/>
<path d="M169.95 19.85C167.79 14.81 165.72 11.84 162.21 8.60001C161.13 7.61001 159.42 7.70001 158.34 8.78001C157.35 9.86001 157.35 11.48 158.43 12.47C161.31 15.26 163.38 18.32 164.82 22.1C165.36 23.54 166.98 24.26 168.42 23.63C169.77 23 170.49 21.29 169.95 19.85ZM155.01 12.2C153.84 11.12 151.95 11.21 150.96 12.38C149.88 13.55 150.06 15.35 151.23 16.34C154.11 18.95 155.91 21.56 157.35 25.43C157.89 26.96 159.51 27.68 160.95 26.96C162.39 26.33 163.2 24.62 162.57 23.18C160.59 18.59 158.25 15.17 155.01 12.2ZM159.42 27.68C152.76 26.6 145.38 26.78 137.82 27.32V19.58C137.82 17.51 136.11 15.71 133.95 15.71C131.79 15.71 130.08 17.42 130.08 19.58L130.17 27.95C119.46 28.85 108.66 29.84 99.3 28.49C97.14 28.13 95.25 29.57 95.07 31.64C94.89 33.89 96.33 35.87 98.49 36.23C107.22 37.67 118.74 36.68 130.17 35.78L130.26 44.15C120.9 38.93 110.73 46.22 111.99 57.56C113.07 67.19 125.94 72.32 132.69 63.77C132.24 73.13 124.32 79.97 113.52 80.15C111.27 80.24 109.47 81.95 109.38 84.11C109.38 86.45 111.18 88.25 113.43 88.16C137.1 87.17 144.66 65.39 137.82 50.09V35.24C145.2 34.7 152.31 34.61 158.43 35.42C160.59 35.78 162.48 34.34 162.75 32.27C163.02 30.11 161.49 28.04 159.42 27.68ZM119.73 57.56C117.3 50.18 125.76 45.86 129.99 52.07C129.9 63.41 121.17 61.79 119.73 57.56Z" stroke="white" stroke-width="14" mask="url(#path-1-outside-1_492:879)"/>
<path d="M250.59 75.83C246.63 73.04 241.59 70.61 236.19 68.81C236.19 61.61 235.74 52.43 235.11 43.79C239.52 43.52 243.48 43.16 246.72 42.89C248.79 42.62 250.41 40.73 250.32 38.66C250.14 36.5 248.34 34.97 246.18 35.15C242.76 35.51 238.8 35.78 234.48 36.05C233.94 29.93 233.31 24.44 232.68 20.66C232.32 18.5 230.25 17.06 228.18 17.42C226.11 17.69 224.67 19.67 225.03 21.74C225.66 25.43 226.2 30.65 226.74 36.41C219.27 36.77 211.53 36.95 204.6 36.86C202.44 36.86 200.64 38.57 200.64 40.73C200.64 42.89 202.35 44.69 204.51 44.69C212.07 44.69 219.99 44.51 227.37 44.15C227.91 51.98 228.36 60.08 228.36 66.74C215.85 64.31 203.97 66.11 203.25 75.92C202.71 82.85 209.82 88.16 219.54 88.16C228.54 88.16 234.21 84.02 235.65 76.55C239.25 77.99 242.67 79.88 245.91 82.22C247.71 83.39 250.14 83.12 251.4 81.41C252.66 79.52 252.39 77.09 250.59 75.83ZM196.05 18.5C193.98 17.87 191.73 18.95 191.1 21.02C185.61 39.65 185.25 64.76 190.38 84.83C190.92 86.99 192.99 88.16 195.15 87.53C197.13 86.9 198.3 84.74 197.76 82.67C192.09 60.71 194.79 36.77 198.57 23.45C199.11 21.38 198.03 19.22 196.05 18.5ZM219.54 80.33C209.91 80.33 207.03 73.04 219 73.4C222.15 73.49 225.12 73.76 228.09 74.39C227.55 78.71 225.21 80.33 219.54 80.33Z" stroke="white" stroke-width="14" mask="url(#path-1-outside-1_492:879)"/>
<path d="M332.58 39.92C335.55 39.92 338.07 37.49 338.07 34.43V18.68C338.07 15.62 335.55 13.19 332.58 13.19H303.51C300.45 13.19 298.02 15.62 298.02 18.68V34.43C298.02 37.4 300.45 39.92 303.51 39.92H332.58ZM273.81 23.45C277.59 24.53 281.55 26.15 284.7 27.77C286.59 28.76 289.02 27.86 289.65 25.79C290.37 23.54 289.29 21.02 287.22 20.12C283.71 18.59 279.39 16.97 275.34 15.8C273.27 15.17 271.2 16.52 270.75 18.68C270.3 20.75 271.65 22.91 273.81 23.45ZM330.42 23.27H305.67V19.94H330.42V23.27ZM305.67 29.93H330.42V33.26H305.67V29.93ZM272.73 44.06C276.24 45.14 279.57 46.67 282.27 48.11C284.25 49.28 286.68 48.38 287.4 46.31C288.12 43.97 287.13 41.45 284.97 40.46C281.64 38.84 277.59 37.22 274.17 36.23C272.01 35.6 269.85 36.95 269.49 39.2C269.13 41.36 270.57 43.43 272.73 44.06ZM340.05 60.17C343.02 60.17 345.54 57.74 345.54 54.68V47.66C345.54 44.69 343.11 42.17 340.05 42.17H296.76C293.7 42.17 291.27 44.6 291.27 47.66V54.68C291.27 57.65 293.7 60.17 296.76 60.17H340.05ZM306.93 48.65V53.69H298.74V48.65H306.93ZM314.4 48.65H321.69V53.69H314.4V48.65ZM329.16 53.69V48.65H337.98V53.69H329.16ZM285.96 55.22C283.8 54.68 281.73 56.03 281.19 58.1C278.76 68.27 274.8 78.71 270.39 86.99C269.4 88.88 270.39 91.22 272.46 91.76C274.8 92.39 277.14 91.31 278.22 89.24C282.63 80.33 286.95 67.91 288.93 60.08C289.47 57.92 288.12 55.76 285.96 55.22ZM345.18 83.75C338.88 83.03 332.76 81.59 327.09 79.43C331.59 76.37 335.28 72.68 338.07 68.63C339.69 66.29 337.8 63.05 334.92 63.05H295.23C293.07 63.05 291.45 64.85 291.45 66.83C291.45 68.9 293.07 70.61 295.23 70.61H308.19C307.38 70.79 306.57 71.15 305.94 71.69C304.41 73.04 304.5 75.56 306.12 76.82C307.47 77.81 308.82 78.8 310.26 79.7C304.05 81.95 296.94 83.39 289.11 83.93C287.04 84.11 285.51 85.91 285.69 87.98C285.87 90.14 287.67 91.76 289.83 91.67C300.36 91.04 310.35 88.43 318.81 84.38C327.18 88.25 336 90.5 343.83 91.4C345.99 91.67 347.97 90.14 348.42 87.98C348.78 86 347.34 84.02 345.18 83.75ZM311.79 71.42C311.16 70.97 310.53 70.7 309.81 70.61H326.01C323.85 72.5 321.51 74.21 318.81 75.74C316.38 74.48 314.04 73.04 311.79 71.42Z" stroke="white" stroke-width="14" mask="url(#path-1-outside-1_492:879)"/>
<path d="M365.52 15.8C363.45 15.8 361.74 17.51 361.74 19.58C361.74 21.65 363.45 23.36 365.52 23.36H395.22V32.81H384.15C380.82 32.81 378.21 35.51 378.21 38.75V69.44C378.21 72.68 380.91 75.38 384.15 75.38H413.85C417.18 75.38 419.79 72.68 419.79 69.44V38.75C419.79 35.42 417.09 32.81 413.85 32.81H402.78V23.36H432.48C434.55 23.36 436.26 21.65 436.26 19.58C436.26 17.51 434.55 15.8 432.48 15.8H365.52ZM430.86 31.55C428.79 31.55 426.99 33.26 426.99 35.42V83.57H371.01V35.42C371.01 33.26 369.21 31.55 367.14 31.55C365.07 31.55 363.27 33.26 363.27 35.42V85.1C363.27 88.34 365.97 91.04 369.21 91.04H428.79C432.03 91.04 434.73 88.34 434.73 85.1V35.42C434.73 33.26 432.93 31.55 430.86 31.55ZM395.22 49.82H385.68V40.01H395.22V49.82ZM412.32 49.82H402.78V40.01H412.32V49.82ZM395.22 57.02V68.18H385.68V57.02H395.22ZM402.78 57.02H412.32V68.18H402.78V57.02Z" stroke="white" stroke-width="14" mask="url(#path-1-outside-1_492:879)"/>
<path d="M511.68 31.73V16.34C511.68 14.27 509.97 12.47 507.81 12.47C505.65 12.47 503.94 14.27 503.94 16.34V31.73H496.56C494.49 31.73 492.69 33.44 492.69 35.6C492.69 37.67 494.4 39.47 496.56 39.47H503.85C503.22 55.04 499.62 73.67 488.37 84.02C486.75 85.55 486.39 87.98 487.56 89.69C488.82 91.58 491.34 92.03 492.96 90.59C501.33 83.39 510.51 66.56 511.59 39.47H518.25C518.16 54.95 517.8 69.62 517.44 73.67C516.72 81.77 516.45 83.3 509.79 83.3C507.63 83.3 505.92 85.1 505.92 87.17C506.01 89.42 507.81 91.22 509.97 91.22C520.5 91.04 524.37 86.72 525.27 74.3C525.63 69.44 526.08 53.15 526.17 37.67C526.17 34.34 523.56 31.73 520.23 31.73H511.68ZM490.8 78.8C490.26 76.91 488.28 75.74 486.3 76.37C483.24 77.27 479.73 78.17 475.95 78.89V74.48H486.93C488.82 74.48 490.44 72.95 490.44 70.97C490.44 69.08 488.91 67.46 486.93 67.46H475.95V64.4H485.4C488.64 64.4 491.34 61.7 491.34 58.46V43.16C491.34 39.83 488.64 37.22 485.4 37.22H475.95V34.79H490.17C492.06 34.79 493.77 33.26 493.77 31.19C493.77 29.3 492.15 27.59 490.17 27.59H475.95V24.26C479.55 23.63 483.24 22.82 486.84 21.83C488.82 21.29 489.99 19.22 489.54 17.24C489 15.26 487.02 14.09 485.04 14.63C475.77 16.97 466.5 18.5 457.68 19.13C455.61 19.31 454.08 21.02 454.35 23.09C454.53 25.16 456.33 26.69 458.4 26.51C461.73 26.24 465.24 25.88 468.75 25.43V27.59H453.99C452.01 27.59 450.39 29.3 450.39 31.19C450.39 33.17 452.01 34.79 453.99 34.79H468.75V37.22H459.93C456.69 37.22 453.99 39.92 453.99 43.16V58.46C453.99 61.7 456.69 64.4 459.93 64.4H468.75V67.46H457.23C455.25 67.46 453.63 68.99 453.63 70.97C453.63 72.86 455.25 74.48 457.23 74.48H468.75V80.15C463.26 81.05 457.86 81.68 453.72 81.95C451.74 82.04 450.21 83.75 450.3 85.73C450.39 87.71 452.1 89.24 454.08 89.06C465.42 88.07 478.83 86 488.1 83.48C490.08 82.94 491.25 80.78 490.8 78.8ZM468.75 47.21H461.37V44.24H468.75V47.21ZM483.87 47.21H475.95V44.24H483.87V47.21ZM461.37 54.32H468.75V57.29H461.37V54.32ZM475.95 54.32H483.87V57.29H475.95V54.32Z" stroke="white" stroke-width="14" mask="url(#path-1-outside-1_492:879)"/>
<path d="M545.52 15.8C543.45 15.8 541.74 17.51 541.74 19.58C541.74 21.65 543.45 23.36 545.52 23.36H575.22V32.81H564.15C560.82 32.81 558.21 35.51 558.21 38.75V69.44C558.21 72.68 560.91 75.38 564.15 75.38H593.85C597.18 75.38 599.79 72.68 599.79 69.44V38.75C599.79 35.42 597.09 32.81 593.85 32.81H582.78V23.36H612.48C614.55 23.36 616.26 21.65 616.26 19.58C616.26 17.51 614.55 15.8 612.48 15.8H545.52ZM610.86 31.55C608.79 31.55 606.99 33.26 606.99 35.42V83.57H551.01V35.42C551.01 33.26 549.21 31.55 547.14 31.55C545.07 31.55 543.27 33.26 543.27 35.42V85.1C543.27 88.34 545.97 91.04 549.21 91.04H608.79C612.03 91.04 614.73 88.34 614.73 85.1V35.42C614.73 33.26 612.93 31.55 610.86 31.55ZM575.22 49.82H565.68V40.01H575.22V49.82ZM592.32 49.82H582.78V40.01H592.32V49.82ZM575.22 57.02V68.18H565.68V57.02H575.22ZM582.78 57.02H592.32V68.18H582.78V57.02Z" stroke="white" stroke-width="14" mask="url(#path-1-outside-1_492:879)"/>
<path d="M691.05 77.9C664.68 80.96 658.02 80.6 656.31 76.28C654.96 72.23 659.37 67.55 670.08 61.88C670.35 64.31 670.44 66.92 670.53 69.89C670.62 72.05 672.42 73.85 674.58 73.85C676.83 73.85 678.54 72.05 678.54 69.89C678.36 64.67 678.09 60.98 677.64 58.01C684.39 54.68 688.35 52.52 694.56 48.47C696.45 47.21 696.9 44.69 695.64 42.89C694.47 41 691.95 40.55 690.15 41.81C684.66 45.68 679.89 48.47 675.48 50.72C672.87 46.13 667.92 43.07 660 44.42C661.44 42.08 662.79 39.56 663.96 36.77C669.63 35.6 675.3 34.07 680.07 32.09C682.05 31.28 682.95 28.94 682.14 26.87C681.33 24.89 679.17 23.99 677.19 24.89C674.04 26.15 670.71 27.32 667.29 28.22C668.01 26.06 668.73 23.9 669.36 21.56C669.9 19.4 668.64 17.24 666.39 16.7C664.23 16.16 662.07 17.51 661.53 19.67C660.54 23.45 659.55 26.96 658.38 30.11C653.52 30.83 648.66 31.28 644.25 31.46C642.09 31.55 640.29 33.26 640.29 35.51C640.29 37.76 642.09 39.47 644.34 39.38C647.22 39.2 650.73 38.93 654.6 38.39C651.81 43.34 648.66 47.21 644.88 50.09C643.08 51.44 642.63 53.87 643.8 55.58C644.97 57.56 647.49 58.1 649.29 56.75C649.92 56.3 650.46 55.85 651.09 55.31C659.64 50.54 665.76 50.27 668.37 54.41C651.54 63.32 645.78 70.43 648.57 78.98C650.46 84.74 656.31 87.53 666.21 87.53C677.55 87.53 686.91 86.81 691.86 86.36C694.2 86.18 696 84.02 695.73 81.68C695.55 79.34 693.39 77.63 691.05 77.9Z" stroke="white" stroke-width="14" mask="url(#path-1-outside-1_492:879)"/>
<path d="M796.53 79.43C794.82 78.17 792.48 78.44 790.95 80.06C787.44 83.84 785.46 83.57 779.16 83.57C770.88 83.57 769.98 83.12 769.98 79.07V67.73H778.53C781.77 67.73 784.47 65.12 784.47 61.79V20.75C784.47 17.51 781.77 14.81 778.53 14.81H739.47C736.23 14.81 733.53 17.51 733.53 20.75V61.79C733.53 65.12 736.23 67.73 739.47 67.73H747.66C744.78 76.19 736.59 81.59 723.54 83.48C721.38 83.84 719.85 85.73 720.03 87.89C720.3 90.14 722.28 91.67 724.44 91.4C742.17 88.7 752.61 80.87 755.76 67.73H762.15V80.06C762.15 89.42 768.36 91.04 779.16 91.04C788.7 91.04 792.66 89.69 797.07 84.83C798.51 83.21 798.24 80.78 796.53 79.43ZM776.55 29.93H741.45V22.55H776.55V29.93ZM741.45 45.05V37.58H776.55V45.05H741.45ZM776.55 52.7V60.08H741.45V52.7H776.55Z" stroke="white" stroke-width="14" mask="url(#path-1-outside-1_492:879)"/>
<path d="M875.19 75.38C869.43 72.05 859.71 67.37 853.68 66.11C853.5 60.62 853.05 52.7 852.51 44.69C859.35 43.97 866.82 42.53 871.68 41.18C873.84 40.55 875.19 38.3 874.74 36.05C874.29 33.98 872.13 32.72 869.97 33.26C865.56 34.52 858.36 35.96 851.88 36.77C851.34 30.11 850.8 23.9 850.17 19.76C849.9 17.6 847.83 16.07 845.67 16.43C843.51 16.7 842.07 18.68 842.34 20.84C843.96 33.8 845.4 58.19 845.67 64.22C821.55 60.17 817.32 74.84 822.81 81.41C833.61 94.19 853.86 89.33 853.86 74.48C861.06 76.82 867.9 80.42 872.04 82.76C873.84 83.84 876.27 83.12 877.08 81.14C877.98 78.98 877.17 76.55 875.19 75.38ZM830.64 77.63C824.7 72.95 834.6 69.44 845.94 72.41C846.48 82.67 836.4 82.22 830.64 77.63Z" stroke="white" stroke-width="14" mask="url(#path-1-outside-1_492:879)"/>
<path d="M950.79 26.69C952.59 27.95 955.02 27.41 956.19 25.52C957.36 23.45 956.73 20.75 954.75 19.58C948.27 15.71 938.37 12.92 929.1 13.55C926.85 13.64 925.05 15.71 925.05 18.05C925.05 20.21 926.85 21.83 929.1 21.74C937.47 21.02 944.22 22.55 950.79 26.69ZM930.63 90.14C937.11 88.25 942.78 85.64 947.37 82.31C964.29 70.34 966.09 51.8 960.24 41.99C952.59 29.39 930 31.1 917.76 45.14C916.23 47.03 916.59 49.82 918.39 51.26C920.01 52.79 922.53 52.61 924.06 50.9C934.32 39.2 951.51 38.03 954.12 48.47C956.91 58.91 952.41 75.11 928.56 82.13C926.4 82.76 925.14 85.01 925.59 87.17C926.22 89.42 928.47 90.77 930.63 90.14Z" stroke="white" stroke-width="14" mask="url(#path-1-outside-1_492:879)"/>
<path d="M1029 72.32C1030.98 72.32 1032.51 70.7 1032.51 68.81L1033.68 20.75C1033.77 18.14 1031.61 15.98 1029 15.98C1026.39 15.98 1024.23 18.14 1024.32 20.75L1025.49 68.81C1025.49 70.7 1027.02 72.32 1029 72.32ZM1029 89.06C1032.42 89.06 1035.21 86.27 1035.21 82.94C1035.21 79.52 1032.42 76.73 1029 76.73C1025.67 76.73 1022.79 79.52 1022.79 82.94C1022.79 86.36 1025.67 89.06 1029 89.06Z" stroke="white" stroke-width="14" mask="url(#path-1-outside-1_492:879)"/>
</svg>
