<svg width="993" height="82" viewBox="0 0 993 82" fill="none" xmlns="http://www.w3.org/2000/svg">
<mask id="path-1-outside-1_488:873" maskUnits="userSpaceOnUse" x="0.120117" y="-0.279297" width="993" height="82" fill="black">
<rect fill="white" x="0.120117" y="-0.279297" width="993" height="82"/>
<path d="M39.6441 47.614C33.5761 41.25 24.4741 35.552 14.8541 34.368V17.2C14.8541 15.35 13.3001 13.796 11.4501 13.796C9.67412 13.796 8.12012 15.35 8.12012 17.2V67.372C8.12012 69.222 9.67412 70.702 11.4501 70.702C13.3741 70.702 14.8541 69.148 14.8541 67.372V40.88C22.6981 42.212 28.9881 45.838 35.2041 52.572C36.4621 53.904 38.5341 53.904 39.6441 52.572C40.9021 51.092 40.9021 48.946 39.6441 47.614Z"/>
<path d="M112.608 44.876C114.384 44.876 115.864 43.47 115.864 41.62C115.864 39.844 114.384 38.364 112.608 38.364H66.4321C64.6561 38.364 63.1761 39.77 63.1761 41.62C63.1761 43.396 64.6561 44.876 66.4321 44.876H112.608Z"/>
<path d="M154.344 29.854C155.824 30.742 157.748 30.298 158.488 28.744C159.376 27.116 158.858 25.044 157.378 24.082C153.308 21.492 148.202 19.716 143.392 19.198C141.616 18.976 140.062 20.308 139.766 22.158C139.544 23.786 140.802 25.34 142.504 25.636C146.796 26.228 150.94 27.634 154.344 29.854ZM144.502 69.74C161.522 65.374 179.356 51.388 187.274 38.956C188.31 37.328 187.94 35.182 186.312 33.924C184.832 32.814 182.76 33.184 181.724 34.812C172.178 49.538 155.01 59.602 142.578 63.006C140.728 63.524 139.692 65.374 140.21 67.15C140.728 69 142.652 70.184 144.502 69.74ZM150.052 45.912C151.68 46.578 153.604 45.912 154.27 44.358C155.01 42.582 154.344 40.584 152.642 39.844C148.794 38.142 143.466 36.958 138.952 36.736C137.102 36.662 135.622 38.216 135.548 40.066C135.474 41.768 136.88 43.248 138.656 43.322C142.208 43.544 146.722 44.506 150.052 45.912Z"/>
<path d="M229.824 36.44C231.23 34.886 231.156 32.518 229.676 31.26C225.976 28.078 219.612 24.6 213.1 23.712C211.176 23.49 209.474 24.896 209.252 26.894C209.03 28.744 210.362 30.372 212.212 30.668C217.244 31.482 221.684 33.48 224.94 36.44C226.346 37.772 228.566 37.772 229.824 36.44ZM213.174 67.446C231.896 63.45 251.062 50.204 261.94 35.774C263.124 34.22 262.754 32 261.274 30.742C259.72 29.558 257.574 29.854 256.39 31.408C243.81 48.28 225.384 57.456 212.286 60.564C210.362 61.008 209.104 62.784 209.326 64.634C209.548 66.484 211.324 67.816 213.174 67.446Z"/>
<path d="M326.838 28.3C331.426 28.3 335.126 24.526 335.126 20.012C335.126 15.498 331.426 11.724 326.838 11.724C322.324 11.724 318.55 15.424 318.55 20.012C318.55 24.526 322.25 28.3 326.838 28.3ZM326.838 24.452C324.322 24.452 322.398 22.454 322.398 20.012C322.398 17.496 324.396 15.572 326.838 15.572C329.354 15.572 331.278 17.57 331.278 20.012C331.278 22.454 329.354 24.452 326.838 24.452ZM333.202 61.896C335.052 61.526 336.384 59.75 336.088 57.9C333.424 42.656 322.25 34.22 317.07 27.486C315.886 26.006 313.814 25.636 312.334 26.598C310.706 27.634 310.336 29.78 311.446 31.186C316.922 38.216 327.208 45.986 329.428 59.084C329.724 61.008 331.426 62.192 333.202 61.896ZM282.29 60.86C292.798 51.906 297.386 42.952 300.42 32.74C300.938 30.89 299.902 29.04 298.126 28.448C296.35 27.93 294.426 28.966 293.908 30.742C291.614 38.216 288.284 46.948 278.146 55.532C276.74 56.716 276.444 58.862 277.554 60.342C278.738 61.822 280.884 62.044 282.29 60.86Z"/>
<path d="M402.688 44.876C404.464 44.876 405.944 43.47 405.944 41.62C405.944 39.844 404.464 38.364 402.688 38.364H356.512C354.736 38.364 353.256 39.77 353.256 41.62C353.256 43.396 354.736 44.876 356.512 44.876H402.688Z"/>
<path d="M474.764 47.614C468.696 41.25 459.594 35.552 449.974 34.368V17.2C449.974 15.35 448.42 13.796 446.57 13.796C444.794 13.796 443.24 15.35 443.24 17.2V67.372C443.24 69.222 444.794 70.702 446.57 70.702C448.494 70.702 449.974 69.148 449.974 67.372V40.88C457.818 42.212 464.108 45.838 470.324 52.572C471.582 53.904 473.654 53.904 474.764 52.572C476.022 51.092 476.022 48.946 474.764 47.614Z"/>
<path d="M548.098 28.966C544.102 28.966 538.552 29.114 531.522 29.262C531.522 24.674 531.226 20.086 530.93 15.572C530.782 13.722 529.154 12.316 527.378 12.464C525.528 12.686 524.122 14.314 524.27 16.09C524.64 20.974 524.862 25.414 524.862 29.41L501.108 30.15C499.258 30.224 497.852 31.778 497.926 33.554C497.926 35.404 499.48 36.81 501.33 36.736C510.21 36.44 517.98 36.218 524.714 36.07C523.752 52.572 518.498 60.564 507.324 64.19C505.548 64.708 504.512 66.558 504.956 68.334C505.474 70.11 507.324 71.146 509.1 70.628C525.898 65.3 530.634 51.388 531.374 35.848C538.478 35.7 544.102 35.552 548.098 35.552C549.874 35.552 551.354 34.072 551.354 32.296C551.428 30.446 549.948 28.966 548.098 28.966Z"/>
<path d="M620.248 44.876C622.024 44.876 623.504 43.47 623.504 41.62C623.504 39.844 622.024 38.364 620.248 38.364H574.072C572.296 38.364 570.816 39.77 570.816 41.62C570.816 43.396 572.296 44.876 574.072 44.876H620.248Z"/>
<path d="M699.206 18.014C697.43 15.35 695.21 12.39 692.99 10.244C692.102 9.282 690.622 9.282 689.586 10.244C688.698 11.058 688.772 12.538 689.66 13.426C691.436 15.35 693.73 18.162 695.284 20.53C696.024 21.64 697.43 22.01 698.466 21.27C699.576 20.53 699.946 19.05 699.206 18.014ZM683.888 16.534C685.738 18.458 688.106 21.344 689.66 23.786C690.4 24.822 691.88 25.192 692.916 24.526C694.026 23.786 694.396 22.232 693.656 21.196C691.88 18.532 689.512 15.35 687.218 13.13C686.256 12.242 684.702 12.242 683.814 13.204C682.926 14.092 682.926 15.646 683.888 16.534ZM676.488 47.762C680.114 43.47 682.704 39.474 684.406 36.07C689.586 25.562 684.702 17.792 674.046 19.642C669.236 20.53 659.32 21.344 649.478 21.122C647.702 21.122 646.148 22.528 646.148 24.304C646.074 26.154 647.48 27.634 649.256 27.634C658.876 27.708 669.976 26.894 675.008 26.08C680.262 25.266 681.224 27.264 678.486 33.11C674.86 40.51 663.538 54.94 644.372 63.376C642.596 64.116 641.708 66.04 642.226 67.89C642.818 69.666 644.816 70.554 646.518 69.74C656.952 65.078 665.24 59.084 671.53 53.016C678.708 55.828 686.478 62.192 691.288 69.148C692.472 70.628 694.47 70.924 695.876 69.814C697.356 68.556 697.726 66.41 696.616 64.856C692.028 58.566 684.11 51.462 676.488 47.762Z"/>
<path d="M761.662 62.71C755.742 64.338 747.824 63.968 742.718 57.308C735.614 48.058 741.534 34.146 755.89 25.118C759.072 24.378 762.032 23.49 764.844 22.454C766.546 21.788 767.36 19.864 766.694 18.162C765.954 16.534 764.104 15.72 762.402 16.312C750.192 20.752 735.836 22.306 719.778 21.048C718.002 20.9 716.374 22.232 716.152 24.008C716.004 25.858 717.336 27.486 719.112 27.56C727.844 28.3 736.428 28.152 744.42 27.19C731.322 39.03 731.84 53.164 736.946 60.49C742.348 68.334 752.782 71.886 762.994 69.296C764.844 68.852 765.954 66.928 765.584 65.004C765.214 63.228 763.438 62.192 761.662 62.71ZM774.39 35.922C772.688 31.852 770.986 29.336 768.1 26.746C767.212 25.932 765.806 26.006 764.918 26.82C764.104 27.708 764.104 29.04 764.992 29.928C767.36 32.148 769.062 34.664 770.246 37.772C770.69 38.956 772.022 39.548 773.206 39.03C774.316 38.512 774.908 37.18 774.39 35.922ZM762.18 29.632C761.218 28.744 759.664 28.892 758.85 29.854C757.962 30.742 758.11 32.222 759.072 33.036C761.44 35.182 762.92 37.402 764.104 40.51C764.548 41.768 765.88 42.36 767.064 41.842C768.248 41.324 768.914 39.918 768.396 38.66C766.768 34.886 764.844 32.074 762.18 29.632Z"/>
<path d="M846.614 39.474C845.356 34.59 842.618 27.042 840.546 22.38C839.806 20.678 837.734 19.79 835.884 20.456C834.256 20.974 833.442 22.972 834.33 24.6C835.366 26.598 836.402 28.892 837.216 31.186C832.036 32.74 824.488 33.924 817.606 34.516C821.38 30.742 826.264 23.416 828.114 12.464C828.484 10.688 827.226 9.06 825.376 8.764C823.674 8.468 822.046 9.726 821.75 11.428C820.566 17.866 817.532 26.376 810.428 32.888C807.024 35.996 808.356 41.398 812.5 41.176C822.268 40.584 832.258 39.178 839.14 37.032C839.584 38.438 839.954 39.77 840.25 41.028C840.694 42.73 842.396 43.84 844.098 43.396C845.948 42.952 847.058 41.25 846.614 39.474ZM808.504 57.308C807.098 56.198 805.396 55.014 803.472 53.83C806.58 46.874 808.356 38.364 808.874 28.3C809.022 25.636 806.802 23.416 804.138 23.416H796.96C797.33 19.42 797.404 15.646 797.478 12.316C797.552 10.54 796.146 9.134 794.444 9.134C792.668 9.208 791.262 10.614 791.262 12.316C791.188 16.164 791.04 19.864 790.744 23.416H786.082C784.454 23.416 783.048 24.748 783.048 26.45C783.048 28.152 784.454 29.558 786.082 29.558H790.078C789.19 36.144 787.71 42.286 785.12 47.762C784.084 50.056 785.268 52.646 787.636 53.386C790.078 54.126 792.594 55.088 794.962 56.272C792.372 60.12 788.968 63.598 784.454 66.484C782.974 67.52 782.382 69.37 783.196 70.924C783.936 72.552 785.934 73.144 787.414 72.256C792.816 69 797.182 64.708 800.512 59.38C802.362 60.564 804.064 61.822 805.47 63.08C806.802 64.19 808.8 63.82 809.54 62.34C810.354 60.564 809.984 58.418 808.504 57.308ZM791.78 48.206C794.148 42.73 795.554 36.07 796.368 29.558H802.51C802.066 36.884 800.956 44.21 797.996 50.796C795.776 49.686 793.556 48.798 791.78 48.206ZM817.088 43.692C814.424 43.692 812.204 45.912 812.204 48.576V68.186C812.204 70.924 814.424 73.07 817.088 73.07H838.03C840.768 73.07 842.914 70.85 842.914 68.186V48.576C842.914 45.838 840.694 43.692 838.03 43.692H817.088ZM818.568 66.854V49.908H836.55V66.854H818.568Z"/>
<path d="M896.49 25.784C897.526 22.676 898.34 19.864 898.932 17.644C899.376 15.868 898.34 14.166 896.638 13.722C894.862 13.278 893.16 14.388 892.716 16.09C891.828 19.272 890.792 22.602 889.682 25.71C884.28 26.45 879.544 28.152 875.622 30.52C875.03 27.042 874.808 23.786 874.734 21.048C874.734 19.346 873.254 17.866 871.552 17.866C869.702 17.866 868.296 19.272 868.296 21.122C868.444 25.858 868.962 30.446 869.85 34.738C857.566 46.06 856.9 63.672 867.852 65.67C877.916 67.52 890.866 41.62 894.27 32C913.214 32.37 914.472 59.306 891.014 61.082C889.164 61.23 887.758 62.784 887.906 64.634C888.054 66.484 889.682 67.89 891.532 67.668C924.166 63.82 919.504 27.634 896.49 25.784ZM880.506 46.06C878.952 43.1 877.842 39.992 877.028 36.884C879.988 34.886 883.392 33.406 887.018 32.666C884.724 38.068 882.504 42.508 880.506 46.06ZM866.964 49.094C867.778 46.578 869.406 43.914 871.626 41.472C872.884 45.542 874.586 49.242 876.51 52.424C868.296 64.042 864.004 59.676 866.964 49.094Z"/>
<path d="M958.724 70.924C975.818 70.924 987.436 59.306 983.366 46.356C980.332 36.514 967.086 32 950.584 40.51C955.616 33.406 960.574 27.634 967.308 21.64C968.714 20.382 969.158 18.384 968.418 16.682C967.678 15.054 965.754 14.24 964.052 14.832C958.058 16.83 951.842 17.052 944.368 16.608C942.592 16.534 941.038 17.866 940.89 19.642C940.816 21.492 942.148 23.046 943.924 23.12C948.734 23.342 954.358 23.12 958.058 22.454C950.806 29.928 943.702 39.474 937.19 49.242C936.376 50.5 936.746 52.202 938.004 53.016C939.262 53.83 940.964 53.682 942.148 52.72C951.472 44.358 959.464 41.028 967.974 41.99C977.298 43.1 979.814 51.462 975.892 57.16C973.894 59.972 970.712 62.266 966.79 63.598C957.54 52.424 950.732 50.13 946.736 57.234C944.146 61.748 945.404 70.924 958.724 70.924ZM960.648 64.856C956.06 65.078 952.508 63.894 951.62 61.748C950.88 59.454 953.248 56.124 960.648 64.856Z"/>
</mask>
<path d="M39.6441 47.614C33.5761 41.25 24.4741 35.552 14.8541 34.368V17.2C14.8541 15.35 13.3001 13.796 11.4501 13.796C9.67412 13.796 8.12012 15.35 8.12012 17.2V67.372C8.12012 69.222 9.67412 70.702 11.4501 70.702C13.3741 70.702 14.8541 69.148 14.8541 67.372V40.88C22.6981 42.212 28.9881 45.838 35.2041 52.572C36.4621 53.904 38.5341 53.904 39.6441 52.572C40.9021 51.092 40.9021 48.946 39.6441 47.614Z" fill="#42210C"/>
<path d="M112.608 44.876C114.384 44.876 115.864 43.47 115.864 41.62C115.864 39.844 114.384 38.364 112.608 38.364H66.4321C64.6561 38.364 63.1761 39.77 63.1761 41.62C63.1761 43.396 64.6561 44.876 66.4321 44.876H112.608Z" fill="#42210C"/>
<path d="M154.344 29.854C155.824 30.742 157.748 30.298 158.488 28.744C159.376 27.116 158.858 25.044 157.378 24.082C153.308 21.492 148.202 19.716 143.392 19.198C141.616 18.976 140.062 20.308 139.766 22.158C139.544 23.786 140.802 25.34 142.504 25.636C146.796 26.228 150.94 27.634 154.344 29.854ZM144.502 69.74C161.522 65.374 179.356 51.388 187.274 38.956C188.31 37.328 187.94 35.182 186.312 33.924C184.832 32.814 182.76 33.184 181.724 34.812C172.178 49.538 155.01 59.602 142.578 63.006C140.728 63.524 139.692 65.374 140.21 67.15C140.728 69 142.652 70.184 144.502 69.74ZM150.052 45.912C151.68 46.578 153.604 45.912 154.27 44.358C155.01 42.582 154.344 40.584 152.642 39.844C148.794 38.142 143.466 36.958 138.952 36.736C137.102 36.662 135.622 38.216 135.548 40.066C135.474 41.768 136.88 43.248 138.656 43.322C142.208 43.544 146.722 44.506 150.052 45.912Z" fill="#42210C"/>
<path d="M229.824 36.44C231.23 34.886 231.156 32.518 229.676 31.26C225.976 28.078 219.612 24.6 213.1 23.712C211.176 23.49 209.474 24.896 209.252 26.894C209.03 28.744 210.362 30.372 212.212 30.668C217.244 31.482 221.684 33.48 224.94 36.44C226.346 37.772 228.566 37.772 229.824 36.44ZM213.174 67.446C231.896 63.45 251.062 50.204 261.94 35.774C263.124 34.22 262.754 32 261.274 30.742C259.72 29.558 257.574 29.854 256.39 31.408C243.81 48.28 225.384 57.456 212.286 60.564C210.362 61.008 209.104 62.784 209.326 64.634C209.548 66.484 211.324 67.816 213.174 67.446Z" fill="#42210C"/>
<path d="M326.838 28.3C331.426 28.3 335.126 24.526 335.126 20.012C335.126 15.498 331.426 11.724 326.838 11.724C322.324 11.724 318.55 15.424 318.55 20.012C318.55 24.526 322.25 28.3 326.838 28.3ZM326.838 24.452C324.322 24.452 322.398 22.454 322.398 20.012C322.398 17.496 324.396 15.572 326.838 15.572C329.354 15.572 331.278 17.57 331.278 20.012C331.278 22.454 329.354 24.452 326.838 24.452ZM333.202 61.896C335.052 61.526 336.384 59.75 336.088 57.9C333.424 42.656 322.25 34.22 317.07 27.486C315.886 26.006 313.814 25.636 312.334 26.598C310.706 27.634 310.336 29.78 311.446 31.186C316.922 38.216 327.208 45.986 329.428 59.084C329.724 61.008 331.426 62.192 333.202 61.896ZM282.29 60.86C292.798 51.906 297.386 42.952 300.42 32.74C300.938 30.89 299.902 29.04 298.126 28.448C296.35 27.93 294.426 28.966 293.908 30.742C291.614 38.216 288.284 46.948 278.146 55.532C276.74 56.716 276.444 58.862 277.554 60.342C278.738 61.822 280.884 62.044 282.29 60.86Z" fill="#42210C"/>
<path d="M402.688 44.876C404.464 44.876 405.944 43.47 405.944 41.62C405.944 39.844 404.464 38.364 402.688 38.364H356.512C354.736 38.364 353.256 39.77 353.256 41.62C353.256 43.396 354.736 44.876 356.512 44.876H402.688Z" fill="#42210C"/>
<path d="M474.764 47.614C468.696 41.25 459.594 35.552 449.974 34.368V17.2C449.974 15.35 448.42 13.796 446.57 13.796C444.794 13.796 443.24 15.35 443.24 17.2V67.372C443.24 69.222 444.794 70.702 446.57 70.702C448.494 70.702 449.974 69.148 449.974 67.372V40.88C457.818 42.212 464.108 45.838 470.324 52.572C471.582 53.904 473.654 53.904 474.764 52.572C476.022 51.092 476.022 48.946 474.764 47.614Z" fill="#42210C"/>
<path d="M548.098 28.966C544.102 28.966 538.552 29.114 531.522 29.262C531.522 24.674 531.226 20.086 530.93 15.572C530.782 13.722 529.154 12.316 527.378 12.464C525.528 12.686 524.122 14.314 524.27 16.09C524.64 20.974 524.862 25.414 524.862 29.41L501.108 30.15C499.258 30.224 497.852 31.778 497.926 33.554C497.926 35.404 499.48 36.81 501.33 36.736C510.21 36.44 517.98 36.218 524.714 36.07C523.752 52.572 518.498 60.564 507.324 64.19C505.548 64.708 504.512 66.558 504.956 68.334C505.474 70.11 507.324 71.146 509.1 70.628C525.898 65.3 530.634 51.388 531.374 35.848C538.478 35.7 544.102 35.552 548.098 35.552C549.874 35.552 551.354 34.072 551.354 32.296C551.428 30.446 549.948 28.966 548.098 28.966Z" fill="#42210C"/>
<path d="M620.248 44.876C622.024 44.876 623.504 43.47 623.504 41.62C623.504 39.844 622.024 38.364 620.248 38.364H574.072C572.296 38.364 570.816 39.77 570.816 41.62C570.816 43.396 572.296 44.876 574.072 44.876H620.248Z" fill="#42210C"/>
<path d="M699.206 18.014C697.43 15.35 695.21 12.39 692.99 10.244C692.102 9.282 690.622 9.282 689.586 10.244C688.698 11.058 688.772 12.538 689.66 13.426C691.436 15.35 693.73 18.162 695.284 20.53C696.024 21.64 697.43 22.01 698.466 21.27C699.576 20.53 699.946 19.05 699.206 18.014ZM683.888 16.534C685.738 18.458 688.106 21.344 689.66 23.786C690.4 24.822 691.88 25.192 692.916 24.526C694.026 23.786 694.396 22.232 693.656 21.196C691.88 18.532 689.512 15.35 687.218 13.13C686.256 12.242 684.702 12.242 683.814 13.204C682.926 14.092 682.926 15.646 683.888 16.534ZM676.488 47.762C680.114 43.47 682.704 39.474 684.406 36.07C689.586 25.562 684.702 17.792 674.046 19.642C669.236 20.53 659.32 21.344 649.478 21.122C647.702 21.122 646.148 22.528 646.148 24.304C646.074 26.154 647.48 27.634 649.256 27.634C658.876 27.708 669.976 26.894 675.008 26.08C680.262 25.266 681.224 27.264 678.486 33.11C674.86 40.51 663.538 54.94 644.372 63.376C642.596 64.116 641.708 66.04 642.226 67.89C642.818 69.666 644.816 70.554 646.518 69.74C656.952 65.078 665.24 59.084 671.53 53.016C678.708 55.828 686.478 62.192 691.288 69.148C692.472 70.628 694.47 70.924 695.876 69.814C697.356 68.556 697.726 66.41 696.616 64.856C692.028 58.566 684.11 51.462 676.488 47.762Z" fill="#42210C"/>
<path d="M761.662 62.71C755.742 64.338 747.824 63.968 742.718 57.308C735.614 48.058 741.534 34.146 755.89 25.118C759.072 24.378 762.032 23.49 764.844 22.454C766.546 21.788 767.36 19.864 766.694 18.162C765.954 16.534 764.104 15.72 762.402 16.312C750.192 20.752 735.836 22.306 719.778 21.048C718.002 20.9 716.374 22.232 716.152 24.008C716.004 25.858 717.336 27.486 719.112 27.56C727.844 28.3 736.428 28.152 744.42 27.19C731.322 39.03 731.84 53.164 736.946 60.49C742.348 68.334 752.782 71.886 762.994 69.296C764.844 68.852 765.954 66.928 765.584 65.004C765.214 63.228 763.438 62.192 761.662 62.71ZM774.39 35.922C772.688 31.852 770.986 29.336 768.1 26.746C767.212 25.932 765.806 26.006 764.918 26.82C764.104 27.708 764.104 29.04 764.992 29.928C767.36 32.148 769.062 34.664 770.246 37.772C770.69 38.956 772.022 39.548 773.206 39.03C774.316 38.512 774.908 37.18 774.39 35.922ZM762.18 29.632C761.218 28.744 759.664 28.892 758.85 29.854C757.962 30.742 758.11 32.222 759.072 33.036C761.44 35.182 762.92 37.402 764.104 40.51C764.548 41.768 765.88 42.36 767.064 41.842C768.248 41.324 768.914 39.918 768.396 38.66C766.768 34.886 764.844 32.074 762.18 29.632Z" fill="#42210C"/>
<path d="M846.614 39.474C845.356 34.59 842.618 27.042 840.546 22.38C839.806 20.678 837.734 19.79 835.884 20.456C834.256 20.974 833.442 22.972 834.33 24.6C835.366 26.598 836.402 28.892 837.216 31.186C832.036 32.74 824.488 33.924 817.606 34.516C821.38 30.742 826.264 23.416 828.114 12.464C828.484 10.688 827.226 9.06 825.376 8.764C823.674 8.468 822.046 9.726 821.75 11.428C820.566 17.866 817.532 26.376 810.428 32.888C807.024 35.996 808.356 41.398 812.5 41.176C822.268 40.584 832.258 39.178 839.14 37.032C839.584 38.438 839.954 39.77 840.25 41.028C840.694 42.73 842.396 43.84 844.098 43.396C845.948 42.952 847.058 41.25 846.614 39.474ZM808.504 57.308C807.098 56.198 805.396 55.014 803.472 53.83C806.58 46.874 808.356 38.364 808.874 28.3C809.022 25.636 806.802 23.416 804.138 23.416H796.96C797.33 19.42 797.404 15.646 797.478 12.316C797.552 10.54 796.146 9.134 794.444 9.134C792.668 9.208 791.262 10.614 791.262 12.316C791.188 16.164 791.04 19.864 790.744 23.416H786.082C784.454 23.416 783.048 24.748 783.048 26.45C783.048 28.152 784.454 29.558 786.082 29.558H790.078C789.19 36.144 787.71 42.286 785.12 47.762C784.084 50.056 785.268 52.646 787.636 53.386C790.078 54.126 792.594 55.088 794.962 56.272C792.372 60.12 788.968 63.598 784.454 66.484C782.974 67.52 782.382 69.37 783.196 70.924C783.936 72.552 785.934 73.144 787.414 72.256C792.816 69 797.182 64.708 800.512 59.38C802.362 60.564 804.064 61.822 805.47 63.08C806.802 64.19 808.8 63.82 809.54 62.34C810.354 60.564 809.984 58.418 808.504 57.308ZM791.78 48.206C794.148 42.73 795.554 36.07 796.368 29.558H802.51C802.066 36.884 800.956 44.21 797.996 50.796C795.776 49.686 793.556 48.798 791.78 48.206ZM817.088 43.692C814.424 43.692 812.204 45.912 812.204 48.576V68.186C812.204 70.924 814.424 73.07 817.088 73.07H838.03C840.768 73.07 842.914 70.85 842.914 68.186V48.576C842.914 45.838 840.694 43.692 838.03 43.692H817.088ZM818.568 66.854V49.908H836.55V66.854H818.568Z" fill="#42210C"/>
<path d="M896.49 25.784C897.526 22.676 898.34 19.864 898.932 17.644C899.376 15.868 898.34 14.166 896.638 13.722C894.862 13.278 893.16 14.388 892.716 16.09C891.828 19.272 890.792 22.602 889.682 25.71C884.28 26.45 879.544 28.152 875.622 30.52C875.03 27.042 874.808 23.786 874.734 21.048C874.734 19.346 873.254 17.866 871.552 17.866C869.702 17.866 868.296 19.272 868.296 21.122C868.444 25.858 868.962 30.446 869.85 34.738C857.566 46.06 856.9 63.672 867.852 65.67C877.916 67.52 890.866 41.62 894.27 32C913.214 32.37 914.472 59.306 891.014 61.082C889.164 61.23 887.758 62.784 887.906 64.634C888.054 66.484 889.682 67.89 891.532 67.668C924.166 63.82 919.504 27.634 896.49 25.784ZM880.506 46.06C878.952 43.1 877.842 39.992 877.028 36.884C879.988 34.886 883.392 33.406 887.018 32.666C884.724 38.068 882.504 42.508 880.506 46.06ZM866.964 49.094C867.778 46.578 869.406 43.914 871.626 41.472C872.884 45.542 874.586 49.242 876.51 52.424C868.296 64.042 864.004 59.676 866.964 49.094Z" fill="#42210C"/>
<path d="M958.724 70.924C975.818 70.924 987.436 59.306 983.366 46.356C980.332 36.514 967.086 32 950.584 40.51C955.616 33.406 960.574 27.634 967.308 21.64C968.714 20.382 969.158 18.384 968.418 16.682C967.678 15.054 965.754 14.24 964.052 14.832C958.058 16.83 951.842 17.052 944.368 16.608C942.592 16.534 941.038 17.866 940.89 19.642C940.816 21.492 942.148 23.046 943.924 23.12C948.734 23.342 954.358 23.12 958.058 22.454C950.806 29.928 943.702 39.474 937.19 49.242C936.376 50.5 936.746 52.202 938.004 53.016C939.262 53.83 940.964 53.682 942.148 52.72C951.472 44.358 959.464 41.028 967.974 41.99C977.298 43.1 979.814 51.462 975.892 57.16C973.894 59.972 970.712 62.266 966.79 63.598C957.54 52.424 950.732 50.13 946.736 57.234C944.146 61.748 945.404 70.924 958.724 70.924ZM960.648 64.856C956.06 65.078 952.508 63.894 951.62 61.748C950.88 59.454 953.248 56.124 960.648 64.856Z" fill="#42210C"/>
<path d="M39.6441 47.614C33.5761 41.25 24.4741 35.552 14.8541 34.368V17.2C14.8541 15.35 13.3001 13.796 11.4501 13.796C9.67412 13.796 8.12012 15.35 8.12012 17.2V67.372C8.12012 69.222 9.67412 70.702 11.4501 70.702C13.3741 70.702 14.8541 69.148 14.8541 67.372V40.88C22.6981 42.212 28.9881 45.838 35.2041 52.572C36.4621 53.904 38.5341 53.904 39.6441 52.572C40.9021 51.092 40.9021 48.946 39.6441 47.614Z" stroke="white" stroke-width="16" mask="url(#path-1-outside-1_488:873)"/>
<path d="M112.608 44.876C114.384 44.876 115.864 43.47 115.864 41.62C115.864 39.844 114.384 38.364 112.608 38.364H66.4321C64.6561 38.364 63.1761 39.77 63.1761 41.62C63.1761 43.396 64.6561 44.876 66.4321 44.876H112.608Z" stroke="white" stroke-width="16" mask="url(#path-1-outside-1_488:873)"/>
<path d="M154.344 29.854C155.824 30.742 157.748 30.298 158.488 28.744C159.376 27.116 158.858 25.044 157.378 24.082C153.308 21.492 148.202 19.716 143.392 19.198C141.616 18.976 140.062 20.308 139.766 22.158C139.544 23.786 140.802 25.34 142.504 25.636C146.796 26.228 150.94 27.634 154.344 29.854ZM144.502 69.74C161.522 65.374 179.356 51.388 187.274 38.956C188.31 37.328 187.94 35.182 186.312 33.924C184.832 32.814 182.76 33.184 181.724 34.812C172.178 49.538 155.01 59.602 142.578 63.006C140.728 63.524 139.692 65.374 140.21 67.15C140.728 69 142.652 70.184 144.502 69.74ZM150.052 45.912C151.68 46.578 153.604 45.912 154.27 44.358C155.01 42.582 154.344 40.584 152.642 39.844C148.794 38.142 143.466 36.958 138.952 36.736C137.102 36.662 135.622 38.216 135.548 40.066C135.474 41.768 136.88 43.248 138.656 43.322C142.208 43.544 146.722 44.506 150.052 45.912Z" stroke="white" stroke-width="16" mask="url(#path-1-outside-1_488:873)"/>
<path d="M229.824 36.44C231.23 34.886 231.156 32.518 229.676 31.26C225.976 28.078 219.612 24.6 213.1 23.712C211.176 23.49 209.474 24.896 209.252 26.894C209.03 28.744 210.362 30.372 212.212 30.668C217.244 31.482 221.684 33.48 224.94 36.44C226.346 37.772 228.566 37.772 229.824 36.44ZM213.174 67.446C231.896 63.45 251.062 50.204 261.94 35.774C263.124 34.22 262.754 32 261.274 30.742C259.72 29.558 257.574 29.854 256.39 31.408C243.81 48.28 225.384 57.456 212.286 60.564C210.362 61.008 209.104 62.784 209.326 64.634C209.548 66.484 211.324 67.816 213.174 67.446Z" stroke="white" stroke-width="16" mask="url(#path-1-outside-1_488:873)"/>
<path d="M326.838 28.3C331.426 28.3 335.126 24.526 335.126 20.012C335.126 15.498 331.426 11.724 326.838 11.724C322.324 11.724 318.55 15.424 318.55 20.012C318.55 24.526 322.25 28.3 326.838 28.3ZM326.838 24.452C324.322 24.452 322.398 22.454 322.398 20.012C322.398 17.496 324.396 15.572 326.838 15.572C329.354 15.572 331.278 17.57 331.278 20.012C331.278 22.454 329.354 24.452 326.838 24.452ZM333.202 61.896C335.052 61.526 336.384 59.75 336.088 57.9C333.424 42.656 322.25 34.22 317.07 27.486C315.886 26.006 313.814 25.636 312.334 26.598C310.706 27.634 310.336 29.78 311.446 31.186C316.922 38.216 327.208 45.986 329.428 59.084C329.724 61.008 331.426 62.192 333.202 61.896ZM282.29 60.86C292.798 51.906 297.386 42.952 300.42 32.74C300.938 30.89 299.902 29.04 298.126 28.448C296.35 27.93 294.426 28.966 293.908 30.742C291.614 38.216 288.284 46.948 278.146 55.532C276.74 56.716 276.444 58.862 277.554 60.342C278.738 61.822 280.884 62.044 282.29 60.86Z" stroke="white" stroke-width="16" mask="url(#path-1-outside-1_488:873)"/>
<path d="M402.688 44.876C404.464 44.876 405.944 43.47 405.944 41.62C405.944 39.844 404.464 38.364 402.688 38.364H356.512C354.736 38.364 353.256 39.77 353.256 41.62C353.256 43.396 354.736 44.876 356.512 44.876H402.688Z" stroke="white" stroke-width="16" mask="url(#path-1-outside-1_488:873)"/>
<path d="M474.764 47.614C468.696 41.25 459.594 35.552 449.974 34.368V17.2C449.974 15.35 448.42 13.796 446.57 13.796C444.794 13.796 443.24 15.35 443.24 17.2V67.372C443.24 69.222 444.794 70.702 446.57 70.702C448.494 70.702 449.974 69.148 449.974 67.372V40.88C457.818 42.212 464.108 45.838 470.324 52.572C471.582 53.904 473.654 53.904 474.764 52.572C476.022 51.092 476.022 48.946 474.764 47.614Z" stroke="white" stroke-width="16" mask="url(#path-1-outside-1_488:873)"/>
<path d="M548.098 28.966C544.102 28.966 538.552 29.114 531.522 29.262C531.522 24.674 531.226 20.086 530.93 15.572C530.782 13.722 529.154 12.316 527.378 12.464C525.528 12.686 524.122 14.314 524.27 16.09C524.64 20.974 524.862 25.414 524.862 29.41L501.108 30.15C499.258 30.224 497.852 31.778 497.926 33.554C497.926 35.404 499.48 36.81 501.33 36.736C510.21 36.44 517.98 36.218 524.714 36.07C523.752 52.572 518.498 60.564 507.324 64.19C505.548 64.708 504.512 66.558 504.956 68.334C505.474 70.11 507.324 71.146 509.1 70.628C525.898 65.3 530.634 51.388 531.374 35.848C538.478 35.7 544.102 35.552 548.098 35.552C549.874 35.552 551.354 34.072 551.354 32.296C551.428 30.446 549.948 28.966 548.098 28.966Z" stroke="white" stroke-width="16" mask="url(#path-1-outside-1_488:873)"/>
<path d="M620.248 44.876C622.024 44.876 623.504 43.47 623.504 41.62C623.504 39.844 622.024 38.364 620.248 38.364H574.072C572.296 38.364 570.816 39.77 570.816 41.62C570.816 43.396 572.296 44.876 574.072 44.876H620.248Z" stroke="white" stroke-width="16" mask="url(#path-1-outside-1_488:873)"/>
<path d="M699.206 18.014C697.43 15.35 695.21 12.39 692.99 10.244C692.102 9.282 690.622 9.282 689.586 10.244C688.698 11.058 688.772 12.538 689.66 13.426C691.436 15.35 693.73 18.162 695.284 20.53C696.024 21.64 697.43 22.01 698.466 21.27C699.576 20.53 699.946 19.05 699.206 18.014ZM683.888 16.534C685.738 18.458 688.106 21.344 689.66 23.786C690.4 24.822 691.88 25.192 692.916 24.526C694.026 23.786 694.396 22.232 693.656 21.196C691.88 18.532 689.512 15.35 687.218 13.13C686.256 12.242 684.702 12.242 683.814 13.204C682.926 14.092 682.926 15.646 683.888 16.534ZM676.488 47.762C680.114 43.47 682.704 39.474 684.406 36.07C689.586 25.562 684.702 17.792 674.046 19.642C669.236 20.53 659.32 21.344 649.478 21.122C647.702 21.122 646.148 22.528 646.148 24.304C646.074 26.154 647.48 27.634 649.256 27.634C658.876 27.708 669.976 26.894 675.008 26.08C680.262 25.266 681.224 27.264 678.486 33.11C674.86 40.51 663.538 54.94 644.372 63.376C642.596 64.116 641.708 66.04 642.226 67.89C642.818 69.666 644.816 70.554 646.518 69.74C656.952 65.078 665.24 59.084 671.53 53.016C678.708 55.828 686.478 62.192 691.288 69.148C692.472 70.628 694.47 70.924 695.876 69.814C697.356 68.556 697.726 66.41 696.616 64.856C692.028 58.566 684.11 51.462 676.488 47.762Z" stroke="white" stroke-width="16" mask="url(#path-1-outside-1_488:873)"/>
<path d="M761.662 62.71C755.742 64.338 747.824 63.968 742.718 57.308C735.614 48.058 741.534 34.146 755.89 25.118C759.072 24.378 762.032 23.49 764.844 22.454C766.546 21.788 767.36 19.864 766.694 18.162C765.954 16.534 764.104 15.72 762.402 16.312C750.192 20.752 735.836 22.306 719.778 21.048C718.002 20.9 716.374 22.232 716.152 24.008C716.004 25.858 717.336 27.486 719.112 27.56C727.844 28.3 736.428 28.152 744.42 27.19C731.322 39.03 731.84 53.164 736.946 60.49C742.348 68.334 752.782 71.886 762.994 69.296C764.844 68.852 765.954 66.928 765.584 65.004C765.214 63.228 763.438 62.192 761.662 62.71ZM774.39 35.922C772.688 31.852 770.986 29.336 768.1 26.746C767.212 25.932 765.806 26.006 764.918 26.82C764.104 27.708 764.104 29.04 764.992 29.928C767.36 32.148 769.062 34.664 770.246 37.772C770.69 38.956 772.022 39.548 773.206 39.03C774.316 38.512 774.908 37.18 774.39 35.922ZM762.18 29.632C761.218 28.744 759.664 28.892 758.85 29.854C757.962 30.742 758.11 32.222 759.072 33.036C761.44 35.182 762.92 37.402 764.104 40.51C764.548 41.768 765.88 42.36 767.064 41.842C768.248 41.324 768.914 39.918 768.396 38.66C766.768 34.886 764.844 32.074 762.18 29.632Z" stroke="white" stroke-width="16" mask="url(#path-1-outside-1_488:873)"/>
<path d="M846.614 39.474C845.356 34.59 842.618 27.042 840.546 22.38C839.806 20.678 837.734 19.79 835.884 20.456C834.256 20.974 833.442 22.972 834.33 24.6C835.366 26.598 836.402 28.892 837.216 31.186C832.036 32.74 824.488 33.924 817.606 34.516C821.38 30.742 826.264 23.416 828.114 12.464C828.484 10.688 827.226 9.06 825.376 8.764C823.674 8.468 822.046 9.726 821.75 11.428C820.566 17.866 817.532 26.376 810.428 32.888C807.024 35.996 808.356 41.398 812.5 41.176C822.268 40.584 832.258 39.178 839.14 37.032C839.584 38.438 839.954 39.77 840.25 41.028C840.694 42.73 842.396 43.84 844.098 43.396C845.948 42.952 847.058 41.25 846.614 39.474ZM808.504 57.308C807.098 56.198 805.396 55.014 803.472 53.83C806.58 46.874 808.356 38.364 808.874 28.3C809.022 25.636 806.802 23.416 804.138 23.416H796.96C797.33 19.42 797.404 15.646 797.478 12.316C797.552 10.54 796.146 9.134 794.444 9.134C792.668 9.208 791.262 10.614 791.262 12.316C791.188 16.164 791.04 19.864 790.744 23.416H786.082C784.454 23.416 783.048 24.748 783.048 26.45C783.048 28.152 784.454 29.558 786.082 29.558H790.078C789.19 36.144 787.71 42.286 785.12 47.762C784.084 50.056 785.268 52.646 787.636 53.386C790.078 54.126 792.594 55.088 794.962 56.272C792.372 60.12 788.968 63.598 784.454 66.484C782.974 67.52 782.382 69.37 783.196 70.924C783.936 72.552 785.934 73.144 787.414 72.256C792.816 69 797.182 64.708 800.512 59.38C802.362 60.564 804.064 61.822 805.47 63.08C806.802 64.19 808.8 63.82 809.54 62.34C810.354 60.564 809.984 58.418 808.504 57.308ZM791.78 48.206C794.148 42.73 795.554 36.07 796.368 29.558H802.51C802.066 36.884 800.956 44.21 797.996 50.796C795.776 49.686 793.556 48.798 791.78 48.206ZM817.088 43.692C814.424 43.692 812.204 45.912 812.204 48.576V68.186C812.204 70.924 814.424 73.07 817.088 73.07H838.03C840.768 73.07 842.914 70.85 842.914 68.186V48.576C842.914 45.838 840.694 43.692 838.03 43.692H817.088ZM818.568 66.854V49.908H836.55V66.854H818.568Z" stroke="white" stroke-width="16" mask="url(#path-1-outside-1_488:873)"/>
<path d="M896.49 25.784C897.526 22.676 898.34 19.864 898.932 17.644C899.376 15.868 898.34 14.166 896.638 13.722C894.862 13.278 893.16 14.388 892.716 16.09C891.828 19.272 890.792 22.602 889.682 25.71C884.28 26.45 879.544 28.152 875.622 30.52C875.03 27.042 874.808 23.786 874.734 21.048C874.734 19.346 873.254 17.866 871.552 17.866C869.702 17.866 868.296 19.272 868.296 21.122C868.444 25.858 868.962 30.446 869.85 34.738C857.566 46.06 856.9 63.672 867.852 65.67C877.916 67.52 890.866 41.62 894.27 32C913.214 32.37 914.472 59.306 891.014 61.082C889.164 61.23 887.758 62.784 887.906 64.634C888.054 66.484 889.682 67.89 891.532 67.668C924.166 63.82 919.504 27.634 896.49 25.784ZM880.506 46.06C878.952 43.1 877.842 39.992 877.028 36.884C879.988 34.886 883.392 33.406 887.018 32.666C884.724 38.068 882.504 42.508 880.506 46.06ZM866.964 49.094C867.778 46.578 869.406 43.914 871.626 41.472C872.884 45.542 874.586 49.242 876.51 52.424C868.296 64.042 864.004 59.676 866.964 49.094Z" stroke="white" stroke-width="16" mask="url(#path-1-outside-1_488:873)"/>
<path d="M958.724 70.924C975.818 70.924 987.436 59.306 983.366 46.356C980.332 36.514 967.086 32 950.584 40.51C955.616 33.406 960.574 27.634 967.308 21.64C968.714 20.382 969.158 18.384 968.418 16.682C967.678 15.054 965.754 14.24 964.052 14.832C958.058 16.83 951.842 17.052 944.368 16.608C942.592 16.534 941.038 17.866 940.89 19.642C940.816 21.492 942.148 23.046 943.924 23.12C948.734 23.342 954.358 23.12 958.058 22.454C950.806 29.928 943.702 39.474 937.19 49.242C936.376 50.5 936.746 52.202 938.004 53.016C939.262 53.83 940.964 53.682 942.148 52.72C951.472 44.358 959.464 41.028 967.974 41.99C977.298 43.1 979.814 51.462 975.892 57.16C973.894 59.972 970.712 62.266 966.79 63.598C957.54 52.424 950.732 50.13 946.736 57.234C944.146 61.748 945.404 70.924 958.724 70.924ZM960.648 64.856C956.06 65.078 952.508 63.894 951.62 61.748C950.88 59.454 953.248 56.124 960.648 64.856Z" stroke="white" stroke-width="16" mask="url(#path-1-outside-1_488:873)"/>
</svg>
