<svg width="1099" height="69" viewBox="0 0 1099 69" fill="none" xmlns="http://www.w3.org/2000/svg">
<mask id="path-1-outside-1_507:1009" maskUnits="userSpaceOnUse" x="0.890869" y="0.279785" width="1098" height="68" fill="black">
<rect fill="white" x="0.890869" y="0.279785" width="1098" height="68"/>
<path d="M43.28 20.0998C30.32 20.0998 19.46 22.3798 8.89997 21.4798C7.45997 21.3598 6.07997 22.3798 5.89997 23.8798C5.77997 25.3798 6.85997 26.8198 8.35997 26.9398C18.68 28.0198 28.4 25.1998 42.68 25.1998C47.72 25.1998 47.78 26.6998 42.74 31.4998C37.7 36.2398 33.38 38.8798 29.96 40.6798C27.74 38.5198 25.4 36.7198 23 35.3998C21.68 34.7398 19.94 35.2198 19.1 36.5998C18.38 37.9198 18.86 39.5398 20.18 40.1998C26.36 43.4398 29.06 46.9798 34.7 55.6798C35.54 56.9398 37.22 57.2998 38.42 56.4598C39.68 55.5598 40.04 53.8198 39.26 52.5598C37.7 49.9798 35.78 47.2198 33.56 44.5798C36.62 42.7798 41.36 39.7198 46.34 35.4598C53.84 29.0398 55.64 20.0998 43.28 20.0998Z"/>
<path d="M85.16 30.5998C86.3 29.3398 86.24 27.4198 85.04 26.3998C82.04 23.8198 76.88 20.9998 71.6 20.2798C70.04 20.0998 68.66 21.2398 68.48 22.8598C68.3 24.3598 69.38 25.6798 70.88 25.9198C74.96 26.5798 78.56 28.1998 81.2 30.5998C82.34 31.6798 84.14 31.6798 85.16 30.5998ZM71.66 55.7398C86.84 52.4998 102.38 41.7598 111.2 30.0598C112.16 28.7998 111.86 26.9998 110.66 25.9798C109.4 25.0198 107.66 25.2598 106.7 26.5198C96.5 40.1998 81.56 47.6398 70.94 50.1598C69.38 50.5198 68.36 51.9598 68.54 53.4598C68.72 54.9598 70.16 56.0398 71.66 55.7398Z"/>
<path d="M142.76 25.2598C143.96 25.9798 145.52 25.6198 146.12 24.3598C146.84 23.0398 146.42 21.3598 145.22 20.5798C141.92 18.4798 137.78 17.0398 133.88 16.6198C132.44 16.4398 131.18 17.5198 130.94 19.0198C130.76 20.3398 131.78 21.5998 133.16 21.8398C136.64 22.3198 140 23.4598 142.76 25.2598ZM134.78 57.5998C148.58 54.0598 163.04 42.7198 169.46 32.6398C170.3 31.3198 170 29.5798 168.68 28.5598C167.48 27.6598 165.8 27.9598 164.96 29.2798C157.22 41.2198 143.3 49.3798 133.22 52.1398C131.72 52.5598 130.88 54.0598 131.3 55.4998C131.72 56.9998 133.28 57.9598 134.78 57.5998ZM139.28 38.2798C140.6 38.8198 142.16 38.2798 142.7 37.0198C143.3 35.5798 142.76 33.9598 141.38 33.3598C138.26 31.9798 133.94 31.0198 130.28 30.8398C128.78 30.7798 127.58 32.0398 127.52 33.5398C127.46 34.9198 128.6 36.1198 130.04 36.1798C132.92 36.3598 136.58 37.1398 139.28 38.2798Z"/>
<path d="M213.98 26.2198C209.3 26.3998 203.06 26.5198 196.94 26.2198C195.56 26.1598 194.36 27.2398 194.24 28.6198C194.18 30.0598 195.26 31.1998 196.7 31.2598C202.22 31.4998 209.48 31.4998 214.22 31.2598C217.58 31.0198 217.82 31.2598 217.82 34.9798V38.5198C216.38 38.0998 214.82 38.0998 213.26 38.0398H198.08C196.76 38.0398 195.68 39.1798 195.68 40.4998C195.68 41.8798 196.82 42.9598 198.14 42.9598C202.16 42.8998 210.86 42.8998 213.2 42.9598C215.18 42.9598 216.56 43.0798 217.82 43.6798V49.4998H196.82C195.44 49.4998 194.24 50.6398 194.24 52.0198C194.24 53.4598 195.44 54.5998 196.82 54.5998H217.88C218.06 55.8598 219.14 56.7598 220.4 56.7598C221.78 56.7598 222.92 55.6198 222.92 54.1798V34.9798C222.92 28.0798 220.58 25.7398 213.98 26.2198Z"/>
<path d="M265.16 30.5998C266.3 29.3398 266.24 27.4198 265.04 26.3998C262.04 23.8198 256.88 20.9998 251.6 20.2798C250.04 20.0998 248.66 21.2398 248.48 22.8598C248.3 24.3598 249.38 25.6798 250.88 25.9198C254.96 26.5798 258.56 28.1998 261.2 30.5998C262.34 31.6798 264.14 31.6798 265.16 30.5998ZM251.66 55.7398C266.84 52.4998 282.38 41.7598 291.2 30.0598C292.16 28.7998 291.86 26.9998 290.66 25.9798C289.4 25.0198 287.66 25.2598 286.7 26.5198C276.5 40.1998 261.56 47.6398 250.94 50.1598C249.38 50.5198 248.36 51.9598 248.54 53.4598C248.72 54.9598 250.16 56.0398 251.66 55.7398Z"/>
<path d="M355.58 16.7998C356.48 16.1998 356.78 14.9998 356.18 14.1598C354.74 11.9998 352.94 9.59979 351.14 7.85979C350.42 7.07979 349.22 7.07979 348.38 7.85979C347.66 8.51979 347.72 9.71979 348.44 10.4398C349.88 11.9998 351.74 14.2798 353 16.1998C353.6 17.0998 354.74 17.3998 355.58 16.7998ZM351.08 19.4398C351.98 18.8398 352.28 17.5798 351.68 16.7398C350.24 14.5798 348.32 11.9998 346.46 10.1998C345.68 9.47979 344.48 9.47979 343.7 10.2598C342.98 10.9798 342.98 12.1198 343.76 12.9598C345.26 14.5198 347.18 16.8598 348.44 18.8398C349.04 19.6798 350.24 19.9798 351.08 19.4398ZM320.12 57.6598C334.46 51.5398 342.92 42.7198 346.94 29.8198C348.44 24.8998 349.58 16.9798 338.9 15.5998C332.12 14.7598 319.88 15.8398 311.9 17.4598C310.4 17.8198 309.44 19.1998 309.56 20.8198C309.8 22.2598 311.18 23.2798 312.62 22.9798C322.94 20.7598 331.4 19.9798 338 20.7598C342.44 21.2998 343.22 22.9198 341.66 28.2598C338.36 39.4798 331.04 46.9798 318.14 52.5598C316.7 53.1598 316.04 54.7198 316.58 56.0998C317.12 57.4798 318.74 58.1998 320.12 57.6598Z"/>
<path d="M401.54 20.0998C402.98 20.0998 404.18 18.9598 404.18 17.4598C404.18 16.0198 403.04 14.8198 401.54 14.8198H376.1C374.66 14.8198 373.46 15.9598 373.46 17.4598C373.46 18.8998 374.6 20.0998 376.1 20.0998H401.54ZM380.96 58.0198C392.78 55.4998 401.42 49.1398 406.1 39.4198C409.22 32.8198 410.3 26.3398 399.8 26.3398C393.56 26.3398 383.78 27.9598 372.68 27.4198C371.18 27.2998 369.92 28.4398 369.8 29.9398C369.74 31.4998 370.88 32.7598 372.44 32.8198C382.64 33.1198 394.28 31.3798 399.26 31.4398C403.4 31.4398 403.64 32.0998 401.36 36.8398C397.46 44.9998 390.08 50.5198 380.06 52.6798C378.56 52.9798 377.6 54.4198 377.84 55.8598C378.08 57.3598 379.46 58.3198 380.96 58.0198Z"/>
<path d="M445.16 30.5998C446.3 29.3398 446.24 27.4198 445.04 26.3998C442.04 23.8198 436.88 20.9998 431.6 20.2798C430.04 20.0998 428.66 21.2398 428.48 22.8598C428.3 24.3598 429.38 25.6798 430.88 25.9198C434.96 26.5798 438.56 28.1998 441.2 30.5998C442.34 31.6798 444.14 31.6798 445.16 30.5998ZM431.66 55.7398C446.84 52.4998 462.38 41.7598 471.2 30.0598C472.16 28.7998 471.86 26.9998 470.66 25.9798C469.4 25.0198 467.66 25.2598 466.7 26.5198C456.5 40.1998 441.56 47.6398 430.94 50.1598C429.38 50.5198 428.36 51.9598 428.54 53.4598C428.72 54.9598 430.16 56.0398 431.66 55.7398Z"/>
<path d="M507.26 14.9998C507.26 13.4998 506 12.2398 504.5 12.2398C503.06 12.2398 501.8 13.4998 501.8 14.9998V55.6798C501.8 57.1798 503.06 58.3798 504.5 58.3798C506.06 58.3798 507.26 57.1198 507.26 55.6798V34.1998C513.62 35.2798 518.72 38.2198 523.76 43.6798C524.78 44.7598 526.46 44.7598 527.36 43.6798C528.38 42.4798 528.38 40.7398 527.36 39.6598C522.44 34.4998 515.06 29.8798 507.26 28.9198V14.9998ZM531.14 21.4798C529.7 19.3198 527.9 16.9198 526.1 15.1198C525.38 14.3998 524.12 14.4598 523.34 15.1798C522.62 15.8398 522.62 17.0398 523.4 17.7598C524.84 19.1998 526.7 21.5398 527.96 23.5198C528.56 24.4198 529.7 24.7198 530.54 24.1198C531.44 23.5798 531.74 22.3798 531.14 21.4798ZM523.46 26.1598C524 26.9998 525.2 27.2998 526.04 26.7598C526.94 26.1598 527.24 24.9598 526.64 24.0598C525.2 21.8398 523.28 19.3198 521.42 17.5198C520.64 16.7398 519.44 16.7998 518.66 17.5798C517.94 18.2998 518 19.5598 518.72 20.2798C520.22 21.7798 522.14 24.1198 523.46 26.1598Z"/>
<path d="M579.26 51.2998C579.26 53.9998 583.4 53.9998 583.4 51.2998V9.11979H596.24C598.76 9.11979 598.7 5.27979 596.24 5.27979H583.22C581.06 5.27979 579.26 7.13979 579.26 9.23978V51.2998Z"/>
<path d="M633.92 57.8998C636.08 57.8998 637.82 56.0998 637.88 53.9398C638 51.7198 638.24 49.5598 638.36 47.6998C638.42 46.0798 637.16 44.6998 635.54 44.6998C633.86 44.6998 632.6 46.0798 632.66 47.6998C632.78 49.1998 632.96 50.8798 633.08 52.6198H608.42L635.18 19.9198C636.14 18.7198 636.44 17.1598 636.02 15.7198C635.54 14.2798 634.16 13.3198 632.72 13.3198H606.56C604.4 13.3198 602.6 15.1198 602.54 17.2798C602.42 19.4398 602.24 21.6598 602.12 23.5198C602 25.0798 603.26 26.4598 604.94 26.4598C606.56 26.4598 607.88 25.0798 607.76 23.5198C607.64 22.0198 607.46 20.3398 607.34 18.5998H629.48L602.9 51.0598C601.94 52.2598 601.64 53.9398 602.06 55.4398C602.54 56.8798 603.92 57.8998 605.48 57.8998H633.92Z"/>
<path d="M666.326 12.7798C654.266 12.7798 644.486 23.0398 644.486 35.5798C644.486 48.1798 654.266 58.4398 666.326 58.4398C678.386 58.4398 688.166 48.1798 688.166 35.5798C688.166 23.0398 678.386 12.7798 666.326 12.7798ZM666.326 52.9798C656.966 52.9798 649.946 45.5998 649.946 35.5798C649.946 25.6198 656.846 18.2398 666.326 18.2398C675.686 18.2398 682.646 25.5598 682.646 35.5798C682.646 45.6598 675.746 52.9798 666.326 52.9798Z"/>
<path d="M716.482 12.7798C704.422 12.7798 694.642 23.0398 694.642 35.5798C694.642 48.1798 704.422 58.4398 716.482 58.4398C728.542 58.4398 738.322 48.1798 738.322 35.5798C738.322 23.0398 728.542 12.7798 716.482 12.7798ZM716.482 52.9798C707.122 52.9798 700.102 45.5998 700.102 35.5798C700.102 25.6198 707.002 18.2398 716.482 18.2398C725.842 18.2398 732.802 25.5598 732.802 35.5798C732.802 45.6598 725.902 52.9798 716.482 52.9798Z"/>
<path d="M790.41 53.0398C789.75 53.0998 789.03 53.1598 788.31 53.2798V17.9998C788.91 18.0598 789.57 18.0598 790.23 18.1798C791.85 18.3598 793.23 17.1598 793.23 15.5398C793.23 13.9198 791.85 12.6598 790.23 12.8398C787.71 13.1998 786.33 13.3198 784.41 13.3198C782.19 13.3198 780.03 14.6998 779.19 16.7998L767.01 45.7798L755.67 16.8598C754.83 14.6998 752.79 13.3198 750.51 13.3198C748.65 13.3198 747.15 13.1998 744.51 12.8398C742.89 12.6598 741.51 13.8598 741.51 15.4798C741.51 17.0998 742.89 18.3598 744.51 18.1798C745.17 18.1198 745.83 18.0598 746.43 18.0598V53.2798C745.71 53.1598 744.99 53.0998 744.33 53.0398C742.71 52.9198 741.39 54.1198 741.39 55.7398C741.39 57.3598 742.71 58.5598 744.33 58.4398C748.89 57.9598 750.63 57.9598 755.25 58.4398C756.87 58.5598 758.13 57.3598 758.13 55.7398C758.13 54.1198 756.87 52.9198 755.25 53.0398C754.17 53.1598 752.97 53.2798 751.83 53.3398V20.7598L763.83 50.9398C764.31 52.1398 765.57 53.0398 766.89 53.0398C768.21 53.0398 769.41 52.1998 769.95 50.9398L782.91 20.9398V53.3398C781.77 53.2798 780.57 53.1598 779.49 53.0398C777.87 52.9198 776.61 54.1198 776.61 55.7398C776.61 57.3598 777.87 58.5598 779.49 58.4398C784.11 57.9598 785.79 57.9598 790.41 58.4398C792.03 58.5598 793.35 57.3598 793.35 55.7398C793.35 54.1198 792.03 52.9198 790.41 53.0398Z"/>
<path d="M812.358 63.1198C814.518 63.1198 816.318 61.2598 816.318 59.1598V17.0998C816.318 14.3998 812.178 14.3998 812.178 17.0998V59.2798H799.338C796.818 59.2798 796.878 63.1198 799.338 63.1198H812.358Z"/>
<path d="M888.978 55.8598C905.538 53.6398 910.818 40.6198 908.058 30.8998C903.558 15.1798 880.398 12.8398 869.838 27.1198C862.818 36.7198 863.358 50.2798 870.978 52.0798C879.078 53.9998 886.638 39.2998 890.118 22.9198C897.318 23.0398 903.078 28.3198 903.378 35.0998C903.738 43.3798 898.278 48.8998 888.198 50.4598C886.758 50.6998 885.738 52.0198 885.978 53.4598C886.158 54.9598 887.538 56.0398 888.978 55.8598ZM870.678 45.7198C867.978 41.2198 871.398 25.8598 884.538 23.2798C882.018 35.4598 874.158 51.5998 870.678 45.7198Z"/>
<path d="M972.198 19.0198C973.158 18.5998 973.638 17.4598 973.218 16.4998C971.778 13.1398 970.398 11.1598 968.118 8.99979C967.338 8.33979 966.198 8.39978 965.538 9.11979C964.818 9.83979 964.878 10.9198 965.598 11.5798C967.518 13.4398 968.838 15.4798 969.858 17.9998C970.218 18.9598 971.298 19.4398 972.198 19.0198ZM967.278 21.2398C968.238 20.8198 968.718 19.6798 968.298 18.7198C967.038 15.6598 965.478 13.3798 963.258 11.3998C962.478 10.6798 961.278 10.7398 960.558 11.5198C959.898 12.2998 960.018 13.4998 960.738 14.1598C962.658 15.8998 963.858 17.6398 964.818 20.2198C965.238 21.2398 966.318 21.7198 967.278 21.2398ZM959.778 24.1198C961.218 23.8798 962.358 22.5598 962.238 21.0598C962.178 19.6198 960.858 18.5398 959.418 18.7198C947.898 20.1598 939.078 19.4998 933.978 18.7198C932.538 18.5398 931.158 19.4998 930.918 20.9398C930.678 22.4398 931.638 23.8198 933.138 24.0598C941.418 25.3198 951.198 25.1998 959.778 24.1198ZM965.958 52.1998C967.518 51.7798 968.418 50.2198 968.118 48.6598C967.818 47.1598 966.318 46.2598 964.818 46.7398C946.518 52.3198 937.278 49.5598 929.778 43.2598C928.638 42.2398 926.898 42.3598 925.878 43.4398C924.798 44.6398 924.918 46.3798 926.058 47.3998C937.038 56.9398 949.998 56.6998 965.958 52.1998Z"/>
<path d="M1000.88 28.3198C1000.34 26.9398 998.718 26.3398 997.338 26.8798C996.018 27.4198 995.478 28.9798 996.078 30.2998L996.978 32.3398C994.638 32.9998 992.058 33.5398 989.838 33.8998C994.578 28.7398 998.058 22.0798 999.978 14.2798C1000.28 12.9598 999.438 11.5798 998.118 11.2198C996.738 10.8598 995.418 11.6998 995.058 13.0198C994.038 17.2198 992.358 21.2398 990.318 24.7198C989.238 23.0998 988.038 21.7798 987.558 21.1798C989.538 18.5998 991.098 15.2398 992.238 11.0398C992.598 9.71978 991.758 8.33979 990.378 8.09978C988.998 7.79979 987.678 8.69978 987.318 10.0198C986.358 13.5598 984.798 16.6798 982.758 19.1998C981.618 20.5798 981.738 22.5598 982.998 23.8198C984.558 25.3798 985.998 27.3598 987.078 29.3398C985.578 31.1398 984.018 32.6998 982.338 33.8998C979.818 35.6998 980.958 39.6598 983.898 39.4798C985.518 39.3598 987.558 39.2398 989.718 38.9398V58.2598C989.718 59.6998 990.918 60.8398 992.298 60.8398C993.738 60.8398 994.878 59.6398 994.878 58.2598V38.0398C996.138 37.7398 997.338 37.3798 998.538 37.0198C998.658 37.6198 998.838 38.2198 998.958 38.8198C999.198 40.1398 1000.52 41.0998 1001.84 40.7998C1003.22 40.4998 1004.18 39.1798 1003.88 37.7998C1003.1 34.2598 1001.96 30.8398 1000.88 28.3198ZM1005.86 10.6198C1004.48 10.6198 1003.34 11.7598 1003.34 13.1398C1003.34 14.5198 1004.48 15.6598 1005.86 15.6598H1014.02C1012.7 21.2998 1009.16 26.3998 1004.18 29.6998C1002.92 30.5998 1002.44 32.1598 1002.98 33.4798C1003.52 34.8598 1005.14 35.4598 1006.34 34.6798C1011.5 31.4398 1017.56 24.6598 1019.36 15.6598H1026.02C1025.84 19.7998 1025.54 24.7798 1025.06 27.2998C1024.52 29.9998 1023.5 29.8798 1020.2 29.5198C1018.7 29.3998 1017.44 30.4798 1017.32 31.9198C1017.2 33.4198 1018.28 34.7398 1019.78 34.8598C1026.2 35.2798 1029.26 33.4198 1030.16 28.2598C1030.64 25.1398 1031 19.0798 1031.18 14.5798C1031.3 12.4198 1029.56 10.6198 1027.4 10.6198H1005.86ZM1009.58 36.8398C1007.36 36.8398 1005.62 38.6398 1005.62 40.7998V56.3398C1005.62 58.4998 1007.42 60.2998 1009.58 60.2998H1025.78C1028 60.2998 1029.74 58.4998 1029.74 56.3398V40.7998C1029.74 38.6398 1027.94 36.8398 1025.78 36.8398H1009.58ZM987.018 40.1398C985.638 39.9598 984.378 40.9198 984.258 42.3598C983.718 46.9198 982.818 51.2998 981.258 55.5598C980.718 56.8798 981.558 58.3198 982.938 58.5598C984.438 58.8598 985.878 57.9598 986.358 56.5798C987.798 52.3198 988.878 46.9798 989.298 43.0198C989.478 41.6398 988.398 40.3798 987.018 40.1398ZM1000.28 42.2998C999.678 40.9798 998.058 40.3198 996.738 40.8598C995.418 41.3398 994.878 42.8998 995.598 44.1598C996.678 46.1398 997.758 50.1598 998.238 53.1598C998.478 54.5398 999.678 55.3798 1000.94 55.0198C1002.26 54.6598 1003.16 53.3998 1002.86 52.0798C1002.38 49.1998 1001.24 44.6398 1000.28 42.2998ZM1010.78 55.1398V41.9998H1024.52V55.1398H1010.78Z"/>
<path d="M1089.62 31.9198C1090.94 32.5798 1092.5 31.7998 1092.98 30.3598C1093.4 28.9798 1092.68 27.4198 1091.3 26.8198C1083.32 23.1598 1073.66 15.2998 1068.98 10.3198C1067.54 8.81979 1065.2 8.87979 1063.88 10.3798C1058.84 16.1398 1050.08 23.2798 1042.4 26.8798C1041.14 27.4798 1040.54 28.9798 1041.08 30.2398C1041.68 31.6198 1043.24 32.2198 1044.56 31.6198C1052.06 28.0798 1062.14 20.5198 1066.46 15.2998C1071.14 20.2798 1082.3 28.6198 1089.62 31.9198ZM1074.98 60.7798C1076.42 60.7798 1077.62 59.5798 1077.62 58.1998V31.8598C1077.62 30.3598 1076.42 29.2198 1074.98 29.2198C1073.54 29.2198 1072.34 30.4198 1072.34 31.8598V58.1998C1072.34 59.6398 1073.54 60.7798 1074.98 60.7798ZM1046 60.4798C1055.84 56.8198 1060.04 48.4198 1060.4 31.9798C1060.4 30.5398 1059.26 29.3998 1057.82 29.3998C1056.32 29.3998 1055.18 30.5398 1055.12 31.9798C1054.58 47.9998 1051.28 52.4398 1044.26 55.6198C1043 56.2198 1042.34 57.5998 1042.82 58.9198C1043.3 60.2398 1044.68 60.9598 1046 60.4798Z"/>
</mask>
<path d="M43.28 20.0998C30.32 20.0998 19.46 22.3798 8.89997 21.4798C7.45997 21.3598 6.07997 22.3798 5.89997 23.8798C5.77997 25.3798 6.85997 26.8198 8.35997 26.9398C18.68 28.0198 28.4 25.1998 42.68 25.1998C47.72 25.1998 47.78 26.6998 42.74 31.4998C37.7 36.2398 33.38 38.8798 29.96 40.6798C27.74 38.5198 25.4 36.7198 23 35.3998C21.68 34.7398 19.94 35.2198 19.1 36.5998C18.38 37.9198 18.86 39.5398 20.18 40.1998C26.36 43.4398 29.06 46.9798 34.7 55.6798C35.54 56.9398 37.22 57.2998 38.42 56.4598C39.68 55.5598 40.04 53.8198 39.26 52.5598C37.7 49.9798 35.78 47.2198 33.56 44.5798C36.62 42.7798 41.36 39.7198 46.34 35.4598C53.84 29.0398 55.64 20.0998 43.28 20.0998Z" fill="#42210C"/>
<path d="M85.16 30.5998C86.3 29.3398 86.24 27.4198 85.04 26.3998C82.04 23.8198 76.88 20.9998 71.6 20.2798C70.04 20.0998 68.66 21.2398 68.48 22.8598C68.3 24.3598 69.38 25.6798 70.88 25.9198C74.96 26.5798 78.56 28.1998 81.2 30.5998C82.34 31.6798 84.14 31.6798 85.16 30.5998ZM71.66 55.7398C86.84 52.4998 102.38 41.7598 111.2 30.0598C112.16 28.7998 111.86 26.9998 110.66 25.9798C109.4 25.0198 107.66 25.2598 106.7 26.5198C96.5 40.1998 81.56 47.6398 70.94 50.1598C69.38 50.5198 68.36 51.9598 68.54 53.4598C68.72 54.9598 70.16 56.0398 71.66 55.7398Z" fill="#42210C"/>
<path d="M142.76 25.2598C143.96 25.9798 145.52 25.6198 146.12 24.3598C146.84 23.0398 146.42 21.3598 145.22 20.5798C141.92 18.4798 137.78 17.0398 133.88 16.6198C132.44 16.4398 131.18 17.5198 130.94 19.0198C130.76 20.3398 131.78 21.5998 133.16 21.8398C136.64 22.3198 140 23.4598 142.76 25.2598ZM134.78 57.5998C148.58 54.0598 163.04 42.7198 169.46 32.6398C170.3 31.3198 170 29.5798 168.68 28.5598C167.48 27.6598 165.8 27.9598 164.96 29.2798C157.22 41.2198 143.3 49.3798 133.22 52.1398C131.72 52.5598 130.88 54.0598 131.3 55.4998C131.72 56.9998 133.28 57.9598 134.78 57.5998ZM139.28 38.2798C140.6 38.8198 142.16 38.2798 142.7 37.0198C143.3 35.5798 142.76 33.9598 141.38 33.3598C138.26 31.9798 133.94 31.0198 130.28 30.8398C128.78 30.7798 127.58 32.0398 127.52 33.5398C127.46 34.9198 128.6 36.1198 130.04 36.1798C132.92 36.3598 136.58 37.1398 139.28 38.2798Z" fill="#42210C"/>
<path d="M213.98 26.2198C209.3 26.3998 203.06 26.5198 196.94 26.2198C195.56 26.1598 194.36 27.2398 194.24 28.6198C194.18 30.0598 195.26 31.1998 196.7 31.2598C202.22 31.4998 209.48 31.4998 214.22 31.2598C217.58 31.0198 217.82 31.2598 217.82 34.9798V38.5198C216.38 38.0998 214.82 38.0998 213.26 38.0398H198.08C196.76 38.0398 195.68 39.1798 195.68 40.4998C195.68 41.8798 196.82 42.9598 198.14 42.9598C202.16 42.8998 210.86 42.8998 213.2 42.9598C215.18 42.9598 216.56 43.0798 217.82 43.6798V49.4998H196.82C195.44 49.4998 194.24 50.6398 194.24 52.0198C194.24 53.4598 195.44 54.5998 196.82 54.5998H217.88C218.06 55.8598 219.14 56.7598 220.4 56.7598C221.78 56.7598 222.92 55.6198 222.92 54.1798V34.9798C222.92 28.0798 220.58 25.7398 213.98 26.2198Z" fill="#42210C"/>
<path d="M265.16 30.5998C266.3 29.3398 266.24 27.4198 265.04 26.3998C262.04 23.8198 256.88 20.9998 251.6 20.2798C250.04 20.0998 248.66 21.2398 248.48 22.8598C248.3 24.3598 249.38 25.6798 250.88 25.9198C254.96 26.5798 258.56 28.1998 261.2 30.5998C262.34 31.6798 264.14 31.6798 265.16 30.5998ZM251.66 55.7398C266.84 52.4998 282.38 41.7598 291.2 30.0598C292.16 28.7998 291.86 26.9998 290.66 25.9798C289.4 25.0198 287.66 25.2598 286.7 26.5198C276.5 40.1998 261.56 47.6398 250.94 50.1598C249.38 50.5198 248.36 51.9598 248.54 53.4598C248.72 54.9598 250.16 56.0398 251.66 55.7398Z" fill="#42210C"/>
<path d="M355.58 16.7998C356.48 16.1998 356.78 14.9998 356.18 14.1598C354.74 11.9998 352.94 9.59979 351.14 7.85979C350.42 7.07979 349.22 7.07979 348.38 7.85979C347.66 8.51979 347.72 9.71979 348.44 10.4398C349.88 11.9998 351.74 14.2798 353 16.1998C353.6 17.0998 354.74 17.3998 355.58 16.7998ZM351.08 19.4398C351.98 18.8398 352.28 17.5798 351.68 16.7398C350.24 14.5798 348.32 11.9998 346.46 10.1998C345.68 9.47979 344.48 9.47979 343.7 10.2598C342.98 10.9798 342.98 12.1198 343.76 12.9598C345.26 14.5198 347.18 16.8598 348.44 18.8398C349.04 19.6798 350.24 19.9798 351.08 19.4398ZM320.12 57.6598C334.46 51.5398 342.92 42.7198 346.94 29.8198C348.44 24.8998 349.58 16.9798 338.9 15.5998C332.12 14.7598 319.88 15.8398 311.9 17.4598C310.4 17.8198 309.44 19.1998 309.56 20.8198C309.8 22.2598 311.18 23.2798 312.62 22.9798C322.94 20.7598 331.4 19.9798 338 20.7598C342.44 21.2998 343.22 22.9198 341.66 28.2598C338.36 39.4798 331.04 46.9798 318.14 52.5598C316.7 53.1598 316.04 54.7198 316.58 56.0998C317.12 57.4798 318.74 58.1998 320.12 57.6598Z" fill="#42210C"/>
<path d="M401.54 20.0998C402.98 20.0998 404.18 18.9598 404.18 17.4598C404.18 16.0198 403.04 14.8198 401.54 14.8198H376.1C374.66 14.8198 373.46 15.9598 373.46 17.4598C373.46 18.8998 374.6 20.0998 376.1 20.0998H401.54ZM380.96 58.0198C392.78 55.4998 401.42 49.1398 406.1 39.4198C409.22 32.8198 410.3 26.3398 399.8 26.3398C393.56 26.3398 383.78 27.9598 372.68 27.4198C371.18 27.2998 369.92 28.4398 369.8 29.9398C369.74 31.4998 370.88 32.7598 372.44 32.8198C382.64 33.1198 394.28 31.3798 399.26 31.4398C403.4 31.4398 403.64 32.0998 401.36 36.8398C397.46 44.9998 390.08 50.5198 380.06 52.6798C378.56 52.9798 377.6 54.4198 377.84 55.8598C378.08 57.3598 379.46 58.3198 380.96 58.0198Z" fill="#42210C"/>
<path d="M445.16 30.5998C446.3 29.3398 446.24 27.4198 445.04 26.3998C442.04 23.8198 436.88 20.9998 431.6 20.2798C430.04 20.0998 428.66 21.2398 428.48 22.8598C428.3 24.3598 429.38 25.6798 430.88 25.9198C434.96 26.5798 438.56 28.1998 441.2 30.5998C442.34 31.6798 444.14 31.6798 445.16 30.5998ZM431.66 55.7398C446.84 52.4998 462.38 41.7598 471.2 30.0598C472.16 28.7998 471.86 26.9998 470.66 25.9798C469.4 25.0198 467.66 25.2598 466.7 26.5198C456.5 40.1998 441.56 47.6398 430.94 50.1598C429.38 50.5198 428.36 51.9598 428.54 53.4598C428.72 54.9598 430.16 56.0398 431.66 55.7398Z" fill="#42210C"/>
<path d="M507.26 14.9998C507.26 13.4998 506 12.2398 504.5 12.2398C503.06 12.2398 501.8 13.4998 501.8 14.9998V55.6798C501.8 57.1798 503.06 58.3798 504.5 58.3798C506.06 58.3798 507.26 57.1198 507.26 55.6798V34.1998C513.62 35.2798 518.72 38.2198 523.76 43.6798C524.78 44.7598 526.46 44.7598 527.36 43.6798C528.38 42.4798 528.38 40.7398 527.36 39.6598C522.44 34.4998 515.06 29.8798 507.26 28.9198V14.9998ZM531.14 21.4798C529.7 19.3198 527.9 16.9198 526.1 15.1198C525.38 14.3998 524.12 14.4598 523.34 15.1798C522.62 15.8398 522.62 17.0398 523.4 17.7598C524.84 19.1998 526.7 21.5398 527.96 23.5198C528.56 24.4198 529.7 24.7198 530.54 24.1198C531.44 23.5798 531.74 22.3798 531.14 21.4798ZM523.46 26.1598C524 26.9998 525.2 27.2998 526.04 26.7598C526.94 26.1598 527.24 24.9598 526.64 24.0598C525.2 21.8398 523.28 19.3198 521.42 17.5198C520.64 16.7398 519.44 16.7998 518.66 17.5798C517.94 18.2998 518 19.5598 518.72 20.2798C520.22 21.7798 522.14 24.1198 523.46 26.1598Z" fill="#42210C"/>
<path d="M579.26 51.2998C579.26 53.9998 583.4 53.9998 583.4 51.2998V9.11979H596.24C598.76 9.11979 598.7 5.27979 596.24 5.27979H583.22C581.06 5.27979 579.26 7.13979 579.26 9.23978V51.2998Z" fill="#42210C"/>
<path d="M633.92 57.8998C636.08 57.8998 637.82 56.0998 637.88 53.9398C638 51.7198 638.24 49.5598 638.36 47.6998C638.42 46.0798 637.16 44.6998 635.54 44.6998C633.86 44.6998 632.6 46.0798 632.66 47.6998C632.78 49.1998 632.96 50.8798 633.08 52.6198H608.42L635.18 19.9198C636.14 18.7198 636.44 17.1598 636.02 15.7198C635.54 14.2798 634.16 13.3198 632.72 13.3198H606.56C604.4 13.3198 602.6 15.1198 602.54 17.2798C602.42 19.4398 602.24 21.6598 602.12 23.5198C602 25.0798 603.26 26.4598 604.94 26.4598C606.56 26.4598 607.88 25.0798 607.76 23.5198C607.64 22.0198 607.46 20.3398 607.34 18.5998H629.48L602.9 51.0598C601.94 52.2598 601.64 53.9398 602.06 55.4398C602.54 56.8798 603.92 57.8998 605.48 57.8998H633.92Z" fill="#42210C"/>
<path d="M666.326 12.7798C654.266 12.7798 644.486 23.0398 644.486 35.5798C644.486 48.1798 654.266 58.4398 666.326 58.4398C678.386 58.4398 688.166 48.1798 688.166 35.5798C688.166 23.0398 678.386 12.7798 666.326 12.7798ZM666.326 52.9798C656.966 52.9798 649.946 45.5998 649.946 35.5798C649.946 25.6198 656.846 18.2398 666.326 18.2398C675.686 18.2398 682.646 25.5598 682.646 35.5798C682.646 45.6598 675.746 52.9798 666.326 52.9798Z" fill="#42210C"/>
<path d="M716.482 12.7798C704.422 12.7798 694.642 23.0398 694.642 35.5798C694.642 48.1798 704.422 58.4398 716.482 58.4398C728.542 58.4398 738.322 48.1798 738.322 35.5798C738.322 23.0398 728.542 12.7798 716.482 12.7798ZM716.482 52.9798C707.122 52.9798 700.102 45.5998 700.102 35.5798C700.102 25.6198 707.002 18.2398 716.482 18.2398C725.842 18.2398 732.802 25.5598 732.802 35.5798C732.802 45.6598 725.902 52.9798 716.482 52.9798Z" fill="#42210C"/>
<path d="M790.41 53.0398C789.75 53.0998 789.03 53.1598 788.31 53.2798V17.9998C788.91 18.0598 789.57 18.0598 790.23 18.1798C791.85 18.3598 793.23 17.1598 793.23 15.5398C793.23 13.9198 791.85 12.6598 790.23 12.8398C787.71 13.1998 786.33 13.3198 784.41 13.3198C782.19 13.3198 780.03 14.6998 779.19 16.7998L767.01 45.7798L755.67 16.8598C754.83 14.6998 752.79 13.3198 750.51 13.3198C748.65 13.3198 747.15 13.1998 744.51 12.8398C742.89 12.6598 741.51 13.8598 741.51 15.4798C741.51 17.0998 742.89 18.3598 744.51 18.1798C745.17 18.1198 745.83 18.0598 746.43 18.0598V53.2798C745.71 53.1598 744.99 53.0998 744.33 53.0398C742.71 52.9198 741.39 54.1198 741.39 55.7398C741.39 57.3598 742.71 58.5598 744.33 58.4398C748.89 57.9598 750.63 57.9598 755.25 58.4398C756.87 58.5598 758.13 57.3598 758.13 55.7398C758.13 54.1198 756.87 52.9198 755.25 53.0398C754.17 53.1598 752.97 53.2798 751.83 53.3398V20.7598L763.83 50.9398C764.31 52.1398 765.57 53.0398 766.89 53.0398C768.21 53.0398 769.41 52.1998 769.95 50.9398L782.91 20.9398V53.3398C781.77 53.2798 780.57 53.1598 779.49 53.0398C777.87 52.9198 776.61 54.1198 776.61 55.7398C776.61 57.3598 777.87 58.5598 779.49 58.4398C784.11 57.9598 785.79 57.9598 790.41 58.4398C792.03 58.5598 793.35 57.3598 793.35 55.7398C793.35 54.1198 792.03 52.9198 790.41 53.0398Z" fill="#42210C"/>
<path d="M812.358 63.1198C814.518 63.1198 816.318 61.2598 816.318 59.1598V17.0998C816.318 14.3998 812.178 14.3998 812.178 17.0998V59.2798H799.338C796.818 59.2798 796.878 63.1198 799.338 63.1198H812.358Z" fill="#42210C"/>
<path d="M888.978 55.8598C905.538 53.6398 910.818 40.6198 908.058 30.8998C903.558 15.1798 880.398 12.8398 869.838 27.1198C862.818 36.7198 863.358 50.2798 870.978 52.0798C879.078 53.9998 886.638 39.2998 890.118 22.9198C897.318 23.0398 903.078 28.3198 903.378 35.0998C903.738 43.3798 898.278 48.8998 888.198 50.4598C886.758 50.6998 885.738 52.0198 885.978 53.4598C886.158 54.9598 887.538 56.0398 888.978 55.8598ZM870.678 45.7198C867.978 41.2198 871.398 25.8598 884.538 23.2798C882.018 35.4598 874.158 51.5998 870.678 45.7198Z" fill="#42210C"/>
<path d="M972.198 19.0198C973.158 18.5998 973.638 17.4598 973.218 16.4998C971.778 13.1398 970.398 11.1598 968.118 8.99979C967.338 8.33979 966.198 8.39978 965.538 9.11979C964.818 9.83979 964.878 10.9198 965.598 11.5798C967.518 13.4398 968.838 15.4798 969.858 17.9998C970.218 18.9598 971.298 19.4398 972.198 19.0198ZM967.278 21.2398C968.238 20.8198 968.718 19.6798 968.298 18.7198C967.038 15.6598 965.478 13.3798 963.258 11.3998C962.478 10.6798 961.278 10.7398 960.558 11.5198C959.898 12.2998 960.018 13.4998 960.738 14.1598C962.658 15.8998 963.858 17.6398 964.818 20.2198C965.238 21.2398 966.318 21.7198 967.278 21.2398ZM959.778 24.1198C961.218 23.8798 962.358 22.5598 962.238 21.0598C962.178 19.6198 960.858 18.5398 959.418 18.7198C947.898 20.1598 939.078 19.4998 933.978 18.7198C932.538 18.5398 931.158 19.4998 930.918 20.9398C930.678 22.4398 931.638 23.8198 933.138 24.0598C941.418 25.3198 951.198 25.1998 959.778 24.1198ZM965.958 52.1998C967.518 51.7798 968.418 50.2198 968.118 48.6598C967.818 47.1598 966.318 46.2598 964.818 46.7398C946.518 52.3198 937.278 49.5598 929.778 43.2598C928.638 42.2398 926.898 42.3598 925.878 43.4398C924.798 44.6398 924.918 46.3798 926.058 47.3998C937.038 56.9398 949.998 56.6998 965.958 52.1998Z" fill="#42210C"/>
<path d="M1000.88 28.3198C1000.34 26.9398 998.718 26.3398 997.338 26.8798C996.018 27.4198 995.478 28.9798 996.078 30.2998L996.978 32.3398C994.638 32.9998 992.058 33.5398 989.838 33.8998C994.578 28.7398 998.058 22.0798 999.978 14.2798C1000.28 12.9598 999.438 11.5798 998.118 11.2198C996.738 10.8598 995.418 11.6998 995.058 13.0198C994.038 17.2198 992.358 21.2398 990.318 24.7198C989.238 23.0998 988.038 21.7798 987.558 21.1798C989.538 18.5998 991.098 15.2398 992.238 11.0398C992.598 9.71978 991.758 8.33979 990.378 8.09978C988.998 7.79979 987.678 8.69978 987.318 10.0198C986.358 13.5598 984.798 16.6798 982.758 19.1998C981.618 20.5798 981.738 22.5598 982.998 23.8198C984.558 25.3798 985.998 27.3598 987.078 29.3398C985.578 31.1398 984.018 32.6998 982.338 33.8998C979.818 35.6998 980.958 39.6598 983.898 39.4798C985.518 39.3598 987.558 39.2398 989.718 38.9398V58.2598C989.718 59.6998 990.918 60.8398 992.298 60.8398C993.738 60.8398 994.878 59.6398 994.878 58.2598V38.0398C996.138 37.7398 997.338 37.3798 998.538 37.0198C998.658 37.6198 998.838 38.2198 998.958 38.8198C999.198 40.1398 1000.52 41.0998 1001.84 40.7998C1003.22 40.4998 1004.18 39.1798 1003.88 37.7998C1003.1 34.2598 1001.96 30.8398 1000.88 28.3198ZM1005.86 10.6198C1004.48 10.6198 1003.34 11.7598 1003.34 13.1398C1003.34 14.5198 1004.48 15.6598 1005.86 15.6598H1014.02C1012.7 21.2998 1009.16 26.3998 1004.18 29.6998C1002.92 30.5998 1002.44 32.1598 1002.98 33.4798C1003.52 34.8598 1005.14 35.4598 1006.34 34.6798C1011.5 31.4398 1017.56 24.6598 1019.36 15.6598H1026.02C1025.84 19.7998 1025.54 24.7798 1025.06 27.2998C1024.52 29.9998 1023.5 29.8798 1020.2 29.5198C1018.7 29.3998 1017.44 30.4798 1017.32 31.9198C1017.2 33.4198 1018.28 34.7398 1019.78 34.8598C1026.2 35.2798 1029.26 33.4198 1030.16 28.2598C1030.64 25.1398 1031 19.0798 1031.18 14.5798C1031.3 12.4198 1029.56 10.6198 1027.4 10.6198H1005.86ZM1009.58 36.8398C1007.36 36.8398 1005.62 38.6398 1005.62 40.7998V56.3398C1005.62 58.4998 1007.42 60.2998 1009.58 60.2998H1025.78C1028 60.2998 1029.74 58.4998 1029.74 56.3398V40.7998C1029.74 38.6398 1027.94 36.8398 1025.78 36.8398H1009.58ZM987.018 40.1398C985.638 39.9598 984.378 40.9198 984.258 42.3598C983.718 46.9198 982.818 51.2998 981.258 55.5598C980.718 56.8798 981.558 58.3198 982.938 58.5598C984.438 58.8598 985.878 57.9598 986.358 56.5798C987.798 52.3198 988.878 46.9798 989.298 43.0198C989.478 41.6398 988.398 40.3798 987.018 40.1398ZM1000.28 42.2998C999.678 40.9798 998.058 40.3198 996.738 40.8598C995.418 41.3398 994.878 42.8998 995.598 44.1598C996.678 46.1398 997.758 50.1598 998.238 53.1598C998.478 54.5398 999.678 55.3798 1000.94 55.0198C1002.26 54.6598 1003.16 53.3998 1002.86 52.0798C1002.38 49.1998 1001.24 44.6398 1000.28 42.2998ZM1010.78 55.1398V41.9998H1024.52V55.1398H1010.78Z" fill="#42210C"/>
<path d="M1089.62 31.9198C1090.94 32.5798 1092.5 31.7998 1092.98 30.3598C1093.4 28.9798 1092.68 27.4198 1091.3 26.8198C1083.32 23.1598 1073.66 15.2998 1068.98 10.3198C1067.54 8.81979 1065.2 8.87979 1063.88 10.3798C1058.84 16.1398 1050.08 23.2798 1042.4 26.8798C1041.14 27.4798 1040.54 28.9798 1041.08 30.2398C1041.68 31.6198 1043.24 32.2198 1044.56 31.6198C1052.06 28.0798 1062.14 20.5198 1066.46 15.2998C1071.14 20.2798 1082.3 28.6198 1089.62 31.9198ZM1074.98 60.7798C1076.42 60.7798 1077.62 59.5798 1077.62 58.1998V31.8598C1077.62 30.3598 1076.42 29.2198 1074.98 29.2198C1073.54 29.2198 1072.34 30.4198 1072.34 31.8598V58.1998C1072.34 59.6398 1073.54 60.7798 1074.98 60.7798ZM1046 60.4798C1055.84 56.8198 1060.04 48.4198 1060.4 31.9798C1060.4 30.5398 1059.26 29.3998 1057.82 29.3998C1056.32 29.3998 1055.18 30.5398 1055.12 31.9798C1054.58 47.9998 1051.28 52.4398 1044.26 55.6198C1043 56.2198 1042.34 57.5998 1042.82 58.9198C1043.3 60.2398 1044.68 60.9598 1046 60.4798Z" fill="#42210C"/>
<path d="M43.28 20.0998C30.32 20.0998 19.46 22.3798 8.89997 21.4798C7.45997 21.3598 6.07997 22.3798 5.89997 23.8798C5.77997 25.3798 6.85997 26.8198 8.35997 26.9398C18.68 28.0198 28.4 25.1998 42.68 25.1998C47.72 25.1998 47.78 26.6998 42.74 31.4998C37.7 36.2398 33.38 38.8798 29.96 40.6798C27.74 38.5198 25.4 36.7198 23 35.3998C21.68 34.7398 19.94 35.2198 19.1 36.5998C18.38 37.9198 18.86 39.5398 20.18 40.1998C26.36 43.4398 29.06 46.9798 34.7 55.6798C35.54 56.9398 37.22 57.2998 38.42 56.4598C39.68 55.5598 40.04 53.8198 39.26 52.5598C37.7 49.9798 35.78 47.2198 33.56 44.5798C36.62 42.7798 41.36 39.7198 46.34 35.4598C53.84 29.0398 55.64 20.0998 43.28 20.0998Z" stroke="white" stroke-width="10" mask="url(#path-1-outside-1_507:1009)"/>
<path d="M85.16 30.5998C86.3 29.3398 86.24 27.4198 85.04 26.3998C82.04 23.8198 76.88 20.9998 71.6 20.2798C70.04 20.0998 68.66 21.2398 68.48 22.8598C68.3 24.3598 69.38 25.6798 70.88 25.9198C74.96 26.5798 78.56 28.1998 81.2 30.5998C82.34 31.6798 84.14 31.6798 85.16 30.5998ZM71.66 55.7398C86.84 52.4998 102.38 41.7598 111.2 30.0598C112.16 28.7998 111.86 26.9998 110.66 25.9798C109.4 25.0198 107.66 25.2598 106.7 26.5198C96.5 40.1998 81.56 47.6398 70.94 50.1598C69.38 50.5198 68.36 51.9598 68.54 53.4598C68.72 54.9598 70.16 56.0398 71.66 55.7398Z" stroke="white" stroke-width="10" mask="url(#path-1-outside-1_507:1009)"/>
<path d="M142.76 25.2598C143.96 25.9798 145.52 25.6198 146.12 24.3598C146.84 23.0398 146.42 21.3598 145.22 20.5798C141.92 18.4798 137.78 17.0398 133.88 16.6198C132.44 16.4398 131.18 17.5198 130.94 19.0198C130.76 20.3398 131.78 21.5998 133.16 21.8398C136.64 22.3198 140 23.4598 142.76 25.2598ZM134.78 57.5998C148.58 54.0598 163.04 42.7198 169.46 32.6398C170.3 31.3198 170 29.5798 168.68 28.5598C167.48 27.6598 165.8 27.9598 164.96 29.2798C157.22 41.2198 143.3 49.3798 133.22 52.1398C131.72 52.5598 130.88 54.0598 131.3 55.4998C131.72 56.9998 133.28 57.9598 134.78 57.5998ZM139.28 38.2798C140.6 38.8198 142.16 38.2798 142.7 37.0198C143.3 35.5798 142.76 33.9598 141.38 33.3598C138.26 31.9798 133.94 31.0198 130.28 30.8398C128.78 30.7798 127.58 32.0398 127.52 33.5398C127.46 34.9198 128.6 36.1198 130.04 36.1798C132.92 36.3598 136.58 37.1398 139.28 38.2798Z" stroke="white" stroke-width="10" mask="url(#path-1-outside-1_507:1009)"/>
<path d="M213.98 26.2198C209.3 26.3998 203.06 26.5198 196.94 26.2198C195.56 26.1598 194.36 27.2398 194.24 28.6198C194.18 30.0598 195.26 31.1998 196.7 31.2598C202.22 31.4998 209.48 31.4998 214.22 31.2598C217.58 31.0198 217.82 31.2598 217.82 34.9798V38.5198C216.38 38.0998 214.82 38.0998 213.26 38.0398H198.08C196.76 38.0398 195.68 39.1798 195.68 40.4998C195.68 41.8798 196.82 42.9598 198.14 42.9598C202.16 42.8998 210.86 42.8998 213.2 42.9598C215.18 42.9598 216.56 43.0798 217.82 43.6798V49.4998H196.82C195.44 49.4998 194.24 50.6398 194.24 52.0198C194.24 53.4598 195.44 54.5998 196.82 54.5998H217.88C218.06 55.8598 219.14 56.7598 220.4 56.7598C221.78 56.7598 222.92 55.6198 222.92 54.1798V34.9798C222.92 28.0798 220.58 25.7398 213.98 26.2198Z" stroke="white" stroke-width="10" mask="url(#path-1-outside-1_507:1009)"/>
<path d="M265.16 30.5998C266.3 29.3398 266.24 27.4198 265.04 26.3998C262.04 23.8198 256.88 20.9998 251.6 20.2798C250.04 20.0998 248.66 21.2398 248.48 22.8598C248.3 24.3598 249.38 25.6798 250.88 25.9198C254.96 26.5798 258.56 28.1998 261.2 30.5998C262.34 31.6798 264.14 31.6798 265.16 30.5998ZM251.66 55.7398C266.84 52.4998 282.38 41.7598 291.2 30.0598C292.16 28.7998 291.86 26.9998 290.66 25.9798C289.4 25.0198 287.66 25.2598 286.7 26.5198C276.5 40.1998 261.56 47.6398 250.94 50.1598C249.38 50.5198 248.36 51.9598 248.54 53.4598C248.72 54.9598 250.16 56.0398 251.66 55.7398Z" stroke="white" stroke-width="10" mask="url(#path-1-outside-1_507:1009)"/>
<path d="M355.58 16.7998C356.48 16.1998 356.78 14.9998 356.18 14.1598C354.74 11.9998 352.94 9.59979 351.14 7.85979C350.42 7.07979 349.22 7.07979 348.38 7.85979C347.66 8.51979 347.72 9.71979 348.44 10.4398C349.88 11.9998 351.74 14.2798 353 16.1998C353.6 17.0998 354.74 17.3998 355.58 16.7998ZM351.08 19.4398C351.98 18.8398 352.28 17.5798 351.68 16.7398C350.24 14.5798 348.32 11.9998 346.46 10.1998C345.68 9.47979 344.48 9.47979 343.7 10.2598C342.98 10.9798 342.98 12.1198 343.76 12.9598C345.26 14.5198 347.18 16.8598 348.44 18.8398C349.04 19.6798 350.24 19.9798 351.08 19.4398ZM320.12 57.6598C334.46 51.5398 342.92 42.7198 346.94 29.8198C348.44 24.8998 349.58 16.9798 338.9 15.5998C332.12 14.7598 319.88 15.8398 311.9 17.4598C310.4 17.8198 309.44 19.1998 309.56 20.8198C309.8 22.2598 311.18 23.2798 312.62 22.9798C322.94 20.7598 331.4 19.9798 338 20.7598C342.44 21.2998 343.22 22.9198 341.66 28.2598C338.36 39.4798 331.04 46.9798 318.14 52.5598C316.7 53.1598 316.04 54.7198 316.58 56.0998C317.12 57.4798 318.74 58.1998 320.12 57.6598Z" stroke="white" stroke-width="10" mask="url(#path-1-outside-1_507:1009)"/>
<path d="M401.54 20.0998C402.98 20.0998 404.18 18.9598 404.18 17.4598C404.18 16.0198 403.04 14.8198 401.54 14.8198H376.1C374.66 14.8198 373.46 15.9598 373.46 17.4598C373.46 18.8998 374.6 20.0998 376.1 20.0998H401.54ZM380.96 58.0198C392.78 55.4998 401.42 49.1398 406.1 39.4198C409.22 32.8198 410.3 26.3398 399.8 26.3398C393.56 26.3398 383.78 27.9598 372.68 27.4198C371.18 27.2998 369.92 28.4398 369.8 29.9398C369.74 31.4998 370.88 32.7598 372.44 32.8198C382.64 33.1198 394.28 31.3798 399.26 31.4398C403.4 31.4398 403.64 32.0998 401.36 36.8398C397.46 44.9998 390.08 50.5198 380.06 52.6798C378.56 52.9798 377.6 54.4198 377.84 55.8598C378.08 57.3598 379.46 58.3198 380.96 58.0198Z" stroke="white" stroke-width="10" mask="url(#path-1-outside-1_507:1009)"/>
<path d="M445.16 30.5998C446.3 29.3398 446.24 27.4198 445.04 26.3998C442.04 23.8198 436.88 20.9998 431.6 20.2798C430.04 20.0998 428.66 21.2398 428.48 22.8598C428.3 24.3598 429.38 25.6798 430.88 25.9198C434.96 26.5798 438.56 28.1998 441.2 30.5998C442.34 31.6798 444.14 31.6798 445.16 30.5998ZM431.66 55.7398C446.84 52.4998 462.38 41.7598 471.2 30.0598C472.16 28.7998 471.86 26.9998 470.66 25.9798C469.4 25.0198 467.66 25.2598 466.7 26.5198C456.5 40.1998 441.56 47.6398 430.94 50.1598C429.38 50.5198 428.36 51.9598 428.54 53.4598C428.72 54.9598 430.16 56.0398 431.66 55.7398Z" stroke="white" stroke-width="10" mask="url(#path-1-outside-1_507:1009)"/>
<path d="M507.26 14.9998C507.26 13.4998 506 12.2398 504.5 12.2398C503.06 12.2398 501.8 13.4998 501.8 14.9998V55.6798C501.8 57.1798 503.06 58.3798 504.5 58.3798C506.06 58.3798 507.26 57.1198 507.26 55.6798V34.1998C513.62 35.2798 518.72 38.2198 523.76 43.6798C524.78 44.7598 526.46 44.7598 527.36 43.6798C528.38 42.4798 528.38 40.7398 527.36 39.6598C522.44 34.4998 515.06 29.8798 507.26 28.9198V14.9998ZM531.14 21.4798C529.7 19.3198 527.9 16.9198 526.1 15.1198C525.38 14.3998 524.12 14.4598 523.34 15.1798C522.62 15.8398 522.62 17.0398 523.4 17.7598C524.84 19.1998 526.7 21.5398 527.96 23.5198C528.56 24.4198 529.7 24.7198 530.54 24.1198C531.44 23.5798 531.74 22.3798 531.14 21.4798ZM523.46 26.1598C524 26.9998 525.2 27.2998 526.04 26.7598C526.94 26.1598 527.24 24.9598 526.64 24.0598C525.2 21.8398 523.28 19.3198 521.42 17.5198C520.64 16.7398 519.44 16.7998 518.66 17.5798C517.94 18.2998 518 19.5598 518.72 20.2798C520.22 21.7798 522.14 24.1198 523.46 26.1598Z" stroke="white" stroke-width="10" mask="url(#path-1-outside-1_507:1009)"/>
<path d="M579.26 51.2998C579.26 53.9998 583.4 53.9998 583.4 51.2998V9.11979H596.24C598.76 9.11979 598.7 5.27979 596.24 5.27979H583.22C581.06 5.27979 579.26 7.13979 579.26 9.23978V51.2998Z" stroke="white" stroke-width="10" mask="url(#path-1-outside-1_507:1009)"/>
<path d="M633.92 57.8998C636.08 57.8998 637.82 56.0998 637.88 53.9398C638 51.7198 638.24 49.5598 638.36 47.6998C638.42 46.0798 637.16 44.6998 635.54 44.6998C633.86 44.6998 632.6 46.0798 632.66 47.6998C632.78 49.1998 632.96 50.8798 633.08 52.6198H608.42L635.18 19.9198C636.14 18.7198 636.44 17.1598 636.02 15.7198C635.54 14.2798 634.16 13.3198 632.72 13.3198H606.56C604.4 13.3198 602.6 15.1198 602.54 17.2798C602.42 19.4398 602.24 21.6598 602.12 23.5198C602 25.0798 603.26 26.4598 604.94 26.4598C606.56 26.4598 607.88 25.0798 607.76 23.5198C607.64 22.0198 607.46 20.3398 607.34 18.5998H629.48L602.9 51.0598C601.94 52.2598 601.64 53.9398 602.06 55.4398C602.54 56.8798 603.92 57.8998 605.48 57.8998H633.92Z" stroke="white" stroke-width="10" mask="url(#path-1-outside-1_507:1009)"/>
<path d="M666.326 12.7798C654.266 12.7798 644.486 23.0398 644.486 35.5798C644.486 48.1798 654.266 58.4398 666.326 58.4398C678.386 58.4398 688.166 48.1798 688.166 35.5798C688.166 23.0398 678.386 12.7798 666.326 12.7798ZM666.326 52.9798C656.966 52.9798 649.946 45.5998 649.946 35.5798C649.946 25.6198 656.846 18.2398 666.326 18.2398C675.686 18.2398 682.646 25.5598 682.646 35.5798C682.646 45.6598 675.746 52.9798 666.326 52.9798Z" stroke="white" stroke-width="10" mask="url(#path-1-outside-1_507:1009)"/>
<path d="M716.482 12.7798C704.422 12.7798 694.642 23.0398 694.642 35.5798C694.642 48.1798 704.422 58.4398 716.482 58.4398C728.542 58.4398 738.322 48.1798 738.322 35.5798C738.322 23.0398 728.542 12.7798 716.482 12.7798ZM716.482 52.9798C707.122 52.9798 700.102 45.5998 700.102 35.5798C700.102 25.6198 707.002 18.2398 716.482 18.2398C725.842 18.2398 732.802 25.5598 732.802 35.5798C732.802 45.6598 725.902 52.9798 716.482 52.9798Z" stroke="white" stroke-width="10" mask="url(#path-1-outside-1_507:1009)"/>
<path d="M790.41 53.0398C789.75 53.0998 789.03 53.1598 788.31 53.2798V17.9998C788.91 18.0598 789.57 18.0598 790.23 18.1798C791.85 18.3598 793.23 17.1598 793.23 15.5398C793.23 13.9198 791.85 12.6598 790.23 12.8398C787.71 13.1998 786.33 13.3198 784.41 13.3198C782.19 13.3198 780.03 14.6998 779.19 16.7998L767.01 45.7798L755.67 16.8598C754.83 14.6998 752.79 13.3198 750.51 13.3198C748.65 13.3198 747.15 13.1998 744.51 12.8398C742.89 12.6598 741.51 13.8598 741.51 15.4798C741.51 17.0998 742.89 18.3598 744.51 18.1798C745.17 18.1198 745.83 18.0598 746.43 18.0598V53.2798C745.71 53.1598 744.99 53.0998 744.33 53.0398C742.71 52.9198 741.39 54.1198 741.39 55.7398C741.39 57.3598 742.71 58.5598 744.33 58.4398C748.89 57.9598 750.63 57.9598 755.25 58.4398C756.87 58.5598 758.13 57.3598 758.13 55.7398C758.13 54.1198 756.87 52.9198 755.25 53.0398C754.17 53.1598 752.97 53.2798 751.83 53.3398V20.7598L763.83 50.9398C764.31 52.1398 765.57 53.0398 766.89 53.0398C768.21 53.0398 769.41 52.1998 769.95 50.9398L782.91 20.9398V53.3398C781.77 53.2798 780.57 53.1598 779.49 53.0398C777.87 52.9198 776.61 54.1198 776.61 55.7398C776.61 57.3598 777.87 58.5598 779.49 58.4398C784.11 57.9598 785.79 57.9598 790.41 58.4398C792.03 58.5598 793.35 57.3598 793.35 55.7398C793.35 54.1198 792.03 52.9198 790.41 53.0398Z" stroke="white" stroke-width="10" mask="url(#path-1-outside-1_507:1009)"/>
<path d="M812.358 63.1198C814.518 63.1198 816.318 61.2598 816.318 59.1598V17.0998C816.318 14.3998 812.178 14.3998 812.178 17.0998V59.2798H799.338C796.818 59.2798 796.878 63.1198 799.338 63.1198H812.358Z" stroke="white" stroke-width="10" mask="url(#path-1-outside-1_507:1009)"/>
<path d="M888.978 55.8598C905.538 53.6398 910.818 40.6198 908.058 30.8998C903.558 15.1798 880.398 12.8398 869.838 27.1198C862.818 36.7198 863.358 50.2798 870.978 52.0798C879.078 53.9998 886.638 39.2998 890.118 22.9198C897.318 23.0398 903.078 28.3198 903.378 35.0998C903.738 43.3798 898.278 48.8998 888.198 50.4598C886.758 50.6998 885.738 52.0198 885.978 53.4598C886.158 54.9598 887.538 56.0398 888.978 55.8598ZM870.678 45.7198C867.978 41.2198 871.398 25.8598 884.538 23.2798C882.018 35.4598 874.158 51.5998 870.678 45.7198Z" stroke="white" stroke-width="10" mask="url(#path-1-outside-1_507:1009)"/>
<path d="M972.198 19.0198C973.158 18.5998 973.638 17.4598 973.218 16.4998C971.778 13.1398 970.398 11.1598 968.118 8.99979C967.338 8.33979 966.198 8.39978 965.538 9.11979C964.818 9.83979 964.878 10.9198 965.598 11.5798C967.518 13.4398 968.838 15.4798 969.858 17.9998C970.218 18.9598 971.298 19.4398 972.198 19.0198ZM967.278 21.2398C968.238 20.8198 968.718 19.6798 968.298 18.7198C967.038 15.6598 965.478 13.3798 963.258 11.3998C962.478 10.6798 961.278 10.7398 960.558 11.5198C959.898 12.2998 960.018 13.4998 960.738 14.1598C962.658 15.8998 963.858 17.6398 964.818 20.2198C965.238 21.2398 966.318 21.7198 967.278 21.2398ZM959.778 24.1198C961.218 23.8798 962.358 22.5598 962.238 21.0598C962.178 19.6198 960.858 18.5398 959.418 18.7198C947.898 20.1598 939.078 19.4998 933.978 18.7198C932.538 18.5398 931.158 19.4998 930.918 20.9398C930.678 22.4398 931.638 23.8198 933.138 24.0598C941.418 25.3198 951.198 25.1998 959.778 24.1198ZM965.958 52.1998C967.518 51.7798 968.418 50.2198 968.118 48.6598C967.818 47.1598 966.318 46.2598 964.818 46.7398C946.518 52.3198 937.278 49.5598 929.778 43.2598C928.638 42.2398 926.898 42.3598 925.878 43.4398C924.798 44.6398 924.918 46.3798 926.058 47.3998C937.038 56.9398 949.998 56.6998 965.958 52.1998Z" stroke="white" stroke-width="10" mask="url(#path-1-outside-1_507:1009)"/>
<path d="M1000.88 28.3198C1000.34 26.9398 998.718 26.3398 997.338 26.8798C996.018 27.4198 995.478 28.9798 996.078 30.2998L996.978 32.3398C994.638 32.9998 992.058 33.5398 989.838 33.8998C994.578 28.7398 998.058 22.0798 999.978 14.2798C1000.28 12.9598 999.438 11.5798 998.118 11.2198C996.738 10.8598 995.418 11.6998 995.058 13.0198C994.038 17.2198 992.358 21.2398 990.318 24.7198C989.238 23.0998 988.038 21.7798 987.558 21.1798C989.538 18.5998 991.098 15.2398 992.238 11.0398C992.598 9.71978 991.758 8.33979 990.378 8.09978C988.998 7.79979 987.678 8.69978 987.318 10.0198C986.358 13.5598 984.798 16.6798 982.758 19.1998C981.618 20.5798 981.738 22.5598 982.998 23.8198C984.558 25.3798 985.998 27.3598 987.078 29.3398C985.578 31.1398 984.018 32.6998 982.338 33.8998C979.818 35.6998 980.958 39.6598 983.898 39.4798C985.518 39.3598 987.558 39.2398 989.718 38.9398V58.2598C989.718 59.6998 990.918 60.8398 992.298 60.8398C993.738 60.8398 994.878 59.6398 994.878 58.2598V38.0398C996.138 37.7398 997.338 37.3798 998.538 37.0198C998.658 37.6198 998.838 38.2198 998.958 38.8198C999.198 40.1398 1000.52 41.0998 1001.84 40.7998C1003.22 40.4998 1004.18 39.1798 1003.88 37.7998C1003.1 34.2598 1001.96 30.8398 1000.88 28.3198ZM1005.86 10.6198C1004.48 10.6198 1003.34 11.7598 1003.34 13.1398C1003.34 14.5198 1004.48 15.6598 1005.86 15.6598H1014.02C1012.7 21.2998 1009.16 26.3998 1004.18 29.6998C1002.92 30.5998 1002.44 32.1598 1002.98 33.4798C1003.52 34.8598 1005.14 35.4598 1006.34 34.6798C1011.5 31.4398 1017.56 24.6598 1019.36 15.6598H1026.02C1025.84 19.7998 1025.54 24.7798 1025.06 27.2998C1024.52 29.9998 1023.5 29.8798 1020.2 29.5198C1018.7 29.3998 1017.44 30.4798 1017.32 31.9198C1017.2 33.4198 1018.28 34.7398 1019.78 34.8598C1026.2 35.2798 1029.26 33.4198 1030.16 28.2598C1030.64 25.1398 1031 19.0798 1031.18 14.5798C1031.3 12.4198 1029.56 10.6198 1027.4 10.6198H1005.86ZM1009.58 36.8398C1007.36 36.8398 1005.62 38.6398 1005.62 40.7998V56.3398C1005.62 58.4998 1007.42 60.2998 1009.58 60.2998H1025.78C1028 60.2998 1029.74 58.4998 1029.74 56.3398V40.7998C1029.74 38.6398 1027.94 36.8398 1025.78 36.8398H1009.58ZM987.018 40.1398C985.638 39.9598 984.378 40.9198 984.258 42.3598C983.718 46.9198 982.818 51.2998 981.258 55.5598C980.718 56.8798 981.558 58.3198 982.938 58.5598C984.438 58.8598 985.878 57.9598 986.358 56.5798C987.798 52.3198 988.878 46.9798 989.298 43.0198C989.478 41.6398 988.398 40.3798 987.018 40.1398ZM1000.28 42.2998C999.678 40.9798 998.058 40.3198 996.738 40.8598C995.418 41.3398 994.878 42.8998 995.598 44.1598C996.678 46.1398 997.758 50.1598 998.238 53.1598C998.478 54.5398 999.678 55.3798 1000.94 55.0198C1002.26 54.6598 1003.16 53.3998 1002.86 52.0798C1002.38 49.1998 1001.24 44.6398 1000.28 42.2998ZM1010.78 55.1398V41.9998H1024.52V55.1398H1010.78Z" stroke="white" stroke-width="10" mask="url(#path-1-outside-1_507:1009)"/>
<path d="M1089.62 31.9198C1090.94 32.5798 1092.5 31.7998 1092.98 30.3598C1093.4 28.9798 1092.68 27.4198 1091.3 26.8198C1083.32 23.1598 1073.66 15.2998 1068.98 10.3198C1067.54 8.81979 1065.2 8.87979 1063.88 10.3798C1058.84 16.1398 1050.08 23.2798 1042.4 26.8798C1041.14 27.4798 1040.54 28.9798 1041.08 30.2398C1041.68 31.6198 1043.24 32.2198 1044.56 31.6198C1052.06 28.0798 1062.14 20.5198 1066.46 15.2998C1071.14 20.2798 1082.3 28.6198 1089.62 31.9198ZM1074.98 60.7798C1076.42 60.7798 1077.62 59.5798 1077.62 58.1998V31.8598C1077.62 30.3598 1076.42 29.2198 1074.98 29.2198C1073.54 29.2198 1072.34 30.4198 1072.34 31.8598V58.1998C1072.34 59.6398 1073.54 60.7798 1074.98 60.7798ZM1046 60.4798C1055.84 56.8198 1060.04 48.4198 1060.4 31.9798C1060.4 30.5398 1059.26 29.3998 1057.82 29.3998C1056.32 29.3998 1055.18 30.5398 1055.12 31.9798C1054.58 47.9998 1051.28 52.4398 1044.26 55.6198C1043 56.2198 1042.34 57.5998 1042.82 58.9198C1043.3 60.2398 1044.68 60.9598 1046 60.4798Z" stroke="white" stroke-width="10" mask="url(#path-1-outside-1_507:1009)"/>
</svg>
