<svg width="1051" height="129" viewBox="0 0 1051 129" fill="none" xmlns="http://www.w3.org/2000/svg">
<mask id="path-1-outside-1_507:1002" maskUnits="userSpaceOnUse" x="0.642578" y="0.149902" width="1050" height="129" fill="black">
<rect fill="white" x="0.642578" y="0.149902" width="1050" height="129"/>
<path d="M36.9998 12.4499C30.7998 12.1499 18.6998 14.6999 7.9498 14.1999C6.7498 14.1499 5.6998 15.0499 5.6498 16.2499C5.5498 17.4999 6.4998 18.5999 7.7498 18.6499C15.8498 19.0499 27.8998 16.8499 35.9998 16.6499C38.3998 16.5999 38.6998 18.0999 36.5998 19.9999C34.8498 21.5999 30.5498 23.9999 27.2998 25.4499C27.2498 24.7999 27.1998 24.1499 27.0998 23.4999C26.9498 22.2499 25.7998 21.3499 24.5498 21.4499C23.3498 21.4999 22.4498 22.5999 22.6498 23.8499C23.6498 30.3999 22.8498 37.7499 12.8998 43.7499C11.7998 44.3499 11.3998 45.7499 11.9998 46.7999C12.5998 47.8999 13.9498 48.2999 14.9998 47.6499C22.3998 43.1999 26.3998 37.5499 27.1998 30.2499C31.2498 28.3999 36.8998 25.2499 39.4498 23.0999C43.6998 19.5499 44.3998 12.7999 36.9998 12.4499Z"/>
<path d="M91.6498 16.3499C94.7498 16.3499 97.2498 13.7999 97.2498 10.7499C97.2498 7.6999 94.7498 5.1499 91.6498 5.1499C88.5998 5.1499 86.0498 7.6499 86.0498 10.7499C86.0498 13.7999 88.5498 16.3499 91.6498 16.3499ZM91.6498 13.7499C89.9998 13.7499 88.6498 12.3999 88.6498 10.7499C88.6498 9.0499 89.9998 7.7499 91.6498 7.7499C93.2998 7.7499 94.6498 9.0499 94.6498 10.7499C94.6498 12.3999 93.3498 13.7499 91.6498 13.7499ZM65.1998 47.6999C77.1498 42.5999 84.1998 35.2499 87.5498 24.4999C88.7998 20.3999 89.7498 13.7999 80.8498 12.6499C75.1998 11.9499 64.9998 12.8499 58.3498 14.1999C57.0998 14.4999 56.2998 15.6499 56.3998 16.9999C56.5998 18.1999 57.7498 19.0499 58.9498 18.7999C67.5498 16.9499 74.5998 16.2999 80.0998 16.9499C83.7998 17.3999 84.4498 18.7499 83.1498 23.1999C80.3998 32.5499 74.2998 38.7999 63.5498 43.4499C62.3498 43.9499 61.7998 45.2499 62.2498 46.3999C62.6998 47.5499 64.0498 48.1499 65.1998 47.6999Z"/>
<path d="M119.6 48.7499C126.1 46.1499 130.9 41.3499 133.6 34.7999C136.45 27.7999 135.25 15.5499 133.85 9.7499C133.55 8.5999 132.45 7.8999 131.25 8.0499C130.15 8.2499 129.35 9.2999 129.5 10.4499C131.5 24.5999 133.45 37.0999 118.05 44.3999C116.9 44.8999 116.3 46.1999 116.7 47.3999C117.15 48.5999 118.45 49.1999 119.6 48.7499ZM119.9 34.4999C120.8 33.7499 120.95 32.3999 120.3 31.2999C116.95 26.1999 117.1 18.5999 117.55 13.0499C117.65 11.7999 116.75 10.6999 115.5 10.6499C114.25 10.5999 113.2 11.5999 113.15 12.7999C112.8 19.3999 112.8 28.5999 116.65 34.0999C117.4 35.1499 118.9 35.2999 119.9 34.4999Z"/>
<path d="M187.15 42.7499C183.15 43.8499 177.8 43.5999 174.35 39.0999C169.55 32.8499 173.55 23.4499 183.25 17.3499C185.4 16.8499 187.4 16.2499 189.3 15.5499C190.45 15.0999 191 13.7999 190.55 12.6499C190.05 11.5499 188.8 10.9999 187.65 11.3999C179.4 14.3999 169.7 15.4499 158.85 14.5999C157.65 14.4999 156.55 15.3999 156.4 16.5999C156.3 17.8499 157.2 18.9499 158.4 18.9999C164.3 19.4999 170.1 19.3999 175.5 18.7499C166.65 26.7499 167 36.2999 170.45 41.2499C174.1 46.5499 181.15 48.9499 188.05 47.1999C189.3 46.8999 190.05 45.5999 189.8 44.2999C189.55 43.0999 188.35 42.3999 187.15 42.7499ZM195.75 24.6499C194.6 21.8999 193.45 20.1999 191.5 18.4499C190.9 17.8999 189.95 17.9499 189.35 18.4999C188.8 19.0999 188.8 19.9999 189.4 20.5999C191 22.0999 192.15 23.7999 192.95 25.8999C193.25 26.6999 194.15 27.0999 194.95 26.7499C195.7 26.3999 196.1 25.4999 195.75 24.6499ZM187.5 20.3999C186.85 19.7999 185.8 19.8999 185.25 20.5499C184.65 21.1499 184.75 22.1499 185.4 22.6999C187 24.1499 188 25.6499 188.8 27.7499C189.1 28.5999 190 28.9999 190.8 28.6499C191.6 28.2999 192.05 27.3499 191.7 26.4999C190.6 23.9499 189.3 22.0499 187.5 20.3999Z"/>
<path d="M232.4 9.4499L232.8 8.6999C233.35 7.6999 232.9 6.3999 231.8 5.8999C230.8 5.3999 229.55 5.8499 229 6.8499C227.9 8.5999 226.4 10.2999 224.3 11.9999C224.35 11.8499 224.4 11.6499 224.4 11.4499C224.4 10.3499 223.5 9.4499 222.4 9.4499H211.85C211.9 9.2999 212 9.1999 212.05 9.0499C212.55 7.9499 212 6.6499 210.85 6.1499C209.8 5.6999 208.55 6.2499 208.05 7.2999C206.95 9.6499 205.05 11.9999 202.55 13.8999C201.65 14.5499 201.35 15.7999 201.85 16.7499C202.35 17.7999 203.6 18.1999 204.55 17.5999C206.25 16.5499 207.85 15.1499 209.2 13.4499H214.15C214.8 14.3499 215.5 15.3499 216 16.2999C216.5 17.1499 217.55 17.5499 218.35 17.1999C219.35 16.7499 219.75 15.6999 219.35 14.8499C219.15 14.3999 218.9 13.8999 218.65 13.4499H222.4C222.6 13.4499 222.8 13.3999 223 13.3499C222.75 13.9999 222.75 14.7499 223.15 15.3499C223.75 16.3499 225.05 16.6999 225.95 16.0499C227 15.3999 228.15 14.4999 229.25 13.4499H232.55C233.2 14.2999 233.8 15.2499 234.45 16.3499C234.95 17.1999 236 17.5499 236.85 17.1499C237.85 16.6499 238.25 15.5999 237.8 14.7499C237.55 14.2999 237.3 13.8499 237.05 13.4499H243.4C244.5 13.4499 245.45 12.5499 245.45 11.4499C245.45 10.2999 244.5 9.4499 243.4 9.4499H232.4ZM222.7 20.8499C222.7 18.9999 221.2 17.5499 219.4 17.5499H208.6C206.75 17.5499 205.3 19.0499 205.3 20.8499V48.0499C205.3 49.2499 206.25 50.1999 207.45 50.1999C208.6 50.1999 209.55 49.1999 209.55 48.0499V31.3999H219.4C221.25 31.3999 222.7 29.8999 222.7 28.0999V20.8499ZM228.6 17.5499C226.75 17.5499 225.3 19.0499 225.3 20.8499V28.0999C225.3 29.8999 226.8 31.3999 228.6 31.3999H238.45V45.2499C238.45 46.0499 238.4 46.0999 236.9 46.0499C235.75 45.9999 234.75 46.8999 234.7 48.0499C234.6 49.2499 235.5 50.2999 236.7 50.2999C240.8 50.4499 242.7 48.7999 242.7 45.2499V20.8499C242.7 18.9999 241.2 17.5499 239.4 17.5499H228.6ZM218.85 22.7499H209.35V21.1999H218.85V22.7499ZM238.65 22.7499H229.15V21.1999H238.65V22.7499ZM209.35 26.1499H218.85V27.6999H209.35V26.1499ZM229.15 26.1499H238.65V27.6999H229.15V26.1499ZM219.15 33.0499C217.3 33.0499 215.85 34.5499 215.85 36.3499V44.4499C215.85 46.2999 217.35 47.7499 219.15 47.7499H228.85C230.7 47.7499 232.15 46.2499 232.15 44.4499V36.3499C232.15 34.4999 230.65 33.0499 228.85 33.0499H219.15ZM228.35 38.5999H219.65V36.7499H228.35V38.5999ZM219.65 42.1499H228.35V43.9999H219.65V42.1499Z"/>
<path d="M268.05 28.8999C268.8 27.9999 269.45 26.9999 269.95 26.0499H285.2C287 26.0499 288.5 24.5499 288.5 22.7499V10.7499C288.5 8.8999 287 7.4499 285.2 7.4499H262.8C261 7.4499 259.5 8.9499 259.5 10.7499V22.7499C259.5 24.5499 261 26.0499 262.8 26.0499H264.8C262.35 29.3999 257.95 32.5499 254.15 34.1499C253 34.6499 252.4 35.8499 252.7 36.9999C253.05 38.1999 254.3 38.7999 255.4 38.3499C258.3 37.0999 261.25 35.2999 263.9 33.0999H269.15C266.9 36.1999 262.8 39.7499 257.7 41.8499C256.6 42.2999 256.05 43.5499 256.4 44.6499C256.75 45.7999 257.95 46.4499 259.05 45.9999C264.35 43.9499 271.55 38.3499 274.2 33.0999H278.6C276.3 37.9499 271.55 42.6999 266.05 45.5499C265 46.0499 264.55 47.3499 265 48.3999C265.5 49.4999 266.8 49.9999 267.85 49.4999C273.7 46.7499 280.8 39.7999 283.25 33.0999H288.4C288.2 35.5499 287.9 38.5499 287.5 42.3999C287.2 44.9999 285.5 45.8499 281.15 45.5499C280 45.4999 278.95 46.2999 278.8 47.4499C278.65 48.5999 279.45 49.6999 280.6 49.7999C287.2 50.3999 291.2 47.9499 291.75 42.8999C292.25 38.2499 292.6 34.8999 292.75 32.1999C292.9 30.3999 291.45 28.8999 289.6 28.8999H268.05ZM284.2 14.6999H263.8V11.6499H284.2V14.6999ZM284.2 18.7499V21.7999H263.8V18.7499H284.2Z"/>
<path d="M335.9 16.2499C325.1 16.2499 316.05 18.1499 307.25 17.3999C306.05 17.2999 304.9 18.1499 304.75 19.3999C304.65 20.6499 305.55 21.8499 306.8 21.9499C315.4 22.8499 323.5 20.4999 335.4 20.4999C339.6 20.4999 339.65 21.7499 335.45 25.7499C331.25 29.6999 327.65 31.8999 324.8 33.3999C322.95 31.5999 321 30.0999 319 28.9999C317.9 28.4499 316.45 28.8499 315.75 29.9999C315.15 31.0999 315.55 32.4499 316.65 32.9999C321.8 35.6999 324.05 38.6499 328.75 45.8999C329.45 46.9499 330.85 47.2499 331.85 46.5499C332.9 45.7999 333.2 44.3499 332.55 43.2999C331.25 41.1499 329.65 38.8499 327.8 36.6499C330.35 35.1499 334.3 32.5999 338.45 29.0499C344.7 23.6999 346.2 16.2499 335.9 16.2499Z"/>
<path d="M370.8 24.9999C371.75 23.9499 371.7 22.3499 370.7 21.4999C368.2 19.3499 363.9 16.9999 359.5 16.3999C358.2 16.2499 357.05 17.1999 356.9 18.5499C356.75 19.7999 357.65 20.8999 358.9 21.0999C362.3 21.6499 365.3 22.9999 367.5 24.9999C368.45 25.8999 369.95 25.8999 370.8 24.9999ZM359.55 45.9499C372.2 43.2499 385.15 34.2999 392.5 24.5499C393.3 23.4999 393.05 21.9999 392.05 21.1499C391 20.3499 389.55 20.5499 388.75 21.5999C380.25 32.9999 367.8 39.1999 358.95 41.2999C357.65 41.5999 356.8 42.7999 356.95 44.0499C357.1 45.2999 358.3 46.1999 359.55 45.9499Z"/>
<path d="M418.8 20.5499C419.8 21.1499 421.1 20.8499 421.6 19.7999C422.2 18.6999 421.85 17.2999 420.85 16.6499C418.1 14.8999 414.65 13.6999 411.4 13.3499C410.2 13.1999 409.15 14.0999 408.95 15.3499C408.8 16.4499 409.65 17.4999 410.8 17.6999C413.7 18.0999 416.5 19.0499 418.8 20.5499ZM412.15 47.4999C423.65 44.5499 435.7 35.0999 441.05 26.6999C441.75 25.5999 441.5 24.1499 440.4 23.2999C439.4 22.5499 438 22.7999 437.3 23.8999C430.85 33.8499 419.25 40.6499 410.85 42.9499C409.6 43.2999 408.9 44.5499 409.25 45.7499C409.6 46.9999 410.9 47.7999 412.15 47.4999ZM415.9 31.3999C417 31.8499 418.3 31.3999 418.75 30.3499C419.25 29.1499 418.8 27.7999 417.65 27.2999C415.05 26.1499 411.45 25.3499 408.4 25.1999C407.15 25.1499 406.15 26.1999 406.1 27.4499C406.05 28.5999 407 29.5999 408.2 29.6499C410.6 29.7999 413.65 30.4499 415.9 31.3999Z"/>
<path d="M478.15 21.3499C474.25 21.4999 469.05 21.5999 463.95 21.3499C462.8 21.2999 461.8 22.1999 461.7 23.3499C461.65 24.5499 462.55 25.4999 463.75 25.5499C468.35 25.7499 474.4 25.7499 478.35 25.5499C481.15 25.3499 481.35 25.5499 481.35 28.6499V31.5999C480.15 31.2499 478.85 31.2499 477.55 31.1999H464.9C463.8 31.1999 462.9 32.1499 462.9 33.2499C462.9 34.3999 463.85 35.2999 464.95 35.2999C468.3 35.2499 475.55 35.2499 477.5 35.2999C479.15 35.2999 480.3 35.3999 481.35 35.8999V40.7499H463.85C462.7 40.7499 461.7 41.6999 461.7 42.8499C461.7 44.0499 462.7 44.9999 463.85 44.9999H481.4C481.55 46.0499 482.45 46.7999 483.5 46.7999C484.65 46.7999 485.6 45.8499 485.6 44.6499V28.6499C485.6 22.8999 483.65 20.9499 478.15 21.3499Z"/>
<path d="M520.8 24.9999C521.75 23.9499 521.7 22.3499 520.7 21.4999C518.2 19.3499 513.9 16.9999 509.5 16.3999C508.2 16.2499 507.05 17.1999 506.9 18.5499C506.75 19.7999 507.65 20.8999 508.9 21.0999C512.3 21.6499 515.3 22.9999 517.5 24.9999C518.45 25.8999 519.95 25.8999 520.8 24.9999ZM509.55 45.9499C522.2 43.2499 535.15 34.2999 542.5 24.5499C543.3 23.4999 543.05 21.9999 542.05 21.1499C541 20.3499 539.55 20.5499 538.75 21.5999C530.25 32.9999 517.8 39.1999 508.95 41.2999C507.65 41.5999 506.8 42.7999 506.95 44.0499C507.1 45.2999 508.3 46.1999 509.55 45.9499Z"/>
<path d="M595.45 11.4499C595.45 10.2999 594.5 9.4499 593.4 9.4499H582.35L582.5 9.1999C583.15 8.1499 582.8 6.7999 581.65 6.1499C580.65 5.5999 579.4 6.0499 578.8 7.0999C577.85 8.8499 576.3 10.5499 574.3 12.0999C574.35 11.8999 574.4 11.6999 574.4 11.4499C574.4 10.3499 573.5 9.4499 572.4 9.4499H561.8C561.95 9.1999 562.05 8.8999 562.2 8.6499C562.65 7.5999 562.1 6.3999 561 5.9999C559.95 5.6499 558.75 6.1999 558.2 7.2499C556.95 9.6999 555.05 12.0499 552.7 13.8499C551.8 14.4999 551.5 15.6999 551.9 16.6999C552.4 17.6999 553.6 18.0999 554.5 17.4999C556.25 16.3999 557.8 15.0499 559.15 13.4499H563.4C564.25 14.4999 565.15 15.7999 565.8 17.0499C566.35 17.9999 567.5 18.4499 568.45 18.0499C569.5 17.5499 570 16.3999 569.55 15.3999C569.25 14.7499 568.9 14.0999 568.5 13.4499H572.4C572.65 13.4499 572.9 13.3999 573.15 13.2999C572.85 13.8999 572.9 14.6499 573.2 15.2499C573.45 15.6999 573.85 15.9999 574.3 16.1499H574C572.8 16.1499 571.85 17.0999 571.85 18.2999V19.2999H557.45C555.6 19.2999 554.15 20.7999 554.15 22.5999V26.6999C554.15 27.8999 555.15 28.8499 556.3 28.8499C557.45 28.8499 558.45 27.8999 558.45 26.6999V23.3999H589.55V26.6999C589.55 27.8499 590.5 28.8499 591.7 28.8499C592.9 28.8499 593.85 27.8499 593.85 26.6999V22.5999C593.85 20.7999 592.35 19.2999 590.55 19.2999H576.15V18.2999C576.15 17.3499 575.55 16.5999 574.7 16.2999C575.15 16.3499 575.6 16.2499 575.95 15.9999C577.05 15.2499 578.1 14.3499 579 13.4499H581.5C582.45 14.4999 583.5 15.8999 584.3 17.3499C584.85 18.2999 586 18.6999 586.95 18.2499C588.05 17.7499 588.5 16.5499 587.95 15.5499C587.6 14.8499 587.15 14.1499 586.65 13.4499H593.4C594.5 13.4499 595.45 12.5499 595.45 11.4499ZM565.65 37.3999V35.4499H583C584.8 35.4499 586.3 33.9499 586.3 32.1499V28.3499C586.3 26.4999 584.8 25.0499 583 25.0499H564.6C562.75 25.0499 561.3 26.5499 561.3 28.3499V46.4499C561.3 48.1999 562.75 49.7499 564.6 49.7499H586.4C588.25 49.7499 589.7 48.1999 589.7 46.4499V40.6999C589.7 38.8499 588.2 37.3999 586.4 37.3999H565.65ZM581.95 28.9499V31.5499H565.65V28.9499H581.95ZM565.65 45.7499V41.3499H585.35V45.7499H565.65Z"/>
<path d="M633.1 45.1499V40.3999H640.55C641.75 40.3999 642.75 39.3999 642.75 38.2499C642.75 37.0499 641.75 36.0499 640.55 36.0499H633.1V31.1499H639.85C641.7 31.1499 643.15 29.6499 643.15 27.8499V11.2499C643.15 9.3999 641.65 7.9499 639.85 7.9499H622.05C620.25 7.9499 618.75 9.4499 618.75 11.2499V27.8499C618.75 29.6999 620.3 31.1499 622.05 31.1499H628.8V36.0499H621.35C620.15 36.0499 619.15 37.0499 619.15 38.2499C619.15 39.3999 620.15 40.3999 621.35 40.3999H628.8V45.1499H618.5C617.3 45.1499 616.35 46.1499 616.35 47.3499C616.35 48.5499 617.35 49.5499 618.5 49.5499H643.4C644.55 49.5499 645.55 48.5499 645.55 47.3499C645.55 46.1499 644.6 45.1499 643.4 45.1499H633.1ZM618.75 38.0999C618.4 36.9999 617.1 36.4999 616.05 37.0999C615 37.6499 613.8 38.2499 612.5 38.8499V26.6999H615.5C616.7 26.6999 617.65 25.6999 617.65 24.4999C617.65 23.2999 616.65 22.2999 615.5 22.2999H612.5V13.6499H615.75C616.95 13.6499 617.95 12.6999 617.95 11.4999C617.95 10.2499 616.95 9.2999 615.75 9.2999H604.8C603.6 9.2999 602.65 10.2999 602.65 11.4999C602.65 12.6499 603.6 13.6499 604.8 13.6499H608.05V22.2999H605.1C603.85 22.2999 602.9 23.2999 602.9 24.4999C602.9 25.6999 603.9 26.6999 605.1 26.6999H608.05V40.5999C606.7 41.0499 605.35 41.4499 603.95 41.7999C602.75 42.0499 602 43.2499 602.2 44.3999C602.45 45.6499 603.65 46.4499 604.85 46.1499C608.85 45.1999 614.05 43.1499 617.5 41.3499C618.6 40.7499 619.15 39.3999 618.75 38.0999ZM628.8 17.4999H623.1V12.1499H628.8V17.4999ZM633.1 17.4999V12.1499H638.8V17.4999H633.1ZM623.1 21.5999H628.8V26.9499H623.1V21.5999ZM633.1 21.5999H638.8V26.9499H633.1V21.5999Z"/>
<path d="M669.15 17.5499C669.7 14.8999 670.15 12.3499 670.4 9.8999C670.5 8.6999 669.6 7.6499 668.45 7.5499C667.3 7.4999 666.25 8.3499 666.15 9.4999C665.85 12.3499 665.4 15.3499 664.8 18.3499C662.15 18.8499 660.25 18.9499 657.65 18.6999C656.45 18.6499 655.4 19.4499 655.25 20.5999C655.15 21.8499 656 22.8999 657.15 22.9499C659.65 23.1499 661.65 23.0499 663.75 22.7499C661.7 30.4999 658.55 38.2499 654.3 44.6999C653.65 45.6499 653.9 46.9999 654.8 47.6999C655.8 48.3999 657.15 48.1499 657.8 47.1499C662.25 40.3499 665.9 30.9499 668.2 21.8499C675.8 20.2999 675.8 23.5999 675.6 25.4499C673.85 41.8999 672.4 44.0999 666.1 40.7499C665 40.1499 663.7 40.5499 663.15 41.5999C662.55 42.6999 662.95 44.0499 664 44.5999C670.9 48.0999 675.55 46.2999 677.55 39.3499C678.25 36.8999 679.45 31.0999 679.85 25.8499C680.15 22.6499 679.55 16.1999 669.15 17.5499ZM696 14.3999C694.8 11.5999 693.65 9.8999 691.75 8.1499C691.1 7.5999 690.15 7.6499 689.6 8.2499C689 8.7999 689.05 9.7499 689.65 10.2999C691.25 11.8499 692.35 13.5499 693.15 15.5999C693.5 16.4499 694.4 16.7999 695.15 16.4499C695.95 16.1499 696.35 15.1999 696 14.3999ZM689 17.4999C689.3 18.2999 690.25 18.6999 691.05 18.3499C691.85 17.9999 692.25 17.0499 691.9 16.1999C690.85 13.6999 689.5 11.7499 687.7 10.0999C687.05 9.4999 686.05 9.5999 685.45 10.2499C684.9 10.8999 685 11.8499 685.6 12.4499C687.2 13.8499 688.2 15.3499 689 17.4999ZM685.25 17.6999C684.35 16.6499 682.8 16.5499 681.7 17.4499C680.75 18.2499 680.65 19.6999 681.55 20.6999C685.15 24.5499 688.95 30.6999 690.75 37.2499C691.1 38.4999 692.4 39.2499 693.65 38.8499C694.95 38.3499 695.7 36.9499 695.25 35.7499C693.45 30.1499 688.85 21.9999 685.25 17.6999Z"/>
<path d="M737.15 42.7499C733.15 43.8499 727.8 43.5999 724.35 39.0999C719.55 32.8499 723.55 23.4499 733.25 17.3499C735.4 16.8499 737.4 16.2499 739.3 15.5499C740.45 15.0999 741 13.7999 740.55 12.6499C740.05 11.5499 738.8 10.9999 737.65 11.3999C729.4 14.3999 719.7 15.4499 708.85 14.5999C707.65 14.4999 706.55 15.3999 706.4 16.5999C706.3 17.8499 707.2 18.9499 708.4 18.9999C714.3 19.4999 720.1 19.3999 725.5 18.7499C716.65 26.7499 717 36.2999 720.45 41.2499C724.1 46.5499 731.15 48.9499 738.05 47.1999C739.3 46.8999 740.05 45.5999 739.8 44.2999C739.55 43.0999 738.35 42.3999 737.15 42.7499ZM745.75 24.6499C744.6 21.8999 743.45 20.1999 741.5 18.4499C740.9 17.8999 739.95 17.9499 739.35 18.4999C738.8 19.0999 738.8 19.9999 739.4 20.5999C741 22.0999 742.15 23.7999 742.95 25.8999C743.25 26.6999 744.15 27.0999 744.95 26.7499C745.7 26.3999 746.1 25.4999 745.75 24.6499ZM737.5 20.3999C736.85 19.7999 735.8 19.8999 735.25 20.5499C734.65 21.1499 734.75 22.1499 735.4 22.6999C737 24.1499 738 25.6499 738.8 27.7499C739.1 28.5999 740 28.9999 740.8 28.6499C741.6 28.2999 742.05 27.3499 741.7 26.4999C740.6 23.9499 739.3 22.0499 737.5 20.3999Z"/>
<path d="M789.05 20.8499C788.5 19.8499 787.2 19.4999 786.15 20.0999C784.2 21.2499 782 22.1999 779.6 22.9499C778.95 21.4499 778.2 19.9999 777.45 18.5499C779.3 17.9999 780.95 17.3499 782.4 16.5499C783.45 15.9499 783.9 14.5999 783.35 13.4999C782.85 12.4499 781.55 12.0499 780.5 12.5999C778.85 13.4499 777.15 14.1499 775.3 14.6999C774.2 12.7999 773 11.0999 771.9 9.6999C771.15 8.7499 769.75 8.6999 768.9 9.5499C768.05 10.2999 768 11.6499 768.7 12.5999C769.45 13.4999 770.15 14.5499 770.9 15.6999C768.1 16.1499 764.95 16.2999 761.4 16.1999C760.2 16.1999 759.2 17.0999 759.15 18.2999C759.1 19.4999 760.05 20.4999 761.2 20.4999C765.2 20.5999 769.35 20.2999 773.15 19.5999C773.95 21.0499 774.7 22.5499 775.4 24.0499C771.05 24.9999 766.05 25.3999 760.4 25.2499C759.25 25.2499 758.25 26.1499 758.2 27.3499C758.15 28.5499 759.05 29.5499 760.25 29.5999C765.65 29.7499 771.65 29.2999 777.2 28.0499C778.2 30.4999 779.1 32.8999 779.85 35.0499C766 29.8999 757.05 36.4999 758.25 42.0499C759.25 46.3999 766.45 50.0999 781.95 47.1499C783.1 46.9499 783.8 45.7999 783.55 44.6499C783.3 43.4999 782.1 42.7499 781 42.9999C777.25 43.7999 774.85 43.9499 772.3 43.9499C759.75 43.8999 760.6 39.1999 766.8 37.5499C770.35 36.5499 775.6 36.7499 781.1 39.4999C782 39.9499 783 39.9499 783.85 39.4999C784.7 39.0999 785.15 38.0999 784.9 37.1999C784.15 34.2499 782.9 30.6499 781.35 26.9499C783.9 26.0999 786.3 25.0999 788.3 23.8999C789.35 23.2999 789.65 21.8999 789.05 20.8499Z"/>
<path d="M807.65 49.8499C809.5 52.8999 813.95 49.8499 811.95 47.0499C809.85 43.8999 807.55 41.6499 805.2 39.7999C802.7 37.8499 799.45 41.5499 802.1 43.6499C804.15 45.2499 806.05 47.3499 807.65 49.8499Z"/>
<path d="M895.45 11.4499C895.45 10.2999 894.5 9.4499 893.4 9.4499H882.35L882.5 9.1999C883.15 8.1499 882.8 6.7999 881.65 6.1499C880.65 5.5999 879.4 6.0499 878.8 7.0999C877.85 8.8499 876.3 10.5499 874.3 12.0999C874.35 11.8999 874.4 11.6999 874.4 11.4499C874.4 10.3499 873.5 9.4499 872.4 9.4499H861.8C861.95 9.1999 862.05 8.8999 862.2 8.6499C862.65 7.5999 862.1 6.3999 861 5.9999C859.95 5.6499 858.75 6.1999 858.2 7.2499C856.95 9.6999 855.05 12.0499 852.7 13.8499C851.8 14.4999 851.5 15.6999 851.9 16.6999C852.4 17.6999 853.6 18.0999 854.5 17.4999C856.25 16.3999 857.8 15.0499 859.15 13.4499H863.4C864.25 14.4999 865.15 15.7999 865.8 17.0499C866.35 17.9999 867.5 18.4499 868.45 18.0499C869.5 17.5499 870 16.3999 869.55 15.3999C869.25 14.7499 868.9 14.0999 868.5 13.4499H872.4C872.65 13.4499 872.9 13.3999 873.15 13.2999C872.85 13.8999 872.9 14.6499 873.2 15.2499C873.45 15.6999 873.85 15.9999 874.3 16.1499H874C872.8 16.1499 871.85 17.0999 871.85 18.2999V19.2999H857.45C855.6 19.2999 854.15 20.7999 854.15 22.5999V26.6999C854.15 27.8999 855.15 28.8499 856.3 28.8499C857.45 28.8499 858.45 27.8999 858.45 26.6999V23.3999H889.55V26.6999C889.55 27.8499 890.5 28.8499 891.7 28.8499C892.9 28.8499 893.85 27.8499 893.85 26.6999V22.5999C893.85 20.7999 892.35 19.2999 890.55 19.2999H876.15V18.2999C876.15 17.3499 875.55 16.5999 874.7 16.2999C875.15 16.3499 875.6 16.2499 875.95 15.9999C877.05 15.2499 878.1 14.3499 879 13.4499H881.5C882.45 14.4999 883.5 15.8999 884.3 17.3499C884.85 18.2999 886 18.6999 886.95 18.2499C888.05 17.7499 888.5 16.5499 887.95 15.5499C887.6 14.8499 887.15 14.1499 886.65 13.4499H893.4C894.5 13.4499 895.45 12.5499 895.45 11.4499ZM865.65 37.3999V35.4499H883C884.8 35.4499 886.3 33.9499 886.3 32.1499V28.3499C886.3 26.4999 884.8 25.0499 883 25.0499H864.6C862.75 25.0499 861.3 26.5499 861.3 28.3499V46.4499C861.3 48.1999 862.75 49.7499 864.6 49.7499H886.4C888.25 49.7499 889.7 48.1999 889.7 46.4499V40.6999C889.7 38.8499 888.2 37.3999 886.4 37.3999H865.65ZM881.95 28.9499V31.5499H865.65V28.9499H881.95ZM865.65 45.7499V41.3499H885.35V45.7499H865.65Z"/>
<path d="M933.1 45.1499V40.3999H940.55C941.75 40.3999 942.75 39.3999 942.75 38.2499C942.75 37.0499 941.75 36.0499 940.55 36.0499H933.1V31.1499H939.85C941.7 31.1499 943.15 29.6499 943.15 27.8499V11.2499C943.15 9.3999 941.65 7.9499 939.85 7.9499H922.05C920.25 7.9499 918.75 9.4499 918.75 11.2499V27.8499C918.75 29.6999 920.3 31.1499 922.05 31.1499H928.8V36.0499H921.35C920.15 36.0499 919.15 37.0499 919.15 38.2499C919.15 39.3999 920.15 40.3999 921.35 40.3999H928.8V45.1499H918.5C917.3 45.1499 916.35 46.1499 916.35 47.3499C916.35 48.5499 917.35 49.5499 918.5 49.5499H943.4C944.55 49.5499 945.55 48.5499 945.55 47.3499C945.55 46.1499 944.6 45.1499 943.4 45.1499H933.1ZM918.75 38.0999C918.4 36.9999 917.1 36.4999 916.05 37.0999C915 37.6499 913.8 38.2499 912.5 38.8499V26.6999H915.5C916.7 26.6999 917.65 25.6999 917.65 24.4999C917.65 23.2999 916.65 22.2999 915.5 22.2999H912.5V13.6499H915.75C916.95 13.6499 917.95 12.6999 917.95 11.4999C917.95 10.2499 916.95 9.2999 915.75 9.2999H904.8C903.6 9.2999 902.65 10.2999 902.65 11.4999C902.65 12.6499 903.6 13.6499 904.8 13.6499H908.05V22.2999H905.1C903.85 22.2999 902.9 23.2999 902.9 24.4999C902.9 25.6999 903.9 26.6999 905.1 26.6999H908.05V40.5999C906.7 41.0499 905.35 41.4499 903.95 41.7999C902.75 42.0499 902 43.2499 902.2 44.3999C902.45 45.6499 903.65 46.4499 904.85 46.1499C908.85 45.1999 914.05 43.1499 917.5 41.3499C918.6 40.7499 919.15 39.3999 918.75 38.0999ZM928.8 17.4999H923.1V12.1499H928.8V17.4999ZM933.1 17.4999V12.1499H938.8V17.4999H933.1ZM923.1 21.5999H928.8V26.9499H923.1V21.5999ZM933.1 21.5999H938.8V26.9499H933.1V21.5999Z"/>
<path d="M994.5 21.8999C987.9 18.7999 980.85 12.8999 976 8.0999C974.75 6.8999 972.75 6.9499 971.55 8.2999C967.45 12.8999 960.2 19.2499 953.55 21.9999C952.4 22.4499 951.8 23.6999 952.1 24.8499C952.4 26.0499 953.7 26.6999 954.8 26.2499C961.5 23.4499 970.5 16.1999 973.95 12.1999C978.25 16.7499 986.55 22.9999 993.25 26.0999C994.35 26.5999 995.6 25.9999 995.9 24.7999C996.25 23.6499 995.65 22.3999 994.5 21.8999ZM982.2 25.4999C983.35 25.4999 984.3 24.4999 984.3 23.3499C984.3 22.1499 983.35 21.1999 982.2 21.1999H965.8C964.65 21.1999 963.7 22.1499 963.7 23.3499C963.7 24.5499 964.65 25.4999 965.8 25.4999H982.2ZM956.95 30.3499C955.8 30.3499 954.85 31.2999 954.85 32.4999C954.85 33.6999 955.8 34.6499 956.95 34.6499H969.4C967.1 38.1499 963.55 41.2999 959.3 43.4999C958.15 44.0999 957.5 45.3499 957.7 46.5499C957.85 47.7999 958.95 48.7499 960.2 48.6499C967.8 48.3499 977.7 46.9499 984.4 45.2999C985.05 46.4499 985.65 47.5999 986.1 48.5999C986.6 49.7499 987.95 50.1999 989 49.6499C990.1 48.9999 990.6 47.5999 990 46.4499C988.15 42.8999 985.25 38.5499 983.35 36.0999C982.55 35.0999 981.05 34.9499 980 35.7499C979.05 36.4999 979 37.8999 979.85 38.8499C980.5 39.5499 981.2 40.4499 981.9 41.4499C977.4 42.4999 971.45 43.4999 966.15 44.0999C969.5 41.6999 972.6 37.9499 974.4 34.6499H991.05C992.2 34.6499 993.15 33.6499 993.15 32.4999C993.15 31.2999 992.2 30.3499 991.05 30.3499H956.95Z"/>
<path d="M1019.85 38.9499C1020.85 38.2999 1021.2 36.9999 1020.65 35.9999C1019.2 33.4499 1016.95 30.4999 1014.75 28.4499C1017.1 25.1999 1019 21.4999 1020.1 17.2499C1020.55 15.5999 1019.2 13.9499 1017.45 13.9499H1014.2V8.5499C1014.2 7.2999 1013.2 6.3499 1012.05 6.3499C1010.85 6.3499 1009.85 7.2999 1009.85 8.5499V13.9499H1004.75C1003.55 13.9499 1002.6 14.9499 1002.6 16.0999C1002.6 17.2999 1003.55 18.2499 1004.75 18.2499H1015.2C1013.15 24.1499 1009.05 29.5499 1003.4 33.8499C1002.45 34.5499 1002.2 35.8999 1002.85 36.8499C1003.5 37.8999 1004.85 38.0999 1005.8 37.3999C1007.2 36.3499 1008.55 35.1999 1009.85 33.9999V47.8999C1009.85 49.1499 1010.85 50.0999 1012.05 50.0999C1013.25 50.0999 1014.2 49.0999 1014.2 47.8999V34.1499C1015.2 35.3499 1016.15 36.7499 1017.05 38.2499C1017.65 39.2499 1018.9 39.5499 1019.85 38.9499ZM1033.55 44.8999V25.7499H1041.2C1042.4 25.7499 1043.4 24.7499 1043.4 23.5499C1043.4 22.3499 1042.4 21.3499 1041.2 21.3499H1033.55V8.8999C1033.55 7.6999 1032.55 6.6999 1031.35 6.6999C1030.15 6.6999 1029.15 7.6499 1029.15 8.8999V21.3499H1021.65C1020.45 21.3499 1019.5 22.3499 1019.5 23.5499C1019.5 24.7499 1020.5 25.7499 1021.65 25.7499H1029.15V44.8999H1019.65C1018.4 44.8999 1017.45 45.8999 1017.45 47.0999C1017.45 48.2499 1018.4 49.2499 1019.65 49.2499H1043.25C1044.45 49.2499 1045.4 48.2499 1045.4 47.0999C1045.4 45.8999 1044.45 44.8999 1043.25 44.8999H1033.55Z"/>
<path d="M30.9498 100.15C29.8998 99.4999 28.5998 99.8499 27.9498 100.95C27.3998 101.95 27.7498 103.25 28.7498 103.9C33.3498 106.75 35.0998 109.9 34.4998 114.1C33.5998 119.85 24.3998 121.2 23.3998 114.35C23.2998 113.65 23.2498 113 23.1998 112.3C24.4998 112.35 25.8498 112.4 27.3498 112.4C28.5498 112.4 29.5498 111.4 29.5998 110.2C29.6498 109 28.6498 108.05 27.4498 108.1C25.9998 108.15 24.5998 108.2 23.2498 108.15C23.6998 101.2 25.6998 93.4999 23.1498 85.0499C22.7998 83.8499 21.4998 83.1999 20.2998 83.5499C19.1498 83.8999 18.5498 85.1499 18.8498 86.2999C20.8998 93.3999 19.3498 101.1 18.7998 107.8C15.4498 107.3 13.5998 106.35 15.0498 105.1C15.8998 104.35 16.1498 103.25 15.5998 102.45C14.9998 101.45 13.7998 101.1 12.8498 101.6C8.7998 103.8 8.9498 108.25 13.0998 110.4C14.3498 111.05 16.1998 111.5 18.6498 111.85C18.6498 114.95 19.1498 117.7 20.6998 119.9C24.6498 125.45 37.9498 124.9 38.9998 113.6C39.5498 107.3 34.6998 102.55 30.9498 100.15ZM16.3998 98.1999C17.4998 98.6499 18.7498 98.0499 19.1498 96.9499C19.4998 95.8499 18.9498 94.5999 17.8498 94.1499C16.1498 93.3999 14.0498 92.3499 12.4998 91.4499C11.3998 90.8499 10.0498 91.1999 9.4498 92.2499C8.84981 93.3999 9.1998 94.7999 10.2998 95.3999C12.1498 96.3999 14.6998 97.4999 16.3998 98.1999Z"/>
<path d="M93.5998 96.1499C93.5498 94.9499 92.4998 94.0499 91.2998 94.0999C89.3498 94.1999 86.7998 94.1999 83.8498 94.2499C83.8498 91.4499 83.8498 88.4999 83.9498 85.4499C83.9998 84.2499 82.9998 83.2499 81.7998 83.2499C80.5998 83.2499 79.5998 84.1999 79.5498 85.4499C79.4998 88.5999 79.4998 91.5499 79.4998 94.2999H68.6998C68.6998 92.0499 68.6498 89.4999 68.5498 86.5499C68.4998 85.2999 67.4498 84.2999 66.1998 84.3499C64.9998 84.3499 64.0498 85.3499 64.0998 86.5999C64.1998 89.0499 64.2498 91.6999 64.1998 94.3499C61.3998 94.3499 58.7498 94.3999 56.4998 94.4499C55.2498 94.4999 54.3498 95.5499 54.3998 96.7499C54.4498 97.9999 55.4498 98.8999 56.6998 98.8499C58.8498 98.7499 61.3998 98.6999 64.1998 98.6499C64.2498 103.4 64.3998 107.8 65.2998 110.6C65.6998 111.7 66.9498 112.3 68.1498 111.9C69.2498 111.6 69.8498 110.4 69.5498 109.3C68.7498 106.4 68.6998 103.2 68.6998 98.6499H79.4498C79.1998 108.15 77.8498 114.75 69.3998 119.3C68.2998 119.9 67.8498 121.2 68.3998 122.3C68.8998 123.4 70.2498 123.85 71.3498 123.3C81.8498 117.7 83.4998 109.15 83.7998 98.6499C86.7998 98.6499 89.4998 98.5999 91.4998 98.4999C92.7498 98.4499 93.6998 97.3999 93.5998 96.1499Z"/>
<path d="M137.8 91.6499C140.85 91.6499 143.4 89.1499 143.4 86.0499C143.4 82.9499 140.85 80.4499 137.8 80.4499C134.75 80.4499 132.2 82.9499 132.2 86.0499C132.2 89.0999 134.7 91.6499 137.8 91.6499ZM137.8 83.0499C139.45 83.0499 140.8 84.3499 140.8 86.0499C140.8 87.7499 139.45 89.0499 137.8 89.0499C136.1 89.0499 134.8 87.6999 134.8 86.0499C134.8 84.3499 136.15 83.0499 137.8 83.0499ZM139.95 96.7499C141.2 96.6499 142.1 95.5999 141.95 94.3499C141.85 93.1499 140.8 92.2499 139.6 92.2999C136.1 92.4999 131.3 92.6499 126.25 92.6999V86.4499C126.25 85.2499 125.25 84.1999 123.95 84.1999C122.7 84.1999 121.7 85.2499 121.7 86.4499V92.7499C116.85 92.7499 112.1 92.6999 108.35 92.5499C107.15 92.4999 106.1 93.4499 106.05 94.6499C105.95 95.8999 106.9 96.9499 108.15 96.9999C111.75 97.1499 116.7 97.1999 121.7 97.1999V119.55C121.7 120.8 122.75 121.8 123.95 121.8C125.25 121.8 126.25 120.75 126.25 119.55V97.1499C131.65 97.0499 136.75 96.9499 139.95 96.7499ZM117.25 102.9C116.3 102.1 114.85 102.3 114.1 103.35C111.9 106.35 108.15 110.1 104.9 112.55C103.9 113.3 103.6 114.7 104.25 115.7C104.95 116.8 106.35 117.1 107.35 116.35C110.85 113.8 115.4 109.2 117.7 106.3C118.5 105.25 118.3 103.75 117.25 102.9ZM133.4 103.25C132.55 102.35 131.1 102.3 130.25 103.15C129.35 103.95 129.25 105.4 130.1 106.3L139.15 116.05C140 116.95 141.4 117 142.3 116.15C143.2 115.35 143.3 113.9 142.45 113L133.4 103.25Z"/>
<path d="M189.6 105.7C190.8 105.7 191.8 104.75 191.8 103.5C191.8 102.3 190.8 101.3 189.6 101.3H158.4C157.2 101.3 156.2 102.25 156.2 103.5C156.2 104.7 157.2 105.7 158.4 105.7H189.6Z"/>
<path d="M239.3 107.55C235.2 103.25 229.05 99.3999 222.55 98.5999V86.9999C222.55 85.7499 221.5 84.6999 220.25 84.6999C219.05 84.6999 218 85.7499 218 86.9999V120.9C218 122.15 219.05 123.15 220.25 123.15C221.55 123.15 222.55 122.1 222.55 120.9V103C227.85 103.9 232.1 106.35 236.3 110.9C237.15 111.8 238.55 111.8 239.3 110.9C240.15 109.9 240.15 108.45 239.3 107.55Z"/>
<path d="M274 114.4C275.1 114.4 275.95 113.5 275.95 112.45L276.6 85.7499C276.65 84.2999 275.45 83.0999 274 83.0999C272.55 83.0999 271.35 84.2999 271.4 85.7499L272.05 112.45C272.05 113.5 272.9 114.4 274 114.4ZM274 123.7C275.9 123.7 277.45 122.15 277.45 120.3C277.45 118.4 275.9 116.85 274 116.85C272.15 116.85 270.55 118.4 270.55 120.3C270.55 122.2 272.15 123.7 274 123.7Z"/>
</mask>
<path d="M36.9998 12.4499C30.7998 12.1499 18.6998 14.6999 7.9498 14.1999C6.7498 14.1499 5.6998 15.0499 5.6498 16.2499C5.5498 17.4999 6.4998 18.5999 7.7498 18.6499C15.8498 19.0499 27.8998 16.8499 35.9998 16.6499C38.3998 16.5999 38.6998 18.0999 36.5998 19.9999C34.8498 21.5999 30.5498 23.9999 27.2998 25.4499C27.2498 24.7999 27.1998 24.1499 27.0998 23.4999C26.9498 22.2499 25.7998 21.3499 24.5498 21.4499C23.3498 21.4999 22.4498 22.5999 22.6498 23.8499C23.6498 30.3999 22.8498 37.7499 12.8998 43.7499C11.7998 44.3499 11.3998 45.7499 11.9998 46.7999C12.5998 47.8999 13.9498 48.2999 14.9998 47.6499C22.3998 43.1999 26.3998 37.5499 27.1998 30.2499C31.2498 28.3999 36.8998 25.2499 39.4498 23.0999C43.6998 19.5499 44.3998 12.7999 36.9998 12.4499Z" fill="#42210C"/>
<path d="M91.6498 16.3499C94.7498 16.3499 97.2498 13.7999 97.2498 10.7499C97.2498 7.6999 94.7498 5.1499 91.6498 5.1499C88.5998 5.1499 86.0498 7.6499 86.0498 10.7499C86.0498 13.7999 88.5498 16.3499 91.6498 16.3499ZM91.6498 13.7499C89.9998 13.7499 88.6498 12.3999 88.6498 10.7499C88.6498 9.0499 89.9998 7.7499 91.6498 7.7499C93.2998 7.7499 94.6498 9.0499 94.6498 10.7499C94.6498 12.3999 93.3498 13.7499 91.6498 13.7499ZM65.1998 47.6999C77.1498 42.5999 84.1998 35.2499 87.5498 24.4999C88.7998 20.3999 89.7498 13.7999 80.8498 12.6499C75.1998 11.9499 64.9998 12.8499 58.3498 14.1999C57.0998 14.4999 56.2998 15.6499 56.3998 16.9999C56.5998 18.1999 57.7498 19.0499 58.9498 18.7999C67.5498 16.9499 74.5998 16.2999 80.0998 16.9499C83.7998 17.3999 84.4498 18.7499 83.1498 23.1999C80.3998 32.5499 74.2998 38.7999 63.5498 43.4499C62.3498 43.9499 61.7998 45.2499 62.2498 46.3999C62.6998 47.5499 64.0498 48.1499 65.1998 47.6999Z" fill="#42210C"/>
<path d="M119.6 48.7499C126.1 46.1499 130.9 41.3499 133.6 34.7999C136.45 27.7999 135.25 15.5499 133.85 9.7499C133.55 8.5999 132.45 7.8999 131.25 8.0499C130.15 8.2499 129.35 9.2999 129.5 10.4499C131.5 24.5999 133.45 37.0999 118.05 44.3999C116.9 44.8999 116.3 46.1999 116.7 47.3999C117.15 48.5999 118.45 49.1999 119.6 48.7499ZM119.9 34.4999C120.8 33.7499 120.95 32.3999 120.3 31.2999C116.95 26.1999 117.1 18.5999 117.55 13.0499C117.65 11.7999 116.75 10.6999 115.5 10.6499C114.25 10.5999 113.2 11.5999 113.15 12.7999C112.8 19.3999 112.8 28.5999 116.65 34.0999C117.4 35.1499 118.9 35.2999 119.9 34.4999Z" fill="#42210C"/>
<path d="M187.15 42.7499C183.15 43.8499 177.8 43.5999 174.35 39.0999C169.55 32.8499 173.55 23.4499 183.25 17.3499C185.4 16.8499 187.4 16.2499 189.3 15.5499C190.45 15.0999 191 13.7999 190.55 12.6499C190.05 11.5499 188.8 10.9999 187.65 11.3999C179.4 14.3999 169.7 15.4499 158.85 14.5999C157.65 14.4999 156.55 15.3999 156.4 16.5999C156.3 17.8499 157.2 18.9499 158.4 18.9999C164.3 19.4999 170.1 19.3999 175.5 18.7499C166.65 26.7499 167 36.2999 170.45 41.2499C174.1 46.5499 181.15 48.9499 188.05 47.1999C189.3 46.8999 190.05 45.5999 189.8 44.2999C189.55 43.0999 188.35 42.3999 187.15 42.7499ZM195.75 24.6499C194.6 21.8999 193.45 20.1999 191.5 18.4499C190.9 17.8999 189.95 17.9499 189.35 18.4999C188.8 19.0999 188.8 19.9999 189.4 20.5999C191 22.0999 192.15 23.7999 192.95 25.8999C193.25 26.6999 194.15 27.0999 194.95 26.7499C195.7 26.3999 196.1 25.4999 195.75 24.6499ZM187.5 20.3999C186.85 19.7999 185.8 19.8999 185.25 20.5499C184.65 21.1499 184.75 22.1499 185.4 22.6999C187 24.1499 188 25.6499 188.8 27.7499C189.1 28.5999 190 28.9999 190.8 28.6499C191.6 28.2999 192.05 27.3499 191.7 26.4999C190.6 23.9499 189.3 22.0499 187.5 20.3999Z" fill="#42210C"/>
<path d="M232.4 9.4499L232.8 8.6999C233.35 7.6999 232.9 6.3999 231.8 5.8999C230.8 5.3999 229.55 5.8499 229 6.8499C227.9 8.5999 226.4 10.2999 224.3 11.9999C224.35 11.8499 224.4 11.6499 224.4 11.4499C224.4 10.3499 223.5 9.4499 222.4 9.4499H211.85C211.9 9.2999 212 9.1999 212.05 9.0499C212.55 7.9499 212 6.6499 210.85 6.1499C209.8 5.6999 208.55 6.2499 208.05 7.2999C206.95 9.6499 205.05 11.9999 202.55 13.8999C201.65 14.5499 201.35 15.7999 201.85 16.7499C202.35 17.7999 203.6 18.1999 204.55 17.5999C206.25 16.5499 207.85 15.1499 209.2 13.4499H214.15C214.8 14.3499 215.5 15.3499 216 16.2999C216.5 17.1499 217.55 17.5499 218.35 17.1999C219.35 16.7499 219.75 15.6999 219.35 14.8499C219.15 14.3999 218.9 13.8999 218.65 13.4499H222.4C222.6 13.4499 222.8 13.3999 223 13.3499C222.75 13.9999 222.75 14.7499 223.15 15.3499C223.75 16.3499 225.05 16.6999 225.95 16.0499C227 15.3999 228.15 14.4999 229.25 13.4499H232.55C233.2 14.2999 233.8 15.2499 234.45 16.3499C234.95 17.1999 236 17.5499 236.85 17.1499C237.85 16.6499 238.25 15.5999 237.8 14.7499C237.55 14.2999 237.3 13.8499 237.05 13.4499H243.4C244.5 13.4499 245.45 12.5499 245.45 11.4499C245.45 10.2999 244.5 9.4499 243.4 9.4499H232.4ZM222.7 20.8499C222.7 18.9999 221.2 17.5499 219.4 17.5499H208.6C206.75 17.5499 205.3 19.0499 205.3 20.8499V48.0499C205.3 49.2499 206.25 50.1999 207.45 50.1999C208.6 50.1999 209.55 49.1999 209.55 48.0499V31.3999H219.4C221.25 31.3999 222.7 29.8999 222.7 28.0999V20.8499ZM228.6 17.5499C226.75 17.5499 225.3 19.0499 225.3 20.8499V28.0999C225.3 29.8999 226.8 31.3999 228.6 31.3999H238.45V45.2499C238.45 46.0499 238.4 46.0999 236.9 46.0499C235.75 45.9999 234.75 46.8999 234.7 48.0499C234.6 49.2499 235.5 50.2999 236.7 50.2999C240.8 50.4499 242.7 48.7999 242.7 45.2499V20.8499C242.7 18.9999 241.2 17.5499 239.4 17.5499H228.6ZM218.85 22.7499H209.35V21.1999H218.85V22.7499ZM238.65 22.7499H229.15V21.1999H238.65V22.7499ZM209.35 26.1499H218.85V27.6999H209.35V26.1499ZM229.15 26.1499H238.65V27.6999H229.15V26.1499ZM219.15 33.0499C217.3 33.0499 215.85 34.5499 215.85 36.3499V44.4499C215.85 46.2999 217.35 47.7499 219.15 47.7499H228.85C230.7 47.7499 232.15 46.2499 232.15 44.4499V36.3499C232.15 34.4999 230.65 33.0499 228.85 33.0499H219.15ZM228.35 38.5999H219.65V36.7499H228.35V38.5999ZM219.65 42.1499H228.35V43.9999H219.65V42.1499Z" fill="#42210C"/>
<path d="M268.05 28.8999C268.8 27.9999 269.45 26.9999 269.95 26.0499H285.2C287 26.0499 288.5 24.5499 288.5 22.7499V10.7499C288.5 8.8999 287 7.4499 285.2 7.4499H262.8C261 7.4499 259.5 8.9499 259.5 10.7499V22.7499C259.5 24.5499 261 26.0499 262.8 26.0499H264.8C262.35 29.3999 257.95 32.5499 254.15 34.1499C253 34.6499 252.4 35.8499 252.7 36.9999C253.05 38.1999 254.3 38.7999 255.4 38.3499C258.3 37.0999 261.25 35.2999 263.9 33.0999H269.15C266.9 36.1999 262.8 39.7499 257.7 41.8499C256.6 42.2999 256.05 43.5499 256.4 44.6499C256.75 45.7999 257.95 46.4499 259.05 45.9999C264.35 43.9499 271.55 38.3499 274.2 33.0999H278.6C276.3 37.9499 271.55 42.6999 266.05 45.5499C265 46.0499 264.55 47.3499 265 48.3999C265.5 49.4999 266.8 49.9999 267.85 49.4999C273.7 46.7499 280.8 39.7999 283.25 33.0999H288.4C288.2 35.5499 287.9 38.5499 287.5 42.3999C287.2 44.9999 285.5 45.8499 281.15 45.5499C280 45.4999 278.95 46.2999 278.8 47.4499C278.65 48.5999 279.45 49.6999 280.6 49.7999C287.2 50.3999 291.2 47.9499 291.75 42.8999C292.25 38.2499 292.6 34.8999 292.75 32.1999C292.9 30.3999 291.45 28.8999 289.6 28.8999H268.05ZM284.2 14.6999H263.8V11.6499H284.2V14.6999ZM284.2 18.7499V21.7999H263.8V18.7499H284.2Z" fill="#42210C"/>
<path d="M335.9 16.2499C325.1 16.2499 316.05 18.1499 307.25 17.3999C306.05 17.2999 304.9 18.1499 304.75 19.3999C304.65 20.6499 305.55 21.8499 306.8 21.9499C315.4 22.8499 323.5 20.4999 335.4 20.4999C339.6 20.4999 339.65 21.7499 335.45 25.7499C331.25 29.6999 327.65 31.8999 324.8 33.3999C322.95 31.5999 321 30.0999 319 28.9999C317.9 28.4499 316.45 28.8499 315.75 29.9999C315.15 31.0999 315.55 32.4499 316.65 32.9999C321.8 35.6999 324.05 38.6499 328.75 45.8999C329.45 46.9499 330.85 47.2499 331.85 46.5499C332.9 45.7999 333.2 44.3499 332.55 43.2999C331.25 41.1499 329.65 38.8499 327.8 36.6499C330.35 35.1499 334.3 32.5999 338.45 29.0499C344.7 23.6999 346.2 16.2499 335.9 16.2499Z" fill="#42210C"/>
<path d="M370.8 24.9999C371.75 23.9499 371.7 22.3499 370.7 21.4999C368.2 19.3499 363.9 16.9999 359.5 16.3999C358.2 16.2499 357.05 17.1999 356.9 18.5499C356.75 19.7999 357.65 20.8999 358.9 21.0999C362.3 21.6499 365.3 22.9999 367.5 24.9999C368.45 25.8999 369.95 25.8999 370.8 24.9999ZM359.55 45.9499C372.2 43.2499 385.15 34.2999 392.5 24.5499C393.3 23.4999 393.05 21.9999 392.05 21.1499C391 20.3499 389.55 20.5499 388.75 21.5999C380.25 32.9999 367.8 39.1999 358.95 41.2999C357.65 41.5999 356.8 42.7999 356.95 44.0499C357.1 45.2999 358.3 46.1999 359.55 45.9499Z" fill="#42210C"/>
<path d="M418.8 20.5499C419.8 21.1499 421.1 20.8499 421.6 19.7999C422.2 18.6999 421.85 17.2999 420.85 16.6499C418.1 14.8999 414.65 13.6999 411.4 13.3499C410.2 13.1999 409.15 14.0999 408.95 15.3499C408.8 16.4499 409.65 17.4999 410.8 17.6999C413.7 18.0999 416.5 19.0499 418.8 20.5499ZM412.15 47.4999C423.65 44.5499 435.7 35.0999 441.05 26.6999C441.75 25.5999 441.5 24.1499 440.4 23.2999C439.4 22.5499 438 22.7999 437.3 23.8999C430.85 33.8499 419.25 40.6499 410.85 42.9499C409.6 43.2999 408.9 44.5499 409.25 45.7499C409.6 46.9999 410.9 47.7999 412.15 47.4999ZM415.9 31.3999C417 31.8499 418.3 31.3999 418.75 30.3499C419.25 29.1499 418.8 27.7999 417.65 27.2999C415.05 26.1499 411.45 25.3499 408.4 25.1999C407.15 25.1499 406.15 26.1999 406.1 27.4499C406.05 28.5999 407 29.5999 408.2 29.6499C410.6 29.7999 413.65 30.4499 415.9 31.3999Z" fill="#42210C"/>
<path d="M478.15 21.3499C474.25 21.4999 469.05 21.5999 463.95 21.3499C462.8 21.2999 461.8 22.1999 461.7 23.3499C461.65 24.5499 462.55 25.4999 463.75 25.5499C468.35 25.7499 474.4 25.7499 478.35 25.5499C481.15 25.3499 481.35 25.5499 481.35 28.6499V31.5999C480.15 31.2499 478.85 31.2499 477.55 31.1999H464.9C463.8 31.1999 462.9 32.1499 462.9 33.2499C462.9 34.3999 463.85 35.2999 464.95 35.2999C468.3 35.2499 475.55 35.2499 477.5 35.2999C479.15 35.2999 480.3 35.3999 481.35 35.8999V40.7499H463.85C462.7 40.7499 461.7 41.6999 461.7 42.8499C461.7 44.0499 462.7 44.9999 463.85 44.9999H481.4C481.55 46.0499 482.45 46.7999 483.5 46.7999C484.65 46.7999 485.6 45.8499 485.6 44.6499V28.6499C485.6 22.8999 483.65 20.9499 478.15 21.3499Z" fill="#42210C"/>
<path d="M520.8 24.9999C521.75 23.9499 521.7 22.3499 520.7 21.4999C518.2 19.3499 513.9 16.9999 509.5 16.3999C508.2 16.2499 507.05 17.1999 506.9 18.5499C506.75 19.7999 507.65 20.8999 508.9 21.0999C512.3 21.6499 515.3 22.9999 517.5 24.9999C518.45 25.8999 519.95 25.8999 520.8 24.9999ZM509.55 45.9499C522.2 43.2499 535.15 34.2999 542.5 24.5499C543.3 23.4999 543.05 21.9999 542.05 21.1499C541 20.3499 539.55 20.5499 538.75 21.5999C530.25 32.9999 517.8 39.1999 508.95 41.2999C507.65 41.5999 506.8 42.7999 506.95 44.0499C507.1 45.2999 508.3 46.1999 509.55 45.9499Z" fill="#42210C"/>
<path d="M595.45 11.4499C595.45 10.2999 594.5 9.4499 593.4 9.4499H582.35L582.5 9.1999C583.15 8.1499 582.8 6.7999 581.65 6.1499C580.65 5.5999 579.4 6.0499 578.8 7.0999C577.85 8.8499 576.3 10.5499 574.3 12.0999C574.35 11.8999 574.4 11.6999 574.4 11.4499C574.4 10.3499 573.5 9.4499 572.4 9.4499H561.8C561.95 9.1999 562.05 8.8999 562.2 8.6499C562.65 7.5999 562.1 6.3999 561 5.9999C559.95 5.6499 558.75 6.1999 558.2 7.2499C556.95 9.6999 555.05 12.0499 552.7 13.8499C551.8 14.4999 551.5 15.6999 551.9 16.6999C552.4 17.6999 553.6 18.0999 554.5 17.4999C556.25 16.3999 557.8 15.0499 559.15 13.4499H563.4C564.25 14.4999 565.15 15.7999 565.8 17.0499C566.35 17.9999 567.5 18.4499 568.45 18.0499C569.5 17.5499 570 16.3999 569.55 15.3999C569.25 14.7499 568.9 14.0999 568.5 13.4499H572.4C572.65 13.4499 572.9 13.3999 573.15 13.2999C572.85 13.8999 572.9 14.6499 573.2 15.2499C573.45 15.6999 573.85 15.9999 574.3 16.1499H574C572.8 16.1499 571.85 17.0999 571.85 18.2999V19.2999H557.45C555.6 19.2999 554.15 20.7999 554.15 22.5999V26.6999C554.15 27.8999 555.15 28.8499 556.3 28.8499C557.45 28.8499 558.45 27.8999 558.45 26.6999V23.3999H589.55V26.6999C589.55 27.8499 590.5 28.8499 591.7 28.8499C592.9 28.8499 593.85 27.8499 593.85 26.6999V22.5999C593.85 20.7999 592.35 19.2999 590.55 19.2999H576.15V18.2999C576.15 17.3499 575.55 16.5999 574.7 16.2999C575.15 16.3499 575.6 16.2499 575.95 15.9999C577.05 15.2499 578.1 14.3499 579 13.4499H581.5C582.45 14.4999 583.5 15.8999 584.3 17.3499C584.85 18.2999 586 18.6999 586.95 18.2499C588.05 17.7499 588.5 16.5499 587.95 15.5499C587.6 14.8499 587.15 14.1499 586.65 13.4499H593.4C594.5 13.4499 595.45 12.5499 595.45 11.4499ZM565.65 37.3999V35.4499H583C584.8 35.4499 586.3 33.9499 586.3 32.1499V28.3499C586.3 26.4999 584.8 25.0499 583 25.0499H564.6C562.75 25.0499 561.3 26.5499 561.3 28.3499V46.4499C561.3 48.1999 562.75 49.7499 564.6 49.7499H586.4C588.25 49.7499 589.7 48.1999 589.7 46.4499V40.6999C589.7 38.8499 588.2 37.3999 586.4 37.3999H565.65ZM581.95 28.9499V31.5499H565.65V28.9499H581.95ZM565.65 45.7499V41.3499H585.35V45.7499H565.65Z" fill="#42210C"/>
<path d="M633.1 45.1499V40.3999H640.55C641.75 40.3999 642.75 39.3999 642.75 38.2499C642.75 37.0499 641.75 36.0499 640.55 36.0499H633.1V31.1499H639.85C641.7 31.1499 643.15 29.6499 643.15 27.8499V11.2499C643.15 9.3999 641.65 7.9499 639.85 7.9499H622.05C620.25 7.9499 618.75 9.4499 618.75 11.2499V27.8499C618.75 29.6999 620.3 31.1499 622.05 31.1499H628.8V36.0499H621.35C620.15 36.0499 619.15 37.0499 619.15 38.2499C619.15 39.3999 620.15 40.3999 621.35 40.3999H628.8V45.1499H618.5C617.3 45.1499 616.35 46.1499 616.35 47.3499C616.35 48.5499 617.35 49.5499 618.5 49.5499H643.4C644.55 49.5499 645.55 48.5499 645.55 47.3499C645.55 46.1499 644.6 45.1499 643.4 45.1499H633.1ZM618.75 38.0999C618.4 36.9999 617.1 36.4999 616.05 37.0999C615 37.6499 613.8 38.2499 612.5 38.8499V26.6999H615.5C616.7 26.6999 617.65 25.6999 617.65 24.4999C617.65 23.2999 616.65 22.2999 615.5 22.2999H612.5V13.6499H615.75C616.95 13.6499 617.95 12.6999 617.95 11.4999C617.95 10.2499 616.95 9.2999 615.75 9.2999H604.8C603.6 9.2999 602.65 10.2999 602.65 11.4999C602.65 12.6499 603.6 13.6499 604.8 13.6499H608.05V22.2999H605.1C603.85 22.2999 602.9 23.2999 602.9 24.4999C602.9 25.6999 603.9 26.6999 605.1 26.6999H608.05V40.5999C606.7 41.0499 605.35 41.4499 603.95 41.7999C602.75 42.0499 602 43.2499 602.2 44.3999C602.45 45.6499 603.65 46.4499 604.85 46.1499C608.85 45.1999 614.05 43.1499 617.5 41.3499C618.6 40.7499 619.15 39.3999 618.75 38.0999ZM628.8 17.4999H623.1V12.1499H628.8V17.4999ZM633.1 17.4999V12.1499H638.8V17.4999H633.1ZM623.1 21.5999H628.8V26.9499H623.1V21.5999ZM633.1 21.5999H638.8V26.9499H633.1V21.5999Z" fill="#42210C"/>
<path d="M669.15 17.5499C669.7 14.8999 670.15 12.3499 670.4 9.8999C670.5 8.6999 669.6 7.6499 668.45 7.5499C667.3 7.4999 666.25 8.3499 666.15 9.4999C665.85 12.3499 665.4 15.3499 664.8 18.3499C662.15 18.8499 660.25 18.9499 657.65 18.6999C656.45 18.6499 655.4 19.4499 655.25 20.5999C655.15 21.8499 656 22.8999 657.15 22.9499C659.65 23.1499 661.65 23.0499 663.75 22.7499C661.7 30.4999 658.55 38.2499 654.3 44.6999C653.65 45.6499 653.9 46.9999 654.8 47.6999C655.8 48.3999 657.15 48.1499 657.8 47.1499C662.25 40.3499 665.9 30.9499 668.2 21.8499C675.8 20.2999 675.8 23.5999 675.6 25.4499C673.85 41.8999 672.4 44.0999 666.1 40.7499C665 40.1499 663.7 40.5499 663.15 41.5999C662.55 42.6999 662.95 44.0499 664 44.5999C670.9 48.0999 675.55 46.2999 677.55 39.3499C678.25 36.8999 679.45 31.0999 679.85 25.8499C680.15 22.6499 679.55 16.1999 669.15 17.5499ZM696 14.3999C694.8 11.5999 693.65 9.8999 691.75 8.1499C691.1 7.5999 690.15 7.6499 689.6 8.2499C689 8.7999 689.05 9.7499 689.65 10.2999C691.25 11.8499 692.35 13.5499 693.15 15.5999C693.5 16.4499 694.4 16.7999 695.15 16.4499C695.95 16.1499 696.35 15.1999 696 14.3999ZM689 17.4999C689.3 18.2999 690.25 18.6999 691.05 18.3499C691.85 17.9999 692.25 17.0499 691.9 16.1999C690.85 13.6999 689.5 11.7499 687.7 10.0999C687.05 9.4999 686.05 9.5999 685.45 10.2499C684.9 10.8999 685 11.8499 685.6 12.4499C687.2 13.8499 688.2 15.3499 689 17.4999ZM685.25 17.6999C684.35 16.6499 682.8 16.5499 681.7 17.4499C680.75 18.2499 680.65 19.6999 681.55 20.6999C685.15 24.5499 688.95 30.6999 690.75 37.2499C691.1 38.4999 692.4 39.2499 693.65 38.8499C694.95 38.3499 695.7 36.9499 695.25 35.7499C693.45 30.1499 688.85 21.9999 685.25 17.6999Z" fill="#42210C"/>
<path d="M737.15 42.7499C733.15 43.8499 727.8 43.5999 724.35 39.0999C719.55 32.8499 723.55 23.4499 733.25 17.3499C735.4 16.8499 737.4 16.2499 739.3 15.5499C740.45 15.0999 741 13.7999 740.55 12.6499C740.05 11.5499 738.8 10.9999 737.65 11.3999C729.4 14.3999 719.7 15.4499 708.85 14.5999C707.65 14.4999 706.55 15.3999 706.4 16.5999C706.3 17.8499 707.2 18.9499 708.4 18.9999C714.3 19.4999 720.1 19.3999 725.5 18.7499C716.65 26.7499 717 36.2999 720.45 41.2499C724.1 46.5499 731.15 48.9499 738.05 47.1999C739.3 46.8999 740.05 45.5999 739.8 44.2999C739.55 43.0999 738.35 42.3999 737.15 42.7499ZM745.75 24.6499C744.6 21.8999 743.45 20.1999 741.5 18.4499C740.9 17.8999 739.95 17.9499 739.35 18.4999C738.8 19.0999 738.8 19.9999 739.4 20.5999C741 22.0999 742.15 23.7999 742.95 25.8999C743.25 26.6999 744.15 27.0999 744.95 26.7499C745.7 26.3999 746.1 25.4999 745.75 24.6499ZM737.5 20.3999C736.85 19.7999 735.8 19.8999 735.25 20.5499C734.65 21.1499 734.75 22.1499 735.4 22.6999C737 24.1499 738 25.6499 738.8 27.7499C739.1 28.5999 740 28.9999 740.8 28.6499C741.6 28.2999 742.05 27.3499 741.7 26.4999C740.6 23.9499 739.3 22.0499 737.5 20.3999Z" fill="#42210C"/>
<path d="M789.05 20.8499C788.5 19.8499 787.2 19.4999 786.15 20.0999C784.2 21.2499 782 22.1999 779.6 22.9499C778.95 21.4499 778.2 19.9999 777.45 18.5499C779.3 17.9999 780.95 17.3499 782.4 16.5499C783.45 15.9499 783.9 14.5999 783.35 13.4999C782.85 12.4499 781.55 12.0499 780.5 12.5999C778.85 13.4499 777.15 14.1499 775.3 14.6999C774.2 12.7999 773 11.0999 771.9 9.6999C771.15 8.7499 769.75 8.6999 768.9 9.5499C768.05 10.2999 768 11.6499 768.7 12.5999C769.45 13.4999 770.15 14.5499 770.9 15.6999C768.1 16.1499 764.95 16.2999 761.4 16.1999C760.2 16.1999 759.2 17.0999 759.15 18.2999C759.1 19.4999 760.05 20.4999 761.2 20.4999C765.2 20.5999 769.35 20.2999 773.15 19.5999C773.95 21.0499 774.7 22.5499 775.4 24.0499C771.05 24.9999 766.05 25.3999 760.4 25.2499C759.25 25.2499 758.25 26.1499 758.2 27.3499C758.15 28.5499 759.05 29.5499 760.25 29.5999C765.65 29.7499 771.65 29.2999 777.2 28.0499C778.2 30.4999 779.1 32.8999 779.85 35.0499C766 29.8999 757.05 36.4999 758.25 42.0499C759.25 46.3999 766.45 50.0999 781.95 47.1499C783.1 46.9499 783.8 45.7999 783.55 44.6499C783.3 43.4999 782.1 42.7499 781 42.9999C777.25 43.7999 774.85 43.9499 772.3 43.9499C759.75 43.8999 760.6 39.1999 766.8 37.5499C770.35 36.5499 775.6 36.7499 781.1 39.4999C782 39.9499 783 39.9499 783.85 39.4999C784.7 39.0999 785.15 38.0999 784.9 37.1999C784.15 34.2499 782.9 30.6499 781.35 26.9499C783.9 26.0999 786.3 25.0999 788.3 23.8999C789.35 23.2999 789.65 21.8999 789.05 20.8499Z" fill="#42210C"/>
<path d="M807.65 49.8499C809.5 52.8999 813.95 49.8499 811.95 47.0499C809.85 43.8999 807.55 41.6499 805.2 39.7999C802.7 37.8499 799.45 41.5499 802.1 43.6499C804.15 45.2499 806.05 47.3499 807.65 49.8499Z" fill="#42210C"/>
<path d="M895.45 11.4499C895.45 10.2999 894.5 9.4499 893.4 9.4499H882.35L882.5 9.1999C883.15 8.1499 882.8 6.7999 881.65 6.1499C880.65 5.5999 879.4 6.0499 878.8 7.0999C877.85 8.8499 876.3 10.5499 874.3 12.0999C874.35 11.8999 874.4 11.6999 874.4 11.4499C874.4 10.3499 873.5 9.4499 872.4 9.4499H861.8C861.95 9.1999 862.05 8.8999 862.2 8.6499C862.65 7.5999 862.1 6.3999 861 5.9999C859.95 5.6499 858.75 6.1999 858.2 7.2499C856.95 9.6999 855.05 12.0499 852.7 13.8499C851.8 14.4999 851.5 15.6999 851.9 16.6999C852.4 17.6999 853.6 18.0999 854.5 17.4999C856.25 16.3999 857.8 15.0499 859.15 13.4499H863.4C864.25 14.4999 865.15 15.7999 865.8 17.0499C866.35 17.9999 867.5 18.4499 868.45 18.0499C869.5 17.5499 870 16.3999 869.55 15.3999C869.25 14.7499 868.9 14.0999 868.5 13.4499H872.4C872.65 13.4499 872.9 13.3999 873.15 13.2999C872.85 13.8999 872.9 14.6499 873.2 15.2499C873.45 15.6999 873.85 15.9999 874.3 16.1499H874C872.8 16.1499 871.85 17.0999 871.85 18.2999V19.2999H857.45C855.6 19.2999 854.15 20.7999 854.15 22.5999V26.6999C854.15 27.8999 855.15 28.8499 856.3 28.8499C857.45 28.8499 858.45 27.8999 858.45 26.6999V23.3999H889.55V26.6999C889.55 27.8499 890.5 28.8499 891.7 28.8499C892.9 28.8499 893.85 27.8499 893.85 26.6999V22.5999C893.85 20.7999 892.35 19.2999 890.55 19.2999H876.15V18.2999C876.15 17.3499 875.55 16.5999 874.7 16.2999C875.15 16.3499 875.6 16.2499 875.95 15.9999C877.05 15.2499 878.1 14.3499 879 13.4499H881.5C882.45 14.4999 883.5 15.8999 884.3 17.3499C884.85 18.2999 886 18.6999 886.95 18.2499C888.05 17.7499 888.5 16.5499 887.95 15.5499C887.6 14.8499 887.15 14.1499 886.65 13.4499H893.4C894.5 13.4499 895.45 12.5499 895.45 11.4499ZM865.65 37.3999V35.4499H883C884.8 35.4499 886.3 33.9499 886.3 32.1499V28.3499C886.3 26.4999 884.8 25.0499 883 25.0499H864.6C862.75 25.0499 861.3 26.5499 861.3 28.3499V46.4499C861.3 48.1999 862.75 49.7499 864.6 49.7499H886.4C888.25 49.7499 889.7 48.1999 889.7 46.4499V40.6999C889.7 38.8499 888.2 37.3999 886.4 37.3999H865.65ZM881.95 28.9499V31.5499H865.65V28.9499H881.95ZM865.65 45.7499V41.3499H885.35V45.7499H865.65Z" fill="#42210C"/>
<path d="M933.1 45.1499V40.3999H940.55C941.75 40.3999 942.75 39.3999 942.75 38.2499C942.75 37.0499 941.75 36.0499 940.55 36.0499H933.1V31.1499H939.85C941.7 31.1499 943.15 29.6499 943.15 27.8499V11.2499C943.15 9.3999 941.65 7.9499 939.85 7.9499H922.05C920.25 7.9499 918.75 9.4499 918.75 11.2499V27.8499C918.75 29.6999 920.3 31.1499 922.05 31.1499H928.8V36.0499H921.35C920.15 36.0499 919.15 37.0499 919.15 38.2499C919.15 39.3999 920.15 40.3999 921.35 40.3999H928.8V45.1499H918.5C917.3 45.1499 916.35 46.1499 916.35 47.3499C916.35 48.5499 917.35 49.5499 918.5 49.5499H943.4C944.55 49.5499 945.55 48.5499 945.55 47.3499C945.55 46.1499 944.6 45.1499 943.4 45.1499H933.1ZM918.75 38.0999C918.4 36.9999 917.1 36.4999 916.05 37.0999C915 37.6499 913.8 38.2499 912.5 38.8499V26.6999H915.5C916.7 26.6999 917.65 25.6999 917.65 24.4999C917.65 23.2999 916.65 22.2999 915.5 22.2999H912.5V13.6499H915.75C916.95 13.6499 917.95 12.6999 917.95 11.4999C917.95 10.2499 916.95 9.2999 915.75 9.2999H904.8C903.6 9.2999 902.65 10.2999 902.65 11.4999C902.65 12.6499 903.6 13.6499 904.8 13.6499H908.05V22.2999H905.1C903.85 22.2999 902.9 23.2999 902.9 24.4999C902.9 25.6999 903.9 26.6999 905.1 26.6999H908.05V40.5999C906.7 41.0499 905.35 41.4499 903.95 41.7999C902.75 42.0499 902 43.2499 902.2 44.3999C902.45 45.6499 903.65 46.4499 904.85 46.1499C908.85 45.1999 914.05 43.1499 917.5 41.3499C918.6 40.7499 919.15 39.3999 918.75 38.0999ZM928.8 17.4999H923.1V12.1499H928.8V17.4999ZM933.1 17.4999V12.1499H938.8V17.4999H933.1ZM923.1 21.5999H928.8V26.9499H923.1V21.5999ZM933.1 21.5999H938.8V26.9499H933.1V21.5999Z" fill="#42210C"/>
<path d="M994.5 21.8999C987.9 18.7999 980.85 12.8999 976 8.0999C974.75 6.8999 972.75 6.9499 971.55 8.2999C967.45 12.8999 960.2 19.2499 953.55 21.9999C952.4 22.4499 951.8 23.6999 952.1 24.8499C952.4 26.0499 953.7 26.6999 954.8 26.2499C961.5 23.4499 970.5 16.1999 973.95 12.1999C978.25 16.7499 986.55 22.9999 993.25 26.0999C994.35 26.5999 995.6 25.9999 995.9 24.7999C996.25 23.6499 995.65 22.3999 994.5 21.8999ZM982.2 25.4999C983.35 25.4999 984.3 24.4999 984.3 23.3499C984.3 22.1499 983.35 21.1999 982.2 21.1999H965.8C964.65 21.1999 963.7 22.1499 963.7 23.3499C963.7 24.5499 964.65 25.4999 965.8 25.4999H982.2ZM956.95 30.3499C955.8 30.3499 954.85 31.2999 954.85 32.4999C954.85 33.6999 955.8 34.6499 956.95 34.6499H969.4C967.1 38.1499 963.55 41.2999 959.3 43.4999C958.15 44.0999 957.5 45.3499 957.7 46.5499C957.85 47.7999 958.95 48.7499 960.2 48.6499C967.8 48.3499 977.7 46.9499 984.4 45.2999C985.05 46.4499 985.65 47.5999 986.1 48.5999C986.6 49.7499 987.95 50.1999 989 49.6499C990.1 48.9999 990.6 47.5999 990 46.4499C988.15 42.8999 985.25 38.5499 983.35 36.0999C982.55 35.0999 981.05 34.9499 980 35.7499C979.05 36.4999 979 37.8999 979.85 38.8499C980.5 39.5499 981.2 40.4499 981.9 41.4499C977.4 42.4999 971.45 43.4999 966.15 44.0999C969.5 41.6999 972.6 37.9499 974.4 34.6499H991.05C992.2 34.6499 993.15 33.6499 993.15 32.4999C993.15 31.2999 992.2 30.3499 991.05 30.3499H956.95Z" fill="#42210C"/>
<path d="M1019.85 38.9499C1020.85 38.2999 1021.2 36.9999 1020.65 35.9999C1019.2 33.4499 1016.95 30.4999 1014.75 28.4499C1017.1 25.1999 1019 21.4999 1020.1 17.2499C1020.55 15.5999 1019.2 13.9499 1017.45 13.9499H1014.2V8.5499C1014.2 7.2999 1013.2 6.3499 1012.05 6.3499C1010.85 6.3499 1009.85 7.2999 1009.85 8.5499V13.9499H1004.75C1003.55 13.9499 1002.6 14.9499 1002.6 16.0999C1002.6 17.2999 1003.55 18.2499 1004.75 18.2499H1015.2C1013.15 24.1499 1009.05 29.5499 1003.4 33.8499C1002.45 34.5499 1002.2 35.8999 1002.85 36.8499C1003.5 37.8999 1004.85 38.0999 1005.8 37.3999C1007.2 36.3499 1008.55 35.1999 1009.85 33.9999V47.8999C1009.85 49.1499 1010.85 50.0999 1012.05 50.0999C1013.25 50.0999 1014.2 49.0999 1014.2 47.8999V34.1499C1015.2 35.3499 1016.15 36.7499 1017.05 38.2499C1017.65 39.2499 1018.9 39.5499 1019.85 38.9499ZM1033.55 44.8999V25.7499H1041.2C1042.4 25.7499 1043.4 24.7499 1043.4 23.5499C1043.4 22.3499 1042.4 21.3499 1041.2 21.3499H1033.55V8.8999C1033.55 7.6999 1032.55 6.6999 1031.35 6.6999C1030.15 6.6999 1029.15 7.6499 1029.15 8.8999V21.3499H1021.65C1020.45 21.3499 1019.5 22.3499 1019.5 23.5499C1019.5 24.7499 1020.5 25.7499 1021.65 25.7499H1029.15V44.8999H1019.65C1018.4 44.8999 1017.45 45.8999 1017.45 47.0999C1017.45 48.2499 1018.4 49.2499 1019.65 49.2499H1043.25C1044.45 49.2499 1045.4 48.2499 1045.4 47.0999C1045.4 45.8999 1044.45 44.8999 1043.25 44.8999H1033.55Z" fill="#42210C"/>
<path d="M30.9498 100.15C29.8998 99.4999 28.5998 99.8499 27.9498 100.95C27.3998 101.95 27.7498 103.25 28.7498 103.9C33.3498 106.75 35.0998 109.9 34.4998 114.1C33.5998 119.85 24.3998 121.2 23.3998 114.35C23.2998 113.65 23.2498 113 23.1998 112.3C24.4998 112.35 25.8498 112.4 27.3498 112.4C28.5498 112.4 29.5498 111.4 29.5998 110.2C29.6498 109 28.6498 108.05 27.4498 108.1C25.9998 108.15 24.5998 108.2 23.2498 108.15C23.6998 101.2 25.6998 93.4999 23.1498 85.0499C22.7998 83.8499 21.4998 83.1999 20.2998 83.5499C19.1498 83.8999 18.5498 85.1499 18.8498 86.2999C20.8998 93.3999 19.3498 101.1 18.7998 107.8C15.4498 107.3 13.5998 106.35 15.0498 105.1C15.8998 104.35 16.1498 103.25 15.5998 102.45C14.9998 101.45 13.7998 101.1 12.8498 101.6C8.7998 103.8 8.9498 108.25 13.0998 110.4C14.3498 111.05 16.1998 111.5 18.6498 111.85C18.6498 114.95 19.1498 117.7 20.6998 119.9C24.6498 125.45 37.9498 124.9 38.9998 113.6C39.5498 107.3 34.6998 102.55 30.9498 100.15ZM16.3998 98.1999C17.4998 98.6499 18.7498 98.0499 19.1498 96.9499C19.4998 95.8499 18.9498 94.5999 17.8498 94.1499C16.1498 93.3999 14.0498 92.3499 12.4998 91.4499C11.3998 90.8499 10.0498 91.1999 9.4498 92.2499C8.84981 93.3999 9.1998 94.7999 10.2998 95.3999C12.1498 96.3999 14.6998 97.4999 16.3998 98.1999Z" fill="#42210C"/>
<path d="M93.5998 96.1499C93.5498 94.9499 92.4998 94.0499 91.2998 94.0999C89.3498 94.1999 86.7998 94.1999 83.8498 94.2499C83.8498 91.4499 83.8498 88.4999 83.9498 85.4499C83.9998 84.2499 82.9998 83.2499 81.7998 83.2499C80.5998 83.2499 79.5998 84.1999 79.5498 85.4499C79.4998 88.5999 79.4998 91.5499 79.4998 94.2999H68.6998C68.6998 92.0499 68.6498 89.4999 68.5498 86.5499C68.4998 85.2999 67.4498 84.2999 66.1998 84.3499C64.9998 84.3499 64.0498 85.3499 64.0998 86.5999C64.1998 89.0499 64.2498 91.6999 64.1998 94.3499C61.3998 94.3499 58.7498 94.3999 56.4998 94.4499C55.2498 94.4999 54.3498 95.5499 54.3998 96.7499C54.4498 97.9999 55.4498 98.8999 56.6998 98.8499C58.8498 98.7499 61.3998 98.6999 64.1998 98.6499C64.2498 103.4 64.3998 107.8 65.2998 110.6C65.6998 111.7 66.9498 112.3 68.1498 111.9C69.2498 111.6 69.8498 110.4 69.5498 109.3C68.7498 106.4 68.6998 103.2 68.6998 98.6499H79.4498C79.1998 108.15 77.8498 114.75 69.3998 119.3C68.2998 119.9 67.8498 121.2 68.3998 122.3C68.8998 123.4 70.2498 123.85 71.3498 123.3C81.8498 117.7 83.4998 109.15 83.7998 98.6499C86.7998 98.6499 89.4998 98.5999 91.4998 98.4999C92.7498 98.4499 93.6998 97.3999 93.5998 96.1499Z" fill="#42210C"/>
<path d="M137.8 91.6499C140.85 91.6499 143.4 89.1499 143.4 86.0499C143.4 82.9499 140.85 80.4499 137.8 80.4499C134.75 80.4499 132.2 82.9499 132.2 86.0499C132.2 89.0999 134.7 91.6499 137.8 91.6499ZM137.8 83.0499C139.45 83.0499 140.8 84.3499 140.8 86.0499C140.8 87.7499 139.45 89.0499 137.8 89.0499C136.1 89.0499 134.8 87.6999 134.8 86.0499C134.8 84.3499 136.15 83.0499 137.8 83.0499ZM139.95 96.7499C141.2 96.6499 142.1 95.5999 141.95 94.3499C141.85 93.1499 140.8 92.2499 139.6 92.2999C136.1 92.4999 131.3 92.6499 126.25 92.6999V86.4499C126.25 85.2499 125.25 84.1999 123.95 84.1999C122.7 84.1999 121.7 85.2499 121.7 86.4499V92.7499C116.85 92.7499 112.1 92.6999 108.35 92.5499C107.15 92.4999 106.1 93.4499 106.05 94.6499C105.95 95.8999 106.9 96.9499 108.15 96.9999C111.75 97.1499 116.7 97.1999 121.7 97.1999V119.55C121.7 120.8 122.75 121.8 123.95 121.8C125.25 121.8 126.25 120.75 126.25 119.55V97.1499C131.65 97.0499 136.75 96.9499 139.95 96.7499ZM117.25 102.9C116.3 102.1 114.85 102.3 114.1 103.35C111.9 106.35 108.15 110.1 104.9 112.55C103.9 113.3 103.6 114.7 104.25 115.7C104.95 116.8 106.35 117.1 107.35 116.35C110.85 113.8 115.4 109.2 117.7 106.3C118.5 105.25 118.3 103.75 117.25 102.9ZM133.4 103.25C132.55 102.35 131.1 102.3 130.25 103.15C129.35 103.95 129.25 105.4 130.1 106.3L139.15 116.05C140 116.95 141.4 117 142.3 116.15C143.2 115.35 143.3 113.9 142.45 113L133.4 103.25Z" fill="#42210C"/>
<path d="M189.6 105.7C190.8 105.7 191.8 104.75 191.8 103.5C191.8 102.3 190.8 101.3 189.6 101.3H158.4C157.2 101.3 156.2 102.25 156.2 103.5C156.2 104.7 157.2 105.7 158.4 105.7H189.6Z" fill="#42210C"/>
<path d="M239.3 107.55C235.2 103.25 229.05 99.3999 222.55 98.5999V86.9999C222.55 85.7499 221.5 84.6999 220.25 84.6999C219.05 84.6999 218 85.7499 218 86.9999V120.9C218 122.15 219.05 123.15 220.25 123.15C221.55 123.15 222.55 122.1 222.55 120.9V103C227.85 103.9 232.1 106.35 236.3 110.9C237.15 111.8 238.55 111.8 239.3 110.9C240.15 109.9 240.15 108.45 239.3 107.55Z" fill="#42210C"/>
<path d="M274 114.4C275.1 114.4 275.95 113.5 275.95 112.45L276.6 85.7499C276.65 84.2999 275.45 83.0999 274 83.0999C272.55 83.0999 271.35 84.2999 271.4 85.7499L272.05 112.45C272.05 113.5 272.9 114.4 274 114.4ZM274 123.7C275.9 123.7 277.45 122.15 277.45 120.3C277.45 118.4 275.9 116.85 274 116.85C272.15 116.85 270.55 118.4 270.55 120.3C270.55 122.2 272.15 123.7 274 123.7Z" fill="#42210C"/>
<path d="M36.9998 12.4499C30.7998 12.1499 18.6998 14.6999 7.9498 14.1999C6.7498 14.1499 5.6998 15.0499 5.6498 16.2499C5.5498 17.4999 6.4998 18.5999 7.7498 18.6499C15.8498 19.0499 27.8998 16.8499 35.9998 16.6499C38.3998 16.5999 38.6998 18.0999 36.5998 19.9999C34.8498 21.5999 30.5498 23.9999 27.2998 25.4499C27.2498 24.7999 27.1998 24.1499 27.0998 23.4999C26.9498 22.2499 25.7998 21.3499 24.5498 21.4499C23.3498 21.4999 22.4498 22.5999 22.6498 23.8499C23.6498 30.3999 22.8498 37.7499 12.8998 43.7499C11.7998 44.3499 11.3998 45.7499 11.9998 46.7999C12.5998 47.8999 13.9498 48.2999 14.9998 47.6499C22.3998 43.1999 26.3998 37.5499 27.1998 30.2499C31.2498 28.3999 36.8998 25.2499 39.4498 23.0999C43.6998 19.5499 44.3998 12.7999 36.9998 12.4499Z" stroke="white" stroke-width="10" mask="url(#path-1-outside-1_507:1002)"/>
<path d="M91.6498 16.3499C94.7498 16.3499 97.2498 13.7999 97.2498 10.7499C97.2498 7.6999 94.7498 5.1499 91.6498 5.1499C88.5998 5.1499 86.0498 7.6499 86.0498 10.7499C86.0498 13.7999 88.5498 16.3499 91.6498 16.3499ZM91.6498 13.7499C89.9998 13.7499 88.6498 12.3999 88.6498 10.7499C88.6498 9.0499 89.9998 7.7499 91.6498 7.7499C93.2998 7.7499 94.6498 9.0499 94.6498 10.7499C94.6498 12.3999 93.3498 13.7499 91.6498 13.7499ZM65.1998 47.6999C77.1498 42.5999 84.1998 35.2499 87.5498 24.4999C88.7998 20.3999 89.7498 13.7999 80.8498 12.6499C75.1998 11.9499 64.9998 12.8499 58.3498 14.1999C57.0998 14.4999 56.2998 15.6499 56.3998 16.9999C56.5998 18.1999 57.7498 19.0499 58.9498 18.7999C67.5498 16.9499 74.5998 16.2999 80.0998 16.9499C83.7998 17.3999 84.4498 18.7499 83.1498 23.1999C80.3998 32.5499 74.2998 38.7999 63.5498 43.4499C62.3498 43.9499 61.7998 45.2499 62.2498 46.3999C62.6998 47.5499 64.0498 48.1499 65.1998 47.6999Z" stroke="white" stroke-width="10" mask="url(#path-1-outside-1_507:1002)"/>
<path d="M119.6 48.7499C126.1 46.1499 130.9 41.3499 133.6 34.7999C136.45 27.7999 135.25 15.5499 133.85 9.7499C133.55 8.5999 132.45 7.8999 131.25 8.0499C130.15 8.2499 129.35 9.2999 129.5 10.4499C131.5 24.5999 133.45 37.0999 118.05 44.3999C116.9 44.8999 116.3 46.1999 116.7 47.3999C117.15 48.5999 118.45 49.1999 119.6 48.7499ZM119.9 34.4999C120.8 33.7499 120.95 32.3999 120.3 31.2999C116.95 26.1999 117.1 18.5999 117.55 13.0499C117.65 11.7999 116.75 10.6999 115.5 10.6499C114.25 10.5999 113.2 11.5999 113.15 12.7999C112.8 19.3999 112.8 28.5999 116.65 34.0999C117.4 35.1499 118.9 35.2999 119.9 34.4999Z" stroke="white" stroke-width="10" mask="url(#path-1-outside-1_507:1002)"/>
<path d="M187.15 42.7499C183.15 43.8499 177.8 43.5999 174.35 39.0999C169.55 32.8499 173.55 23.4499 183.25 17.3499C185.4 16.8499 187.4 16.2499 189.3 15.5499C190.45 15.0999 191 13.7999 190.55 12.6499C190.05 11.5499 188.8 10.9999 187.65 11.3999C179.4 14.3999 169.7 15.4499 158.85 14.5999C157.65 14.4999 156.55 15.3999 156.4 16.5999C156.3 17.8499 157.2 18.9499 158.4 18.9999C164.3 19.4999 170.1 19.3999 175.5 18.7499C166.65 26.7499 167 36.2999 170.45 41.2499C174.1 46.5499 181.15 48.9499 188.05 47.1999C189.3 46.8999 190.05 45.5999 189.8 44.2999C189.55 43.0999 188.35 42.3999 187.15 42.7499ZM195.75 24.6499C194.6 21.8999 193.45 20.1999 191.5 18.4499C190.9 17.8999 189.95 17.9499 189.35 18.4999C188.8 19.0999 188.8 19.9999 189.4 20.5999C191 22.0999 192.15 23.7999 192.95 25.8999C193.25 26.6999 194.15 27.0999 194.95 26.7499C195.7 26.3999 196.1 25.4999 195.75 24.6499ZM187.5 20.3999C186.85 19.7999 185.8 19.8999 185.25 20.5499C184.65 21.1499 184.75 22.1499 185.4 22.6999C187 24.1499 188 25.6499 188.8 27.7499C189.1 28.5999 190 28.9999 190.8 28.6499C191.6 28.2999 192.05 27.3499 191.7 26.4999C190.6 23.9499 189.3 22.0499 187.5 20.3999Z" stroke="white" stroke-width="10" mask="url(#path-1-outside-1_507:1002)"/>
<path d="M232.4 9.4499L232.8 8.6999C233.35 7.6999 232.9 6.3999 231.8 5.8999C230.8 5.3999 229.55 5.8499 229 6.8499C227.9 8.5999 226.4 10.2999 224.3 11.9999C224.35 11.8499 224.4 11.6499 224.4 11.4499C224.4 10.3499 223.5 9.4499 222.4 9.4499H211.85C211.9 9.2999 212 9.1999 212.05 9.0499C212.55 7.9499 212 6.6499 210.85 6.1499C209.8 5.6999 208.55 6.2499 208.05 7.2999C206.95 9.6499 205.05 11.9999 202.55 13.8999C201.65 14.5499 201.35 15.7999 201.85 16.7499C202.35 17.7999 203.6 18.1999 204.55 17.5999C206.25 16.5499 207.85 15.1499 209.2 13.4499H214.15C214.8 14.3499 215.5 15.3499 216 16.2999C216.5 17.1499 217.55 17.5499 218.35 17.1999C219.35 16.7499 219.75 15.6999 219.35 14.8499C219.15 14.3999 218.9 13.8999 218.65 13.4499H222.4C222.6 13.4499 222.8 13.3999 223 13.3499C222.75 13.9999 222.75 14.7499 223.15 15.3499C223.75 16.3499 225.05 16.6999 225.95 16.0499C227 15.3999 228.15 14.4999 229.25 13.4499H232.55C233.2 14.2999 233.8 15.2499 234.45 16.3499C234.95 17.1999 236 17.5499 236.85 17.1499C237.85 16.6499 238.25 15.5999 237.8 14.7499C237.55 14.2999 237.3 13.8499 237.05 13.4499H243.4C244.5 13.4499 245.45 12.5499 245.45 11.4499C245.45 10.2999 244.5 9.4499 243.4 9.4499H232.4ZM222.7 20.8499C222.7 18.9999 221.2 17.5499 219.4 17.5499H208.6C206.75 17.5499 205.3 19.0499 205.3 20.8499V48.0499C205.3 49.2499 206.25 50.1999 207.45 50.1999C208.6 50.1999 209.55 49.1999 209.55 48.0499V31.3999H219.4C221.25 31.3999 222.7 29.8999 222.7 28.0999V20.8499ZM228.6 17.5499C226.75 17.5499 225.3 19.0499 225.3 20.8499V28.0999C225.3 29.8999 226.8 31.3999 228.6 31.3999H238.45V45.2499C238.45 46.0499 238.4 46.0999 236.9 46.0499C235.75 45.9999 234.75 46.8999 234.7 48.0499C234.6 49.2499 235.5 50.2999 236.7 50.2999C240.8 50.4499 242.7 48.7999 242.7 45.2499V20.8499C242.7 18.9999 241.2 17.5499 239.4 17.5499H228.6ZM218.85 22.7499H209.35V21.1999H218.85V22.7499ZM238.65 22.7499H229.15V21.1999H238.65V22.7499ZM209.35 26.1499H218.85V27.6999H209.35V26.1499ZM229.15 26.1499H238.65V27.6999H229.15V26.1499ZM219.15 33.0499C217.3 33.0499 215.85 34.5499 215.85 36.3499V44.4499C215.85 46.2999 217.35 47.7499 219.15 47.7499H228.85C230.7 47.7499 232.15 46.2499 232.15 44.4499V36.3499C232.15 34.4999 230.65 33.0499 228.85 33.0499H219.15ZM228.35 38.5999H219.65V36.7499H228.35V38.5999ZM219.65 42.1499H228.35V43.9999H219.65V42.1499Z" stroke="white" stroke-width="10" mask="url(#path-1-outside-1_507:1002)"/>
<path d="M268.05 28.8999C268.8 27.9999 269.45 26.9999 269.95 26.0499H285.2C287 26.0499 288.5 24.5499 288.5 22.7499V10.7499C288.5 8.8999 287 7.4499 285.2 7.4499H262.8C261 7.4499 259.5 8.9499 259.5 10.7499V22.7499C259.5 24.5499 261 26.0499 262.8 26.0499H264.8C262.35 29.3999 257.95 32.5499 254.15 34.1499C253 34.6499 252.4 35.8499 252.7 36.9999C253.05 38.1999 254.3 38.7999 255.4 38.3499C258.3 37.0999 261.25 35.2999 263.9 33.0999H269.15C266.9 36.1999 262.8 39.7499 257.7 41.8499C256.6 42.2999 256.05 43.5499 256.4 44.6499C256.75 45.7999 257.95 46.4499 259.05 45.9999C264.35 43.9499 271.55 38.3499 274.2 33.0999H278.6C276.3 37.9499 271.55 42.6999 266.05 45.5499C265 46.0499 264.55 47.3499 265 48.3999C265.5 49.4999 266.8 49.9999 267.85 49.4999C273.7 46.7499 280.8 39.7999 283.25 33.0999H288.4C288.2 35.5499 287.9 38.5499 287.5 42.3999C287.2 44.9999 285.5 45.8499 281.15 45.5499C280 45.4999 278.95 46.2999 278.8 47.4499C278.65 48.5999 279.45 49.6999 280.6 49.7999C287.2 50.3999 291.2 47.9499 291.75 42.8999C292.25 38.2499 292.6 34.8999 292.75 32.1999C292.9 30.3999 291.45 28.8999 289.6 28.8999H268.05ZM284.2 14.6999H263.8V11.6499H284.2V14.6999ZM284.2 18.7499V21.7999H263.8V18.7499H284.2Z" stroke="white" stroke-width="10" mask="url(#path-1-outside-1_507:1002)"/>
<path d="M335.9 16.2499C325.1 16.2499 316.05 18.1499 307.25 17.3999C306.05 17.2999 304.9 18.1499 304.75 19.3999C304.65 20.6499 305.55 21.8499 306.8 21.9499C315.4 22.8499 323.5 20.4999 335.4 20.4999C339.6 20.4999 339.65 21.7499 335.45 25.7499C331.25 29.6999 327.65 31.8999 324.8 33.3999C322.95 31.5999 321 30.0999 319 28.9999C317.9 28.4499 316.45 28.8499 315.75 29.9999C315.15 31.0999 315.55 32.4499 316.65 32.9999C321.8 35.6999 324.05 38.6499 328.75 45.8999C329.45 46.9499 330.85 47.2499 331.85 46.5499C332.9 45.7999 333.2 44.3499 332.55 43.2999C331.25 41.1499 329.65 38.8499 327.8 36.6499C330.35 35.1499 334.3 32.5999 338.45 29.0499C344.7 23.6999 346.2 16.2499 335.9 16.2499Z" stroke="white" stroke-width="10" mask="url(#path-1-outside-1_507:1002)"/>
<path d="M370.8 24.9999C371.75 23.9499 371.7 22.3499 370.7 21.4999C368.2 19.3499 363.9 16.9999 359.5 16.3999C358.2 16.2499 357.05 17.1999 356.9 18.5499C356.75 19.7999 357.65 20.8999 358.9 21.0999C362.3 21.6499 365.3 22.9999 367.5 24.9999C368.45 25.8999 369.95 25.8999 370.8 24.9999ZM359.55 45.9499C372.2 43.2499 385.15 34.2999 392.5 24.5499C393.3 23.4999 393.05 21.9999 392.05 21.1499C391 20.3499 389.55 20.5499 388.75 21.5999C380.25 32.9999 367.8 39.1999 358.95 41.2999C357.65 41.5999 356.8 42.7999 356.95 44.0499C357.1 45.2999 358.3 46.1999 359.55 45.9499Z" stroke="white" stroke-width="10" mask="url(#path-1-outside-1_507:1002)"/>
<path d="M418.8 20.5499C419.8 21.1499 421.1 20.8499 421.6 19.7999C422.2 18.6999 421.85 17.2999 420.85 16.6499C418.1 14.8999 414.65 13.6999 411.4 13.3499C410.2 13.1999 409.15 14.0999 408.95 15.3499C408.8 16.4499 409.65 17.4999 410.8 17.6999C413.7 18.0999 416.5 19.0499 418.8 20.5499ZM412.15 47.4999C423.65 44.5499 435.7 35.0999 441.05 26.6999C441.75 25.5999 441.5 24.1499 440.4 23.2999C439.4 22.5499 438 22.7999 437.3 23.8999C430.85 33.8499 419.25 40.6499 410.85 42.9499C409.6 43.2999 408.9 44.5499 409.25 45.7499C409.6 46.9999 410.9 47.7999 412.15 47.4999ZM415.9 31.3999C417 31.8499 418.3 31.3999 418.75 30.3499C419.25 29.1499 418.8 27.7999 417.65 27.2999C415.05 26.1499 411.45 25.3499 408.4 25.1999C407.15 25.1499 406.15 26.1999 406.1 27.4499C406.05 28.5999 407 29.5999 408.2 29.6499C410.6 29.7999 413.65 30.4499 415.9 31.3999Z" stroke="white" stroke-width="10" mask="url(#path-1-outside-1_507:1002)"/>
<path d="M478.15 21.3499C474.25 21.4999 469.05 21.5999 463.95 21.3499C462.8 21.2999 461.8 22.1999 461.7 23.3499C461.65 24.5499 462.55 25.4999 463.75 25.5499C468.35 25.7499 474.4 25.7499 478.35 25.5499C481.15 25.3499 481.35 25.5499 481.35 28.6499V31.5999C480.15 31.2499 478.85 31.2499 477.55 31.1999H464.9C463.8 31.1999 462.9 32.1499 462.9 33.2499C462.9 34.3999 463.85 35.2999 464.95 35.2999C468.3 35.2499 475.55 35.2499 477.5 35.2999C479.15 35.2999 480.3 35.3999 481.35 35.8999V40.7499H463.85C462.7 40.7499 461.7 41.6999 461.7 42.8499C461.7 44.0499 462.7 44.9999 463.85 44.9999H481.4C481.55 46.0499 482.45 46.7999 483.5 46.7999C484.65 46.7999 485.6 45.8499 485.6 44.6499V28.6499C485.6 22.8999 483.65 20.9499 478.15 21.3499Z" stroke="white" stroke-width="10" mask="url(#path-1-outside-1_507:1002)"/>
<path d="M520.8 24.9999C521.75 23.9499 521.7 22.3499 520.7 21.4999C518.2 19.3499 513.9 16.9999 509.5 16.3999C508.2 16.2499 507.05 17.1999 506.9 18.5499C506.75 19.7999 507.65 20.8999 508.9 21.0999C512.3 21.6499 515.3 22.9999 517.5 24.9999C518.45 25.8999 519.95 25.8999 520.8 24.9999ZM509.55 45.9499C522.2 43.2499 535.15 34.2999 542.5 24.5499C543.3 23.4999 543.05 21.9999 542.05 21.1499C541 20.3499 539.55 20.5499 538.75 21.5999C530.25 32.9999 517.8 39.1999 508.95 41.2999C507.65 41.5999 506.8 42.7999 506.95 44.0499C507.1 45.2999 508.3 46.1999 509.55 45.9499Z" stroke="white" stroke-width="10" mask="url(#path-1-outside-1_507:1002)"/>
<path d="M595.45 11.4499C595.45 10.2999 594.5 9.4499 593.4 9.4499H582.35L582.5 9.1999C583.15 8.1499 582.8 6.7999 581.65 6.1499C580.65 5.5999 579.4 6.0499 578.8 7.0999C577.85 8.8499 576.3 10.5499 574.3 12.0999C574.35 11.8999 574.4 11.6999 574.4 11.4499C574.4 10.3499 573.5 9.4499 572.4 9.4499H561.8C561.95 9.1999 562.05 8.8999 562.2 8.6499C562.65 7.5999 562.1 6.3999 561 5.9999C559.95 5.6499 558.75 6.1999 558.2 7.2499C556.95 9.6999 555.05 12.0499 552.7 13.8499C551.8 14.4999 551.5 15.6999 551.9 16.6999C552.4 17.6999 553.6 18.0999 554.5 17.4999C556.25 16.3999 557.8 15.0499 559.15 13.4499H563.4C564.25 14.4999 565.15 15.7999 565.8 17.0499C566.35 17.9999 567.5 18.4499 568.45 18.0499C569.5 17.5499 570 16.3999 569.55 15.3999C569.25 14.7499 568.9 14.0999 568.5 13.4499H572.4C572.65 13.4499 572.9 13.3999 573.15 13.2999C572.85 13.8999 572.9 14.6499 573.2 15.2499C573.45 15.6999 573.85 15.9999 574.3 16.1499H574C572.8 16.1499 571.85 17.0999 571.85 18.2999V19.2999H557.45C555.6 19.2999 554.15 20.7999 554.15 22.5999V26.6999C554.15 27.8999 555.15 28.8499 556.3 28.8499C557.45 28.8499 558.45 27.8999 558.45 26.6999V23.3999H589.55V26.6999C589.55 27.8499 590.5 28.8499 591.7 28.8499C592.9 28.8499 593.85 27.8499 593.85 26.6999V22.5999C593.85 20.7999 592.35 19.2999 590.55 19.2999H576.15V18.2999C576.15 17.3499 575.55 16.5999 574.7 16.2999C575.15 16.3499 575.6 16.2499 575.95 15.9999C577.05 15.2499 578.1 14.3499 579 13.4499H581.5C582.45 14.4999 583.5 15.8999 584.3 17.3499C584.85 18.2999 586 18.6999 586.95 18.2499C588.05 17.7499 588.5 16.5499 587.95 15.5499C587.6 14.8499 587.15 14.1499 586.65 13.4499H593.4C594.5 13.4499 595.45 12.5499 595.45 11.4499ZM565.65 37.3999V35.4499H583C584.8 35.4499 586.3 33.9499 586.3 32.1499V28.3499C586.3 26.4999 584.8 25.0499 583 25.0499H564.6C562.75 25.0499 561.3 26.5499 561.3 28.3499V46.4499C561.3 48.1999 562.75 49.7499 564.6 49.7499H586.4C588.25 49.7499 589.7 48.1999 589.7 46.4499V40.6999C589.7 38.8499 588.2 37.3999 586.4 37.3999H565.65ZM581.95 28.9499V31.5499H565.65V28.9499H581.95ZM565.65 45.7499V41.3499H585.35V45.7499H565.65Z" stroke="white" stroke-width="10" mask="url(#path-1-outside-1_507:1002)"/>
<path d="M633.1 45.1499V40.3999H640.55C641.75 40.3999 642.75 39.3999 642.75 38.2499C642.75 37.0499 641.75 36.0499 640.55 36.0499H633.1V31.1499H639.85C641.7 31.1499 643.15 29.6499 643.15 27.8499V11.2499C643.15 9.3999 641.65 7.9499 639.85 7.9499H622.05C620.25 7.9499 618.75 9.4499 618.75 11.2499V27.8499C618.75 29.6999 620.3 31.1499 622.05 31.1499H628.8V36.0499H621.35C620.15 36.0499 619.15 37.0499 619.15 38.2499C619.15 39.3999 620.15 40.3999 621.35 40.3999H628.8V45.1499H618.5C617.3 45.1499 616.35 46.1499 616.35 47.3499C616.35 48.5499 617.35 49.5499 618.5 49.5499H643.4C644.55 49.5499 645.55 48.5499 645.55 47.3499C645.55 46.1499 644.6 45.1499 643.4 45.1499H633.1ZM618.75 38.0999C618.4 36.9999 617.1 36.4999 616.05 37.0999C615 37.6499 613.8 38.2499 612.5 38.8499V26.6999H615.5C616.7 26.6999 617.65 25.6999 617.65 24.4999C617.65 23.2999 616.65 22.2999 615.5 22.2999H612.5V13.6499H615.75C616.95 13.6499 617.95 12.6999 617.95 11.4999C617.95 10.2499 616.95 9.2999 615.75 9.2999H604.8C603.6 9.2999 602.65 10.2999 602.65 11.4999C602.65 12.6499 603.6 13.6499 604.8 13.6499H608.05V22.2999H605.1C603.85 22.2999 602.9 23.2999 602.9 24.4999C602.9 25.6999 603.9 26.6999 605.1 26.6999H608.05V40.5999C606.7 41.0499 605.35 41.4499 603.95 41.7999C602.75 42.0499 602 43.2499 602.2 44.3999C602.45 45.6499 603.65 46.4499 604.85 46.1499C608.85 45.1999 614.05 43.1499 617.5 41.3499C618.6 40.7499 619.15 39.3999 618.75 38.0999ZM628.8 17.4999H623.1V12.1499H628.8V17.4999ZM633.1 17.4999V12.1499H638.8V17.4999H633.1ZM623.1 21.5999H628.8V26.9499H623.1V21.5999ZM633.1 21.5999H638.8V26.9499H633.1V21.5999Z" stroke="white" stroke-width="10" mask="url(#path-1-outside-1_507:1002)"/>
<path d="M669.15 17.5499C669.7 14.8999 670.15 12.3499 670.4 9.8999C670.5 8.6999 669.6 7.6499 668.45 7.5499C667.3 7.4999 666.25 8.3499 666.15 9.4999C665.85 12.3499 665.4 15.3499 664.8 18.3499C662.15 18.8499 660.25 18.9499 657.65 18.6999C656.45 18.6499 655.4 19.4499 655.25 20.5999C655.15 21.8499 656 22.8999 657.15 22.9499C659.65 23.1499 661.65 23.0499 663.75 22.7499C661.7 30.4999 658.55 38.2499 654.3 44.6999C653.65 45.6499 653.9 46.9999 654.8 47.6999C655.8 48.3999 657.15 48.1499 657.8 47.1499C662.25 40.3499 665.9 30.9499 668.2 21.8499C675.8 20.2999 675.8 23.5999 675.6 25.4499C673.85 41.8999 672.4 44.0999 666.1 40.7499C665 40.1499 663.7 40.5499 663.15 41.5999C662.55 42.6999 662.95 44.0499 664 44.5999C670.9 48.0999 675.55 46.2999 677.55 39.3499C678.25 36.8999 679.45 31.0999 679.85 25.8499C680.15 22.6499 679.55 16.1999 669.15 17.5499ZM696 14.3999C694.8 11.5999 693.65 9.8999 691.75 8.1499C691.1 7.5999 690.15 7.6499 689.6 8.2499C689 8.7999 689.05 9.7499 689.65 10.2999C691.25 11.8499 692.35 13.5499 693.15 15.5999C693.5 16.4499 694.4 16.7999 695.15 16.4499C695.95 16.1499 696.35 15.1999 696 14.3999ZM689 17.4999C689.3 18.2999 690.25 18.6999 691.05 18.3499C691.85 17.9999 692.25 17.0499 691.9 16.1999C690.85 13.6999 689.5 11.7499 687.7 10.0999C687.05 9.4999 686.05 9.5999 685.45 10.2499C684.9 10.8999 685 11.8499 685.6 12.4499C687.2 13.8499 688.2 15.3499 689 17.4999ZM685.25 17.6999C684.35 16.6499 682.8 16.5499 681.7 17.4499C680.75 18.2499 680.65 19.6999 681.55 20.6999C685.15 24.5499 688.95 30.6999 690.75 37.2499C691.1 38.4999 692.4 39.2499 693.65 38.8499C694.95 38.3499 695.7 36.9499 695.25 35.7499C693.45 30.1499 688.85 21.9999 685.25 17.6999Z" stroke="white" stroke-width="10" mask="url(#path-1-outside-1_507:1002)"/>
<path d="M737.15 42.7499C733.15 43.8499 727.8 43.5999 724.35 39.0999C719.55 32.8499 723.55 23.4499 733.25 17.3499C735.4 16.8499 737.4 16.2499 739.3 15.5499C740.45 15.0999 741 13.7999 740.55 12.6499C740.05 11.5499 738.8 10.9999 737.65 11.3999C729.4 14.3999 719.7 15.4499 708.85 14.5999C707.65 14.4999 706.55 15.3999 706.4 16.5999C706.3 17.8499 707.2 18.9499 708.4 18.9999C714.3 19.4999 720.1 19.3999 725.5 18.7499C716.65 26.7499 717 36.2999 720.45 41.2499C724.1 46.5499 731.15 48.9499 738.05 47.1999C739.3 46.8999 740.05 45.5999 739.8 44.2999C739.55 43.0999 738.35 42.3999 737.15 42.7499ZM745.75 24.6499C744.6 21.8999 743.45 20.1999 741.5 18.4499C740.9 17.8999 739.95 17.9499 739.35 18.4999C738.8 19.0999 738.8 19.9999 739.4 20.5999C741 22.0999 742.15 23.7999 742.95 25.8999C743.25 26.6999 744.15 27.0999 744.95 26.7499C745.7 26.3999 746.1 25.4999 745.75 24.6499ZM737.5 20.3999C736.85 19.7999 735.8 19.8999 735.25 20.5499C734.65 21.1499 734.75 22.1499 735.4 22.6999C737 24.1499 738 25.6499 738.8 27.7499C739.1 28.5999 740 28.9999 740.8 28.6499C741.6 28.2999 742.05 27.3499 741.7 26.4999C740.6 23.9499 739.3 22.0499 737.5 20.3999Z" stroke="white" stroke-width="10" mask="url(#path-1-outside-1_507:1002)"/>
<path d="M789.05 20.8499C788.5 19.8499 787.2 19.4999 786.15 20.0999C784.2 21.2499 782 22.1999 779.6 22.9499C778.95 21.4499 778.2 19.9999 777.45 18.5499C779.3 17.9999 780.95 17.3499 782.4 16.5499C783.45 15.9499 783.9 14.5999 783.35 13.4999C782.85 12.4499 781.55 12.0499 780.5 12.5999C778.85 13.4499 777.15 14.1499 775.3 14.6999C774.2 12.7999 773 11.0999 771.9 9.6999C771.15 8.7499 769.75 8.6999 768.9 9.5499C768.05 10.2999 768 11.6499 768.7 12.5999C769.45 13.4999 770.15 14.5499 770.9 15.6999C768.1 16.1499 764.95 16.2999 761.4 16.1999C760.2 16.1999 759.2 17.0999 759.15 18.2999C759.1 19.4999 760.05 20.4999 761.2 20.4999C765.2 20.5999 769.35 20.2999 773.15 19.5999C773.95 21.0499 774.7 22.5499 775.4 24.0499C771.05 24.9999 766.05 25.3999 760.4 25.2499C759.25 25.2499 758.25 26.1499 758.2 27.3499C758.15 28.5499 759.05 29.5499 760.25 29.5999C765.65 29.7499 771.65 29.2999 777.2 28.0499C778.2 30.4999 779.1 32.8999 779.85 35.0499C766 29.8999 757.05 36.4999 758.25 42.0499C759.25 46.3999 766.45 50.0999 781.95 47.1499C783.1 46.9499 783.8 45.7999 783.55 44.6499C783.3 43.4999 782.1 42.7499 781 42.9999C777.25 43.7999 774.85 43.9499 772.3 43.9499C759.75 43.8999 760.6 39.1999 766.8 37.5499C770.35 36.5499 775.6 36.7499 781.1 39.4999C782 39.9499 783 39.9499 783.85 39.4999C784.7 39.0999 785.15 38.0999 784.9 37.1999C784.15 34.2499 782.9 30.6499 781.35 26.9499C783.9 26.0999 786.3 25.0999 788.3 23.8999C789.35 23.2999 789.65 21.8999 789.05 20.8499Z" stroke="white" stroke-width="10" mask="url(#path-1-outside-1_507:1002)"/>
<path d="M807.65 49.8499C809.5 52.8999 813.95 49.8499 811.95 47.0499C809.85 43.8999 807.55 41.6499 805.2 39.7999C802.7 37.8499 799.45 41.5499 802.1 43.6499C804.15 45.2499 806.05 47.3499 807.65 49.8499Z" stroke="white" stroke-width="10" mask="url(#path-1-outside-1_507:1002)"/>
<path d="M895.45 11.4499C895.45 10.2999 894.5 9.4499 893.4 9.4499H882.35L882.5 9.1999C883.15 8.1499 882.8 6.7999 881.65 6.1499C880.65 5.5999 879.4 6.0499 878.8 7.0999C877.85 8.8499 876.3 10.5499 874.3 12.0999C874.35 11.8999 874.4 11.6999 874.4 11.4499C874.4 10.3499 873.5 9.4499 872.4 9.4499H861.8C861.95 9.1999 862.05 8.8999 862.2 8.6499C862.65 7.5999 862.1 6.3999 861 5.9999C859.95 5.6499 858.75 6.1999 858.2 7.2499C856.95 9.6999 855.05 12.0499 852.7 13.8499C851.8 14.4999 851.5 15.6999 851.9 16.6999C852.4 17.6999 853.6 18.0999 854.5 17.4999C856.25 16.3999 857.8 15.0499 859.15 13.4499H863.4C864.25 14.4999 865.15 15.7999 865.8 17.0499C866.35 17.9999 867.5 18.4499 868.45 18.0499C869.5 17.5499 870 16.3999 869.55 15.3999C869.25 14.7499 868.9 14.0999 868.5 13.4499H872.4C872.65 13.4499 872.9 13.3999 873.15 13.2999C872.85 13.8999 872.9 14.6499 873.2 15.2499C873.45 15.6999 873.85 15.9999 874.3 16.1499H874C872.8 16.1499 871.85 17.0999 871.85 18.2999V19.2999H857.45C855.6 19.2999 854.15 20.7999 854.15 22.5999V26.6999C854.15 27.8999 855.15 28.8499 856.3 28.8499C857.45 28.8499 858.45 27.8999 858.45 26.6999V23.3999H889.55V26.6999C889.55 27.8499 890.5 28.8499 891.7 28.8499C892.9 28.8499 893.85 27.8499 893.85 26.6999V22.5999C893.85 20.7999 892.35 19.2999 890.55 19.2999H876.15V18.2999C876.15 17.3499 875.55 16.5999 874.7 16.2999C875.15 16.3499 875.6 16.2499 875.95 15.9999C877.05 15.2499 878.1 14.3499 879 13.4499H881.5C882.45 14.4999 883.5 15.8999 884.3 17.3499C884.85 18.2999 886 18.6999 886.95 18.2499C888.05 17.7499 888.5 16.5499 887.95 15.5499C887.6 14.8499 887.15 14.1499 886.65 13.4499H893.4C894.5 13.4499 895.45 12.5499 895.45 11.4499ZM865.65 37.3999V35.4499H883C884.8 35.4499 886.3 33.9499 886.3 32.1499V28.3499C886.3 26.4999 884.8 25.0499 883 25.0499H864.6C862.75 25.0499 861.3 26.5499 861.3 28.3499V46.4499C861.3 48.1999 862.75 49.7499 864.6 49.7499H886.4C888.25 49.7499 889.7 48.1999 889.7 46.4499V40.6999C889.7 38.8499 888.2 37.3999 886.4 37.3999H865.65ZM881.95 28.9499V31.5499H865.65V28.9499H881.95ZM865.65 45.7499V41.3499H885.35V45.7499H865.65Z" stroke="white" stroke-width="10" mask="url(#path-1-outside-1_507:1002)"/>
<path d="M933.1 45.1499V40.3999H940.55C941.75 40.3999 942.75 39.3999 942.75 38.2499C942.75 37.0499 941.75 36.0499 940.55 36.0499H933.1V31.1499H939.85C941.7 31.1499 943.15 29.6499 943.15 27.8499V11.2499C943.15 9.3999 941.65 7.9499 939.85 7.9499H922.05C920.25 7.9499 918.75 9.4499 918.75 11.2499V27.8499C918.75 29.6999 920.3 31.1499 922.05 31.1499H928.8V36.0499H921.35C920.15 36.0499 919.15 37.0499 919.15 38.2499C919.15 39.3999 920.15 40.3999 921.35 40.3999H928.8V45.1499H918.5C917.3 45.1499 916.35 46.1499 916.35 47.3499C916.35 48.5499 917.35 49.5499 918.5 49.5499H943.4C944.55 49.5499 945.55 48.5499 945.55 47.3499C945.55 46.1499 944.6 45.1499 943.4 45.1499H933.1ZM918.75 38.0999C918.4 36.9999 917.1 36.4999 916.05 37.0999C915 37.6499 913.8 38.2499 912.5 38.8499V26.6999H915.5C916.7 26.6999 917.65 25.6999 917.65 24.4999C917.65 23.2999 916.65 22.2999 915.5 22.2999H912.5V13.6499H915.75C916.95 13.6499 917.95 12.6999 917.95 11.4999C917.95 10.2499 916.95 9.2999 915.75 9.2999H904.8C903.6 9.2999 902.65 10.2999 902.65 11.4999C902.65 12.6499 903.6 13.6499 904.8 13.6499H908.05V22.2999H905.1C903.85 22.2999 902.9 23.2999 902.9 24.4999C902.9 25.6999 903.9 26.6999 905.1 26.6999H908.05V40.5999C906.7 41.0499 905.35 41.4499 903.95 41.7999C902.75 42.0499 902 43.2499 902.2 44.3999C902.45 45.6499 903.65 46.4499 904.85 46.1499C908.85 45.1999 914.05 43.1499 917.5 41.3499C918.6 40.7499 919.15 39.3999 918.75 38.0999ZM928.8 17.4999H923.1V12.1499H928.8V17.4999ZM933.1 17.4999V12.1499H938.8V17.4999H933.1ZM923.1 21.5999H928.8V26.9499H923.1V21.5999ZM933.1 21.5999H938.8V26.9499H933.1V21.5999Z" stroke="white" stroke-width="10" mask="url(#path-1-outside-1_507:1002)"/>
<path d="M994.5 21.8999C987.9 18.7999 980.85 12.8999 976 8.0999C974.75 6.8999 972.75 6.9499 971.55 8.2999C967.45 12.8999 960.2 19.2499 953.55 21.9999C952.4 22.4499 951.8 23.6999 952.1 24.8499C952.4 26.0499 953.7 26.6999 954.8 26.2499C961.5 23.4499 970.5 16.1999 973.95 12.1999C978.25 16.7499 986.55 22.9999 993.25 26.0999C994.35 26.5999 995.6 25.9999 995.9 24.7999C996.25 23.6499 995.65 22.3999 994.5 21.8999ZM982.2 25.4999C983.35 25.4999 984.3 24.4999 984.3 23.3499C984.3 22.1499 983.35 21.1999 982.2 21.1999H965.8C964.65 21.1999 963.7 22.1499 963.7 23.3499C963.7 24.5499 964.65 25.4999 965.8 25.4999H982.2ZM956.95 30.3499C955.8 30.3499 954.85 31.2999 954.85 32.4999C954.85 33.6999 955.8 34.6499 956.95 34.6499H969.4C967.1 38.1499 963.55 41.2999 959.3 43.4999C958.15 44.0999 957.5 45.3499 957.7 46.5499C957.85 47.7999 958.95 48.7499 960.2 48.6499C967.8 48.3499 977.7 46.9499 984.4 45.2999C985.05 46.4499 985.65 47.5999 986.1 48.5999C986.6 49.7499 987.95 50.1999 989 49.6499C990.1 48.9999 990.6 47.5999 990 46.4499C988.15 42.8999 985.25 38.5499 983.35 36.0999C982.55 35.0999 981.05 34.9499 980 35.7499C979.05 36.4999 979 37.8999 979.85 38.8499C980.5 39.5499 981.2 40.4499 981.9 41.4499C977.4 42.4999 971.45 43.4999 966.15 44.0999C969.5 41.6999 972.6 37.9499 974.4 34.6499H991.05C992.2 34.6499 993.15 33.6499 993.15 32.4999C993.15 31.2999 992.2 30.3499 991.05 30.3499H956.95Z" stroke="white" stroke-width="10" mask="url(#path-1-outside-1_507:1002)"/>
<path d="M1019.85 38.9499C1020.85 38.2999 1021.2 36.9999 1020.65 35.9999C1019.2 33.4499 1016.95 30.4999 1014.75 28.4499C1017.1 25.1999 1019 21.4999 1020.1 17.2499C1020.55 15.5999 1019.2 13.9499 1017.45 13.9499H1014.2V8.5499C1014.2 7.2999 1013.2 6.3499 1012.05 6.3499C1010.85 6.3499 1009.85 7.2999 1009.85 8.5499V13.9499H1004.75C1003.55 13.9499 1002.6 14.9499 1002.6 16.0999C1002.6 17.2999 1003.55 18.2499 1004.75 18.2499H1015.2C1013.15 24.1499 1009.05 29.5499 1003.4 33.8499C1002.45 34.5499 1002.2 35.8999 1002.85 36.8499C1003.5 37.8999 1004.85 38.0999 1005.8 37.3999C1007.2 36.3499 1008.55 35.1999 1009.85 33.9999V47.8999C1009.85 49.1499 1010.85 50.0999 1012.05 50.0999C1013.25 50.0999 1014.2 49.0999 1014.2 47.8999V34.1499C1015.2 35.3499 1016.15 36.7499 1017.05 38.2499C1017.65 39.2499 1018.9 39.5499 1019.85 38.9499ZM1033.55 44.8999V25.7499H1041.2C1042.4 25.7499 1043.4 24.7499 1043.4 23.5499C1043.4 22.3499 1042.4 21.3499 1041.2 21.3499H1033.55V8.8999C1033.55 7.6999 1032.55 6.6999 1031.35 6.6999C1030.15 6.6999 1029.15 7.6499 1029.15 8.8999V21.3499H1021.65C1020.45 21.3499 1019.5 22.3499 1019.5 23.5499C1019.5 24.7499 1020.5 25.7499 1021.65 25.7499H1029.15V44.8999H1019.65C1018.4 44.8999 1017.45 45.8999 1017.45 47.0999C1017.45 48.2499 1018.4 49.2499 1019.65 49.2499H1043.25C1044.45 49.2499 1045.4 48.2499 1045.4 47.0999C1045.4 45.8999 1044.45 44.8999 1043.25 44.8999H1033.55Z" stroke="white" stroke-width="10" mask="url(#path-1-outside-1_507:1002)"/>
<path d="M30.9498 100.15C29.8998 99.4999 28.5998 99.8499 27.9498 100.95C27.3998 101.95 27.7498 103.25 28.7498 103.9C33.3498 106.75 35.0998 109.9 34.4998 114.1C33.5998 119.85 24.3998 121.2 23.3998 114.35C23.2998 113.65 23.2498 113 23.1998 112.3C24.4998 112.35 25.8498 112.4 27.3498 112.4C28.5498 112.4 29.5498 111.4 29.5998 110.2C29.6498 109 28.6498 108.05 27.4498 108.1C25.9998 108.15 24.5998 108.2 23.2498 108.15C23.6998 101.2 25.6998 93.4999 23.1498 85.0499C22.7998 83.8499 21.4998 83.1999 20.2998 83.5499C19.1498 83.8999 18.5498 85.1499 18.8498 86.2999C20.8998 93.3999 19.3498 101.1 18.7998 107.8C15.4498 107.3 13.5998 106.35 15.0498 105.1C15.8998 104.35 16.1498 103.25 15.5998 102.45C14.9998 101.45 13.7998 101.1 12.8498 101.6C8.7998 103.8 8.9498 108.25 13.0998 110.4C14.3498 111.05 16.1998 111.5 18.6498 111.85C18.6498 114.95 19.1498 117.7 20.6998 119.9C24.6498 125.45 37.9498 124.9 38.9998 113.6C39.5498 107.3 34.6998 102.55 30.9498 100.15ZM16.3998 98.1999C17.4998 98.6499 18.7498 98.0499 19.1498 96.9499C19.4998 95.8499 18.9498 94.5999 17.8498 94.1499C16.1498 93.3999 14.0498 92.3499 12.4998 91.4499C11.3998 90.8499 10.0498 91.1999 9.4498 92.2499C8.84981 93.3999 9.1998 94.7999 10.2998 95.3999C12.1498 96.3999 14.6998 97.4999 16.3998 98.1999Z" stroke="white" stroke-width="10" mask="url(#path-1-outside-1_507:1002)"/>
<path d="M93.5998 96.1499C93.5498 94.9499 92.4998 94.0499 91.2998 94.0999C89.3498 94.1999 86.7998 94.1999 83.8498 94.2499C83.8498 91.4499 83.8498 88.4999 83.9498 85.4499C83.9998 84.2499 82.9998 83.2499 81.7998 83.2499C80.5998 83.2499 79.5998 84.1999 79.5498 85.4499C79.4998 88.5999 79.4998 91.5499 79.4998 94.2999H68.6998C68.6998 92.0499 68.6498 89.4999 68.5498 86.5499C68.4998 85.2999 67.4498 84.2999 66.1998 84.3499C64.9998 84.3499 64.0498 85.3499 64.0998 86.5999C64.1998 89.0499 64.2498 91.6999 64.1998 94.3499C61.3998 94.3499 58.7498 94.3999 56.4998 94.4499C55.2498 94.4999 54.3498 95.5499 54.3998 96.7499C54.4498 97.9999 55.4498 98.8999 56.6998 98.8499C58.8498 98.7499 61.3998 98.6999 64.1998 98.6499C64.2498 103.4 64.3998 107.8 65.2998 110.6C65.6998 111.7 66.9498 112.3 68.1498 111.9C69.2498 111.6 69.8498 110.4 69.5498 109.3C68.7498 106.4 68.6998 103.2 68.6998 98.6499H79.4498C79.1998 108.15 77.8498 114.75 69.3998 119.3C68.2998 119.9 67.8498 121.2 68.3998 122.3C68.8998 123.4 70.2498 123.85 71.3498 123.3C81.8498 117.7 83.4998 109.15 83.7998 98.6499C86.7998 98.6499 89.4998 98.5999 91.4998 98.4999C92.7498 98.4499 93.6998 97.3999 93.5998 96.1499Z" stroke="white" stroke-width="10" mask="url(#path-1-outside-1_507:1002)"/>
<path d="M137.8 91.6499C140.85 91.6499 143.4 89.1499 143.4 86.0499C143.4 82.9499 140.85 80.4499 137.8 80.4499C134.75 80.4499 132.2 82.9499 132.2 86.0499C132.2 89.0999 134.7 91.6499 137.8 91.6499ZM137.8 83.0499C139.45 83.0499 140.8 84.3499 140.8 86.0499C140.8 87.7499 139.45 89.0499 137.8 89.0499C136.1 89.0499 134.8 87.6999 134.8 86.0499C134.8 84.3499 136.15 83.0499 137.8 83.0499ZM139.95 96.7499C141.2 96.6499 142.1 95.5999 141.95 94.3499C141.85 93.1499 140.8 92.2499 139.6 92.2999C136.1 92.4999 131.3 92.6499 126.25 92.6999V86.4499C126.25 85.2499 125.25 84.1999 123.95 84.1999C122.7 84.1999 121.7 85.2499 121.7 86.4499V92.7499C116.85 92.7499 112.1 92.6999 108.35 92.5499C107.15 92.4999 106.1 93.4499 106.05 94.6499C105.95 95.8999 106.9 96.9499 108.15 96.9999C111.75 97.1499 116.7 97.1999 121.7 97.1999V119.55C121.7 120.8 122.75 121.8 123.95 121.8C125.25 121.8 126.25 120.75 126.25 119.55V97.1499C131.65 97.0499 136.75 96.9499 139.95 96.7499ZM117.25 102.9C116.3 102.1 114.85 102.3 114.1 103.35C111.9 106.35 108.15 110.1 104.9 112.55C103.9 113.3 103.6 114.7 104.25 115.7C104.95 116.8 106.35 117.1 107.35 116.35C110.85 113.8 115.4 109.2 117.7 106.3C118.5 105.25 118.3 103.75 117.25 102.9ZM133.4 103.25C132.55 102.35 131.1 102.3 130.25 103.15C129.35 103.95 129.25 105.4 130.1 106.3L139.15 116.05C140 116.95 141.4 117 142.3 116.15C143.2 115.35 143.3 113.9 142.45 113L133.4 103.25Z" stroke="white" stroke-width="10" mask="url(#path-1-outside-1_507:1002)"/>
<path d="M189.6 105.7C190.8 105.7 191.8 104.75 191.8 103.5C191.8 102.3 190.8 101.3 189.6 101.3H158.4C157.2 101.3 156.2 102.25 156.2 103.5C156.2 104.7 157.2 105.7 158.4 105.7H189.6Z" stroke="white" stroke-width="10" mask="url(#path-1-outside-1_507:1002)"/>
<path d="M239.3 107.55C235.2 103.25 229.05 99.3999 222.55 98.5999V86.9999C222.55 85.7499 221.5 84.6999 220.25 84.6999C219.05 84.6999 218 85.7499 218 86.9999V120.9C218 122.15 219.05 123.15 220.25 123.15C221.55 123.15 222.55 122.1 222.55 120.9V103C227.85 103.9 232.1 106.35 236.3 110.9C237.15 111.8 238.55 111.8 239.3 110.9C240.15 109.9 240.15 108.45 239.3 107.55Z" stroke="white" stroke-width="10" mask="url(#path-1-outside-1_507:1002)"/>
<path d="M274 114.4C275.1 114.4 275.95 113.5 275.95 112.45L276.6 85.7499C276.65 84.2999 275.45 83.0999 274 83.0999C272.55 83.0999 271.35 84.2999 271.4 85.7499L272.05 112.45C272.05 113.5 272.9 114.4 274 114.4ZM274 123.7C275.9 123.7 277.45 122.15 277.45 120.3C277.45 118.4 275.9 116.85 274 116.85C272.15 116.85 270.55 118.4 270.55 120.3C270.55 122.2 272.15 123.7 274 123.7Z" stroke="white" stroke-width="10" mask="url(#path-1-outside-1_507:1002)"/>
</svg>
