<svg width="970" height="54" viewBox="0 0 970 54" fill="none" xmlns="http://www.w3.org/2000/svg">
<mask id="path-1-outside-1_500:992" maskUnits="userSpaceOnUse" x="0" y="0.450195" width="970" height="54" fill="black">
<rect fill="white" y="0.450195" width="970" height="54"/>
<path d="M26.3 32.5502C22.2 28.2502 16.05 24.4002 9.55 23.6002V12.0002C9.55 10.7502 8.5 9.70019 7.25 9.70019C6.05 9.70019 5 10.7502 5 12.0002V45.9002C5 47.1502 6.05 48.1502 7.25 48.1502C8.55 48.1502 9.55 47.1002 9.55 45.9002V28.0002C14.85 28.9002 19.1 31.3502 23.3 35.9002C24.15 36.8002 25.55 36.8002 26.3 35.9002C27.15 34.9002 27.15 33.4502 26.3 32.5502Z"/>
<path d="M76.6 30.7002C77.8 30.7002 78.8 29.7502 78.8 28.5002C78.8 27.3002 77.8 26.3002 76.6 26.3002H45.4C44.2 26.3002 43.2 27.2502 43.2 28.5002C43.2 29.7002 44.2 30.7002 45.4 30.7002H76.6Z"/>
<path d="M105.8 20.5502C106.8 21.1502 108.1 20.8502 108.6 19.8002C109.2 18.7002 108.85 17.3002 107.85 16.6502C105.1 14.9002 101.65 13.7002 98.4 13.3502C97.2 13.2002 96.15 14.1002 95.95 15.3502C95.8 16.4502 96.65 17.5002 97.8 17.7002C100.7 18.1002 103.5 19.0502 105.8 20.5502ZM99.15 47.5002C110.65 44.5502 122.7 35.1002 128.05 26.7002C128.75 25.6002 128.5 24.1502 127.4 23.3002C126.4 22.5502 125 22.8002 124.3 23.9002C117.85 33.8502 106.25 40.6502 97.85 42.9502C96.6 43.3002 95.9 44.5502 96.25 45.7502C96.6 47.0002 97.9 47.8002 99.15 47.5002ZM102.9 31.4002C104 31.8502 105.3 31.4002 105.75 30.3502C106.25 29.1502 105.8 27.8002 104.65 27.3002C102.05 26.1502 98.45 25.3502 95.4 25.2002C94.15 25.1502 93.15 26.2002 93.1 27.4502C93.05 28.6002 94 29.6002 95.2 29.6502C97.6 29.8002 100.65 30.4502 102.9 31.4002Z"/>
<path d="M157.8 25.0002C158.75 23.9502 158.7 22.3502 157.7 21.5002C155.2 19.3502 150.9 17.0002 146.5 16.4002C145.2 16.2502 144.05 17.2002 143.9 18.5502C143.75 19.8002 144.65 20.9002 145.9 21.1002C149.3 21.6502 152.3 23.0002 154.5 25.0002C155.45 25.9002 156.95 25.9002 157.8 25.0002ZM146.55 45.9502C159.2 43.2502 172.15 34.3002 179.5 24.5502C180.3 23.5002 180.05 22.0002 179.05 21.1502C178 20.3502 176.55 20.5502 175.75 21.6002C167.25 33.0002 154.8 39.2002 145.95 41.3002C144.65 41.6002 143.8 42.8002 143.95 44.0502C144.1 45.3002 145.3 46.2002 146.55 45.9502Z"/>
<path d="M224.35 19.5002C227.45 19.5002 229.95 16.9502 229.95 13.9002C229.95 10.8502 227.45 8.30019 224.35 8.30019C221.3 8.30019 218.75 10.8002 218.75 13.9002C218.75 16.9502 221.25 19.5002 224.35 19.5002ZM224.35 16.9002C222.65 16.9002 221.35 15.5502 221.35 13.9002C221.35 12.2002 222.7 10.9002 224.35 10.9002C226.05 10.9002 227.35 12.2502 227.35 13.9002C227.35 15.5502 226.05 16.9002 224.35 16.9002ZM228.65 42.2002C229.9 41.9502 230.8 40.7502 230.6 39.5002C228.8 29.2002 221.25 23.5002 217.75 18.9502C216.95 17.9502 215.55 17.7002 214.55 18.3502C213.45 19.0502 213.2 20.5002 213.95 21.4502C217.65 26.2002 224.6 31.4502 226.1 40.3002C226.3 41.6002 227.45 42.4002 228.65 42.2002ZM194.25 41.5002C201.35 35.4502 204.45 29.4002 206.5 22.5002C206.85 21.2502 206.15 20.0002 204.95 19.6002C203.75 19.2502 202.45 19.9502 202.1 21.1502C200.55 26.2002 198.3 32.1002 191.45 37.9002C190.5 38.7002 190.3 40.1502 191.05 41.1502C191.85 42.1502 193.3 42.3002 194.25 41.5002Z"/>
<path d="M276.6 30.7002C277.8 30.7002 278.8 29.7502 278.8 28.5002C278.8 27.3002 277.8 26.3002 276.6 26.3002H245.4C244.2 26.3002 243.2 27.2502 243.2 28.5002C243.2 29.7002 244.2 30.7002 245.4 30.7002H276.6Z"/>
<path d="M326.3 32.5502C322.2 28.2502 316.05 24.4002 309.55 23.6002V12.0002C309.55 10.7502 308.5 9.70019 307.25 9.70019C306.05 9.70019 305 10.7502 305 12.0002V45.9002C305 47.1502 306.05 48.1502 307.25 48.1502C308.55 48.1502 309.55 47.1002 309.55 45.9002V28.0002C314.85 28.9002 319.1 31.3502 323.3 35.9002C324.15 36.8002 325.55 36.8002 326.3 35.9002C327.15 34.9002 327.15 33.4502 326.3 32.5502Z"/>
<path d="M376.85 19.9502C374.15 19.9502 370.4 20.0502 365.65 20.1502C365.65 17.0502 365.45 13.9502 365.25 10.9002C365.15 9.6502 364.05 8.7002 362.85 8.80019C361.6 8.95019 360.65 10.0502 360.75 11.2502C361 14.5502 361.15 17.5502 361.15 20.2502L345.1 20.7502C343.85 20.8002 342.9 21.8502 342.95 23.0502C342.95 24.3002 344 25.2502 345.25 25.2002C351.25 25.0002 356.5 24.8502 361.05 24.7502C360.4 35.9002 356.85 41.3002 349.3 43.7502C348.1 44.1002 347.4 45.3502 347.7 46.5502C348.05 47.7502 349.3 48.4502 350.5 48.1002C361.85 44.5002 365.05 35.1002 365.55 24.6002C370.35 24.5002 374.15 24.4002 376.85 24.4002C378.05 24.4002 379.05 23.4002 379.05 22.2002C379.1 20.9502 378.1 19.9502 376.85 19.9502Z"/>
<path d="M426.6 30.7002C427.8 30.7002 428.8 29.7502 428.8 28.5002C428.8 27.3002 427.8 26.3002 426.6 26.3002H395.4C394.2 26.3002 393.2 27.2502 393.2 28.5002C393.2 29.7002 394.2 30.7002 395.4 30.7002H426.6Z"/>
<path d="M480.95 12.5502C479.75 10.7502 478.25 8.75019 476.75 7.3002C476.15 6.6502 475.15 6.6502 474.45 7.3002C473.85 7.85019 473.9 8.8502 474.5 9.45019C475.7 10.7502 477.25 12.6502 478.3 14.2502C478.8 15.0002 479.75 15.2502 480.45 14.7502C481.2 14.2502 481.45 13.2502 480.95 12.5502ZM470.6 11.5502C471.85 12.8502 473.45 14.8002 474.5 16.4502C475 17.1502 476 17.4002 476.7 16.9502C477.45 16.4502 477.7 15.4002 477.2 14.7002C476 12.9002 474.4 10.7502 472.85 9.25019C472.2 8.6502 471.15 8.6502 470.55 9.3002C469.95 9.90019 469.95 10.9502 470.6 11.5502ZM465.6 32.6502C468.05 29.7502 469.8 27.0502 470.95 24.7502C474.45 17.6502 471.15 12.4002 463.95 13.6502C460.7 14.2502 454 14.8002 447.35 14.6502C446.15 14.6502 445.1 15.6002 445.1 16.8002C445.05 18.0502 446 19.0502 447.2 19.0502C453.7 19.1002 461.2 18.5502 464.6 18.0002C468.15 17.4502 468.8 18.8002 466.95 22.7502C464.5 27.7502 456.85 37.5002 443.9 43.2002C442.7 43.7002 442.1 45.0002 442.45 46.2502C442.85 47.4502 444.2 48.0502 445.35 47.5002C452.4 44.3502 458 40.3002 462.25 36.2002C467.1 38.1002 472.35 42.4002 475.6 47.1002C476.4 48.1002 477.75 48.3002 478.7 47.5502C479.7 46.7002 479.95 45.2502 479.2 44.2002C476.1 39.9502 470.75 35.1502 465.6 32.6502Z"/>
<path d="M514.05 17.5002C515.1 16.9502 515.55 15.6002 515.05 14.4502C514.55 13.4002 513.3 13.0002 512.2 13.5502C510.8 14.2502 509.3 14.8502 507.7 15.3502C508.2 13.6502 508.7 12.0002 509.1 10.5002C509.4 9.3502 508.7 8.1502 507.55 7.85019C506.35 7.50019 505.2 8.20019 504.9 9.40019C504.3 11.6502 503.65 14.0002 502.9 16.4002C500.4 16.8002 497.9 16.9502 495.65 16.9002C494.45 16.8502 493.45 17.7502 493.3 18.9002C493.2 20.1002 494.05 21.1502 495.25 21.2502C497.25 21.3502 499.3 21.2502 501.4 21.0502C499.3 27.0002 496.5 33.3002 492.4 39.6502C491.75 40.6502 492 42.0502 493 42.7502C494.05 43.4002 495.45 43.1502 496.1 42.1002C500.65 35.1002 503.85 27.2502 506.15 20.2502C509.05 19.6002 511.75 18.6502 514.05 17.5002ZM528.7 41.2502C526.65 39.7002 523.45 37.5002 519.65 36.2002C518.25 27.7002 519.1 25.8002 524.2 25.3002C529.4 24.8002 528.4 17.6502 516.8 18.1502C515.55 18.2002 514.65 19.2502 514.75 20.5002C514.8 21.6502 515.85 22.4502 517.05 22.3502C518.1 22.3002 519.2 22.3502 520.25 22.5002C517.1 23.6502 514.1 26.4502 515.15 35.5002C500 34.0002 502.4 48.1502 513.05 48.1502C519.1 48.1502 520.3 43.5502 520.2 41.0502C522.6 42.1502 524.65 43.6002 526.1 44.7002C527.05 45.4002 528.4 45.2002 529.1 44.2502C529.8 43.3502 529.65 41.9502 528.7 41.2502ZM509.5 42.8002C507.05 40.2502 511.4 38.1002 515.85 39.6002C516.8 45.6002 511.3 44.7002 509.5 42.8002Z"/>
<path d="M564.7 15.7002C565.75 16.3002 567.1 15.9002 567.5 14.8502C568.05 13.6502 567.6 12.2502 566.5 11.6502C563.55 10.0502 559.85 8.95019 555.9 8.55019C554.6 8.4002 553.5 9.3502 553.35 10.6002C553.2 11.8002 554.1 12.9002 555.35 13.0002C559 13.3002 562.1 14.2002 564.7 15.7002ZM557.7 48.4002C573.6 49.2002 578.55 41.0002 577.05 33.8002C575.2 24.7502 561.3 22.6002 551.2 33.1002C551.55 29.1002 553.2 22.9502 554.6 19.4502C555.1 18.3502 554.6 17.0502 553.55 16.5502C552.45 16.0502 551.15 16.5002 550.65 17.6002C548.45 22.5502 546.95 30.2002 546.9 36.7502C546.9 38.0002 547.75 39.1002 549 39.4502C550.15 39.8002 551.45 39.3002 552.2 38.2502C559.5 28.3502 570.7 27.6502 572.75 34.5002C574.25 39.5002 569.95 45.1002 558.05 44.0502C556.85 43.9502 555.75 44.8002 555.65 46.0002C555.55 47.2502 556.45 48.3502 557.7 48.4002Z"/>
<path d="M624.15 42.7502C620.15 43.8502 614.8 43.6002 611.35 39.1002C606.55 32.8502 610.55 23.4502 620.25 17.3502C622.4 16.8502 624.4 16.2502 626.3 15.5502C627.45 15.1002 628 13.8002 627.55 12.6502C627.05 11.5502 625.8 11.0002 624.65 11.4002C616.4 14.4002 606.7 15.4502 595.85 14.6002C594.65 14.5002 593.55 15.4002 593.4 16.6002C593.3 17.8502 594.2 18.9502 595.4 19.0002C601.3 19.5002 607.1 19.4002 612.5 18.7502C603.65 26.7502 604 36.3002 607.45 41.2502C611.1 46.5502 618.15 48.9502 625.05 47.2002C626.3 46.9002 627.05 45.6002 626.8 44.3002C626.55 43.1002 625.35 42.4002 624.15 42.7502ZM632.75 24.6502C631.6 21.9002 630.45 20.2002 628.5 18.4502C627.9 17.9002 626.95 17.9502 626.35 18.5002C625.8 19.1002 625.8 20.0002 626.4 20.6002C628 22.1002 629.15 23.8002 629.95 25.9002C630.25 26.7002 631.15 27.1002 631.95 26.7502C632.7 26.4002 633.1 25.5002 632.75 24.6502ZM624.5 20.4002C623.85 19.8002 622.8 19.9002 622.25 20.5502C621.65 21.1502 621.75 22.1502 622.4 22.7002C624 24.1502 625 25.6502 625.8 27.7502C626.1 28.6002 627 29.0002 627.8 28.6502C628.6 28.3002 629.05 27.3502 628.7 26.5002C627.6 23.9502 626.3 22.0502 624.5 20.4002Z"/>
<path d="M678.55 41.3502C676.35 39.8002 673.55 38.4502 670.55 37.4502C670.55 33.4502 670.3 28.3502 669.95 23.5502C672.4 23.4002 674.6 23.2002 676.4 23.0502C677.55 22.9002 678.45 21.8502 678.4 20.7002C678.3 19.5002 677.3 18.6502 676.1 18.7502C674.2 18.9502 672 19.1002 669.6 19.2502C669.3 15.8502 668.95 12.8002 668.6 10.7002C668.4 9.50019 667.25 8.7002 666.1 8.9002C664.95 9.05019 664.15 10.1502 664.35 11.3002C664.7 13.3502 665 16.2502 665.3 19.4502C661.15 19.6502 656.85 19.7502 653 19.7002C651.8 19.7002 650.8 20.6502 650.8 21.8502C650.8 23.0502 651.75 24.0502 652.95 24.0502C657.15 24.0502 661.55 23.9502 665.65 23.7502C665.95 28.1002 666.2 32.6002 666.2 36.3002C659.25 34.9502 652.65 35.9502 652.25 41.4002C651.95 45.2502 655.9 48.2002 661.3 48.2002C666.3 48.2002 669.45 45.9002 670.25 41.7502C672.25 42.5502 674.15 43.6002 675.95 44.9002C676.95 45.5502 678.3 45.4002 679 44.4502C679.7 43.4002 679.55 42.0502 678.55 41.3502ZM648.25 9.50019C647.1 9.15019 645.85 9.75019 645.5 10.9002C642.45 21.2502 642.25 35.2002 645.1 46.3502C645.4 47.5502 646.55 48.2002 647.75 47.8502C648.85 47.5002 649.5 46.3002 649.2 45.1502C646.05 32.9502 647.55 19.6502 649.65 12.2502C649.95 11.1002 649.35 9.90019 648.25 9.50019ZM661.3 43.8502C655.95 43.8502 654.35 39.8002 661 40.0002C662.75 40.0502 664.4 40.2002 666.05 40.5502C665.75 42.9502 664.45 43.8502 661.3 43.8502Z"/>
<path d="M713 46.0502C726.8 44.2002 731.2 33.3502 728.9 25.2502C725.15 12.1502 705.85 10.2002 697.05 22.1002C691.2 30.1002 691.65 41.4002 698 42.9002C704.75 44.5002 711.05 32.2502 713.95 18.6002C719.95 18.7002 724.75 23.1002 725 28.7502C725.3 35.6502 720.75 40.2502 712.35 41.5502C711.15 41.7502 710.3 42.8502 710.5 44.0502C710.65 45.3002 711.8 46.2002 713 46.0502ZM697.75 37.6002C695.5 33.8502 698.35 21.0502 709.3 18.9002C707.2 29.0502 700.65 42.5002 697.75 37.6002Z"/>
<path d="M774.8 16.6502C777.85 16.6502 780.4 14.1502 780.4 11.0502C780.4 7.95019 777.85 5.4502 774.8 5.4502C771.75 5.4502 769.2 7.95019 769.2 11.0502C769.2 14.1002 771.7 16.6502 774.8 16.6502ZM774.8 8.05019C776.45 8.05019 777.8 9.35019 777.8 11.0502C777.8 12.7502 776.45 14.0502 774.8 14.0502C773.1 14.0502 771.8 12.7002 771.8 11.0502C771.8 9.35019 773.15 8.05019 774.8 8.05019ZM776.95 21.7502C778.2 21.6502 779.1 20.6002 778.95 19.3502C778.85 18.1502 777.8 17.2502 776.6 17.3002C773.1 17.5002 768.3 17.6502 763.25 17.7002V11.4502C763.25 10.2502 762.25 9.20019 760.95 9.20019C759.7 9.20019 758.7 10.2502 758.7 11.4502V17.7502C753.85 17.7502 749.1 17.7002 745.35 17.5502C744.15 17.5002 743.1 18.4502 743.05 19.6502C742.95 20.9002 743.9 21.9502 745.15 22.0002C748.75 22.1502 753.7 22.2002 758.7 22.2002V44.5502C758.7 45.8002 759.75 46.8002 760.95 46.8002C762.25 46.8002 763.25 45.7502 763.25 44.5502V22.1502C768.65 22.0502 773.75 21.9502 776.95 21.7502ZM754.25 27.9002C753.3 27.1002 751.85 27.3002 751.1 28.3502C748.9 31.3502 745.15 35.1002 741.9 37.5502C740.9 38.3002 740.6 39.7002 741.25 40.7002C741.95 41.8002 743.35 42.1002 744.35 41.3502C747.85 38.8002 752.4 34.2002 754.7 31.3002C755.5 30.2502 755.3 28.7502 754.25 27.9002ZM770.4 28.2502C769.55 27.3502 768.1 27.3002 767.25 28.1502C766.35 28.9502 766.25 30.4002 767.1 31.3002L776.15 41.0502C777 41.9502 778.4 42.0002 779.3 41.1502C780.2 40.3502 780.3 38.9002 779.45 38.0002L770.4 28.2502Z"/>
<path d="M821.05 9.25019C819.95 8.7502 818.6 9.25019 818.05 10.4002C814.15 18.7002 807 25.6502 797.05 31.0502C795.9 31.6502 795.4 33.0002 795.95 34.2002C796.45 35.3502 797.8 35.8502 798.95 35.3002C803.9 32.7502 808.1 29.7002 811.55 26.5002C812.25 30.5502 811.7 37.1002 810.9 46.0002C810.8 47.2502 811.75 48.3502 813 48.4002C814.3 48.4502 815.4 47.4502 815.5 46.2002C816.45 34.6502 816.7 27.1502 815.15 22.8502C818.3 19.3002 820.65 15.7002 822.25 12.3002C822.75 11.1502 822.25 9.8002 821.05 9.25019Z"/>
<path d="M857.8 25.0002C858.75 23.9502 858.7 22.3502 857.7 21.5002C855.2 19.3502 850.9 17.0002 846.5 16.4002C845.2 16.2502 844.05 17.2002 843.9 18.5502C843.75 19.8002 844.65 20.9002 845.9 21.1002C849.3 21.6502 852.3 23.0002 854.5 25.0002C855.45 25.9002 856.95 25.9002 857.8 25.0002ZM846.55 45.9502C859.2 43.2502 872.15 34.3002 879.5 24.5502C880.3 23.5002 880.05 22.0002 879.05 21.1502C878 20.3502 876.55 20.5502 875.75 21.6002C867.25 33.0002 854.8 39.2002 845.95 41.3002C844.65 41.6002 843.8 42.8002 843.95 44.0502C844.1 45.3002 845.3 46.2002 846.55 45.9502Z"/>
<path d="M926.3 32.5502C922.2 28.2502 916.05 24.4002 909.55 23.6002V12.0002C909.55 10.7502 908.5 9.70019 907.25 9.70019C906.05 9.70019 905 10.7502 905 12.0002V45.9002C905 47.1502 906.05 48.1502 907.25 48.1502C908.55 48.1502 909.55 47.1002 909.55 45.9002V28.0002C914.85 28.9002 919.1 31.3502 923.3 35.9002C924.15 36.8002 925.55 36.8002 926.3 35.9002C927.15 34.9002 927.15 33.4502 926.3 32.5502Z"/>
<path d="M961 39.4002C962.1 39.4002 962.95 38.5002 962.95 37.4502L963.6 10.7502C963.65 9.3002 962.45 8.10019 961 8.10019C959.55 8.10019 958.35 9.3002 958.4 10.7502L959.05 37.4502C959.05 38.5002 959.9 39.4002 961 39.4002ZM961 48.7002C962.9 48.7002 964.45 47.1502 964.45 45.3002C964.45 43.4002 962.9 41.8502 961 41.8502C959.15 41.8502 957.55 43.4002 957.55 45.3002C957.55 47.2002 959.15 48.7002 961 48.7002Z"/>
</mask>
<path d="M26.3 32.5502C22.2 28.2502 16.05 24.4002 9.55 23.6002V12.0002C9.55 10.7502 8.5 9.70019 7.25 9.70019C6.05 9.70019 5 10.7502 5 12.0002V45.9002C5 47.1502 6.05 48.1502 7.25 48.1502C8.55 48.1502 9.55 47.1002 9.55 45.9002V28.0002C14.85 28.9002 19.1 31.3502 23.3 35.9002C24.15 36.8002 25.55 36.8002 26.3 35.9002C27.15 34.9002 27.15 33.4502 26.3 32.5502Z" fill="#42210C"/>
<path d="M76.6 30.7002C77.8 30.7002 78.8 29.7502 78.8 28.5002C78.8 27.3002 77.8 26.3002 76.6 26.3002H45.4C44.2 26.3002 43.2 27.2502 43.2 28.5002C43.2 29.7002 44.2 30.7002 45.4 30.7002H76.6Z" fill="#42210C"/>
<path d="M105.8 20.5502C106.8 21.1502 108.1 20.8502 108.6 19.8002C109.2 18.7002 108.85 17.3002 107.85 16.6502C105.1 14.9002 101.65 13.7002 98.4 13.3502C97.2 13.2002 96.15 14.1002 95.95 15.3502C95.8 16.4502 96.65 17.5002 97.8 17.7002C100.7 18.1002 103.5 19.0502 105.8 20.5502ZM99.15 47.5002C110.65 44.5502 122.7 35.1002 128.05 26.7002C128.75 25.6002 128.5 24.1502 127.4 23.3002C126.4 22.5502 125 22.8002 124.3 23.9002C117.85 33.8502 106.25 40.6502 97.85 42.9502C96.6 43.3002 95.9 44.5502 96.25 45.7502C96.6 47.0002 97.9 47.8002 99.15 47.5002ZM102.9 31.4002C104 31.8502 105.3 31.4002 105.75 30.3502C106.25 29.1502 105.8 27.8002 104.65 27.3002C102.05 26.1502 98.45 25.3502 95.4 25.2002C94.15 25.1502 93.15 26.2002 93.1 27.4502C93.05 28.6002 94 29.6002 95.2 29.6502C97.6 29.8002 100.65 30.4502 102.9 31.4002Z" fill="#42210C"/>
<path d="M157.8 25.0002C158.75 23.9502 158.7 22.3502 157.7 21.5002C155.2 19.3502 150.9 17.0002 146.5 16.4002C145.2 16.2502 144.05 17.2002 143.9 18.5502C143.75 19.8002 144.65 20.9002 145.9 21.1002C149.3 21.6502 152.3 23.0002 154.5 25.0002C155.45 25.9002 156.95 25.9002 157.8 25.0002ZM146.55 45.9502C159.2 43.2502 172.15 34.3002 179.5 24.5502C180.3 23.5002 180.05 22.0002 179.05 21.1502C178 20.3502 176.55 20.5502 175.75 21.6002C167.25 33.0002 154.8 39.2002 145.95 41.3002C144.65 41.6002 143.8 42.8002 143.95 44.0502C144.1 45.3002 145.3 46.2002 146.55 45.9502Z" fill="#42210C"/>
<path d="M224.35 19.5002C227.45 19.5002 229.95 16.9502 229.95 13.9002C229.95 10.8502 227.45 8.30019 224.35 8.30019C221.3 8.30019 218.75 10.8002 218.75 13.9002C218.75 16.9502 221.25 19.5002 224.35 19.5002ZM224.35 16.9002C222.65 16.9002 221.35 15.5502 221.35 13.9002C221.35 12.2002 222.7 10.9002 224.35 10.9002C226.05 10.9002 227.35 12.2502 227.35 13.9002C227.35 15.5502 226.05 16.9002 224.35 16.9002ZM228.65 42.2002C229.9 41.9502 230.8 40.7502 230.6 39.5002C228.8 29.2002 221.25 23.5002 217.75 18.9502C216.95 17.9502 215.55 17.7002 214.55 18.3502C213.45 19.0502 213.2 20.5002 213.95 21.4502C217.65 26.2002 224.6 31.4502 226.1 40.3002C226.3 41.6002 227.45 42.4002 228.65 42.2002ZM194.25 41.5002C201.35 35.4502 204.45 29.4002 206.5 22.5002C206.85 21.2502 206.15 20.0002 204.95 19.6002C203.75 19.2502 202.45 19.9502 202.1 21.1502C200.55 26.2002 198.3 32.1002 191.45 37.9002C190.5 38.7002 190.3 40.1502 191.05 41.1502C191.85 42.1502 193.3 42.3002 194.25 41.5002Z" fill="#42210C"/>
<path d="M276.6 30.7002C277.8 30.7002 278.8 29.7502 278.8 28.5002C278.8 27.3002 277.8 26.3002 276.6 26.3002H245.4C244.2 26.3002 243.2 27.2502 243.2 28.5002C243.2 29.7002 244.2 30.7002 245.4 30.7002H276.6Z" fill="#42210C"/>
<path d="M326.3 32.5502C322.2 28.2502 316.05 24.4002 309.55 23.6002V12.0002C309.55 10.7502 308.5 9.70019 307.25 9.70019C306.05 9.70019 305 10.7502 305 12.0002V45.9002C305 47.1502 306.05 48.1502 307.25 48.1502C308.55 48.1502 309.55 47.1002 309.55 45.9002V28.0002C314.85 28.9002 319.1 31.3502 323.3 35.9002C324.15 36.8002 325.55 36.8002 326.3 35.9002C327.15 34.9002 327.15 33.4502 326.3 32.5502Z" fill="#42210C"/>
<path d="M376.85 19.9502C374.15 19.9502 370.4 20.0502 365.65 20.1502C365.65 17.0502 365.45 13.9502 365.25 10.9002C365.15 9.6502 364.05 8.7002 362.85 8.80019C361.6 8.95019 360.65 10.0502 360.75 11.2502C361 14.5502 361.15 17.5502 361.15 20.2502L345.1 20.7502C343.85 20.8002 342.9 21.8502 342.95 23.0502C342.95 24.3002 344 25.2502 345.25 25.2002C351.25 25.0002 356.5 24.8502 361.05 24.7502C360.4 35.9002 356.85 41.3002 349.3 43.7502C348.1 44.1002 347.4 45.3502 347.7 46.5502C348.05 47.7502 349.3 48.4502 350.5 48.1002C361.85 44.5002 365.05 35.1002 365.55 24.6002C370.35 24.5002 374.15 24.4002 376.85 24.4002C378.05 24.4002 379.05 23.4002 379.05 22.2002C379.1 20.9502 378.1 19.9502 376.85 19.9502Z" fill="#42210C"/>
<path d="M426.6 30.7002C427.8 30.7002 428.8 29.7502 428.8 28.5002C428.8 27.3002 427.8 26.3002 426.6 26.3002H395.4C394.2 26.3002 393.2 27.2502 393.2 28.5002C393.2 29.7002 394.2 30.7002 395.4 30.7002H426.6Z" fill="#42210C"/>
<path d="M480.95 12.5502C479.75 10.7502 478.25 8.75019 476.75 7.3002C476.15 6.6502 475.15 6.6502 474.45 7.3002C473.85 7.85019 473.9 8.8502 474.5 9.45019C475.7 10.7502 477.25 12.6502 478.3 14.2502C478.8 15.0002 479.75 15.2502 480.45 14.7502C481.2 14.2502 481.45 13.2502 480.95 12.5502ZM470.6 11.5502C471.85 12.8502 473.45 14.8002 474.5 16.4502C475 17.1502 476 17.4002 476.7 16.9502C477.45 16.4502 477.7 15.4002 477.2 14.7002C476 12.9002 474.4 10.7502 472.85 9.25019C472.2 8.6502 471.15 8.6502 470.55 9.3002C469.95 9.90019 469.95 10.9502 470.6 11.5502ZM465.6 32.6502C468.05 29.7502 469.8 27.0502 470.95 24.7502C474.45 17.6502 471.15 12.4002 463.95 13.6502C460.7 14.2502 454 14.8002 447.35 14.6502C446.15 14.6502 445.1 15.6002 445.1 16.8002C445.05 18.0502 446 19.0502 447.2 19.0502C453.7 19.1002 461.2 18.5502 464.6 18.0002C468.15 17.4502 468.8 18.8002 466.95 22.7502C464.5 27.7502 456.85 37.5002 443.9 43.2002C442.7 43.7002 442.1 45.0002 442.45 46.2502C442.85 47.4502 444.2 48.0502 445.35 47.5002C452.4 44.3502 458 40.3002 462.25 36.2002C467.1 38.1002 472.35 42.4002 475.6 47.1002C476.4 48.1002 477.75 48.3002 478.7 47.5502C479.7 46.7002 479.95 45.2502 479.2 44.2002C476.1 39.9502 470.75 35.1502 465.6 32.6502Z" fill="#42210C"/>
<path d="M514.05 17.5002C515.1 16.9502 515.55 15.6002 515.05 14.4502C514.55 13.4002 513.3 13.0002 512.2 13.5502C510.8 14.2502 509.3 14.8502 507.7 15.3502C508.2 13.6502 508.7 12.0002 509.1 10.5002C509.4 9.3502 508.7 8.1502 507.55 7.85019C506.35 7.50019 505.2 8.20019 504.9 9.40019C504.3 11.6502 503.65 14.0002 502.9 16.4002C500.4 16.8002 497.9 16.9502 495.65 16.9002C494.45 16.8502 493.45 17.7502 493.3 18.9002C493.2 20.1002 494.05 21.1502 495.25 21.2502C497.25 21.3502 499.3 21.2502 501.4 21.0502C499.3 27.0002 496.5 33.3002 492.4 39.6502C491.75 40.6502 492 42.0502 493 42.7502C494.05 43.4002 495.45 43.1502 496.1 42.1002C500.65 35.1002 503.85 27.2502 506.15 20.2502C509.05 19.6002 511.75 18.6502 514.05 17.5002ZM528.7 41.2502C526.65 39.7002 523.45 37.5002 519.65 36.2002C518.25 27.7002 519.1 25.8002 524.2 25.3002C529.4 24.8002 528.4 17.6502 516.8 18.1502C515.55 18.2002 514.65 19.2502 514.75 20.5002C514.8 21.6502 515.85 22.4502 517.05 22.3502C518.1 22.3002 519.2 22.3502 520.25 22.5002C517.1 23.6502 514.1 26.4502 515.15 35.5002C500 34.0002 502.4 48.1502 513.05 48.1502C519.1 48.1502 520.3 43.5502 520.2 41.0502C522.6 42.1502 524.65 43.6002 526.1 44.7002C527.05 45.4002 528.4 45.2002 529.1 44.2502C529.8 43.3502 529.65 41.9502 528.7 41.2502ZM509.5 42.8002C507.05 40.2502 511.4 38.1002 515.85 39.6002C516.8 45.6002 511.3 44.7002 509.5 42.8002Z" fill="#42210C"/>
<path d="M564.7 15.7002C565.75 16.3002 567.1 15.9002 567.5 14.8502C568.05 13.6502 567.6 12.2502 566.5 11.6502C563.55 10.0502 559.85 8.95019 555.9 8.55019C554.6 8.4002 553.5 9.3502 553.35 10.6002C553.2 11.8002 554.1 12.9002 555.35 13.0002C559 13.3002 562.1 14.2002 564.7 15.7002ZM557.7 48.4002C573.6 49.2002 578.55 41.0002 577.05 33.8002C575.2 24.7502 561.3 22.6002 551.2 33.1002C551.55 29.1002 553.2 22.9502 554.6 19.4502C555.1 18.3502 554.6 17.0502 553.55 16.5502C552.45 16.0502 551.15 16.5002 550.65 17.6002C548.45 22.5502 546.95 30.2002 546.9 36.7502C546.9 38.0002 547.75 39.1002 549 39.4502C550.15 39.8002 551.45 39.3002 552.2 38.2502C559.5 28.3502 570.7 27.6502 572.75 34.5002C574.25 39.5002 569.95 45.1002 558.05 44.0502C556.85 43.9502 555.75 44.8002 555.65 46.0002C555.55 47.2502 556.45 48.3502 557.7 48.4002Z" fill="#42210C"/>
<path d="M624.15 42.7502C620.15 43.8502 614.8 43.6002 611.35 39.1002C606.55 32.8502 610.55 23.4502 620.25 17.3502C622.4 16.8502 624.4 16.2502 626.3 15.5502C627.45 15.1002 628 13.8002 627.55 12.6502C627.05 11.5502 625.8 11.0002 624.65 11.4002C616.4 14.4002 606.7 15.4502 595.85 14.6002C594.65 14.5002 593.55 15.4002 593.4 16.6002C593.3 17.8502 594.2 18.9502 595.4 19.0002C601.3 19.5002 607.1 19.4002 612.5 18.7502C603.65 26.7502 604 36.3002 607.45 41.2502C611.1 46.5502 618.15 48.9502 625.05 47.2002C626.3 46.9002 627.05 45.6002 626.8 44.3002C626.55 43.1002 625.35 42.4002 624.15 42.7502ZM632.75 24.6502C631.6 21.9002 630.45 20.2002 628.5 18.4502C627.9 17.9002 626.95 17.9502 626.35 18.5002C625.8 19.1002 625.8 20.0002 626.4 20.6002C628 22.1002 629.15 23.8002 629.95 25.9002C630.25 26.7002 631.15 27.1002 631.95 26.7502C632.7 26.4002 633.1 25.5002 632.75 24.6502ZM624.5 20.4002C623.85 19.8002 622.8 19.9002 622.25 20.5502C621.65 21.1502 621.75 22.1502 622.4 22.7002C624 24.1502 625 25.6502 625.8 27.7502C626.1 28.6002 627 29.0002 627.8 28.6502C628.6 28.3002 629.05 27.3502 628.7 26.5002C627.6 23.9502 626.3 22.0502 624.5 20.4002Z" fill="#42210C"/>
<path d="M678.55 41.3502C676.35 39.8002 673.55 38.4502 670.55 37.4502C670.55 33.4502 670.3 28.3502 669.95 23.5502C672.4 23.4002 674.6 23.2002 676.4 23.0502C677.55 22.9002 678.45 21.8502 678.4 20.7002C678.3 19.5002 677.3 18.6502 676.1 18.7502C674.2 18.9502 672 19.1002 669.6 19.2502C669.3 15.8502 668.95 12.8002 668.6 10.7002C668.4 9.50019 667.25 8.7002 666.1 8.9002C664.95 9.05019 664.15 10.1502 664.35 11.3002C664.7 13.3502 665 16.2502 665.3 19.4502C661.15 19.6502 656.85 19.7502 653 19.7002C651.8 19.7002 650.8 20.6502 650.8 21.8502C650.8 23.0502 651.75 24.0502 652.95 24.0502C657.15 24.0502 661.55 23.9502 665.65 23.7502C665.95 28.1002 666.2 32.6002 666.2 36.3002C659.25 34.9502 652.65 35.9502 652.25 41.4002C651.95 45.2502 655.9 48.2002 661.3 48.2002C666.3 48.2002 669.45 45.9002 670.25 41.7502C672.25 42.5502 674.15 43.6002 675.95 44.9002C676.95 45.5502 678.3 45.4002 679 44.4502C679.7 43.4002 679.55 42.0502 678.55 41.3502ZM648.25 9.50019C647.1 9.15019 645.85 9.75019 645.5 10.9002C642.45 21.2502 642.25 35.2002 645.1 46.3502C645.4 47.5502 646.55 48.2002 647.75 47.8502C648.85 47.5002 649.5 46.3002 649.2 45.1502C646.05 32.9502 647.55 19.6502 649.65 12.2502C649.95 11.1002 649.35 9.90019 648.25 9.50019ZM661.3 43.8502C655.95 43.8502 654.35 39.8002 661 40.0002C662.75 40.0502 664.4 40.2002 666.05 40.5502C665.75 42.9502 664.45 43.8502 661.3 43.8502Z" fill="#42210C"/>
<path d="M713 46.0502C726.8 44.2002 731.2 33.3502 728.9 25.2502C725.15 12.1502 705.85 10.2002 697.05 22.1002C691.2 30.1002 691.65 41.4002 698 42.9002C704.75 44.5002 711.05 32.2502 713.95 18.6002C719.95 18.7002 724.75 23.1002 725 28.7502C725.3 35.6502 720.75 40.2502 712.35 41.5502C711.15 41.7502 710.3 42.8502 710.5 44.0502C710.65 45.3002 711.8 46.2002 713 46.0502ZM697.75 37.6002C695.5 33.8502 698.35 21.0502 709.3 18.9002C707.2 29.0502 700.65 42.5002 697.75 37.6002Z" fill="#42210C"/>
<path d="M774.8 16.6502C777.85 16.6502 780.4 14.1502 780.4 11.0502C780.4 7.95019 777.85 5.4502 774.8 5.4502C771.75 5.4502 769.2 7.95019 769.2 11.0502C769.2 14.1002 771.7 16.6502 774.8 16.6502ZM774.8 8.05019C776.45 8.05019 777.8 9.35019 777.8 11.0502C777.8 12.7502 776.45 14.0502 774.8 14.0502C773.1 14.0502 771.8 12.7002 771.8 11.0502C771.8 9.35019 773.15 8.05019 774.8 8.05019ZM776.95 21.7502C778.2 21.6502 779.1 20.6002 778.95 19.3502C778.85 18.1502 777.8 17.2502 776.6 17.3002C773.1 17.5002 768.3 17.6502 763.25 17.7002V11.4502C763.25 10.2502 762.25 9.20019 760.95 9.20019C759.7 9.20019 758.7 10.2502 758.7 11.4502V17.7502C753.85 17.7502 749.1 17.7002 745.35 17.5502C744.15 17.5002 743.1 18.4502 743.05 19.6502C742.95 20.9002 743.9 21.9502 745.15 22.0002C748.75 22.1502 753.7 22.2002 758.7 22.2002V44.5502C758.7 45.8002 759.75 46.8002 760.95 46.8002C762.25 46.8002 763.25 45.7502 763.25 44.5502V22.1502C768.65 22.0502 773.75 21.9502 776.95 21.7502ZM754.25 27.9002C753.3 27.1002 751.85 27.3002 751.1 28.3502C748.9 31.3502 745.15 35.1002 741.9 37.5502C740.9 38.3002 740.6 39.7002 741.25 40.7002C741.95 41.8002 743.35 42.1002 744.35 41.3502C747.85 38.8002 752.4 34.2002 754.7 31.3002C755.5 30.2502 755.3 28.7502 754.25 27.9002ZM770.4 28.2502C769.55 27.3502 768.1 27.3002 767.25 28.1502C766.35 28.9502 766.25 30.4002 767.1 31.3002L776.15 41.0502C777 41.9502 778.4 42.0002 779.3 41.1502C780.2 40.3502 780.3 38.9002 779.45 38.0002L770.4 28.2502Z" fill="#42210C"/>
<path d="M821.05 9.25019C819.95 8.7502 818.6 9.25019 818.05 10.4002C814.15 18.7002 807 25.6502 797.05 31.0502C795.9 31.6502 795.4 33.0002 795.95 34.2002C796.45 35.3502 797.8 35.8502 798.95 35.3002C803.9 32.7502 808.1 29.7002 811.55 26.5002C812.25 30.5502 811.7 37.1002 810.9 46.0002C810.8 47.2502 811.75 48.3502 813 48.4002C814.3 48.4502 815.4 47.4502 815.5 46.2002C816.45 34.6502 816.7 27.1502 815.15 22.8502C818.3 19.3002 820.65 15.7002 822.25 12.3002C822.75 11.1502 822.25 9.8002 821.05 9.25019Z" fill="#42210C"/>
<path d="M857.8 25.0002C858.75 23.9502 858.7 22.3502 857.7 21.5002C855.2 19.3502 850.9 17.0002 846.5 16.4002C845.2 16.2502 844.05 17.2002 843.9 18.5502C843.75 19.8002 844.65 20.9002 845.9 21.1002C849.3 21.6502 852.3 23.0002 854.5 25.0002C855.45 25.9002 856.95 25.9002 857.8 25.0002ZM846.55 45.9502C859.2 43.2502 872.15 34.3002 879.5 24.5502C880.3 23.5002 880.05 22.0002 879.05 21.1502C878 20.3502 876.55 20.5502 875.75 21.6002C867.25 33.0002 854.8 39.2002 845.95 41.3002C844.65 41.6002 843.8 42.8002 843.95 44.0502C844.1 45.3002 845.3 46.2002 846.55 45.9502Z" fill="#42210C"/>
<path d="M926.3 32.5502C922.2 28.2502 916.05 24.4002 909.55 23.6002V12.0002C909.55 10.7502 908.5 9.70019 907.25 9.70019C906.05 9.70019 905 10.7502 905 12.0002V45.9002C905 47.1502 906.05 48.1502 907.25 48.1502C908.55 48.1502 909.55 47.1002 909.55 45.9002V28.0002C914.85 28.9002 919.1 31.3502 923.3 35.9002C924.15 36.8002 925.55 36.8002 926.3 35.9002C927.15 34.9002 927.15 33.4502 926.3 32.5502Z" fill="#42210C"/>
<path d="M961 39.4002C962.1 39.4002 962.95 38.5002 962.95 37.4502L963.6 10.7502C963.65 9.3002 962.45 8.10019 961 8.10019C959.55 8.10019 958.35 9.3002 958.4 10.7502L959.05 37.4502C959.05 38.5002 959.9 39.4002 961 39.4002ZM961 48.7002C962.9 48.7002 964.45 47.1502 964.45 45.3002C964.45 43.4002 962.9 41.8502 961 41.8502C959.15 41.8502 957.55 43.4002 957.55 45.3002C957.55 47.2002 959.15 48.7002 961 48.7002Z" fill="#42210C"/>
<path d="M26.3 32.5502C22.2 28.2502 16.05 24.4002 9.55 23.6002V12.0002C9.55 10.7502 8.5 9.70019 7.25 9.70019C6.05 9.70019 5 10.7502 5 12.0002V45.9002C5 47.1502 6.05 48.1502 7.25 48.1502C8.55 48.1502 9.55 47.1002 9.55 45.9002V28.0002C14.85 28.9002 19.1 31.3502 23.3 35.9002C24.15 36.8002 25.55 36.8002 26.3 35.9002C27.15 34.9002 27.15 33.4502 26.3 32.5502Z" stroke="white" stroke-width="10" mask="url(#path-1-outside-1_500:992)"/>
<path d="M76.6 30.7002C77.8 30.7002 78.8 29.7502 78.8 28.5002C78.8 27.3002 77.8 26.3002 76.6 26.3002H45.4C44.2 26.3002 43.2 27.2502 43.2 28.5002C43.2 29.7002 44.2 30.7002 45.4 30.7002H76.6Z" stroke="white" stroke-width="10" mask="url(#path-1-outside-1_500:992)"/>
<path d="M105.8 20.5502C106.8 21.1502 108.1 20.8502 108.6 19.8002C109.2 18.7002 108.85 17.3002 107.85 16.6502C105.1 14.9002 101.65 13.7002 98.4 13.3502C97.2 13.2002 96.15 14.1002 95.95 15.3502C95.8 16.4502 96.65 17.5002 97.8 17.7002C100.7 18.1002 103.5 19.0502 105.8 20.5502ZM99.15 47.5002C110.65 44.5502 122.7 35.1002 128.05 26.7002C128.75 25.6002 128.5 24.1502 127.4 23.3002C126.4 22.5502 125 22.8002 124.3 23.9002C117.85 33.8502 106.25 40.6502 97.85 42.9502C96.6 43.3002 95.9 44.5502 96.25 45.7502C96.6 47.0002 97.9 47.8002 99.15 47.5002ZM102.9 31.4002C104 31.8502 105.3 31.4002 105.75 30.3502C106.25 29.1502 105.8 27.8002 104.65 27.3002C102.05 26.1502 98.45 25.3502 95.4 25.2002C94.15 25.1502 93.15 26.2002 93.1 27.4502C93.05 28.6002 94 29.6002 95.2 29.6502C97.6 29.8002 100.65 30.4502 102.9 31.4002Z" stroke="white" stroke-width="10" mask="url(#path-1-outside-1_500:992)"/>
<path d="M157.8 25.0002C158.75 23.9502 158.7 22.3502 157.7 21.5002C155.2 19.3502 150.9 17.0002 146.5 16.4002C145.2 16.2502 144.05 17.2002 143.9 18.5502C143.75 19.8002 144.65 20.9002 145.9 21.1002C149.3 21.6502 152.3 23.0002 154.5 25.0002C155.45 25.9002 156.95 25.9002 157.8 25.0002ZM146.55 45.9502C159.2 43.2502 172.15 34.3002 179.5 24.5502C180.3 23.5002 180.05 22.0002 179.05 21.1502C178 20.3502 176.55 20.5502 175.75 21.6002C167.25 33.0002 154.8 39.2002 145.95 41.3002C144.65 41.6002 143.8 42.8002 143.95 44.0502C144.1 45.3002 145.3 46.2002 146.55 45.9502Z" stroke="white" stroke-width="10" mask="url(#path-1-outside-1_500:992)"/>
<path d="M224.35 19.5002C227.45 19.5002 229.95 16.9502 229.95 13.9002C229.95 10.8502 227.45 8.30019 224.35 8.30019C221.3 8.30019 218.75 10.8002 218.75 13.9002C218.75 16.9502 221.25 19.5002 224.35 19.5002ZM224.35 16.9002C222.65 16.9002 221.35 15.5502 221.35 13.9002C221.35 12.2002 222.7 10.9002 224.35 10.9002C226.05 10.9002 227.35 12.2502 227.35 13.9002C227.35 15.5502 226.05 16.9002 224.35 16.9002ZM228.65 42.2002C229.9 41.9502 230.8 40.7502 230.6 39.5002C228.8 29.2002 221.25 23.5002 217.75 18.9502C216.95 17.9502 215.55 17.7002 214.55 18.3502C213.45 19.0502 213.2 20.5002 213.95 21.4502C217.65 26.2002 224.6 31.4502 226.1 40.3002C226.3 41.6002 227.45 42.4002 228.65 42.2002ZM194.25 41.5002C201.35 35.4502 204.45 29.4002 206.5 22.5002C206.85 21.2502 206.15 20.0002 204.95 19.6002C203.75 19.2502 202.45 19.9502 202.1 21.1502C200.55 26.2002 198.3 32.1002 191.45 37.9002C190.5 38.7002 190.3 40.1502 191.05 41.1502C191.85 42.1502 193.3 42.3002 194.25 41.5002Z" stroke="white" stroke-width="10" mask="url(#path-1-outside-1_500:992)"/>
<path d="M276.6 30.7002C277.8 30.7002 278.8 29.7502 278.8 28.5002C278.8 27.3002 277.8 26.3002 276.6 26.3002H245.4C244.2 26.3002 243.2 27.2502 243.2 28.5002C243.2 29.7002 244.2 30.7002 245.4 30.7002H276.6Z" stroke="white" stroke-width="10" mask="url(#path-1-outside-1_500:992)"/>
<path d="M326.3 32.5502C322.2 28.2502 316.05 24.4002 309.55 23.6002V12.0002C309.55 10.7502 308.5 9.70019 307.25 9.70019C306.05 9.70019 305 10.7502 305 12.0002V45.9002C305 47.1502 306.05 48.1502 307.25 48.1502C308.55 48.1502 309.55 47.1002 309.55 45.9002V28.0002C314.85 28.9002 319.1 31.3502 323.3 35.9002C324.15 36.8002 325.55 36.8002 326.3 35.9002C327.15 34.9002 327.15 33.4502 326.3 32.5502Z" stroke="white" stroke-width="10" mask="url(#path-1-outside-1_500:992)"/>
<path d="M376.85 19.9502C374.15 19.9502 370.4 20.0502 365.65 20.1502C365.65 17.0502 365.45 13.9502 365.25 10.9002C365.15 9.6502 364.05 8.7002 362.85 8.80019C361.6 8.95019 360.65 10.0502 360.75 11.2502C361 14.5502 361.15 17.5502 361.15 20.2502L345.1 20.7502C343.85 20.8002 342.9 21.8502 342.95 23.0502C342.95 24.3002 344 25.2502 345.25 25.2002C351.25 25.0002 356.5 24.8502 361.05 24.7502C360.4 35.9002 356.85 41.3002 349.3 43.7502C348.1 44.1002 347.4 45.3502 347.7 46.5502C348.05 47.7502 349.3 48.4502 350.5 48.1002C361.85 44.5002 365.05 35.1002 365.55 24.6002C370.35 24.5002 374.15 24.4002 376.85 24.4002C378.05 24.4002 379.05 23.4002 379.05 22.2002C379.1 20.9502 378.1 19.9502 376.85 19.9502Z" stroke="white" stroke-width="10" mask="url(#path-1-outside-1_500:992)"/>
<path d="M426.6 30.7002C427.8 30.7002 428.8 29.7502 428.8 28.5002C428.8 27.3002 427.8 26.3002 426.6 26.3002H395.4C394.2 26.3002 393.2 27.2502 393.2 28.5002C393.2 29.7002 394.2 30.7002 395.4 30.7002H426.6Z" stroke="white" stroke-width="10" mask="url(#path-1-outside-1_500:992)"/>
<path d="M480.95 12.5502C479.75 10.7502 478.25 8.75019 476.75 7.3002C476.15 6.6502 475.15 6.6502 474.45 7.3002C473.85 7.85019 473.9 8.8502 474.5 9.45019C475.7 10.7502 477.25 12.6502 478.3 14.2502C478.8 15.0002 479.75 15.2502 480.45 14.7502C481.2 14.2502 481.45 13.2502 480.95 12.5502ZM470.6 11.5502C471.85 12.8502 473.45 14.8002 474.5 16.4502C475 17.1502 476 17.4002 476.7 16.9502C477.45 16.4502 477.7 15.4002 477.2 14.7002C476 12.9002 474.4 10.7502 472.85 9.25019C472.2 8.6502 471.15 8.6502 470.55 9.3002C469.95 9.90019 469.95 10.9502 470.6 11.5502ZM465.6 32.6502C468.05 29.7502 469.8 27.0502 470.95 24.7502C474.45 17.6502 471.15 12.4002 463.95 13.6502C460.7 14.2502 454 14.8002 447.35 14.6502C446.15 14.6502 445.1 15.6002 445.1 16.8002C445.05 18.0502 446 19.0502 447.2 19.0502C453.7 19.1002 461.2 18.5502 464.6 18.0002C468.15 17.4502 468.8 18.8002 466.95 22.7502C464.5 27.7502 456.85 37.5002 443.9 43.2002C442.7 43.7002 442.1 45.0002 442.45 46.2502C442.85 47.4502 444.2 48.0502 445.35 47.5002C452.4 44.3502 458 40.3002 462.25 36.2002C467.1 38.1002 472.35 42.4002 475.6 47.1002C476.4 48.1002 477.75 48.3002 478.7 47.5502C479.7 46.7002 479.95 45.2502 479.2 44.2002C476.1 39.9502 470.75 35.1502 465.6 32.6502Z" stroke="white" stroke-width="10" mask="url(#path-1-outside-1_500:992)"/>
<path d="M514.05 17.5002C515.1 16.9502 515.55 15.6002 515.05 14.4502C514.55 13.4002 513.3 13.0002 512.2 13.5502C510.8 14.2502 509.3 14.8502 507.7 15.3502C508.2 13.6502 508.7 12.0002 509.1 10.5002C509.4 9.3502 508.7 8.1502 507.55 7.85019C506.35 7.50019 505.2 8.20019 504.9 9.40019C504.3 11.6502 503.65 14.0002 502.9 16.4002C500.4 16.8002 497.9 16.9502 495.65 16.9002C494.45 16.8502 493.45 17.7502 493.3 18.9002C493.2 20.1002 494.05 21.1502 495.25 21.2502C497.25 21.3502 499.3 21.2502 501.4 21.0502C499.3 27.0002 496.5 33.3002 492.4 39.6502C491.75 40.6502 492 42.0502 493 42.7502C494.05 43.4002 495.45 43.1502 496.1 42.1002C500.65 35.1002 503.85 27.2502 506.15 20.2502C509.05 19.6002 511.75 18.6502 514.05 17.5002ZM528.7 41.2502C526.65 39.7002 523.45 37.5002 519.65 36.2002C518.25 27.7002 519.1 25.8002 524.2 25.3002C529.4 24.8002 528.4 17.6502 516.8 18.1502C515.55 18.2002 514.65 19.2502 514.75 20.5002C514.8 21.6502 515.85 22.4502 517.05 22.3502C518.1 22.3002 519.2 22.3502 520.25 22.5002C517.1 23.6502 514.1 26.4502 515.15 35.5002C500 34.0002 502.4 48.1502 513.05 48.1502C519.1 48.1502 520.3 43.5502 520.2 41.0502C522.6 42.1502 524.65 43.6002 526.1 44.7002C527.05 45.4002 528.4 45.2002 529.1 44.2502C529.8 43.3502 529.65 41.9502 528.7 41.2502ZM509.5 42.8002C507.05 40.2502 511.4 38.1002 515.85 39.6002C516.8 45.6002 511.3 44.7002 509.5 42.8002Z" stroke="white" stroke-width="10" mask="url(#path-1-outside-1_500:992)"/>
<path d="M564.7 15.7002C565.75 16.3002 567.1 15.9002 567.5 14.8502C568.05 13.6502 567.6 12.2502 566.5 11.6502C563.55 10.0502 559.85 8.95019 555.9 8.55019C554.6 8.4002 553.5 9.3502 553.35 10.6002C553.2 11.8002 554.1 12.9002 555.35 13.0002C559 13.3002 562.1 14.2002 564.7 15.7002ZM557.7 48.4002C573.6 49.2002 578.55 41.0002 577.05 33.8002C575.2 24.7502 561.3 22.6002 551.2 33.1002C551.55 29.1002 553.2 22.9502 554.6 19.4502C555.1 18.3502 554.6 17.0502 553.55 16.5502C552.45 16.0502 551.15 16.5002 550.65 17.6002C548.45 22.5502 546.95 30.2002 546.9 36.7502C546.9 38.0002 547.75 39.1002 549 39.4502C550.15 39.8002 551.45 39.3002 552.2 38.2502C559.5 28.3502 570.7 27.6502 572.75 34.5002C574.25 39.5002 569.95 45.1002 558.05 44.0502C556.85 43.9502 555.75 44.8002 555.65 46.0002C555.55 47.2502 556.45 48.3502 557.7 48.4002Z" stroke="white" stroke-width="10" mask="url(#path-1-outside-1_500:992)"/>
<path d="M624.15 42.7502C620.15 43.8502 614.8 43.6002 611.35 39.1002C606.55 32.8502 610.55 23.4502 620.25 17.3502C622.4 16.8502 624.4 16.2502 626.3 15.5502C627.45 15.1002 628 13.8002 627.55 12.6502C627.05 11.5502 625.8 11.0002 624.65 11.4002C616.4 14.4002 606.7 15.4502 595.85 14.6002C594.65 14.5002 593.55 15.4002 593.4 16.6002C593.3 17.8502 594.2 18.9502 595.4 19.0002C601.3 19.5002 607.1 19.4002 612.5 18.7502C603.65 26.7502 604 36.3002 607.45 41.2502C611.1 46.5502 618.15 48.9502 625.05 47.2002C626.3 46.9002 627.05 45.6002 626.8 44.3002C626.55 43.1002 625.35 42.4002 624.15 42.7502ZM632.75 24.6502C631.6 21.9002 630.45 20.2002 628.5 18.4502C627.9 17.9002 626.95 17.9502 626.35 18.5002C625.8 19.1002 625.8 20.0002 626.4 20.6002C628 22.1002 629.15 23.8002 629.95 25.9002C630.25 26.7002 631.15 27.1002 631.95 26.7502C632.7 26.4002 633.1 25.5002 632.75 24.6502ZM624.5 20.4002C623.85 19.8002 622.8 19.9002 622.25 20.5502C621.65 21.1502 621.75 22.1502 622.4 22.7002C624 24.1502 625 25.6502 625.8 27.7502C626.1 28.6002 627 29.0002 627.8 28.6502C628.6 28.3002 629.05 27.3502 628.7 26.5002C627.6 23.9502 626.3 22.0502 624.5 20.4002Z" stroke="white" stroke-width="10" mask="url(#path-1-outside-1_500:992)"/>
<path d="M678.55 41.3502C676.35 39.8002 673.55 38.4502 670.55 37.4502C670.55 33.4502 670.3 28.3502 669.95 23.5502C672.4 23.4002 674.6 23.2002 676.4 23.0502C677.55 22.9002 678.45 21.8502 678.4 20.7002C678.3 19.5002 677.3 18.6502 676.1 18.7502C674.2 18.9502 672 19.1002 669.6 19.2502C669.3 15.8502 668.95 12.8002 668.6 10.7002C668.4 9.50019 667.25 8.7002 666.1 8.9002C664.95 9.05019 664.15 10.1502 664.35 11.3002C664.7 13.3502 665 16.2502 665.3 19.4502C661.15 19.6502 656.85 19.7502 653 19.7002C651.8 19.7002 650.8 20.6502 650.8 21.8502C650.8 23.0502 651.75 24.0502 652.95 24.0502C657.15 24.0502 661.55 23.9502 665.65 23.7502C665.95 28.1002 666.2 32.6002 666.2 36.3002C659.25 34.9502 652.65 35.9502 652.25 41.4002C651.95 45.2502 655.9 48.2002 661.3 48.2002C666.3 48.2002 669.45 45.9002 670.25 41.7502C672.25 42.5502 674.15 43.6002 675.95 44.9002C676.95 45.5502 678.3 45.4002 679 44.4502C679.7 43.4002 679.55 42.0502 678.55 41.3502ZM648.25 9.50019C647.1 9.15019 645.85 9.75019 645.5 10.9002C642.45 21.2502 642.25 35.2002 645.1 46.3502C645.4 47.5502 646.55 48.2002 647.75 47.8502C648.85 47.5002 649.5 46.3002 649.2 45.1502C646.05 32.9502 647.55 19.6502 649.65 12.2502C649.95 11.1002 649.35 9.90019 648.25 9.50019ZM661.3 43.8502C655.95 43.8502 654.35 39.8002 661 40.0002C662.75 40.0502 664.4 40.2002 666.05 40.5502C665.75 42.9502 664.45 43.8502 661.3 43.8502Z" stroke="white" stroke-width="10" mask="url(#path-1-outside-1_500:992)"/>
<path d="M713 46.0502C726.8 44.2002 731.2 33.3502 728.9 25.2502C725.15 12.1502 705.85 10.2002 697.05 22.1002C691.2 30.1002 691.65 41.4002 698 42.9002C704.75 44.5002 711.05 32.2502 713.95 18.6002C719.95 18.7002 724.75 23.1002 725 28.7502C725.3 35.6502 720.75 40.2502 712.35 41.5502C711.15 41.7502 710.3 42.8502 710.5 44.0502C710.65 45.3002 711.8 46.2002 713 46.0502ZM697.75 37.6002C695.5 33.8502 698.35 21.0502 709.3 18.9002C707.2 29.0502 700.65 42.5002 697.75 37.6002Z" stroke="white" stroke-width="10" mask="url(#path-1-outside-1_500:992)"/>
<path d="M774.8 16.6502C777.85 16.6502 780.4 14.1502 780.4 11.0502C780.4 7.95019 777.85 5.4502 774.8 5.4502C771.75 5.4502 769.2 7.95019 769.2 11.0502C769.2 14.1002 771.7 16.6502 774.8 16.6502ZM774.8 8.05019C776.45 8.05019 777.8 9.35019 777.8 11.0502C777.8 12.7502 776.45 14.0502 774.8 14.0502C773.1 14.0502 771.8 12.7002 771.8 11.0502C771.8 9.35019 773.15 8.05019 774.8 8.05019ZM776.95 21.7502C778.2 21.6502 779.1 20.6002 778.95 19.3502C778.85 18.1502 777.8 17.2502 776.6 17.3002C773.1 17.5002 768.3 17.6502 763.25 17.7002V11.4502C763.25 10.2502 762.25 9.20019 760.95 9.20019C759.7 9.20019 758.7 10.2502 758.7 11.4502V17.7502C753.85 17.7502 749.1 17.7002 745.35 17.5502C744.15 17.5002 743.1 18.4502 743.05 19.6502C742.95 20.9002 743.9 21.9502 745.15 22.0002C748.75 22.1502 753.7 22.2002 758.7 22.2002V44.5502C758.7 45.8002 759.75 46.8002 760.95 46.8002C762.25 46.8002 763.25 45.7502 763.25 44.5502V22.1502C768.65 22.0502 773.75 21.9502 776.95 21.7502ZM754.25 27.9002C753.3 27.1002 751.85 27.3002 751.1 28.3502C748.9 31.3502 745.15 35.1002 741.9 37.5502C740.9 38.3002 740.6 39.7002 741.25 40.7002C741.95 41.8002 743.35 42.1002 744.35 41.3502C747.85 38.8002 752.4 34.2002 754.7 31.3002C755.5 30.2502 755.3 28.7502 754.25 27.9002ZM770.4 28.2502C769.55 27.3502 768.1 27.3002 767.25 28.1502C766.35 28.9502 766.25 30.4002 767.1 31.3002L776.15 41.0502C777 41.9502 778.4 42.0002 779.3 41.1502C780.2 40.3502 780.3 38.9002 779.45 38.0002L770.4 28.2502Z" stroke="white" stroke-width="10" mask="url(#path-1-outside-1_500:992)"/>
<path d="M821.05 9.25019C819.95 8.7502 818.6 9.25019 818.05 10.4002C814.15 18.7002 807 25.6502 797.05 31.0502C795.9 31.6502 795.4 33.0002 795.95 34.2002C796.45 35.3502 797.8 35.8502 798.95 35.3002C803.9 32.7502 808.1 29.7002 811.55 26.5002C812.25 30.5502 811.7 37.1002 810.9 46.0002C810.8 47.2502 811.75 48.3502 813 48.4002C814.3 48.4502 815.4 47.4502 815.5 46.2002C816.45 34.6502 816.7 27.1502 815.15 22.8502C818.3 19.3002 820.65 15.7002 822.25 12.3002C822.75 11.1502 822.25 9.8002 821.05 9.25019Z" stroke="white" stroke-width="10" mask="url(#path-1-outside-1_500:992)"/>
<path d="M857.8 25.0002C858.75 23.9502 858.7 22.3502 857.7 21.5002C855.2 19.3502 850.9 17.0002 846.5 16.4002C845.2 16.2502 844.05 17.2002 843.9 18.5502C843.75 19.8002 844.65 20.9002 845.9 21.1002C849.3 21.6502 852.3 23.0002 854.5 25.0002C855.45 25.9002 856.95 25.9002 857.8 25.0002ZM846.55 45.9502C859.2 43.2502 872.15 34.3002 879.5 24.5502C880.3 23.5002 880.05 22.0002 879.05 21.1502C878 20.3502 876.55 20.5502 875.75 21.6002C867.25 33.0002 854.8 39.2002 845.95 41.3002C844.65 41.6002 843.8 42.8002 843.95 44.0502C844.1 45.3002 845.3 46.2002 846.55 45.9502Z" stroke="white" stroke-width="10" mask="url(#path-1-outside-1_500:992)"/>
<path d="M926.3 32.5502C922.2 28.2502 916.05 24.4002 909.55 23.6002V12.0002C909.55 10.7502 908.5 9.70019 907.25 9.70019C906.05 9.70019 905 10.7502 905 12.0002V45.9002C905 47.1502 906.05 48.1502 907.25 48.1502C908.55 48.1502 909.55 47.1002 909.55 45.9002V28.0002C914.85 28.9002 919.1 31.3502 923.3 35.9002C924.15 36.8002 925.55 36.8002 926.3 35.9002C927.15 34.9002 927.15 33.4502 926.3 32.5502Z" stroke="white" stroke-width="10" mask="url(#path-1-outside-1_500:992)"/>
<path d="M961 39.4002C962.1 39.4002 962.95 38.5002 962.95 37.4502L963.6 10.7502C963.65 9.3002 962.45 8.10019 961 8.10019C959.55 8.10019 958.35 9.3002 958.4 10.7502L959.05 37.4502C959.05 38.5002 959.9 39.4002 961 39.4002ZM961 48.7002C962.9 48.7002 964.45 47.1502 964.45 45.3002C964.45 43.4002 962.9 41.8502 961 41.8502C959.15 41.8502 957.55 43.4002 957.55 45.3002C957.55 47.2002 959.15 48.7002 961 48.7002Z" stroke="white" stroke-width="10" mask="url(#path-1-outside-1_500:992)"/>
</svg>
