<svg width="450" height="62" viewBox="0 0 450 62" fill="none" xmlns="http://www.w3.org/2000/svg">
<mask id="path-1-outside-1_516:1014" maskUnits="userSpaceOnUse" x="-0.336914" y="-0.864258" width="451" height="63" fill="black">
<rect fill="white" x="-0.336914" y="-0.864258" width="451" height="63"/>
<path d="M10.1758 23.3757C11.5198 23.3757 12.6398 22.2557 12.6398 20.9117V16.6557H47.3598V20.9117C47.3598 22.2557 48.4238 23.3757 49.8238 23.3757C51.1678 23.3757 52.2878 22.2557 52.2878 20.9117V15.6477C52.2878 13.5757 50.6078 11.9517 48.5918 11.9517H32.4638V9.59974C32.4638 8.25575 31.3438 7.13574 29.9998 7.13574C28.6558 7.13574 27.5358 8.25575 27.5358 9.59974V11.9517H11.4078C9.3358 11.9517 7.7118 13.6317 7.7118 15.6477V20.9117C7.7118 22.2557 8.8318 23.3757 10.1758 23.3757ZM52.3998 51.3757C47.4718 50.3117 38.6798 47.1197 34.7598 42.8077H50.5518C51.8958 42.8077 52.9038 41.7437 52.9038 40.4557C52.9038 39.1677 51.8398 38.1037 50.5518 38.1037H32.5198V34.6877H46.5198C47.8078 34.6877 48.8718 33.6237 48.8718 32.3357C48.8718 30.9917 47.8078 29.9837 46.5198 29.9837H32.5198V26.5677H44.6718C46.0158 26.5677 47.0238 25.4477 47.0238 24.2157C47.0238 22.8717 45.9598 21.8637 44.6718 21.8637H32.5198V19.4557C32.5198 18.0557 31.3438 16.9357 29.9998 16.9357C28.5998 16.9357 27.4798 18.0557 27.4798 19.4557V21.8637H15.3278C14.0398 21.8637 12.9758 22.8717 12.9758 24.2157C12.9758 25.5037 14.0398 26.5677 15.3278 26.5677H27.4798V29.9837H13.4798C12.1358 29.9837 11.1278 31.0477 11.1278 32.3357C11.1278 33.6237 12.1918 34.6877 13.4798 34.6877H27.4798V38.1037H9.4478C8.1598 38.1037 7.0958 39.1677 7.0958 40.4557C7.0958 41.7997 8.1598 42.8077 9.4478 42.8077H25.3518C21.9358 46.3917 14.8798 49.8077 7.7678 51.3197C6.4238 51.5997 5.4718 52.8878 5.6958 54.2318C5.9198 55.6318 7.2078 56.5837 8.5518 56.3597C14.9358 55.1837 25.3518 50.8717 30.0558 44.9357C34.7598 51.2077 45.6238 55.0717 51.5038 56.2477C52.8478 56.5277 54.1358 55.6318 54.3598 54.2318C54.5838 52.9438 53.6878 51.6557 52.3998 51.3757Z"/>
<path d="M76.8718 33.7357C77.5438 34.5757 78.7758 34.8557 79.7278 34.1837C81.2398 33.1197 82.7518 31.8877 84.2078 30.4317C84.0958 30.7117 84.0398 31.0477 84.0398 31.3837C84.0398 32.6717 85.1038 33.6797 86.3358 33.6797H99.2158C100.504 33.6797 101.568 32.6157 101.568 31.3837C101.568 30.0957 100.504 29.0317 99.2158 29.0317H86.3358C85.9998 29.0317 85.7198 29.0877 85.4398 29.1997C89.0238 25.4477 92.1038 20.7997 93.7278 15.9277C96.6398 24.7197 101.96 31.2717 106.72 34.6317C107.728 35.4157 109.184 35.0797 109.912 33.9597C110.584 32.8957 110.304 31.4397 109.24 30.7117C107.336 29.3117 105.376 27.5197 103.584 25.2237C105.712 22.5357 107.728 18.7837 108.96 15.0877C109.576 13.2397 108.12 11.3917 106.104 11.3917H99.6078C98.7118 11.3917 97.9278 11.8957 97.5358 12.6797C97.2558 11.7837 97.0878 10.8877 96.8638 9.93574C96.6398 8.70375 95.4638 7.86374 94.1758 8.08774C92.8878 8.31174 92.0478 9.54374 92.3278 10.7757C92.3838 10.9997 92.4398 11.1677 92.4398 11.3917C92.0478 11.1677 91.5438 11.0557 91.0398 11.0557H87.0638L87.5678 9.82374C87.9598 8.75974 87.3438 7.58374 86.2238 7.24774C85.1598 6.91174 83.9838 7.47175 83.5358 8.53575C82.3038 11.5597 79.9518 15.2557 76.7598 18.0557C77.4318 16.2077 77.9918 14.1357 78.3838 11.7277C78.7198 9.93574 77.2638 8.25574 75.4158 8.25574H66.3998C64.5518 8.25574 62.9838 9.82374 62.9838 11.6717V54.2878C62.9838 55.5198 63.9918 56.5837 65.2798 56.5837C66.5118 56.5837 67.5198 55.5198 67.5198 54.2878V44.6557C67.7998 45.4397 68.4718 45.9997 69.3118 45.9997C72.8398 46.0557 77.1518 43.3117 77.2078 37.0957C77.2078 35.9197 77.0958 34.7997 76.8718 33.7357ZM69.9838 41.4637C68.8078 41.5197 67.8558 42.1357 67.5198 42.9757V12.9037H73.5678C72.6158 17.1037 71.3838 19.6237 69.7038 22.3677C68.6958 24.0477 68.6958 26.2317 69.7598 28.0797C71.3278 30.9357 72.7278 33.8477 72.7278 37.0957C72.7278 39.8397 71.7758 41.2957 69.9838 41.4637ZM89.2478 15.1997C88.9118 16.2077 88.4638 17.2157 87.9598 18.2237C87.2318 17.6637 86.4478 17.1037 85.6078 16.5997C85.1038 16.2637 84.4878 16.2637 83.9278 16.4317L84.7678 15.1997H89.2478ZM103.472 16.0957C102.688 17.9437 101.792 19.5677 100.84 20.9677C99.9438 19.3997 99.2158 17.7197 98.4878 15.8157C98.8238 15.9837 99.2158 16.0957 99.6078 16.0957H103.472ZM73.3438 25.2237C74.1838 23.7117 74.9678 22.2557 75.7518 20.6317C75.8078 20.9117 75.9198 21.1917 76.0878 21.4717C76.8158 22.5357 78.2718 22.7597 79.1678 21.9197C80.3438 20.8557 81.4638 19.6237 82.5278 18.2797C82.4718 19.1197 82.8638 20.0157 83.6478 20.4637C84.4318 20.9117 85.1598 21.4717 85.7758 21.9757C85.3838 22.5917 84.9358 23.2077 84.4878 23.8237C83.4238 22.9837 82.2478 22.3117 81.1278 21.8077C80.0638 21.3597 78.8318 21.9757 78.4398 23.1517C78.1598 24.2157 78.7198 25.3917 79.7838 25.9517C80.3438 26.2317 80.9598 26.6237 81.5198 27.0157C80.3438 28.1917 78.9438 29.3117 77.4878 30.2637C76.8718 30.6557 76.5358 31.2157 76.3678 31.8877C75.6398 29.4797 74.5198 27.2957 73.3438 25.2237ZM104.872 41.9117C106.16 41.9117 107.224 40.8477 107.224 39.5597C107.224 38.2717 106.16 37.2637 104.872 37.2637H80.6798C79.3918 37.2637 78.3838 38.3277 78.3838 39.5597C78.3838 40.8477 79.4478 41.9117 80.6798 41.9117H90.4238V51.4877C90.4238 51.6557 90.3118 51.6557 88.4078 51.5437C87.0638 51.4317 85.9438 52.4397 85.8878 53.7277C85.7758 55.1277 86.7838 56.2477 88.1278 56.3037C93.1678 56.5277 95.1838 55.0717 95.1838 51.2077V41.9117H104.872ZM108.68 50.3117C106.552 48.6317 103.752 45.7757 101.96 43.1997C101.232 42.1357 99.8318 41.9117 98.8238 42.6397C97.7598 43.4237 97.4798 44.9357 98.2078 45.9997C100.504 49.4157 103.92 52.7757 106.664 54.8477C107.728 55.6317 109.24 55.1277 109.744 53.8957C110.248 52.6637 109.8 51.2077 108.68 50.3117ZM86.7278 42.6957C85.7198 41.9677 84.2638 42.2477 83.5358 43.3117C81.2958 46.4477 78.3278 49.2477 75.9758 51.1517C74.9678 51.9357 74.6878 53.3357 75.3038 54.3438C75.9758 55.4638 77.3758 55.7997 78.4398 55.1277C81.5198 52.9437 85.1038 49.3037 87.3998 45.9997C88.1278 44.8797 87.7918 43.4237 86.7278 42.6957Z"/>
<path d="M144.24 51.9357C159.696 49.8637 164.624 37.7117 162.048 28.6397C157.848 13.9677 136.232 11.7837 126.376 25.1117C119.824 34.0717 120.328 46.7277 127.44 48.4077C135 50.1997 142.056 36.4797 145.304 21.1917C152.024 21.3037 157.4 26.2317 157.68 32.5597C158.016 40.2877 152.92 45.4397 143.512 46.8957C142.168 47.1197 141.216 48.3517 141.44 49.6957C141.608 51.0957 142.896 52.1037 144.24 51.9357ZM127.16 42.4717C124.64 38.2717 127.832 23.9357 140.096 21.5277C137.744 32.8957 130.408 47.9597 127.16 42.4717Z"/>
<path d="M209.816 30.7117C204.832 29.3677 199.12 30.0397 193.464 32.5037C193.352 29.7597 193.128 27.0717 192.904 24.5517C195.2 23.9357 197.44 23.2077 199.512 22.3677C200.744 21.8637 201.304 20.4637 200.744 19.2317C200.184 18.0557 198.784 17.4957 197.552 17.9997C195.928 18.6717 194.192 19.2317 192.344 19.7357C191.896 16.4317 191.336 13.4637 190.72 11.1677C190.384 9.82374 188.984 9.09574 187.696 9.37574C186.408 9.71174 185.68 10.9997 186.016 12.2877C186.632 14.6397 187.192 17.5517 187.64 20.7997C184.672 21.4157 181.48 21.7517 178.232 21.9197C176.944 21.9757 175.88 23.0957 175.936 24.3837C175.936 25.7277 177.056 26.7917 178.4 26.7357C181.76 26.5677 185.008 26.1757 188.2 25.6157C188.48 28.5837 188.648 31.7197 188.704 34.9677C186.464 36.3677 184.224 38.0477 182.04 40.0077C174.088 47.2317 178.344 50.7597 184.224 53.2237C189.432 55.2397 192.512 53.7837 193.128 48.9677C193.464 45.3277 193.632 41.4637 193.576 37.6557C203.768 32.3357 213.12 34.2397 214.464 42.0237C215.472 47.9597 207.24 51.7117 202.088 47.5117C201.08 46.6717 199.68 46.6157 198.784 47.3997C197.72 48.3517 197.552 49.8637 198.448 50.8717C200.296 52.8877 202.816 54.0078 206.176 54.1758C221.408 55.0158 224.488 34.6877 209.816 30.7117ZM220.624 24.7757C217.208 22.2557 212.616 20.6317 207.8 20.2957C206.456 20.1837 205.28 21.2477 205.168 22.5917C205.112 23.8797 206.12 24.9997 207.408 25.1117C211.328 25.4477 214.968 26.6797 217.824 28.6957C218.888 29.4797 220.344 29.3117 221.128 28.2477C221.912 27.1277 221.744 25.5597 220.624 24.7757ZM183.776 47.7357C182.376 47.0637 181.928 46.7277 183.888 44.7677C185.176 43.4237 186.8 42.0237 188.704 40.6797C188.648 43.2557 188.536 46.2797 188.424 47.7357C188.256 50.0877 188.648 50.2557 183.776 47.7357Z"/>
<path d="M233.84 22.4237C235.128 22.4237 236.248 21.3597 236.248 20.0157V16.0957H271.752V19.9597C271.752 21.3037 272.816 22.4237 274.16 22.4237C275.504 22.4237 276.624 21.3037 276.624 19.9597V15.1437C276.624 13.0717 274.944 11.4477 272.928 11.4477H256.464V9.54375C256.464 8.19975 255.344 7.13574 254 7.13574C252.656 7.13574 251.536 8.25574 251.536 9.54375V11.4477H235.128C233.112 11.4477 231.432 13.1277 231.432 15.1437V20.0157C231.432 21.3597 232.552 22.4237 233.84 22.4237ZM276.512 39.1117C269.792 38.2157 263.8 36.0877 258.704 33.3437C262.12 30.8797 265.032 27.9117 267.384 24.5517C268.392 23.0957 267.272 21.1357 265.536 21.1357H252.768C253.16 20.7437 253.496 20.2957 253.888 19.9037C254.784 18.8957 254.448 17.2717 253.216 16.7117C251.928 16.0957 250.36 16.4317 249.352 17.5517C245.544 21.7517 240 25.0557 233.448 27.0157C232.16 27.4077 231.376 28.7517 231.656 30.0397C231.936 31.3837 233.28 32.2237 234.568 31.7757C237.76 30.7677 240.728 29.4797 243.528 27.9677C245.32 29.9277 247.336 31.6637 249.576 33.2877C244.536 35.8077 238.544 37.7117 231.6 39.0557C230.312 39.3357 229.416 40.5677 229.64 41.9117C229.864 43.2557 231.152 44.0957 232.44 43.8717C234.792 43.4797 237.144 42.9197 239.44 42.3037C239.272 42.7517 239.16 43.2557 239.16 43.7597V52.4957C239.16 54.5677 240.84 56.1917 242.856 56.1917H265.144C267.216 56.1917 268.84 54.5117 268.84 52.4957V43.7597C268.84 43.2557 268.728 42.7517 268.56 42.3037C271.024 43.0317 273.432 43.5357 275.504 43.8717C276.848 44.0957 278.136 43.1997 278.472 41.7997C278.752 40.5117 277.856 39.2797 276.512 39.1117ZM260.16 25.7277C258.424 27.5197 256.464 29.1437 254.224 30.5997C251.872 29.0317 249.856 27.3517 248.12 25.7277H260.16ZM246.328 40.0637C249.128 38.9997 251.76 37.7117 254.224 36.3117C256.8 37.7677 259.432 38.9997 262.008 40.0637H246.328ZM243.976 51.5437V44.7117H264.08V51.5437H243.976Z"/>
<path d="M333.576 49.8077C331.056 48.1277 328.76 46.1677 326.688 43.9277C328.648 42.1917 330.496 40.0637 332.12 37.5997C332.792 36.5357 332.456 35.0797 331.336 34.4637C330.216 33.8477 328.816 34.2397 328.088 35.3037C326.856 37.1517 325.288 38.8877 323.776 40.2877C322.32 38.3277 321.088 36.1437 320.024 33.9037V33.3997H331.728C332.96 33.3997 333.968 32.3357 333.968 31.1597C333.968 29.9277 332.96 28.9197 331.728 28.9197H319.968V25.8957H328.984C330.216 25.8957 331.224 24.8877 331.224 23.6557C331.224 22.4237 330.216 21.4157 328.984 21.4157H319.968V18.5037H330.272C331.504 18.5037 332.568 17.4957 332.568 16.2637C332.568 15.0317 331.56 14.0237 330.272 14.0237H325.008C325.68 12.8477 326.296 11.6157 326.744 10.5517C327.248 9.31974 326.632 7.91974 325.344 7.47174C324.112 7.02374 322.768 7.69575 322.264 8.92774C321.536 10.7757 320.528 12.6237 319.464 14.0237H316.104C315.544 12.2317 314.704 10.3277 313.808 8.70374C313.136 7.52774 311.624 7.07974 310.336 7.75175C309.216 8.31174 308.88 9.76775 309.608 10.8317C310.28 11.8397 310.84 12.9037 311.288 14.0237H305.576C304.344 14.0237 303.336 14.9757 303.336 16.2637C303.336 17.4957 304.344 18.5037 305.576 18.5037H315.208V21.4157H307.2C305.968 21.4157 304.96 22.4237 304.96 23.6557C304.96 24.8877 305.912 25.8957 307.2 25.8957H315.208V28.9197H304.288C303.056 28.9197 302.048 29.9277 302.048 31.1597C302.048 32.3917 303.056 33.3997 304.288 33.3997H315.208V39.9517C311.288 44.5437 306.136 47.2317 302.16 48.7437C300.928 49.2477 300.2 50.5917 300.536 51.8237C300.928 53.1117 302.272 53.8957 303.504 53.4477C307.312 52.1037 311.792 49.5277 315.208 46.6717V51.3197C315.208 51.5437 314.2 51.6557 312.632 51.4877C311.344 51.3197 310.112 52.2157 309.944 53.5037C309.72 54.8477 310.672 56.0797 311.96 56.1917C316.832 56.7517 320.024 55.2397 320.024 52.2157V42.6397C323.16 47.1757 327.36 51.5438 331.672 54.1758C332.736 54.8478 334.136 54.3437 334.64 53.1677C335.088 51.9357 334.64 50.5917 333.576 49.8077ZM302.16 33.0077C301.208 29.8157 299.304 25.6157 297.512 23.2077V22.1997H300.704C301.936 22.1997 302.944 21.1917 302.944 19.9597C302.944 18.6717 301.936 17.6637 300.704 17.6637H297.512V9.93574C297.512 8.70375 296.504 7.63974 295.216 7.63974C293.984 7.63974 292.976 8.70375 292.976 9.93574V17.6637H288.272C286.984 17.6637 285.976 18.7277 285.976 19.9597C285.976 21.1917 286.984 22.1997 288.272 22.1997H292.304C291.352 27.4077 289.112 32.8957 286.2 37.3757C285.416 38.5517 285.528 40.1197 286.48 41.1277C287.432 42.0797 289.056 41.9677 289.784 40.8477C290.96 39.0557 292.024 37.0957 292.976 35.0237V54.1758C292.976 55.4638 293.984 56.4717 295.216 56.4717C296.448 56.4717 297.512 55.4638 297.512 54.1758V32.7837C297.736 33.3997 297.904 33.9597 298.072 34.5757C298.408 35.7517 299.64 36.3677 300.704 35.9197C301.88 35.4717 302.552 34.1837 302.16 33.0077ZM308.824 42.2477C309.608 43.1997 311.008 43.2557 311.848 42.4717C312.8 41.6317 312.912 40.1757 312.128 39.2237C311.008 37.8237 309.552 36.1997 308.264 34.8557C307.2 33.8477 305.52 33.9037 304.512 34.9677C303.616 35.9757 303.784 37.5997 304.904 38.4957C306.08 39.3917 307.48 40.7357 308.824 42.2477Z"/>
<path d="M368.24 51.9357C383.696 49.8637 388.624 37.7117 386.048 28.6397C381.848 13.9677 360.232 11.7837 350.376 25.1117C343.824 34.0717 344.328 46.7277 351.44 48.4077C359 50.1997 366.056 36.4797 369.304 21.1917C376.024 21.3037 381.4 26.2317 381.68 32.5597C382.016 40.2877 376.92 45.4397 367.512 46.8957C366.168 47.1197 365.216 48.3517 365.44 49.6957C365.608 51.0957 366.896 52.1037 368.24 51.9357ZM351.16 42.4717C348.64 38.2717 351.832 23.9357 364.096 21.5277C361.744 32.8957 354.408 47.9597 351.16 42.4717Z"/>
<path d="M424.464 12.5677V9.71174C424.464 8.42374 423.344 7.24774 422 7.24774C420.656 7.24774 419.536 8.42374 419.536 9.71174V12.5677H401.56C400.216 12.5677 399.096 13.6317 399.096 15.0317C399.096 16.3757 400.216 17.4397 401.56 17.4397H419.536V20.9677H405.816C404.416 20.9677 403.352 22.0877 403.352 23.4317C403.352 24.7757 404.472 25.8397 405.816 25.8397H438.912C440.256 25.8397 441.32 24.7197 441.32 23.4317C441.32 22.0877 440.256 20.9677 438.912 20.9677H424.464V17.4397H442.44C443.784 17.4397 444.848 16.3757 444.848 15.0317C444.848 13.6317 443.784 12.5677 442.44 12.5677H424.464ZM408.168 28.6397C406.096 28.6397 404.472 30.3197 404.472 32.3357C404.416 42.8637 404.192 47.0077 399.992 52.9437C399.208 54.0637 399.488 55.5197 400.608 56.2477C401.784 57.0317 403.352 56.8078 404.136 55.6878C406.88 51.9358 408.392 47.1757 408.84 44.0397H436.392C438.408 44.0397 440.088 42.4157 440.088 40.3437V32.3357C440.088 30.2637 438.408 28.6397 436.392 28.6397H408.168ZM419.536 33.4557V39.2797H409.288C409.344 37.5437 409.344 35.5837 409.4 33.4557H419.536ZM424.464 39.2797V33.4557H435.16V39.2797H424.464Z"/>
</mask>
<path d="M10.1758 23.3757C11.5198 23.3757 12.6398 22.2557 12.6398 20.9117V16.6557H47.3598V20.9117C47.3598 22.2557 48.4238 23.3757 49.8238 23.3757C51.1678 23.3757 52.2878 22.2557 52.2878 20.9117V15.6477C52.2878 13.5757 50.6078 11.9517 48.5918 11.9517H32.4638V9.59974C32.4638 8.25575 31.3438 7.13574 29.9998 7.13574C28.6558 7.13574 27.5358 8.25575 27.5358 9.59974V11.9517H11.4078C9.3358 11.9517 7.7118 13.6317 7.7118 15.6477V20.9117C7.7118 22.2557 8.8318 23.3757 10.1758 23.3757ZM52.3998 51.3757C47.4718 50.3117 38.6798 47.1197 34.7598 42.8077H50.5518C51.8958 42.8077 52.9038 41.7437 52.9038 40.4557C52.9038 39.1677 51.8398 38.1037 50.5518 38.1037H32.5198V34.6877H46.5198C47.8078 34.6877 48.8718 33.6237 48.8718 32.3357C48.8718 30.9917 47.8078 29.9837 46.5198 29.9837H32.5198V26.5677H44.6718C46.0158 26.5677 47.0238 25.4477 47.0238 24.2157C47.0238 22.8717 45.9598 21.8637 44.6718 21.8637H32.5198V19.4557C32.5198 18.0557 31.3438 16.9357 29.9998 16.9357C28.5998 16.9357 27.4798 18.0557 27.4798 19.4557V21.8637H15.3278C14.0398 21.8637 12.9758 22.8717 12.9758 24.2157C12.9758 25.5037 14.0398 26.5677 15.3278 26.5677H27.4798V29.9837H13.4798C12.1358 29.9837 11.1278 31.0477 11.1278 32.3357C11.1278 33.6237 12.1918 34.6877 13.4798 34.6877H27.4798V38.1037H9.4478C8.1598 38.1037 7.0958 39.1677 7.0958 40.4557C7.0958 41.7997 8.1598 42.8077 9.4478 42.8077H25.3518C21.9358 46.3917 14.8798 49.8077 7.7678 51.3197C6.4238 51.5997 5.4718 52.8878 5.6958 54.2318C5.9198 55.6318 7.2078 56.5837 8.5518 56.3597C14.9358 55.1837 25.3518 50.8717 30.0558 44.9357C34.7598 51.2077 45.6238 55.0717 51.5038 56.2477C52.8478 56.5277 54.1358 55.6318 54.3598 54.2318C54.5838 52.9438 53.6878 51.6557 52.3998 51.3757Z" fill="#42210C"/>
<path d="M76.8718 33.7357C77.5438 34.5757 78.7758 34.8557 79.7278 34.1837C81.2398 33.1197 82.7518 31.8877 84.2078 30.4317C84.0958 30.7117 84.0398 31.0477 84.0398 31.3837C84.0398 32.6717 85.1038 33.6797 86.3358 33.6797H99.2158C100.504 33.6797 101.568 32.6157 101.568 31.3837C101.568 30.0957 100.504 29.0317 99.2158 29.0317H86.3358C85.9998 29.0317 85.7198 29.0877 85.4398 29.1997C89.0238 25.4477 92.1038 20.7997 93.7278 15.9277C96.6398 24.7197 101.96 31.2717 106.72 34.6317C107.728 35.4157 109.184 35.0797 109.912 33.9597C110.584 32.8957 110.304 31.4397 109.24 30.7117C107.336 29.3117 105.376 27.5197 103.584 25.2237C105.712 22.5357 107.728 18.7837 108.96 15.0877C109.576 13.2397 108.12 11.3917 106.104 11.3917H99.6078C98.7118 11.3917 97.9278 11.8957 97.5358 12.6797C97.2558 11.7837 97.0878 10.8877 96.8638 9.93574C96.6398 8.70375 95.4638 7.86374 94.1758 8.08774C92.8878 8.31174 92.0478 9.54374 92.3278 10.7757C92.3838 10.9997 92.4398 11.1677 92.4398 11.3917C92.0478 11.1677 91.5438 11.0557 91.0398 11.0557H87.0638L87.5678 9.82374C87.9598 8.75974 87.3438 7.58374 86.2238 7.24774C85.1598 6.91174 83.9838 7.47175 83.5358 8.53575C82.3038 11.5597 79.9518 15.2557 76.7598 18.0557C77.4318 16.2077 77.9918 14.1357 78.3838 11.7277C78.7198 9.93574 77.2638 8.25574 75.4158 8.25574H66.3998C64.5518 8.25574 62.9838 9.82374 62.9838 11.6717V54.2878C62.9838 55.5198 63.9918 56.5837 65.2798 56.5837C66.5118 56.5837 67.5198 55.5198 67.5198 54.2878V44.6557C67.7998 45.4397 68.4718 45.9997 69.3118 45.9997C72.8398 46.0557 77.1518 43.3117 77.2078 37.0957C77.2078 35.9197 77.0958 34.7997 76.8718 33.7357ZM69.9838 41.4637C68.8078 41.5197 67.8558 42.1357 67.5198 42.9757V12.9037H73.5678C72.6158 17.1037 71.3838 19.6237 69.7038 22.3677C68.6958 24.0477 68.6958 26.2317 69.7598 28.0797C71.3278 30.9357 72.7278 33.8477 72.7278 37.0957C72.7278 39.8397 71.7758 41.2957 69.9838 41.4637ZM89.2478 15.1997C88.9118 16.2077 88.4638 17.2157 87.9598 18.2237C87.2318 17.6637 86.4478 17.1037 85.6078 16.5997C85.1038 16.2637 84.4878 16.2637 83.9278 16.4317L84.7678 15.1997H89.2478ZM103.472 16.0957C102.688 17.9437 101.792 19.5677 100.84 20.9677C99.9438 19.3997 99.2158 17.7197 98.4878 15.8157C98.8238 15.9837 99.2158 16.0957 99.6078 16.0957H103.472ZM73.3438 25.2237C74.1838 23.7117 74.9678 22.2557 75.7518 20.6317C75.8078 20.9117 75.9198 21.1917 76.0878 21.4717C76.8158 22.5357 78.2718 22.7597 79.1678 21.9197C80.3438 20.8557 81.4638 19.6237 82.5278 18.2797C82.4718 19.1197 82.8638 20.0157 83.6478 20.4637C84.4318 20.9117 85.1598 21.4717 85.7758 21.9757C85.3838 22.5917 84.9358 23.2077 84.4878 23.8237C83.4238 22.9837 82.2478 22.3117 81.1278 21.8077C80.0638 21.3597 78.8318 21.9757 78.4398 23.1517C78.1598 24.2157 78.7198 25.3917 79.7838 25.9517C80.3438 26.2317 80.9598 26.6237 81.5198 27.0157C80.3438 28.1917 78.9438 29.3117 77.4878 30.2637C76.8718 30.6557 76.5358 31.2157 76.3678 31.8877C75.6398 29.4797 74.5198 27.2957 73.3438 25.2237ZM104.872 41.9117C106.16 41.9117 107.224 40.8477 107.224 39.5597C107.224 38.2717 106.16 37.2637 104.872 37.2637H80.6798C79.3918 37.2637 78.3838 38.3277 78.3838 39.5597C78.3838 40.8477 79.4478 41.9117 80.6798 41.9117H90.4238V51.4877C90.4238 51.6557 90.3118 51.6557 88.4078 51.5437C87.0638 51.4317 85.9438 52.4397 85.8878 53.7277C85.7758 55.1277 86.7838 56.2477 88.1278 56.3037C93.1678 56.5277 95.1838 55.0717 95.1838 51.2077V41.9117H104.872ZM108.68 50.3117C106.552 48.6317 103.752 45.7757 101.96 43.1997C101.232 42.1357 99.8318 41.9117 98.8238 42.6397C97.7598 43.4237 97.4798 44.9357 98.2078 45.9997C100.504 49.4157 103.92 52.7757 106.664 54.8477C107.728 55.6317 109.24 55.1277 109.744 53.8957C110.248 52.6637 109.8 51.2077 108.68 50.3117ZM86.7278 42.6957C85.7198 41.9677 84.2638 42.2477 83.5358 43.3117C81.2958 46.4477 78.3278 49.2477 75.9758 51.1517C74.9678 51.9357 74.6878 53.3357 75.3038 54.3438C75.9758 55.4638 77.3758 55.7997 78.4398 55.1277C81.5198 52.9437 85.1038 49.3037 87.3998 45.9997C88.1278 44.8797 87.7918 43.4237 86.7278 42.6957Z" fill="#42210C"/>
<path d="M144.24 51.9357C159.696 49.8637 164.624 37.7117 162.048 28.6397C157.848 13.9677 136.232 11.7837 126.376 25.1117C119.824 34.0717 120.328 46.7277 127.44 48.4077C135 50.1997 142.056 36.4797 145.304 21.1917C152.024 21.3037 157.4 26.2317 157.68 32.5597C158.016 40.2877 152.92 45.4397 143.512 46.8957C142.168 47.1197 141.216 48.3517 141.44 49.6957C141.608 51.0957 142.896 52.1037 144.24 51.9357ZM127.16 42.4717C124.64 38.2717 127.832 23.9357 140.096 21.5277C137.744 32.8957 130.408 47.9597 127.16 42.4717Z" fill="#42210C"/>
<path d="M209.816 30.7117C204.832 29.3677 199.12 30.0397 193.464 32.5037C193.352 29.7597 193.128 27.0717 192.904 24.5517C195.2 23.9357 197.44 23.2077 199.512 22.3677C200.744 21.8637 201.304 20.4637 200.744 19.2317C200.184 18.0557 198.784 17.4957 197.552 17.9997C195.928 18.6717 194.192 19.2317 192.344 19.7357C191.896 16.4317 191.336 13.4637 190.72 11.1677C190.384 9.82374 188.984 9.09574 187.696 9.37574C186.408 9.71174 185.68 10.9997 186.016 12.2877C186.632 14.6397 187.192 17.5517 187.64 20.7997C184.672 21.4157 181.48 21.7517 178.232 21.9197C176.944 21.9757 175.88 23.0957 175.936 24.3837C175.936 25.7277 177.056 26.7917 178.4 26.7357C181.76 26.5677 185.008 26.1757 188.2 25.6157C188.48 28.5837 188.648 31.7197 188.704 34.9677C186.464 36.3677 184.224 38.0477 182.04 40.0077C174.088 47.2317 178.344 50.7597 184.224 53.2237C189.432 55.2397 192.512 53.7837 193.128 48.9677C193.464 45.3277 193.632 41.4637 193.576 37.6557C203.768 32.3357 213.12 34.2397 214.464 42.0237C215.472 47.9597 207.24 51.7117 202.088 47.5117C201.08 46.6717 199.68 46.6157 198.784 47.3997C197.72 48.3517 197.552 49.8637 198.448 50.8717C200.296 52.8877 202.816 54.0078 206.176 54.1758C221.408 55.0158 224.488 34.6877 209.816 30.7117ZM220.624 24.7757C217.208 22.2557 212.616 20.6317 207.8 20.2957C206.456 20.1837 205.28 21.2477 205.168 22.5917C205.112 23.8797 206.12 24.9997 207.408 25.1117C211.328 25.4477 214.968 26.6797 217.824 28.6957C218.888 29.4797 220.344 29.3117 221.128 28.2477C221.912 27.1277 221.744 25.5597 220.624 24.7757ZM183.776 47.7357C182.376 47.0637 181.928 46.7277 183.888 44.7677C185.176 43.4237 186.8 42.0237 188.704 40.6797C188.648 43.2557 188.536 46.2797 188.424 47.7357C188.256 50.0877 188.648 50.2557 183.776 47.7357Z" fill="#42210C"/>
<path d="M233.84 22.4237C235.128 22.4237 236.248 21.3597 236.248 20.0157V16.0957H271.752V19.9597C271.752 21.3037 272.816 22.4237 274.16 22.4237C275.504 22.4237 276.624 21.3037 276.624 19.9597V15.1437C276.624 13.0717 274.944 11.4477 272.928 11.4477H256.464V9.54375C256.464 8.19975 255.344 7.13574 254 7.13574C252.656 7.13574 251.536 8.25574 251.536 9.54375V11.4477H235.128C233.112 11.4477 231.432 13.1277 231.432 15.1437V20.0157C231.432 21.3597 232.552 22.4237 233.84 22.4237ZM276.512 39.1117C269.792 38.2157 263.8 36.0877 258.704 33.3437C262.12 30.8797 265.032 27.9117 267.384 24.5517C268.392 23.0957 267.272 21.1357 265.536 21.1357H252.768C253.16 20.7437 253.496 20.2957 253.888 19.9037C254.784 18.8957 254.448 17.2717 253.216 16.7117C251.928 16.0957 250.36 16.4317 249.352 17.5517C245.544 21.7517 240 25.0557 233.448 27.0157C232.16 27.4077 231.376 28.7517 231.656 30.0397C231.936 31.3837 233.28 32.2237 234.568 31.7757C237.76 30.7677 240.728 29.4797 243.528 27.9677C245.32 29.9277 247.336 31.6637 249.576 33.2877C244.536 35.8077 238.544 37.7117 231.6 39.0557C230.312 39.3357 229.416 40.5677 229.64 41.9117C229.864 43.2557 231.152 44.0957 232.44 43.8717C234.792 43.4797 237.144 42.9197 239.44 42.3037C239.272 42.7517 239.16 43.2557 239.16 43.7597V52.4957C239.16 54.5677 240.84 56.1917 242.856 56.1917H265.144C267.216 56.1917 268.84 54.5117 268.84 52.4957V43.7597C268.84 43.2557 268.728 42.7517 268.56 42.3037C271.024 43.0317 273.432 43.5357 275.504 43.8717C276.848 44.0957 278.136 43.1997 278.472 41.7997C278.752 40.5117 277.856 39.2797 276.512 39.1117ZM260.16 25.7277C258.424 27.5197 256.464 29.1437 254.224 30.5997C251.872 29.0317 249.856 27.3517 248.12 25.7277H260.16ZM246.328 40.0637C249.128 38.9997 251.76 37.7117 254.224 36.3117C256.8 37.7677 259.432 38.9997 262.008 40.0637H246.328ZM243.976 51.5437V44.7117H264.08V51.5437H243.976Z" fill="#42210C"/>
<path d="M333.576 49.8077C331.056 48.1277 328.76 46.1677 326.688 43.9277C328.648 42.1917 330.496 40.0637 332.12 37.5997C332.792 36.5357 332.456 35.0797 331.336 34.4637C330.216 33.8477 328.816 34.2397 328.088 35.3037C326.856 37.1517 325.288 38.8877 323.776 40.2877C322.32 38.3277 321.088 36.1437 320.024 33.9037V33.3997H331.728C332.96 33.3997 333.968 32.3357 333.968 31.1597C333.968 29.9277 332.96 28.9197 331.728 28.9197H319.968V25.8957H328.984C330.216 25.8957 331.224 24.8877 331.224 23.6557C331.224 22.4237 330.216 21.4157 328.984 21.4157H319.968V18.5037H330.272C331.504 18.5037 332.568 17.4957 332.568 16.2637C332.568 15.0317 331.56 14.0237 330.272 14.0237H325.008C325.68 12.8477 326.296 11.6157 326.744 10.5517C327.248 9.31974 326.632 7.91974 325.344 7.47174C324.112 7.02374 322.768 7.69575 322.264 8.92774C321.536 10.7757 320.528 12.6237 319.464 14.0237H316.104C315.544 12.2317 314.704 10.3277 313.808 8.70374C313.136 7.52774 311.624 7.07974 310.336 7.75175C309.216 8.31174 308.88 9.76775 309.608 10.8317C310.28 11.8397 310.84 12.9037 311.288 14.0237H305.576C304.344 14.0237 303.336 14.9757 303.336 16.2637C303.336 17.4957 304.344 18.5037 305.576 18.5037H315.208V21.4157H307.2C305.968 21.4157 304.96 22.4237 304.96 23.6557C304.96 24.8877 305.912 25.8957 307.2 25.8957H315.208V28.9197H304.288C303.056 28.9197 302.048 29.9277 302.048 31.1597C302.048 32.3917 303.056 33.3997 304.288 33.3997H315.208V39.9517C311.288 44.5437 306.136 47.2317 302.16 48.7437C300.928 49.2477 300.2 50.5917 300.536 51.8237C300.928 53.1117 302.272 53.8957 303.504 53.4477C307.312 52.1037 311.792 49.5277 315.208 46.6717V51.3197C315.208 51.5437 314.2 51.6557 312.632 51.4877C311.344 51.3197 310.112 52.2157 309.944 53.5037C309.72 54.8477 310.672 56.0797 311.96 56.1917C316.832 56.7517 320.024 55.2397 320.024 52.2157V42.6397C323.16 47.1757 327.36 51.5438 331.672 54.1758C332.736 54.8478 334.136 54.3437 334.64 53.1677C335.088 51.9357 334.64 50.5917 333.576 49.8077ZM302.16 33.0077C301.208 29.8157 299.304 25.6157 297.512 23.2077V22.1997H300.704C301.936 22.1997 302.944 21.1917 302.944 19.9597C302.944 18.6717 301.936 17.6637 300.704 17.6637H297.512V9.93574C297.512 8.70375 296.504 7.63974 295.216 7.63974C293.984 7.63974 292.976 8.70375 292.976 9.93574V17.6637H288.272C286.984 17.6637 285.976 18.7277 285.976 19.9597C285.976 21.1917 286.984 22.1997 288.272 22.1997H292.304C291.352 27.4077 289.112 32.8957 286.2 37.3757C285.416 38.5517 285.528 40.1197 286.48 41.1277C287.432 42.0797 289.056 41.9677 289.784 40.8477C290.96 39.0557 292.024 37.0957 292.976 35.0237V54.1758C292.976 55.4638 293.984 56.4717 295.216 56.4717C296.448 56.4717 297.512 55.4638 297.512 54.1758V32.7837C297.736 33.3997 297.904 33.9597 298.072 34.5757C298.408 35.7517 299.64 36.3677 300.704 35.9197C301.88 35.4717 302.552 34.1837 302.16 33.0077ZM308.824 42.2477C309.608 43.1997 311.008 43.2557 311.848 42.4717C312.8 41.6317 312.912 40.1757 312.128 39.2237C311.008 37.8237 309.552 36.1997 308.264 34.8557C307.2 33.8477 305.52 33.9037 304.512 34.9677C303.616 35.9757 303.784 37.5997 304.904 38.4957C306.08 39.3917 307.48 40.7357 308.824 42.2477Z" fill="#42210C"/>
<path d="M368.24 51.9357C383.696 49.8637 388.624 37.7117 386.048 28.6397C381.848 13.9677 360.232 11.7837 350.376 25.1117C343.824 34.0717 344.328 46.7277 351.44 48.4077C359 50.1997 366.056 36.4797 369.304 21.1917C376.024 21.3037 381.4 26.2317 381.68 32.5597C382.016 40.2877 376.92 45.4397 367.512 46.8957C366.168 47.1197 365.216 48.3517 365.44 49.6957C365.608 51.0957 366.896 52.1037 368.24 51.9357ZM351.16 42.4717C348.64 38.2717 351.832 23.9357 364.096 21.5277C361.744 32.8957 354.408 47.9597 351.16 42.4717Z" fill="#42210C"/>
<path d="M424.464 12.5677V9.71174C424.464 8.42374 423.344 7.24774 422 7.24774C420.656 7.24774 419.536 8.42374 419.536 9.71174V12.5677H401.56C400.216 12.5677 399.096 13.6317 399.096 15.0317C399.096 16.3757 400.216 17.4397 401.56 17.4397H419.536V20.9677H405.816C404.416 20.9677 403.352 22.0877 403.352 23.4317C403.352 24.7757 404.472 25.8397 405.816 25.8397H438.912C440.256 25.8397 441.32 24.7197 441.32 23.4317C441.32 22.0877 440.256 20.9677 438.912 20.9677H424.464V17.4397H442.44C443.784 17.4397 444.848 16.3757 444.848 15.0317C444.848 13.6317 443.784 12.5677 442.44 12.5677H424.464ZM408.168 28.6397C406.096 28.6397 404.472 30.3197 404.472 32.3357C404.416 42.8637 404.192 47.0077 399.992 52.9437C399.208 54.0637 399.488 55.5197 400.608 56.2477C401.784 57.0317 403.352 56.8078 404.136 55.6878C406.88 51.9358 408.392 47.1757 408.84 44.0397H436.392C438.408 44.0397 440.088 42.4157 440.088 40.3437V32.3357C440.088 30.2637 438.408 28.6397 436.392 28.6397H408.168ZM419.536 33.4557V39.2797H409.288C409.344 37.5437 409.344 35.5837 409.4 33.4557H419.536ZM424.464 39.2797V33.4557H435.16V39.2797H424.464Z" fill="#42210C"/>
<path d="M10.1758 23.3757C11.5198 23.3757 12.6398 22.2557 12.6398 20.9117V16.6557H47.3598V20.9117C47.3598 22.2557 48.4238 23.3757 49.8238 23.3757C51.1678 23.3757 52.2878 22.2557 52.2878 20.9117V15.6477C52.2878 13.5757 50.6078 11.9517 48.5918 11.9517H32.4638V9.59974C32.4638 8.25575 31.3438 7.13574 29.9998 7.13574C28.6558 7.13574 27.5358 8.25575 27.5358 9.59974V11.9517H11.4078C9.3358 11.9517 7.7118 13.6317 7.7118 15.6477V20.9117C7.7118 22.2557 8.8318 23.3757 10.1758 23.3757ZM52.3998 51.3757C47.4718 50.3117 38.6798 47.1197 34.7598 42.8077H50.5518C51.8958 42.8077 52.9038 41.7437 52.9038 40.4557C52.9038 39.1677 51.8398 38.1037 50.5518 38.1037H32.5198V34.6877H46.5198C47.8078 34.6877 48.8718 33.6237 48.8718 32.3357C48.8718 30.9917 47.8078 29.9837 46.5198 29.9837H32.5198V26.5677H44.6718C46.0158 26.5677 47.0238 25.4477 47.0238 24.2157C47.0238 22.8717 45.9598 21.8637 44.6718 21.8637H32.5198V19.4557C32.5198 18.0557 31.3438 16.9357 29.9998 16.9357C28.5998 16.9357 27.4798 18.0557 27.4798 19.4557V21.8637H15.3278C14.0398 21.8637 12.9758 22.8717 12.9758 24.2157C12.9758 25.5037 14.0398 26.5677 15.3278 26.5677H27.4798V29.9837H13.4798C12.1358 29.9837 11.1278 31.0477 11.1278 32.3357C11.1278 33.6237 12.1918 34.6877 13.4798 34.6877H27.4798V38.1037H9.4478C8.1598 38.1037 7.0958 39.1677 7.0958 40.4557C7.0958 41.7997 8.1598 42.8077 9.4478 42.8077H25.3518C21.9358 46.3917 14.8798 49.8077 7.7678 51.3197C6.4238 51.5997 5.4718 52.8878 5.6958 54.2318C5.9198 55.6318 7.2078 56.5837 8.5518 56.3597C14.9358 55.1837 25.3518 50.8717 30.0558 44.9357C34.7598 51.2077 45.6238 55.0717 51.5038 56.2477C52.8478 56.5277 54.1358 55.6318 54.3598 54.2318C54.5838 52.9438 53.6878 51.6557 52.3998 51.3757Z" stroke="white" stroke-width="10" mask="url(#path-1-outside-1_516:1014)"/>
<path d="M76.8718 33.7357C77.5438 34.5757 78.7758 34.8557 79.7278 34.1837C81.2398 33.1197 82.7518 31.8877 84.2078 30.4317C84.0958 30.7117 84.0398 31.0477 84.0398 31.3837C84.0398 32.6717 85.1038 33.6797 86.3358 33.6797H99.2158C100.504 33.6797 101.568 32.6157 101.568 31.3837C101.568 30.0957 100.504 29.0317 99.2158 29.0317H86.3358C85.9998 29.0317 85.7198 29.0877 85.4398 29.1997C89.0238 25.4477 92.1038 20.7997 93.7278 15.9277C96.6398 24.7197 101.96 31.2717 106.72 34.6317C107.728 35.4157 109.184 35.0797 109.912 33.9597C110.584 32.8957 110.304 31.4397 109.24 30.7117C107.336 29.3117 105.376 27.5197 103.584 25.2237C105.712 22.5357 107.728 18.7837 108.96 15.0877C109.576 13.2397 108.12 11.3917 106.104 11.3917H99.6078C98.7118 11.3917 97.9278 11.8957 97.5358 12.6797C97.2558 11.7837 97.0878 10.8877 96.8638 9.93574C96.6398 8.70375 95.4638 7.86374 94.1758 8.08774C92.8878 8.31174 92.0478 9.54374 92.3278 10.7757C92.3838 10.9997 92.4398 11.1677 92.4398 11.3917C92.0478 11.1677 91.5438 11.0557 91.0398 11.0557H87.0638L87.5678 9.82374C87.9598 8.75974 87.3438 7.58374 86.2238 7.24774C85.1598 6.91174 83.9838 7.47175 83.5358 8.53575C82.3038 11.5597 79.9518 15.2557 76.7598 18.0557C77.4318 16.2077 77.9918 14.1357 78.3838 11.7277C78.7198 9.93574 77.2638 8.25574 75.4158 8.25574H66.3998C64.5518 8.25574 62.9838 9.82374 62.9838 11.6717V54.2878C62.9838 55.5198 63.9918 56.5837 65.2798 56.5837C66.5118 56.5837 67.5198 55.5198 67.5198 54.2878V44.6557C67.7998 45.4397 68.4718 45.9997 69.3118 45.9997C72.8398 46.0557 77.1518 43.3117 77.2078 37.0957C77.2078 35.9197 77.0958 34.7997 76.8718 33.7357ZM69.9838 41.4637C68.8078 41.5197 67.8558 42.1357 67.5198 42.9757V12.9037H73.5678C72.6158 17.1037 71.3838 19.6237 69.7038 22.3677C68.6958 24.0477 68.6958 26.2317 69.7598 28.0797C71.3278 30.9357 72.7278 33.8477 72.7278 37.0957C72.7278 39.8397 71.7758 41.2957 69.9838 41.4637ZM89.2478 15.1997C88.9118 16.2077 88.4638 17.2157 87.9598 18.2237C87.2318 17.6637 86.4478 17.1037 85.6078 16.5997C85.1038 16.2637 84.4878 16.2637 83.9278 16.4317L84.7678 15.1997H89.2478ZM103.472 16.0957C102.688 17.9437 101.792 19.5677 100.84 20.9677C99.9438 19.3997 99.2158 17.7197 98.4878 15.8157C98.8238 15.9837 99.2158 16.0957 99.6078 16.0957H103.472ZM73.3438 25.2237C74.1838 23.7117 74.9678 22.2557 75.7518 20.6317C75.8078 20.9117 75.9198 21.1917 76.0878 21.4717C76.8158 22.5357 78.2718 22.7597 79.1678 21.9197C80.3438 20.8557 81.4638 19.6237 82.5278 18.2797C82.4718 19.1197 82.8638 20.0157 83.6478 20.4637C84.4318 20.9117 85.1598 21.4717 85.7758 21.9757C85.3838 22.5917 84.9358 23.2077 84.4878 23.8237C83.4238 22.9837 82.2478 22.3117 81.1278 21.8077C80.0638 21.3597 78.8318 21.9757 78.4398 23.1517C78.1598 24.2157 78.7198 25.3917 79.7838 25.9517C80.3438 26.2317 80.9598 26.6237 81.5198 27.0157C80.3438 28.1917 78.9438 29.3117 77.4878 30.2637C76.8718 30.6557 76.5358 31.2157 76.3678 31.8877C75.6398 29.4797 74.5198 27.2957 73.3438 25.2237ZM104.872 41.9117C106.16 41.9117 107.224 40.8477 107.224 39.5597C107.224 38.2717 106.16 37.2637 104.872 37.2637H80.6798C79.3918 37.2637 78.3838 38.3277 78.3838 39.5597C78.3838 40.8477 79.4478 41.9117 80.6798 41.9117H90.4238V51.4877C90.4238 51.6557 90.3118 51.6557 88.4078 51.5437C87.0638 51.4317 85.9438 52.4397 85.8878 53.7277C85.7758 55.1277 86.7838 56.2477 88.1278 56.3037C93.1678 56.5277 95.1838 55.0717 95.1838 51.2077V41.9117H104.872ZM108.68 50.3117C106.552 48.6317 103.752 45.7757 101.96 43.1997C101.232 42.1357 99.8318 41.9117 98.8238 42.6397C97.7598 43.4237 97.4798 44.9357 98.2078 45.9997C100.504 49.4157 103.92 52.7757 106.664 54.8477C107.728 55.6317 109.24 55.1277 109.744 53.8957C110.248 52.6637 109.8 51.2077 108.68 50.3117ZM86.7278 42.6957C85.7198 41.9677 84.2638 42.2477 83.5358 43.3117C81.2958 46.4477 78.3278 49.2477 75.9758 51.1517C74.9678 51.9357 74.6878 53.3357 75.3038 54.3438C75.9758 55.4638 77.3758 55.7997 78.4398 55.1277C81.5198 52.9437 85.1038 49.3037 87.3998 45.9997C88.1278 44.8797 87.7918 43.4237 86.7278 42.6957Z" stroke="white" stroke-width="10" mask="url(#path-1-outside-1_516:1014)"/>
<path d="M144.24 51.9357C159.696 49.8637 164.624 37.7117 162.048 28.6397C157.848 13.9677 136.232 11.7837 126.376 25.1117C119.824 34.0717 120.328 46.7277 127.44 48.4077C135 50.1997 142.056 36.4797 145.304 21.1917C152.024 21.3037 157.4 26.2317 157.68 32.5597C158.016 40.2877 152.92 45.4397 143.512 46.8957C142.168 47.1197 141.216 48.3517 141.44 49.6957C141.608 51.0957 142.896 52.1037 144.24 51.9357ZM127.16 42.4717C124.64 38.2717 127.832 23.9357 140.096 21.5277C137.744 32.8957 130.408 47.9597 127.16 42.4717Z" stroke="white" stroke-width="10" mask="url(#path-1-outside-1_516:1014)"/>
<path d="M209.816 30.7117C204.832 29.3677 199.12 30.0397 193.464 32.5037C193.352 29.7597 193.128 27.0717 192.904 24.5517C195.2 23.9357 197.44 23.2077 199.512 22.3677C200.744 21.8637 201.304 20.4637 200.744 19.2317C200.184 18.0557 198.784 17.4957 197.552 17.9997C195.928 18.6717 194.192 19.2317 192.344 19.7357C191.896 16.4317 191.336 13.4637 190.72 11.1677C190.384 9.82374 188.984 9.09574 187.696 9.37574C186.408 9.71174 185.68 10.9997 186.016 12.2877C186.632 14.6397 187.192 17.5517 187.64 20.7997C184.672 21.4157 181.48 21.7517 178.232 21.9197C176.944 21.9757 175.88 23.0957 175.936 24.3837C175.936 25.7277 177.056 26.7917 178.4 26.7357C181.76 26.5677 185.008 26.1757 188.2 25.6157C188.48 28.5837 188.648 31.7197 188.704 34.9677C186.464 36.3677 184.224 38.0477 182.04 40.0077C174.088 47.2317 178.344 50.7597 184.224 53.2237C189.432 55.2397 192.512 53.7837 193.128 48.9677C193.464 45.3277 193.632 41.4637 193.576 37.6557C203.768 32.3357 213.12 34.2397 214.464 42.0237C215.472 47.9597 207.24 51.7117 202.088 47.5117C201.08 46.6717 199.68 46.6157 198.784 47.3997C197.72 48.3517 197.552 49.8637 198.448 50.8717C200.296 52.8877 202.816 54.0078 206.176 54.1758C221.408 55.0158 224.488 34.6877 209.816 30.7117ZM220.624 24.7757C217.208 22.2557 212.616 20.6317 207.8 20.2957C206.456 20.1837 205.28 21.2477 205.168 22.5917C205.112 23.8797 206.12 24.9997 207.408 25.1117C211.328 25.4477 214.968 26.6797 217.824 28.6957C218.888 29.4797 220.344 29.3117 221.128 28.2477C221.912 27.1277 221.744 25.5597 220.624 24.7757ZM183.776 47.7357C182.376 47.0637 181.928 46.7277 183.888 44.7677C185.176 43.4237 186.8 42.0237 188.704 40.6797C188.648 43.2557 188.536 46.2797 188.424 47.7357C188.256 50.0877 188.648 50.2557 183.776 47.7357Z" stroke="white" stroke-width="10" mask="url(#path-1-outside-1_516:1014)"/>
<path d="M233.84 22.4237C235.128 22.4237 236.248 21.3597 236.248 20.0157V16.0957H271.752V19.9597C271.752 21.3037 272.816 22.4237 274.16 22.4237C275.504 22.4237 276.624 21.3037 276.624 19.9597V15.1437C276.624 13.0717 274.944 11.4477 272.928 11.4477H256.464V9.54375C256.464 8.19975 255.344 7.13574 254 7.13574C252.656 7.13574 251.536 8.25574 251.536 9.54375V11.4477H235.128C233.112 11.4477 231.432 13.1277 231.432 15.1437V20.0157C231.432 21.3597 232.552 22.4237 233.84 22.4237ZM276.512 39.1117C269.792 38.2157 263.8 36.0877 258.704 33.3437C262.12 30.8797 265.032 27.9117 267.384 24.5517C268.392 23.0957 267.272 21.1357 265.536 21.1357H252.768C253.16 20.7437 253.496 20.2957 253.888 19.9037C254.784 18.8957 254.448 17.2717 253.216 16.7117C251.928 16.0957 250.36 16.4317 249.352 17.5517C245.544 21.7517 240 25.0557 233.448 27.0157C232.16 27.4077 231.376 28.7517 231.656 30.0397C231.936 31.3837 233.28 32.2237 234.568 31.7757C237.76 30.7677 240.728 29.4797 243.528 27.9677C245.32 29.9277 247.336 31.6637 249.576 33.2877C244.536 35.8077 238.544 37.7117 231.6 39.0557C230.312 39.3357 229.416 40.5677 229.64 41.9117C229.864 43.2557 231.152 44.0957 232.44 43.8717C234.792 43.4797 237.144 42.9197 239.44 42.3037C239.272 42.7517 239.16 43.2557 239.16 43.7597V52.4957C239.16 54.5677 240.84 56.1917 242.856 56.1917H265.144C267.216 56.1917 268.84 54.5117 268.84 52.4957V43.7597C268.84 43.2557 268.728 42.7517 268.56 42.3037C271.024 43.0317 273.432 43.5357 275.504 43.8717C276.848 44.0957 278.136 43.1997 278.472 41.7997C278.752 40.5117 277.856 39.2797 276.512 39.1117ZM260.16 25.7277C258.424 27.5197 256.464 29.1437 254.224 30.5997C251.872 29.0317 249.856 27.3517 248.12 25.7277H260.16ZM246.328 40.0637C249.128 38.9997 251.76 37.7117 254.224 36.3117C256.8 37.7677 259.432 38.9997 262.008 40.0637H246.328ZM243.976 51.5437V44.7117H264.08V51.5437H243.976Z" stroke="white" stroke-width="10" mask="url(#path-1-outside-1_516:1014)"/>
<path d="M333.576 49.8077C331.056 48.1277 328.76 46.1677 326.688 43.9277C328.648 42.1917 330.496 40.0637 332.12 37.5997C332.792 36.5357 332.456 35.0797 331.336 34.4637C330.216 33.8477 328.816 34.2397 328.088 35.3037C326.856 37.1517 325.288 38.8877 323.776 40.2877C322.32 38.3277 321.088 36.1437 320.024 33.9037V33.3997H331.728C332.96 33.3997 333.968 32.3357 333.968 31.1597C333.968 29.9277 332.96 28.9197 331.728 28.9197H319.968V25.8957H328.984C330.216 25.8957 331.224 24.8877 331.224 23.6557C331.224 22.4237 330.216 21.4157 328.984 21.4157H319.968V18.5037H330.272C331.504 18.5037 332.568 17.4957 332.568 16.2637C332.568 15.0317 331.56 14.0237 330.272 14.0237H325.008C325.68 12.8477 326.296 11.6157 326.744 10.5517C327.248 9.31974 326.632 7.91974 325.344 7.47174C324.112 7.02374 322.768 7.69575 322.264 8.92774C321.536 10.7757 320.528 12.6237 319.464 14.0237H316.104C315.544 12.2317 314.704 10.3277 313.808 8.70374C313.136 7.52774 311.624 7.07974 310.336 7.75175C309.216 8.31174 308.88 9.76775 309.608 10.8317C310.28 11.8397 310.84 12.9037 311.288 14.0237H305.576C304.344 14.0237 303.336 14.9757 303.336 16.2637C303.336 17.4957 304.344 18.5037 305.576 18.5037H315.208V21.4157H307.2C305.968 21.4157 304.96 22.4237 304.96 23.6557C304.96 24.8877 305.912 25.8957 307.2 25.8957H315.208V28.9197H304.288C303.056 28.9197 302.048 29.9277 302.048 31.1597C302.048 32.3917 303.056 33.3997 304.288 33.3997H315.208V39.9517C311.288 44.5437 306.136 47.2317 302.16 48.7437C300.928 49.2477 300.2 50.5917 300.536 51.8237C300.928 53.1117 302.272 53.8957 303.504 53.4477C307.312 52.1037 311.792 49.5277 315.208 46.6717V51.3197C315.208 51.5437 314.2 51.6557 312.632 51.4877C311.344 51.3197 310.112 52.2157 309.944 53.5037C309.72 54.8477 310.672 56.0797 311.96 56.1917C316.832 56.7517 320.024 55.2397 320.024 52.2157V42.6397C323.16 47.1757 327.36 51.5438 331.672 54.1758C332.736 54.8478 334.136 54.3437 334.64 53.1677C335.088 51.9357 334.64 50.5917 333.576 49.8077ZM302.16 33.0077C301.208 29.8157 299.304 25.6157 297.512 23.2077V22.1997H300.704C301.936 22.1997 302.944 21.1917 302.944 19.9597C302.944 18.6717 301.936 17.6637 300.704 17.6637H297.512V9.93574C297.512 8.70375 296.504 7.63974 295.216 7.63974C293.984 7.63974 292.976 8.70375 292.976 9.93574V17.6637H288.272C286.984 17.6637 285.976 18.7277 285.976 19.9597C285.976 21.1917 286.984 22.1997 288.272 22.1997H292.304C291.352 27.4077 289.112 32.8957 286.2 37.3757C285.416 38.5517 285.528 40.1197 286.48 41.1277C287.432 42.0797 289.056 41.9677 289.784 40.8477C290.96 39.0557 292.024 37.0957 292.976 35.0237V54.1758C292.976 55.4638 293.984 56.4717 295.216 56.4717C296.448 56.4717 297.512 55.4638 297.512 54.1758V32.7837C297.736 33.3997 297.904 33.9597 298.072 34.5757C298.408 35.7517 299.64 36.3677 300.704 35.9197C301.88 35.4717 302.552 34.1837 302.16 33.0077ZM308.824 42.2477C309.608 43.1997 311.008 43.2557 311.848 42.4717C312.8 41.6317 312.912 40.1757 312.128 39.2237C311.008 37.8237 309.552 36.1997 308.264 34.8557C307.2 33.8477 305.52 33.9037 304.512 34.9677C303.616 35.9757 303.784 37.5997 304.904 38.4957C306.08 39.3917 307.48 40.7357 308.824 42.2477Z" stroke="white" stroke-width="10" mask="url(#path-1-outside-1_516:1014)"/>
<path d="M368.24 51.9357C383.696 49.8637 388.624 37.7117 386.048 28.6397C381.848 13.9677 360.232 11.7837 350.376 25.1117C343.824 34.0717 344.328 46.7277 351.44 48.4077C359 50.1997 366.056 36.4797 369.304 21.1917C376.024 21.3037 381.4 26.2317 381.68 32.5597C382.016 40.2877 376.92 45.4397 367.512 46.8957C366.168 47.1197 365.216 48.3517 365.44 49.6957C365.608 51.0957 366.896 52.1037 368.24 51.9357ZM351.16 42.4717C348.64 38.2717 351.832 23.9357 364.096 21.5277C361.744 32.8957 354.408 47.9597 351.16 42.4717Z" stroke="white" stroke-width="10" mask="url(#path-1-outside-1_516:1014)"/>
<path d="M424.464 12.5677V9.71174C424.464 8.42374 423.344 7.24774 422 7.24774C420.656 7.24774 419.536 8.42374 419.536 9.71174V12.5677H401.56C400.216 12.5677 399.096 13.6317 399.096 15.0317C399.096 16.3757 400.216 17.4397 401.56 17.4397H419.536V20.9677H405.816C404.416 20.9677 403.352 22.0877 403.352 23.4317C403.352 24.7757 404.472 25.8397 405.816 25.8397H438.912C440.256 25.8397 441.32 24.7197 441.32 23.4317C441.32 22.0877 440.256 20.9677 438.912 20.9677H424.464V17.4397H442.44C443.784 17.4397 444.848 16.3757 444.848 15.0317C444.848 13.6317 443.784 12.5677 442.44 12.5677H424.464ZM408.168 28.6397C406.096 28.6397 404.472 30.3197 404.472 32.3357C404.416 42.8637 404.192 47.0077 399.992 52.9437C399.208 54.0637 399.488 55.5197 400.608 56.2477C401.784 57.0317 403.352 56.8078 404.136 55.6878C406.88 51.9358 408.392 47.1757 408.84 44.0397H436.392C438.408 44.0397 440.088 42.4157 440.088 40.3437V32.3357C440.088 30.2637 438.408 28.6397 436.392 28.6397H408.168ZM419.536 33.4557V39.2797H409.288C409.344 37.5437 409.344 35.5837 409.4 33.4557H419.536ZM424.464 39.2797V33.4557H435.16V39.2797H424.464Z" stroke="white" stroke-width="10" mask="url(#path-1-outside-1_516:1014)"/>
</svg>
