<svg width="635" height="56" viewBox="0 0 635 56" fill="none" xmlns="http://www.w3.org/2000/svg">
<mask id="path-1-outside-1_507:998" maskUnits="userSpaceOnUse" x="0.25" y="0.799805" width="635" height="55" fill="black">
<rect fill="white" x="0.25" y="0.799805" width="635" height="55"/>
<path d="M8.45 21.7998C9.6 21.7998 10.6 20.7998 10.6 19.5998V15.1998H41.4V19.5998C41.4 20.7998 42.35 21.7998 43.6 21.7998C44.8 21.7998 45.75 20.7998 45.75 19.5998V14.1998C45.75 12.3998 44.25 10.9498 42.45 10.9498H28.2V8.14981C28.2 6.9498 27.2 5.94981 26 5.94981C24.8 5.94981 23.8 6.9498 23.8 8.14981V10.8998H9.55C7.75 10.9498 6.25 12.4498 6.25 14.1998V19.5998C6.25 20.7998 7.2 21.7998 8.45 21.7998ZM19.5 17.7998C17.85 22.6498 14.65 25.7998 9.45 27.6998C8.35 28.0998 7.75 29.2998 8.05 30.3998C8.4 31.5498 9.6 32.1998 10.7 31.8498C17 29.7498 21.55 25.3498 23.6 19.2498C24 18.0998 23.35 16.8498 22.2 16.4498C21.05 16.0498 19.85 16.6498 19.5 17.7998ZM28.95 16.4498C27.8 16.4498 26.8 17.4498 26.8 18.6498V22.7998C26.8 27.5498 29.65 29.7498 35.7 29.7498C39.05 29.7498 42 29.2998 44.95 27.3998C46 26.6998 46.25 25.2998 45.5 24.1998C44.85 23.2498 43.5 23.0998 42.5 23.7498C40.7 24.9498 38.8 25.4498 35.7 25.4498C31.35 25.4498 31.1 24.5998 31.1 22.7998V18.6498C31.1 17.4498 30.15 16.4498 28.95 16.4498ZM28.15 44.8498V36.6998H39.55C40.7 36.6998 41.65 35.7498 41.65 34.5498C41.7 33.3998 40.7 32.4498 39.55 32.4498H12.45C11.3 32.4498 10.3 33.3998 10.35 34.5498C10.35 35.7498 11.3 36.6998 12.45 36.6998H23.8V44.8498H7.4C6.25 44.8498 5.25 45.7998 5.25 46.9998C5.25 48.1998 6.25 49.1498 7.4 49.1498H44.6C45.8 49.1498 46.75 48.1498 46.75 46.9998C46.75 45.7998 45.75 44.8498 44.6 44.8498H28.15Z"/>
<path d="M58.3 19.5998C59.5 19.5998 60.5 18.5998 60.5 17.3998V13.8498H91.55V17.3998C91.55 18.5998 92.55 19.5998 93.7 19.5998C94.9 19.5998 95.9 18.5998 95.9 17.3998V12.9498C95.9 11.0998 94.4 9.64981 92.6 9.64981H78.2V8.0498C78.2 6.79981 77.2 5.7998 76 5.7998C74.8 5.7998 73.8 6.79981 73.8 8.0498V9.64981H59.45C57.6 9.64981 56.15 11.1498 56.15 12.9498V17.3998C56.15 18.5998 57.15 19.5998 58.3 19.5998ZM63.3 26.9498C60.7 28.1498 61.25 31.8498 63.95 31.7998C71.05 31.6998 80.2 31.3998 86.5 30.4498C87.1 31.4498 87.65 32.4498 88.1 33.2998C88.6 34.3998 89.9 34.8998 91 34.3998C92.15 33.8498 92.6 32.4998 92.05 31.4498C90.7 28.7498 88.5 25.1498 86.95 22.8498C86.2 21.7498 84.7 21.3998 83.5 22.0998C82.45 22.6998 82.2 24.0998 82.95 25.1498C83.25 25.5498 83.6 25.9998 83.95 26.4998C80.35 26.8998 75.7 27.1998 70.65 27.3498C71.9 26.3998 74.3 24.2998 75.85 21.3998H88.45C89.6 21.3998 90.6 20.4498 90.6 19.2498C90.6 18.0498 89.6 17.0998 88.45 17.0998H63.55C62.35 17.0998 61.4 18.0998 61.4 19.2498C61.4 20.3998 62.35 21.3998 63.55 21.3998H70.55C68.55 23.7998 65.7 25.8498 63.3 26.9498ZM78.2 45.1998V40.2998H90.2C91.4 40.2998 92.35 39.2998 92.35 38.1498C92.35 36.9498 91.35 35.9998 90.2 35.9998H78.2V33.6498C78.2 32.3998 77.2 31.4498 76 31.4498C74.8 31.4498 73.8 32.4498 73.8 33.6498V35.9998H61.8C60.6 35.9998 59.65 36.9998 59.65 38.1498C59.65 39.3498 60.65 40.2998 61.8 40.2998H73.8V45.1998H57.75C56.6 45.1998 55.6 46.1498 55.6 47.3498C55.6 48.5498 56.6 49.4998 57.75 49.4998H94.25C95.4 49.4998 96.4 48.5498 96.4 47.3498C96.4 46.1498 95.4 45.1998 94.25 45.1998H78.2Z"/>
<path d="M113.7 46.4998C114.8 46.1498 115.4 44.8998 115.1 43.7498C112.6 35.3998 112.7 22.3998 115.3 14.1998C115.65 13.0498 115.05 11.8498 113.9 11.4998C112.65 11.1998 111.4 11.8498 111 13.0498C108.2 21.7498 107.95 36.0498 110.85 45.0998C111.25 46.2498 112.5 46.8498 113.7 46.4998ZM121.7 20.9498C127.8 21.9998 135.2 21.7498 140.35 20.7498C141.5 20.5498 142.35 19.3498 142.15 18.1498C141.95 16.9998 140.85 16.1998 139.65 16.4498C134.9 17.4498 127.95 17.4998 122.3 16.6498C121.1 16.4998 120.05 17.2998 119.9 18.4498C119.75 19.6498 120.55 20.7498 121.7 20.9498ZM143.1 42.7498C144.25 42.3498 144.9 41.0998 144.55 39.8498C144.25 38.7498 143 38.0998 141.85 38.4998C134.3 41.1498 126.25 40.1498 121.6 36.0498C120.7 35.2998 119.35 35.2998 118.65 36.1498C117.75 37.0498 117.75 38.4998 118.65 39.2498C125.2 45.5498 136.15 45.0998 143.1 42.7498Z"/>
<path d="M179.05 17.4998C180.1 16.9498 180.55 15.5998 180.05 14.4498C179.55 13.3998 178.3 12.9998 177.2 13.5498C175.8 14.2498 174.3 14.8498 172.7 15.3498C173.2 13.6498 173.7 11.9998 174.1 10.4998C174.4 9.34981 173.7 8.14981 172.55 7.8498C171.35 7.49981 170.2 8.19981 169.9 9.39981C169.3 11.6498 168.65 13.9998 167.9 16.3998C165.4 16.7998 162.9 16.9498 160.65 16.8998C159.45 16.8498 158.45 17.7498 158.3 18.8998C158.2 20.0998 159.05 21.1498 160.25 21.2498C162.25 21.3498 164.3 21.2498 166.4 21.0498C164.3 26.9998 161.5 33.2998 157.4 39.6498C156.75 40.6498 157 42.0498 158 42.7498C159.05 43.3998 160.45 43.1498 161.1 42.0998C165.65 35.0998 168.85 27.2498 171.15 20.2498C174.05 19.5998 176.75 18.6498 179.05 17.4998ZM193.7 41.2498C191.65 39.6998 188.45 37.4998 184.65 36.1998C183.25 27.6998 184.1 25.7998 189.2 25.2998C194.4 24.7998 193.4 17.6498 181.8 18.1498C180.55 18.1998 179.65 19.2498 179.75 20.4998C179.8 21.6498 180.85 22.4498 182.05 22.3498C183.1 22.2998 184.2 22.3498 185.25 22.4998C182.1 23.6498 179.1 26.4498 180.15 35.4998C165 33.9998 167.4 48.1498 178.05 48.1498C184.1 48.1498 185.3 43.5498 185.2 41.0498C187.6 42.1498 189.65 43.5998 191.1 44.6998C192.05 45.3998 193.4 45.1998 194.1 44.2498C194.8 43.3498 194.65 41.9498 193.7 41.2498ZM174.5 42.7998C172.05 40.2498 176.4 38.0998 180.85 39.5998C181.8 45.5998 176.3 44.6998 174.5 42.7998Z"/>
<path d="M224.6 45.3998C245.6 44.2998 245.95 22.8998 233.45 21.6998C225.95 20.9998 218.75 27.1498 212.4 26.2498C211.3 26.0498 210.25 26.7498 210.05 27.7998C209.8 28.9998 210.5 30.1498 211.65 30.2998C220.25 31.5998 229.2 23.3498 235.15 26.4498C241 29.5498 237.4 40.9998 224.35 41.3498C223.2 41.3498 222.35 42.2998 222.4 43.3998C222.45 44.5998 223.45 45.4498 224.6 45.3998Z"/>
<path d="M285.25 17.3498C287.4 16.8498 289.4 16.2498 291.3 15.5498C292.45 15.0998 293 13.7998 292.55 12.6498C292.05 11.5498 290.8 10.9998 289.65 11.3998C281.4 14.3998 271.7 15.4498 260.85 14.5998C259.65 14.4998 258.55 15.3998 258.4 16.5998C258.3 17.8498 259.2 18.9498 260.4 18.9998C266.3 19.4998 272.1 19.3998 277.5 18.7498C268.65 26.7498 269 36.2998 272.45 41.2498C276.1 46.5498 283.15 48.9498 290.05 47.1998C291.3 46.8998 292.05 45.5998 291.8 44.2998C291.55 43.0998 290.35 42.3998 289.15 42.7498C285.15 43.8498 279.8 43.5998 276.35 39.0998C271.55 32.8498 275.55 23.4498 285.25 17.3498Z"/>
<path d="M332.95 25.1498C331.9 24.4998 330.6 24.8498 329.95 25.9498C329.4 26.9498 329.75 28.2498 330.75 28.8998C335.35 31.7498 337.1 34.8998 336.5 39.0998C335.6 44.8498 326.4 46.1998 325.4 39.3498C325.3 38.6498 325.25 37.9998 325.2 37.2998C326.5 37.3498 327.85 37.3998 329.35 37.3998C330.55 37.3998 331.55 36.3998 331.6 35.1998C331.65 33.9998 330.65 33.0498 329.45 33.0998C328 33.1498 326.6 33.1998 325.25 33.1498C325.7 26.1998 327.7 18.4998 325.15 10.0498C324.8 8.84981 323.5 8.19981 322.3 8.5498C321.15 8.89981 320.55 10.1498 320.85 11.2998C322.9 18.3998 321.35 26.0998 320.8 32.7998C317.45 32.2998 315.6 31.3498 317.05 30.0998C317.9 29.3498 318.15 28.2498 317.6 27.4498C317 26.4498 315.8 26.0998 314.85 26.5998C310.8 28.7998 310.95 33.2498 315.1 35.3998C316.35 36.0498 318.2 36.4998 320.65 36.8498C320.65 39.9498 321.15 42.6998 322.7 44.8998C326.65 50.4498 339.95 49.8998 341 38.5998C341.55 32.2998 336.7 27.5498 332.95 25.1498ZM318.4 23.1998C319.5 23.6498 320.75 23.0498 321.15 21.9498C321.5 20.8498 320.95 19.5998 319.85 19.1498C318.15 18.3998 316.05 17.3498 314.5 16.4498C313.4 15.8498 312.05 16.1998 311.45 17.2498C310.85 18.3998 311.2 19.7998 312.3 20.3998C314.15 21.3998 316.7 22.4998 318.4 23.1998Z"/>
<path d="M367.9 9.0498C368.15 7.8998 367.35 6.79981 366.2 6.54981C365.05 6.29981 363.95 7.04981 363.7 8.19981C362.2 15.4498 359.25 21.1998 354.9 25.6998C354 26.5998 353.95 28.0498 354.75 28.9498C355.6 29.8998 357 29.9498 357.9 29.0498C358.3 28.6498 358.7 28.1998 359.05 27.7498V47.9998C359.05 49.1998 360.05 50.1498 361.2 50.1498C362.4 50.1498 363.4 49.1498 363.4 47.9998V21.5498C365.5 17.7498 367 13.5998 367.9 9.0498ZM396.55 43.6998C392.45 41.3498 388 37.1998 385.45 33.4498H395.25C396.4 33.4498 397.35 32.4998 397.35 31.2998C397.35 30.0998 396.4 29.1498 395.25 29.1498H383.25V25.5998H389.9C391.75 25.5998 393.2 24.0998 393.2 22.2998V11.4998C393.2 9.6998 391.7 8.19981 389.9 8.19981H372.55C370.75 8.19981 369.25 9.6998 369.25 11.4998V22.2998C369.25 24.0998 370.75 25.5998 372.55 25.5998H378.9V29.1498H367.25C366.1 29.1498 365.1 30.0998 365.1 31.2998C365.1 32.4998 366.1 33.4498 367.25 33.4498H377.35C374.4 37.4498 369.6 41.0998 365.1 43.8498C364.1 44.4498 363.75 45.7498 364.25 46.7998C364.8 47.8498 366.1 48.2498 367.15 47.6498C371.45 45.1498 375.8 41.4998 378.9 37.9498V47.9998C378.9 49.1498 379.85 50.1498 381.05 50.1498C382.25 50.1498 383.25 49.1498 383.25 47.9998V37.4998C386.4 41.4998 390.9 45.3498 394.75 47.6998C395.8 48.3498 397.15 47.8998 397.65 46.7498C398.1 45.6498 397.65 44.2998 396.55 43.6998ZM388.85 12.5498V21.2998H373.6V12.5498H388.85Z"/>
<path d="M418.3 11.7998C419.5 11.7998 420.45 10.7998 420.45 9.64981C420.45 8.4998 419.5 7.49981 418.3 7.49981H408.05C406.85 7.49981 405.9 8.4998 405.9 9.64981C405.9 10.8498 406.9 11.7998 408.05 11.7998H418.3ZM436.9 45.4498V28.7498H443.75C444.95 28.7498 445.9 27.7498 445.9 26.5998C445.9 25.4498 444.95 24.4498 443.75 24.4498H436.9V12.4498H444.5C445.7 12.4498 446.65 11.4998 446.65 10.3498C446.65 9.14981 445.7 8.19981 444.5 8.19981H423.65C422.5 8.19981 421.5 9.14981 421.5 10.3498C421.5 11.4998 422.45 12.4498 423.65 12.4498H432.55V45.4498H428.8V25.7498C428.8 24.5998 427.85 23.5998 426.65 23.5998C425.5 23.5998 424.55 24.5998 424.55 25.7498V45.4498H422.9C421.75 45.4498 420.75 46.3998 420.75 47.5998C420.75 48.7998 421.75 49.7498 422.9 49.7498H445.3C446.45 49.7498 447.4 48.7498 447.4 47.5998C447.4 46.3998 446.45 45.4498 445.3 45.4498H436.9ZM419.65 18.4998C420.8 18.4998 421.8 17.5498 421.8 16.3498C421.8 15.1998 420.8 14.2498 419.65 14.2498H406.7C405.5 14.2498 404.55 15.1998 404.55 16.3498C404.55 17.5498 405.55 18.4998 406.7 18.4998H419.65ZM408.25 20.9498C407.1 20.9498 406.1 21.8998 406.1 23.0998C406.1 24.2998 407.1 25.2498 408.25 25.2498H418.1C419.3 25.2498 420.25 24.2498 420.25 23.0998C420.25 21.9498 419.3 20.9498 418.1 20.9498H408.25ZM418.1 31.9498C419.25 31.9498 420.25 30.9998 420.25 29.7998C420.25 28.6498 419.3 27.6998 418.1 27.6998H408.25C407.05 27.6998 406.1 28.6498 406.1 29.7998C406.1 30.9998 407.1 31.9498 408.25 31.9498H418.1ZM409.45 34.3998C407.6 34.3998 406.15 35.8998 406.15 37.6998V46.5498C406.15 48.3498 407.65 49.8498 409.45 49.8498H417.4C419.25 49.8498 420.7 48.2998 420.7 46.5498V37.6998C420.7 35.8498 419.2 34.3998 417.4 34.3998H409.45ZM410.45 45.7998V38.3998H416.45V45.7998H410.45Z"/>
<path d="M471.15 17.5498C471.7 14.8998 472.15 12.3498 472.4 9.89981C472.5 8.69981 471.6 7.64981 470.45 7.54981C469.3 7.49981 468.25 8.3498 468.15 9.4998C467.85 12.3498 467.4 15.3498 466.8 18.3498C464.15 18.8498 462.25 18.9498 459.65 18.6998C458.45 18.6498 457.4 19.4498 457.25 20.5998C457.15 21.8498 458 22.8998 459.15 22.9498C461.65 23.1498 463.65 23.0498 465.75 22.7498C463.7 30.4998 460.55 38.2498 456.3 44.6998C455.65 45.6498 455.9 46.9998 456.8 47.6998C457.8 48.3998 459.15 48.1498 459.8 47.1498C464.25 40.3498 467.9 30.9498 470.2 21.8498C477.8 20.2998 477.8 23.5998 477.6 25.4498C475.85 41.8998 474.4 44.0998 468.1 40.7498C467 40.1498 465.7 40.5498 465.15 41.5998C464.55 42.6998 464.95 44.0498 466 44.5998C472.9 48.0998 477.55 46.2998 479.55 39.3498C480.25 36.8998 481.45 31.0998 481.85 25.8498C482.15 22.6498 481.55 16.1998 471.15 17.5498ZM498 14.3998C496.8 11.5998 495.65 9.89981 493.75 8.14981C493.1 7.59981 492.15 7.6498 491.6 8.24981C491 8.7998 491.05 9.7498 491.65 10.2998C493.25 11.8498 494.35 13.5498 495.15 15.5998C495.5 16.4498 496.4 16.7998 497.15 16.4498C497.95 16.1498 498.35 15.1998 498 14.3998ZM491 17.4998C491.3 18.2998 492.25 18.6998 493.05 18.3498C493.85 17.9998 494.25 17.0498 493.9 16.1998C492.85 13.6998 491.5 11.7498 489.7 10.0998C489.05 9.4998 488.05 9.59981 487.45 10.2498C486.9 10.8998 487 11.8498 487.6 12.4498C489.2 13.8498 490.2 15.3498 491 17.4998ZM487.25 17.6998C486.35 16.6498 484.8 16.5498 483.7 17.4498C482.75 18.2498 482.65 19.6998 483.55 20.6998C487.15 24.5498 490.95 30.6998 492.75 37.2498C493.1 38.4998 494.4 39.2498 495.65 38.8498C496.95 38.3498 497.7 36.9498 497.25 35.7498C495.45 30.1498 490.85 21.9998 487.25 17.6998Z"/>
<path d="M533.3 22.8998C529.75 22.6498 526.3 23.0998 523.1 24.0498C522.95 22.7498 522.8 21.3998 522.75 19.9998C526.55 19.2498 530.3 18.2498 533.75 16.8998C534.9 16.4498 535.5 15.1998 535.15 13.9998C534.8 12.8498 533.55 12.2498 532.45 12.6998C529.15 13.9498 526.05 14.8998 522.85 15.5998C523 14.0498 523.2 12.4498 523.55 10.8498C523.75 9.64981 523.05 8.49981 521.95 8.19981C520.75 7.8998 519.6 8.59981 519.35 9.79981C518.9 11.8498 518.65 14.0998 518.55 16.3498C515.45 16.7998 512.25 16.9998 508.75 16.9998C507.6 16.9998 506.6 17.9498 506.6 19.0998C506.55 20.2998 507.5 21.2998 508.7 21.2998C511.8 21.2998 515.15 21.0998 518.55 20.6498C518.6 22.2998 518.8 23.9498 519 25.5998C509.75 29.9498 504.25 38.3998 508.6 43.8498C510.55 46.2498 516.35 48.7998 523.95 40.5998L536.35 27.8498C541.35 30.2498 542.1 36.1498 539.05 39.7998C536.75 42.4498 532.35 44.1498 527.2 44.4998C526 44.5998 525.05 45.5998 525.05 46.7498C525.05 47.9498 526.05 48.8998 527.25 48.7998C552.05 46.8998 548.4 24.1998 533.3 22.8998ZM525.35 33.0998C524.8 31.5498 524.25 29.8998 523.85 28.1498C526.75 27.1498 529.25 26.7498 531.4 26.7998L525.35 33.0998ZM513.7 41.8998C509.65 41.6498 509.65 35.0998 519.8 29.8498C520.35 32.1998 521.1 34.4498 522 36.5498L520.95 37.6498C518 40.7498 515.9 41.9998 513.7 41.8998Z"/>
<path d="M575.3 48.2998C586.85 48.2998 594.7 40.4498 591.95 31.6998C589.9 25.0498 580.95 21.9998 569.8 27.7498C573.2 22.9498 576.55 19.0498 581.1 14.9998C582.05 14.1498 582.35 12.7998 581.85 11.6498C581.35 10.5498 580.05 9.99981 578.9 10.3998C574.85 11.7498 570.65 11.8998 565.6 11.5998C564.4 11.5498 563.35 12.4498 563.25 13.6498C563.2 14.8998 564.1 15.9498 565.3 15.9998C568.55 16.1498 572.35 15.9998 574.85 15.5498C569.95 20.5998 565.15 27.0498 560.75 33.6498C560.2 34.4998 560.45 35.6498 561.3 36.1998C562.15 36.7498 563.3 36.6498 564.1 35.9998C570.4 30.3498 575.8 28.0998 581.55 28.7498C587.85 29.4998 589.55 35.1498 586.9 38.9998C585.55 40.8998 583.4 42.4498 580.75 43.3498C574.5 35.7998 569.9 34.2498 567.2 39.0498C565.45 42.0998 566.3 48.2998 575.3 48.2998ZM576.6 44.1998C573.5 44.3498 571.1 43.5498 570.5 42.0998C570 40.5498 571.6 38.2998 576.6 44.1998Z"/>
<path d="M626 39.3998C627.1 39.3998 627.95 38.4998 627.95 37.4498L628.6 10.7498C628.65 9.29981 627.45 8.0998 626 8.0998C624.55 8.0998 623.35 9.29981 623.4 10.7498L624.05 37.4498C624.05 38.4998 624.9 39.3998 626 39.3998ZM626 48.6998C627.9 48.6998 629.45 47.1498 629.45 45.2998C629.45 43.3998 627.9 41.8498 626 41.8498C624.15 41.8498 622.55 43.3998 622.55 45.2998C622.55 47.1998 624.15 48.6998 626 48.6998Z"/>
</mask>
<path d="M8.45 21.7998C9.6 21.7998 10.6 20.7998 10.6 19.5998V15.1998H41.4V19.5998C41.4 20.7998 42.35 21.7998 43.6 21.7998C44.8 21.7998 45.75 20.7998 45.75 19.5998V14.1998C45.75 12.3998 44.25 10.9498 42.45 10.9498H28.2V8.14981C28.2 6.9498 27.2 5.94981 26 5.94981C24.8 5.94981 23.8 6.9498 23.8 8.14981V10.8998H9.55C7.75 10.9498 6.25 12.4498 6.25 14.1998V19.5998C6.25 20.7998 7.2 21.7998 8.45 21.7998ZM19.5 17.7998C17.85 22.6498 14.65 25.7998 9.45 27.6998C8.35 28.0998 7.75 29.2998 8.05 30.3998C8.4 31.5498 9.6 32.1998 10.7 31.8498C17 29.7498 21.55 25.3498 23.6 19.2498C24 18.0998 23.35 16.8498 22.2 16.4498C21.05 16.0498 19.85 16.6498 19.5 17.7998ZM28.95 16.4498C27.8 16.4498 26.8 17.4498 26.8 18.6498V22.7998C26.8 27.5498 29.65 29.7498 35.7 29.7498C39.05 29.7498 42 29.2998 44.95 27.3998C46 26.6998 46.25 25.2998 45.5 24.1998C44.85 23.2498 43.5 23.0998 42.5 23.7498C40.7 24.9498 38.8 25.4498 35.7 25.4498C31.35 25.4498 31.1 24.5998 31.1 22.7998V18.6498C31.1 17.4498 30.15 16.4498 28.95 16.4498ZM28.15 44.8498V36.6998H39.55C40.7 36.6998 41.65 35.7498 41.65 34.5498C41.7 33.3998 40.7 32.4498 39.55 32.4498H12.45C11.3 32.4498 10.3 33.3998 10.35 34.5498C10.35 35.7498 11.3 36.6998 12.45 36.6998H23.8V44.8498H7.4C6.25 44.8498 5.25 45.7998 5.25 46.9998C5.25 48.1998 6.25 49.1498 7.4 49.1498H44.6C45.8 49.1498 46.75 48.1498 46.75 46.9998C46.75 45.7998 45.75 44.8498 44.6 44.8498H28.15Z" fill="#42210C"/>
<path d="M58.3 19.5998C59.5 19.5998 60.5 18.5998 60.5 17.3998V13.8498H91.55V17.3998C91.55 18.5998 92.55 19.5998 93.7 19.5998C94.9 19.5998 95.9 18.5998 95.9 17.3998V12.9498C95.9 11.0998 94.4 9.64981 92.6 9.64981H78.2V8.0498C78.2 6.79981 77.2 5.7998 76 5.7998C74.8 5.7998 73.8 6.79981 73.8 8.0498V9.64981H59.45C57.6 9.64981 56.15 11.1498 56.15 12.9498V17.3998C56.15 18.5998 57.15 19.5998 58.3 19.5998ZM63.3 26.9498C60.7 28.1498 61.25 31.8498 63.95 31.7998C71.05 31.6998 80.2 31.3998 86.5 30.4498C87.1 31.4498 87.65 32.4498 88.1 33.2998C88.6 34.3998 89.9 34.8998 91 34.3998C92.15 33.8498 92.6 32.4998 92.05 31.4498C90.7 28.7498 88.5 25.1498 86.95 22.8498C86.2 21.7498 84.7 21.3998 83.5 22.0998C82.45 22.6998 82.2 24.0998 82.95 25.1498C83.25 25.5498 83.6 25.9998 83.95 26.4998C80.35 26.8998 75.7 27.1998 70.65 27.3498C71.9 26.3998 74.3 24.2998 75.85 21.3998H88.45C89.6 21.3998 90.6 20.4498 90.6 19.2498C90.6 18.0498 89.6 17.0998 88.45 17.0998H63.55C62.35 17.0998 61.4 18.0998 61.4 19.2498C61.4 20.3998 62.35 21.3998 63.55 21.3998H70.55C68.55 23.7998 65.7 25.8498 63.3 26.9498ZM78.2 45.1998V40.2998H90.2C91.4 40.2998 92.35 39.2998 92.35 38.1498C92.35 36.9498 91.35 35.9998 90.2 35.9998H78.2V33.6498C78.2 32.3998 77.2 31.4498 76 31.4498C74.8 31.4498 73.8 32.4498 73.8 33.6498V35.9998H61.8C60.6 35.9998 59.65 36.9998 59.65 38.1498C59.65 39.3498 60.65 40.2998 61.8 40.2998H73.8V45.1998H57.75C56.6 45.1998 55.6 46.1498 55.6 47.3498C55.6 48.5498 56.6 49.4998 57.75 49.4998H94.25C95.4 49.4998 96.4 48.5498 96.4 47.3498C96.4 46.1498 95.4 45.1998 94.25 45.1998H78.2Z" fill="#42210C"/>
<path d="M113.7 46.4998C114.8 46.1498 115.4 44.8998 115.1 43.7498C112.6 35.3998 112.7 22.3998 115.3 14.1998C115.65 13.0498 115.05 11.8498 113.9 11.4998C112.65 11.1998 111.4 11.8498 111 13.0498C108.2 21.7498 107.95 36.0498 110.85 45.0998C111.25 46.2498 112.5 46.8498 113.7 46.4998ZM121.7 20.9498C127.8 21.9998 135.2 21.7498 140.35 20.7498C141.5 20.5498 142.35 19.3498 142.15 18.1498C141.95 16.9998 140.85 16.1998 139.65 16.4498C134.9 17.4498 127.95 17.4998 122.3 16.6498C121.1 16.4998 120.05 17.2998 119.9 18.4498C119.75 19.6498 120.55 20.7498 121.7 20.9498ZM143.1 42.7498C144.25 42.3498 144.9 41.0998 144.55 39.8498C144.25 38.7498 143 38.0998 141.85 38.4998C134.3 41.1498 126.25 40.1498 121.6 36.0498C120.7 35.2998 119.35 35.2998 118.65 36.1498C117.75 37.0498 117.75 38.4998 118.65 39.2498C125.2 45.5498 136.15 45.0998 143.1 42.7498Z" fill="#42210C"/>
<path d="M179.05 17.4998C180.1 16.9498 180.55 15.5998 180.05 14.4498C179.55 13.3998 178.3 12.9998 177.2 13.5498C175.8 14.2498 174.3 14.8498 172.7 15.3498C173.2 13.6498 173.7 11.9998 174.1 10.4998C174.4 9.34981 173.7 8.14981 172.55 7.8498C171.35 7.49981 170.2 8.19981 169.9 9.39981C169.3 11.6498 168.65 13.9998 167.9 16.3998C165.4 16.7998 162.9 16.9498 160.65 16.8998C159.45 16.8498 158.45 17.7498 158.3 18.8998C158.2 20.0998 159.05 21.1498 160.25 21.2498C162.25 21.3498 164.3 21.2498 166.4 21.0498C164.3 26.9998 161.5 33.2998 157.4 39.6498C156.75 40.6498 157 42.0498 158 42.7498C159.05 43.3998 160.45 43.1498 161.1 42.0998C165.65 35.0998 168.85 27.2498 171.15 20.2498C174.05 19.5998 176.75 18.6498 179.05 17.4998ZM193.7 41.2498C191.65 39.6998 188.45 37.4998 184.65 36.1998C183.25 27.6998 184.1 25.7998 189.2 25.2998C194.4 24.7998 193.4 17.6498 181.8 18.1498C180.55 18.1998 179.65 19.2498 179.75 20.4998C179.8 21.6498 180.85 22.4498 182.05 22.3498C183.1 22.2998 184.2 22.3498 185.25 22.4998C182.1 23.6498 179.1 26.4498 180.15 35.4998C165 33.9998 167.4 48.1498 178.05 48.1498C184.1 48.1498 185.3 43.5498 185.2 41.0498C187.6 42.1498 189.65 43.5998 191.1 44.6998C192.05 45.3998 193.4 45.1998 194.1 44.2498C194.8 43.3498 194.65 41.9498 193.7 41.2498ZM174.5 42.7998C172.05 40.2498 176.4 38.0998 180.85 39.5998C181.8 45.5998 176.3 44.6998 174.5 42.7998Z" fill="#42210C"/>
<path d="M224.6 45.3998C245.6 44.2998 245.95 22.8998 233.45 21.6998C225.95 20.9998 218.75 27.1498 212.4 26.2498C211.3 26.0498 210.25 26.7498 210.05 27.7998C209.8 28.9998 210.5 30.1498 211.65 30.2998C220.25 31.5998 229.2 23.3498 235.15 26.4498C241 29.5498 237.4 40.9998 224.35 41.3498C223.2 41.3498 222.35 42.2998 222.4 43.3998C222.45 44.5998 223.45 45.4498 224.6 45.3998Z" fill="#42210C"/>
<path d="M285.25 17.3498C287.4 16.8498 289.4 16.2498 291.3 15.5498C292.45 15.0998 293 13.7998 292.55 12.6498C292.05 11.5498 290.8 10.9998 289.65 11.3998C281.4 14.3998 271.7 15.4498 260.85 14.5998C259.65 14.4998 258.55 15.3998 258.4 16.5998C258.3 17.8498 259.2 18.9498 260.4 18.9998C266.3 19.4998 272.1 19.3998 277.5 18.7498C268.65 26.7498 269 36.2998 272.45 41.2498C276.1 46.5498 283.15 48.9498 290.05 47.1998C291.3 46.8998 292.05 45.5998 291.8 44.2998C291.55 43.0998 290.35 42.3998 289.15 42.7498C285.15 43.8498 279.8 43.5998 276.35 39.0998C271.55 32.8498 275.55 23.4498 285.25 17.3498Z" fill="#42210C"/>
<path d="M332.95 25.1498C331.9 24.4998 330.6 24.8498 329.95 25.9498C329.4 26.9498 329.75 28.2498 330.75 28.8998C335.35 31.7498 337.1 34.8998 336.5 39.0998C335.6 44.8498 326.4 46.1998 325.4 39.3498C325.3 38.6498 325.25 37.9998 325.2 37.2998C326.5 37.3498 327.85 37.3998 329.35 37.3998C330.55 37.3998 331.55 36.3998 331.6 35.1998C331.65 33.9998 330.65 33.0498 329.45 33.0998C328 33.1498 326.6 33.1998 325.25 33.1498C325.7 26.1998 327.7 18.4998 325.15 10.0498C324.8 8.84981 323.5 8.19981 322.3 8.5498C321.15 8.89981 320.55 10.1498 320.85 11.2998C322.9 18.3998 321.35 26.0998 320.8 32.7998C317.45 32.2998 315.6 31.3498 317.05 30.0998C317.9 29.3498 318.15 28.2498 317.6 27.4498C317 26.4498 315.8 26.0998 314.85 26.5998C310.8 28.7998 310.95 33.2498 315.1 35.3998C316.35 36.0498 318.2 36.4998 320.65 36.8498C320.65 39.9498 321.15 42.6998 322.7 44.8998C326.65 50.4498 339.95 49.8998 341 38.5998C341.55 32.2998 336.7 27.5498 332.95 25.1498ZM318.4 23.1998C319.5 23.6498 320.75 23.0498 321.15 21.9498C321.5 20.8498 320.95 19.5998 319.85 19.1498C318.15 18.3998 316.05 17.3498 314.5 16.4498C313.4 15.8498 312.05 16.1998 311.45 17.2498C310.85 18.3998 311.2 19.7998 312.3 20.3998C314.15 21.3998 316.7 22.4998 318.4 23.1998Z" fill="#42210C"/>
<path d="M367.9 9.0498C368.15 7.8998 367.35 6.79981 366.2 6.54981C365.05 6.29981 363.95 7.04981 363.7 8.19981C362.2 15.4498 359.25 21.1998 354.9 25.6998C354 26.5998 353.95 28.0498 354.75 28.9498C355.6 29.8998 357 29.9498 357.9 29.0498C358.3 28.6498 358.7 28.1998 359.05 27.7498V47.9998C359.05 49.1998 360.05 50.1498 361.2 50.1498C362.4 50.1498 363.4 49.1498 363.4 47.9998V21.5498C365.5 17.7498 367 13.5998 367.9 9.0498ZM396.55 43.6998C392.45 41.3498 388 37.1998 385.45 33.4498H395.25C396.4 33.4498 397.35 32.4998 397.35 31.2998C397.35 30.0998 396.4 29.1498 395.25 29.1498H383.25V25.5998H389.9C391.75 25.5998 393.2 24.0998 393.2 22.2998V11.4998C393.2 9.6998 391.7 8.19981 389.9 8.19981H372.55C370.75 8.19981 369.25 9.6998 369.25 11.4998V22.2998C369.25 24.0998 370.75 25.5998 372.55 25.5998H378.9V29.1498H367.25C366.1 29.1498 365.1 30.0998 365.1 31.2998C365.1 32.4998 366.1 33.4498 367.25 33.4498H377.35C374.4 37.4498 369.6 41.0998 365.1 43.8498C364.1 44.4498 363.75 45.7498 364.25 46.7998C364.8 47.8498 366.1 48.2498 367.15 47.6498C371.45 45.1498 375.8 41.4998 378.9 37.9498V47.9998C378.9 49.1498 379.85 50.1498 381.05 50.1498C382.25 50.1498 383.25 49.1498 383.25 47.9998V37.4998C386.4 41.4998 390.9 45.3498 394.75 47.6998C395.8 48.3498 397.15 47.8998 397.65 46.7498C398.1 45.6498 397.65 44.2998 396.55 43.6998ZM388.85 12.5498V21.2998H373.6V12.5498H388.85Z" fill="#42210C"/>
<path d="M418.3 11.7998C419.5 11.7998 420.45 10.7998 420.45 9.64981C420.45 8.4998 419.5 7.49981 418.3 7.49981H408.05C406.85 7.49981 405.9 8.4998 405.9 9.64981C405.9 10.8498 406.9 11.7998 408.05 11.7998H418.3ZM436.9 45.4498V28.7498H443.75C444.95 28.7498 445.9 27.7498 445.9 26.5998C445.9 25.4498 444.95 24.4498 443.75 24.4498H436.9V12.4498H444.5C445.7 12.4498 446.65 11.4998 446.65 10.3498C446.65 9.14981 445.7 8.19981 444.5 8.19981H423.65C422.5 8.19981 421.5 9.14981 421.5 10.3498C421.5 11.4998 422.45 12.4498 423.65 12.4498H432.55V45.4498H428.8V25.7498C428.8 24.5998 427.85 23.5998 426.65 23.5998C425.5 23.5998 424.55 24.5998 424.55 25.7498V45.4498H422.9C421.75 45.4498 420.75 46.3998 420.75 47.5998C420.75 48.7998 421.75 49.7498 422.9 49.7498H445.3C446.45 49.7498 447.4 48.7498 447.4 47.5998C447.4 46.3998 446.45 45.4498 445.3 45.4498H436.9ZM419.65 18.4998C420.8 18.4998 421.8 17.5498 421.8 16.3498C421.8 15.1998 420.8 14.2498 419.65 14.2498H406.7C405.5 14.2498 404.55 15.1998 404.55 16.3498C404.55 17.5498 405.55 18.4998 406.7 18.4998H419.65ZM408.25 20.9498C407.1 20.9498 406.1 21.8998 406.1 23.0998C406.1 24.2998 407.1 25.2498 408.25 25.2498H418.1C419.3 25.2498 420.25 24.2498 420.25 23.0998C420.25 21.9498 419.3 20.9498 418.1 20.9498H408.25ZM418.1 31.9498C419.25 31.9498 420.25 30.9998 420.25 29.7998C420.25 28.6498 419.3 27.6998 418.1 27.6998H408.25C407.05 27.6998 406.1 28.6498 406.1 29.7998C406.1 30.9998 407.1 31.9498 408.25 31.9498H418.1ZM409.45 34.3998C407.6 34.3998 406.15 35.8998 406.15 37.6998V46.5498C406.15 48.3498 407.65 49.8498 409.45 49.8498H417.4C419.25 49.8498 420.7 48.2998 420.7 46.5498V37.6998C420.7 35.8498 419.2 34.3998 417.4 34.3998H409.45ZM410.45 45.7998V38.3998H416.45V45.7998H410.45Z" fill="#42210C"/>
<path d="M471.15 17.5498C471.7 14.8998 472.15 12.3498 472.4 9.89981C472.5 8.69981 471.6 7.64981 470.45 7.54981C469.3 7.49981 468.25 8.3498 468.15 9.4998C467.85 12.3498 467.4 15.3498 466.8 18.3498C464.15 18.8498 462.25 18.9498 459.65 18.6998C458.45 18.6498 457.4 19.4498 457.25 20.5998C457.15 21.8498 458 22.8998 459.15 22.9498C461.65 23.1498 463.65 23.0498 465.75 22.7498C463.7 30.4998 460.55 38.2498 456.3 44.6998C455.65 45.6498 455.9 46.9998 456.8 47.6998C457.8 48.3998 459.15 48.1498 459.8 47.1498C464.25 40.3498 467.9 30.9498 470.2 21.8498C477.8 20.2998 477.8 23.5998 477.6 25.4498C475.85 41.8998 474.4 44.0998 468.1 40.7498C467 40.1498 465.7 40.5498 465.15 41.5998C464.55 42.6998 464.95 44.0498 466 44.5998C472.9 48.0998 477.55 46.2998 479.55 39.3498C480.25 36.8998 481.45 31.0998 481.85 25.8498C482.15 22.6498 481.55 16.1998 471.15 17.5498ZM498 14.3998C496.8 11.5998 495.65 9.89981 493.75 8.14981C493.1 7.59981 492.15 7.6498 491.6 8.24981C491 8.7998 491.05 9.7498 491.65 10.2998C493.25 11.8498 494.35 13.5498 495.15 15.5998C495.5 16.4498 496.4 16.7998 497.15 16.4498C497.95 16.1498 498.35 15.1998 498 14.3998ZM491 17.4998C491.3 18.2998 492.25 18.6998 493.05 18.3498C493.85 17.9998 494.25 17.0498 493.9 16.1998C492.85 13.6998 491.5 11.7498 489.7 10.0998C489.05 9.4998 488.05 9.59981 487.45 10.2498C486.9 10.8998 487 11.8498 487.6 12.4498C489.2 13.8498 490.2 15.3498 491 17.4998ZM487.25 17.6998C486.35 16.6498 484.8 16.5498 483.7 17.4498C482.75 18.2498 482.65 19.6998 483.55 20.6998C487.15 24.5498 490.95 30.6998 492.75 37.2498C493.1 38.4998 494.4 39.2498 495.65 38.8498C496.95 38.3498 497.7 36.9498 497.25 35.7498C495.45 30.1498 490.85 21.9998 487.25 17.6998Z" fill="#42210C"/>
<path d="M533.3 22.8998C529.75 22.6498 526.3 23.0998 523.1 24.0498C522.95 22.7498 522.8 21.3998 522.75 19.9998C526.55 19.2498 530.3 18.2498 533.75 16.8998C534.9 16.4498 535.5 15.1998 535.15 13.9998C534.8 12.8498 533.55 12.2498 532.45 12.6998C529.15 13.9498 526.05 14.8998 522.85 15.5998C523 14.0498 523.2 12.4498 523.55 10.8498C523.75 9.64981 523.05 8.49981 521.95 8.19981C520.75 7.8998 519.6 8.59981 519.35 9.79981C518.9 11.8498 518.65 14.0998 518.55 16.3498C515.45 16.7998 512.25 16.9998 508.75 16.9998C507.6 16.9998 506.6 17.9498 506.6 19.0998C506.55 20.2998 507.5 21.2998 508.7 21.2998C511.8 21.2998 515.15 21.0998 518.55 20.6498C518.6 22.2998 518.8 23.9498 519 25.5998C509.75 29.9498 504.25 38.3998 508.6 43.8498C510.55 46.2498 516.35 48.7998 523.95 40.5998L536.35 27.8498C541.35 30.2498 542.1 36.1498 539.05 39.7998C536.75 42.4498 532.35 44.1498 527.2 44.4998C526 44.5998 525.05 45.5998 525.05 46.7498C525.05 47.9498 526.05 48.8998 527.25 48.7998C552.05 46.8998 548.4 24.1998 533.3 22.8998ZM525.35 33.0998C524.8 31.5498 524.25 29.8998 523.85 28.1498C526.75 27.1498 529.25 26.7498 531.4 26.7998L525.35 33.0998ZM513.7 41.8998C509.65 41.6498 509.65 35.0998 519.8 29.8498C520.35 32.1998 521.1 34.4498 522 36.5498L520.95 37.6498C518 40.7498 515.9 41.9998 513.7 41.8998Z" fill="#42210C"/>
<path d="M575.3 48.2998C586.85 48.2998 594.7 40.4498 591.95 31.6998C589.9 25.0498 580.95 21.9998 569.8 27.7498C573.2 22.9498 576.55 19.0498 581.1 14.9998C582.05 14.1498 582.35 12.7998 581.85 11.6498C581.35 10.5498 580.05 9.99981 578.9 10.3998C574.85 11.7498 570.65 11.8998 565.6 11.5998C564.4 11.5498 563.35 12.4498 563.25 13.6498C563.2 14.8998 564.1 15.9498 565.3 15.9998C568.55 16.1498 572.35 15.9998 574.85 15.5498C569.95 20.5998 565.15 27.0498 560.75 33.6498C560.2 34.4998 560.45 35.6498 561.3 36.1998C562.15 36.7498 563.3 36.6498 564.1 35.9998C570.4 30.3498 575.8 28.0998 581.55 28.7498C587.85 29.4998 589.55 35.1498 586.9 38.9998C585.55 40.8998 583.4 42.4498 580.75 43.3498C574.5 35.7998 569.9 34.2498 567.2 39.0498C565.45 42.0998 566.3 48.2998 575.3 48.2998ZM576.6 44.1998C573.5 44.3498 571.1 43.5498 570.5 42.0998C570 40.5498 571.6 38.2998 576.6 44.1998Z" fill="#42210C"/>
<path d="M626 39.3998C627.1 39.3998 627.95 38.4998 627.95 37.4498L628.6 10.7498C628.65 9.29981 627.45 8.0998 626 8.0998C624.55 8.0998 623.35 9.29981 623.4 10.7498L624.05 37.4498C624.05 38.4998 624.9 39.3998 626 39.3998ZM626 48.6998C627.9 48.6998 629.45 47.1498 629.45 45.2998C629.45 43.3998 627.9 41.8498 626 41.8498C624.15 41.8498 622.55 43.3998 622.55 45.2998C622.55 47.1998 624.15 48.6998 626 48.6998Z" fill="#42210C"/>
<path d="M8.45 21.7998C9.6 21.7998 10.6 20.7998 10.6 19.5998V15.1998H41.4V19.5998C41.4 20.7998 42.35 21.7998 43.6 21.7998C44.8 21.7998 45.75 20.7998 45.75 19.5998V14.1998C45.75 12.3998 44.25 10.9498 42.45 10.9498H28.2V8.14981C28.2 6.9498 27.2 5.94981 26 5.94981C24.8 5.94981 23.8 6.9498 23.8 8.14981V10.8998H9.55C7.75 10.9498 6.25 12.4498 6.25 14.1998V19.5998C6.25 20.7998 7.2 21.7998 8.45 21.7998ZM19.5 17.7998C17.85 22.6498 14.65 25.7998 9.45 27.6998C8.35 28.0998 7.75 29.2998 8.05 30.3998C8.4 31.5498 9.6 32.1998 10.7 31.8498C17 29.7498 21.55 25.3498 23.6 19.2498C24 18.0998 23.35 16.8498 22.2 16.4498C21.05 16.0498 19.85 16.6498 19.5 17.7998ZM28.95 16.4498C27.8 16.4498 26.8 17.4498 26.8 18.6498V22.7998C26.8 27.5498 29.65 29.7498 35.7 29.7498C39.05 29.7498 42 29.2998 44.95 27.3998C46 26.6998 46.25 25.2998 45.5 24.1998C44.85 23.2498 43.5 23.0998 42.5 23.7498C40.7 24.9498 38.8 25.4498 35.7 25.4498C31.35 25.4498 31.1 24.5998 31.1 22.7998V18.6498C31.1 17.4498 30.15 16.4498 28.95 16.4498ZM28.15 44.8498V36.6998H39.55C40.7 36.6998 41.65 35.7498 41.65 34.5498C41.7 33.3998 40.7 32.4498 39.55 32.4498H12.45C11.3 32.4498 10.3 33.3998 10.35 34.5498C10.35 35.7498 11.3 36.6998 12.45 36.6998H23.8V44.8498H7.4C6.25 44.8498 5.25 45.7998 5.25 46.9998C5.25 48.1998 6.25 49.1498 7.4 49.1498H44.6C45.8 49.1498 46.75 48.1498 46.75 46.9998C46.75 45.7998 45.75 44.8498 44.6 44.8498H28.15Z" stroke="white" stroke-width="10" mask="url(#path-1-outside-1_507:998)"/>
<path d="M58.3 19.5998C59.5 19.5998 60.5 18.5998 60.5 17.3998V13.8498H91.55V17.3998C91.55 18.5998 92.55 19.5998 93.7 19.5998C94.9 19.5998 95.9 18.5998 95.9 17.3998V12.9498C95.9 11.0998 94.4 9.64981 92.6 9.64981H78.2V8.0498C78.2 6.79981 77.2 5.7998 76 5.7998C74.8 5.7998 73.8 6.79981 73.8 8.0498V9.64981H59.45C57.6 9.64981 56.15 11.1498 56.15 12.9498V17.3998C56.15 18.5998 57.15 19.5998 58.3 19.5998ZM63.3 26.9498C60.7 28.1498 61.25 31.8498 63.95 31.7998C71.05 31.6998 80.2 31.3998 86.5 30.4498C87.1 31.4498 87.65 32.4498 88.1 33.2998C88.6 34.3998 89.9 34.8998 91 34.3998C92.15 33.8498 92.6 32.4998 92.05 31.4498C90.7 28.7498 88.5 25.1498 86.95 22.8498C86.2 21.7498 84.7 21.3998 83.5 22.0998C82.45 22.6998 82.2 24.0998 82.95 25.1498C83.25 25.5498 83.6 25.9998 83.95 26.4998C80.35 26.8998 75.7 27.1998 70.65 27.3498C71.9 26.3998 74.3 24.2998 75.85 21.3998H88.45C89.6 21.3998 90.6 20.4498 90.6 19.2498C90.6 18.0498 89.6 17.0998 88.45 17.0998H63.55C62.35 17.0998 61.4 18.0998 61.4 19.2498C61.4 20.3998 62.35 21.3998 63.55 21.3998H70.55C68.55 23.7998 65.7 25.8498 63.3 26.9498ZM78.2 45.1998V40.2998H90.2C91.4 40.2998 92.35 39.2998 92.35 38.1498C92.35 36.9498 91.35 35.9998 90.2 35.9998H78.2V33.6498C78.2 32.3998 77.2 31.4498 76 31.4498C74.8 31.4498 73.8 32.4498 73.8 33.6498V35.9998H61.8C60.6 35.9998 59.65 36.9998 59.65 38.1498C59.65 39.3498 60.65 40.2998 61.8 40.2998H73.8V45.1998H57.75C56.6 45.1998 55.6 46.1498 55.6 47.3498C55.6 48.5498 56.6 49.4998 57.75 49.4998H94.25C95.4 49.4998 96.4 48.5498 96.4 47.3498C96.4 46.1498 95.4 45.1998 94.25 45.1998H78.2Z" stroke="white" stroke-width="10" mask="url(#path-1-outside-1_507:998)"/>
<path d="M113.7 46.4998C114.8 46.1498 115.4 44.8998 115.1 43.7498C112.6 35.3998 112.7 22.3998 115.3 14.1998C115.65 13.0498 115.05 11.8498 113.9 11.4998C112.65 11.1998 111.4 11.8498 111 13.0498C108.2 21.7498 107.95 36.0498 110.85 45.0998C111.25 46.2498 112.5 46.8498 113.7 46.4998ZM121.7 20.9498C127.8 21.9998 135.2 21.7498 140.35 20.7498C141.5 20.5498 142.35 19.3498 142.15 18.1498C141.95 16.9998 140.85 16.1998 139.65 16.4498C134.9 17.4498 127.95 17.4998 122.3 16.6498C121.1 16.4998 120.05 17.2998 119.9 18.4498C119.75 19.6498 120.55 20.7498 121.7 20.9498ZM143.1 42.7498C144.25 42.3498 144.9 41.0998 144.55 39.8498C144.25 38.7498 143 38.0998 141.85 38.4998C134.3 41.1498 126.25 40.1498 121.6 36.0498C120.7 35.2998 119.35 35.2998 118.65 36.1498C117.75 37.0498 117.75 38.4998 118.65 39.2498C125.2 45.5498 136.15 45.0998 143.1 42.7498Z" stroke="white" stroke-width="10" mask="url(#path-1-outside-1_507:998)"/>
<path d="M179.05 17.4998C180.1 16.9498 180.55 15.5998 180.05 14.4498C179.55 13.3998 178.3 12.9998 177.2 13.5498C175.8 14.2498 174.3 14.8498 172.7 15.3498C173.2 13.6498 173.7 11.9998 174.1 10.4998C174.4 9.34981 173.7 8.14981 172.55 7.8498C171.35 7.49981 170.2 8.19981 169.9 9.39981C169.3 11.6498 168.65 13.9998 167.9 16.3998C165.4 16.7998 162.9 16.9498 160.65 16.8998C159.45 16.8498 158.45 17.7498 158.3 18.8998C158.2 20.0998 159.05 21.1498 160.25 21.2498C162.25 21.3498 164.3 21.2498 166.4 21.0498C164.3 26.9998 161.5 33.2998 157.4 39.6498C156.75 40.6498 157 42.0498 158 42.7498C159.05 43.3998 160.45 43.1498 161.1 42.0998C165.65 35.0998 168.85 27.2498 171.15 20.2498C174.05 19.5998 176.75 18.6498 179.05 17.4998ZM193.7 41.2498C191.65 39.6998 188.45 37.4998 184.65 36.1998C183.25 27.6998 184.1 25.7998 189.2 25.2998C194.4 24.7998 193.4 17.6498 181.8 18.1498C180.55 18.1998 179.65 19.2498 179.75 20.4998C179.8 21.6498 180.85 22.4498 182.05 22.3498C183.1 22.2998 184.2 22.3498 185.25 22.4998C182.1 23.6498 179.1 26.4498 180.15 35.4998C165 33.9998 167.4 48.1498 178.05 48.1498C184.1 48.1498 185.3 43.5498 185.2 41.0498C187.6 42.1498 189.65 43.5998 191.1 44.6998C192.05 45.3998 193.4 45.1998 194.1 44.2498C194.8 43.3498 194.65 41.9498 193.7 41.2498ZM174.5 42.7998C172.05 40.2498 176.4 38.0998 180.85 39.5998C181.8 45.5998 176.3 44.6998 174.5 42.7998Z" stroke="white" stroke-width="10" mask="url(#path-1-outside-1_507:998)"/>
<path d="M224.6 45.3998C245.6 44.2998 245.95 22.8998 233.45 21.6998C225.95 20.9998 218.75 27.1498 212.4 26.2498C211.3 26.0498 210.25 26.7498 210.05 27.7998C209.8 28.9998 210.5 30.1498 211.65 30.2998C220.25 31.5998 229.2 23.3498 235.15 26.4498C241 29.5498 237.4 40.9998 224.35 41.3498C223.2 41.3498 222.35 42.2998 222.4 43.3998C222.45 44.5998 223.45 45.4498 224.6 45.3998Z" stroke="white" stroke-width="10" mask="url(#path-1-outside-1_507:998)"/>
<path d="M285.25 17.3498C287.4 16.8498 289.4 16.2498 291.3 15.5498C292.45 15.0998 293 13.7998 292.55 12.6498C292.05 11.5498 290.8 10.9998 289.65 11.3998C281.4 14.3998 271.7 15.4498 260.85 14.5998C259.65 14.4998 258.55 15.3998 258.4 16.5998C258.3 17.8498 259.2 18.9498 260.4 18.9998C266.3 19.4998 272.1 19.3998 277.5 18.7498C268.65 26.7498 269 36.2998 272.45 41.2498C276.1 46.5498 283.15 48.9498 290.05 47.1998C291.3 46.8998 292.05 45.5998 291.8 44.2998C291.55 43.0998 290.35 42.3998 289.15 42.7498C285.15 43.8498 279.8 43.5998 276.35 39.0998C271.55 32.8498 275.55 23.4498 285.25 17.3498Z" stroke="white" stroke-width="10" mask="url(#path-1-outside-1_507:998)"/>
<path d="M332.95 25.1498C331.9 24.4998 330.6 24.8498 329.95 25.9498C329.4 26.9498 329.75 28.2498 330.75 28.8998C335.35 31.7498 337.1 34.8998 336.5 39.0998C335.6 44.8498 326.4 46.1998 325.4 39.3498C325.3 38.6498 325.25 37.9998 325.2 37.2998C326.5 37.3498 327.85 37.3998 329.35 37.3998C330.55 37.3998 331.55 36.3998 331.6 35.1998C331.65 33.9998 330.65 33.0498 329.45 33.0998C328 33.1498 326.6 33.1998 325.25 33.1498C325.7 26.1998 327.7 18.4998 325.15 10.0498C324.8 8.84981 323.5 8.19981 322.3 8.5498C321.15 8.89981 320.55 10.1498 320.85 11.2998C322.9 18.3998 321.35 26.0998 320.8 32.7998C317.45 32.2998 315.6 31.3498 317.05 30.0998C317.9 29.3498 318.15 28.2498 317.6 27.4498C317 26.4498 315.8 26.0998 314.85 26.5998C310.8 28.7998 310.95 33.2498 315.1 35.3998C316.35 36.0498 318.2 36.4998 320.65 36.8498C320.65 39.9498 321.15 42.6998 322.7 44.8998C326.65 50.4498 339.95 49.8998 341 38.5998C341.55 32.2998 336.7 27.5498 332.95 25.1498ZM318.4 23.1998C319.5 23.6498 320.75 23.0498 321.15 21.9498C321.5 20.8498 320.95 19.5998 319.85 19.1498C318.15 18.3998 316.05 17.3498 314.5 16.4498C313.4 15.8498 312.05 16.1998 311.45 17.2498C310.85 18.3998 311.2 19.7998 312.3 20.3998C314.15 21.3998 316.7 22.4998 318.4 23.1998Z" stroke="white" stroke-width="10" mask="url(#path-1-outside-1_507:998)"/>
<path d="M367.9 9.0498C368.15 7.8998 367.35 6.79981 366.2 6.54981C365.05 6.29981 363.95 7.04981 363.7 8.19981C362.2 15.4498 359.25 21.1998 354.9 25.6998C354 26.5998 353.95 28.0498 354.75 28.9498C355.6 29.8998 357 29.9498 357.9 29.0498C358.3 28.6498 358.7 28.1998 359.05 27.7498V47.9998C359.05 49.1998 360.05 50.1498 361.2 50.1498C362.4 50.1498 363.4 49.1498 363.4 47.9998V21.5498C365.5 17.7498 367 13.5998 367.9 9.0498ZM396.55 43.6998C392.45 41.3498 388 37.1998 385.45 33.4498H395.25C396.4 33.4498 397.35 32.4998 397.35 31.2998C397.35 30.0998 396.4 29.1498 395.25 29.1498H383.25V25.5998H389.9C391.75 25.5998 393.2 24.0998 393.2 22.2998V11.4998C393.2 9.6998 391.7 8.19981 389.9 8.19981H372.55C370.75 8.19981 369.25 9.6998 369.25 11.4998V22.2998C369.25 24.0998 370.75 25.5998 372.55 25.5998H378.9V29.1498H367.25C366.1 29.1498 365.1 30.0998 365.1 31.2998C365.1 32.4998 366.1 33.4498 367.25 33.4498H377.35C374.4 37.4498 369.6 41.0998 365.1 43.8498C364.1 44.4498 363.75 45.7498 364.25 46.7998C364.8 47.8498 366.1 48.2498 367.15 47.6498C371.45 45.1498 375.8 41.4998 378.9 37.9498V47.9998C378.9 49.1498 379.85 50.1498 381.05 50.1498C382.25 50.1498 383.25 49.1498 383.25 47.9998V37.4998C386.4 41.4998 390.9 45.3498 394.75 47.6998C395.8 48.3498 397.15 47.8998 397.65 46.7498C398.1 45.6498 397.65 44.2998 396.55 43.6998ZM388.85 12.5498V21.2998H373.6V12.5498H388.85Z" stroke="white" stroke-width="10" mask="url(#path-1-outside-1_507:998)"/>
<path d="M418.3 11.7998C419.5 11.7998 420.45 10.7998 420.45 9.64981C420.45 8.4998 419.5 7.49981 418.3 7.49981H408.05C406.85 7.49981 405.9 8.4998 405.9 9.64981C405.9 10.8498 406.9 11.7998 408.05 11.7998H418.3ZM436.9 45.4498V28.7498H443.75C444.95 28.7498 445.9 27.7498 445.9 26.5998C445.9 25.4498 444.95 24.4498 443.75 24.4498H436.9V12.4498H444.5C445.7 12.4498 446.65 11.4998 446.65 10.3498C446.65 9.14981 445.7 8.19981 444.5 8.19981H423.65C422.5 8.19981 421.5 9.14981 421.5 10.3498C421.5 11.4998 422.45 12.4498 423.65 12.4498H432.55V45.4498H428.8V25.7498C428.8 24.5998 427.85 23.5998 426.65 23.5998C425.5 23.5998 424.55 24.5998 424.55 25.7498V45.4498H422.9C421.75 45.4498 420.75 46.3998 420.75 47.5998C420.75 48.7998 421.75 49.7498 422.9 49.7498H445.3C446.45 49.7498 447.4 48.7498 447.4 47.5998C447.4 46.3998 446.45 45.4498 445.3 45.4498H436.9ZM419.65 18.4998C420.8 18.4998 421.8 17.5498 421.8 16.3498C421.8 15.1998 420.8 14.2498 419.65 14.2498H406.7C405.5 14.2498 404.55 15.1998 404.55 16.3498C404.55 17.5498 405.55 18.4998 406.7 18.4998H419.65ZM408.25 20.9498C407.1 20.9498 406.1 21.8998 406.1 23.0998C406.1 24.2998 407.1 25.2498 408.25 25.2498H418.1C419.3 25.2498 420.25 24.2498 420.25 23.0998C420.25 21.9498 419.3 20.9498 418.1 20.9498H408.25ZM418.1 31.9498C419.25 31.9498 420.25 30.9998 420.25 29.7998C420.25 28.6498 419.3 27.6998 418.1 27.6998H408.25C407.05 27.6998 406.1 28.6498 406.1 29.7998C406.1 30.9998 407.1 31.9498 408.25 31.9498H418.1ZM409.45 34.3998C407.6 34.3998 406.15 35.8998 406.15 37.6998V46.5498C406.15 48.3498 407.65 49.8498 409.45 49.8498H417.4C419.25 49.8498 420.7 48.2998 420.7 46.5498V37.6998C420.7 35.8498 419.2 34.3998 417.4 34.3998H409.45ZM410.45 45.7998V38.3998H416.45V45.7998H410.45Z" stroke="white" stroke-width="10" mask="url(#path-1-outside-1_507:998)"/>
<path d="M471.15 17.5498C471.7 14.8998 472.15 12.3498 472.4 9.89981C472.5 8.69981 471.6 7.64981 470.45 7.54981C469.3 7.49981 468.25 8.3498 468.15 9.4998C467.85 12.3498 467.4 15.3498 466.8 18.3498C464.15 18.8498 462.25 18.9498 459.65 18.6998C458.45 18.6498 457.4 19.4498 457.25 20.5998C457.15 21.8498 458 22.8998 459.15 22.9498C461.65 23.1498 463.65 23.0498 465.75 22.7498C463.7 30.4998 460.55 38.2498 456.3 44.6998C455.65 45.6498 455.9 46.9998 456.8 47.6998C457.8 48.3998 459.15 48.1498 459.8 47.1498C464.25 40.3498 467.9 30.9498 470.2 21.8498C477.8 20.2998 477.8 23.5998 477.6 25.4498C475.85 41.8998 474.4 44.0998 468.1 40.7498C467 40.1498 465.7 40.5498 465.15 41.5998C464.55 42.6998 464.95 44.0498 466 44.5998C472.9 48.0998 477.55 46.2998 479.55 39.3498C480.25 36.8998 481.45 31.0998 481.85 25.8498C482.15 22.6498 481.55 16.1998 471.15 17.5498ZM498 14.3998C496.8 11.5998 495.65 9.89981 493.75 8.14981C493.1 7.59981 492.15 7.6498 491.6 8.24981C491 8.7998 491.05 9.7498 491.65 10.2998C493.25 11.8498 494.35 13.5498 495.15 15.5998C495.5 16.4498 496.4 16.7998 497.15 16.4498C497.95 16.1498 498.35 15.1998 498 14.3998ZM491 17.4998C491.3 18.2998 492.25 18.6998 493.05 18.3498C493.85 17.9998 494.25 17.0498 493.9 16.1998C492.85 13.6998 491.5 11.7498 489.7 10.0998C489.05 9.4998 488.05 9.59981 487.45 10.2498C486.9 10.8998 487 11.8498 487.6 12.4498C489.2 13.8498 490.2 15.3498 491 17.4998ZM487.25 17.6998C486.35 16.6498 484.8 16.5498 483.7 17.4498C482.75 18.2498 482.65 19.6998 483.55 20.6998C487.15 24.5498 490.95 30.6998 492.75 37.2498C493.1 38.4998 494.4 39.2498 495.65 38.8498C496.95 38.3498 497.7 36.9498 497.25 35.7498C495.45 30.1498 490.85 21.9998 487.25 17.6998Z" stroke="white" stroke-width="10" mask="url(#path-1-outside-1_507:998)"/>
<path d="M533.3 22.8998C529.75 22.6498 526.3 23.0998 523.1 24.0498C522.95 22.7498 522.8 21.3998 522.75 19.9998C526.55 19.2498 530.3 18.2498 533.75 16.8998C534.9 16.4498 535.5 15.1998 535.15 13.9998C534.8 12.8498 533.55 12.2498 532.45 12.6998C529.15 13.9498 526.05 14.8998 522.85 15.5998C523 14.0498 523.2 12.4498 523.55 10.8498C523.75 9.64981 523.05 8.49981 521.95 8.19981C520.75 7.8998 519.6 8.59981 519.35 9.79981C518.9 11.8498 518.65 14.0998 518.55 16.3498C515.45 16.7998 512.25 16.9998 508.75 16.9998C507.6 16.9998 506.6 17.9498 506.6 19.0998C506.55 20.2998 507.5 21.2998 508.7 21.2998C511.8 21.2998 515.15 21.0998 518.55 20.6498C518.6 22.2998 518.8 23.9498 519 25.5998C509.75 29.9498 504.25 38.3998 508.6 43.8498C510.55 46.2498 516.35 48.7998 523.95 40.5998L536.35 27.8498C541.35 30.2498 542.1 36.1498 539.05 39.7998C536.75 42.4498 532.35 44.1498 527.2 44.4998C526 44.5998 525.05 45.5998 525.05 46.7498C525.05 47.9498 526.05 48.8998 527.25 48.7998C552.05 46.8998 548.4 24.1998 533.3 22.8998ZM525.35 33.0998C524.8 31.5498 524.25 29.8998 523.85 28.1498C526.75 27.1498 529.25 26.7498 531.4 26.7998L525.35 33.0998ZM513.7 41.8998C509.65 41.6498 509.65 35.0998 519.8 29.8498C520.35 32.1998 521.1 34.4498 522 36.5498L520.95 37.6498C518 40.7498 515.9 41.9998 513.7 41.8998Z" stroke="white" stroke-width="10" mask="url(#path-1-outside-1_507:998)"/>
<path d="M575.3 48.2998C586.85 48.2998 594.7 40.4498 591.95 31.6998C589.9 25.0498 580.95 21.9998 569.8 27.7498C573.2 22.9498 576.55 19.0498 581.1 14.9998C582.05 14.1498 582.35 12.7998 581.85 11.6498C581.35 10.5498 580.05 9.99981 578.9 10.3998C574.85 11.7498 570.65 11.8998 565.6 11.5998C564.4 11.5498 563.35 12.4498 563.25 13.6498C563.2 14.8998 564.1 15.9498 565.3 15.9998C568.55 16.1498 572.35 15.9998 574.85 15.5498C569.95 20.5998 565.15 27.0498 560.75 33.6498C560.2 34.4998 560.45 35.6498 561.3 36.1998C562.15 36.7498 563.3 36.6498 564.1 35.9998C570.4 30.3498 575.8 28.0998 581.55 28.7498C587.85 29.4998 589.55 35.1498 586.9 38.9998C585.55 40.8998 583.4 42.4498 580.75 43.3498C574.5 35.7998 569.9 34.2498 567.2 39.0498C565.45 42.0998 566.3 48.2998 575.3 48.2998ZM576.6 44.1998C573.5 44.3498 571.1 43.5498 570.5 42.0998C570 40.5498 571.6 38.2998 576.6 44.1998Z" stroke="white" stroke-width="10" mask="url(#path-1-outside-1_507:998)"/>
<path d="M626 39.3998C627.1 39.3998 627.95 38.4998 627.95 37.4498L628.6 10.7498C628.65 9.29981 627.45 8.0998 626 8.0998C624.55 8.0998 623.35 9.29981 623.4 10.7498L624.05 37.4498C624.05 38.4998 624.9 39.3998 626 39.3998ZM626 48.6998C627.9 48.6998 629.45 47.1498 629.45 45.2998C629.45 43.3998 627.9 41.8498 626 41.8498C624.15 41.8498 622.55 43.3998 622.55 45.2998C622.55 47.1998 624.15 48.6998 626 48.6998Z" stroke="white" stroke-width="10" mask="url(#path-1-outside-1_507:998)"/>
</svg>
