<svg width="714" height="56" viewBox="0 0 714 56" fill="none" xmlns="http://www.w3.org/2000/svg">
<mask id="path-1-outside-1_507:996" maskUnits="userSpaceOnUse" x="-0.137695" y="-0.130371" width="715" height="56" fill="black">
<rect fill="white" x="-0.137695" y="-0.130371" width="715" height="56"/>
<path d="M24.3998 21.6C27.0498 17.9999 29.0998 14.3 30.2498 10.95C30.6498 9.84995 29.9998 8.54995 28.8498 8.19995C27.7498 7.79995 26.4998 8.44995 26.0998 9.54995C25.5498 11.0999 24.8498 12.65 24.0498 14.2C23.8998 13.1499 22.9998 12.4 21.9498 12.4H18.7498V8.54995C18.7498 7.34995 17.7498 6.39995 16.5498 6.39995C15.3998 6.39995 14.3998 7.34995 14.3998 8.54995V12.4H10.9998C9.84975 12.4 8.89975 13.3 8.89975 14.5C8.89975 15.65 9.84975 16.6 10.9998 16.6H14.3998V21.6H8.69975C7.49975 21.6 6.54975 22.6 6.54975 23.7C6.54975 24.85 7.49975 25.8 8.69975 25.8H15.3498C12.8998 28.2 10.1498 30.3 7.14975 32C6.09975 32.6 5.59975 33.9 5.99975 35.05C6.39975 36.15 7.69975 36.65 8.74975 36.1C9.54975 35.65 10.3998 35.15 11.1998 34.6V46.5C11.1998 48.35 12.6998 49.8 14.4998 49.8H25.0498C26.8998 49.8 28.3498 48.3 28.3498 46.5V32.3C28.3498 30.5 26.8498 29 25.0498 29H17.9998C19.0498 27.95 20.0498 26.9 21.0498 25.8H28.2998C29.4498 25.8 30.3998 24.9 30.3998 23.7C30.3998 22.55 29.4498 21.6 28.2998 21.6H24.3998ZM43.2498 22.6999C45.2998 19.9999 47.4498 15.45 48.5498 11.3499C48.9998 9.69995 47.6998 8.04995 45.8998 8.04995H34.7998C32.9498 8.04995 31.4998 9.54995 31.4998 11.3499V48C31.4998 49.15 32.4498 50.15 33.5998 50.15C34.7998 50.15 35.7498 49.2 35.7498 48V12.25H43.8498C42.7998 15.45 41.3998 18.15 39.4498 20.7C38.3498 22.15 38.5498 24.2499 39.8998 25.4C43.1998 28.2499 45.7998 30.8 45.7998 34.85C45.7998 38.4 43.9998 39.9 39.5998 39.85C38.4498 39.8 37.4498 40.7 37.4498 41.85C37.4498 43.05 38.3998 44.1 39.5998 44.1C46.0998 44.15 50.0498 40.7 50.0498 34.8C50.0498 29.55 46.6498 25.5 43.2498 22.6999ZM21.9498 16.6C22.2498 16.6 22.4998 16.55 22.7498 16.4C21.6998 18.2 20.4998 19.8999 19.1498 21.6H18.7498V16.6H21.9498ZM15.3998 36.8V33.15H24.0998V36.8H15.3998ZM15.3998 40.95H24.0998V45.65H15.3998V40.95Z"/>
<path d="M80.1998 14.2999V8.49995C80.1998 7.29995 79.2498 6.29995 77.9997 6.29995C76.7997 6.29995 75.7998 7.29995 75.7998 8.49995V14.2999H61.9998C60.1998 14.2999 58.6998 15.8 58.6998 17.6V48C58.6998 49.2 59.6998 50.2 60.8998 50.2C62.0998 50.2 63.0998 49.2 63.0998 48V18.65H75.6497C74.5997 25.2499 69.0498 31.7 64.2998 34.6C63.2498 35.2 62.7998 36.5 63.3498 37.55C63.8498 38.65 65.1998 39.05 66.1998 38.45C70.7498 35.8 75.5997 30.6 78.1997 24.85C80.7497 29.9 84.9998 35.45 89.6998 38.35C90.7498 39 92.1498 38.55 92.6998 37.4C92.7998 37.15 92.8997 36.85 92.8997 36.6V44.15C92.8997 45.6 92.3498 45.9 89.2998 45.75C88.0998 45.65 87.0498 46.6 86.9997 47.8C86.9497 49.05 87.8997 50.15 89.1497 50.2C94.5497 50.4 97.2998 48.4 97.2998 44.15V17.6C97.2998 15.8 95.7997 14.2999 93.9997 14.2999H80.1998ZM91.6998 34.3C86.5998 30.95 81.6998 23.6 80.3498 18.65H92.8997V36.3C92.8498 35.55 92.3998 34.8 91.6998 34.3Z"/>
<path d="M130 46.05C143.8 44.2 148.2 33.35 145.9 25.25C142.15 12.15 122.85 10.1999 114.05 22.1C108.2 30.1 108.65 41.4 115 42.9C121.75 44.5 128.05 32.25 130.95 18.6C136.95 18.6999 141.75 23.1 142 28.75C142.3 35.65 137.75 40.25 129.35 41.55C128.15 41.75 127.3 42.85 127.5 44.05C127.65 45.3 128.8 46.2 130 46.05ZM114.75 37.6C112.5 33.85 115.35 21.0499 126.3 18.9C124.2 29.05 117.65 42.5 114.75 37.6Z"/>
<path d="M176.6 32.55C176.65 30.7 175.2 29.25 173.35 29.25H170.6V26H174.1C175.15 26 176.05 25.1 176.05 24C176.05 22.95 175.15 22.05 174.1 22.05H170.6V18.8H174.1C175.15 18.8 176.05 17.9 176.05 16.85C176.05 15.75 175.15 14.85 174.1 14.85H170.6V11.6H174.9C175.95 11.6 176.9 10.7 176.9 9.59995C176.9 8.49995 176 7.59995 174.9 7.59995H161.95C160.15 7.59995 158.65 9.04995 158.65 10.9V29.95C158.65 31.8 160.15 33.25 161.95 33.25H168.9C168.4 33.5 168.15 34.0999 168.3 34.65C168.85 36.6 169.2 38.6 169.3 40.8C169.35 41.45 170 42 170.65 41.85C171 41.75 171.35 41.55 171.55 41.25C171.5 41.6 171.45 41.9 171.35 42.25C170.7 45.3 169.85 46 167.1 45.85C165.9 45.8 164.9 46.7 164.9 47.85C164.85 49.05 165.8 50.1 167 50.1C171.85 50.2 174.3 48.2 175.5 43.1C176.15 39.5 176.45 35.8 176.6 32.55ZM199.2 45.85C193.65 41.85 189.45 33.65 188.45 27.05H194.1C195.9 27.05 197.4 25.55 197.4 23.75V11.25C197.4 9.44995 195.9 7.94995 194.1 7.94995H180.95C179.1 7.94995 177.65 9.49995 177.65 11.25V25.9C177.65 30.35 177.45 40.25 174.95 47.5C174.55 48.65 175.2 49.85 176.4 50.1C177.65 50.4 178.9 49.65 179.25 48.45C181.65 40.1 181.9 30.1 181.9 27.05H184.2C185.4 36.2 191.55 46.15 197.4 49.7C198.35 50.3 199.6 49.85 200.1 48.75C200.5 47.75 200.15 46.55 199.2 45.85ZM166.5 14.85H162.9V11.6H166.5V14.85ZM193.05 12.25V22.75H181.95V12.25H193.05ZM162.9 22.05V18.8H166.5V22.05H162.9ZM166.5 26V29.25H162.9V26H166.5ZM171.8 39.75C171.7 37.9 171.35 35.95 170.8 34.05C170.7 33.7 170.45 33.4 170.15 33.25H172.35C172.25 35.35 172.15 37.6 171.8 39.75ZM167.6 43.45C168.45 43.3 169.05 42.6 168.95 41.8C168.75 39.45 168.3 37 167.6 34.55C167.4 33.8 166.6 33.4 165.8 33.6C165.05 33.8 164.65 34.5999 164.9 35.4C165.6 37.7 166 39.85 166.15 42.25C166.2 43 166.9 43.6 167.6 43.45ZM165.75 42.9C165.6 40.3 165.2 37.7 164.45 35.1C164.25 34.3 163.35 33.8 162.55 34.05C161.75 34.2 161.3 35 161.55 35.85C161.55 35.9 161.55 35.95 161.6 35.95C161.3 35.55 160.85 35.3 160.3 35.2C159.25 35 158.3 35.7 158.2 36.75C157.9 39.15 157.35 42.25 156.65 44.75C156.4 45.75 157 46.8 158 47C159.1 47.2 160.2 46.55 160.5 45.5C161.25 42.8 161.75 39.8 162 37.5C162.45 39.45 162.7 41.35 162.8 43.5C162.85 44.3 163.55 44.9 164.35 44.75C165.2 44.55 165.85 43.75 165.75 42.9Z"/>
<path d="M241.15 42.75C237.15 43.85 231.8 43.6 228.35 39.1C223.55 32.85 227.55 23.45 237.25 17.3499C239.4 16.8499 241.4 16.25 243.3 15.55C244.45 15.1 245 13.8 244.55 12.65C244.05 11.5499 242.8 11 241.65 11.4C233.4 14.4 223.7 15.45 212.85 14.6C211.65 14.5 210.55 15.4 210.4 16.6C210.3 17.85 211.2 18.9499 212.4 19C218.3 19.5 224.1 19.3999 229.5 18.75C220.65 26.75 221 36.3 224.45 41.25C228.1 46.55 235.15 48.95 242.05 47.2C243.3 46.9 244.05 45.6 243.8 44.3C243.55 43.1 242.35 42.4 241.15 42.75ZM249.75 24.65C248.6 21.8999 247.45 20.2 245.5 18.45C244.9 17.9 243.95 17.95 243.35 18.5C242.8 19.1 242.8 20 243.4 20.6C245 22.1 246.15 23.8 246.95 25.9C247.25 26.7 248.15 27.1 248.95 26.75C249.7 26.4 250.1 25.5 249.75 24.65ZM241.5 20.4C240.85 19.8 239.8 19.8999 239.25 20.5499C238.65 21.15 238.75 22.15 239.4 22.6999C241 24.15 242 25.65 242.8 27.75C243.1 28.6 244 28.9999 244.8 28.65C245.6 28.3 246.05 27.35 245.7 26.5C244.6 23.95 243.3 22.05 241.5 20.4Z"/>
<path d="M258.85 20.9C262.65 18.2 266.75 13.1999 268.75 8.74995C269.25 7.64995 268.65 6.39995 267.45 5.99995C266.35 5.59995 265.1 6.14995 264.55 7.24995C262.85 10.85 259.95 14.4999 256.8 16.95C255.85 17.7 255.5 19 256.05 20.1C256.55 21.2 257.9 21.55 258.85 20.9ZM291.05 45.55C289.35 45.55 287.8 45.3 286.4 44.8V35.85H294.9C296.05 35.85 296.95 34.9 296.95 33.8C296.95 32.65 296 31.6999 294.9 31.6999H286.4V26H297.35C298.5 26 299.45 25 299.45 23.85C299.45 22.75 298.5 21.75 297.35 21.75H286.35V16.8H295.05C296.2 16.8 297.15 15.85 297.15 14.7C297.15 13.55 296.2 12.6 295.05 12.6H286.35V8.49995C286.35 7.29995 285.35 6.34995 284.2 6.34995C283.05 6.34995 282.05 7.29995 282.05 8.49995V12.6H273.75C272.6 12.6 271.6 13.55 271.6 14.7C271.6 15.85 272.55 16.8 273.75 16.8H282.05V21.75H271.45C270.25 21.75 269.35 22.75 269.35 23.85C269.35 25.05 270.3 26 271.45 26H282.05V42.2C279.85 40.25 277.95 37.5 275.95 34C276.15 32.9 276.35 31.85 276.5 30.8C276.7 29.6 275.9 28.5 274.7 28.25C273.6 28.05 272.5 28.8 272.3 29.95C271.5 35.7 269.5 42.7 266.95 47.25C266.35 48.3 266.85 49.65 267.95 50C269.2 50.35 270.55 49.8 271.1 48.65C272.45 45.95 273.6 42.85 274.55 39.75C279 46.55 284.35 49.75 291.05 49.75H297.2C298.4 49.75 299.3 48.8 299.3 47.65C299.3 46.45 298.35 45.55 297.2 45.55H291.05ZM269.3 20.45C269.8 19.35 269.35 18.1 268.25 17.5499C267.25 17 266 17.45 265.5 18.5C263.55 22.3 260.5 26.7 256.85 29.55C255.9 30.35 255.55 31.7 256.05 32.75C256.55 33.85 257.9 34.25 258.85 33.5C259.7 32.85 260.55 32.15 261.35 31.4V48.05C261.35 49.2 262.3 50.15 263.5 50.15C264.7 50.15 265.65 49.2 265.65 48.05V26.6C267.1 24.65 268.35 22.55 269.3 20.45Z"/>
<path d="M325.8 25.3V34.55C325.8 35.45 325.75 35.5 323.2 35.35C321.95 35.25 320.9 36.2 320.85 37.45C320.8 38.7 321.8 39.75 323 39.8C328.25 39.9 330.2 38.5 330.2 34.5V25.3H347.25C348.45 25.3 349.4 24.3 349.4 23.15C349.4 21.9499 348.4 21 347.25 21H330.25V16.7H341.9C343.1 16.7 344.05 15.6999 344.05 14.5499C344.05 13.35 343.1 12.4 341.9 12.4H330.25V8.54995C330.25 7.29995 329.2 6.29995 328 6.29995C326.8 6.29995 325.75 7.29995 325.75 8.54995V21H319.5V12.4C319.5 11.2 318.5 10.25 317.35 10.25C316.15 10.25 315.2 11.25 315.2 12.4V21H308.75C307.6 21 306.6 21.9499 306.6 23.15C306.6 24.35 307.6 25.3 308.75 25.3H325.8ZM321.05 28.9499C321.6 27.9999 321.25 26.7 320.25 26.05C319.35 25.5 318.15 25.75 317.5 26.6C314.85 30.25 310.75 33.45 307.65 34.95C306.55 35.5 306 36.75 306.4 37.85C306.85 39.05 308.2 39.65 309.3 39.1C313 37.3 318.6 33.05 321.05 28.9499ZM348.35 35.5C344.8 33.55 341.6 30.4999 339.35 26.9C338.7 25.8999 337.35 25.5 336.3 26.05C335.2 26.6 334.8 27.95 335.45 28.9499C336.35 30.4 337.45 31.85 338.7 33.1999C334.8 37.1499 326.5 43.45 310.4 45.65C309.2 45.8 308.35 46.9 308.45 48.1C308.55 49.3 309.65 50.2 310.85 50.05C324.35 48.35 335.75 42.6 341.85 36.25C343.5 37.7 345.25 38.95 347 39.85C348.05 40.45 349.4 39.8 349.75 38.6C350.05 37.45 349.5 36.15 348.35 35.5Z"/>
<path d="M372.75 43.7C371.35 43.85 369.85 43.95 368.3 44V12.8C368.3 11.15 366.6 10.15 365.15 10.85L357.8 14.4C356.7 14.9 356.2 16.25 356.75 17.4C357.3 18.4999 358.65 18.9499 359.8 18.4L363.8 16.5V44C362.25 43.95 360.7 43.85 359.15 43.7C357.8 43.6 356.7 44.6 356.7 45.95C356.7 47.3 357.8 48.3 359.15 48.2C363.05 47.75 368.3 47.75 372.75 48.2C374.1 48.3 375.15 47.3 375.15 45.95C375.15 44.6 374.1 43.6 372.75 43.7Z"/>
<path d="M395.057 10.15C385.957 10.15 380.407 17.2 380.407 28.85C380.407 41 385.807 48.2 395.057 48.2C404.307 48.2 409.757 41 409.757 28.85C409.757 17.2 404.207 10.15 395.057 10.15ZM395.057 44C388.807 44 384.957 38.25 384.957 28.9499C384.957 20.0499 388.907 14.4 395.057 14.4C401.207 14.4 405.207 20.0499 405.207 28.9499C405.207 38.2 401.307 44 395.057 44Z"/>
<path d="M458.272 22.1C452.072 17.2 448.622 12.1 445.972 7.74995C445.322 6.64995 443.972 6.09995 442.722 6.49995C441.572 6.89995 441.022 8.24995 441.622 9.29995C444.972 15.1 450.672 22.3 455.722 26.1C456.772 26.85 458.222 26.55 458.922 25.4499C459.572 24.35 459.322 22.9 458.272 22.1ZM418.872 26C424.222 22.05 429.622 15.8 432.922 9.69995C433.522 8.64995 433.022 7.34995 431.872 6.89995C430.772 6.44995 429.472 6.89995 428.872 7.94995C426.022 12.9 421.622 18.2 416.822 21.85C415.772 22.65 415.422 24.05 415.922 25.2C416.472 26.35 417.872 26.7 418.872 26ZM424.922 24.3C423.722 24.3 422.772 25.3 422.772 26.5C422.772 27.65 423.722 28.65 424.922 28.65H433.272C431.572 36.55 426.372 42.4 418.522 45.25C417.272 45.7 416.572 46.95 416.872 48.2C417.172 49.5 418.472 50.25 419.672 49.85C428.922 46.85 436.222 38.3 437.822 28.65H447.472C447.272 35.05 446.672 40.35 446.222 42.65C445.622 45.7 443.472 45.75 440.172 45.25C438.922 45.05 437.772 45.9 437.622 47.1C437.422 48.35 438.272 49.5 439.522 49.7C445.872 50.5 449.522 48.5 450.522 43.6C451.172 40.5 451.722 34.2 451.872 27.65C451.922 25.8 450.472 24.3 448.622 24.3H424.922Z"/>
<path d="M470.572 7.34995C468.722 7.34995 467.272 8.84995 467.272 10.65V45.75C467.272 47.6 468.772 49.05 470.572 49.05H504.372C506.222 49.05 507.672 47.55 507.672 45.75V10.65C507.672 8.84995 506.172 7.34995 504.372 7.34995H470.572ZM486.772 11.6C486.272 11.85 485.822 12.3 485.672 12.9C485.272 14.6 484.622 16.4 483.822 18.2H483.172C483.472 17.65 483.472 17 483.172 16.45C482.572 15.35 481.772 14.15 481.072 13.1999C480.372 12.2 478.922 12.0499 477.922 12.85C477.022 13.55 477.022 14.9 477.822 15.75C478.572 16.5 479.222 17.35 479.772 18.15C479.772 18.15 479.772 18.2 479.822 18.2H476.722C475.672 18.2 474.772 19.1 474.772 20.15C474.772 21.2 475.622 22.1 476.722 22.1H481.772C481.222 22.95 480.672 23.75 480.122 24.55H475.322C474.272 24.55 473.372 25.45 473.372 26.5C473.372 27.55 474.272 28.45 475.322 28.45H476.772C475.472 29.75 474.072 30.8999 472.572 31.9C472.022 32.2499 471.672 32.8 471.522 33.35V11.6H486.772ZM471.522 44.8V34.45L471.672 34.85C472.172 35.9 473.422 36.35 474.422 35.75C476.672 34.3 479.522 31.75 482.172 28.45H492.222C494.872 31.35 497.922 33.95 500.672 35.45C501.622 35.95 502.822 35.55 503.222 34.5C503.622 33.5 503.222 32.35 502.322 31.8C500.772 30.85 499.272 29.75 497.822 28.45H499.622C500.672 28.45 501.572 27.55 501.572 26.5C501.572 25.45 500.672 24.55 499.622 24.55H494.172C493.522 23.8 492.922 22.95 492.322 22.1H498.222C499.272 22.1 500.172 21.2 500.172 20.15C500.172 19.1 499.322 18.2 498.222 18.2H495.472C496.222 17.3 496.972 16.3499 497.622 15.3C498.172 14.4 497.872 13.1999 496.922 12.6999C495.972 12.2499 494.822 12.55 494.222 13.45C492.972 15.3 491.372 16.95 489.772 18.2H488.172C488.722 16.85 489.172 15.4499 489.522 14C489.772 13.05 489.222 12.05 488.272 11.6H503.422V44.8H471.522ZM487.472 22.1C487.972 22.9 488.472 23.75 489.072 24.55H484.922C485.422 23.75 485.922 22.95 486.372 22.1H487.472ZM497.822 37.7C496.972 37.1 495.722 37.25 494.972 38.1C493.922 39.3 493.072 39.65 490.822 39.65H484.522C482.422 39.65 482.372 39.6 482.372 38.5V37.75H491.172C492.872 37.75 494.222 36.35 494.222 34.7V32.4C494.222 30.7 492.822 29.35 491.172 29.35H482.372C481.322 29.35 480.522 30.2 480.522 31.2C480.522 32.25 481.372 33.05 482.372 33.05H490.122V34.05H481.322C479.672 34.05 478.272 35.45 478.272 37.1V38.5C478.272 42 480.222 43.65 484.322 43.65H490.822C494.272 43.65 496.272 42.8 498.172 40.5C498.922 39.65 498.722 38.4 497.822 37.7Z"/>
<path d="M539.672 14.2999V8.49995C539.672 7.29995 538.722 6.29995 537.472 6.29995C536.272 6.29995 535.272 7.29995 535.272 8.49995V14.2999H521.472C519.672 14.2999 518.172 15.8 518.172 17.6V48C518.172 49.2 519.172 50.2 520.372 50.2C521.572 50.2 522.572 49.2 522.572 48V18.65H535.122C534.072 25.2499 528.522 31.7 523.772 34.6C522.722 35.2 522.272 36.5 522.822 37.55C523.322 38.65 524.672 39.05 525.672 38.45C530.222 35.8 535.072 30.6 537.672 24.85C540.222 29.9 544.472 35.45 549.172 38.35C550.222 39 551.622 38.55 552.172 37.4C552.272 37.15 552.372 36.85 552.372 36.6V44.15C552.372 45.6 551.822 45.9 548.772 45.75C547.572 45.65 546.522 46.6 546.472 47.8C546.422 49.05 547.372 50.15 548.622 50.2C554.022 50.4 556.772 48.4 556.772 44.15V17.6C556.772 15.8 555.272 14.2999 553.472 14.2999H539.672ZM551.172 34.3C546.072 30.95 541.172 23.6 539.822 18.65H552.372V36.3C552.322 35.55 551.872 34.8 551.172 34.3Z"/>
<path d="M589.472 46.05C603.272 44.2 607.672 33.35 605.372 25.25C601.622 12.15 582.322 10.1999 573.522 22.1C567.672 30.1 568.122 41.4 574.472 42.9C581.222 44.5 587.522 32.25 590.422 18.6C596.422 18.6999 601.222 23.1 601.472 28.75C601.772 35.65 597.222 40.25 588.822 41.55C587.622 41.75 586.772 42.85 586.972 44.05C587.122 45.3 588.272 46.2 589.472 46.05ZM574.222 37.6C571.972 33.85 574.822 21.0499 585.772 18.9C583.672 29.05 577.122 42.5 574.222 37.6Z"/>
<path d="M640.972 14.4C641.722 12.6 642.322 10.7 642.722 8.74995C642.972 7.59995 642.172 6.49995 640.972 6.34995C639.772 6.14995 638.672 6.94995 638.372 8.09995C637.122 13.3999 634.672 18 631.422 21.4C630.572 22.25 630.472 23.6 631.222 24.55C631.972 25.5 633.372 25.65 634.222 24.8C635.822 23.2 637.472 21.1 638.922 18.6H641.972C640.272 24.15 636.872 29 632.422 32.45C631.422 33.2 631.072 34.55 631.622 35.65C632.172 36.8 633.572 37.15 634.522 36.4C638.072 33.6499 644.222 27.35 646.422 18.6H648.572C646.222 29.55 640.872 37.95 632.672 43.3C631.672 43.95 631.272 45.3 631.872 46.4C632.422 47.5 633.822 47.85 634.822 47.2C644.022 41.2 650.622 30.85 653.072 18.6H653.522C653.472 24.25 653.322 33.1 652.972 38.1C652.472 44.75 651.122 46.25 646.322 45.65C645.072 45.5 643.922 46.35 643.772 47.55C643.572 48.8 644.422 49.95 645.672 50.05C653.372 50.75 656.822 47.3 657.322 38.4C657.622 32.95 657.822 23.3 657.872 17.7C657.872 15.9 656.422 14.4 654.572 14.4H640.972ZM632.322 30.65C632.122 29.55 630.922 28.9 629.822 29.3C629.272 29.5 628.622 29.75 628.022 29.95V19.7H630.422C631.622 19.7 632.572 18.6999 632.572 17.5499C632.572 16.3999 631.622 15.4 630.422 15.4H628.022V8.69995C628.022 7.49995 627.072 6.59995 625.922 6.59995C624.772 6.59995 623.822 7.54995 623.822 8.69995V15.4H622.922C623.122 14.2499 623.322 13.05 623.372 11.85C623.472 10.65 622.522 9.69995 621.322 9.69995C620.172 9.69995 619.222 10.6 619.122 11.75C618.772 15.25 617.872 18.7 616.022 21.25C615.322 22.25 615.272 23.55 616.022 24.4C616.772 25.3499 618.172 25.4 618.872 24.5C619.972 23.1 620.872 21.5 621.622 19.7H623.822V31.2C621.772 31.7 619.722 32.2 617.972 32.5C616.772 32.75 615.922 33.8 615.922 35C615.922 36.15 616.972 37 618.072 36.8C619.772 36.5 621.772 36.1 623.822 35.55V48.05C623.822 49.25 624.772 50.15 625.922 50.15C627.072 50.15 628.022 49.25 628.022 48.05V34.4C628.972 34.15 629.922 33.8 630.822 33.5C631.922 33.05 632.572 31.85 632.322 30.65Z"/>
<path d="M679.472 8.79995C679.672 7.59995 678.872 6.44995 677.672 6.19995C676.472 5.94995 675.322 6.74995 675.072 7.89995C673.572 14.55 670.672 20.25 666.422 25.05C665.522 26 665.472 27.45 666.272 28.45C667.022 29.45 668.472 29.5 669.322 28.6C669.822 28 670.372 27.4 670.872 26.75V48C670.872 49.15 671.872 50.15 673.072 50.15C674.272 50.15 675.222 49.15 675.222 48V20.15C677.222 16.5 678.772 12.55 679.472 8.79995ZM695.572 30.65V20.2H704.072C705.272 20.2 706.272 19.1999 706.272 18C706.272 16.85 705.272 15.85 704.072 15.85H695.572V8.74995C695.572 7.54995 694.572 6.59995 693.422 6.59995C692.172 6.59995 691.222 7.54995 691.222 8.74995V15.85H685.772C686.522 13.95 687.122 12 687.522 10.25C687.822 8.99995 686.972 7.79995 685.772 7.44995C684.572 7.14995 683.422 7.89995 683.122 9.09995C681.972 14.5 679.422 19.6499 676.222 23.1C675.272 24.15 675.172 25.65 675.922 26.7C676.722 27.8 678.272 27.8999 679.122 26.9499C680.822 25.15 682.372 22.75 683.722 20.2H691.222V30.65H678.872C677.672 30.65 676.722 31.6 676.722 32.8C676.722 33.95 677.672 34.95 678.872 34.95H691.222V48C691.222 49.15 692.172 50.15 693.422 50.15C694.622 50.15 695.572 49.15 695.572 48V34.95H706.822C708.022 34.95 708.972 34 708.972 32.8C708.972 31.65 708.022 30.65 706.822 30.65H695.572Z"/>
</mask>
<path d="M24.3998 21.6C27.0498 17.9999 29.0998 14.3 30.2498 10.95C30.6498 9.84995 29.9998 8.54995 28.8498 8.19995C27.7498 7.79995 26.4998 8.44995 26.0998 9.54995C25.5498 11.0999 24.8498 12.65 24.0498 14.2C23.8998 13.1499 22.9998 12.4 21.9498 12.4H18.7498V8.54995C18.7498 7.34995 17.7498 6.39995 16.5498 6.39995C15.3998 6.39995 14.3998 7.34995 14.3998 8.54995V12.4H10.9998C9.84975 12.4 8.89975 13.3 8.89975 14.5C8.89975 15.65 9.84975 16.6 10.9998 16.6H14.3998V21.6H8.69975C7.49975 21.6 6.54975 22.6 6.54975 23.7C6.54975 24.85 7.49975 25.8 8.69975 25.8H15.3498C12.8998 28.2 10.1498 30.3 7.14975 32C6.09975 32.6 5.59975 33.9 5.99975 35.05C6.39975 36.15 7.69975 36.65 8.74975 36.1C9.54975 35.65 10.3998 35.15 11.1998 34.6V46.5C11.1998 48.35 12.6998 49.8 14.4998 49.8H25.0498C26.8998 49.8 28.3498 48.3 28.3498 46.5V32.3C28.3498 30.5 26.8498 29 25.0498 29H17.9998C19.0498 27.95 20.0498 26.9 21.0498 25.8H28.2998C29.4498 25.8 30.3998 24.9 30.3998 23.7C30.3998 22.55 29.4498 21.6 28.2998 21.6H24.3998ZM43.2498 22.6999C45.2998 19.9999 47.4498 15.45 48.5498 11.3499C48.9998 9.69995 47.6998 8.04995 45.8998 8.04995H34.7998C32.9498 8.04995 31.4998 9.54995 31.4998 11.3499V48C31.4998 49.15 32.4498 50.15 33.5998 50.15C34.7998 50.15 35.7498 49.2 35.7498 48V12.25H43.8498C42.7998 15.45 41.3998 18.15 39.4498 20.7C38.3498 22.15 38.5498 24.2499 39.8998 25.4C43.1998 28.2499 45.7998 30.8 45.7998 34.85C45.7998 38.4 43.9998 39.9 39.5998 39.85C38.4498 39.8 37.4498 40.7 37.4498 41.85C37.4498 43.05 38.3998 44.1 39.5998 44.1C46.0998 44.15 50.0498 40.7 50.0498 34.8C50.0498 29.55 46.6498 25.5 43.2498 22.6999ZM21.9498 16.6C22.2498 16.6 22.4998 16.55 22.7498 16.4C21.6998 18.2 20.4998 19.8999 19.1498 21.6H18.7498V16.6H21.9498ZM15.3998 36.8V33.15H24.0998V36.8H15.3998ZM15.3998 40.95H24.0998V45.65H15.3998V40.95Z" fill="#42210C"/>
<path d="M80.1998 14.2999V8.49995C80.1998 7.29995 79.2498 6.29995 77.9997 6.29995C76.7997 6.29995 75.7998 7.29995 75.7998 8.49995V14.2999H61.9998C60.1998 14.2999 58.6998 15.8 58.6998 17.6V48C58.6998 49.2 59.6998 50.2 60.8998 50.2C62.0998 50.2 63.0998 49.2 63.0998 48V18.65H75.6497C74.5997 25.2499 69.0498 31.7 64.2998 34.6C63.2498 35.2 62.7998 36.5 63.3498 37.55C63.8498 38.65 65.1998 39.05 66.1998 38.45C70.7498 35.8 75.5997 30.6 78.1997 24.85C80.7497 29.9 84.9998 35.45 89.6998 38.35C90.7498 39 92.1498 38.55 92.6998 37.4C92.7998 37.15 92.8997 36.85 92.8997 36.6V44.15C92.8997 45.6 92.3498 45.9 89.2998 45.75C88.0998 45.65 87.0498 46.6 86.9997 47.8C86.9497 49.05 87.8997 50.15 89.1497 50.2C94.5497 50.4 97.2998 48.4 97.2998 44.15V17.6C97.2998 15.8 95.7997 14.2999 93.9997 14.2999H80.1998ZM91.6998 34.3C86.5998 30.95 81.6998 23.6 80.3498 18.65H92.8997V36.3C92.8498 35.55 92.3998 34.8 91.6998 34.3Z" fill="#42210C"/>
<path d="M130 46.05C143.8 44.2 148.2 33.35 145.9 25.25C142.15 12.15 122.85 10.1999 114.05 22.1C108.2 30.1 108.65 41.4 115 42.9C121.75 44.5 128.05 32.25 130.95 18.6C136.95 18.6999 141.75 23.1 142 28.75C142.3 35.65 137.75 40.25 129.35 41.55C128.15 41.75 127.3 42.85 127.5 44.05C127.65 45.3 128.8 46.2 130 46.05ZM114.75 37.6C112.5 33.85 115.35 21.0499 126.3 18.9C124.2 29.05 117.65 42.5 114.75 37.6Z" fill="#42210C"/>
<path d="M176.6 32.55C176.65 30.7 175.2 29.25 173.35 29.25H170.6V26H174.1C175.15 26 176.05 25.1 176.05 24C176.05 22.95 175.15 22.05 174.1 22.05H170.6V18.8H174.1C175.15 18.8 176.05 17.9 176.05 16.85C176.05 15.75 175.15 14.85 174.1 14.85H170.6V11.6H174.9C175.95 11.6 176.9 10.7 176.9 9.59995C176.9 8.49995 176 7.59995 174.9 7.59995H161.95C160.15 7.59995 158.65 9.04995 158.65 10.9V29.95C158.65 31.8 160.15 33.25 161.95 33.25H168.9C168.4 33.5 168.15 34.0999 168.3 34.65C168.85 36.6 169.2 38.6 169.3 40.8C169.35 41.45 170 42 170.65 41.85C171 41.75 171.35 41.55 171.55 41.25C171.5 41.6 171.45 41.9 171.35 42.25C170.7 45.3 169.85 46 167.1 45.85C165.9 45.8 164.9 46.7 164.9 47.85C164.85 49.05 165.8 50.1 167 50.1C171.85 50.2 174.3 48.2 175.5 43.1C176.15 39.5 176.45 35.8 176.6 32.55ZM199.2 45.85C193.65 41.85 189.45 33.65 188.45 27.05H194.1C195.9 27.05 197.4 25.55 197.4 23.75V11.25C197.4 9.44995 195.9 7.94995 194.1 7.94995H180.95C179.1 7.94995 177.65 9.49995 177.65 11.25V25.9C177.65 30.35 177.45 40.25 174.95 47.5C174.55 48.65 175.2 49.85 176.4 50.1C177.65 50.4 178.9 49.65 179.25 48.45C181.65 40.1 181.9 30.1 181.9 27.05H184.2C185.4 36.2 191.55 46.15 197.4 49.7C198.35 50.3 199.6 49.85 200.1 48.75C200.5 47.75 200.15 46.55 199.2 45.85ZM166.5 14.85H162.9V11.6H166.5V14.85ZM193.05 12.25V22.75H181.95V12.25H193.05ZM162.9 22.05V18.8H166.5V22.05H162.9ZM166.5 26V29.25H162.9V26H166.5ZM171.8 39.75C171.7 37.9 171.35 35.95 170.8 34.05C170.7 33.7 170.45 33.4 170.15 33.25H172.35C172.25 35.35 172.15 37.6 171.8 39.75ZM167.6 43.45C168.45 43.3 169.05 42.6 168.95 41.8C168.75 39.45 168.3 37 167.6 34.55C167.4 33.8 166.6 33.4 165.8 33.6C165.05 33.8 164.65 34.5999 164.9 35.4C165.6 37.7 166 39.85 166.15 42.25C166.2 43 166.9 43.6 167.6 43.45ZM165.75 42.9C165.6 40.3 165.2 37.7 164.45 35.1C164.25 34.3 163.35 33.8 162.55 34.05C161.75 34.2 161.3 35 161.55 35.85C161.55 35.9 161.55 35.95 161.6 35.95C161.3 35.55 160.85 35.3 160.3 35.2C159.25 35 158.3 35.7 158.2 36.75C157.9 39.15 157.35 42.25 156.65 44.75C156.4 45.75 157 46.8 158 47C159.1 47.2 160.2 46.55 160.5 45.5C161.25 42.8 161.75 39.8 162 37.5C162.45 39.45 162.7 41.35 162.8 43.5C162.85 44.3 163.55 44.9 164.35 44.75C165.2 44.55 165.85 43.75 165.75 42.9Z" fill="#42210C"/>
<path d="M241.15 42.75C237.15 43.85 231.8 43.6 228.35 39.1C223.55 32.85 227.55 23.45 237.25 17.3499C239.4 16.8499 241.4 16.25 243.3 15.55C244.45 15.1 245 13.8 244.55 12.65C244.05 11.5499 242.8 11 241.65 11.4C233.4 14.4 223.7 15.45 212.85 14.6C211.65 14.5 210.55 15.4 210.4 16.6C210.3 17.85 211.2 18.9499 212.4 19C218.3 19.5 224.1 19.3999 229.5 18.75C220.65 26.75 221 36.3 224.45 41.25C228.1 46.55 235.15 48.95 242.05 47.2C243.3 46.9 244.05 45.6 243.8 44.3C243.55 43.1 242.35 42.4 241.15 42.75ZM249.75 24.65C248.6 21.8999 247.45 20.2 245.5 18.45C244.9 17.9 243.95 17.95 243.35 18.5C242.8 19.1 242.8 20 243.4 20.6C245 22.1 246.15 23.8 246.95 25.9C247.25 26.7 248.15 27.1 248.95 26.75C249.7 26.4 250.1 25.5 249.75 24.65ZM241.5 20.4C240.85 19.8 239.8 19.8999 239.25 20.5499C238.65 21.15 238.75 22.15 239.4 22.6999C241 24.15 242 25.65 242.8 27.75C243.1 28.6 244 28.9999 244.8 28.65C245.6 28.3 246.05 27.35 245.7 26.5C244.6 23.95 243.3 22.05 241.5 20.4Z" fill="#42210C"/>
<path d="M258.85 20.9C262.65 18.2 266.75 13.1999 268.75 8.74995C269.25 7.64995 268.65 6.39995 267.45 5.99995C266.35 5.59995 265.1 6.14995 264.55 7.24995C262.85 10.85 259.95 14.4999 256.8 16.95C255.85 17.7 255.5 19 256.05 20.1C256.55 21.2 257.9 21.55 258.85 20.9ZM291.05 45.55C289.35 45.55 287.8 45.3 286.4 44.8V35.85H294.9C296.05 35.85 296.95 34.9 296.95 33.8C296.95 32.65 296 31.6999 294.9 31.6999H286.4V26H297.35C298.5 26 299.45 25 299.45 23.85C299.45 22.75 298.5 21.75 297.35 21.75H286.35V16.8H295.05C296.2 16.8 297.15 15.85 297.15 14.7C297.15 13.55 296.2 12.6 295.05 12.6H286.35V8.49995C286.35 7.29995 285.35 6.34995 284.2 6.34995C283.05 6.34995 282.05 7.29995 282.05 8.49995V12.6H273.75C272.6 12.6 271.6 13.55 271.6 14.7C271.6 15.85 272.55 16.8 273.75 16.8H282.05V21.75H271.45C270.25 21.75 269.35 22.75 269.35 23.85C269.35 25.05 270.3 26 271.45 26H282.05V42.2C279.85 40.25 277.95 37.5 275.95 34C276.15 32.9 276.35 31.85 276.5 30.8C276.7 29.6 275.9 28.5 274.7 28.25C273.6 28.05 272.5 28.8 272.3 29.95C271.5 35.7 269.5 42.7 266.95 47.25C266.35 48.3 266.85 49.65 267.95 50C269.2 50.35 270.55 49.8 271.1 48.65C272.45 45.95 273.6 42.85 274.55 39.75C279 46.55 284.35 49.75 291.05 49.75H297.2C298.4 49.75 299.3 48.8 299.3 47.65C299.3 46.45 298.35 45.55 297.2 45.55H291.05ZM269.3 20.45C269.8 19.35 269.35 18.1 268.25 17.5499C267.25 17 266 17.45 265.5 18.5C263.55 22.3 260.5 26.7 256.85 29.55C255.9 30.35 255.55 31.7 256.05 32.75C256.55 33.85 257.9 34.25 258.85 33.5C259.7 32.85 260.55 32.15 261.35 31.4V48.05C261.35 49.2 262.3 50.15 263.5 50.15C264.7 50.15 265.65 49.2 265.65 48.05V26.6C267.1 24.65 268.35 22.55 269.3 20.45Z" fill="#42210C"/>
<path d="M325.8 25.3V34.55C325.8 35.45 325.75 35.5 323.2 35.35C321.95 35.25 320.9 36.2 320.85 37.45C320.8 38.7 321.8 39.75 323 39.8C328.25 39.9 330.2 38.5 330.2 34.5V25.3H347.25C348.45 25.3 349.4 24.3 349.4 23.15C349.4 21.9499 348.4 21 347.25 21H330.25V16.7H341.9C343.1 16.7 344.05 15.6999 344.05 14.5499C344.05 13.35 343.1 12.4 341.9 12.4H330.25V8.54995C330.25 7.29995 329.2 6.29995 328 6.29995C326.8 6.29995 325.75 7.29995 325.75 8.54995V21H319.5V12.4C319.5 11.2 318.5 10.25 317.35 10.25C316.15 10.25 315.2 11.25 315.2 12.4V21H308.75C307.6 21 306.6 21.9499 306.6 23.15C306.6 24.35 307.6 25.3 308.75 25.3H325.8ZM321.05 28.9499C321.6 27.9999 321.25 26.7 320.25 26.05C319.35 25.5 318.15 25.75 317.5 26.6C314.85 30.25 310.75 33.45 307.65 34.95C306.55 35.5 306 36.75 306.4 37.85C306.85 39.05 308.2 39.65 309.3 39.1C313 37.3 318.6 33.05 321.05 28.9499ZM348.35 35.5C344.8 33.55 341.6 30.4999 339.35 26.9C338.7 25.8999 337.35 25.5 336.3 26.05C335.2 26.6 334.8 27.95 335.45 28.9499C336.35 30.4 337.45 31.85 338.7 33.1999C334.8 37.1499 326.5 43.45 310.4 45.65C309.2 45.8 308.35 46.9 308.45 48.1C308.55 49.3 309.65 50.2 310.85 50.05C324.35 48.35 335.75 42.6 341.85 36.25C343.5 37.7 345.25 38.95 347 39.85C348.05 40.45 349.4 39.8 349.75 38.6C350.05 37.45 349.5 36.15 348.35 35.5Z" fill="#42210C"/>
<path d="M372.75 43.7C371.35 43.85 369.85 43.95 368.3 44V12.8C368.3 11.15 366.6 10.15 365.15 10.85L357.8 14.4C356.7 14.9 356.2 16.25 356.75 17.4C357.3 18.4999 358.65 18.9499 359.8 18.4L363.8 16.5V44C362.25 43.95 360.7 43.85 359.15 43.7C357.8 43.6 356.7 44.6 356.7 45.95C356.7 47.3 357.8 48.3 359.15 48.2C363.05 47.75 368.3 47.75 372.75 48.2C374.1 48.3 375.15 47.3 375.15 45.95C375.15 44.6 374.1 43.6 372.75 43.7Z" fill="#42210C"/>
<path d="M395.057 10.15C385.957 10.15 380.407 17.2 380.407 28.85C380.407 41 385.807 48.2 395.057 48.2C404.307 48.2 409.757 41 409.757 28.85C409.757 17.2 404.207 10.15 395.057 10.15ZM395.057 44C388.807 44 384.957 38.25 384.957 28.9499C384.957 20.0499 388.907 14.4 395.057 14.4C401.207 14.4 405.207 20.0499 405.207 28.9499C405.207 38.2 401.307 44 395.057 44Z" fill="#42210C"/>
<path d="M458.272 22.1C452.072 17.2 448.622 12.1 445.972 7.74995C445.322 6.64995 443.972 6.09995 442.722 6.49995C441.572 6.89995 441.022 8.24995 441.622 9.29995C444.972 15.1 450.672 22.3 455.722 26.1C456.772 26.85 458.222 26.55 458.922 25.4499C459.572 24.35 459.322 22.9 458.272 22.1ZM418.872 26C424.222 22.05 429.622 15.8 432.922 9.69995C433.522 8.64995 433.022 7.34995 431.872 6.89995C430.772 6.44995 429.472 6.89995 428.872 7.94995C426.022 12.9 421.622 18.2 416.822 21.85C415.772 22.65 415.422 24.05 415.922 25.2C416.472 26.35 417.872 26.7 418.872 26ZM424.922 24.3C423.722 24.3 422.772 25.3 422.772 26.5C422.772 27.65 423.722 28.65 424.922 28.65H433.272C431.572 36.55 426.372 42.4 418.522 45.25C417.272 45.7 416.572 46.95 416.872 48.2C417.172 49.5 418.472 50.25 419.672 49.85C428.922 46.85 436.222 38.3 437.822 28.65H447.472C447.272 35.05 446.672 40.35 446.222 42.65C445.622 45.7 443.472 45.75 440.172 45.25C438.922 45.05 437.772 45.9 437.622 47.1C437.422 48.35 438.272 49.5 439.522 49.7C445.872 50.5 449.522 48.5 450.522 43.6C451.172 40.5 451.722 34.2 451.872 27.65C451.922 25.8 450.472 24.3 448.622 24.3H424.922Z" fill="#42210C"/>
<path d="M470.572 7.34995C468.722 7.34995 467.272 8.84995 467.272 10.65V45.75C467.272 47.6 468.772 49.05 470.572 49.05H504.372C506.222 49.05 507.672 47.55 507.672 45.75V10.65C507.672 8.84995 506.172 7.34995 504.372 7.34995H470.572ZM486.772 11.6C486.272 11.85 485.822 12.3 485.672 12.9C485.272 14.6 484.622 16.4 483.822 18.2H483.172C483.472 17.65 483.472 17 483.172 16.45C482.572 15.35 481.772 14.15 481.072 13.1999C480.372 12.2 478.922 12.0499 477.922 12.85C477.022 13.55 477.022 14.9 477.822 15.75C478.572 16.5 479.222 17.35 479.772 18.15C479.772 18.15 479.772 18.2 479.822 18.2H476.722C475.672 18.2 474.772 19.1 474.772 20.15C474.772 21.2 475.622 22.1 476.722 22.1H481.772C481.222 22.95 480.672 23.75 480.122 24.55H475.322C474.272 24.55 473.372 25.45 473.372 26.5C473.372 27.55 474.272 28.45 475.322 28.45H476.772C475.472 29.75 474.072 30.8999 472.572 31.9C472.022 32.2499 471.672 32.8 471.522 33.35V11.6H486.772ZM471.522 44.8V34.45L471.672 34.85C472.172 35.9 473.422 36.35 474.422 35.75C476.672 34.3 479.522 31.75 482.172 28.45H492.222C494.872 31.35 497.922 33.95 500.672 35.45C501.622 35.95 502.822 35.55 503.222 34.5C503.622 33.5 503.222 32.35 502.322 31.8C500.772 30.85 499.272 29.75 497.822 28.45H499.622C500.672 28.45 501.572 27.55 501.572 26.5C501.572 25.45 500.672 24.55 499.622 24.55H494.172C493.522 23.8 492.922 22.95 492.322 22.1H498.222C499.272 22.1 500.172 21.2 500.172 20.15C500.172 19.1 499.322 18.2 498.222 18.2H495.472C496.222 17.3 496.972 16.3499 497.622 15.3C498.172 14.4 497.872 13.1999 496.922 12.6999C495.972 12.2499 494.822 12.55 494.222 13.45C492.972 15.3 491.372 16.95 489.772 18.2H488.172C488.722 16.85 489.172 15.4499 489.522 14C489.772 13.05 489.222 12.05 488.272 11.6H503.422V44.8H471.522ZM487.472 22.1C487.972 22.9 488.472 23.75 489.072 24.55H484.922C485.422 23.75 485.922 22.95 486.372 22.1H487.472ZM497.822 37.7C496.972 37.1 495.722 37.25 494.972 38.1C493.922 39.3 493.072 39.65 490.822 39.65H484.522C482.422 39.65 482.372 39.6 482.372 38.5V37.75H491.172C492.872 37.75 494.222 36.35 494.222 34.7V32.4C494.222 30.7 492.822 29.35 491.172 29.35H482.372C481.322 29.35 480.522 30.2 480.522 31.2C480.522 32.25 481.372 33.05 482.372 33.05H490.122V34.05H481.322C479.672 34.05 478.272 35.45 478.272 37.1V38.5C478.272 42 480.222 43.65 484.322 43.65H490.822C494.272 43.65 496.272 42.8 498.172 40.5C498.922 39.65 498.722 38.4 497.822 37.7Z" fill="#42210C"/>
<path d="M539.672 14.2999V8.49995C539.672 7.29995 538.722 6.29995 537.472 6.29995C536.272 6.29995 535.272 7.29995 535.272 8.49995V14.2999H521.472C519.672 14.2999 518.172 15.8 518.172 17.6V48C518.172 49.2 519.172 50.2 520.372 50.2C521.572 50.2 522.572 49.2 522.572 48V18.65H535.122C534.072 25.2499 528.522 31.7 523.772 34.6C522.722 35.2 522.272 36.5 522.822 37.55C523.322 38.65 524.672 39.05 525.672 38.45C530.222 35.8 535.072 30.6 537.672 24.85C540.222 29.9 544.472 35.45 549.172 38.35C550.222 39 551.622 38.55 552.172 37.4C552.272 37.15 552.372 36.85 552.372 36.6V44.15C552.372 45.6 551.822 45.9 548.772 45.75C547.572 45.65 546.522 46.6 546.472 47.8C546.422 49.05 547.372 50.15 548.622 50.2C554.022 50.4 556.772 48.4 556.772 44.15V17.6C556.772 15.8 555.272 14.2999 553.472 14.2999H539.672ZM551.172 34.3C546.072 30.95 541.172 23.6 539.822 18.65H552.372V36.3C552.322 35.55 551.872 34.8 551.172 34.3Z" fill="#42210C"/>
<path d="M589.472 46.05C603.272 44.2 607.672 33.35 605.372 25.25C601.622 12.15 582.322 10.1999 573.522 22.1C567.672 30.1 568.122 41.4 574.472 42.9C581.222 44.5 587.522 32.25 590.422 18.6C596.422 18.6999 601.222 23.1 601.472 28.75C601.772 35.65 597.222 40.25 588.822 41.55C587.622 41.75 586.772 42.85 586.972 44.05C587.122 45.3 588.272 46.2 589.472 46.05ZM574.222 37.6C571.972 33.85 574.822 21.0499 585.772 18.9C583.672 29.05 577.122 42.5 574.222 37.6Z" fill="#42210C"/>
<path d="M640.972 14.4C641.722 12.6 642.322 10.7 642.722 8.74995C642.972 7.59995 642.172 6.49995 640.972 6.34995C639.772 6.14995 638.672 6.94995 638.372 8.09995C637.122 13.3999 634.672 18 631.422 21.4C630.572 22.25 630.472 23.6 631.222 24.55C631.972 25.5 633.372 25.65 634.222 24.8C635.822 23.2 637.472 21.1 638.922 18.6H641.972C640.272 24.15 636.872 29 632.422 32.45C631.422 33.2 631.072 34.55 631.622 35.65C632.172 36.8 633.572 37.15 634.522 36.4C638.072 33.6499 644.222 27.35 646.422 18.6H648.572C646.222 29.55 640.872 37.95 632.672 43.3C631.672 43.95 631.272 45.3 631.872 46.4C632.422 47.5 633.822 47.85 634.822 47.2C644.022 41.2 650.622 30.85 653.072 18.6H653.522C653.472 24.25 653.322 33.1 652.972 38.1C652.472 44.75 651.122 46.25 646.322 45.65C645.072 45.5 643.922 46.35 643.772 47.55C643.572 48.8 644.422 49.95 645.672 50.05C653.372 50.75 656.822 47.3 657.322 38.4C657.622 32.95 657.822 23.3 657.872 17.7C657.872 15.9 656.422 14.4 654.572 14.4H640.972ZM632.322 30.65C632.122 29.55 630.922 28.9 629.822 29.3C629.272 29.5 628.622 29.75 628.022 29.95V19.7H630.422C631.622 19.7 632.572 18.6999 632.572 17.5499C632.572 16.3999 631.622 15.4 630.422 15.4H628.022V8.69995C628.022 7.49995 627.072 6.59995 625.922 6.59995C624.772 6.59995 623.822 7.54995 623.822 8.69995V15.4H622.922C623.122 14.2499 623.322 13.05 623.372 11.85C623.472 10.65 622.522 9.69995 621.322 9.69995C620.172 9.69995 619.222 10.6 619.122 11.75C618.772 15.25 617.872 18.7 616.022 21.25C615.322 22.25 615.272 23.55 616.022 24.4C616.772 25.3499 618.172 25.4 618.872 24.5C619.972 23.1 620.872 21.5 621.622 19.7H623.822V31.2C621.772 31.7 619.722 32.2 617.972 32.5C616.772 32.75 615.922 33.8 615.922 35C615.922 36.15 616.972 37 618.072 36.8C619.772 36.5 621.772 36.1 623.822 35.55V48.05C623.822 49.25 624.772 50.15 625.922 50.15C627.072 50.15 628.022 49.25 628.022 48.05V34.4C628.972 34.15 629.922 33.8 630.822 33.5C631.922 33.05 632.572 31.85 632.322 30.65Z" fill="#42210C"/>
<path d="M679.472 8.79995C679.672 7.59995 678.872 6.44995 677.672 6.19995C676.472 5.94995 675.322 6.74995 675.072 7.89995C673.572 14.55 670.672 20.25 666.422 25.05C665.522 26 665.472 27.45 666.272 28.45C667.022 29.45 668.472 29.5 669.322 28.6C669.822 28 670.372 27.4 670.872 26.75V48C670.872 49.15 671.872 50.15 673.072 50.15C674.272 50.15 675.222 49.15 675.222 48V20.15C677.222 16.5 678.772 12.55 679.472 8.79995ZM695.572 30.65V20.2H704.072C705.272 20.2 706.272 19.1999 706.272 18C706.272 16.85 705.272 15.85 704.072 15.85H695.572V8.74995C695.572 7.54995 694.572 6.59995 693.422 6.59995C692.172 6.59995 691.222 7.54995 691.222 8.74995V15.85H685.772C686.522 13.95 687.122 12 687.522 10.25C687.822 8.99995 686.972 7.79995 685.772 7.44995C684.572 7.14995 683.422 7.89995 683.122 9.09995C681.972 14.5 679.422 19.6499 676.222 23.1C675.272 24.15 675.172 25.65 675.922 26.7C676.722 27.8 678.272 27.8999 679.122 26.9499C680.822 25.15 682.372 22.75 683.722 20.2H691.222V30.65H678.872C677.672 30.65 676.722 31.6 676.722 32.8C676.722 33.95 677.672 34.95 678.872 34.95H691.222V48C691.222 49.15 692.172 50.15 693.422 50.15C694.622 50.15 695.572 49.15 695.572 48V34.95H706.822C708.022 34.95 708.972 34 708.972 32.8C708.972 31.65 708.022 30.65 706.822 30.65H695.572Z" fill="#42210C"/>
<path d="M24.3998 21.6C27.0498 17.9999 29.0998 14.3 30.2498 10.95C30.6498 9.84995 29.9998 8.54995 28.8498 8.19995C27.7498 7.79995 26.4998 8.44995 26.0998 9.54995C25.5498 11.0999 24.8498 12.65 24.0498 14.2C23.8998 13.1499 22.9998 12.4 21.9498 12.4H18.7498V8.54995C18.7498 7.34995 17.7498 6.39995 16.5498 6.39995C15.3998 6.39995 14.3998 7.34995 14.3998 8.54995V12.4H10.9998C9.84975 12.4 8.89975 13.3 8.89975 14.5C8.89975 15.65 9.84975 16.6 10.9998 16.6H14.3998V21.6H8.69975C7.49975 21.6 6.54975 22.6 6.54975 23.7C6.54975 24.85 7.49975 25.8 8.69975 25.8H15.3498C12.8998 28.2 10.1498 30.3 7.14975 32C6.09975 32.6 5.59975 33.9 5.99975 35.05C6.39975 36.15 7.69975 36.65 8.74975 36.1C9.54975 35.65 10.3998 35.15 11.1998 34.6V46.5C11.1998 48.35 12.6998 49.8 14.4998 49.8H25.0498C26.8998 49.8 28.3498 48.3 28.3498 46.5V32.3C28.3498 30.5 26.8498 29 25.0498 29H17.9998C19.0498 27.95 20.0498 26.9 21.0498 25.8H28.2998C29.4498 25.8 30.3998 24.9 30.3998 23.7C30.3998 22.55 29.4498 21.6 28.2998 21.6H24.3998ZM43.2498 22.6999C45.2998 19.9999 47.4498 15.45 48.5498 11.3499C48.9998 9.69995 47.6998 8.04995 45.8998 8.04995H34.7998C32.9498 8.04995 31.4998 9.54995 31.4998 11.3499V48C31.4998 49.15 32.4498 50.15 33.5998 50.15C34.7998 50.15 35.7498 49.2 35.7498 48V12.25H43.8498C42.7998 15.45 41.3998 18.15 39.4498 20.7C38.3498 22.15 38.5498 24.2499 39.8998 25.4C43.1998 28.2499 45.7998 30.8 45.7998 34.85C45.7998 38.4 43.9998 39.9 39.5998 39.85C38.4498 39.8 37.4498 40.7 37.4498 41.85C37.4498 43.05 38.3998 44.1 39.5998 44.1C46.0998 44.15 50.0498 40.7 50.0498 34.8C50.0498 29.55 46.6498 25.5 43.2498 22.6999ZM21.9498 16.6C22.2498 16.6 22.4998 16.55 22.7498 16.4C21.6998 18.2 20.4998 19.8999 19.1498 21.6H18.7498V16.6H21.9498ZM15.3998 36.8V33.15H24.0998V36.8H15.3998ZM15.3998 40.95H24.0998V45.65H15.3998V40.95Z" stroke="white" stroke-width="10" mask="url(#path-1-outside-1_507:996)"/>
<path d="M80.1998 14.2999V8.49995C80.1998 7.29995 79.2498 6.29995 77.9997 6.29995C76.7997 6.29995 75.7998 7.29995 75.7998 8.49995V14.2999H61.9998C60.1998 14.2999 58.6998 15.8 58.6998 17.6V48C58.6998 49.2 59.6998 50.2 60.8998 50.2C62.0998 50.2 63.0998 49.2 63.0998 48V18.65H75.6497C74.5997 25.2499 69.0498 31.7 64.2998 34.6C63.2498 35.2 62.7998 36.5 63.3498 37.55C63.8498 38.65 65.1998 39.05 66.1998 38.45C70.7498 35.8 75.5997 30.6 78.1997 24.85C80.7497 29.9 84.9998 35.45 89.6998 38.35C90.7498 39 92.1498 38.55 92.6998 37.4C92.7998 37.15 92.8997 36.85 92.8997 36.6V44.15C92.8997 45.6 92.3498 45.9 89.2998 45.75C88.0998 45.65 87.0498 46.6 86.9997 47.8C86.9497 49.05 87.8997 50.15 89.1497 50.2C94.5497 50.4 97.2998 48.4 97.2998 44.15V17.6C97.2998 15.8 95.7997 14.2999 93.9997 14.2999H80.1998ZM91.6998 34.3C86.5998 30.95 81.6998 23.6 80.3498 18.65H92.8997V36.3C92.8498 35.55 92.3998 34.8 91.6998 34.3Z" stroke="white" stroke-width="10" mask="url(#path-1-outside-1_507:996)"/>
<path d="M130 46.05C143.8 44.2 148.2 33.35 145.9 25.25C142.15 12.15 122.85 10.1999 114.05 22.1C108.2 30.1 108.65 41.4 115 42.9C121.75 44.5 128.05 32.25 130.95 18.6C136.95 18.6999 141.75 23.1 142 28.75C142.3 35.65 137.75 40.25 129.35 41.55C128.15 41.75 127.3 42.85 127.5 44.05C127.65 45.3 128.8 46.2 130 46.05ZM114.75 37.6C112.5 33.85 115.35 21.0499 126.3 18.9C124.2 29.05 117.65 42.5 114.75 37.6Z" stroke="white" stroke-width="10" mask="url(#path-1-outside-1_507:996)"/>
<path d="M176.6 32.55C176.65 30.7 175.2 29.25 173.35 29.25H170.6V26H174.1C175.15 26 176.05 25.1 176.05 24C176.05 22.95 175.15 22.05 174.1 22.05H170.6V18.8H174.1C175.15 18.8 176.05 17.9 176.05 16.85C176.05 15.75 175.15 14.85 174.1 14.85H170.6V11.6H174.9C175.95 11.6 176.9 10.7 176.9 9.59995C176.9 8.49995 176 7.59995 174.9 7.59995H161.95C160.15 7.59995 158.65 9.04995 158.65 10.9V29.95C158.65 31.8 160.15 33.25 161.95 33.25H168.9C168.4 33.5 168.15 34.0999 168.3 34.65C168.85 36.6 169.2 38.6 169.3 40.8C169.35 41.45 170 42 170.65 41.85C171 41.75 171.35 41.55 171.55 41.25C171.5 41.6 171.45 41.9 171.35 42.25C170.7 45.3 169.85 46 167.1 45.85C165.9 45.8 164.9 46.7 164.9 47.85C164.85 49.05 165.8 50.1 167 50.1C171.85 50.2 174.3 48.2 175.5 43.1C176.15 39.5 176.45 35.8 176.6 32.55ZM199.2 45.85C193.65 41.85 189.45 33.65 188.45 27.05H194.1C195.9 27.05 197.4 25.55 197.4 23.75V11.25C197.4 9.44995 195.9 7.94995 194.1 7.94995H180.95C179.1 7.94995 177.65 9.49995 177.65 11.25V25.9C177.65 30.35 177.45 40.25 174.95 47.5C174.55 48.65 175.2 49.85 176.4 50.1C177.65 50.4 178.9 49.65 179.25 48.45C181.65 40.1 181.9 30.1 181.9 27.05H184.2C185.4 36.2 191.55 46.15 197.4 49.7C198.35 50.3 199.6 49.85 200.1 48.75C200.5 47.75 200.15 46.55 199.2 45.85ZM166.5 14.85H162.9V11.6H166.5V14.85ZM193.05 12.25V22.75H181.95V12.25H193.05ZM162.9 22.05V18.8H166.5V22.05H162.9ZM166.5 26V29.25H162.9V26H166.5ZM171.8 39.75C171.7 37.9 171.35 35.95 170.8 34.05C170.7 33.7 170.45 33.4 170.15 33.25H172.35C172.25 35.35 172.15 37.6 171.8 39.75ZM167.6 43.45C168.45 43.3 169.05 42.6 168.95 41.8C168.75 39.45 168.3 37 167.6 34.55C167.4 33.8 166.6 33.4 165.8 33.6C165.05 33.8 164.65 34.5999 164.9 35.4C165.6 37.7 166 39.85 166.15 42.25C166.2 43 166.9 43.6 167.6 43.45ZM165.75 42.9C165.6 40.3 165.2 37.7 164.45 35.1C164.25 34.3 163.35 33.8 162.55 34.05C161.75 34.2 161.3 35 161.55 35.85C161.55 35.9 161.55 35.95 161.6 35.95C161.3 35.55 160.85 35.3 160.3 35.2C159.25 35 158.3 35.7 158.2 36.75C157.9 39.15 157.35 42.25 156.65 44.75C156.4 45.75 157 46.8 158 47C159.1 47.2 160.2 46.55 160.5 45.5C161.25 42.8 161.75 39.8 162 37.5C162.45 39.45 162.7 41.35 162.8 43.5C162.85 44.3 163.55 44.9 164.35 44.75C165.2 44.55 165.85 43.75 165.75 42.9Z" stroke="white" stroke-width="10" mask="url(#path-1-outside-1_507:996)"/>
<path d="M241.15 42.75C237.15 43.85 231.8 43.6 228.35 39.1C223.55 32.85 227.55 23.45 237.25 17.3499C239.4 16.8499 241.4 16.25 243.3 15.55C244.45 15.1 245 13.8 244.55 12.65C244.05 11.5499 242.8 11 241.65 11.4C233.4 14.4 223.7 15.45 212.85 14.6C211.65 14.5 210.55 15.4 210.4 16.6C210.3 17.85 211.2 18.9499 212.4 19C218.3 19.5 224.1 19.3999 229.5 18.75C220.65 26.75 221 36.3 224.45 41.25C228.1 46.55 235.15 48.95 242.05 47.2C243.3 46.9 244.05 45.6 243.8 44.3C243.55 43.1 242.35 42.4 241.15 42.75ZM249.75 24.65C248.6 21.8999 247.45 20.2 245.5 18.45C244.9 17.9 243.95 17.95 243.35 18.5C242.8 19.1 242.8 20 243.4 20.6C245 22.1 246.15 23.8 246.95 25.9C247.25 26.7 248.15 27.1 248.95 26.75C249.7 26.4 250.1 25.5 249.75 24.65ZM241.5 20.4C240.85 19.8 239.8 19.8999 239.25 20.5499C238.65 21.15 238.75 22.15 239.4 22.6999C241 24.15 242 25.65 242.8 27.75C243.1 28.6 244 28.9999 244.8 28.65C245.6 28.3 246.05 27.35 245.7 26.5C244.6 23.95 243.3 22.05 241.5 20.4Z" stroke="white" stroke-width="10" mask="url(#path-1-outside-1_507:996)"/>
<path d="M258.85 20.9C262.65 18.2 266.75 13.1999 268.75 8.74995C269.25 7.64995 268.65 6.39995 267.45 5.99995C266.35 5.59995 265.1 6.14995 264.55 7.24995C262.85 10.85 259.95 14.4999 256.8 16.95C255.85 17.7 255.5 19 256.05 20.1C256.55 21.2 257.9 21.55 258.85 20.9ZM291.05 45.55C289.35 45.55 287.8 45.3 286.4 44.8V35.85H294.9C296.05 35.85 296.95 34.9 296.95 33.8C296.95 32.65 296 31.6999 294.9 31.6999H286.4V26H297.35C298.5 26 299.45 25 299.45 23.85C299.45 22.75 298.5 21.75 297.35 21.75H286.35V16.8H295.05C296.2 16.8 297.15 15.85 297.15 14.7C297.15 13.55 296.2 12.6 295.05 12.6H286.35V8.49995C286.35 7.29995 285.35 6.34995 284.2 6.34995C283.05 6.34995 282.05 7.29995 282.05 8.49995V12.6H273.75C272.6 12.6 271.6 13.55 271.6 14.7C271.6 15.85 272.55 16.8 273.75 16.8H282.05V21.75H271.45C270.25 21.75 269.35 22.75 269.35 23.85C269.35 25.05 270.3 26 271.45 26H282.05V42.2C279.85 40.25 277.95 37.5 275.95 34C276.15 32.9 276.35 31.85 276.5 30.8C276.7 29.6 275.9 28.5 274.7 28.25C273.6 28.05 272.5 28.8 272.3 29.95C271.5 35.7 269.5 42.7 266.95 47.25C266.35 48.3 266.85 49.65 267.95 50C269.2 50.35 270.55 49.8 271.1 48.65C272.45 45.95 273.6 42.85 274.55 39.75C279 46.55 284.35 49.75 291.05 49.75H297.2C298.4 49.75 299.3 48.8 299.3 47.65C299.3 46.45 298.35 45.55 297.2 45.55H291.05ZM269.3 20.45C269.8 19.35 269.35 18.1 268.25 17.5499C267.25 17 266 17.45 265.5 18.5C263.55 22.3 260.5 26.7 256.85 29.55C255.9 30.35 255.55 31.7 256.05 32.75C256.55 33.85 257.9 34.25 258.85 33.5C259.7 32.85 260.55 32.15 261.35 31.4V48.05C261.35 49.2 262.3 50.15 263.5 50.15C264.7 50.15 265.65 49.2 265.65 48.05V26.6C267.1 24.65 268.35 22.55 269.3 20.45Z" stroke="white" stroke-width="10" mask="url(#path-1-outside-1_507:996)"/>
<path d="M325.8 25.3V34.55C325.8 35.45 325.75 35.5 323.2 35.35C321.95 35.25 320.9 36.2 320.85 37.45C320.8 38.7 321.8 39.75 323 39.8C328.25 39.9 330.2 38.5 330.2 34.5V25.3H347.25C348.45 25.3 349.4 24.3 349.4 23.15C349.4 21.9499 348.4 21 347.25 21H330.25V16.7H341.9C343.1 16.7 344.05 15.6999 344.05 14.5499C344.05 13.35 343.1 12.4 341.9 12.4H330.25V8.54995C330.25 7.29995 329.2 6.29995 328 6.29995C326.8 6.29995 325.75 7.29995 325.75 8.54995V21H319.5V12.4C319.5 11.2 318.5 10.25 317.35 10.25C316.15 10.25 315.2 11.25 315.2 12.4V21H308.75C307.6 21 306.6 21.9499 306.6 23.15C306.6 24.35 307.6 25.3 308.75 25.3H325.8ZM321.05 28.9499C321.6 27.9999 321.25 26.7 320.25 26.05C319.35 25.5 318.15 25.75 317.5 26.6C314.85 30.25 310.75 33.45 307.65 34.95C306.55 35.5 306 36.75 306.4 37.85C306.85 39.05 308.2 39.65 309.3 39.1C313 37.3 318.6 33.05 321.05 28.9499ZM348.35 35.5C344.8 33.55 341.6 30.4999 339.35 26.9C338.7 25.8999 337.35 25.5 336.3 26.05C335.2 26.6 334.8 27.95 335.45 28.9499C336.35 30.4 337.45 31.85 338.7 33.1999C334.8 37.1499 326.5 43.45 310.4 45.65C309.2 45.8 308.35 46.9 308.45 48.1C308.55 49.3 309.65 50.2 310.85 50.05C324.35 48.35 335.75 42.6 341.85 36.25C343.5 37.7 345.25 38.95 347 39.85C348.05 40.45 349.4 39.8 349.75 38.6C350.05 37.45 349.5 36.15 348.35 35.5Z" stroke="white" stroke-width="10" mask="url(#path-1-outside-1_507:996)"/>
<path d="M372.75 43.7C371.35 43.85 369.85 43.95 368.3 44V12.8C368.3 11.15 366.6 10.15 365.15 10.85L357.8 14.4C356.7 14.9 356.2 16.25 356.75 17.4C357.3 18.4999 358.65 18.9499 359.8 18.4L363.8 16.5V44C362.25 43.95 360.7 43.85 359.15 43.7C357.8 43.6 356.7 44.6 356.7 45.95C356.7 47.3 357.8 48.3 359.15 48.2C363.05 47.75 368.3 47.75 372.75 48.2C374.1 48.3 375.15 47.3 375.15 45.95C375.15 44.6 374.1 43.6 372.75 43.7Z" stroke="white" stroke-width="10" mask="url(#path-1-outside-1_507:996)"/>
<path d="M395.057 10.15C385.957 10.15 380.407 17.2 380.407 28.85C380.407 41 385.807 48.2 395.057 48.2C404.307 48.2 409.757 41 409.757 28.85C409.757 17.2 404.207 10.15 395.057 10.15ZM395.057 44C388.807 44 384.957 38.25 384.957 28.9499C384.957 20.0499 388.907 14.4 395.057 14.4C401.207 14.4 405.207 20.0499 405.207 28.9499C405.207 38.2 401.307 44 395.057 44Z" stroke="white" stroke-width="10" mask="url(#path-1-outside-1_507:996)"/>
<path d="M458.272 22.1C452.072 17.2 448.622 12.1 445.972 7.74995C445.322 6.64995 443.972 6.09995 442.722 6.49995C441.572 6.89995 441.022 8.24995 441.622 9.29995C444.972 15.1 450.672 22.3 455.722 26.1C456.772 26.85 458.222 26.55 458.922 25.4499C459.572 24.35 459.322 22.9 458.272 22.1ZM418.872 26C424.222 22.05 429.622 15.8 432.922 9.69995C433.522 8.64995 433.022 7.34995 431.872 6.89995C430.772 6.44995 429.472 6.89995 428.872 7.94995C426.022 12.9 421.622 18.2 416.822 21.85C415.772 22.65 415.422 24.05 415.922 25.2C416.472 26.35 417.872 26.7 418.872 26ZM424.922 24.3C423.722 24.3 422.772 25.3 422.772 26.5C422.772 27.65 423.722 28.65 424.922 28.65H433.272C431.572 36.55 426.372 42.4 418.522 45.25C417.272 45.7 416.572 46.95 416.872 48.2C417.172 49.5 418.472 50.25 419.672 49.85C428.922 46.85 436.222 38.3 437.822 28.65H447.472C447.272 35.05 446.672 40.35 446.222 42.65C445.622 45.7 443.472 45.75 440.172 45.25C438.922 45.05 437.772 45.9 437.622 47.1C437.422 48.35 438.272 49.5 439.522 49.7C445.872 50.5 449.522 48.5 450.522 43.6C451.172 40.5 451.722 34.2 451.872 27.65C451.922 25.8 450.472 24.3 448.622 24.3H424.922Z" stroke="white" stroke-width="10" mask="url(#path-1-outside-1_507:996)"/>
<path d="M470.572 7.34995C468.722 7.34995 467.272 8.84995 467.272 10.65V45.75C467.272 47.6 468.772 49.05 470.572 49.05H504.372C506.222 49.05 507.672 47.55 507.672 45.75V10.65C507.672 8.84995 506.172 7.34995 504.372 7.34995H470.572ZM486.772 11.6C486.272 11.85 485.822 12.3 485.672 12.9C485.272 14.6 484.622 16.4 483.822 18.2H483.172C483.472 17.65 483.472 17 483.172 16.45C482.572 15.35 481.772 14.15 481.072 13.1999C480.372 12.2 478.922 12.0499 477.922 12.85C477.022 13.55 477.022 14.9 477.822 15.75C478.572 16.5 479.222 17.35 479.772 18.15C479.772 18.15 479.772 18.2 479.822 18.2H476.722C475.672 18.2 474.772 19.1 474.772 20.15C474.772 21.2 475.622 22.1 476.722 22.1H481.772C481.222 22.95 480.672 23.75 480.122 24.55H475.322C474.272 24.55 473.372 25.45 473.372 26.5C473.372 27.55 474.272 28.45 475.322 28.45H476.772C475.472 29.75 474.072 30.8999 472.572 31.9C472.022 32.2499 471.672 32.8 471.522 33.35V11.6H486.772ZM471.522 44.8V34.45L471.672 34.85C472.172 35.9 473.422 36.35 474.422 35.75C476.672 34.3 479.522 31.75 482.172 28.45H492.222C494.872 31.35 497.922 33.95 500.672 35.45C501.622 35.95 502.822 35.55 503.222 34.5C503.622 33.5 503.222 32.35 502.322 31.8C500.772 30.85 499.272 29.75 497.822 28.45H499.622C500.672 28.45 501.572 27.55 501.572 26.5C501.572 25.45 500.672 24.55 499.622 24.55H494.172C493.522 23.8 492.922 22.95 492.322 22.1H498.222C499.272 22.1 500.172 21.2 500.172 20.15C500.172 19.1 499.322 18.2 498.222 18.2H495.472C496.222 17.3 496.972 16.3499 497.622 15.3C498.172 14.4 497.872 13.1999 496.922 12.6999C495.972 12.2499 494.822 12.55 494.222 13.45C492.972 15.3 491.372 16.95 489.772 18.2H488.172C488.722 16.85 489.172 15.4499 489.522 14C489.772 13.05 489.222 12.05 488.272 11.6H503.422V44.8H471.522ZM487.472 22.1C487.972 22.9 488.472 23.75 489.072 24.55H484.922C485.422 23.75 485.922 22.95 486.372 22.1H487.472ZM497.822 37.7C496.972 37.1 495.722 37.25 494.972 38.1C493.922 39.3 493.072 39.65 490.822 39.65H484.522C482.422 39.65 482.372 39.6 482.372 38.5V37.75H491.172C492.872 37.75 494.222 36.35 494.222 34.7V32.4C494.222 30.7 492.822 29.35 491.172 29.35H482.372C481.322 29.35 480.522 30.2 480.522 31.2C480.522 32.25 481.372 33.05 482.372 33.05H490.122V34.05H481.322C479.672 34.05 478.272 35.45 478.272 37.1V38.5C478.272 42 480.222 43.65 484.322 43.65H490.822C494.272 43.65 496.272 42.8 498.172 40.5C498.922 39.65 498.722 38.4 497.822 37.7Z" stroke="white" stroke-width="10" mask="url(#path-1-outside-1_507:996)"/>
<path d="M539.672 14.2999V8.49995C539.672 7.29995 538.722 6.29995 537.472 6.29995C536.272 6.29995 535.272 7.29995 535.272 8.49995V14.2999H521.472C519.672 14.2999 518.172 15.8 518.172 17.6V48C518.172 49.2 519.172 50.2 520.372 50.2C521.572 50.2 522.572 49.2 522.572 48V18.65H535.122C534.072 25.2499 528.522 31.7 523.772 34.6C522.722 35.2 522.272 36.5 522.822 37.55C523.322 38.65 524.672 39.05 525.672 38.45C530.222 35.8 535.072 30.6 537.672 24.85C540.222 29.9 544.472 35.45 549.172 38.35C550.222 39 551.622 38.55 552.172 37.4C552.272 37.15 552.372 36.85 552.372 36.6V44.15C552.372 45.6 551.822 45.9 548.772 45.75C547.572 45.65 546.522 46.6 546.472 47.8C546.422 49.05 547.372 50.15 548.622 50.2C554.022 50.4 556.772 48.4 556.772 44.15V17.6C556.772 15.8 555.272 14.2999 553.472 14.2999H539.672ZM551.172 34.3C546.072 30.95 541.172 23.6 539.822 18.65H552.372V36.3C552.322 35.55 551.872 34.8 551.172 34.3Z" stroke="white" stroke-width="10" mask="url(#path-1-outside-1_507:996)"/>
<path d="M589.472 46.05C603.272 44.2 607.672 33.35 605.372 25.25C601.622 12.15 582.322 10.1999 573.522 22.1C567.672 30.1 568.122 41.4 574.472 42.9C581.222 44.5 587.522 32.25 590.422 18.6C596.422 18.6999 601.222 23.1 601.472 28.75C601.772 35.65 597.222 40.25 588.822 41.55C587.622 41.75 586.772 42.85 586.972 44.05C587.122 45.3 588.272 46.2 589.472 46.05ZM574.222 37.6C571.972 33.85 574.822 21.0499 585.772 18.9C583.672 29.05 577.122 42.5 574.222 37.6Z" stroke="white" stroke-width="10" mask="url(#path-1-outside-1_507:996)"/>
<path d="M640.972 14.4C641.722 12.6 642.322 10.7 642.722 8.74995C642.972 7.59995 642.172 6.49995 640.972 6.34995C639.772 6.14995 638.672 6.94995 638.372 8.09995C637.122 13.3999 634.672 18 631.422 21.4C630.572 22.25 630.472 23.6 631.222 24.55C631.972 25.5 633.372 25.65 634.222 24.8C635.822 23.2 637.472 21.1 638.922 18.6H641.972C640.272 24.15 636.872 29 632.422 32.45C631.422 33.2 631.072 34.55 631.622 35.65C632.172 36.8 633.572 37.15 634.522 36.4C638.072 33.6499 644.222 27.35 646.422 18.6H648.572C646.222 29.55 640.872 37.95 632.672 43.3C631.672 43.95 631.272 45.3 631.872 46.4C632.422 47.5 633.822 47.85 634.822 47.2C644.022 41.2 650.622 30.85 653.072 18.6H653.522C653.472 24.25 653.322 33.1 652.972 38.1C652.472 44.75 651.122 46.25 646.322 45.65C645.072 45.5 643.922 46.35 643.772 47.55C643.572 48.8 644.422 49.95 645.672 50.05C653.372 50.75 656.822 47.3 657.322 38.4C657.622 32.95 657.822 23.3 657.872 17.7C657.872 15.9 656.422 14.4 654.572 14.4H640.972ZM632.322 30.65C632.122 29.55 630.922 28.9 629.822 29.3C629.272 29.5 628.622 29.75 628.022 29.95V19.7H630.422C631.622 19.7 632.572 18.6999 632.572 17.5499C632.572 16.3999 631.622 15.4 630.422 15.4H628.022V8.69995C628.022 7.49995 627.072 6.59995 625.922 6.59995C624.772 6.59995 623.822 7.54995 623.822 8.69995V15.4H622.922C623.122 14.2499 623.322 13.05 623.372 11.85C623.472 10.65 622.522 9.69995 621.322 9.69995C620.172 9.69995 619.222 10.6 619.122 11.75C618.772 15.25 617.872 18.7 616.022 21.25C615.322 22.25 615.272 23.55 616.022 24.4C616.772 25.3499 618.172 25.4 618.872 24.5C619.972 23.1 620.872 21.5 621.622 19.7H623.822V31.2C621.772 31.7 619.722 32.2 617.972 32.5C616.772 32.75 615.922 33.8 615.922 35C615.922 36.15 616.972 37 618.072 36.8C619.772 36.5 621.772 36.1 623.822 35.55V48.05C623.822 49.25 624.772 50.15 625.922 50.15C627.072 50.15 628.022 49.25 628.022 48.05V34.4C628.972 34.15 629.922 33.8 630.822 33.5C631.922 33.05 632.572 31.85 632.322 30.65Z" stroke="white" stroke-width="10" mask="url(#path-1-outside-1_507:996)"/>
<path d="M679.472 8.79995C679.672 7.59995 678.872 6.44995 677.672 6.19995C676.472 5.94995 675.322 6.74995 675.072 7.89995C673.572 14.55 670.672 20.25 666.422 25.05C665.522 26 665.472 27.45 666.272 28.45C667.022 29.45 668.472 29.5 669.322 28.6C669.822 28 670.372 27.4 670.872 26.75V48C670.872 49.15 671.872 50.15 673.072 50.15C674.272 50.15 675.222 49.15 675.222 48V20.15C677.222 16.5 678.772 12.55 679.472 8.79995ZM695.572 30.65V20.2H704.072C705.272 20.2 706.272 19.1999 706.272 18C706.272 16.85 705.272 15.85 704.072 15.85H695.572V8.74995C695.572 7.54995 694.572 6.59995 693.422 6.59995C692.172 6.59995 691.222 7.54995 691.222 8.74995V15.85H685.772C686.522 13.95 687.122 12 687.522 10.25C687.822 8.99995 686.972 7.79995 685.772 7.44995C684.572 7.14995 683.422 7.89995 683.122 9.09995C681.972 14.5 679.422 19.6499 676.222 23.1C675.272 24.15 675.172 25.65 675.922 26.7C676.722 27.8 678.272 27.8999 679.122 26.9499C680.822 25.15 682.372 22.75 683.722 20.2H691.222V30.65H678.872C677.672 30.65 676.722 31.6 676.722 32.8C676.722 33.95 677.672 34.95 678.872 34.95H691.222V48C691.222 49.15 692.172 50.15 693.422 50.15C694.622 50.15 695.572 49.15 695.572 48V34.95H706.822C708.022 34.95 708.972 34 708.972 32.8C708.972 31.65 708.022 30.65 706.822 30.65H695.572Z" stroke="white" stroke-width="10" mask="url(#path-1-outside-1_507:996)"/>
</svg>
