<svg width="30" height="25" viewBox="0 0 30 25" fill="none" xmlns="http://www.w3.org/2000/svg">
<path d="M21.3666 12.3743L15.345 1.72491C15.2501 1.55478 15.1975 1.35923 15.1924 1.1585C15.1873 0.957776 15.23 0.759168 15.3161 0.583248C15.4021 0.407327 15.5284 0.26049 15.6819 0.157942C15.8353 0.0553946 16.0103 0.000864895 16.1888 0H22.2691C22.606 0.000975808 22.9373 0.0977349 23.2321 0.281291C23.5269 0.464848 23.7757 0.729249 23.9554 1.04994L29.6878 11.1744C29.8918 11.5353 30.0001 11.9541 30.0001 12.3818C30.0001 12.8095 29.8918 13.2284 29.6878 13.5893L23.9554 23.7137C23.7757 24.0344 23.5269 24.2988 23.2321 24.4824C22.9373 24.6659 22.606 24.7627 22.2691 24.7637H16.1888C16.0097 24.7633 15.834 24.7089 15.68 24.6061C15.5259 24.5033 15.3992 24.356 15.313 24.1793C15.2268 24.0027 15.1843 23.8033 15.1899 23.6019C15.1956 23.4005 15.2491 23.2045 15.345 23.0343L21.3666 12.3743Z" fill="#E26956"/>
<path d="M6.17711 12.3743L0.15551 1.72941C0.0596455 1.55921 0.0061131 1.36319 0.000493168 1.16179C-0.00512677 0.960385 0.0373716 0.760974 0.123558 0.584342C0.209744 0.407709 0.336463 0.260322 0.490505 0.157545C0.644547 0.0547668 0.820272 0.000361395 0.999361 0H7.07829C7.41546 0.000723192 7.747 0.097362 8.04207 0.28093C8.33714 0.464498 8.58617 0.729035 8.76599 1.04994L14.4983 11.1744C14.7023 11.5353 14.8107 11.9541 14.8107 12.3818C14.8107 12.8095 14.7023 13.2284 14.4983 13.5893L8.76599 23.7137C8.58617 24.0346 8.33714 24.2992 8.04207 24.4827C7.747 24.6663 7.41546 24.7629 7.07829 24.7637H0.999361C0.820272 24.7633 0.644547 24.7089 0.490505 24.6061C0.336463 24.5033 0.209744 24.356 0.123558 24.1793C0.0373716 24.0027 -0.00512677 23.8033 0.000493168 23.6019C0.0061131 23.4005 0.0596455 23.2045 0.15551 23.0343L6.17711 12.3743Z" fill="#E26956"/>
</svg>
