<svg width="188" height="184" viewBox="0 0 188 184" fill="none" xmlns="http://www.w3.org/2000/svg">
<rect x="6.50967" y="93.0193" width="128" height="128" transform="rotate(-45 6.50967 93.0193)" fill="#FEEF44"/>
<rect x="2.12132" y="90.5098" width="125" height="125" transform="rotate(-45 2.12132 90.5098)" fill="white" stroke="#B1DA40" stroke-width="3"/>
<path d="M112.096 102.478C109.352 102.478 107.294 104.634 107.49 107.28C107.588 109.24 107.784 111.2 107.882 113.454H71.524C75.934 90.1298 118.564 94.9318 114.35 66.8058C109.842 44.5598 77.208 42.6978 67.212 61.4158C63.096 69.5498 65.35 77.5858 72.014 77.5858C79.168 77.5858 81.128 68.0798 75.052 65.1398C77.306 59.6518 82.696 56.7118 90.536 56.7118C99.454 56.7118 104.746 60.7298 105.922 68.2758C106.804 77.9778 101.512 80.6238 89.556 86.0138C74.366 92.7758 64.076 100.616 62.41 115.414C62.116 118.942 64.958 121.98 68.682 121.98H109.45C112.978 121.98 115.918 119.138 116.114 115.512L116.702 107.28C116.898 104.634 114.84 102.478 112.096 102.478Z" fill="#FEEF44"/>
<path d="M107.49 107.28L110.486 107.13L110.484 107.094L110.482 107.058L107.49 107.28ZM107.882 113.454V116.454H111.015L110.879 113.323L107.882 113.454ZM71.524 113.454L68.5762 112.896L67.9036 116.454H71.524V113.454ZM114.35 66.8058L117.317 66.3612L117.306 66.2853L117.29 66.2099L114.35 66.8058ZM67.212 61.4158L64.5657 60.0026L64.5501 60.0317L64.5352 60.0612L67.212 61.4158ZM75.052 65.1398L72.2769 64L71.2046 66.6109L73.7453 67.8402L75.052 65.1398ZM105.922 68.2758L108.91 68.0042L108.901 67.9086L108.886 67.8138L105.922 68.2758ZM89.556 86.0138L90.7761 88.7545L90.789 88.7487L89.556 86.0138ZM62.41 115.414L59.4288 115.078L59.424 115.121L59.4204 115.165L62.41 115.414ZM116.114 115.512L113.122 115.298L113.12 115.324L113.118 115.35L116.114 115.512ZM116.702 107.28L113.71 107.058L113.71 107.066L116.702 107.28ZM112.096 99.4778C107.699 99.4778 104.167 103.026 104.498 107.501L110.482 107.058C110.421 106.241 111.005 105.478 112.096 105.478V99.4778ZM104.494 107.43C104.545 108.451 104.621 109.47 104.694 110.473C104.767 111.487 104.838 112.504 104.885 113.584L110.879 113.323C110.828 112.15 110.752 111.059 110.678 110.04C110.604 109.009 110.533 108.069 110.486 107.13L104.494 107.43ZM107.882 110.454H71.524V116.454H107.882V110.454ZM74.4718 114.011C75.3834 109.189 78.2481 105.713 82.4189 102.717C86.7033 99.6391 91.9704 97.3279 97.4903 94.6248C102.812 92.0189 108.382 89.0369 112.289 84.6841C116.37 80.1366 118.501 74.2612 117.317 66.3612L111.383 67.2503C112.306 73.4133 110.688 77.4849 107.824 80.6764C104.785 84.0625 100.212 86.6114 94.8517 89.2362C89.6896 91.7639 83.7357 94.3833 78.9183 97.8439C73.9874 101.386 69.8696 106.056 68.5762 112.896L74.4718 114.011ZM117.29 66.2099C114.71 53.4747 104.055 46.7565 93.1106 45.7616C82.2348 44.7729 70.2598 49.3401 64.5657 60.0026L69.8583 62.829C74.1602 54.7734 83.5002 50.9127 92.5674 51.7369C101.566 52.555 109.482 57.8908 111.41 67.4016L117.29 66.2099ZM64.5352 60.0612C62.227 64.6226 61.5438 69.4571 62.6904 73.3906C63.2704 75.3805 64.3442 77.2015 65.9822 78.5318C67.6418 79.8796 69.7136 80.5858 72.014 80.5858V74.5858C70.9824 74.5858 70.2735 74.2874 69.7648 73.8743C69.2346 73.4437 68.7526 72.7473 68.4506 71.7115C67.8332 69.5935 68.081 66.3429 69.8888 62.7703L64.5352 60.0612ZM72.014 80.5858C82.3811 80.5858 85.2797 66.7559 76.3587 62.4393L73.7453 67.8402C76.9763 69.4036 75.9549 74.5858 72.014 74.5858V80.5858ZM77.8271 66.2795C79.4625 62.2975 83.4407 59.7118 90.536 59.7118V53.7118C81.9513 53.7118 75.1495 57.006 72.2769 64L77.8271 66.2795ZM90.536 59.7118C94.5711 59.7118 97.4187 60.622 99.3268 62.0599C101.184 63.4593 102.468 65.5954 102.958 68.7377L108.886 67.8138C108.2 63.4101 106.25 59.7643 102.938 57.2681C99.6763 54.8105 95.4189 53.7118 90.536 53.7118V59.7118ZM102.934 68.5474C103.13 70.701 102.962 72.249 102.569 73.4437C102.187 74.6044 101.537 75.599 100.497 76.5772C98.2362 78.7051 94.4661 80.5094 88.323 83.2788L90.789 88.7487C96.6019 86.1281 101.456 83.9144 104.609 80.9464C106.277 79.3766 107.532 77.5536 108.268 75.321C108.992 73.1225 109.155 70.7015 108.91 68.0042L102.934 68.5474ZM88.3359 83.2731C72.9174 90.1368 61.283 98.6085 59.4288 115.078L65.3912 115.749C66.869 102.623 75.8146 95.4147 90.7761 88.7545L88.3359 83.2731ZM59.4204 115.165C58.9731 120.532 63.2945 124.98 68.682 124.98V118.98C66.6215 118.98 65.2589 117.352 65.3996 115.663L59.4204 115.165ZM68.682 124.98H109.45V118.98H68.682V124.98ZM109.45 124.98C114.635 124.98 118.831 120.828 119.11 115.674L113.118 115.35C113.005 117.448 111.321 118.98 109.45 118.98V124.98ZM119.106 115.726L119.694 107.494L113.71 107.066L113.122 115.298L119.106 115.726ZM119.694 107.501C120.025 103.026 116.493 99.4778 112.096 99.4778V105.478C113.187 105.478 113.771 106.241 113.71 107.058L119.694 107.501Z" fill="#B1DA40"/>
</svg>
