<svg width="188" height="184" viewBox="0 0 188 184" fill="none" xmlns="http://www.w3.org/2000/svg">
<rect x="6.50967" y="93.0193" width="128" height="128" transform="rotate(-45 6.50967 93.0193)" fill="#FEEF44"/>
<rect x="2.12132" y="90.5098" width="125" height="125" transform="rotate(-45 2.12132 90.5098)" fill="white" stroke="#B1DA40" stroke-width="3"/>
<path d="M102.532 90.328C109.784 87.682 114.39 81.508 114.39 74.256C114.39 65.632 106.55 53.872 90.38 53.872C78.13 53.872 68.624 60.34 65.684 70.532C63.92 77 66.86 82.488 72.25 82.488C79.306 82.488 81.266 72.982 75.092 69.944C77.542 64.652 82.834 61.908 90.38 61.908C100.376 61.908 105.766 68.474 105.766 74.256C105.766 82.096 99.788 86.212 87.832 86.8C85.676 86.898 83.912 88.662 83.912 90.72C83.912 92.778 85.578 94.542 87.734 94.64C105.766 95.424 106.746 102.088 106.746 107.968C106.746 116.396 96.456 120.218 89.498 120.218C80.678 120.218 75.68 117.474 73.818 111.79C80.678 109.438 79.012 98.952 71.564 98.952C66.076 98.952 63.136 104.538 64.9 111.496C67.546 121.982 76.856 128.254 89.498 128.254C104.198 128.254 115.272 119.434 115.272 107.478C115.272 98.56 111.058 92.876 102.532 90.328Z" fill="#FEEF44"/>
<path d="M102.532 90.328L101.504 87.5097L93.003 90.6114L101.673 93.2024L102.532 90.328ZM65.684 70.532L62.8015 69.7005L62.7955 69.7215L62.7897 69.7426L65.684 70.532ZM75.092 69.944L72.3696 68.6836L71.1387 71.3423L73.7675 72.6358L75.092 69.944ZM87.832 86.8L87.9682 89.7969L87.9794 89.7964L87.832 86.8ZM87.734 94.64L87.5978 97.6369L87.6037 97.6372L87.734 94.64ZM73.818 111.79L72.845 108.952L70.0459 109.912L70.9671 112.724L73.818 111.79ZM64.9 111.496L67.8088 110.762L67.808 110.759L64.9 111.496ZM103.56 93.1463C111.872 90.1137 117.39 82.896 117.39 74.256H111.39C111.39 80.12 107.696 85.2503 101.504 87.5097L103.56 93.1463ZM117.39 74.256C117.39 64.0012 108.233 50.872 90.38 50.872V56.872C104.867 56.872 111.39 67.2628 111.39 74.256H117.39ZM90.38 50.872C77.054 50.872 66.1795 57.9901 62.8015 69.7005L68.5665 71.3635C71.0685 62.6899 79.206 56.872 90.38 56.872V50.872ZM62.7897 69.7426C61.749 73.5585 62.0163 77.3732 63.65 80.371C65.3341 83.4614 68.3961 85.488 72.25 85.488V79.488C70.7139 79.488 69.6109 78.7706 68.9185 77.5C68.1757 76.1368 67.855 73.9735 68.5783 71.3213L62.7897 69.7426ZM72.25 85.488C77.3771 85.488 80.705 81.9357 81.5635 77.9936C82.4143 74.0871 80.9131 69.4648 76.4165 67.2522L73.7675 72.6358C75.4449 73.4612 76.0507 75.1109 75.701 76.7169C75.359 78.2873 74.1789 79.488 72.25 79.488V85.488ZM77.8144 71.2044C79.6134 67.3185 83.5672 64.908 90.38 64.908V58.908C82.1008 58.908 75.4706 61.9855 72.3696 68.6836L77.8144 71.2044ZM90.38 64.908C98.9905 64.908 102.766 70.3897 102.766 74.256H108.766C108.766 66.5583 101.762 58.908 90.38 58.908V64.908ZM102.766 74.256C102.766 77.2788 101.685 79.3109 99.5675 80.786C97.2529 82.3987 93.4318 83.521 87.6846 83.8036L87.9794 89.7964C94.1882 89.491 99.3341 88.2613 102.997 85.709C106.858 83.0191 108.766 79.0732 108.766 74.256H102.766ZM87.6958 83.8031C84.0646 83.9681 80.912 86.934 80.912 90.72H86.912C86.912 90.5656 86.9785 90.3526 87.1848 90.1463C87.3913 89.9398 87.673 89.8103 87.9682 89.7969L87.6958 83.8031ZM80.912 90.72C80.912 94.4104 83.8682 97.4674 87.5978 97.6369L87.8702 91.6431C87.2878 91.6166 86.912 91.1456 86.912 90.72H80.912ZM87.6037 97.6372C96.4047 98.0198 100.197 99.8311 101.881 101.514C103.457 103.09 103.746 105.101 103.746 107.968H109.746C109.746 104.955 109.545 100.694 106.123 97.2717C102.809 93.9569 97.0953 92.0442 87.8643 91.6428L87.6037 97.6372ZM103.746 107.968C103.746 110.747 102.11 112.975 99.2191 114.662C96.2951 116.369 92.5188 117.218 89.498 117.218V123.218C93.4352 123.218 98.2829 122.156 102.243 119.845C106.237 117.514 109.746 113.617 109.746 107.968H103.746ZM89.498 117.218C85.3537 117.218 82.4547 116.566 80.4748 115.496C78.5964 114.481 77.3718 113.002 76.6689 110.856L70.9671 112.724C72.1262 116.262 74.3316 118.997 77.6227 120.775C80.8123 122.498 84.8223 123.218 89.498 123.218V117.218ZM74.791 114.628C84.8877 111.166 82.3674 95.952 71.564 95.952V101.952C75.6566 101.952 76.4683 107.71 72.845 108.952L74.791 114.628ZM71.564 95.952C67.6478 95.952 64.5527 98.0177 62.8615 101.21C61.2293 104.292 60.9763 108.227 61.992 112.233L67.808 110.759C67.0597 107.807 67.3947 105.47 68.1635 104.019C68.8733 102.679 69.9922 101.952 71.564 101.952V95.952ZM61.9912 112.23C65.0508 124.355 75.826 131.254 89.498 131.254V125.254C77.886 125.254 70.0412 119.609 67.8088 110.762L61.9912 112.23ZM89.498 131.254C105.208 131.254 118.272 121.671 118.272 107.478H112.272C112.272 117.197 103.188 125.254 89.498 125.254V131.254ZM118.272 107.478C118.272 102.543 117.101 98.2179 114.508 94.7258C111.914 91.2326 108.115 88.8653 103.391 87.4536L101.673 93.2024C105.475 94.3387 108.046 96.0874 109.691 98.3027C111.336 100.519 112.272 103.495 112.272 107.478H118.272Z" fill="#B1DA40"/>
</svg>
