
<svg width="188" height="184" viewBox="0 0 188 184" fill="none" xmlns="http://www.w3.org/2000/svg">
<rect x="6.50967" y="93.0193" width="128" height="128" transform="rotate(-45 6.50967 93.0193)" fill="#FEEF44"/>
<rect x="2.12132" y="90.5096" width="125" height="125" transform="rotate(-45 2.12132 90.5096)" fill="white" stroke="#B1DA40" stroke-width="3"/>
<path d="M104.426 114.042C101.486 114.336 98.5457 114.532 95.7037 114.63V53.4776C95.7037 50.2436 92.3717 48.1856 89.6277 49.5576L75.1237 56.5156C72.9677 57.5936 71.9877 60.2396 73.0657 62.3956C74.1437 64.6496 76.7897 65.5316 78.9457 64.4536L86.8837 60.6316V114.63C83.8457 114.532 80.7097 114.336 77.6717 114.042C75.2217 113.846 72.9677 115.806 72.9677 118.452C72.9677 121 75.2217 123.058 77.6717 122.862C86.8837 121.882 95.6057 121.98 104.426 122.862C106.974 123.058 109.13 121 109.13 118.452C109.13 115.806 106.974 113.846 104.426 114.042Z" fill="#FEEF44"/>
<path d="M104.426 114.042L104.196 111.05L104.161 111.053L104.127 111.057L104.426 114.042ZM95.7037 114.63H92.7037V117.735L95.8071 117.628L95.7037 114.63ZM89.6277 49.5576L90.9253 52.2625L90.9474 52.2519L90.9693 52.2409L89.6277 49.5576ZM75.1237 56.5156L73.8261 53.8108L73.804 53.8214L73.782 53.8324L75.1237 56.5156ZM73.0657 62.3956L75.7721 61.1013L75.7607 61.0775L75.749 61.054L73.0657 62.3956ZM78.9457 64.4536L77.6442 61.7506L77.6241 61.7603L77.604 61.7704L78.9457 64.4536ZM86.8837 60.6316H89.8837V55.8576L85.5822 57.9286L86.8837 60.6316ZM86.8837 114.63L86.787 117.628L89.8837 117.728V114.63H86.8837ZM77.6717 114.042L77.9606 111.056L77.9358 111.053L77.9109 111.051L77.6717 114.042ZM77.6717 122.862L77.9109 125.852L77.95 125.849L77.989 125.845L77.6717 122.862ZM104.426 122.862L104.127 125.847L104.161 125.85L104.196 125.853L104.426 122.862ZM104.127 111.057C101.252 111.344 98.3769 111.536 95.6003 111.631L95.8071 117.628C98.7145 117.528 101.72 117.327 104.724 117.027L104.127 111.057ZM98.7037 114.63V53.4776H92.7037V114.63H98.7037ZM98.7037 53.4776C98.7037 48.1088 93.1093 44.4627 88.286 46.8744L90.9693 52.2409C91.634 51.9086 92.7037 52.3785 92.7037 53.4776H98.7037ZM88.3301 46.8528L73.8261 53.8108L76.4213 59.2205L90.9253 52.2625L88.3301 46.8528ZM73.782 53.8324C70.2491 55.5988 68.512 59.9965 70.3824 63.7373L75.749 61.054C75.4634 60.4828 75.6862 59.5885 76.4653 59.1989L73.782 53.8324ZM70.3593 63.69C72.1572 67.4494 76.6231 68.969 80.2873 67.1369L77.604 61.7704C76.9562 62.0943 76.1301 61.8499 75.7721 61.1013L70.3593 63.69ZM80.2471 67.1566L88.1851 63.3346L85.5822 57.9286L77.6442 61.7506L80.2471 67.1566ZM83.8837 60.6316V114.63H89.8837V60.6316H83.8837ZM86.9804 111.631C84.0027 111.535 80.931 111.343 77.9606 111.056L77.3827 117.028C80.4884 117.328 83.6886 117.528 86.787 117.628L86.9804 111.631ZM77.9109 111.051C73.7399 110.718 69.9677 114.03 69.9677 118.452H75.9677C75.9677 117.581 76.7035 116.974 77.4324 117.032L77.9109 111.051ZM69.9677 118.452C69.9677 122.731 73.6952 126.189 77.9109 125.852L77.4324 119.871C76.7482 119.926 75.9677 119.269 75.9677 118.452H69.9677ZM77.989 125.845C86.9734 124.889 95.4876 124.983 104.127 125.847L104.724 119.877C95.7237 118.976 86.794 118.874 77.3543 119.878L77.989 125.845ZM104.196 125.853C108.538 126.187 112.13 122.694 112.13 118.452H106.13C106.13 119.305 105.409 119.928 104.656 119.87L104.196 125.853ZM112.13 118.452C112.13 114.066 108.494 110.72 104.196 111.05L104.656 117.033C105.453 116.971 106.13 117.545 106.13 118.452H112.13Z" fill="#B1DA40"/>
</svg>
