<svg width="175" height="123" viewBox="0 0 175 123" fill="none" xmlns="http://www.w3.org/2000/svg">
<path d="M150.643 40.1338C150.643 40.1338 147.42 24.7326 135.17 17.6231C122.92 10.5136 101.989 9.80755 101.989 9.80755C101.989 9.80755 95.864 6.35951 89.739 4.9803C83.6141 3.60109 65.8839 3.83096 50.4333 9.11794C34.9827 14.4049 28.1899 20.6114 24.6439 25.4386C21.0979 30.2659 20.4531 39.6905 20.4531 39.6905L20.1308 41.5294C20.1308 41.5294 13.361 41.7593 8.8479 47.0463C4.33476 52.3333 0.788727 61.0683 2.40056 68.6375C4.01239 76.2068 8.20317 86.1075 17.5518 88.6361C17.5518 92.5439 25.9333 102.888 37.5386 107.485C49.1438 112.083 58.8148 111.623 58.8148 111.623L58.4924 122.427L73.6437 113.232C73.6437 113.232 80.4134 115.301 96.2094 115.301C112.005 115.301 123.611 114.841 142.285 102.658C155.824 93.9231 153.89 81.5101 153.89 81.5101C153.89 81.5101 165.818 77.6024 170.008 67.2583C174.199 56.9142 163.883 47.2597 160.337 45.2073C156.768 43.1221 150.643 40.1338 150.643 40.1338Z" fill="white"/>
<path d="M164.273 41.528C163.26 40.7891 162.201 40.0502 161.211 39.4099C160.704 39.0979 160.221 38.7859 159.737 38.5397C159.507 38.4083 159.276 38.277 159.046 38.1784C158.816 38.0635 158.609 37.965 158.401 37.8829C157.895 37.6366 157.342 37.5381 156.905 37.5217C156.467 37.5217 156.099 37.6202 155.961 37.8172C155.823 38.0142 155.869 38.2934 156.076 38.5561C156.306 38.8188 156.675 39.0815 157.135 39.2949C158.24 39.7875 159.346 40.3294 160.359 40.8712C160.612 41.0025 160.865 41.1503 161.096 41.2817C161.326 41.413 161.556 41.5608 161.786 41.6921C162.224 41.9549 162.615 42.2176 162.961 42.4638C167.911 46.1089 171.273 50.8705 172.471 55.8783C173.069 58.374 173.138 60.9519 172.609 63.4476C172.079 65.9433 170.951 68.3733 169.201 70.5407C168.648 71.2303 167.819 72.0184 166.829 72.7572C165.839 73.5125 164.665 74.2186 163.467 74.7932C163.214 74.9246 162.961 75.0559 162.776 75.2037C162.684 75.2694 162.592 75.3515 162.5 75.4336C162.408 75.4993 162.339 75.5813 162.27 75.647C162.017 75.9426 161.924 76.2545 162.086 76.5008C162.247 76.7471 162.661 76.8785 163.191 76.8785C163.329 76.8785 163.467 76.8785 163.628 76.862C163.767 76.8456 163.928 76.8128 164.089 76.7799C164.388 76.6979 164.734 76.5993 165.033 76.4352C166 75.9754 167.128 75.2365 168.165 74.3335C169.224 73.4304 170.191 72.3796 171.066 71.3124C172.954 68.948 174.128 66.3373 174.658 63.661C175.188 61.0011 175.095 58.2755 174.428 55.632C173.76 52.9885 172.54 50.4271 170.836 48.0464C169.109 45.6327 166.921 43.4326 164.273 41.528Z" fill="black"/>
<path d="M118.98 7.62234C116.125 7.21186 113.178 6.76855 111.267 6.65361C111.013 6.63719 110.76 6.63719 110.553 6.65361L110.323 8.22985C111.175 8.19702 111.842 7.93431 111.911 7.57309C111.98 7.21186 111.428 6.85064 110.599 6.65361L110.369 8.22985C110.576 8.27911 110.806 8.31195 111.059 8.32837C113.753 8.49256 116.655 8.62391 118.612 8.90304C120.408 9.16575 122.204 9.47771 123.954 9.83893C124.392 9.93745 124.829 10.036 125.267 10.1345C125.704 10.233 126.142 10.3315 126.579 10.4464L127.869 10.7748L129.135 11.1525C129.342 11.2181 129.549 11.2674 129.78 11.3331L130.401 11.5301C130.816 11.6615 131.23 11.7928 131.645 11.9406C132.451 12.2361 133.28 12.5317 134.063 12.8601C134.868 13.172 135.628 13.5333 136.388 13.8945C136.78 14.0751 137.125 14.2721 137.493 14.4527C137.862 14.6333 138.23 14.8304 138.576 15.0438C144.309 18.2291 148.477 22.7608 150.572 27.703C150.918 28.4911 151.217 29.4763 151.401 30.56C151.447 30.8227 151.493 31.1018 151.563 31.3809C151.609 31.66 151.632 31.9392 151.655 32.2183C151.747 32.7765 151.747 33.3348 151.816 33.8931C151.816 34.008 151.839 34.1229 151.885 34.2379C151.908 34.3528 151.931 34.4677 151.977 34.5662C152.046 34.7797 152.161 34.9603 152.276 35.1245C152.53 35.4365 152.875 35.6499 153.266 35.6663C153.658 35.6663 154.003 35.4693 154.257 35.1409C154.372 34.9767 154.487 34.7633 154.556 34.5498C154.602 34.4349 154.625 34.3199 154.625 34.1886C154.625 34.0737 154.625 33.9423 154.625 33.811C154.602 33.6139 154.579 33.3841 154.556 33.1542C154.533 32.9243 154.51 32.678 154.441 32.4317C154.372 32.1855 154.326 31.9227 154.257 31.6436C154.234 31.5123 154.188 31.3645 154.164 31.2331C154.118 31.1018 154.072 30.954 154.026 30.8227C153.842 30.2644 153.658 29.6733 153.428 29.0822C153.313 28.7867 153.22 28.4911 153.082 28.1792C152.944 27.8836 152.829 27.5881 152.691 27.2925C152.622 27.1283 152.553 26.9641 152.484 26.8L152.253 26.3238C152.092 25.9954 151.931 25.6835 151.77 25.3551C151.401 24.7311 151.056 24.0908 150.618 23.4833C149.813 22.2518 148.822 21.0697 147.74 19.9367L146.911 19.0994C146.635 18.8202 146.313 18.5575 146.036 18.2948C145.461 17.753 144.793 17.2604 144.171 16.735C143.849 16.4887 143.503 16.2424 143.158 16.0125L142.651 15.6513L142.122 15.3065L141.04 14.6169L139.911 13.9766C139.543 13.7631 139.151 13.5661 138.76 13.3691C138.368 13.172 137.977 12.9586 137.586 12.778C136.78 12.4167 135.974 12.0391 135.145 11.7107C134.316 11.3659 133.464 11.0704 132.612 10.7584C132.174 10.6106 131.737 10.4793 131.322 10.3315L130.678 10.1181C130.47 10.0524 130.24 9.98671 130.01 9.92103L128.674 9.54339L127.339 9.19858C126.901 9.08365 126.441 8.98514 125.98 8.88662C125.52 8.78811 125.082 8.67317 124.622 8.59108C122.665 8.19701 120.823 7.86863 118.98 7.62234Z" fill="black"/>
<path d="M25.1948 25.5357C24.4119 27.1119 23.7441 28.7374 23.3066 30.2644C23.0764 31.0197 22.9612 31.7585 22.8231 32.4481C22.777 32.7929 22.754 33.1213 22.731 33.4333C22.708 33.5811 22.708 33.7453 22.6849 33.893C22.6849 34.0408 22.6849 34.1886 22.6849 34.3199C22.6849 34.6647 22.731 35.0095 22.8001 35.3051C22.8691 35.6006 23.0073 35.8797 23.1224 36.0932C23.3757 36.5365 23.6981 36.7828 24.0435 36.7664C24.3659 36.7335 24.6191 36.438 24.8033 36.0111C24.8954 35.7977 24.9415 35.5349 24.9875 35.2394C25.0336 34.9603 25.0566 34.6483 25.0566 34.3199C25.0566 32.8258 25.2178 31.266 25.5402 29.8211C25.8856 28.3762 26.3922 27.0462 26.8987 25.9954C28.902 22.104 32.0796 18.5575 36.0862 15.5528C40.1388 12.5317 44.9283 10.0688 50.0401 8.04922C52.596 7.04765 55.267 6.16102 57.9841 5.37289C60.7012 4.58477 63.4644 3.89517 66.2736 3.30408C69.0828 2.71299 71.938 2.26967 74.8163 1.97412C77.6946 1.67858 80.6189 1.49797 83.4972 1.54722C83.9577 1.54722 84.4413 1.58006 84.9478 1.59648C85.4544 1.62932 85.984 1.62932 86.5366 1.67858C87.6189 1.79351 88.7932 1.87561 89.9675 2.07264C90.2669 2.12189 90.5662 2.15473 90.8656 2.20399C91.0037 2.22041 91.1649 2.25325 91.3261 2.26967L91.7636 2.35176C92.3623 2.4667 92.9609 2.58163 93.5596 2.69657C94.1583 2.82792 94.734 2.99211 95.3327 3.12347C95.632 3.20556 95.9313 3.25482 96.2076 3.33692C96.484 3.41901 96.7833 3.50111 97.0596 3.5832C97.5432 3.73098 98.0498 3.82949 98.4872 3.92801C98.9247 4.02652 99.3392 4.10862 99.7307 4.14146C100.468 4.20713 101.043 4.14146 101.227 3.89517C101.412 3.64888 101.181 3.28766 100.606 2.8936C100.329 2.69657 99.9609 2.48312 99.5464 2.26967C99.132 2.07264 98.6254 1.90845 98.0728 1.74425C97.8655 1.67858 97.6353 1.6129 97.405 1.56364C97.1748 1.49797 96.9445 1.43229 96.6912 1.38303C96.2076 1.28452 95.678 1.16958 95.1254 1.05465C94.8491 1.00539 94.5728 0.939713 94.2965 0.890456C93.9971 0.841198 93.7208 0.80836 93.4215 0.759102C92.8228 0.677006 92.2011 0.562072 91.5794 0.496395C89.0465 0.20085 86.2373 0.0530771 83.4972 0.00381948C80.4577 -0.0290189 77.4413 0.151592 74.4479 0.479976C71.4545 0.80836 68.5071 1.2681 65.6288 1.89203C62.7506 2.49954 59.9183 3.22198 57.1321 4.04294C54.369 4.8639 51.6519 5.78337 49.0039 6.81778C43.7539 8.90302 38.8263 11.4644 34.6586 14.6005C30.5829 17.7365 27.2672 21.4637 25.1948 25.5357Z" fill="black"/>
<path d="M98.8094 111.654C94.8949 111.638 90.9344 111.178 88.4476 110.965C86.8587 110.817 85.4772 111.047 85.3851 111.507C85.293 111.966 86.5364 112.475 88.1712 112.623C91.9245 112.968 96.0232 112.951 98.8094 112.951C99.4541 112.968 100.099 112.951 100.744 112.951C101.388 112.935 102.033 112.951 102.678 112.919C103.967 112.869 105.257 112.853 106.546 112.754C109.125 112.623 111.681 112.36 114.237 112.048L116.148 111.786L116.632 111.72L117.115 111.638L118.059 111.474C119.326 111.277 120.569 111.014 121.813 110.751C124.276 110.193 126.74 109.586 129.089 108.83C133.855 107.353 138.299 105.349 142.329 103.018C142.836 102.722 143.319 102.41 143.803 102.098L144.539 101.639C144.77 101.474 145 101.31 145.253 101.162L146.658 100.194L147.993 99.1758L148.661 98.6668L149.283 98.1249L150.526 97.0413L151.678 95.9083C151.862 95.7277 152.069 95.5307 152.253 95.3501L152.783 94.759C153.22 94.25 153.773 93.7246 154.257 93.1007C154.763 92.4931 155.339 91.8528 155.822 91.1468C156.076 90.802 156.329 90.4407 156.605 90.0795C156.835 89.7019 157.066 89.3407 157.296 88.963C157.78 88.2242 158.125 87.436 158.493 86.6643C158.562 86.5001 158.632 86.336 158.678 86.1718C158.724 86.0076 158.747 85.8434 158.77 85.6956C158.816 85.3836 158.816 85.1045 158.77 84.8582C158.678 84.3657 158.447 84.0537 158.079 83.988C157.71 83.9223 157.273 84.1358 156.882 84.5298C156.674 84.7269 156.49 84.9567 156.329 85.2195C156.237 85.3508 156.168 85.4986 156.099 85.6463C156.03 85.7941 155.937 85.9419 155.868 86.1061C155.753 86.3524 155.638 86.6151 155.523 86.8942C155.385 87.1733 155.293 87.4853 155.132 87.7808C154.97 88.0928 154.809 88.4048 154.648 88.7332C154.487 89.0615 154.326 89.4063 154.095 89.7511C153.681 90.4243 153.266 91.1632 152.737 91.8528C152.484 92.1976 152.207 92.5588 151.954 92.92C151.655 93.2648 151.355 93.6096 151.056 93.938L150.549 94.4963C150.365 94.6769 150.181 94.8575 149.997 95.0381L148.891 96.1218L147.717 97.1562L147.118 97.6816L146.497 98.1742L145.23 99.1593L143.895 100.095C143.664 100.243 143.457 100.407 143.227 100.555L142.513 100.998C142.053 101.294 141.592 101.589 141.109 101.885C137.24 104.151 132.98 106.105 128.398 107.533C126.118 108.288 123.747 108.879 121.352 109.421C120.155 109.668 118.934 109.93 117.714 110.127L116.793 110.292L116.332 110.374L115.872 110.439L114.03 110.702C111.543 111.014 109.056 111.293 106.546 111.424C105.303 111.523 104.036 111.539 102.77 111.605C102.148 111.621 101.503 111.621 100.882 111.638C100.076 111.654 99.4311 111.671 98.8094 111.654Z" fill="black"/>
<path d="M24.9414 89.4555C24.4118 88.7331 23.9512 87.9778 23.6519 87.3046C23.3295 86.615 23.1453 86.0075 23.0072 85.5478C22.9151 85.2522 22.7539 85.0059 22.5236 84.8089C22.2934 84.6283 21.994 84.4969 21.6716 84.4969C21.3493 84.4969 21.0499 84.6447 20.8657 84.891C20.6815 85.1373 20.5894 85.4985 20.7046 85.8762C20.9348 86.73 21.4414 87.5345 21.948 88.2241C22.4545 88.9301 22.9611 89.5376 23.3295 90.0466C24.6881 91.9348 26.0466 93.8231 27.6354 95.662C29.2242 97.4845 31.0433 99.2578 33.2538 100.768L34.0828 101.327C34.3591 101.507 34.6584 101.688 34.9578 101.852C35.5334 102.213 36.1551 102.525 36.7538 102.87C37.9972 103.494 39.2637 104.101 40.5992 104.627C43.2472 105.694 46.0103 106.564 48.8195 107.32C50.5926 107.796 53.1485 108.633 55.6123 109.175C56.6715 109.421 57.7307 109.191 57.9609 108.666C58.1912 108.141 57.5234 107.533 56.4642 107.287C54.8063 106.909 52.0893 106.548 49.6024 105.875C46.8623 105.152 44.1682 104.331 41.6354 103.33C40.3689 102.837 39.1485 102.279 37.9742 101.688C37.3985 101.376 36.7999 101.08 36.2703 100.752L35.4413 100.259L34.6584 99.734C32.5861 98.3219 30.8361 96.6636 29.2703 94.9231C27.6815 93.1827 26.2999 91.3109 24.9414 89.4555Z" fill="black"/>
<path d="M10.2969 77.8636C10.8496 78.8816 11.4022 79.8996 11.9318 80.8355C12.4614 81.7714 12.968 82.6088 13.4285 83.2327C14.0041 84.0373 14.9712 84.4806 15.5469 84.2671C16.1226 84.0373 16.0765 83.2327 15.5239 82.461C14.2114 80.6878 12.7838 78.7667 12.0239 77.3875C10.6193 74.8261 9.49101 72.199 8.63904 69.5391C7.78707 66.8628 7.23443 64.1536 7.05022 61.428C6.88904 58.7025 7.14234 55.9769 7.92523 53.3334C8.70812 50.6899 10.0667 48.1449 12.0009 45.8462C12.3002 45.4686 12.6916 45.0909 13.0831 44.6641C13.5206 44.2536 13.9811 43.8267 14.5107 43.4162C15.5469 42.5788 16.7443 41.7414 17.9416 41.0026C18.2179 40.8384 18.4252 40.6742 18.6324 40.4936C18.8166 40.313 18.9778 40.1488 19.0929 39.9682C19.3002 39.6234 19.3462 39.295 19.116 39.0815C18.8857 38.8517 18.4482 38.786 17.8956 38.8517C17.6193 38.8845 17.3199 38.9502 17.0206 39.0651C16.7212 39.18 16.4219 39.3278 16.1226 39.5084C15.2245 40.0831 14.1423 40.8876 13.1291 41.8564C12.093 42.8251 11.0798 43.9416 10.1588 45.0581C8.13246 47.521 6.70483 50.2466 5.89891 53.0214C5.093 55.8127 4.86275 58.6696 5.04696 61.4773C5.25419 64.3014 5.85286 67.0927 6.75089 69.8347C7.64891 72.5767 8.82325 75.2694 10.2969 77.8636Z" fill="black"/>
<path d="M63.0731 117.959C62.1981 118.485 61.1158 118.846 60.5172 119.158C60.1487 119.371 60.1718 119.831 60.5862 120.192C60.9777 120.554 61.6224 120.685 61.9908 120.471C62.8428 119.979 63.6257 119.322 64.2474 118.944C68.8757 116.252 73.2737 113.346 77.3954 110.242C78.0401 109.75 79.1914 109.142 80.0434 108.453C80.4118 108.157 80.2506 107.615 79.6749 107.254C79.0993 106.893 78.3394 106.844 77.971 107.139C77.3954 107.599 76.7506 108.502 75.8296 109.191C71.823 112.311 67.5632 115.234 63.0731 117.959Z" fill="black"/>
<path d="M61.5303 117.959C61.5073 118.632 61.1849 119.306 61.1619 119.749C61.1619 120.028 61.6685 120.258 62.3132 120.274C62.958 120.291 63.5106 120.077 63.5106 119.798C63.5336 119.158 63.3264 118.468 63.3494 118.009L63.902 107.615C63.9251 107.057 64.2244 106.269 64.2474 105.514C64.2705 105.185 63.6487 104.906 62.8889 104.89C62.129 104.873 61.4843 105.12 61.4843 105.448C61.4613 105.957 61.7836 106.778 61.7606 107.566L61.5303 117.959Z" fill="black"/>
<path d="M48.342 61.18L46.942 60.032C46.648 60.13 46.172 60.186 45.64 60.186H37.87C37.394 60.186 36.624 60.116 36.26 60.06V62.02C36.554 61.992 37.31 61.922 37.87 61.922H45.276C44.618 63.07 43.302 64.694 41.72 65.954C40.838 65.184 39.914 64.428 39.354 64.008L37.87 65.198C38.71 65.8 40.138 67.06 40.95 67.886C41.86 68.81 43.036 70.126 43.624 70.91L45.262 69.608C44.716 68.95 43.89 68.04 43.092 67.242C45.066 65.646 46.858 63.406 47.866 61.768C47.978 61.586 48.146 61.404 48.342 61.18ZM52.374 59.36L51.058 60.76C52.08 61.474 53.83 63 54.558 63.784L55.986 62.328C55.174 61.474 53.354 60.018 52.374 59.36ZM50.624 68.684L51.8 70.532C53.774 70.196 55.58 69.412 56.994 68.558C59.248 67.2 61.11 65.268 62.174 63.378L61.082 61.404C60.2 63.294 58.38 65.436 55.986 66.85C54.628 67.662 52.808 68.376 50.624 68.684ZM67.326 58.912L66.304 60.452C67.228 60.97 68.684 61.922 69.468 62.468L70.518 60.914C69.79 60.41 68.25 59.416 67.326 58.912ZM64.722 68.852L65.772 70.7C67.018 70.476 69.02 69.776 70.448 68.964C72.744 67.648 74.718 65.87 76.02 63.938L74.942 62.034C73.822 64.036 71.876 65.954 69.496 67.284C67.97 68.124 66.29 68.586 64.722 68.852ZM65.17 62.104L64.148 63.658C65.086 64.148 66.542 65.1 67.34 65.646L68.362 64.078C67.648 63.574 66.108 62.608 65.17 62.104ZM79.982 62.09V63.784C80.318 63.756 81.2 63.728 81.718 63.728H86.338V65.422H81.872C81.34 65.422 80.71 65.408 80.346 65.38V67.032C80.668 67.018 81.34 67.004 81.872 67.004H86.338V68.866H81.046C80.542 68.866 80.066 68.838 79.828 68.81V70.532C80.066 70.518 80.64 70.49 81.032 70.49H86.338C86.338 70.7 86.338 70.924 86.324 71.05H88.088C88.088 70.798 88.074 70.322 88.074 70.098V63.07C88.074 62.776 88.074 62.314 88.088 62.132C87.864 62.146 87.346 62.16 87.01 62.16H81.718C81.2 62.16 80.346 62.132 79.982 62.09ZM94.374 59.36L93.058 60.76C94.08 61.474 95.83 63 96.558 63.784L97.986 62.328C97.174 61.474 95.354 60.018 94.374 59.36ZM92.624 68.684L93.8 70.532C95.774 70.196 97.58 69.412 98.994 68.558C101.248 67.2 103.11 65.268 104.174 63.378L103.082 61.404C102.2 63.294 100.38 65.436 97.986 66.85C96.628 67.662 94.808 68.376 92.624 68.684ZM105.994 66.332C105.882 67.508 105.658 68.754 105.252 69.58C105.616 69.706 106.232 70 106.526 70.182C106.932 69.286 107.226 67.886 107.366 66.57L105.994 66.332ZM109.032 66.584C109.354 67.41 109.718 68.488 109.844 69.188L111.076 68.74C110.922 68.04 110.558 67.018 110.208 66.22L109.032 66.584ZM115.444 67.732H117.936V66.262H115.444V64.596H113.806V66.262H111.426V67.732H113.806V69.37H110.6V70.826H118.51V69.37H115.444V67.732ZM115.878 60.214C115.514 60.83 115.052 61.39 114.506 61.88C113.96 61.39 113.498 60.83 113.162 60.214H115.878ZM117.012 58.716L116.718 58.786H110.922V60.214H112.518L111.622 60.508C112.07 61.376 112.616 62.132 113.274 62.79C112.434 63.294 111.496 63.686 110.488 63.952C110.292 63.504 110.068 63.056 109.844 62.664L108.738 63.126C108.906 63.434 109.074 63.784 109.228 64.134L107.884 64.19C108.766 63.056 109.732 61.642 110.502 60.424L109.144 59.794C108.822 60.48 108.374 61.278 107.898 62.062C107.758 61.894 107.604 61.698 107.422 61.502C107.926 60.718 108.486 59.64 108.99 58.688L107.548 58.156C107.31 58.898 106.918 59.822 106.526 60.592C106.414 60.494 106.302 60.396 106.204 60.312L105.406 61.446C105.98 62.006 106.652 62.748 107.058 63.35C106.834 63.672 106.61 63.98 106.4 64.246L105.392 64.288L105.532 65.73L107.562 65.604V71.232H109.004V65.506L109.718 65.45C109.802 65.716 109.858 65.954 109.9 66.164L111.076 65.632C110.992 65.184 110.768 64.582 110.502 63.98C110.824 64.33 111.202 64.946 111.384 65.324C112.546 64.96 113.624 64.484 114.576 63.854C115.472 64.47 116.522 64.932 117.698 65.254C117.922 64.862 118.37 64.232 118.72 63.91C117.656 63.686 116.69 63.322 115.85 62.846C116.844 61.894 117.628 60.704 118.132 59.22L117.012 58.716ZM129.36 69.342H122.794V68.124H129.36V69.342ZM123.928 63.644H128.086V64.624H123.928V63.644ZM129.696 65.842V62.412H122.388V65.842H124.936C124.88 66.122 124.796 66.416 124.726 66.696H121.212V71.246H122.794V70.784H129.36V71.246H131.012V66.696H126.378C126.504 66.43 126.63 66.15 126.742 65.842H129.696ZM130.06 60.312C130.452 59.85 130.872 59.29 131.278 58.758L129.486 58.198C129.22 58.87 128.688 59.71 128.24 60.312H125.944L126.924 59.948C126.728 59.444 126.266 58.646 125.86 58.1L124.404 58.59C124.74 59.122 125.118 59.808 125.314 60.312H123.158L123.606 60.116C123.368 59.598 122.822 58.856 122.36 58.324L120.918 58.954C121.24 59.36 121.59 59.864 121.842 60.312H120.134V63.294H121.66V61.726H130.41V63.294H132.02V60.312H130.06ZM139.37 59.038L137.284 58.828C137.312 59.71 137.186 60.732 136.99 61.782C136.276 61.852 135.618 61.894 135.184 61.908C134.666 61.922 134.204 61.95 133.686 61.908L133.854 63.812C134.288 63.742 135.016 63.644 135.422 63.574C135.674 63.546 136.122 63.49 136.626 63.434C136.108 65.352 135.142 68.18 133.784 70.014L135.604 70.742C136.892 68.684 137.928 65.366 138.46 63.238C138.866 63.21 139.216 63.182 139.44 63.182C140.308 63.182 140.798 63.336 140.798 64.456C140.798 65.842 140.602 67.536 140.224 68.334C140 68.796 139.65 68.936 139.174 68.936C138.81 68.936 137.998 68.796 137.466 68.642L137.76 70.49C138.236 70.588 138.908 70.686 139.44 70.686C140.504 70.686 141.274 70.378 141.736 69.398C142.338 68.18 142.534 65.912 142.534 64.26C142.534 62.244 141.484 61.586 140 61.586C139.706 61.586 139.3 61.614 138.824 61.642C138.922 61.138 139.034 60.62 139.118 60.2C139.188 59.85 139.286 59.402 139.37 59.038ZM145.6 57.876L144.48 58.324C144.872 58.856 145.32 59.682 145.614 60.256L146.72 59.78C146.482 59.29 145.964 58.408 145.6 57.876ZM143.934 58.506L142.828 58.968C143.15 59.416 143.5 60.088 143.78 60.62L142.52 61.166C143.514 62.398 144.508 64.862 144.872 66.416L146.65 65.604C146.258 64.358 145.208 62.02 144.368 60.718L145.054 60.424C144.788 59.906 144.284 59.024 143.934 58.506ZM38.808 75.906C38.808 76.06 38.78 76.452 38.752 76.984C38.15 77.068 37.534 77.138 37.128 77.166C36.638 77.194 36.316 77.194 35.91 77.18L36.092 78.972C36.876 78.86 37.954 78.72 38.64 78.636C38.626 78.972 38.598 79.308 38.57 79.63C37.772 80.806 36.372 82.654 35.574 83.634L36.68 85.16C37.17 84.502 37.856 83.48 38.444 82.598C38.43 83.774 38.416 84.586 38.388 85.678C38.388 85.902 38.374 86.406 38.346 86.714H40.278C40.236 86.392 40.194 85.888 40.18 85.636C40.096 84.32 40.096 83.144 40.096 81.996C40.096 81.632 40.11 81.226 40.124 80.82C41.3 79.742 42.602 79.028 44.086 79.028C45.486 79.028 46.368 80.036 46.368 81.128C46.382 83.312 44.618 84.32 42.154 84.684L42.994 86.378C46.466 85.692 48.244 83.998 48.244 81.17C48.23 78.916 46.536 77.39 44.38 77.39C43.12 77.39 41.678 77.782 40.264 78.832C40.278 78.706 40.278 78.566 40.292 78.44C40.53 78.076 40.81 77.614 41.006 77.362L40.488 76.704C40.6 75.822 40.712 75.108 40.796 74.716L38.752 74.646C38.822 75.08 38.808 75.5 38.808 75.906ZM55.468 74.94L53.382 74.73C53.396 75.612 53.284 76.634 53.088 77.698C52.374 77.754 51.716 77.796 51.282 77.81C50.764 77.824 50.288 77.852 49.784 77.81L49.952 79.714C50.372 79.644 51.114 79.546 51.506 79.476C51.772 79.448 52.206 79.392 52.71 79.336C52.206 81.254 51.24 84.082 49.882 85.916L51.702 86.644C52.99 84.586 54.026 81.268 54.558 79.14C54.95 79.112 55.3 79.084 55.524 79.084C56.406 79.084 56.882 79.238 56.882 80.358C56.882 81.744 56.7 83.438 56.322 84.236C56.098 84.698 55.734 84.838 55.272 84.838C54.894 84.838 54.096 84.698 53.55 84.544L53.858 86.392C54.334 86.49 54.992 86.588 55.538 86.588C56.588 86.588 57.372 86.28 57.834 85.3C58.436 84.082 58.632 81.814 58.632 80.162C58.632 78.146 57.582 77.488 56.098 77.488C55.804 77.488 55.384 77.516 54.922 77.544C55.02 77.04 55.118 76.522 55.216 76.102C55.286 75.752 55.384 75.304 55.468 74.94ZM60.284 76.256L58.618 76.97C59.612 78.202 60.606 80.736 60.97 82.29L62.748 81.464C62.328 80.134 61.152 77.46 60.284 76.256ZM68.46 84.348C68.46 83.998 68.796 83.676 69.328 83.676C70.084 83.676 70.602 84.264 70.686 85.174C70.434 85.202 70.168 85.216 69.874 85.216C69.034 85.216 68.46 84.866 68.46 84.348ZM66.08 75.332L66.136 77.152C66.458 77.11 66.906 77.068 67.284 77.04C68.026 76.998 69.958 76.914 70.672 76.9C69.986 77.502 68.53 78.678 67.746 79.322C66.92 80.008 65.226 81.436 64.232 82.234L65.506 83.55C67.004 81.842 68.404 80.708 70.546 80.708C72.198 80.708 73.458 81.562 73.458 82.822C73.458 83.676 73.066 84.32 72.296 84.726C72.1 83.396 71.05 82.332 69.314 82.332C67.83 82.332 66.808 83.382 66.808 84.516C66.808 85.916 68.278 86.812 70.224 86.812C73.612 86.812 75.292 85.062 75.292 82.85C75.292 80.806 73.486 79.322 71.106 79.322C70.658 79.322 70.238 79.364 69.776 79.476C70.658 78.776 72.128 77.544 72.884 77.012C73.206 76.774 73.542 76.578 73.864 76.368L72.954 75.122C72.786 75.178 72.464 75.22 71.89 75.276C71.092 75.346 68.096 75.402 67.354 75.402C66.962 75.402 66.472 75.388 66.08 75.332ZM83.286 82.402H84.714L85.092 77.614L85.162 75.528H82.838L82.908 77.614L83.286 82.402ZM84 86.126C84.7 86.126 85.232 85.622 85.232 84.894C85.232 84.152 84.7 83.648 84 83.648C83.3 83.648 82.768 84.152 82.768 84.894C82.768 85.622 83.286 86.126 84 86.126Z" fill="black"/>
<rect width="52" height="23" transform="translate(35 28)" fill="#FEEF44"/>
<path d="M50.78 34.476H47.112V33.986H50.78V34.476ZM50.78 35.876H47.112V35.372H50.78V35.876ZM52.418 33.034H45.544V36.828H52.418V33.034ZM51.564 39.236H50.584V38.312H51.564V39.236ZM49.338 39.236H48.386V38.312H49.338V39.236ZM47.14 39.236H46.216V38.312H47.14V39.236ZM53.062 37.304H44.802V40.244H53.062V37.304ZM44.76 34.616C44.172 34.084 42.982 33.37 42.114 32.922L41.134 34.07C42.016 34.574 43.178 35.344 43.71 35.89L44.76 34.616ZM43.976 38.284C43.402 37.78 42.254 37.052 41.4 36.604L40.42 37.738C41.274 38.242 42.408 39.04 42.912 39.586L43.976 38.284ZM43.164 40.118C42.394 41.686 41.4 43.366 40.714 44.388L42.156 45.48C42.912 44.164 43.738 42.624 44.41 41.21L43.164 40.118ZM50.332 42.022C49.912 42.414 49.394 42.736 48.82 43.016C48.246 42.722 47.728 42.4 47.308 42.022H50.332ZM51.816 40.664L51.522 40.72H44.55V42.022H45.376C45.866 42.666 46.44 43.212 47.112 43.688C46.104 43.996 45.012 44.192 43.892 44.318C44.172 44.668 44.494 45.326 44.634 45.732C46.09 45.508 47.504 45.172 48.75 44.64C49.884 45.158 51.172 45.508 52.614 45.732C52.824 45.312 53.258 44.64 53.608 44.304C52.502 44.178 51.466 43.996 50.542 43.702C51.522 43.044 52.32 42.232 52.866 41.21L51.816 40.664ZM65.242 43.324H56.786V35.96H55.162V45.718H56.786V44.892H65.242V45.704H66.852V35.96H65.242V43.324ZM62.89 38.69H61.672V37.514H62.89V38.69ZM62.89 41.14H61.672V39.95H62.89V41.14ZM59.026 39.95H60.244V41.14H59.026V39.95ZM59.026 37.514H60.244V38.69H59.026V37.514ZM54.742 33.482V35.036H60.118V36.156H57.668V42.498H64.332V36.156H61.784V35.036H67.272V33.482H54.742ZM68.966 34.896L69.148 36.814C70.772 36.464 73.628 36.156 74.944 36.016C73.992 36.73 72.858 38.326 72.858 40.342C72.858 43.38 75.63 44.948 78.57 45.144L79.228 43.226C76.848 43.1 74.692 42.274 74.692 39.964C74.692 38.298 75.966 36.492 77.66 36.044C78.402 35.862 79.606 35.862 80.362 35.848L80.348 34.056C79.354 34.098 77.828 34.182 76.386 34.308C73.824 34.518 71.514 34.728 70.338 34.826C70.072 34.854 69.526 34.882 68.966 34.896ZM78.36 37.22L77.324 37.654C77.772 38.284 78.066 38.83 78.416 39.6L79.48 39.124C79.214 38.578 78.71 37.724 78.36 37.22ZM79.928 36.576L78.906 37.052C79.354 37.668 79.676 38.186 80.054 38.942L81.104 38.438C80.81 37.892 80.278 37.066 79.928 36.576Z" fill="#550D76"/>
</svg>
