<svg width="485" height="341" viewBox="0 0 485 341" fill="none" xmlns="http://www.w3.org/2000/svg">
<path d="M67.4025 110.978C67.4025 110.978 76.3234 68.3908 110.223 48.7315C144.122 29.0722 202.044 27.1199 202.044 27.1199C202.044 27.1199 218.994 17.5853 235.943 13.7715C252.893 9.95771 301.958 10.5933 344.714 25.213C387.471 39.8326 406.268 56.9947 416.081 70.3431C425.894 83.6914 427.679 109.752 427.679 109.752L428.571 114.838C428.571 114.838 447.304 115.473 459.794 130.093C472.283 144.712 482.096 168.867 477.635 189.797C473.175 210.728 461.578 238.105 435.707 245.097C435.707 255.903 412.513 284.507 380.398 297.22C348.283 309.932 321.52 308.661 321.52 308.661L322.412 338.536L280.484 313.11C280.484 313.11 261.75 318.831 218.038 318.831C174.326 318.831 142.21 317.56 90.5331 283.871C53.0654 259.717 58.4179 225.393 58.4179 225.393C58.4179 225.393 25.4107 214.587 13.8135 185.983C2.21639 157.38 30.7632 130.683 40.5762 125.008C50.4528 119.242 67.4025 110.978 67.4025 110.978Z" fill="white"/>
<path d="M29.6844 114.834C32.4881 112.79 35.4193 110.747 38.1592 108.977C39.5611 108.114 40.8992 107.251 42.2374 106.57C42.8746 106.207 43.5118 105.844 44.149 105.571C44.7862 105.254 45.3597 104.981 45.9331 104.754C47.335 104.073 48.8643 103.801 50.075 103.755C51.2857 103.755 52.3052 104.028 52.6875 104.573C53.0699 105.117 52.9424 105.889 52.3689 106.616C51.7317 107.342 50.7122 108.069 49.4378 108.659C46.3792 110.021 43.3206 111.519 40.5169 113.017C39.816 113.381 39.1151 113.789 38.4778 114.153C37.8406 114.516 37.2034 114.924 36.5662 115.288C35.3555 116.014 34.2723 116.74 33.3165 117.422C19.6166 127.501 10.3134 140.668 6.99988 154.515C5.34315 161.417 5.15198 168.545 6.61756 175.446C8.08313 182.347 11.2054 189.067 16.0482 195.06C17.5775 196.967 19.8714 199.146 22.6114 201.189C25.3514 203.278 28.6012 205.23 31.9146 206.819C32.6156 207.182 33.3165 207.546 33.8262 207.954C34.0811 208.136 34.336 208.363 34.5909 208.59C34.8458 208.771 35.0369 208.998 35.2281 209.18C35.929 209.997 36.1839 210.86 35.7379 211.541C35.2918 212.222 34.1448 212.585 32.6793 212.585C32.2969 212.585 31.9146 212.585 31.4686 212.54C31.0863 212.494 30.6402 212.404 30.1942 212.313C29.3658 212.086 28.41 211.813 27.5816 211.359C24.9054 210.088 21.7831 208.045 18.9156 205.548C15.9845 203.051 13.3082 200.145 10.8868 197.194C5.66175 190.656 2.412 183.437 0.946426 176.036C-0.519147 168.681 -0.264265 161.144 1.58363 153.834C3.43153 146.525 6.80872 139.442 11.524 132.858C16.3031 126.184 22.3565 120.1 29.6844 114.834Z" fill="black"/>
<path d="M155.023 21.0774C162.924 19.9424 171.08 18.7165 176.369 18.3987C177.07 18.3533 177.771 18.3533 178.344 18.3987L178.982 22.7573C176.624 22.6665 174.776 21.9401 174.585 20.9412C174.394 19.9424 175.923 18.9435 178.217 18.3987L178.854 22.7573C178.281 22.8935 177.644 22.9843 176.943 23.0297C169.487 23.4838 161.458 23.847 156.042 24.6188C151.072 25.3453 146.102 26.2079 141.259 27.2068C140.048 27.4792 138.838 27.7516 137.627 28.024C136.416 28.2964 135.206 28.5688 133.995 28.8867L130.427 29.7947L126.922 30.839C126.348 31.0206 125.775 31.1568 125.138 31.3384L123.417 31.8832C122.27 32.2464 121.123 32.6097 119.976 33.0183C117.746 33.8355 115.452 34.6528 113.286 35.5608C111.056 36.4235 108.953 37.4223 106.85 38.4212C105.767 38.9206 104.811 39.4654 103.791 39.9649C102.772 40.4643 101.752 41.0091 100.797 41.5994C84.9301 50.4075 73.3967 62.9385 67.5981 76.6047C66.6423 78.784 65.8139 81.5082 65.3042 84.5048C65.1767 85.2312 65.0493 86.003 64.8581 86.7749C64.7307 87.5467 64.667 88.3186 64.6033 89.0904C64.3484 90.6341 64.3484 92.1778 64.1572 93.7215C64.1572 94.0393 64.0935 94.3571 63.966 94.6749C63.9023 94.9927 63.8386 95.3105 63.7112 95.583C63.52 96.1732 63.2014 96.6726 62.8828 97.1267C62.1819 97.9893 61.2261 98.5795 60.1428 98.6249C59.0596 98.6249 58.1038 98.0801 57.4028 97.1721C57.0842 96.718 56.7656 96.1278 56.5745 95.5376C56.447 95.2197 56.3833 94.9019 56.3833 94.5387C56.3833 94.2209 56.3833 93.8577 56.3833 93.4945C56.447 92.9496 56.5107 92.314 56.5745 91.6784C56.6382 91.0427 56.7019 90.3617 56.8931 89.6806C57.0842 88.9996 57.2117 88.2732 57.4028 87.5013C57.4665 87.1381 57.594 86.7295 57.6577 86.3662C57.7852 86.003 57.9126 85.5944 58.04 85.2312C58.5498 83.6875 59.0596 82.053 59.6968 80.4185C60.0154 79.6013 60.2703 78.784 60.6526 77.9214C61.0349 77.1041 61.3535 76.2869 61.7358 75.4696C61.927 75.0156 62.1182 74.5616 62.3093 74.1076L62.9465 72.7909C63.3926 71.8829 63.8386 71.0202 64.2847 70.1122C65.3042 68.3869 66.26 66.6162 67.4707 64.9363C69.7009 61.5311 72.4409 58.2621 75.4357 55.1293L77.7297 52.8138C78.4943 52.0419 79.3864 51.3155 80.1511 50.5891C81.7441 49.0908 83.592 47.7287 85.3124 46.2758C86.2045 45.5948 87.1603 44.9137 88.1161 44.2781L89.518 43.2793L90.9836 42.3258L93.9784 40.4189L97.1007 38.6482C98.1203 38.058 99.2035 37.5131 100.287 36.9683C101.37 36.4235 102.453 35.8332 103.537 35.3338C105.767 34.335 107.997 33.2907 110.291 32.3827C112.585 31.4292 114.942 30.612 117.3 29.7493C118.511 29.3407 119.722 28.9775 120.868 28.5688L122.653 27.9786C123.226 27.797 123.863 27.6154 124.501 27.4338L128.196 26.3895L131.892 25.4361C133.103 25.1182 134.377 24.8458 135.652 24.5734C136.926 24.301 138.137 23.9832 139.411 23.7562C144.827 22.6665 149.925 21.7585 155.023 21.0774Z" fill="black"/>
<path d="M414.557 70.6115C416.723 74.9702 418.571 79.465 419.782 83.6875C420.419 85.776 420.738 87.8191 421.12 89.726C421.247 90.6795 421.311 91.5875 421.375 92.4502C421.438 92.8588 421.438 93.3128 421.502 93.7214C421.502 94.1301 421.502 94.5387 421.502 94.9019C421.502 95.8554 421.375 96.8088 421.184 97.6261C420.992 98.4433 420.61 99.2151 420.291 99.8054C419.591 101.031 418.698 101.712 417.743 101.667C416.851 101.576 416.15 100.759 415.64 99.5784C415.385 98.9881 415.258 98.2617 415.13 97.4444C415.003 96.6726 414.939 95.81 414.939 94.9019C414.939 90.7703 414.493 86.457 413.601 82.4616C412.645 78.4662 411.243 74.7886 409.841 71.8828C404.298 61.1224 395.504 51.3155 384.417 43.0068C373.202 34.6528 359.948 27.8424 345.802 22.2579C338.729 19.4883 331.338 17.0366 323.819 14.8572C316.3 12.6779 308.653 10.771 300.879 9.13653C293.105 7.50204 285.204 6.27617 277.239 5.45893C269.274 4.64168 261.181 4.14225 253.216 4.27846C251.942 4.27846 250.604 4.36926 249.202 4.41467C247.8 4.50547 246.334 4.50547 244.805 4.64168C241.81 4.9595 238.56 5.18651 235.311 5.73134C234.482 5.86755 233.654 5.95835 232.826 6.09456C232.443 6.13996 231.997 6.23077 231.551 6.27617L230.34 6.50318C228.684 6.821 227.027 7.13882 225.37 7.45664C223.714 7.81986 222.121 8.27388 220.464 8.6371C219.635 8.86412 218.807 9.00032 218.042 9.22733C217.278 9.45435 216.449 9.68136 215.685 9.90837C214.347 10.317 212.945 10.5894 211.734 10.8618C210.523 11.1342 209.376 11.3613 208.293 11.4521C206.254 11.6337 204.661 11.4521 204.151 10.771C203.642 10.09 204.279 9.09113 205.872 8.00147C206.636 7.45664 207.656 6.8664 208.803 6.27617C209.95 5.73134 211.352 5.27732 212.881 4.82329C213.455 4.64168 214.092 4.46007 214.729 4.32386C215.366 4.14225 216.003 3.96064 216.704 3.82443C218.042 3.55202 219.508 3.2342 221.037 2.91638C221.802 2.78018 222.567 2.59857 223.331 2.46236C224.16 2.32615 224.924 2.23535 225.753 2.09914C227.409 1.87213 229.13 1.55431 230.85 1.3727C237.86 0.555453 245.633 0.14683 253.216 0.0106227C261.627 -0.0801823 269.975 0.419245 278.258 1.3273C286.542 2.23535 294.698 3.50662 302.663 5.23191C310.628 6.91181 318.466 8.90952 326.176 11.1796C333.823 13.4498 341.342 15.9923 348.67 18.8527C363.198 24.6188 376.834 31.7016 388.367 40.3735C399.646 49.0454 408.822 59.3517 414.557 70.6115Z" fill="black"/>
<path d="M210.842 308.748C221.675 308.702 232.634 307.431 239.516 306.841C243.913 306.432 247.736 307.068 247.991 308.339C248.246 309.61 244.805 311.018 240.281 311.427C229.894 312.38 218.552 312.335 210.842 312.335C209.058 312.38 207.274 312.335 205.49 312.335C203.705 312.289 201.921 312.335 200.137 312.244C196.569 312.108 193 312.062 189.432 311.79C182.295 311.427 175.222 310.7 168.149 309.837L162.86 309.111L161.522 308.929L160.184 308.702L157.572 308.248C154.067 307.704 150.626 306.977 147.185 306.251C140.367 304.707 133.549 303.027 127.049 300.939C113.859 296.852 101.561 291.313 90.4102 284.866C89.0083 284.049 87.6702 283.186 86.3321 282.324L84.293 281.052C83.6558 280.598 83.0186 280.144 82.3177 279.736L78.4307 277.057L74.7349 274.242L72.887 272.834L71.1666 271.336L67.7257 268.34L64.5396 265.207C64.0299 264.707 63.4564 264.163 62.9466 263.663L61.481 262.029C60.2704 260.621 58.7411 259.168 57.4029 257.443C56.0011 255.763 54.4081 253.992 53.0699 252.04C52.369 251.087 51.6681 250.088 50.9034 249.089C50.2662 248.045 49.629 247.046 48.9918 246.002C47.6537 243.958 46.6979 241.779 45.6783 239.645C45.4872 239.191 45.296 238.737 45.1686 238.283C45.0411 237.829 44.9774 237.375 44.9137 236.966C44.7863 236.104 44.7863 235.332 44.9137 234.651C45.1686 233.289 45.8058 232.426 46.8253 232.245C47.8448 232.063 49.0555 232.653 50.1388 233.743C50.7123 234.288 51.222 234.923 51.6681 235.65C51.923 236.013 52.1141 236.422 52.3053 236.83C52.4964 237.239 52.7513 237.647 52.9425 238.101C53.2611 238.782 53.5797 239.509 53.8983 240.281C54.2806 241.053 54.5355 241.915 54.9815 242.733C55.4276 243.595 55.8736 244.458 56.3197 245.366C56.7657 246.274 57.2118 247.227 57.849 248.181C58.9959 250.042 60.1429 252.085 61.6085 253.992C62.3094 254.946 63.0741 255.945 63.775 256.944C64.6033 257.897 65.4317 258.85 66.2601 259.758L67.6619 261.302C68.1717 261.802 68.6815 262.301 69.1912 262.8L72.2498 265.797L75.4996 268.657L77.1563 270.11L78.8768 271.472L82.3814 274.196L86.0772 276.784C86.7144 277.193 87.2879 277.647 87.9251 278.056L89.9004 279.282C91.1748 280.099 92.4492 280.916 93.7874 281.733C104.492 287.999 116.281 293.402 128.961 297.352C135.269 299.44 141.833 301.075 148.46 302.573C151.773 303.254 155.15 303.981 158.527 304.525L161.076 304.979L162.351 305.206L163.625 305.388L168.723 306.114C175.605 306.977 182.486 307.749 189.432 308.112C192.873 308.385 196.377 308.43 199.882 308.612C201.603 308.657 203.387 308.657 205.107 308.702C207.337 308.748 209.122 308.793 210.842 308.748Z" fill="black"/>
<path d="M415.257 247.363C416.723 245.366 417.997 243.277 418.826 241.416C419.718 239.509 420.227 237.829 420.61 236.558C420.865 235.74 421.311 235.059 421.948 234.515C422.585 234.015 423.413 233.652 424.306 233.652C425.198 233.652 426.026 234.06 426.536 234.742C427.046 235.423 427.3 236.421 426.982 237.466C426.345 239.827 424.943 242.051 423.541 243.958C422.139 245.911 420.737 247.59 419.718 248.998C415.958 254.219 412.199 259.441 407.802 264.526C403.405 269.565 398.371 274.469 392.254 278.646L389.96 280.189C389.196 280.689 388.367 281.188 387.539 281.642C385.946 282.641 384.225 283.504 382.569 284.457C379.128 286.183 375.623 287.863 371.927 289.315C364.599 292.267 356.953 294.673 349.179 296.761C344.273 298.078 337.2 300.394 330.382 301.892C327.45 302.573 324.519 301.937 323.882 300.484C323.245 299.032 325.093 297.352 328.024 296.671C332.612 295.626 340.131 294.627 347.013 292.766C354.595 290.768 362.051 288.498 369.06 285.729C372.564 284.367 375.942 282.823 379.191 281.188C380.784 280.326 382.441 279.508 383.907 278.6L386.201 277.238L388.367 275.785C394.102 271.881 398.945 267.295 403.278 262.482C407.674 257.67 411.498 252.494 415.257 247.363Z" fill="black"/>
<path d="M455.784 215.309C454.254 218.124 452.725 220.939 451.259 223.527C449.794 226.115 448.392 228.431 447.118 230.156C445.525 232.381 442.848 233.607 441.255 233.016C439.662 232.381 439.79 230.156 441.319 228.022C444.951 223.119 448.902 217.807 451.004 213.993C454.891 206.91 458.014 199.646 460.371 192.29C462.729 184.89 464.258 177.398 464.768 169.862C465.214 162.325 464.513 154.788 462.347 147.478C460.18 140.168 456.421 133.131 451.068 126.775C450.24 125.73 449.157 124.686 448.073 123.506C446.863 122.371 445.588 121.19 444.123 120.055C441.255 117.739 437.942 115.424 434.628 113.381C433.864 112.927 433.29 112.473 432.717 111.973C432.207 111.474 431.761 111.02 431.442 110.52C430.869 109.567 430.741 108.659 431.379 108.069C432.016 107.433 433.226 107.251 434.756 107.433C435.52 107.524 436.349 107.706 437.177 108.023C438.005 108.341 438.834 108.75 439.662 109.249C442.147 110.838 445.142 113.063 447.946 115.742C450.813 118.42 453.617 121.508 456.166 124.595C461.773 131.406 465.724 138.942 467.954 146.615C470.184 154.334 470.822 162.234 470.312 169.998C469.738 177.807 468.082 185.525 465.596 193.108C463.111 200.69 459.862 208.136 455.784 215.309Z" fill="black"/>
<path d="M309.736 326.182C312.158 327.635 315.152 328.634 316.809 329.497C317.829 330.087 317.765 331.358 316.618 332.357C315.535 333.356 313.751 333.719 312.731 333.129C310.373 331.767 308.207 329.951 306.486 328.907C293.679 321.461 281.508 313.424 270.102 304.843C268.318 303.481 265.132 301.801 262.774 299.894C261.755 299.077 262.201 297.579 263.794 296.58C265.387 295.581 267.49 295.445 268.509 296.262C270.102 297.533 271.886 300.031 274.435 301.937C285.522 310.564 297.311 318.646 309.736 326.182Z" fill="black"/>
<path d="M314.006 326.182C314.069 328.044 314.961 329.905 315.025 331.131C315.025 331.903 313.623 332.539 311.839 332.584C310.055 332.629 308.526 332.039 308.526 331.267C308.462 329.497 309.035 327.59 308.972 326.319L307.442 297.579C307.379 296.035 306.55 293.856 306.487 291.767C306.423 290.859 308.143 290.087 310.246 290.042C312.349 289.997 314.133 290.678 314.133 291.586C314.197 292.993 313.305 295.263 313.368 297.443L314.006 326.182Z" fill="black"/>
<path d="M136.308 173.32L132.708 170.368C131.952 170.62 130.728 170.764 129.36 170.764H109.38C108.156 170.764 106.176 170.584 105.24 170.44V175.48C105.996 175.408 107.94 175.228 109.38 175.228H128.424C126.732 178.18 123.348 182.356 119.28 185.596C117.012 183.616 114.636 181.672 113.196 180.592L109.38 183.652C111.54 185.2 115.212 188.44 117.3 190.564C119.64 192.94 122.664 196.324 124.176 198.34L128.388 194.992C126.984 193.3 124.86 190.96 122.808 188.908C127.884 184.804 132.492 179.044 135.084 174.832C135.372 174.364 135.804 173.896 136.308 173.32ZM146.676 168.64L143.292 172.24C145.92 174.076 150.42 178 152.292 180.016L155.964 176.272C153.876 174.076 149.196 170.332 146.676 168.64ZM142.176 192.616L145.2 197.368C150.276 196.504 154.92 194.488 158.556 192.292C164.352 188.8 169.14 183.832 171.876 178.972L169.068 173.896C166.8 178.756 162.12 184.264 155.964 187.9C152.472 189.988 147.792 191.824 142.176 192.616ZM185.124 167.488L182.496 171.448C184.872 172.78 188.616 175.228 190.632 176.632L193.332 172.636C191.46 171.34 187.5 168.784 185.124 167.488ZM178.428 193.048L181.128 197.8C184.332 197.224 189.48 195.424 193.152 193.336C199.056 189.952 204.132 185.38 207.48 180.412L204.708 175.516C201.828 180.664 196.824 185.596 190.704 189.016C186.78 191.176 182.46 192.364 178.428 193.048ZM179.58 175.696L176.952 179.692C179.364 180.952 183.108 183.4 185.16 184.804L187.788 180.772C185.952 179.476 181.992 176.992 179.58 175.696ZM217.668 175.66V180.016C218.532 179.944 220.8 179.872 222.132 179.872H234.012V184.228H222.528C221.16 184.228 219.54 184.192 218.604 184.12V188.368C219.432 188.332 221.16 188.296 222.528 188.296H234.012V193.084H220.404C219.108 193.084 217.884 193.012 217.272 192.94V197.368C217.884 197.332 219.36 197.26 220.368 197.26H234.012C234.012 197.8 234.012 198.376 233.976 198.7H238.512C238.512 198.052 238.476 196.828 238.476 196.252V178.18C238.476 177.424 238.476 176.236 238.512 175.768C237.936 175.804 236.604 175.84 235.74 175.84H222.132C220.8 175.84 218.604 175.768 217.668 175.66ZM254.676 168.64L251.292 172.24C253.92 174.076 258.42 178 260.292 180.016L263.964 176.272C261.876 174.076 257.196 170.332 254.676 168.64ZM250.176 192.616L253.2 197.368C258.276 196.504 262.92 194.488 266.556 192.292C272.352 188.8 277.14 183.832 279.876 178.972L277.068 173.896C274.8 178.756 270.12 184.264 263.964 187.9C260.472 189.988 255.792 191.824 250.176 192.616ZM284.556 186.568C284.268 189.592 283.692 192.796 282.648 194.92C283.584 195.244 285.168 196 285.924 196.468C286.968 194.164 287.724 190.564 288.084 187.18L284.556 186.568ZM292.368 187.216C293.196 189.34 294.132 192.112 294.456 193.912L297.624 192.76C297.228 190.96 296.292 188.332 295.392 186.28L292.368 187.216ZM308.856 190.168H315.264V186.388H308.856V182.104H304.644V186.388H298.524V190.168H304.644V194.38H296.4V198.124H316.74V194.38H308.856V190.168ZM309.972 170.836C309.036 172.42 307.848 173.86 306.444 175.12C305.04 173.86 303.852 172.42 302.988 170.836H309.972ZM312.888 166.984L312.132 167.164H297.228V170.836H301.332L299.028 171.592C300.18 173.824 301.584 175.768 303.276 177.46C301.116 178.756 298.704 179.764 296.112 180.448C295.608 179.296 295.032 178.144 294.456 177.136L291.612 178.324C292.044 179.116 292.476 180.016 292.872 180.916L289.416 181.06C291.684 178.144 294.168 174.508 296.148 171.376L292.656 169.756C291.828 171.52 290.676 173.572 289.452 175.588C289.092 175.156 288.696 174.652 288.228 174.148C289.524 172.132 290.964 169.36 292.26 166.912L288.552 165.544C287.94 167.452 286.932 169.828 285.924 171.808C285.636 171.556 285.348 171.304 285.096 171.088L283.044 174.004C284.52 175.444 286.248 177.352 287.292 178.9C286.716 179.728 286.14 180.52 285.6 181.204L283.008 181.312L283.368 185.02L288.588 184.696V199.168H292.296V184.444L294.132 184.3C294.348 184.984 294.492 185.596 294.6 186.136L297.624 184.768C297.408 183.616 296.832 182.068 296.148 180.52C296.976 181.42 297.948 183.004 298.416 183.976C301.404 183.04 304.176 181.816 306.624 180.196C308.928 181.78 311.628 182.968 314.652 183.796C315.228 182.788 316.38 181.168 317.28 180.34C314.544 179.764 312.06 178.828 309.9 177.604C312.456 175.156 314.472 172.096 315.768 168.28L312.888 166.984ZM344.64 194.308H327.756V191.176H344.64V194.308ZM330.672 179.656H341.364V182.176H330.672V179.656ZM345.504 185.308V176.488H326.712V185.308H333.264C333.12 186.028 332.904 186.784 332.724 187.504H323.688V199.204H327.756V198.016H344.64V199.204H348.888V187.504H336.972C337.296 186.82 337.62 186.1 337.908 185.308H345.504ZM346.44 171.088C347.448 169.9 348.528 168.46 349.572 167.092L344.964 165.652C344.28 167.38 342.912 169.54 341.76 171.088H335.856L338.376 170.152C337.872 168.856 336.684 166.804 335.64 165.4L331.896 166.66C332.76 168.028 333.732 169.792 334.236 171.088H328.692L329.844 170.584C329.232 169.252 327.828 167.344 326.64 165.976L322.932 167.596C323.76 168.64 324.66 169.936 325.308 171.088H320.916V178.756H324.84V174.724H347.34V178.756H351.48V171.088H346.44ZM370.38 167.812L365.016 167.272C365.088 169.54 364.764 172.168 364.26 174.868C362.424 175.048 360.732 175.156 359.616 175.192C358.284 175.228 357.096 175.3 355.764 175.192L356.196 180.088C357.312 179.908 359.184 179.656 360.228 179.476C360.876 179.404 362.028 179.26 363.324 179.116C361.992 184.048 359.508 191.32 356.016 196.036L360.696 197.908C364.008 192.616 366.672 184.084 368.04 178.612C369.084 178.54 369.984 178.468 370.56 178.468C372.792 178.468 374.052 178.864 374.052 181.744C374.052 185.308 373.548 189.664 372.576 191.716C372 192.904 371.1 193.264 369.876 193.264C368.94 193.264 366.852 192.904 365.484 192.508L366.24 197.26C367.464 197.512 369.192 197.764 370.56 197.764C373.296 197.764 375.276 196.972 376.464 194.452C378.012 191.32 378.516 185.488 378.516 181.24C378.516 176.056 375.816 174.364 372 174.364C371.244 174.364 370.2 174.436 368.976 174.508C369.228 173.212 369.516 171.88 369.732 170.8C369.912 169.9 370.164 168.748 370.38 167.812ZM386.4 164.824L383.52 165.976C384.528 167.344 385.68 169.468 386.436 170.944L389.28 169.72C388.668 168.46 387.336 166.192 386.4 164.824ZM382.116 166.444L379.272 167.632C380.1 168.784 381 170.512 381.72 171.88L378.48 173.284C381.036 176.452 383.592 182.788 384.528 186.784L389.1 184.696C388.092 181.492 385.392 175.48 383.232 172.132L384.996 171.376C384.312 170.044 383.016 167.776 382.116 166.444ZM111.792 212.044C111.792 212.44 111.72 213.448 111.648 214.816C110.1 215.032 108.516 215.212 107.472 215.284C106.212 215.356 105.384 215.356 104.34 215.32L104.808 219.928C106.824 219.64 109.596 219.28 111.36 219.064C111.324 219.928 111.252 220.792 111.18 221.62C109.128 224.644 105.528 229.396 103.476 231.916L106.32 235.84C107.58 234.148 109.344 231.52 110.856 229.252C110.82 232.276 110.784 234.364 110.712 237.172C110.712 237.748 110.676 239.044 110.604 239.836H115.572C115.464 239.008 115.356 237.712 115.32 237.064C115.104 233.68 115.104 230.656 115.104 227.704C115.104 226.768 115.14 225.724 115.176 224.68C118.2 221.908 121.548 220.072 125.364 220.072C128.964 220.072 131.232 222.664 131.232 225.472C131.268 231.088 126.732 233.68 120.396 234.616L122.556 238.972C131.484 237.208 136.056 232.852 136.056 225.58C136.02 219.784 131.664 215.86 126.12 215.86C122.88 215.86 119.172 216.868 115.536 219.568C115.572 219.244 115.572 218.884 115.608 218.56C116.22 217.624 116.94 216.436 117.444 215.788L116.112 214.096C116.4 211.828 116.688 209.992 116.904 208.984L111.648 208.804C111.828 209.92 111.792 211 111.792 212.044ZM154.632 209.56L149.268 209.02C149.304 211.288 149.016 213.916 148.512 216.652C146.676 216.796 144.984 216.904 143.868 216.94C142.536 216.976 141.312 217.048 140.016 216.94L140.448 221.836C141.528 221.656 143.436 221.404 144.444 221.224C145.128 221.152 146.244 221.008 147.54 220.864C146.244 225.796 143.76 233.068 140.268 237.784L144.948 239.656C148.26 234.364 150.924 225.832 152.292 220.36C153.3 220.288 154.2 220.216 154.776 220.216C157.044 220.216 158.268 220.612 158.268 223.492C158.268 227.056 157.8 231.412 156.828 233.464C156.252 234.652 155.316 235.012 154.128 235.012C153.156 235.012 151.104 234.652 149.7 234.256L150.492 239.008C151.716 239.26 153.408 239.512 154.812 239.512C157.512 239.512 159.528 238.72 160.716 236.2C162.264 233.068 162.768 227.236 162.768 222.988C162.768 217.804 160.068 216.112 156.252 216.112C155.496 216.112 154.416 216.184 153.228 216.256C153.48 214.96 153.732 213.628 153.984 212.548C154.164 211.648 154.416 210.496 154.632 209.56ZM167.016 212.944L162.732 214.78C165.288 217.948 167.844 224.464 168.78 228.46L173.352 226.336C172.272 222.916 169.248 216.04 167.016 212.944ZM188.04 233.752C188.04 232.852 188.904 232.024 190.272 232.024C192.216 232.024 193.548 233.536 193.764 235.876C193.116 235.948 192.432 235.984 191.676 235.984C189.516 235.984 188.04 235.084 188.04 233.752ZM181.92 210.568L182.064 215.248C182.892 215.14 184.044 215.032 185.016 214.96C186.924 214.852 191.892 214.636 193.728 214.6C191.964 216.148 188.22 219.172 186.204 220.828C184.08 222.592 179.724 226.264 177.168 228.316L180.444 231.7C184.296 227.308 187.896 224.392 193.404 224.392C197.652 224.392 200.892 226.588 200.892 229.828C200.892 232.024 199.884 233.68 197.904 234.724C197.4 231.304 194.7 228.568 190.236 228.568C186.42 228.568 183.792 231.268 183.792 234.184C183.792 237.784 187.572 240.088 192.576 240.088C201.288 240.088 205.608 235.588 205.608 229.9C205.608 224.644 200.964 220.828 194.844 220.828C193.692 220.828 192.612 220.936 191.424 221.224C193.692 219.424 197.472 216.256 199.416 214.888C200.244 214.276 201.108 213.772 201.936 213.232L199.596 210.028C199.164 210.172 198.336 210.28 196.86 210.424C194.808 210.604 187.104 210.748 185.196 210.748C184.188 210.748 182.928 210.712 181.92 210.568ZM226.164 228.748H229.836L230.808 216.436L230.988 211.072H225.012L225.192 216.436L226.164 228.748ZM228 238.324C229.8 238.324 231.168 237.028 231.168 235.156C231.168 233.248 229.8 231.952 228 231.952C226.2 231.952 224.832 233.248 224.832 235.156C224.832 237.028 226.164 238.324 228 238.324Z" fill="black"/>
<rect width="129" height="58" transform="translate(102 89)" fill="#FEEF44"/>
<path d="M141.68 107.156H132.772V105.966H141.68V107.156ZM141.68 110.556H132.772V109.332H141.68V110.556ZM145.658 103.654H128.964V112.868H145.658V103.654ZM143.584 118.716H141.204V116.472H143.584V118.716ZM138.178 118.716H135.866V116.472H138.178V118.716ZM132.84 118.716H130.596V116.472H132.84V118.716ZM147.222 114.024H127.162V121.164H147.222V114.024ZM127.06 107.496C125.632 106.204 122.742 104.47 120.634 103.382L118.254 106.17C120.396 107.394 123.218 109.264 124.51 110.59L127.06 107.496ZM125.156 116.404C123.762 115.18 120.974 113.412 118.9 112.324L116.52 115.078C118.594 116.302 121.348 118.24 122.572 119.566L125.156 116.404ZM123.184 120.858C121.314 124.666 118.9 128.746 117.234 131.228L120.736 133.88C122.572 130.684 124.578 126.944 126.21 123.51L123.184 120.858ZM140.592 125.482C139.572 126.434 138.314 127.216 136.92 127.896C135.526 127.182 134.268 126.4 133.248 125.482H140.592ZM144.196 122.184L143.482 122.32H126.55V125.482H128.556C129.746 127.046 131.14 128.372 132.772 129.528C130.324 130.276 127.672 130.752 124.952 131.058C125.632 131.908 126.414 133.506 126.754 134.492C130.29 133.948 133.724 133.132 136.75 131.84C139.504 133.098 142.632 133.948 146.134 134.492C146.644 133.472 147.698 131.84 148.548 131.024C145.862 130.718 143.346 130.276 141.102 129.562C143.482 127.964 145.42 125.992 146.746 123.51L144.196 122.184ZM176.802 128.644H156.266V110.76H152.322V134.458H156.266V132.452H176.802V134.424H180.712V110.76H176.802V128.644ZM171.09 117.39H168.132V114.534H171.09V117.39ZM171.09 123.34H168.132V120.45H171.09V123.34ZM161.706 120.45H164.664V123.34H161.706V120.45ZM161.706 114.534H164.664V117.39H161.706V114.534ZM151.302 104.742V108.516H164.358V111.236H158.408V126.638H174.592V111.236H168.404V108.516H181.732V104.742H151.302ZM185.846 108.176L186.288 112.834C190.232 111.984 197.168 111.236 200.364 110.896C198.052 112.63 195.298 116.506 195.298 121.402C195.298 128.78 202.03 132.588 209.17 133.064L210.768 128.406C204.988 128.1 199.752 126.094 199.752 120.484C199.752 116.438 202.846 112.052 206.96 110.964C208.762 110.522 211.686 110.522 213.522 110.488L213.488 106.136C211.074 106.238 207.368 106.442 203.866 106.748C197.644 107.258 192.034 107.768 189.178 108.006C188.532 108.074 187.206 108.142 185.846 108.176ZM208.66 113.82L206.144 114.874C207.232 116.404 207.946 117.73 208.796 119.6L211.38 118.444C210.734 117.118 209.51 115.044 208.66 113.82ZM212.468 112.256L209.986 113.412C211.074 114.908 211.856 116.166 212.774 118.002L215.324 116.778C214.61 115.452 213.318 113.446 212.468 112.256Z" fill="#550D76"/>
</svg>
