<svg width="998" height="127" viewBox="0 0 998 127" fill="none" xmlns="http://www.w3.org/2000/svg">
<path d="M537.596 8.94208C654.71 8.02173 808.345 -8.87341 917.776 9.86244C1042.57 31.2279 1017.64 111.956 871.686 119.451C767.78 124.776 576.544 117.479 576.544 117.479C572.232 117.544 555.251 116.427 547.165 117.479C541.774 117.479 521.559 118.859 517.92 118.859L493.393 118.53C360.916 118.53 209.302 138.187 71.0308 117.61C-37.3224 101.438 -16.9725 15.8448 99.8711 4.27456C222.644 -7.88731 420.483 9.86244 537.596 8.94208Z" fill="white"/>
<path d="M502.692 117.281C502.692 117.347 502.961 117.61 503.096 118.005C502.827 117.479 502.692 117.281 502.692 117.281Z" fill="black"/>
<path d="M503.229 118.202C503.229 118.136 503.096 118.07 503.096 117.939C503.096 118.004 503.096 118.004 503.229 118.07C503.229 118.136 503.229 118.136 503.229 118.202Z" fill="black"/>
<path d="M504.442 119.977C504.442 119.977 504.442 119.911 504.308 119.911C504.04 119.451 504.174 119.582 504.442 119.977Z" fill="black"/>
<path d="M503.498 118.53V118.465C503.498 118.399 503.365 118.333 503.365 118.202V118.267C503.365 118.333 503.365 118.465 503.498 118.53Z" fill="black"/>
<path d="M505.117 120.897C505.251 121.028 505.251 121.094 505.386 121.226C505.117 120.963 504.847 120.503 504.578 120.108C504.578 120.042 504.444 119.977 504.444 119.911C504.444 119.977 504.578 120.042 504.578 120.108C504.578 120.108 504.578 120.108 504.578 120.174C504.847 120.437 504.982 120.7 505.117 120.897Z" fill="black"/>
<path d="M529.914 118.99C529.78 119.123 529.78 119.057 529.914 118.99V118.99Z" fill="black"/>
</svg>
